<!DOCTYPE svg PUBLIC "-//W3C//DTD SVG 1.1//EN" "http://www.w3.org/Graphics/SVG/1.1/DTD/svg11.dtd">
<svg xmlns="http://www.w3.org/2000/svg" width="420mm" height="297mm" viewBox="-210 -148.5 420 297">
    <defs id="_tag_16_"/>
    <g id="trashNode_001"/>
    <g id="_tag_17_">
        <polygon id="_140862664" points="9.980000000000004,-13.689999999999998 9.89,-14.399999999999991 9.590000000000003,-15.14 8.930000000000007,-16.019999999999996 7.599999999999994,-17.08 5.640000000000001,-18.0 3.5799999999999983,-18.569999999999993 1.6899999999999977,-18.849999999999994 -0.00999999999999801,-18.92 -1.7199999999999989,-18.849999999999994 -3.469999999999999,-18.599999999999994 -5.039999999999999,-18.209999999999994 -6.350000000000001,-17.730000000000004 -7.519999999999996,-17.14 -8.519999999999996,-16.429999999999993 -9.229999999999997,-15.709999999999994 -9.68,-15.010000000000005 -9.920000000000002,-14.340000000000003 -10.0,-13.689999999999998 -10.0,-12.730000000000004 -10.0,-10.189999999999998 -10.269999999999996,-8.099999999999994 -11.019999999999996,-4.359999999999999 -11.350000000000001,-2.6499999999999915 -11.589999999999996,-1.2199999999999989 -11.649999999999999,0.0 -11.560000000000002,1.4399999999999977 -11.350000000000001,2.6400000000000006 -10.839999999999996,4.290000000000006 -10.409999999999997,5.269999999999996 -9.07,6.210000000000008 -3.8399999999999963,-2.3499999999999943 -3.259999999999998,-3.1099999999999994 -2.5600000000000023,-3.700000000000003 -1.6899999999999977,-4.170000000000002 -0.759999999999998,-4.439999999999998 0.4399999999999977,-4.480000000000004 1.490000000000002,-4.25 2.3500000000000014,-3.8400000000000034 3.1400000000000006,-3.230000000000004 3.700000000000003,-2.569999999999993 4.200000000000003,-1.6099999999999994 4.460000000000001,-0.6200000000000045 4.5,0.21999999999999886 4.399999999999999,0.960000000000008 4.160000000000004,1.710000000000008 3.8400000000000034,2.3500000000000085 -1.4099999999999966,10.939999999999998 0.3299999999999983,11.879999999999995 2.450000000000003,11.39 3.710000000000001,11.049999999999997 5.079999999999998,10.490000000000009 6.280000000000001,9.820000000000007 7.18,9.180000000000007 8.39,8.079999999999998 9.489999999999995,6.760000000000005 10.320000000000007,5.420000000000002 10.960000000000008,3.960000000000008 11.299999999999997,2.8400000000000034 11.560000000000002,1.5100000000000051 11.650000000000006,0.0 11.599999999999994,-1.1200000000000045 11.420000000000002,-2.319999999999993 11.280000000000001,-3.469999999999999 10.239999999999995,-8.159999999999997 9.969999999999999,-10.189999999999998 9.969999999999999,-12.730000000000004" fill="none" stroke="black" stroke-width="0.1"/>
        <polyline id="simplify_SVG__000011" points="-11.350000000000001,-2.6499999999999915 -10.920000000000002,-4.090000000000003 -10.369999999999997,-5.319999999999993 -9.780000000000001,-6.340000000000003 -9.170000000000002,-7.189999999999998 -8.299999999999997,-8.179999999999993 -7.219999999999999,-9.14 -6.089999999999996,-9.939999999999998 -4.829999999999998,-10.61 -3.1700000000000017,-11.219999999999999 -1.7199999999999989,-11.530000000000001 0.0,-11.649999999999991 1.0900000000000034,-11.599999999999994 2.1099999999999994,-11.459999999999994 3.1300000000000026,-11.230000000000004 4.270000000000003,-10.849999999999994 5.57,-10.239999999999995 6.469999999999999,-9.689999999999998 7.659999999999997,-8.780000000000001 8.530000000000001,-7.929999999999993 9.290000000000006,-7.030000000000001 9.810000000000002,-6.289999999999992 10.570000000000007,-4.909999999999997 11.099999999999994,-3.549999999999997 11.420000000000002,-2.319999999999993" fill="none" stroke="black" stroke-width="0.1"/>
        <line id="_142474968" x1="9.969999999999999" y1="-12.730000000000004" x2="-10.0" y2="-12.730000000000004" stroke="black" stroke-width="0.1"/>
        <circle id="center_00" cx="0.0" cy="0.0" r="4.5" fill="none" stroke="black" stroke-width="0.1"/>
    </g>
</svg>
