<!DOCTYPE svg PUBLIC "-//W3C//DTD SVG 1.1//EN" "http://www.w3.org/Graphics/SVG/1.1/DTD/svg11.dtd">
<svg xmlns="http://www.w3.org/2000/svg" width="420mm" height="297mm" viewBox="-210 -148.5 420 297">
    <polyline id="outline" points="24.1,39.2 22.5,18.7 22.5,16.3 22.5,16.2 22.6,16.0 22.700000000000003,15.8 22.8,15.700000000000001 22.900000000000002,15.600000000000001 23.0,15.5 23.200000000000003,15.4 23.400000000000002,15.4 23.400000000000002,15.4 23.400000000000002,15.4 23.400000000000002,15.4 23.5,15.4 23.5,15.3 23.5,15.3 23.5,15.3 23.5,15.3 23.5,15.3 23.5,15.3 23.5,13.8 23.5,12.3 23.5,10.8 23.5,9.4 23.5,7.9 23.5,6.4 23.5,4.9 23.5,3.4000000000000004 23.5,3.4000000000000004 23.5,3.4000000000000004 23.5,3.4000000000000004 23.5,3.3000000000000003 23.5,3.3000000000000003 23.5,3.3000000000000003 23.5,3.3000000000000003 23.400000000000002,3.3000000000000003 23.400000000000002,3.3000000000000003 23.400000000000002,3.3000000000000003 23.400000000000002,3.3000000000000003 23.200000000000003,3.3000000000000003 23.0,3.2 22.900000000000002,3.1 22.8,3.0 22.700000000000003,2.8000000000000003 22.6,2.7 22.5,2.5 22.5,2.3000000000000003 22.5,2.2 22.5,1.0 22.5,1.0 22.5,1.0 22.5,1.0 22.5,1.0 22.5,1.0 22.5,1.0 22.5,1.0 22.5,1.0 22.5,1.0 22.5,0.9 22.5,0.9 22.5,0.8 22.5,0.8 22.400000000000002,0.7000000000000001 22.400000000000002,0.7000000000000001 22.400000000000002,0.7000000000000001 22.3,0.6000000000000001 22.3,0.6000000000000001 22.3,0.6000000000000001 22.3,0.6000000000000001 22.200000000000003,0.5 22.200000000000003,0.5 22.1,0.5 22.1,0.5 22.0,0.5 22.0,0.5 -22.0,0.5 -22.1,0.5 -22.200000000000003,0.5 -22.3,0.6000000000000001 -22.400000000000002,0.6000000000000001 -22.400000000000002,0.7000000000000001 -22.5,0.8 -22.5,0.9 -22.5,1.0 -22.5,22.8 -22.5,22.900000000000002 -22.5,23.0 -22.5,23.400000000000002 -19.6,45.2" fill="none" stroke="black" stroke-width="0.1"/>
    <g id="inline">
        <line id="simplify_35" x1="0.0" y1="2.0" x2="0.0" y2="-1.5" stroke="black" stroke-width="0.1"/>
        <line id="simplify_36" x1="0.0" y1="2.0" x2="0.0" y2="5.2" stroke="black" stroke-width="0.1"/>
        <polygon id="simplify_37_1" points="17.0,0.5 16.5,0.0 12.4,0.0 8.3,0.0 4.1000000000000005,0.0 0.0,0.0 -4.1000000000000005,0.0 -8.3,0.0 -12.4,0.0 -16.5,0.0 -17.0,0.5 -12.8,0.5 -8.6,0.5 -4.3,0.5 0.0,0.5 4.3,0.5 8.6,0.5 12.8,0.5" fill="none" stroke="black" stroke-width="0.1"/>
        <polyline id="simplify_SVG__000017" points="22.1,15.200000000000001 22.1,15.4 22.1,15.600000000000001 22.1,15.8 22.200000000000003,16.0 22.200000000000003,16.2 22.200000000000003,16.400000000000002 22.200000000000003,16.6 22.3,16.8 22.3,16.8 22.3,17.0 22.3,17.3 22.400000000000002,17.5 22.400000000000002,17.8 22.400000000000002,18.0 22.400000000000002,18.2 22.5,18.5 22.5,18.7" fill="none" stroke="black" stroke-width="0.1"/>
        <polyline id="simplify_SVG__000018" points="11.9,15.100000000000001 10.3,15.200000000000001 8.9,15.5 7.5,15.9 6.1000000000000005,16.400000000000002 4.7,16.900000000000002 3.4000000000000004,17.6 2.1,18.2 0.8,19.0 0.8,19.0 -0.4,19.700000000000003 -1.7000000000000002,20.400000000000002 -2.9000000000000004,21.1 -4.2,21.8 -5.5,22.5 -6.7,23.200000000000003 -8.0,23.8 -9.3,24.3 -9.3,24.3 -10.0,24.6 -10.700000000000001,24.900000000000002 -11.4,25.1 -12.100000000000001,25.3 -12.8,25.5 -13.5,25.6 -14.3,25.700000000000003 -15.100000000000001,25.8" fill="none" stroke="black" stroke-width="0.1"/>
        <polyline id="simplify_SVG__000019" points="22.200000000000003,15.200000000000001 22.1,14.700000000000001 22.0,14.200000000000001 22.0,13.700000000000001 21.900000000000002,13.200000000000001 21.8,12.700000000000001 21.8,12.200000000000001 21.700000000000003,11.700000000000001 21.700000000000003,11.200000000000001 21.700000000000003,11.200000000000001 21.700000000000003,10.700000000000001 21.6,10.3 21.6,9.9 21.5,9.4 21.5,9.0 21.5,8.6 21.5,8.200000000000001 21.5,7.7 21.5,7.7 21.5,7.4 21.5,7.1000000000000005 21.5,6.800000000000001 21.6,6.5 21.6,6.2 21.700000000000003,5.9 21.700000000000003,5.5 21.8,5.2 21.8,5.2 21.8,5.2 21.8,5.2 21.8,5.2 21.8,5.2 21.8,5.2 21.8,5.2 21.8,5.2 21.8,5.2 21.8,5.2 21.8,4.9 21.900000000000002,4.6000000000000005 21.900000000000002,4.3 22.0,4.1000000000000005 22.1,3.8000000000000003 22.1,3.5 22.200000000000003,3.2 22.3,2.9000000000000004" fill="none" stroke="black" stroke-width="0.1"/>
        <polyline id="simplify_SVG__000020" points="-22.400000000000002,21.400000000000002 -22.3,21.1 -22.3,20.900000000000002 -22.200000000000003,20.6 -22.200000000000003,20.6 -22.200000000000003,20.3 -22.1,20.0 -22.0,19.700000000000003 -21.900000000000002,19.400000000000002 -21.900000000000002,19.1 -21.8,18.8 -21.700000000000003,18.5 -20.0,13.8 -18.400000000000002,8.4 -17.5,4.2" fill="none" stroke="black" stroke-width="0.1"/>
    </g>
    <circle id="center_00" cx="0.0" cy="0.0" r="4.0" fill="none" stroke="black" stroke-width="0.1"/>
</svg>
