<!DOCTYPE svg PUBLIC "-//W3C//DTD SVG 1.1//EN" "http://www.w3.org/Graphics/SVG/1.1/DTD/svg11.dtd">
<svg xmlns="http://www.w3.org/2000/svg" width="420mm" height="297mm" viewBox="-210 -148.5 420 297">
        <polyline id="outline" class="fil0 str0" points="29.5,38.5 27.900000000000002,18.400000000000002 27.900000000000002,16.5 28.0,16.3 28.0,16.2 28.1,16.0 28.200000000000003,15.9 28.3,15.8 28.5,15.700000000000001 28.700000000000003,15.600000000000001 28.900000000000002,15.600000000000001 28.900000000000002,15.5 28.900000000000002,15.4 28.900000000000002,13.9 28.900000000000002,12.5 28.900000000000002,11.0 28.900000000000002,9.5 28.900000000000002,8.0 28.900000000000002,6.6000000000000005 28.900000000000002,5.1000000000000005 28.900000000000002,3.6 28.900000000000002,3.5 28.900000000000002,3.5 28.700000000000003,3.4000000000000004 28.5,3.4000000000000004 28.3,3.3000000000000003 28.200000000000003,3.2 28.1,3.0 28.0,2.9000000000000004 28.0,2.7 27.900000000000002,2.5 27.900000000000002,1.0 27.900000000000002,0.9 27.900000000000002,0.8 27.900000000000002,0.7000000000000001 27.8,0.6000000000000001 27.700000000000003,0.6000000000000001 27.6,0.5 27.5,0.5 27.400000000000002,0.5 -27.6,0.5 -27.700000000000003,0.5 -27.8,0.5 -27.8,0.6000000000000001 -27.900000000000002,0.6000000000000001 -28.0,0.7000000000000001 -28.0,0.8 -28.0,0.9 -28.1,1.0 -28.0,23.900000000000002 -28.0,24.1 -28.0,24.400000000000002 -27.6625,27.0625 -27.325000000000003,29.725 -26.9875,32.3875 -26.650000000000002,35.050000000000004 -26.3125,37.7125 -25.975,40.375 -25.637500000000003,43.0375 -25.3,45.7" fill="none" stroke="black" stroke-width="0.1"/>
        <g id="inline">
            <line id="simplify_48" x1="27.900000000000002" y1="18.400000000000002" x2="27.1" y2="12.100000000000001" stroke="black" stroke-width="0.1"/>
            <line id="simplify_50" x1="-0.1" y1="2.0" x2="-0.1" y2="-1.5" stroke="black" stroke-width="0.1"/>
            <line id="simplify_51" x1="-0.1" y1="2.0" x2="-0.1" y2="5.2" stroke="black" stroke-width="0.1"/>
            <line id="simplify_52" x1="-0.1" y1="-1.5" x2="-0.1" y2="-4.7" stroke="black" stroke-width="0.1"/>
            <line id="simplify_53___0" x1="22.400000000000002" y1="0.5" x2="21.900000000000002" y2="0.0" stroke="black" stroke-width="0.1"/>
            <polyline id="simplify_SVG__000042" points="22.5,0.5 -22.6,0.5 -22.1,0.0 15.5,0.0 17.0,0.0 18.2,0.0 19.400000000000002,0.0 20.3,0.0 21.0,0.0 21.5,0.0 21.8,0.0 21.900000000000002,0.0" fill="none" stroke="black" stroke-width="0.1"/>
            <polyline id="simplify_SVG__000043" points="27.200000000000003,7.0 27.3,6.0 27.3,6.0 27.400000000000002,5.0 27.6,4.2 27.700000000000003,3.5" fill="none" stroke="black" stroke-width="0.1"/>
            <polyline id="simplify_SVG__000044" points="27.200000000000003,11.600000000000001 27.200000000000003,10.5 27.1,9.200000000000001 27.1,8.0 27.200000000000003,7.0 27.200000000000003,7.0" fill="none" stroke="black" stroke-width="0.1"/>
            <polyline id="simplify_SVG__000045" points="19.8,14.8 18.400000000000002,14.9 16.5,15.200000000000001 15.0,15.5 13.4,16.0 11.5,16.7 9.0,17.7 6.800000000000001,18.8 5.0,19.8 3.6,20.5 1.1,22.0 -1.0,23.1 -3.4000000000000004,24.400000000000002 -5.7,25.8 -8.3,27.1 -11.0,28.3 -13.8,29.3 -15.3,29.8 -16.8,30.200000000000003 -18.2,30.400000000000002 -19.400000000000002,30.400000000000002" fill="none" stroke="black" stroke-width="0.1"/>
            <polyline id="simplify_SVG__000046" points="-27.8,21.200000000000003 -27.8,20.900000000000002 -27.700000000000003,20.6 -27.700000000000003,20.400000000000002 -27.700000000000003,20.400000000000002 -27.6,20.1 -27.5,19.8 -27.5,19.5 -27.400000000000002,19.200000000000003 -27.3,18.900000000000002 -27.200000000000003,18.6 -27.200000000000003,18.3 -25.5,13.600000000000001 -23.8,8.1 -22.900000000000002,3.9000000000000004" fill="none" stroke="black" stroke-width="0.1"/>
        </g>
        <circle id="center_00" cx="0.0" cy="0.0" r="4.0" fill="none" stroke="black" stroke-width="0.1"/>
</svg>
