<!DOCTYPE svg PUBLIC "-//W3C//DTD SVG 1.1//EN" "http://www.w3.org/Graphics/SVG/1.1/DTD/svg11.dtd">
<svg xmlns="http://www.w3.org/2000/svg" width="297mm" height="210mm" viewBox="0 0 297 210">
    <defs id="_tag_54_"/>
    <g id="_tag_55_">
        <polygon      id="simplify_42" fill="none" stroke="black" stroke-width="0.1" points="180.545,111.901 177.658,113.396 174.595,114.273 171.434,114.701 95.6424,120.578 96.2741,128.727 171.349,122.906 175.636,122.157 179.278,121.141 182.776,119.751 186.02,118.177 224.851,95.7252 220.759,88.6492" />
        <g id="_tag_56_">
            <polygon  id="path1590" fill="none" stroke="black" stroke-width="0.1" points="129.058,139.686 128.265,138.916 127.434,138.185 126.565,137.492 125.662,136.836 125.405,136.498 125.336,136.104 125.435,135.686 125.777,135.398 128.783,133.918 131.911,132.831 135.125,132.138 138.388,131.836 141.665,131.924 144.92,132.402 148.117,133.267 151.22,134.519 151.546,134.806 151.692,135.187 151.633,135.632 151.412,135.978 150.56,136.691 149.741,137.44 148.96,138.224 148.218,139.045 147.517,139.902 146.861,140.796 146.252,141.727 145.691,142.696 131.828,143.17 131.197,142.237 130.525,141.346 129.812,140.496" />
            <polyline id="path1710" fill="none" stroke="black" stroke-width="0.1" points="144.648,142.732 133.4202,143.1151 133.4436,143.52380000000002 133.6378,144.05830000000003 134.2163,144.45810000000003 134.7097,144.52120000000002 135.5018,144.47920000000002 136.6207,144.43080000000003 137.9451,144.37880000000004 139.3524,144.32790000000003 140.7226,144.28030000000004 141.9332,144.23950000000005 142.863,144.20850000000004 143.3905,144.19220000000004 143.8526,144.12250000000003 144.4089,143.73520000000002 144.6138,143.22990000000001 144.6316,142.7982" />
            <polygon  id="path1045" fill="none" stroke="black" stroke-width="0.1" points="136.972,112.75 137.839,112.655 138.516,112.56 139.027,112.386 138.879,111.976 138.317,111.809 137.924,111.725 137.48,111.638 137.023,111.559 136.589,111.5 135.95,111.486 135.379,111.623 134.644,111.886 133.96,112.173 133.54,112.382 133.209,112.649 133.336,112.911 134.244,112.946 135.073,112.905 136.017,112.836" />
            <polygon  id="path1073" fill="none" stroke="black" stroke-width="0.1" points="117.532,124.425 116.629,124.564 116.154,124.682 116.479,133.036 116.681,133.411 117.088,133.538 123.166,133.154 124.264,132.502 125.141,132.002 126.036,131.531 126.946,131.088 127.872,130.675 128.811,130.292 129.762,129.941 130.721,129.621 130.678,128.926 130.632,128.193 130.576,127.323 130.516,126.409 130.456,125.541 130.403,124.81 130.361,124.306 130.118,123.77 129.592,123.533 128.885,123.496 128.097,123.557 124.144,123.833 121.155,124.065 118.995,124.261" />
            <polygon  id="path1085" fill="none" stroke="black" stroke-width="0.1" points="158.189,122.279 157.994,121.903 145.834,122.556 145.348,122.538 144.929,122.575 144.292,122.807 143.923,123.242 143.821,123.871 143.861,124.35 143.911,125.046 143.967,125.873 144.023,126.744 144.075,127.572 144.118,128.271 144.147,128.754 145.16,129.122 146.147,129.343 147.119,129.598 148.078,129.887 149.023,130.207 149.954,130.56 150.873,130.943 151.78,131.357 158.216,130.989 158.594,130.813 158.722,130.431" />
            <polygon  id="path1033" fill="none" stroke="black" stroke-width="0.1" points="123.494,114.932 130.044,113.127 130.468,112.979 130.839,112.77 131.144,112.49 131.375,112.132 131.571,111.684 131.694,111.299 132.005,111.021 139.98,110.485 140.385,110.6 140.613,110.972 140.801,111.336 141.035,111.686 141.36,111.963 141.732,112.166 142.139,112.301 148.857,113.245 156.771,113.397 157.208,113.616 157.462,117.183 157.324,117.605 156.912,118.063 156.078,118.356 155.322,118.426 154.204,118.522 152.852,118.627 151.394,118.726 149.96,118.8 148.679,118.834 147.681,118.811 147.093,118.715 146.529,118.345 146.072,117.902 145.537,117.439 145.182,117.216 144.738,117.006 144.257,116.858 143.7,116.783 143.077,116.774 142.402,116.824 141.683,116.926 140.933,117.073 140.161,117.257 139.381,117.473 138.688,117.668 138.148,117.804 137.729,117.892 137.134,117.972 136.652,117.997 136.0,118.043 135.523,118.081 134.929,118.077 134.507,118.041 133.96,117.972 133.254,117.861 132.444,117.742 131.65,117.653 130.885,117.599 130.158,117.587 129.477,117.623 128.855,117.713 128.299,117.863 127.823,118.08 127.423,118.352 127.108,118.621 126.645,119.143 126.245,119.63 125.723,120.067 125.144,120.241 124.151,120.396 122.87,120.53 121.434,120.64 119.971,120.728 118.612,120.79 117.488,120.826 116.726,120.834 116.237,120.798 115.593,120.496 115.289,120.076 115.168,119.202 115.153,118.684 115.147,118.18 115.144,117.713 115.147,117.309 115.153,116.781 115.155,116.706 115.66,116.093 115.155,116.706 115.277,116.318" />
        </g>
        <polygon  id="simplify_43"  fill="none" stroke="black" stroke-width="0.1" points="18.4165,76.5909 54.267,76.5909 37.9589,87.8553 33.962,92.8837 33.5544,94.4571 33.6752,95.0495 34.4406,95.6072 36.3787,96.5078 39.5528,97.438 44.3659,98.0122 54.267,101.268 45.9138,101.572 41.6167,100.896 38.5443,100.179 34.6114,99.0144 29.7099,97.3025 27.0252,96.0295 24.2186,94.0735 23.1307,92.9544 21.8882,91.3779 20.3436,88.6575 19.2758,86.1777 18.6967,83.8489 18.3853,82.0476 18.2197,80.3195" />
        <polyline id="simplify_29"  fill="none" stroke="black" stroke-width="0.1" points="25.2159,74.8569 23.5568,79.428 23.43,85.01 23.9543,87.7368 24.9293,90.8968 25.7533,92.8042 26.7035,94.0745 28.066,95.457 30.7427,96.7843 35.449,98.3819 39.9429,99.8547 45.8877,100.952" />
        <polygon  id="simplify_45"  fill="none" stroke="black" stroke-width="0.1" points="249.731,96.1689 250.272,96.0879 270.017,93.1336 281.177,91.3116 288.309,89.46 289.311,85.8138 249.2,90.6384 249.2,95.1221 249.2,95.7193 249.345,96.0338" />
        <polygon  id="simplify_46"  fill="none" stroke="black" stroke-width="0.1" points="22.7862,70.9446 175.592,70.9446 292.245,81.236 291.304,85.7985 290.372,86.913 283.068,88.3759 274.366,89.7542 234.239,95.2664 214.187,97.9831 204.354,99.3762 193.907,100.813 187.573,102.024 177.094,103.894 166.838,106.328 159.261,108.545 153.871,110.269 147.085,113.072 141.111,115.757 134.692,119.098 126.907,123.527 118.914,126.703 112.528,128.977 107.78,130.105 104.077,130.729 100.862,131.059 96.8781,131.271 91.2455,130.637 83.8654,128.541 75.9639,124.527 69.5499,120.466 64.73,117.09 59.8743,113.382 55.2015,109.181 50.2208,105.07 39.8267,96.6271 34.4593,92.1706 30.0109,88.6684 22.327,82.0809 19.9212,79.9707 16.6079,76.9455 13.854,74.4557 12.8651,73.2092 12.1602,72.1862 11.6603,71.3437 11.439,70.545 11.3112,69.7782 11.1093,68.1295" />
        <polygon  id="simplify_47"  fill="none" stroke="black" stroke-width="0.1" points="264.882,70.6668 273.9,70.8719 274.124,71.8186 275.598,73.5765 264.255,73.3152" />
        <polygon  id="simplify_48"  fill="none" stroke="black" stroke-width="0.1" points="290.764,82.4423 282.388,83.7811 275.367,85.0659 274.907,85.124 216.066,93.5527 185.69,97.8507 175.114,99.6218 168.66,100.959 158.914,103.536 151.52,106.169 142.08,110.396 130.556,116.41 118.715,122.66 113.593,124.899 108.756,126.111 100.939,127.524 93.3576,127.445 88.9405,126.3 85.3018,125.095 81.3908,123.362 78.1848,122.005 74.1059,119.502 66.4243,114.232 59.8534,108.991 45.7284,97.5215 27.5586,83.9752 20.1416,77.8018 15.2676,74.3805 13.9889,73.2018 13.0679,72.0643 12.1431,70.8318 11.5551,69.9389 11.2752,69.0129 11.1093,68.1295 12.3247,65.6979 14.6115,64.5114 18.286,64.5114 45.697,67.3746 72.5322,69.4521 103.774,69.9513 132.598,70.3891 177.747,70.1827 221.342,70.6998 232.99,70.8282 263.517,71.1646 264.667,71.2009 265.412,71.6796 273.594,71.9586 274.112,71.4986 275.647,71.5469 279.441,72.1414 282.293,73.0762 286.289,74.8269 290.287,78.0945 292.245,81.236 291.807,82.0473" />
        <g id="_tag_57_">
            <polyline id="_203269128_1" fill="none" stroke="black" stroke-width="0.1" points="61.6816,86.5806 61.78434023437501,86.6674173828125 61.88479062500001,86.75520156249999 61.982920703125004,86.84392558593751 62.0787,86.9335625 62.172098046875,87.0240853515625 62.263084375000005,87.1154671875 62.35162851562501,87.2076810546875 62.43770000000001,87.3007 62.43770000000001,87.3007 62.78150800781251,87.71238574218751 63.07607031250001,88.13654843750001 63.319044335937505,88.5710587890625 63.5080875,89.0137875 63.64085722656252,89.4626052734375 63.71501093750001,89.91538281250001 63.72820605468751,90.36999082031251 63.67810000000001,90.82430000000001 63.67810000000001,90.82430000000001 63.325758789062505,91.816484375 62.67566406250001,92.68206875000001 61.764459179687506,93.40662500000002 60.62878750000001,93.97572500000001 59.30529238281251,94.37494062500001 57.83061718750001,94.58984375000001 56.241405273437515,94.60600625000001 54.57430000000001,94.409 54.57430000000001,94.409 52.94471093750001,94.00578203125 51.4631625,93.43053750000001 50.15885781250001,92.70968046875001 49.06100000000001,91.86962500000001 48.19879218750001,90.93678515625001 47.60143750000001,89.93757500000001 47.298139062500006,88.89840859375 47.31810000000001,87.84570000000001 47.31810000000001,87.84570000000001 47.4332572265625,87.39695664062499 47.60935781250001,86.970884375 47.843332617187514,86.56869492187501 48.132112500000005,86.19160000000001 48.47262832031251,85.840811328125 48.86181093750001,85.51754062500001 49.296591210937514,85.222999609375 49.77390000000001,84.95840000000001" />
            <polyline id="_203271640_1" fill="none" stroke="black" stroke-width="0.1" points="61.0733,87.4693 61.252109765625,87.694948828125 61.403546875,87.925109375 61.526573046875,88.158977734375 61.620149999999995,88.39574999999999 61.683239453125,88.634622265625 61.714803125,88.874790625 61.713802734375,89.11545117187501 61.6792,89.3558 61.6792,89.3558 61.416652734375,89.97969843749999 60.932215625000005,90.52399375 60.253195703125,90.9796109375 59.4069,91.337475 58.420635546875,91.58851093749999 57.321709375,91.72364375 56.137428515625,91.73379843749998 54.8951,91.6099 54.8951,91.6099 53.680787890625,91.35632753906249 52.576784375,90.9945828125 51.604851171875,90.54127480468749 50.78675,90.0130125 50.144242578124995,89.4264048828125 49.699090625,88.7980609375 49.473055859374995,88.1445896484375 49.487899999999996,87.48259999999999 49.487899999999996,87.48259999999999 49.5377439453125,87.29961015624998 49.606695312499994,87.12239999999998 49.6941458984375,86.95117109374999 49.7994875,86.78612499999998 49.9221119140625,86.62746328124999 50.0614109375,86.47538749999998 50.2167763671875,86.33009921874998 50.3876,86.19179999999999" />
            <polyline id="_204216880_1" fill="none" stroke="black" stroke-width="0.1" points="47.4306,89.4854 47.64464921875,89.1269822265625 47.867599999999996,88.72955156249999 48.100432031249994,88.30994199218749 48.344125,87.8849875 48.59965859375,87.4715220703125 48.8680125,87.0863796875 49.150166406249994,86.7463943359375 49.4471,86.4684 49.4471,86.4684 50.0938453125,86.019665234375 50.81425,85.63784687500001 51.5999421875,85.327273828125 52.44255,85.092275 53.333701562499996,84.937179296875 54.265025,84.86631562500001 55.228148437499996,84.88401289062502 56.2147,84.9946 56.2147,84.9946 57.05162265625,85.1620890625 57.8523625,85.39 58.612714843750005,85.67408593750001 59.328475000000005,86.0101 59.99543828125,86.3937953125 60.6094,86.820925 61.166155468750006,87.2872421875 61.661500000000004,87.7885 61.661500000000004,87.7885 61.95898378906251,88.187357421875 62.216451562500005,88.656628125 62.4407154296875,89.176809765625 62.6385875,89.7284 62.81687988281251,90.291896484375 62.9824046875,90.847796875 63.141974023437506,91.376598828125 63.302400000000006,91.8588" />
        </g>
        <polygon id="simplify_49"   fill="none" stroke="black" stroke-width="0.1" points="35.385783289,70.6292335822 35.326716762776655,70.8091735123215 35.18992670438189,70.97693809729304 34.97691181432062,71.13068927321474 34.69000592830461,71.26874251002866 34.33235244725995,71.38958526758276 33.90786989756877,71.49189356733734 33.421208998874185,71.57454649815088 32.87770170982262,71.63663849721715 32.28330281000914,71.6774892716008 31.64452465816607,71.6966512516691 30.96836584139792,71.69391449475853 30.262234497196534,71.6693089853505 29.533867148336466,71.6231043065551 28.79124393991249,71.5558066865022 28.0425012072,71.46815345200001 27.295842332263085,71.36110495022835 26.559447865983966,71.23583402697398 25.841385900235647,71.09371317668669 25.14952367217899,70.93629950514296 24.49144136916607,70.7653176694691 23.874349078621265,70.58264098243704 23.30500779281465,70.39027088805744 22.789655334015844,70.19031503334037 22.333938011607884,69.98496417647355 21.942848759940055,69.77646818441724 21.620672434694313,69.56711138289101 21.370938867109782,69.3591875288231 21.196384190413028,69.15497467946955 21.09892086216985,68.95671023354215 21.079616711,68.76656641780001 21.138683237223344,68.58662648767852 21.275473295618117,68.41886190270696 21.48848818567938,68.26511072678527 21.775394071695395,68.12705748997135 22.133047552740052,68.00621473241725 22.55753010243123,67.90390643266267 23.044191001125817,67.82125350184913 23.587698290177382,67.75916150278286 24.182097189990863,67.7183107283992 24.82087534183393,67.69914874833091 25.497034158602077,67.70188550524148 26.20316550280347,67.72649101464951 26.931532851663533,67.7726956934449 27.67415606008751,67.83999331349781 28.4228987928,67.927646548 29.169557667736914,68.03469504977166 29.905952134016033,68.15996597302603 30.624014099764356,68.30208682331332 31.31587632782101,68.45950049485705 31.97395863083393,68.63048233053091 32.59105092137874,68.81315901756297 33.16039220718535,69.00552911194256 33.675744665984155,69.20548496665964 34.13146198839212,69.41083582352645 34.52255124005995,69.61933181558277 34.84472756530569,69.828688617109 35.09446113289022,70.03661247117691 35.269015809586975,70.24082532053046 35.366479137830154,70.43908976645785" />
        <polygon id="simplify_50"   fill="none" stroke="black" stroke-width="0.1" points="34.050439392,70.23742650839999 33.998863624385315,70.36543523019125 33.881846817378865,70.48373526896482 33.700671031605566,70.59103050474 33.4573212668878,70.6861453884607 33.15446371417206,70.76803782155679 32.795416544182885,70.83581057339417 32.38411355285014,70.88872111152136 31.92506106181755,70.9261897370104 31.42328854623978,70.9478059357596 30.88429353080015,70.953332876172 30.313981357679772,70.94271000393185 29.718600486392845,70.91605370545038 29.104674034356652,70.87365603271198 28.478928308252065,70.8159815034914 27.8482191092,70.743662012 27.21945661916966,70.65748990572035 26.59952969157882,70.55840930428155 25.99523037557422,70.4475057554869 25.413179500919767,70.32599434182507 24.859754138800152,70.195206367772 24.341017733294457,70.05657477374059 23.86265366901398,69.91161843648557 23.42990300275109,69.76192552797195 23.047507041364256,69.6091361150307 22.719655395027942,69.4549241904432 22.449940074986774,69.30097933232618 22.241316138728678,69.14898819276019 22.096069313756665,69.0006160184765 22.015790954679986,68.85748840606546 22.001360608,68.7211734916 22.052936375614685,68.59316476980874 22.169953182621132,68.47486473103517 22.351128968394438,68.36756949525999 22.59447873311219,68.27245461153929 22.89733628582794,68.1905621784432 23.256383455817115,68.12278942660582 23.66768644714986,68.06987888847863 24.126738938182445,68.03241026298959 24.628511453760215,68.01079406424039 25.167506469199846,68.00526712382799 25.737818642320224,68.01588999606814 26.333199513607152,68.0425462945496 26.947125965643348,68.08494396728801 27.57287169174793,68.14261849650859 28.203580890799998,68.21493798799999 28.83234338083034,68.30111009427964 29.452270308421177,68.40019069571844 30.05656962442578,68.51109424451309 30.638620499080233,68.63260565817492 31.192045861199844,68.76339363222799 31.71078226670554,68.9020252262594 32.18914633098602,69.04698156351442 32.62189699724891,69.19667447202804 33.004292958635745,69.3494638849693 33.33214460497206,69.5036758095568 33.60185992501322,69.65762066767381 33.81048386127132,69.8096118072398 33.955730686243335,69.95798398152348 34.036009045320014,70.10111159393453" />
        <polygon id="center_00"     fill="none" stroke="black" stroke-width="0.1" cx="140.245" cy="121.0" points="151.9091,70.3679 151.8287685258699,71.9007158382032 151.5886542319206,73.41673782532071 151.19138786060375,74.89935610721368 150.64132194541688,76.33232680772785 149.9444831236354,77.69995 149.10850610721366,78.98724171814206 148.14255003528305,80.18009812470694 147.05719812470693,81.26545003528307 145.86434171814207,82.23140610721367 144.57705,83.0673831236354 143.20942680772785,83.76422194541686 141.77645610721368,84.31428786060377 140.2938378253207,84.7115542319206 138.7778158382032,84.9516685258699 137.245,85.03200000000001 135.7121841617968,84.9516685258699 134.1961621746793,84.7115542319206 132.71354389278633,84.31428786060377 131.28057319227216,83.76422194541686 129.91295,83.0673831236354 128.62565828185797,82.23140610721367 127.43280187529308,81.26545003528307 126.34744996471694,80.18009812470694 125.38149389278634,78.98724171814206 124.54551687636462,77.69995000000002 123.84867805458315,76.33232680772785 123.29861213939624,74.89935610721368 122.90134576807941,73.41673782532072 122.6612314741301,71.90071583820321 122.5809,70.3679 122.6612314741301,68.83508416179681 122.90134576807941,67.3190621746793 123.29861213939624,65.83644389278635 123.84867805458313,64.40347319227217 124.54551687636462,63.03585000000001 125.38149389278634,61.74855828185795 126.34744996471694,60.55570187529308 127.43280187529307,59.47034996471695 128.62565828185794,58.50439389278634 129.91295,57.668416876364624 131.28057319227216,56.97157805458315 132.71354389278633,56.42151213939624 134.1961621746793,56.02424576807941 135.71218416179678,55.784131474130106 137.245,55.70380000000001 138.7778158382032,55.784131474130106 140.2938378253207,56.0242457680794 141.77645610721368,56.42151213939624 143.20942680772785,56.97157805458314 144.57704999999999,57.66841687636462 145.86434171814204,58.50439389278634 147.05719812470693,59.470349964716945 148.14255003528305,60.55570187529307 149.10850610721366,61.748558281857946 149.9444831236354,63.035849999999996 150.64132194541685,64.40347319227216 151.19138786060375,65.83644389278633 151.5886542319206,67.31906217467929 151.8287685258699,68.8350841617968" />
    </g>
</svg>
