<!DOCTYPE svg PUBLIC "-//W3C//DTD SVG 1.1//EN" "http://www.w3.org/Graphics/SVG/1.1/DTD/svg11.dtd">
<svg xmlns="http://www.w3.org/2000/svg" width="420mm" height="297mm" viewBox="-210 -148.5 420 297">
    <defs id="_tag_31_"/>
    <g id="trashNode_001"/>
    <g id="_tag_32_">
        <g id="_tag_33_">
            <polygon fill="none" stroke="black" stroke-width="0.1" id="simplify_256_1" points="280.22979,148.2308515 267.97179,147.5508515 267.724506796875,142.94144915625 267.125461875,138.43463275 266.188612265625,134.04448821875 264.927915,129.7851015 263.357327109375,125.67055853125001 261.490805625,121.71494525000001 259.34230757812503,117.93234759375001 256.92579,114.33685150000001 256.92579,114.33685150000001 256.31276656250003,113.64018548437501 255.6017275,113.055585875 254.8095946875,112.59115032812501 253.95329,112.25497650000001 253.04973531250002,112.05516204687501 252.11585250000002,111.99980462500001 251.1685634375,112.09700189062501 250.22479,112.35485150000001 250.22479,112.35485150000001 249.81281734375003,112.522345640625 249.42032125,112.716992125 249.04793453125,112.937162046875 248.69629,113.18122650000001 248.36602046875,113.447556578125 248.05775875,113.73452337500001 247.77213765625,114.04049798437501 247.50979,114.36385150000001 245.78079000000002,116.69685150000001 245.56779,116.98585150000001 243.6671415625,114.97627923437501 241.6534775,113.07989837500001 239.5320946875,111.30208782812501 237.30829,109.6482265 234.98736031250002,108.123693296875 232.57460250000003,106.733867125 230.0753134375,105.484126890625 227.49479000000002,104.3798515 227.71479000000002,104.04785150000001 229.31579000000002,101.6248515 229.53016695312502,101.26776165625 229.720180625,100.89475775000001 229.884530234375,100.50698821875001 230.021915,100.1056015 230.13103414062502,99.69174603125 230.21058687500002,99.26657025 230.259272421875,98.83122259375001 230.27579,98.3868515 230.27579,98.3868515 230.19521382812502,97.411580015625 229.96211812500002,96.487929625 229.589452109375,95.62889642187501 229.090165,94.84747650000001 228.477206015625,94.156665953125 227.763524375,93.569460875 226.962069296875,93.098857359375 226.08579,92.7578515 226.08579,92.7578515 224.1563759375,92.23877728125001 222.20141500000003,91.78488275000001 220.2220790625,91.39741009375001 218.21954000000002,91.0776015 216.19496968750002,90.82669915625 214.14954,90.64594525000001 212.0844228125,90.53658196875 210.00079000000002,90.4998515 210.00079000000002,90.4998515 207.91711617187502,90.53658196875 205.85189937500002,90.64594525000001 203.806346640625,90.82669915625 201.781665,91.0776015 199.779061484375,91.39741009375001 197.79974312500002,91.78488275000001 195.84491695312502,92.23877728125001 193.91579000000002,92.7578515 193.91579000000002,92.7578515 193.03946773437502,93.098857359375 192.237899375,93.569460875 191.52405757812502,94.156665953125 190.91091500000002,94.84747650000001 190.411444296875,95.62889642187501 190.038618125,96.487929625 189.80540914062502,97.411580015625 189.72479,98.3868515 189.72479,98.3868515 189.741307578125,98.83122259375001 189.78999312500002,99.26657025 189.86954585937502,99.69174603125 189.978665,100.1056015 190.116049765625,100.50698821875001 190.280399375,100.89475775000001 190.47041304687502,101.26776165625 190.68479000000002,101.6248515 192.28579000000002,104.04785150000001 192.31958296875,104.09918157812501 192.35344625000002,104.150429625 192.38735640625,104.201607359375 192.42129,104.25272650000001 192.45522359375002,104.303798765625 192.48913375,104.354835875 192.52299703125001,104.405849546875 192.55679,104.45685150000001 192.55679,104.45685150000001 189.98273921875,105.572056578125 187.49013375,106.83211712500001 185.08429390625002,108.23170110937501 182.77054,109.7654765 180.55419234375,111.428111265625 178.44057125,113.214273375 176.43499703125002,115.11863079687501 174.54279000000002,117.1358515 174.54279000000002,117.1358515 174.502331015625,117.08109954687501 174.461930625,117.026335875 174.42155367187502,116.971548765625 174.381165,116.91672650000001 174.34072945312502,116.86185735937501 174.300211875,116.80692962500001 174.25957710937502,116.75193157812501 174.21879,116.69685150000001 172.48979,114.36385150000001 172.227444296875,114.04049798437501 171.941836875,113.73452337500001 171.633612265625,113.447556578125 171.303415,113.18122650000001 170.951889609375,112.937162046875 170.579680625,112.716992125 170.187432578125,112.522345640625 169.77579,112.35485150000001 169.77579,112.35485150000001 168.83155953125,112.09711712500001 167.88313375,112.00072650000001 166.94666109375,112.05827337500001 166.03829000000002,112.26235150000001 165.17416890625,112.60555462500001 164.37044625000001,113.0804765 163.64327046875002,113.67971087500001 163.00879,114.3958515 163.00879,114.3958515 160.53766890625002,118.085789 158.35063375000001,121.96416400000001 156.46167671875,126.01682025000001 154.88479,130.2296015 153.63396578125,134.5883515 152.72319625,139.078914 152.16647359375,143.68713275 151.97779,148.3988515 151.97779,148.3988515 152.16647359375,153.11024212499998 152.72319625,157.7182265 153.63396578125,162.208648375 154.88479,166.5673515 156.46167671875,170.780179625 158.35063375000001,174.8329765 160.53766890625002,178.711585875 163.00879,182.4018515 163.00879,182.4018515 163.64327046875002,183.11766204687498 164.37044625000001,183.716648375 165.17416890625,184.19139251562498 166.03829000000002,184.53447649999998 166.94666109375,184.73848235937498 167.88313375,184.795992125 168.83155953125,184.699587828125 169.77579,184.44185149999998 169.77579,184.44185149999998 170.187432578125,184.274357359375 170.579680625,184.079710875 170.951889609375,183.859540953125 171.303415,183.6154765 171.633612265625,183.349146421875 171.941836875,183.062179625 172.227444296875,182.756205015625 172.48979,182.4328515 174.21879,180.0998515 174.37879,179.8828515 176.2624540625,181.91174798437498 178.2603525,183.827898375 180.3670946875,185.625994078125 182.57729,187.3007265 184.88554781250002,188.846787046875 187.28647750000002,190.258867125 189.7746884375,191.53165814062498 192.34479000000002,192.6598515 192.28579000000002,192.7488515 190.68479000000002,195.1718515 190.47041304687502,195.52894134375 190.280399375,195.90194524999998 190.116049765625,196.28971478124998 189.978665,196.6911015 189.86954585937502,197.10495696875 189.78999312500002,197.53013275 189.741307578125,197.96548040624998 189.72479,198.4098515 189.72479,198.4098515 189.80540914062502,199.385122984375 190.038618125,200.308773375 190.411444296875,201.16780657812498 190.91091500000002,201.94922649999998 191.52405757812502,202.640037046875 192.237899375,203.227242125 193.03946773437502,203.697845640625 193.91579000000002,204.0388515 193.91579000000002,204.0388515 195.84491695312502,204.55792571875 197.79974312500002,205.01182025 199.779061484375,205.39929290625 201.781665,205.7191015 203.806346640625,205.97000384375 205.85189937500002,206.15075775 207.91711617187502,206.26012103124998 210.00079000000002,206.2968515 210.00079000000002,206.2968515 212.0844228125,206.26012103124998 214.14954,206.15075775 216.19496968750002,205.97000384375 218.21954000000002,205.7191015 220.2220790625,205.39929290625 222.20141500000003,205.01182025 224.1563759375,204.55792571875 226.08579,204.0388515 226.08579,204.0388515 226.962069296875,203.697845640625 227.763524375,203.227242125 228.477206015625,202.640037046875 229.090165,201.94922649999998 229.589452109375,201.16780657812498 229.96211812500002,200.308773375 230.19521382812502,199.385122984375 230.27579,198.4098515 230.27579,198.4098515 230.259272421875,197.96548040624998 230.21058687500002,197.53013275 230.13103414062502,197.10495696875 230.021915,196.6911015 229.884530234375,196.28971478124998 229.720180625,195.90194524999998 229.53016695312502,195.52894134375 229.31579000000002,195.1718515 227.71479000000002,192.7488515 227.70779000000002,192.7378515 230.28399312500002,191.62025775 232.77854000000002,190.357539 235.186086875,188.955039 237.50129,187.4181015 239.71880562500002,185.75207025 241.83329,183.962289 243.839399375,182.0541015 245.73179000000002,180.0328515 245.78079000000002,180.0998515 247.50979,182.4328515 247.77213765625,182.756205015625 248.05775875,183.062179625 248.36602046875,183.349146421875 248.69629,183.6154765 249.04793453125,183.859540953125 249.42032125,184.079710875 249.81281734375003,184.274357359375 250.22479,184.44185149999998 250.22479,184.44185149999998 251.1685634375,184.69970110937498 252.11585250000002,184.79689837499998 253.04973531250002,184.741540953125 253.95329,184.54172649999998 254.8095946875,184.20555267187498 255.6017275,183.741117125 256.31276656250003,183.15651751562498 256.92579,182.45985149999998 256.92579,182.45985149999998 259.354780234375,178.844146421875 261.512774375,175.039335875 263.385557578125,171.059751890625 264.958915,166.9197265 266.218631796875,162.633591734375 267.15049312499997,158.215679625 267.74028414062496,153.680322203125 267.97379,149.0418515 280.22979,148.7578515 280.22979,149.49485149999998 277.46079,150.79785149999998 276.77179,151.0438515 276.13579,151.4068515 275.57178999999996,151.8748515 275.09879,152.4328515 274.72879,153.0648515 274.47479,153.7518515 274.34479,154.47185149999999 274.34078999999997,155.20385149999998 274.46378999999996,155.9258515 274.71079,156.6148515 275.07279,157.25085149999998 275.54078999999996,157.8138515 276.09879,158.2878515 276.73079,158.6568515 279.21279,160.44785149999998 278.85078999999996,162.38185149999998 275.88979,163.1538515 275.16679,163.2698515 274.47479,163.5098515 273.83579,163.8658515 273.26779,164.32785149999998 272.78779,164.8808515 272.41279,165.5098515 272.15179,166.1938515 272.01279,166.9128515 272.00178999999997,167.64385149999998 272.11778999999996,168.3668515 272.35679,169.0588515 272.71378999999996,169.6988515 273.17479,170.2668515 273.72879,170.7458515 275.83878999999996,172.9618515 275.12779,174.7968515 272.07479,175.0118515 271.34379,174.9928515 270.61978999999997,175.10185149999998 269.92479,175.33385149999998 269.28179,175.6838515 268.70878999999996,176.1398515 268.22379,176.6878515 267.84179,177.3128515 267.57379,177.9938515 267.42778999999996,178.7108515 267.40979,179.4428515 267.51779,180.1668515 267.75079,180.8608515 268.09979,181.5048515 268.55579,182.07785149999998 270.22279,184.6428515 269.18679,186.31685149999998 266.14679,185.9668515 265.43079,185.8138515 264.69879,185.7878515 263.97379,185.8888515 263.27779,186.11385149999998 262.63079,186.4568515 262.05379,186.9068515 261.56279,187.4508515 261.17379,188.0708515 260.89879,188.7488515 260.74579,189.46485149999998 260.71979,190.19685149999998 260.82079,190.9218515 261.04579,191.6188515 261.38879000000003,192.2648515 262.55679,195.0938515 261.22979000000004,196.5478515 258.30579,195.6458515 257.63079,195.36385149999998 256.91679,195.20385149999998 256.18479,195.1698515 255.45879000000002,195.26285149999998 254.75979,195.4818515 254.10979,195.8178515 253.52779,196.2618515 253.03179,196.7998515 252.63679000000002,197.4168515 252.35479,198.0918515 252.19379,198.8068515 252.15979000000002,199.5378515 252.25379,200.2638515 252.47179000000003,200.9628515 253.09979,203.9578515 251.52879000000001,205.14385149999998 248.82079000000002,203.7198515 248.20879000000002,203.3178515 247.53579000000002,203.0288515 246.82279000000003,202.8618515 246.09179,202.8198515 245.36479,202.90585149999998 244.66379,203.1168515 244.00979,203.4468515 243.42379000000003,203.8848515 242.92179000000002,204.41785149999998 242.52079,205.03085149999998 242.23179000000002,205.70285149999998 242.06379,206.4158515 242.02279000000001,207.1468515 242.10879,207.8738515 242.17579,210.9328515 240.41379,211.8098515 238.01279000000002,209.9128515 237.48479,209.40585149999998 236.87679,208.9978515 236.20679,208.7018515 235.49579,208.5268515 234.76579,208.47785149999999 234.03779,208.5568515 233.33479000000003,208.7608515 232.67779000000002,209.08385149999998 232.08679,209.5158515 231.57979,210.0438515 231.17179000000002,210.6518515 230.87579000000002,211.3218515 230.70079,212.0328515 230.65179,212.76285149999998 230.15579000000002,215.7818515 228.26279000000002,216.3208515 226.25179,214.0138515 225.82579,213.4188515 225.30279000000002,212.9068515 224.69879,212.4928515 224.03179,212.1898515 223.32279000000003,212.0078515 222.59279,211.9508515 221.86479,212.0218515 221.15979000000002,212.2188515 220.49879,212.5348515 219.90379000000001,212.9608515 219.39079,213.4838515 218.97779,214.0878515 218.67479,214.7548515 218.49279,215.4638515 217.44979,218.33985149999998 215.48979,218.5218515 213.93679,215.8848515 213.62679,215.22185149999999 213.20779000000002,214.6218515 212.68979000000002,214.1038515 212.08979000000002,213.6838515 211.42679,213.3748515 210.71979000000002,213.1848515 209.99079,213.1208515 209.26079000000001,213.1848515 208.55379000000002,213.3738515 207.88979,213.6828515 207.29079000000002,214.10285149999999 206.77279000000001,214.6208515 206.35279,215.22085149999998 206.04279000000002,215.8838515 204.48979,218.5198515 202.52979000000002,218.3378515 201.48779000000002,215.4608515 201.30579,214.7518515 201.00279,214.08485149999998 200.58979000000002,213.4808515 200.07679000000002,212.9578515 199.48179000000002,212.5318515 198.82179000000002,212.21585149999999 198.11679,212.01885149999998 197.38779000000002,211.94785149999998 196.65779,212.0038515 195.94879,212.18585149999998 195.28179,212.4878515 194.67779000000002,212.9018515 194.15479000000002,213.4138515 193.72879,214.0098515 191.71679,216.3148515 189.82379,215.7768515 189.32879,212.75685149999998 189.27979000000002,212.0258515 189.10479,211.3148515 188.80979000000002,210.6458515 188.40179,210.03685149999998 187.89479,209.5088515 187.30379000000002,209.0768515 186.64679,208.7538515 185.94379,208.5498515 185.21579,208.47085149999998 184.48579,208.5198515 183.77479000000002,208.6938515 183.10479,208.9898515 182.49679,209.3978515 181.96879,209.9038515 179.56779,211.8008515 177.80579,210.92385149999998 177.87279,207.86385149999998 177.95979,207.1368515 177.91879,206.4068515 177.75079000000002,205.6938515 177.46179,205.0208515 177.06079000000003,204.4088515 176.55979000000002,203.8748515 175.97279,203.4368515 175.31979,203.1068515 174.61879000000002,202.8958515 173.89179000000001,202.8098515 173.16079000000002,202.8508515 172.44779,203.0178515 171.77479000000002,203.3068515 171.16279,203.7078515 168.45379,205.13185149999998 166.88379,203.9448515 167.51179000000002,200.9498515 167.73079,200.2518515 167.82479,199.5258515 167.79079000000002,198.7938515 167.63079000000002,198.0798515 167.34879,197.4038515 166.95379,196.7878515 166.45779000000002,196.2488515 165.87579000000002,195.80485149999998 165.22579000000002,195.4678515 164.52679,195.2498515 163.80079,195.15585149999998 163.06979,195.1898515 162.35579,195.3498515 161.67979000000003,195.63185149999998 158.75579000000002,196.5328515 157.42979000000003,195.07785149999998 158.59779,192.2498515 158.94079000000002,191.60285149999999 159.16679000000002,190.9068515 159.26779000000002,190.1818515 159.24179,189.4498515 159.08879000000002,188.7338515 158.81379,188.0558515 158.42579,187.4348515 157.93479000000002,186.8918515 157.35779000000002,186.44085149999998 156.71079,186.0978515 156.01479,185.8728515 155.28979,185.7708515 154.55779,185.7978515 153.84179,185.9498515 150.80179,186.29885149999998 149.76579,184.62585149999998 151.43379000000002,182.0598515 151.88979,181.4878515 152.23979,180.8438515 152.47279,180.14985149999998 152.58079,179.4258515 152.56279,178.6938515 152.41679000000002,177.97685149999998 152.14879000000002,177.2958515 151.76679000000001,176.6708515 151.28279,176.1218515 150.70979,175.6658515 150.06679,175.31685149999998 149.37279,175.08385149999998 148.64879000000002,174.9748515 147.91679000000002,174.9938515 144.86379000000002,174.7778515 144.15379000000001,172.9428515 146.26479,170.72685149999998 146.81779,170.2478515 147.27979000000002,169.67985149999998 147.63679000000002,169.0408515 147.87579000000002,168.3488515 147.99279,167.62585149999998 147.98079,166.89385149999998 147.84279,166.1748515 147.58179,165.4908515 147.20679,164.8628515 146.72779,164.3088515 146.15979000000002,163.84685149999999 145.51979,163.4908515 144.82879,163.25085149999998 144.10579,163.1348515 141.14479,162.3618515 140.78279,160.4268515 143.26579,158.63785149999998 143.89779000000001,158.2678515 144.45579,157.7948515 144.92379000000003,157.2318515 145.28679000000002,156.59585149999998 145.53379,155.9068515 145.65679,155.18485149999998 145.65379000000001,154.45285149999998 145.52279000000001,153.73285149999998 145.26879000000002,153.0458515 144.89979000000002,152.4138515 144.42679,151.8548515 143.86379000000002,151.3868515 143.22779,151.02485149999998 142.53779,150.7778515 139.76979,149.4738515 139.76979,147.5058515 142.53879,146.20285149999998 143.22779,145.9558515 143.86379000000002,145.5928515 144.42779000000002,145.1248515 144.90079,144.56685149999998 145.27079,143.93485149999998 145.52479000000002,143.2478515 145.65579000000002,142.5278515 145.65879,141.7958515 145.53579000000002,141.0738515 145.28879,140.3848515 144.92679,139.7488515 144.45879000000002,139.18585149999998 143.90079,138.7118515 143.26879000000002,138.3428515 140.78679000000002,136.5528515 141.14879000000002,134.6178515 144.10979,133.84585149999998 144.83279000000002,133.7298515 145.52479000000002,133.4898515 146.16379,133.1338515 146.73179000000002,132.6718515 147.21179,132.1188515 147.58779,131.4898515 147.84879,130.80585150000002 147.98679,130.0878515 147.99779,129.3558515 147.88179000000002,128.63285150000002 147.64279000000002,127.94085150000001 147.28679000000002,127.30085150000001 146.82479,126.73285150000001 146.27079,126.25385150000001 144.16079000000002,124.0378515 144.87179,122.20285150000001 147.92479,121.9878515 148.65679,122.00685150000001 149.38079000000002,121.8978515 150.07479,121.6658515 150.71779,121.31585150000001 151.29079000000002,120.8598515 151.77579,120.3118515 152.15779,119.6868515 152.42579,119.0058515 152.57179000000002,118.2888515 152.59079,117.55685150000001 152.48179000000002,116.8328515 152.24979000000002,116.1388515 151.89979000000002,115.49485150000001 151.44379,114.92285150000001 149.77679,112.3568515 150.81279,110.68285150000001 153.85279,111.0328515 154.56879,111.18585150000001 155.30079,111.21285150000001 156.02579,111.1118515 156.72179,110.8858515 157.36879000000002,110.54285150000001 157.94679000000002,110.09285150000001 158.43679,109.5498515 158.82579,108.92885150000001 159.10079000000002,108.25085150000001 159.25379,107.5348515 159.27979000000002,106.8028515 159.17879000000002,106.07785150000001 158.95379,105.3808515 158.61079,104.7348515 157.44279,101.90585150000001 158.76979,100.4518515 161.69379,101.3538515 162.36879000000002,101.6358515 163.08379000000002,101.79585150000001 163.81479000000002,101.8298515 164.54079000000002,101.7368515 165.23979,101.51885150000001 165.88979,101.18185150000001 166.47179,100.7378515 166.96779,100.19985150000001 167.36279000000002,99.5828515 167.64479,98.9078515 167.80579,98.1928515 167.83979000000002,97.46185150000001 167.74579,96.73585150000001 167.52779,96.03685150000001 166.89979000000002,93.0418515 168.47079000000002,91.8558515 171.17879000000002,93.28085150000001 171.79179000000002,93.68185150000001 172.46379000000002,93.97085150000001 173.17679,94.13785150000001 173.90779,94.17985150000001 174.63479,94.0938515 175.33579,93.8828515 175.98979,93.5528515 176.57579,93.1148515 177.07779000000002,92.58185150000001 177.47879,91.9688515 177.76779000000002,91.2968515 177.93579000000003,90.58385150000001 177.97679000000002,89.8528515 177.89079,89.12585150000001 177.82379,86.06685150000001 179.58579,85.1898515 181.98679,87.08685150000001 182.51479,87.5938515 183.12279,88.0018515 183.79279000000002,88.29785150000001 184.50379,88.4728515 185.23379,88.52185150000001 185.96179,88.4428515 186.66479,88.23885150000001 187.32179000000002,87.9168515 187.91279,87.4838515 188.41979,86.95585150000001 188.82779000000002,86.3478515 189.12379,85.6778515 189.29879000000003,84.96785150000001 189.34779,84.2368515 189.84379,81.21785150000001 191.73679,80.67885150000001 193.74779,82.98585150000001 194.17379000000003,83.58085150000001 194.69679000000002,84.0938515 195.30079,84.50685150000001 195.96779,84.80985150000001 196.67679,84.99185150000001 197.40679,85.04885150000001 198.13479,84.9778515 198.84079,84.78085150000001 199.50079000000002,84.46485150000001 200.09579000000002,84.0388515 200.60879,83.51585150000001 201.02279000000001,82.91185150000001 201.32479,82.24485150000001 201.50779,81.5358515 202.54979,78.6598515 204.50979,78.4778515 206.06279,81.1148515 206.37279,81.77785150000001 206.79179000000002,82.3778515 207.30979000000002,82.8958515 207.90979000000002,83.31585150000001 208.57279000000003,83.62585150000001 209.27979000000002,83.8148515 210.00979,83.87885150000001 210.73879000000002,83.8148515 211.44579000000002,83.62585150000001 212.10979,83.31685150000001 212.70879000000002,82.89685150000001 213.22679000000002,82.37885150000001 213.64679,81.7798515 213.95679,81.1158515 215.50979,78.47985150000001 217.46979000000002,78.66185150000001 218.51179000000002,81.5388515 218.69379,82.24785150000001 218.99679,82.91485150000001 219.40979000000002,83.51885150000001 219.92279000000002,84.0418515 220.51779000000002,84.46785150000001 221.17779000000002,84.78385150000001 221.88379,84.9808515 222.61179,85.05185150000001 223.34179,84.9958515 224.05079,84.81385150000001 224.71779,84.5118515 225.32179000000002,84.0978515 225.84479000000002,83.5858515 226.27079,82.9898515 228.28279,80.68485150000001 230.17579,81.22385150000001 230.67079,84.2428515 230.71979000000002,84.97385150000001 230.89479,85.68485150000001 231.19079000000002,86.3538515 231.59779,86.9628515 232.10479,87.4908515 232.69579000000002,87.92285150000001 233.35279,88.2458515 234.05579,88.44985150000001 234.78379,88.5288515 235.51379,88.47985150000001 236.22479,88.3058515 236.89479,88.00985150000001 237.50279,87.6028515 238.03079000000002,87.09585150000001 240.43179,85.1988515 242.19379,86.07585150000001 242.12679,89.1358515 242.03979,89.8628515 242.08079,90.5938515 242.24879,91.3058515 242.53779,91.9788515 242.93879,92.5908515 243.43979000000002,93.1248515 244.02679,93.56285150000001 244.67979000000003,93.8928515 245.38079000000002,94.1038515 246.10779000000002,94.19085150000001 246.83879000000002,94.1488515 247.55179,93.9818515 248.22479,93.6928515 248.83679,93.2918515 251.54579,91.8678515 253.11679,93.05485150000001 252.48779000000002,96.0498515 252.26879000000002,96.74785150000001 252.17479,97.4748515 252.20879000000002,98.20585150000001 252.36879000000002,98.91985150000001 252.65079,99.59585150000001 253.04579,100.21185150000001 253.54179000000002,100.75085150000001 254.12379,101.19485150000001 254.77379000000002,101.5318515 255.47279,101.7498515 256.19879000000003,101.8438515 256.92979,101.80985150000001 257.64479,101.64985150000001 258.31979,101.3678515 261.24479,100.4668515 262.56979,101.9218515 261.40179,104.7498515 261.05879,105.39685150000001 260.83279,106.09285150000001 260.73179,106.8178515 260.75779,107.5498515 260.91079,108.26585150000001 261.18579,108.94385150000001 261.57379000000003,109.5648515 262.06479,110.10785150000001 262.64178999999996,110.5588515 263.28879,110.9018515 263.98479,111.1268515 264.70979,111.2288515 265.44178999999997,111.20285150000001 266.15779,111.0498515 269.19779,110.70085150000001 270.23379,112.3738515 268.56579,114.9398515 268.10979,115.51285150000001 267.75979,116.15585150000001 267.52679,116.8498515 267.41879,117.5738515 267.43679,118.3058515 267.58279,119.0228515 267.85078999999996,119.70385150000001 268.23278999999997,120.32885150000001 268.71679,120.8778515 269.28979,121.33385150000001 269.93279,121.6838515 270.62678999999997,121.9158515 271.35078999999996,122.02485150000001 272.08279,122.0058515 275.13579,122.22185150000001 275.84578999999997,124.05785150000001 273.73479,126.2728515 273.18179,126.7518515 272.71979,127.31985150000001 272.36379,127.95885150000001 272.12379,128.65085150000002 272.00678999999997,129.3738515 272.01878999999997,130.1058515 272.15679,130.8248515 272.41778999999997,131.5088515 272.79278999999997,132.1368515 273.27179,132.69085149999998 273.83979,133.1528515 274.47979,133.5088515 275.17179,133.7488515 275.89378999999997,133.8648515 278.85479,134.63785149999998 279.21679,136.57285149999998 276.73379,138.3628515 276.10179,138.7318515 275.54379,139.2048515 275.07579,139.7678515 274.71279,140.4038515 274.46578999999997,141.0928515 274.34279,141.8148515 274.34578999999997,142.5468515 274.47679,143.2668515 274.73079,143.95385149999998 275.09979,144.5858515 275.57279,145.1448515 276.13678999999996,145.6128515 276.77179,145.9748515 277.46179,146.22185149999999 280.22979,147.5258515 280.22979,148.2308515"/>
            <polyline fill="none" stroke="black" stroke-width="0.1" id="simplify_257_1" points="273.05379,151.5678515 271.291276328125,163.7414843125 267.320305625,175.045539 261.373108359375,185.2477499375 253.681915,194.1158515 244.47895601562502,201.41757806249998 233.99646187500002,206.920664 222.466663046875,210.3928436875 210.12179,211.60185149999998 210.12179,211.60185149999998 197.42507515625002,210.321876890625 185.59932125,206.650867125 174.89786421875002,200.842193296875 165.57404000000002,193.1492265 157.88118453125,183.825337828125 152.07263375000002,173.12389837499998 148.40172359375,161.298279234375 147.12179,148.60185149999998 147.12179,148.60185149999998 148.40172359375,135.90513665625 152.07263375000002,124.07938275000001 157.88118453125,113.37792571875 165.57404000000002,104.0541015 174.89786421875002,96.36124603125 185.59932125,90.55269525 197.42507515625002,86.88178509375001 210.12179,85.60185150000001 210.12179,85.60185150000001 222.25185640625,86.768564390625 233.59988375,90.122054625 243.94586421875002,95.44234954687501 253.06979,102.5094765 260.75165328125,111.103462828125 266.77144625,121.00433587500001 270.90916109374996,131.992122984375 272.94479,143.84685149999999"/>
            <polygon fill="none" stroke="black" stroke-width="0.1" id="simplify_258_1" points="289.11978999999997,148.05985149999998 288.84692671875,141.96584368749998 288.12207125,136.0006015 286.96207515624997,130.18142181250002 285.38379,124.52560150000001 283.40406734375,119.05043743750001 281.03975875,113.7732265 278.30771578125,108.7112655625 275.22479,103.88185150000001 275.22479,103.88185150000001 273.94219429687496,102.3987030625 272.44564937499996,101.15766400000001 270.773393515625,100.17434368750001 268.963665,99.4643515 267.054702109375,99.0432968125 265.084743125,98.926789 263.092026328125,99.1304374375 261.11479,99.66985150000001 261.11479,99.66985150000001 260.239760703125,100.026747984375 259.40749312500003,100.443398375 258.61959273437503,100.916369078125 257.87766500000004,101.4422265 257.183315390625,102.017537046875 256.538149375,102.638867125 255.94377242187502,103.30278314062501 255.40179,104.0058515 245.56779,116.98585150000001 243.662709921875,114.95310345312501 241.652899375,113.048242125 239.540127890625,111.27259173437501 237.326165,109.6274765 235.01278023437501,108.114220640625 232.601743125,106.734148375 230.094823203125,105.488583921875 227.49379000000002,104.37885150000001 236.54179000000002,90.7998515 237.01707906250002,90.05015618750001 237.437665,89.26460150000001 237.80087593750002,88.4458593125 238.10404000000003,87.5966015 238.3444853125,86.7194999375 238.51954,85.8172265 238.6265321875,84.89245306250001 238.66279,83.94785150000001 238.66279,83.94785150000001 238.493127890625,81.90548431250001 238.00243062500002,79.96366400000001 237.218131796875,78.15318743750001 236.167665,76.5048515 234.878463828125,75.0494530625 233.377961875,73.817789 231.69359273437502,72.8406561875 229.85279,72.1488515 229.85279,72.1488515 227.451120078125,71.56223431250001 225.030430625,71.0497265 222.58970210937503,70.61259368750001 220.127915,70.25210150000001 217.644049765625,69.9695155625 215.13708687500002,69.7661015 212.60600679687502,69.6431249375 210.04979,69.60185150000001 210.04979,69.60185150000001 207.493573203125,69.6431249375 204.962493125,69.7661015 202.455530234375,69.9695155625 199.971665,70.25210150000001 197.509877890625,70.61259368750001 195.06914937500002,71.0497265 192.648459921875,71.56223431250001 190.24679,72.1488515 190.24679,72.1488515 188.40598726562501,72.8406561875 186.72161812500002,73.817789 185.22111617187502,75.0494530625 183.931915,76.5048515 182.88144820312502,78.15318743750001 182.09714937500001,79.96366400000001 181.606452109375,81.90548431250001 181.43679,83.94785150000001 181.43679,83.94785150000001 181.4730478125,84.89245306250001 181.58004000000003,85.8172265 181.75509468750002,86.7194999375 181.99554,87.5966015 182.2987040625,88.4458593125 182.66191500000002,89.26460150000001 183.08250093750001,90.05015618750001 183.55779,90.7998515 192.63679000000002,104.42385150000001 190.03879390625002,105.54203314062501 187.53007125000002,106.801179625 185.11402046875,108.19806829687501 182.79404000000002,109.7294765 180.57352828125002,111.392181578125 178.45588375,113.182960875 176.44450484375002,115.098591734375 174.54279000000002,117.1358515 164.69779,104.0058515 164.155807578125,103.30278314062501 163.561430625,102.638867125 162.91626460937502,102.017537046875 162.22191500000002,101.4422265 161.479987265625,100.916369078125 160.692086875,100.443398375 159.859819296875,100.026747984375 158.98479,99.66985150000001 158.98479,99.66985150000001 157.00757125,99.13049603125 155.01497750000001,98.92725775000001 153.0453525,99.04487884375001 151.13704,99.4681015 149.32838375,100.18166790625001 147.65772750000002,101.17032025 146.16341500000001,102.41880071875 144.88379,103.91185150000001 144.88379,103.91185150000001 141.787998984375,108.799974546875 139.053461875,113.923585875 136.69605757812502,119.264673765625 134.73166500000002,124.8052265 133.17616304687502,130.527232359375 132.04543062500002,136.41267962499998 131.35534664062502,142.443556578125 131.12179,148.60185149999998 131.12179,148.60185149999998 131.35534664062502,154.75981634375 132.04543062500002,160.79044525 133.17616304687502,166.67571478124998 134.73166500000002,172.3976015 136.69605757812502,177.93808196875 139.053461875,183.27913275 141.787998984375,188.40273040625 144.88379,193.2908515 144.88379,193.2908515 146.16341500000001,194.783904234375 147.65772750000002,196.03239837499999 149.32838375,197.021087828125 151.13704,197.7347265 153.0453525,198.158068296875 155.01497750000001,198.275867125 157.00757125,198.072876890625 158.98479,197.5338515 158.98479,197.5338515 159.859819296875,197.176626890625 160.692086875,196.759742125 161.479987265625,196.286630796875 162.22191500000002,195.7607265 162.91626460937502,195.185462828125 163.561430625,194.564273375 164.155807578125,193.90059173437498 164.69779,193.19785149999998 174.41779000000002,179.97685149999998 174.45479,179.9688515 176.36061421875002,182.01060931249998 178.38219625000002,183.9374765 180.51407515625002,185.7439686875 182.75079000000002,187.4246015 185.08687984375,188.9738905625 187.51688375,190.3863515 190.03534078125,191.6564999375 192.63679000000002,192.7788515 183.55779,206.4028515 183.08250093750001,207.1528749375 182.66191500000002,207.938664 182.2987040625,208.75754681249998 181.99554,209.6068515 181.75509468750002,210.4839061875 181.58004000000003,211.38603899999998 181.4730478125,212.31057806249999 181.43679,213.2548515 181.43679,213.2548515 181.606452109375,215.29726165625 182.09714937500001,217.23919525 182.88144820312502,219.04983196875 183.931915,220.6983515 185.22111617187502,222.15393353125 186.72161812500002,223.38575774999998 188.40598726562501,224.36300384375 190.24679,225.05485149999998 190.24679,225.05485149999998 192.648459921875,225.6414686875 195.06914937500002,226.1539765 197.509877890625,226.59110931249998 199.971665,226.95160149999998 202.455530234375,227.2341874375 204.962493125,227.4376015 207.493573203125,227.56057806249999 210.04979,227.60185149999998 210.04979,227.60185149999998 212.60600679687502,227.56057806249999 215.13708687500002,227.4376015 217.644049765625,227.2341874375 220.127915,226.95160149999998 222.58970210937503,226.59110931249998 225.030430625,226.1539765 227.451120078125,225.6414686875 229.85279,225.05485149999998 229.85279,225.05485149999998 231.69359273437502,224.36300384375 233.377961875,223.38575774999998 234.878463828125,222.15393353125 236.167665,220.6983515 237.218131796875,219.04983196875 238.00243062500002,217.23919525 238.493127890625,215.29726165625 238.66279,213.2548515 238.66279,213.2548515 238.6265321875,212.31057806249999 238.51954,211.38603899999998 238.3444853125,210.4839061875 238.10404000000003,209.6068515 237.80087593750002,208.75754681249998 237.437665,207.938664 237.01707906250002,207.1528749375 236.54179000000002,206.4028515 227.49379000000002,192.8238515 230.10194234375,191.70671478124999 232.62700875000002,190.44100774999998 235.06352828125,189.03228509375 237.40604000000002,187.4861015 239.64908296875,185.80801165625 241.78719625000002,184.00357025 243.81491890625,182.07833196875 245.72679000000002,180.0378515 255.40179,193.19785149999998 255.94377242187502,193.90059173437498 256.538149375,194.564273375 257.183315390625,195.185462828125 257.87766500000004,195.7607265 258.61959273437503,196.286630796875 259.40749312500003,196.759742125 260.239760703125,197.176626890625 261.11479,197.5338515 261.11479,197.5338515 263.092026328125,198.072935484375 265.084743125,198.276335875 267.054702109375,198.159650328125 268.963665,197.7384765 270.773393515625,197.028412046875 272.44564937499996,196.045054625 273.94219429687496,194.804001890625 275.22479,193.3208515 275.22479,193.3208515 278.31286421875,188.506273375 281.06875875,183.459664 283.46573140625,178.198460875 285.47704,172.74010149999998 287.07594234375,167.102023375 288.23569625,161.301664 288.92955953125,155.35646087499998 289.13079,149.2838515 306.99379,149.2288515 307.18279,149.9368515 307.49279,150.5998515 307.91279,151.1998515 308.42978999999997,151.7168515 309.02979,152.1368515 309.69279,152.44685149999998 312.32979,153.9998515 312.21179,155.8688515 309.40179,157.07885149999998 308.70479,157.3028515 308.05679,157.6448515 307.47879,158.0928515 306.98679,158.6358515 306.59679,159.2548515 306.31979,159.9328515 306.16578999999996,160.6488515 306.13779,161.3798515 306.23679,162.1048515 306.46079,162.8028515 306.80179,163.4498515 307.25079,164.0288515 307.79278999999997,164.5198515 308.41279,164.9108515 310.83378999999996,166.7818515 310.48278999999997,168.6208515 307.54278999999997,169.4698515 306.82279,169.6048515 306.13779,169.8618515 305.50779,170.2348515 304.95178999999996,170.7108515 304.48679,171.2768515 304.12779,171.9148515 303.88479,172.6058515 303.76479,173.32785149999998 303.77279,174.05985149999998 303.90779,174.7798515 304.16479,175.46485149999998 304.53779,176.0948515 305.01379,176.6508515 305.57979,177.1158515 307.74679,179.2758515 307.16879,181.0558515 304.14579,181.5298515 303.41479,181.5738515 302.70279,181.7428515 302.03078999999997,182.0338515 301.41879,182.4368515 300.88779,182.9398515 300.45079,183.5278515 300.12279,184.1818515 299.91379,184.8838515 299.82979,185.6108515 299.87279,186.3418515 300.04278999999997,187.0538515 300.33378999999996,187.7258515 300.73679,188.3368515 301.23978999999997,188.8688515 303.11879,191.2838515 302.32178999999996,192.97785149999999 299.26279,193.0688515 298.53279,193.0208515 297.80478999999997,193.0998515 297.10179,193.3038515 296.44479,193.6268515 295.85379,194.0598515 295.34779,194.5878515 294.93978999999996,195.1958515 294.64479,195.8658515 294.46979,196.5768515 294.42179,197.3078515 294.50079,198.0358515 294.70479,198.73885149999998 295.02779,199.3948515 295.46079,199.9858515 297.02279,202.6178515 296.01979,204.19785149999998 292.97379,203.9048515 292.25478999999996,203.7658515 291.52279,203.7528515 290.79979,203.8668515 290.10778999999997,204.1058515 289.46679,204.4608515 288.89779,204.9208515 288.41778999999997,205.4738515 288.04078999999996,206.10185149999998 287.77878999999996,206.7848515 287.63879,207.5038515 287.62579,208.2358515 287.74079,208.95885149999998 287.97879,209.6508515 288.33378999999996,210.2908515 289.55379,213.0978515 288.35979,214.5398515 285.37478999999996,213.8678515 284.67978999999997,213.6388515 283.95479,213.5348515 283.22279,213.5578515 282.50678999999997,213.7068515 281.82678999999996,213.9788515 281.20479,214.3648515 280.65879,214.85285149999999 280.20579,215.4278515 279.85979,216.0738515 279.63178999999997,216.76885149999998 279.52679,217.4938515 279.54979,218.2258515 279.69979,218.94185149999998 279.97179,219.6218515 280.82979,222.5588515 279.46479,223.84085149999999 276.58779,222.79885149999998 275.92679,222.4848515 275.22078999999997,222.2908515 274.49179,222.22185149999999 273.76178999999996,222.28085149999998 273.05379,222.46485149999998 272.38779,222.7698515 271.78578999999996,223.18585149999998 271.26379,223.6998515 270.83979,224.2968515 270.52579,224.9578515 270.33179,225.6638515 270.26279,226.3928515 270.32178999999996,227.1218515 270.50579,227.8308515 270.98978999999997,230.85185149999998 269.47479,231.9528515 266.75079,230.5588515 266.13379,230.1648515 265.45779,229.8828515 264.74379,229.7238515 264.01178999999996,229.6908515 263.28578999999996,229.7848515 262.58779,230.0038515 261.93779,230.34085149999999 261.35579,230.7848515 260.86079,231.3238515 260.46579,231.9408515 260.18479,232.6168515 260.02479,233.3308515 259.99179000000004,234.0628515 260.08579000000003,234.7888515 260.18679000000003,237.84685149999999 258.54679,238.7488515 256.01879,237.02485149999998 255.45579,236.5558515 254.82079000000002,236.19185149999998 254.13179000000002,235.9438515 253.41079000000002,235.8198515 252.67779000000002,235.8218515 251.95779000000002,235.9518515 251.27079,236.2048515 250.63779000000002,236.57285149999998 250.07879000000003,237.0458515 249.60979,237.60785149999998 249.24579,238.2428515 248.99779,238.9318515 248.87379,239.6538515 248.87579000000002,240.3858515 248.59279,243.4328515 246.85279000000003,244.1218515 244.56079000000003,242.0948515 244.06079000000003,241.5588515 243.47679000000002,241.1188515 242.82379,240.7858515 242.12379,240.5718515 241.39679,240.48285149999998 240.66579000000002,240.5208515 239.95279000000002,240.68585149999998 239.27879000000001,240.97185149999999 238.66479,241.3708515 238.12979,241.86985149999998 237.68879,242.4548515 237.35679000000002,243.1068515 237.14279000000002,243.8068515 237.05279000000002,244.5338515 236.39079,247.5208515 234.57679000000002,247.9868515 232.55779,245.6878515 232.12879,245.0938515 231.60379,244.5838515 230.99879,244.1718515 230.33079,243.8718515 229.62079,243.6928515 228.89079,243.6388515 228.16279,243.7128515 227.45779000000002,243.91185149999998 226.79879000000003,244.2308515 226.20579,244.6588515 225.69479,245.1838515 225.28379,245.7898515 224.98379,246.4568515 224.80379000000002,247.1668515 223.77179,250.0478515 221.91479,250.2828515 220.19879,247.7488515 219.84779,247.1058515 219.39179000000001,246.5338515 218.84179,246.0498515 218.21779,245.66785149999998 217.53579000000002,245.4008515 216.81779,245.25685149999998 216.08579,245.23885149999998 215.36179,245.3478515 214.66879,245.5818515 214.02579,245.9318515 213.45379000000003,246.3888515 212.96879,246.9378515 212.58779,247.5628515 212.32079000000002,248.24485149999998 210.93579000000003,250.9728515 209.06379,250.9728515 207.67879000000002,248.24485149999998 207.41179000000002,247.5628515 207.03079000000002,246.9378515 206.54579,246.3888515 205.97379,245.9318515 205.33179,245.5818515 204.63779000000002,245.3478515 203.91379,245.23885149999998 203.18179,245.25685149999998 202.46379000000002,245.4008515 201.78279,245.66785149999998 201.15779,246.0498515 200.60879,246.5338515 200.15179,247.1058515 199.80079,247.7488515 198.08579,250.2828515 196.22779,250.0478515 195.19579000000002,247.1668515 195.01679000000001,246.4568515 194.71579,245.7898515 194.30479000000003,245.1838515 193.79479,244.6588515 193.20079,244.2308515 192.54179000000002,243.91185149999998 191.83679,243.7128515 191.10879,243.6388515 190.37879,243.6928515 189.66879,243.8718515 189.00079000000002,244.1718515 188.39579,244.5838515 187.87079,245.0938515 187.44279,245.6878515 185.42279000000002,247.9868515 183.60879,247.5208515 182.94679000000002,244.5338515 182.85679000000002,243.8068515 182.64279000000002,243.1068515 182.31079000000003,242.4548515 181.86979000000002,241.86985149999998 181.33479,241.3708515 180.72079000000002,240.97185149999999 180.04679000000002,240.68585149999998 179.33379000000002,240.5208515 178.60279,240.48285149999998 177.87579000000002,240.5718515 177.17579,240.7858515 176.52379000000002,241.1188515 175.93879,241.5588515 175.43979000000002,242.0948515 173.14779000000001,244.1218515 171.40679,243.4328515 171.12379,240.3858515 171.12579000000002,239.6538515 171.00179,238.9318515 170.75379,238.2428515 170.38979,237.60785149999998 169.92079,237.0458515 169.36179,236.57285149999998 168.72879,236.2048515 168.04179000000002,235.9518515 167.32179000000002,235.8218515 166.58979000000002,235.8198515 165.86779,235.9438515 165.17879000000002,236.19185149999998 164.54379,236.5558515 163.98179000000002,237.02485149999998 161.45379,238.7488515 159.81279,237.84685149999999 159.91379,234.7888515 160.00779,234.0628515 159.97479,233.3308515 159.81479000000002,232.6168515 159.53379,231.9408515 159.13979,231.3238515 158.64379000000002,230.7848515 158.06179,230.34085149999999 157.41179000000002,230.0038515 156.71379000000002,229.7848515 155.98779000000002,229.6908515 155.25579000000002,229.7238515 154.54179000000002,229.8828515 153.86579,230.1648515 153.24879,230.5588515 150.52479000000002,231.9528515 149.00979,230.85185149999998 149.49379000000002,227.8308515 149.67879000000002,227.1218515 149.73679,226.3928515 149.66779000000002,225.6638515 149.47379,224.9578515 149.15979000000002,224.2968515 148.73579,223.6998515 148.21479000000002,223.18585149999998 147.61179,222.7698515 146.94579000000002,222.46485149999998 146.23779000000002,222.28085149999998 145.50779,222.22185149999999 144.77879000000001,222.2908515 144.07279,222.4848515 143.41179000000002,222.79885149999998 140.53479000000002,223.84085149999999 139.16979,222.5588515 140.02779,219.6218515 140.29979,218.94185149999998 140.44979,218.2258515 140.47279,217.4938515 140.36879000000002,216.76885149999998 140.13979,216.0738515 139.79379,215.4278515 139.34079,214.85285149999999 138.79479,214.3648515 138.17279000000002,213.9788515 137.49279,213.7068515 136.77679,213.5578515 136.04479,213.5348515 135.31979,213.6388515 134.62479000000002,213.8678515 131.63979,214.5398515 130.44579,213.0978515 131.66579000000002,210.2908515 132.02079,209.6508515 132.25879,208.95885149999998 132.37379,208.2358515 132.36079,207.5038515 132.22179,206.7848515 131.95879000000002,206.10185149999998 131.58179,205.4738515 131.10179000000002,204.9208515 130.53279,204.4608515 129.89279,204.1058515 129.19979,203.8668515 128.47679,203.7528515 127.74479,203.7658515 127.02678999999999,203.9048515 123.98079,204.19785149999998 122.97679,202.6178515 124.53878999999999,199.9858515 124.97179,199.3948515 125.29478999999999,198.73885149999998 125.49879,198.0358515 125.57779,197.3078515 125.52978999999999,196.5768515 125.35479,195.8658515 125.05978999999999,195.1958515 124.65178999999999,194.5878515 124.14578999999999,194.0598515 123.55479,193.6268515 122.89779,193.3038515 122.19479,193.0998515 121.46679,193.0208515 120.73679,193.0688515 117.67779,192.97785149999999 116.88078999999999,191.2838515 118.75979,188.8688515 119.26279,188.3368515 119.66579,187.7258515 119.95679,187.0538515 120.12679,186.3418515 120.16978999999999,185.6108515 120.08579,184.8838515 119.87679,184.1818515 119.54879,183.5278515 119.11278999999999,182.9398515 118.58079,182.4368515 117.96879,182.0338515 117.29778999999999,181.7428515 116.58479,181.5738515 115.85479,181.5298515 112.83079,181.0558515 112.25278999999999,179.2758515 114.41978999999999,177.1158515 114.98579,176.6508515 115.46179,176.0948515 115.83479,175.46485149999998 116.09279,174.7798515 116.22679,174.05985149999998 116.23478999999999,173.32785149999998 116.11479,172.6058515 115.87178999999999,171.9148515 115.51279,171.2768515 115.04778999999999,170.7108515 114.49179,170.2348515 113.86179,169.8618515 113.17679,169.6048515 112.45679,169.4698515 109.51679,168.6208515 109.16579,166.7818515 111.58679,164.9108515 112.20679,164.5198515 112.74879,164.0288515 113.19779,163.4498515 113.53878999999999,162.8028515 113.76279,162.1048515 113.86278999999999,161.3798515 113.83379,160.6488515 113.67979,159.9328515 113.40279,159.2548515 113.01279,158.6358515 112.52078999999999,158.0928515 111.94279,157.6448515 111.29478999999999,157.3028515 110.59778999999999,157.07885149999998 107.78779,155.8688515 107.66978999999999,153.9998515 110.30678999999999,152.44685149999998 110.96978999999999,152.1368515 111.56979,151.7168515 112.08779,151.1998515 112.50679,150.5998515 112.81679,149.9368515 113.00578999999999,149.2288515 113.06979,148.4998515 113.00578999999999,147.7708515 112.81679,147.0638515 112.50679,146.39985149999998 112.08779,145.7998515 111.56979,145.2828515 110.96978999999999,144.8628515 110.30678999999999,144.5528515 107.66978999999999,142.9998515 107.78779,141.1308515 110.59778999999999,139.9208515 111.29478999999999,139.69685149999998 111.94279,139.3548515 112.52078999999999,138.9068515 113.01279,138.36385149999998 113.40279,137.74485149999998 113.67979,137.06685149999998 113.83379,136.35185149999998 113.86278999999999,135.61985149999998 113.76279,134.8948515 113.53878999999999,134.19785149999998 113.19779,133.5498515 112.74879,132.97085149999998 112.20679,132.4798515 111.58679,132.08985149999998 109.16579,130.2178515 109.51679,128.3788515 112.45679,127.5298515 113.17679,127.3948515 113.86179,127.13785150000001 114.49179,126.7648515 115.04778999999999,126.2888515 115.51279,125.7228515 115.87178999999999,125.08485150000001 116.11479,124.3948515 116.23478999999999,123.6718515 116.22679,122.9398515 116.09279,122.22085150000001 115.83479,121.5348515 115.46179,120.9048515 114.98579,120.34885150000001 114.41978999999999,119.88485150000001 112.25278999999999,117.72385150000001 112.83079,115.94385150000001 115.85479,115.4698515 116.58479,115.42685150000001 117.29778999999999,115.25685150000001 117.96879,114.96585150000001 118.58079,114.56285150000001 119.11278999999999,114.05985150000001 119.54879,113.4718515 119.87679,112.8178515 120.08579,112.1158515 120.16978999999999,111.3888515 120.12679,110.6578515 119.95679,109.9458515 119.66579,109.2738515 119.26279,108.6628515 118.75979,108.1308515 116.88078999999999,105.7158515 117.67779,104.02185150000001 120.73679,103.9308515 121.46679,103.9788515 122.19479,103.89985150000001 122.89779,103.6958515 123.55479,103.37285150000001 124.14578999999999,102.9398515 124.65178999999999,102.41185150000001 125.05978999999999,101.80385150000001 125.35479,101.1338515 125.52978999999999,100.42285150000001 125.57779,99.69185150000001 125.49879,98.96485150000001 125.29478999999999,98.2618515 124.97179,97.60485150000001 124.53878999999999,97.0138515 122.97679,94.3828515 123.98079,92.80185150000001 127.02678999999999,93.0948515 127.74479,93.2338515 128.47679,93.2468515 129.19979,93.1328515 129.89279,92.89385150000001 130.53279,92.5388515 131.10179000000002,92.07885150000001 131.58179,91.5258515 131.95879000000002,90.8988515 132.22179,90.21485150000001 132.36079,89.4958515 132.37379,88.7638515 132.25879,88.0408515 132.02079,87.34885150000001 131.66579000000002,86.70885150000001 130.44579,83.9018515 131.63979,82.4598515 134.62479000000002,83.13185150000001 135.31979,83.36085150000001 136.04479,83.46485150000001 136.77679,83.44185150000001 137.49279,83.29285150000001 138.17279000000002,83.0208515 138.79479,82.63485150000001 139.34079,82.14685150000001 139.79379,81.57185150000001 140.13979,80.92585150000001 140.36879000000002,80.2308515 140.47279,79.5058515 140.44979,78.77485150000001 140.29979,78.05785150000001 140.02779,77.3778515 139.16979,74.44085150000001 140.53479000000002,73.15885150000001 143.41179000000002,74.2008515 144.07279,74.5148515 144.77879000000001,74.70885150000001 145.50779,74.77785150000001 146.23779000000002,74.7188515 146.94579000000002,74.5348515 147.61179,74.22985150000001 148.21479000000002,73.81385150000001 148.73579,73.2998515 149.15979000000002,72.70285150000001 149.47379,72.0418515 149.66779000000002,71.3358515 149.73679,70.6068515 149.67879000000002,69.8778515 149.49379000000002,69.1688515 149.00979,66.1478515 150.52479000000002,65.0468515 153.24879,66.44085150000001 153.86579,66.8348515 154.54179000000002,67.11685150000001 155.25579000000002,67.2758515 155.98779000000002,67.30985150000001 156.71379000000002,67.21485150000001 157.41179000000002,66.9958515 158.06179,66.65885150000001 158.64379000000002,66.21485150000001 159.13979,65.67585150000001 159.53379,65.0588515 159.81479000000002,64.3828515 159.97479,63.668851499999995 160.00779,62.936851499999996 159.91379,62.2108515 159.81279,59.1528515 161.45379,58.250851499999996 163.98179000000002,59.9748515 164.54379,60.4438515 165.17879000000002,60.8078515 165.86779,61.055851499999996 166.58979000000002,61.1798515 167.32179000000002,61.177851499999996 168.04179000000002,61.0478515 168.72879,60.7948515 169.36179,60.4268515 169.92079,59.9538515 170.38979,59.3918515 170.75379,58.756851499999996 171.00179,58.067851499999996 171.12579000000002,57.345851499999995 171.12379,56.613851499999996 171.40679,53.5668515 173.14779000000001,52.8778515 175.43979000000002,54.9058515 175.93879,55.4408515 176.52379000000002,55.881851499999996 177.17579,56.2138515 177.87579000000002,56.427851499999996 178.60279,56.5168515 179.33379000000002,56.4788515 180.04679000000002,56.3138515 180.72079000000002,56.0278515 181.33479,55.628851499999996 181.86979000000002,55.1298515 182.31079000000003,54.5448515 182.64279000000002,53.8928515 182.85679000000002,53.192851499999996 182.94679000000002,52.4658515 183.60879,49.4788515 185.42279000000002,49.0128515 187.44279,51.311851499999996 187.87079,51.9058515 188.39579,52.415851499999995 189.00079000000002,52.8278515 189.66879,53.1278515 190.37879,53.3068515 191.10879,53.360851499999995 191.83679,53.2868515 192.54179000000002,53.0878515 193.20079,52.7688515 193.79479,52.3408515 194.30479000000003,51.8158515 194.71579,51.2098515 195.01679000000001,50.5428515 195.19579000000002,49.8328515 196.22779,46.9518515 198.08579,46.7168515 199.80079,49.250851499999996 200.15179,49.8938515 200.60879,50.4658515 201.15779,50.9498515 201.78279,51.3318515 202.46379000000002,51.598851499999995 203.18179,51.7438515 203.91379,51.7608515 204.63779000000002,51.6518515 205.33179,51.4178515 205.97379,51.067851499999996 206.54579,50.610851499999995 207.03079000000002,50.061851499999996 207.41179000000002,49.436851499999996 207.67879000000002,48.7558515 209.06379,46.0268515 210.93579000000003,46.0268515 212.32079000000002,48.7558515 212.58779,49.436851499999996 212.96879,50.061851499999996 213.45379000000003,50.610851499999995 214.02579,51.067851499999996 214.66879,51.4178515 215.36179,51.6518515 216.08579,51.7608515 216.81779,51.7438515 217.53579000000002,51.598851499999995 218.21779,51.3318515 218.84179,50.9498515 219.39179000000001,50.4658515 219.84779,49.8938515 220.19879,49.250851499999996 221.91479,46.7168515 223.77179,46.9518515 224.80379000000002,49.8328515 224.98379,50.5428515 225.28379,51.2098515 225.69479,51.8158515 226.20579,52.3408515 226.79879000000003,52.7688515 227.45779000000002,53.0878515 228.16279,53.2868515 228.89079,53.360851499999995 229.62079,53.3068515 230.33079,53.1278515 230.99879,52.8278515 231.60379,52.415851499999995 232.12879,51.9058515 232.55779,51.311851499999996 234.57679000000002,49.0128515 236.39079,49.4788515 237.05279000000002,52.4658515 237.14279000000002,53.192851499999996 237.35679000000002,53.8928515 237.68879,54.5448515 238.12979,55.1298515 238.66479,55.628851499999996 239.27879000000001,56.0278515 239.95279000000002,56.3138515 240.66579000000002,56.4788515 241.39679,56.5168515 242.12379,56.427851499999996 242.82379,56.2138515 243.47679000000002,55.881851499999996 244.06079000000003,55.4408515 244.56079000000003,54.9058515 246.85279000000003,52.8778515 248.59279,53.5668515 248.87579000000002,56.613851499999996 248.87379,57.345851499999995 248.99779,58.067851499999996 249.24579,58.756851499999996 249.60979,59.3918515 250.07879000000003,59.9538515 250.63779000000002,60.4268515 251.27079,60.7948515 251.95779000000002,61.0478515 252.67779000000002,61.177851499999996 253.41079000000002,61.1798515 254.13179000000002,61.055851499999996 254.82079000000002,60.8078515 255.45579,60.4438515 256.01879,59.9748515 258.54679,58.250851499999996 260.18679000000003,59.1528515 260.08579000000003,62.2108515 259.99179000000004,62.936851499999996 260.02479,63.668851499999995 260.18479,64.3828515 260.46579,65.0588515 260.86079,65.67585150000001 261.35579,66.21485150000001 261.93779,66.65885150000001 262.58779,66.9958515 263.28578999999996,67.21485150000001 264.01178999999996,67.30985150000001 264.74379,67.2758515 265.45779,67.11685150000001 266.13379,66.8348515 266.75079,66.44085150000001 269.47479,65.0468515 270.98978999999997,66.1478515 270.50579,69.1688515 270.32178999999996,69.8778515 270.26279,70.6068515 270.33179,71.3358515 270.52579,72.0418515 270.83979,72.70285150000001 271.26379,73.2998515 271.78578999999996,73.81385150000001 272.38779,74.22985150000001 273.05379,74.5348515 273.76178999999996,74.7188515 274.49179,74.77785150000001 275.22078999999997,74.70885150000001 275.92679,74.5148515 276.58779,74.2008515 279.46479,73.15885150000001 280.82979,74.44085150000001 279.97179,77.3778515 279.69979,78.05785150000001 279.54979,78.77485150000001 279.52679,79.5058515 279.63178999999997,80.2308515 279.85979,80.92585150000001 280.20579,81.57185150000001 280.65879,82.14685150000001 281.20479,82.63485150000001 281.82678999999996,83.0208515 282.50678999999997,83.29285150000001 283.22279,83.44185150000001 283.95479,83.46485150000001 284.67978999999997,83.36085150000001 285.37478999999996,83.13185150000001 288.35979,82.4598515 289.55379,83.9018515 288.33378999999996,86.70885150000001 287.97879,87.34885150000001 287.74079,88.0408515 287.62579,88.7638515 287.63879,89.4958515 287.77878999999996,90.21485150000001 288.04078999999996,90.8988515 288.41778999999997,91.5258515 288.89779,92.07885150000001 289.46679,92.5388515 290.10778999999997,92.89385150000001 290.79979,93.1328515 291.52279,93.2468515 292.25478999999996,93.2338515 292.97379,93.0948515 296.01979,92.80185150000001 297.02279,94.3828515 295.46079,97.0138515 295.02779,97.60485150000001 294.70479,98.2618515 294.50079,98.96485150000001 294.42179,99.69185150000001 294.46979,100.42285150000001 294.64479,101.1338515 294.93978999999996,101.80385150000001 295.34779,102.41185150000001 295.85379,102.9398515 296.44479,103.37285150000001 297.10179,103.6958515 297.80478999999997,103.89985150000001 298.53279,103.9788515 299.26279,103.9308515 302.32178999999996,104.02185150000001 303.11879,105.7158515 301.23978999999997,108.1308515 300.73679,108.6628515 300.33378999999996,109.2738515 300.04278999999997,109.9458515 299.87279,110.6578515 299.82979,111.3888515 299.91379,112.1158515 300.12279,112.8178515 300.45079,113.4718515 300.88779,114.05985150000001 301.41879,114.56285150000001 302.03078999999997,114.96585150000001 302.70279,115.25685150000001 303.41479,115.42685150000001 304.14579,115.4698515 307.16879,115.94385150000001 307.74679,117.72385150000001 305.57979,119.88485150000001 305.01379,120.34885150000001 304.53779,120.9048515 304.16479,121.5348515 303.90779,122.22085150000001 303.77279,122.9398515 303.76479,123.6718515 303.88479,124.3948515 304.12779,125.08485150000001 304.48679,125.7228515 304.95178999999996,126.2888515 305.50779,126.7648515 306.13779,127.13785150000001 306.82279,127.3948515 307.54278999999997,127.5298515 310.48278999999997,128.3788515 310.83378999999996,130.2178515 308.41279,132.08985149999998 307.79278999999997,132.4798515 307.25079,132.97085149999998 306.80179,133.5498515 306.46079,134.19785149999998 306.23679,134.8948515 306.13779,135.61985149999998 306.16578999999996,136.35185149999998 306.31979,137.06685149999998 306.59679,137.74485149999998 306.98679,138.36385149999998 307.47879,138.9068515 308.05679,139.3548515 308.70479,139.69685149999998 309.40179,139.9208515 312.21179,141.1308515 312.32979,142.9998515 309.69279,144.5528515 309.02979,144.8628515 308.42978999999997,145.2828515 307.91279,145.7998515 307.49279,146.39985149999998 307.18279,147.0638515 306.99379,147.7708515 289.11978999999997,148.05985149999998"/>
            <polyline fill="none" stroke="black" stroke-width="0.1" id="simplify_259_1" points="305.61179,150.0118515 303.43619234375,169.01088274999998 297.72413374999996,186.6897265 288.84946578125,202.67450775 277.18604,216.5913515 263.10770796875,228.06638275 246.98832125,236.7257265 229.20173140625002,242.19550775 210.12179,244.10185149999998 210.12179,244.10185149999998 190.87526460937502,242.161622984375 172.948961875,236.596960875 156.726916953125,227.791900328125 142.593165,216.1304765 130.931741171875,201.996724546875 122.12668062499999,185.774679625 116.562018515625,167.848376890625 114.62178999999999,148.60185149999998 114.62178999999999,148.60185149999998 116.562018515625,129.355326109375 122.12668062499999,111.429023375 130.931741171875,95.206978453125 142.593165,81.0732265 156.726916953125,69.41180267187501 172.948961875,60.606742125 190.87526460937502,55.042080015625 210.12179,53.101851499999995 210.12179,53.101851499999995 229.16915718750002,55.001544859374995 246.92835250000002,60.452710875 263.0275165625,69.08347845312501 277.09479,80.52197650000001 288.75831343749996,94.39633392187501 297.6462275,110.334679625 303.38667281249997,127.965142515625 305.60778999999997,146.9158515"/>
            <polyline fill="none" stroke="black" stroke-width="0.1" id="simplify_260_1" points="255.28879,103.75385150000001 255.681924765625,102.107095640625 256.28193062500003,100.530054625 257.079209921875,99.043318296875 258.064165,97.6674765 259.227198203125,96.42311907812501 260.55871187500003,95.330835875 262.049108359375,94.411216734375 263.68879,93.68485150000001 263.68879,93.68485150000001 265.790100546875,93.111490171875 267.898711875,92.896898375 269.97664351562497,93.023439390625 271.985915,93.4734765 273.888545859375,94.229372984375 275.64655562499996,95.273492125 277.221963828125,96.588197203125 278.57678999999996,98.15585150000001 278.57678999999996,98.15585150000001 282.27106148437497,103.60511321875 285.545649375,109.34300775000001 288.378088828125,115.34757415625 290.74591499999997,121.59685150000001 292.62666304687497,128.06887884375 293.99786812499997,134.74169525 294.83706539062496,141.59333978125 295.12179,148.60185149999998 295.12179,148.60185149999998 294.83706539062496,155.61007415625 293.99786812499997,162.46157025 292.62666304687497,169.13433196875 290.74591499999997,175.6063515 288.378088828125,181.85562103125 285.545649375,187.86013275 282.27106148437497,193.59787884374998 278.57678999999996,199.0468515 278.57678999999996,199.0468515 277.221963828125,200.61454681249998 275.64655562499996,201.9293515 273.888545859375,202.9735936875 271.985915,203.7296015 269.97664351562497,204.17970306249998 267.898711875,204.3062265 265.790100546875,204.0914999375 263.68879,203.5178515 263.68879,203.5178515 262.049108359375,202.79152728124998 260.55871187500003,201.87200775 259.227198203125,200.77984759375 258.064165,199.53560149999998 257.079209921875,198.15982415624998 256.28193062500003,196.67307025 255.681924765625,195.09589446875 255.28879,193.4488515"/>
            <polyline fill="none" stroke="black" stroke-width="0.1" id="simplify_261_1" points="183.56879,206.3828515 182.15593648437502,207.31570696875 180.879336875,208.41907025 179.75505757812502,209.67688665625 178.79916500000002,211.0731015 178.02772554687502,212.59166009375 177.45680562500002,214.21650775 177.102471640625,215.93158978124998 176.98079,217.72085149999998 176.98079,217.72085149999998 177.16047945312502,219.891384703125 177.67974312500002,221.946429625 178.50887398437501,223.856654234375 179.618165,225.5927265 180.977909140625,227.125314390625 182.55839937500002,228.425085875 184.32992867187502,229.462708921875 186.26279000000002,230.2088515 186.26279000000002,230.2088515 189.09937007812502,230.984275328125 191.97805562500002,231.664179625 194.896514609375,232.24613860937498 197.852415,232.7277265 200.843424765625,233.106517515625 203.867211875,233.380085875 206.92144429687502,233.546005796875 210.00379,233.60185149999998 210.00379,233.60185149999998 213.0860946875,233.546005796875 216.1402275,233.380085875 219.16389156250003,233.106517515625 222.15479000000002,232.7277265 225.1106259375,232.24613860937498 228.02910250000002,231.664179625 230.9079228125,230.984275328125 233.74479000000002,230.2088515 233.74479000000002,230.2088515 235.67736421875,229.462708921875 237.44875875000002,228.425085875 239.02923140625,227.125314390625 240.38904000000002,225.5927265 241.49844234375,223.856654234375 242.32769625,221.946429625 242.84705953125,219.891384703125 243.02679,217.72085149999998 243.02679,217.72085149999998 242.90506539062503,215.93158978124998 242.550618125,214.21650775 241.979538046875,212.59166009375 241.207915,211.0731015 240.25183882812502,209.67688665625 239.127399375,208.41907025 237.85068648437502,207.31570696875 236.43779,206.3828515"/>
            <polyline fill="none" stroke="black" stroke-width="0.1" id="simplify_262_1" points="164.95479,193.4488515 164.56165523437502,195.09589446875 163.961649375,196.67307025 163.16437007812502,198.15982415624998 162.179415,199.53560149999998 161.016381796875,200.77984759375 159.684868125,201.87200775 158.194471640625,202.79152728124998 156.55479000000003,203.5178515 156.55479000000003,203.5178515 154.45352046875,204.0914999375 152.34500875,204.3062265 150.26720015625,204.17970306249998 148.25804000000002,203.7296015 146.35547359375002,202.9735936875 144.59744625000002,201.9293515 143.02190328125002,200.61454681249998 141.66679000000002,199.0468515 141.66679000000002,199.0468515 137.972805625,193.59787884374998 134.6983525,187.86013275 131.865930625,181.85562103125 129.49804,175.6063515 127.617180625,169.13433196875 126.2458525,162.46157025 125.406555625,155.61007415625 125.12178999999999,148.60185149999998 125.12178999999999,148.60185149999998 125.406555625,141.59333978125 126.2458525,134.74169525 127.617180625,128.06887884375 129.49804,121.59685150000001 131.865930625,115.34757415625 134.6983525,109.34300775000001 137.972805625,103.60511321875 141.66679000000002,98.15585150000001 141.66679000000002,98.15585150000001 143.02190328125002,96.588197203125 144.59744625000002,95.273492125 146.35547359375002,94.229372984375 148.25804000000002,93.4734765 150.26720015625,93.023439390625 152.34500875,92.896898375 154.45352046875,93.111490171875 156.55479000000003,93.68485150000001 156.55479000000003,93.68485150000001 158.194471640625,94.411216734375 159.684868125,95.330835875 161.016381796875,96.42311907812501 162.179415,97.6674765 163.16437007812502,99.043318296875 163.961649375,100.530054625 164.56165523437502,102.107095640625 164.95479,103.75385150000001"/>
            <circle id="simplify_263" cx="384.79" cy="148.3515" r="5.0" fill="none" stroke="black" stroke-width="0.1"/>
            <polygon fill="none" stroke="black" stroke-width="0.1" id="simplify_264_1" points="184.41479,148.4998515 184.326963828125,144.73616790625 184.06299312500002,141.12832025 183.622139609375,137.68673821874998 183.003665,134.4218515 182.206831015625,131.34408978125 181.230899375,128.46388275 180.075131796875,125.79166009375001 178.73879000000002,123.33785150000001 178.73879000000002,123.33785150000001 178.278971640625,122.594060484375 177.799805625,121.841023375 177.30172554687502,121.07886907812501 176.785165,120.3077265 176.250557578125,119.527724546875 175.69833687500002,118.73899212500001 175.128936484375,117.94165814062501 174.54279000000002,117.1358515 174.54279000000002,117.1358515 176.43839351562502,115.117212828125 178.45293062500002,113.209117125 180.57924117187503,111.41766985937501 182.810165,109.74897650000001 185.138541953125,108.209142515625 187.557211875,106.80427337500001 190.059014609375,105.540474546875 192.63679000000002,104.42385150000001 192.63679000000002,104.42385150000001 194.9429696875,107.7546405625 197.206165,110.73822650000001 199.42848531250002,113.34306243750001 201.61204,115.53760150000001 203.7589384375,117.2902968125 205.87129000000002,118.5696015 207.9512040625,119.34396868750001 210.00079000000002,119.58185150000001 210.00079000000002,119.58185150000001 212.05916109375002,119.344169859375 214.15369625000002,118.56933587500001 216.28465328125,117.28841595312501 218.45229,115.5324765 220.65686421875,113.33258392187501 222.89863375000002,110.71980462500001 225.17785640625002,107.72520501562501 227.49479000000002,104.3798515 227.49479000000002,104.3798515 230.05734859375002,105.472888609375 232.54957125,106.709398375 234.96327828125,108.08660345312501 237.29029000000003,109.60172650000001 239.52242671875,111.25199017187501 241.65150875,113.03461712500001 243.66935640625002,114.94683001562501 245.56779,116.98585150000001 244.43179,118.8808515 243.64961421875,120.37597259375 243.15625875,121.77563275 242.96510640625002,123.06602728125 243.08954,124.23335150000001 243.54294234375,125.26380071875 244.33869625000003,126.14357025000001 245.49018453125,126.85885540625 247.01079000000001,127.3958515 247.01079000000001,127.3958515 259.54060250000003,128.5899374375 275.5348525,129.45078900000001 293.96125875,130.0846718125 313.78754,130.59785150000002 333.98141499999997,131.0965936875 353.5106025,131.687164 371.34282125,132.4758280625 386.44579,133.5688515 386.44579,133.5688515 389.211655234375,134.09938860937498 391.771961875,135.112210875 394.076401328125,136.557009703125 396.074665,138.3834765 397.716444296875,140.541302671875 398.951430625,142.980179625 399.729315390625,145.64979876562498 399.99978999999996,148.4998515 399.99978999999996,148.4998515 399.729315390625,151.35019134375 398.951430625,154.01994525 397.716444296875,156.45883978125 396.074665,158.6166015 394.076401328125,160.44295696875 391.771961875,161.88763275 389.211655234375,162.90035540625 386.44579,163.4308515 386.44579,163.4308515 371.34282125,164.52387493749998 353.5106025,165.312539 333.98141499999997,165.9031093125 313.78754,166.4018515 293.96125875,166.9150311875 275.5348525,167.548914 259.54060250000003,168.40976556249998 247.01079000000001,169.6038515 247.01079000000001,169.6038515 245.489178671875,170.1475624375 244.337774375,170.882289 243.547846640625,171.7931718125 243.110665,172.8653515 243.017498984375,174.0839686875 243.259618125,175.43416399999998 243.82829195312502,176.9010780625 244.71479000000002,178.4698515 245.72679000000002,180.0378515 243.82148140625,182.08460735937498 241.78550875000002,184.017210875 239.63080171875,185.82866595312498 237.36929,187.5119765 235.01290328125,189.060146421875 232.57357125000001,190.466179625 230.06322359375002,191.723080015625 227.49379000000002,192.8238515 227.49379000000002,192.8238515 225.176899375,189.47001946875 222.89779000000001,186.45244524999998 220.65618062500002,183.80701165624998 218.45179000000002,181.5696015 216.284336875,179.77609759375 214.15354000000002,178.46238275 212.05911812500003,177.66433978125 210.00079000000002,177.41785149999998 210.00079000000002,177.41785149999998 207.9512040625,177.66445696875 205.87129000000002,178.46182025 203.7589384375,179.77363665625 201.61204,181.5636015 199.42848531250002,183.79541009375 197.206165,186.43275775 194.9429696875,189.43933978125 192.63679000000002,192.7788515 192.63679000000002,192.7788515 190.051967734375,191.654322203125 187.53158687500002,190.369679625 185.08665132812501,188.935341734375 182.72816500000002,187.3617265 180.467131796875,185.659251890625 178.31455562500003,183.83833587499998 176.28144039062502,181.909396421875 174.37879,179.8828515 174.37879,179.8828515 174.97227046875003,179.07623040625 175.56038375,178.27675775 176.13888765625,177.48501946874998 176.70354,176.70160149999998 177.25009859375,175.92708978125 177.77432125,175.16207025 178.27196578125,174.40712884375 178.73879000000002,173.6628515 178.73879000000002,173.6628515 180.075131796875,171.208712828125 181.230899375,168.536242125 182.206831015625,165.655857359375 183.003665,162.5779765 183.622139609375,159.313017515625 184.06299312500002,155.87139837499998 184.326963828125,152.263537046875 184.41479,148.4998515"/>
            <circle id="simplify_265" cx="209.912" cy="148.4535" r="15.0" fill="none" stroke="black" stroke-width="0.1"/>
            <circle id="simplify_266" cx="209.79" cy="148.3515" r="13.0" fill="none" stroke="black" stroke-width="0.1"/>
            <circle id="simplify_267" cx="209.79" cy="148.3515" r="11.0" fill="none" stroke="black" stroke-width="0.1"/>
            <polyline fill="none" stroke="black" stroke-width="0.1" id="simplify_268_1" points="244.72979,127.4278515 244.56263765625002,127.40947259375001 244.39644625000003,127.39107025000001 244.23123921875,127.37262103125 244.06704000000002,127.35410150000001 243.90387203125002,127.33548821875 243.74175875,127.31675775000001 243.58072359375,127.29788665625 243.42079,127.2788515 243.42079,127.2788515 237.70899703125002,126.94515032812501 232.27969625,126.77674212500001 227.14425484375002,126.626544859375 222.31404,126.34747650000001 217.80041890625,125.79245501562501 213.61475875000002,124.81439837500001 209.76842671875002,123.26622454687501 206.27279000000001,121.00085150000001"/>
            <polyline fill="none" stroke="black" stroke-width="0.1" id="simplify_269_1" points="244.72979,169.57185149999998 244.56263765625002,169.59023040625 244.39644625000003,169.60863275 244.23123921875,169.62708196875 244.06704000000002,169.6456015 243.90387203125002,169.66421478125 243.74175875,169.68294525 243.58072359375,169.70181634374998 243.42079,169.72085149999998 243.42079,169.72085149999998 237.70899703125002,170.054552671875 232.27969625,170.22296087499998 227.14425484375002,170.37315814062498 222.31404,170.65222649999998 217.80041890625,171.207247984375 213.61475875000002,172.185304625 209.76842671875002,173.733478453125 206.27279000000001,175.9988515"/>
            <circle id="simplify_270" cx="384.79" cy="148.3515" r="5.0" fill="none" stroke="black" stroke-width="0.1"/>
            <polygon id="simplify_271" points="308.10400000000004,131.30949999999999 344.60200000000003,132.2285 306.18800000000005,147.7595 300.615,147.7945 281.74100000000004,155.17249999999999 245.089,156.1265" fill="none" stroke="black" stroke-width="0.1"/>
            <polyline fill="none" stroke="black" stroke-width="0.1" id="simplify_272_1" points="279.36379,147.4678515 279.27602437499996,147.492947203125 279.190415,147.497804625 279.109118125,147.483654234375 279.03429,147.4517265 278.968086875,147.403251890625 278.912665,147.339460875 278.870180625,147.261583921875 278.84279,147.1708515 278.69979,146.4508515 278.68957515625,146.35313079687498 278.69700875,146.255210875 278.72070796875,146.15970501562498 278.75928999999996,146.06922649999998 278.81137203124996,145.98638860937498 278.87557125,145.91380462499998 278.95050484374997,145.854087828125 279.03479,145.80985149999998 282.42579,144.44685149999998 282.513555625,144.42204290625 282.59916499999997,144.41732025 282.680461875,144.43148821875 282.75529,144.4633515 282.82149312499996,144.51171478125 282.876915,144.57538275 282.919399375,144.65316009375 282.94678999999996,144.7438515 283.08979,145.46485149999998 283.10000484374996,145.562572203125 283.09257125,145.660492125 283.06887203125,145.755997984375 283.03029,145.8464765 282.97820796875,145.929314390625 282.91400875,146.001898375 282.83907515625,146.061615171875 282.75478999999996,146.1058515 279.36379,147.4678515"/>
            <polyline fill="none" stroke="black" stroke-width="0.1" id="simplify_273_1" points="291.39279,140.8448515 291.47679,141.2678515 292.00279,143.9128515 292.29778999999996,145.3978515 292.63178999999997,147.07885149999998 292.82379,148.04285149999998 292.832440390625,148.131232359375 292.824743125,148.22002337499998 292.801975546875,148.306822203125 292.76541499999996,148.3892265 292.716338828125,148.464833921875 292.65602437499996,148.531242125 292.58574898437496,148.58604876562498 292.50678999999997,148.6268515 291.78379,148.91785149999998 291.29479,149.11385149999998 290.89479,149.27485149999998 290.80978999999996,148.85185149999998 290.28379,146.2068515 289.98879,144.72185149999999 289.56478999999996,142.59085149999999 289.46279,142.0768515 289.454139609375,141.988470640625 289.46183687499996,141.899679625 289.484604453125,141.812880796875 289.521165,141.73047649999998 289.570241171875,141.654869078125 289.630555625,141.58846087499998 289.700831015625,141.533654234375 289.77979,141.4928515 290.22479,141.3138515 290.99179,141.0058515 291.39279,140.8448515"/>
            <polyline fill="none" stroke="black" stroke-width="0.1" id="simplify_274_1" points="305.77279,135.06685149999998 306.10078999999996,136.71485149999998 301.86478999999997,138.41685149999998 301.74441109375,138.479251890625 301.63732125,138.56280462499998 301.54546578124996,138.663912046875 301.47078999999997,138.7789765 301.41523921875,138.90440032812498 301.38075875,139.036585875 301.36929390625,139.17193548437498 301.38279,139.3068515 301.38279,139.3068515 301.420776328125,139.431787046875 301.48024312499996,139.53852337499998 301.558202109375,139.625455015625 301.651665,139.6909765 301.757643515625,139.733482359375 301.87314937499997,139.751367125 301.995194296875,139.743025328125 302.12079,139.7068515 304.46779,138.7638515 304.92420210937496,138.631908140625 305.36752437499996,138.601179625 305.78701070312496,138.665818296875 306.171915,138.8199765 306.511491171875,139.057806578125 306.79499312499996,139.373460875 307.011674765625,139.761091734375 307.15079,140.21485149999998 307.15079,140.21485149999998 307.199541953125,140.70510931249999 307.15774312499997,141.19672649999998 307.032436484375,141.6767186875 306.830665,142.1321015 306.55947164062496,142.5498905625 306.225899375,142.9171015 305.836991171875,143.2207499375 305.39979,143.44785149999998 300.91679,145.2488515 300.58679,143.58985149999998 304.80679,141.8948515 304.929557578125,141.8304686875 305.03855562499996,141.7433515 305.13182710937497,141.63729681249998 305.20741499999997,141.5161015 305.263362265625,141.3835624375 305.297711875,141.24347649999999 305.308506796875,141.09964056249999 305.29379,140.9558515 305.29379,140.9558515 305.25337984375,140.82194134374998 305.19119624999996,140.70713275 305.11030953125,140.61318353125 305.01379,140.54185149999998 304.90470796874996,140.49489446875 304.78613375,140.47407024999998 304.66113765625,140.48113665625 304.53279,140.5178515 302.19178999999997,141.4578515 301.74500289062496,141.587146421875 301.31093062499997,141.61733587499998 300.900131796875,141.55412689062499 300.523165,141.4032265 300.190588828125,141.170341734375 299.912961875,140.861179625 299.700842734375,140.481447203125 299.56478999999996,140.03685149999998 299.56478999999996,140.03685149999998 299.516952109375,139.55714446874998 299.55783687499996,139.07600775 299.680541953125,138.60616790625 299.87816499999997,138.1603515 300.143803671875,137.75128509375 300.470555625,137.39169525 300.851518515625,137.09430853125 301.27979,136.8718515 305.77279,135.06685149999998"/>
            <polyline fill="none" stroke="black" stroke-width="0.1" id="simplify_275_1" points="292.23479,140.5058515 296.21879,138.90585149999998 296.22078999999997,138.9158515 296.667534140625,138.786556578125 297.101493125,138.756367125 297.512131796875,138.819576109375 297.888915,138.9704765 298.221307578125,139.203361265625 298.498774375,139.512523375 298.71078023437497,139.892255796875 298.84679,140.3368515 298.84679,140.3368515 298.89462984375,140.81659954687498 298.85375875,141.297835875 298.73109078125,141.767798765625 298.53353999999996,142.21372649999998 298.26802046874997,142.622857359375 297.94144625,142.98242962499998 297.56073140625,143.27968157812498 297.13279,143.5018515 297.13479,143.5118515 296.18579,143.89385149999998 299.85278999999997,143.7758515 300.21079,145.5738515 295.03578999999996,145.5338515 295.28179,146.7718515 295.33378999999996,147.0338515 295.34244234375,147.12223431249998 295.33475875,147.211039 295.31202828125,147.29787493749998 295.27554,147.3803515 295.22658296875,147.45607806249998 295.16644625,147.522664 295.09641890625,147.57771868749998 295.01779,147.6188515 294.74779,147.72685149999998 294.15179,147.9668515 293.75079,148.1278515 293.66679,147.70385149999998 293.31279,145.9248515 293.27779,145.7478515 293.219698203125,145.27194329687498 293.231180625,144.802398375 293.307373984375,144.35111126562498 293.44341499999996,143.92997649999998 293.634440390625,143.550888609375 293.875586875,143.22574212499998 294.161991171875,142.966431578125 294.48879,142.7848515 296.54778999999996,141.9578515 296.66816890625,141.89512103125 296.77525875,141.81132025 296.86711421875,141.71003509374998 296.94178999999997,141.5948515 296.99734078125,141.46935540625 297.03182125,141.33713275 297.04328609375,141.20176946875 297.02979,141.06685149999998 297.02979,141.06685149999998 296.99147359374996,140.941915953125 296.93175875,140.835179625 296.85362203125,140.74824798437498 296.76004,140.6827265 296.65398921875,140.640220640625 296.53844625,140.622335875 296.41638765625,140.630677671875 296.29078999999996,140.66685149999998 296.29078999999996,140.66685149999998 292.56478999999996,142.1638515 292.23479,140.5058515"/>
            <polyline fill="none" stroke="black" stroke-width="0.1" id="simplify_276_1" points="309.49978999999996,141.7998515 309.41578999999996,141.37585149999998 308.88979,138.7308515 308.31279,135.8258515 306.94178999999997,136.3768515 306.53979,136.5378515 306.45479,136.1128515 306.32579,135.46485149999998 306.29679,135.31585149999998 306.2878525,135.22709564062498 306.295415,135.137929625 306.31816499999996,135.050755796875 306.35479,134.9679765 306.4039775,134.89199407812498 306.464415,134.82521087499998 306.53479,134.770029234375 306.61379,134.7288515 307.03578999999996,134.5588515 307.98479,134.1778515 309.65179,133.5078515 311.13879,132.91085149999998 311.54078999999996,132.7488515 311.62579,133.17385149999998 311.70579,133.57785149999998 311.78479,133.97185149999999 311.793397421875,134.06060735937498 311.785586875,134.149773375 311.762659140625,134.236947203125 311.725915,134.3197265 311.676655234375,134.39570892187498 311.61618062499997,134.46249212499998 311.545791953125,134.517673765625 311.46679,134.5588515 311.13779,134.69085149999998 309.97979,135.15585149999998 310.55779,138.06085149999998 310.93779,139.9758515 311.08378999999996,140.7068515 311.092399375,140.794904234375 311.08460249999996,140.883460875 311.06171187499996,140.97011907812498 311.02504,141.05247649999998 310.975899375,141.12813079687498 310.9156025,141.194679625 310.845461875,141.249720640625 310.76678999999996,141.2908515 310.39079,141.44185149999998 309.90079,141.6388515 309.49978999999996,141.7998515"/>
            <polyline fill="none" stroke="black" stroke-width="0.1" id="simplify_277_1" points="284.43879,149.3178515 284.80779,151.17385149999998 284.83079,151.2878515 284.84979,151.3848515 284.84979,151.3848515 284.86098531249996,151.496751890625 284.851415,151.609179625 284.8227196875,151.719099546875 284.77654,151.8234765 284.71451656249997,151.919275328125 284.63829,152.003460875 284.5495009375,152.07299798437498 284.44979,152.1248515 284.21679,152.2188515 283.79479,152.3888515 280.67679,153.6408515 280.16979,153.8448515 280.06279,153.3088515 279.18978999999996,148.9188515 279.11079,148.5208515 279.09963765624997,148.40895110937498 279.10932125,148.296523375 279.13817671875,148.186603453125 279.18453999999997,148.0822265 279.24674703125,147.986427671875 279.32313375,147.902242125 279.41203609375,147.83270501562498 279.51178999999996,147.78085149999998 279.88579,147.6298515 282.61679,146.5328515 283.28379,146.2648515 283.38354390625,146.212997984375 283.47244624999996,146.143460875 283.54883296875,146.05927532812498 283.61104,145.96347649999998 283.65740328124997,145.859099546875 283.68625875,145.74917962499998 283.69594234375,145.636751890625 283.68478999999996,145.52485149999998 283.58679,145.0298515 283.51479,144.66785149999998 283.51178999999996,144.6568515 283.51279,144.6568515 283.502362265625,144.53074798437498 283.51486812499996,144.404398375 283.54849117187496,144.281119078125 283.601415,144.16422649999998 283.671823203125,144.057037046875 283.75789937499997,143.962867125 283.85782710937497,143.88503314062498 283.96979,143.8268515 284.45779,143.6308515 287.83878999999996,142.2728515 288.41479,142.0408515 288.53679,142.64985149999998 288.76579,143.80485149999998 288.88678999999996,144.4148515 288.31079,144.6458515 285.04078999999996,145.95985149999998 284.44178999999997,146.1998515 284.37279,146.22785149999999 284.273077109375,146.27970501562498 284.184274375,146.349242125 284.108010703125,146.433427671875 284.045915,146.5292265 283.999616171875,146.633603453125 283.970743125,146.743523375 283.960924765625,146.85595110937498 283.97179,146.9678515 284.10879,147.6588515 287.38079,146.3448515 287.47136812499997,146.31858978124998 287.559415,146.31250774999998 287.642774375,146.32541009374998 287.71929,146.3561015 287.786805625,146.40338665625 287.843165,146.46607025 287.88621187499996,146.54295696875 287.91379,146.6328515 288.05879,147.3608515 288.068405234375,147.4576718125 288.059961875,147.5551015 288.034901328125,147.6504686875 287.994665,147.74110149999998 287.940694296875,147.8243280625 287.874430625,147.89747649999998 287.797315390625,147.95787493749998 287.71079,148.0028515 284.43879,149.3178515"/>
            <line id="simplify_278" x1="314.09700000000004" y1="136.6565" x2="314.591" y2="139.8475" stroke="black" stroke-width="0.1"/>
            <line id="simplify_279" x1="316.57000000000005" y1="135.95749999999998" x2="314.32000000000005" y2="138.10049999999998" stroke="black" stroke-width="0.1"/>
            <line id="simplify_280" x1="317.23600000000005" y1="135.68449999999999" x2="319.43600000000004" y2="134.93349999999998" stroke="black" stroke-width="0.1"/>
            <line id="simplify_281" x1="318.822" y1="138.0725" x2="318.336" y2="135.30949999999999" stroke="black" stroke-width="0.1"/>
            <line id="simplify_282" x1="317.355" y1="138.49949999999998" x2="314.38100000000003" y2="138.4915" stroke="black" stroke-width="0.1"/>
            <polygon id="simplify_283" points="232.392,158.0565 276.38300000000004,140.8105 277.75300000000004,140.8345 234.279,157.8785" fill="none" stroke="black" stroke-width="0.1"/>
            <polygon id="simplify_284" points="228.359,157.0195 270.00300000000004,140.7025 271.37800000000004,140.72549999999998 228.009,157.7285" fill="none" stroke="black" stroke-width="0.1"/>
            <polygon id="simplify_285" points="229.543,153.83749999999998 263.357,140.5805 264.72200000000004,140.6075 229.35399999999998,154.4735" fill="none" stroke="black" stroke-width="0.1"/>
            <polygon id="simplify_286" points="230.131,150.9675 257.016,140.4265 258.35600000000005,140.46349999999998 230.04399999999998,151.5625" fill="none" stroke="black" stroke-width="0.1"/>
            <polygon id="simplify_287" points="230.309,148.2505 250.817,140.2045 252.113,140.2585 230.301,148.80949999999999" fill="none" stroke="black" stroke-width="0.1"/>
            <polygon id="simplify_288" points="230.14,145.6015 244.763,139.86849999999998 245.99099999999999,139.9495 230.202,146.1395" fill="none" stroke="black" stroke-width="0.1"/>
            <polygon id="simplify_289" points="229.668,143.1255 239.248,139.36749999999998 240.362,139.4945 229.792,143.6385" fill="none" stroke="black" stroke-width="0.1"/>
            <polygon id="simplify_290" points="228.924,140.8005 234.457,138.62949999999998 235.44,138.80749999999998 229.106,141.29049999999998" fill="none" stroke="black" stroke-width="0.1"/>
            <polygon id="simplify_291" points="227.915,138.59349999999998 230.21099999999998,137.6905 231.09199999999998,137.90949999999998 228.155,139.0605" fill="none" stroke="black" stroke-width="0.1"/>
            <polyline fill="none" stroke="black" stroke-width="0.1" id="simplify_292_1" points="371.67379,164.4878515 369.596061484375,162.311271421875 367.273399375,160.51033587499998 364.800338828125,159.06037689062498 362.271415,157.9367265 359.781163046875,157.11471673437498 357.424118125,156.569679625 355.294815390625,156.276947203125 353.48778999999996,156.2118515 247.71779,158.8688515 243.68754195312502,159.08637884375 239.585493125,159.52269525 235.466311484375,160.15265228125 231.384665,160.9511015 227.395221640625,161.89289446875 223.55264937500002,162.95288275 219.911616171875,164.10591790625 216.52679,165.3268515 216.52679,165.3268515 215.76812398437502,165.595744078125 214.996274375,165.831179625 214.21183882812502,166.03241985937498 213.41541500000002,166.1987265 212.607600546875,166.32936126562498 211.78899312500002,166.423585875 210.960190390625,166.48066204687498 210.12179,166.4998515 210.12179,166.4998515 206.49419820312502,166.134150328125 203.11543062500002,165.085304625 200.05787398437502,163.42570110937498 197.39391500000002,161.2277265 195.19594039062503,158.563767515625 193.53633687500002,155.506210875 192.487491171875,152.127443296875 192.12179,148.4998515"/>
            <polyline fill="none" stroke="black" stroke-width="0.1" id="simplify_293_1" points="183.56879,90.81985150000001 182.15593648437502,89.88699603125 180.879336875,88.78363275000001 179.75505757812502,87.52581634375001 178.79916500000002,86.1296015 178.02772554687502,84.61104290625 177.45680562500002,82.98619525000001 177.102471640625,81.27111321875 176.98079,79.4818515 176.98079,79.4818515 177.16047945312502,77.311318296875 177.67974312500002,75.256273375 178.50887398437501,73.346048765625 179.618165,71.6099765 180.977909140625,70.077388609375 182.55839937500002,68.777617125 184.32992867187502,67.73999407812501 186.26279000000002,66.9938515 186.26279000000002,66.9938515 189.09937007812502,66.218470640625 191.97805562500002,65.538679625 194.896514609375,64.956880796875 197.852415,64.4754765 200.843424765625,64.096869078125 203.867211875,63.823460874999995 206.92144429687502,63.657654234374995 210.00379,63.601851499999995 210.00379,63.601851499999995 213.0860946875,63.657654234374995 216.1402275,63.823460874999995 219.16389156250003,64.096869078125 222.15479000000002,64.4754765 225.1106259375,64.956880796875 228.02910250000002,65.538679625 230.9079228125,66.218470640625 233.74479000000002,66.9938515 233.74479000000002,66.9938515 235.67736421875,67.73999407812501 237.44875875000002,68.777617125 239.02923140625,70.077388609375 240.38904000000002,71.6099765 241.49844234375,73.346048765625 242.32769625,75.256273375 242.84705953125,77.311318296875 243.02679,79.4818515 243.02679,79.4818515 242.90506539062503,81.27111321875 242.550618125,82.98619525000001 241.979538046875,84.61104290625 241.207915,86.1296015 240.25183882812502,87.52581634375001 239.127399375,88.78363275000001 237.85068648437502,89.88699603125 236.43779,90.81985150000001"/>
            <polyline fill="none" stroke="black" stroke-width="0.1" id="simplify_294_1" points="371.67379,132.5118515 369.596061484375,134.688431578125 367.273399375,136.489367125 364.800338828125,137.939326109375 362.271415,139.0629765 359.781163046875,139.884986265625 357.424118125,140.430023375 355.294815390625,140.722755796875 353.48778999999996,140.7878515 247.71779,138.1308515 243.68754195312502,137.91332415624998 239.585493125,137.47700774999998 235.466311484375,136.84705071874998 231.384665,136.0486015 227.395221640625,135.10680853124998 223.55264937500002,134.04682025 219.911616171875,132.89378509374998 216.52679,131.67285149999998 216.52679,131.67285149999998 215.76812398437502,131.403958921875 214.996274375,131.168523375 214.21183882812502,130.967283140625 213.41541500000002,130.80097650000002 212.607600546875,130.670341734375 211.78899312500002,130.576117125 210.960190390625,130.519040953125 210.12179,130.4998515 210.12179,130.4998515 206.49419820312502,130.865552671875 203.11543062500002,131.914398375 200.05787398437502,133.574001890625 197.39391500000002,135.7719765 195.19594039062503,138.435935484375 193.53633687500002,141.493492125 192.487491171875,144.872259703125 192.12179,148.4998515"/>
            <circle id="simplify_295" cx="178.206" cy="103.3185" r="6.0" fill="none" stroke="black" stroke-width="0.1"/>
            <circle id="simplify_296" cx="241.469" cy="103.38550000000001" r="6.0" fill="none" stroke="black" stroke-width="0.1"/>
            <circle id="simplify_297" cx="241.30499999999998" cy="193.43249999999998" r="6.0" fill="none" stroke="black" stroke-width="0.1"/>
            <circle id="simplify_298" cx="178.37099999999998" cy="193.49949999999998" r="6.0" fill="none" stroke="black" stroke-width="0.1"/>
            <circle id="simplify_299" cx="178.206" cy="103.3185" r="2.872" fill="none" stroke="black" stroke-width="0.1"/>
            <polygon id="simplify_300" points="176.551,100.9535 177.988,100.8275 179.426,100.7025 180.254,101.8845 181.082,103.0665 180.472,104.3745 179.862,105.68350000000001 178.424,105.80850000000001 176.986,105.9345 176.158,104.7525 175.331,103.57050000000001 175.941,102.2615" fill="none" stroke="black" stroke-width="0.1"/>
            <circle id="simplify_302" cx="241.469" cy="103.38550000000001" r="2.872" fill="none" stroke="black" stroke-width="0.1"/>
            <polygon id="simplify_301" points="243.125,101.0205 243.73499999999999,102.3285 244.345,103.6375 243.517,104.8195 242.689,106.00150000000001 241.251,105.8755 239.813,105.7505 239.203,104.4415 238.593,103.1335 239.421,101.95150000000001 240.249,100.76950000000001 241.68699999999998,100.89450000000001" fill="none" stroke="black" stroke-width="0.1"/>
            <circle id="simplify_303" cx="241.30499999999998" cy="193.43249999999998" r="2.872" fill="none" stroke="black" stroke-width="0.1"/>
            <polygon id="simplify_304" points="239.649,191.0685 241.087,190.9425 242.525,190.8165 243.353,191.99849999999998 244.18099999999998,193.1815 243.571,194.4895 242.96099999999998,195.79749999999999 241.523,195.9235 240.085,196.0495 239.257,194.8665 238.429,193.68449999999999 239.039,192.3765" fill="none" stroke="black" stroke-width="0.1"/>
            <circle id="simplify_305" cx="178.37099999999998" cy="193.49949999999998" r="2.872" fill="none" stroke="black" stroke-width="0.1"/>
            <polygon id="simplify_306" points="180.02599999999998,191.1345 180.636,192.4435 181.246,193.7515 180.418,194.93349999999998 179.591,196.1155 178.153,195.9905 176.715,195.8645 176.105,194.5565 175.495,193.2475 176.323,192.0655 177.15099999999998,190.8835 178.588,191.0095" fill="none" stroke="black" stroke-width="0.1"/>
            <circle id="center_00" cx="209.79" cy="148.3515" r="11.0" fill="none" stroke="black" stroke-width="0.1"/>
        </g>
    </g>
</svg>
