<!DOCTYPE svg PUBLIC "-//W3C//DTD SVG 1.1//EN" "http://www.w3.org/Graphics/SVG/1.1/DTD/svg11.dtd">
<svg xmlns="http://www.w3.org/2000/svg" width="420mm" height="297mm" viewBox="-210 -148.5 420 297">
    <defs id="_tag_7_"/>
    <g id="trashNode_001"/>
    <g id="_tag_8_">
        <g id="_tag_9_">
            <polygon fill="none" stroke="black" stroke-width="0.1" id="simplify_37_1" points="104.658,148.041 114.361,147.347 114.551,148.055 114.86,148.718 115.28,149.318 115.798,149.836 116.397,150.255 117.061,150.565 119.697,152.118 119.516,154.078 116.639,155.121 115.93,155.303 115.263,155.605 114.659,156.019 114.136,156.531 113.71000000000001,157.127 113.394,157.787 113.126,159.221 113.182,159.951 113.364,160.66 113.667,161.327 114.081,161.931 114.593,162.453 115.188,162.88 117.494,164.891 116.956,166.784 113.936,167.28 113.206,167.329 112.495,167.504 111.825,167.8 111.217,168.207 110.68900000000001,168.714 110.257,169.305 109.73,170.665 109.651,171.393 109.7,172.123 109.875,172.834 110.17,173.504 110.578,174.112 111.08500000000001,174.64000000000001 112.982,177.041 112.105,178.803 109.045,178.736 108.318,178.65 107.58800000000001,178.691 106.875,178.859 106.202,179.147 105.59,179.549 105.056,180.05 104.289,181.29 104.077,181.991 103.991,182.71800000000002 104.032,183.449 104.2,184.162 104.489,184.835 104.89,185.447 106.31400000000001,188.156 105.128,189.726 102.133,189.098 101.434,188.88 100.708,188.786 99.977,188.82 99.262,188.98 98.587,189.262 97.97,189.657 96.988,190.735 96.651,191.385 96.433,192.084 96.339,192.81 96.373,193.541 96.533,194.256 96.815,194.931 97.717,197.856 96.263,199.18200000000002 93.434,198.014 92.787,197.671 92.09100000000001,197.445 91.366,197.344 90.634,197.37 89.918,197.523 89.24,197.798 88.07600000000001,198.677 87.626,199.255 87.282,199.901 87.057,200.598 86.956,201.323 86.982,202.055 87.135,202.77100000000002 87.48400000000001,205.811 85.811,206.847 83.245,205.179 82.672,204.723 82.029,204.373 81.33500000000001,204.141 80.611,204.032 79.879,204.05100000000002 79.162,204.197 77.856,204.847 77.307,205.332 76.851,205.904 76.502,206.547 76.269,207.242 76.16,207.966 76.179,208.697 75.964,211.75 74.129,212.461 71.913,210.35 71.434,209.797 70.866,209.335 70.226,208.979 69.535,208.739 68.812,208.623 68.08,208.63400000000001 66.677,209.03300000000002 66.048,209.409 65.495,209.888 65.033,210.45600000000002 64.677,211.096 64.437,211.788 64.321,212.51 63.548,215.471 61.614000000000004,215.833 59.824,213.351 59.454,212.719 58.981,212.161 58.418,211.693 57.782000000000004,211.33 57.093,211.083 56.371,210.96 54.918,211.094 54.232,211.348 53.6,211.71800000000002 53.041000000000004,212.191 52.574,212.754 52.211,213.39000000000001 51.964,214.079 50.661,216.848 48.692,216.848 47.389,214.079 47.142,213.39000000000001 46.779,212.754 46.311,212.191 45.753,211.71800000000002 45.121,211.348 44.434,211.094 42.982,210.96 42.26,211.083 41.571,211.33 40.935,211.693 40.372,212.161 39.898,212.719 39.529,213.351 37.739000000000004,215.833 35.804,215.471 35.032000000000004,212.51 34.916000000000004,211.788 34.676,211.096 34.32,210.45600000000002 33.858000000000004,209.888 33.304,209.409 32.676,209.03300000000002 31.273,208.63400000000001 30.541,208.623 29.818,208.739 29.126,208.979 28.487000000000002,209.335 27.919,209.797 27.44,210.35 25.224,212.461 23.389,211.75 23.173000000000002,208.697 23.192,207.966 23.084,207.242 22.851,206.547 22.501,205.904 22.045,205.332 21.497,204.847 20.191,204.197 19.474,204.05100000000002 18.742,204.032 18.018,204.141 17.323,204.373 16.68,204.723 16.108,205.179 13.542,206.847 11.868,205.811 12.218,202.77100000000002 12.371,202.055 12.397,201.323 12.296,200.598 12.07,199.901 11.727,199.255 11.277000000000001,198.677 10.113,197.798 9.435,197.523 8.719,197.37 7.987,197.344 7.2620000000000005,197.445 6.565,197.671 5.9190000000000005,198.014 3.09,199.18200000000002 1.6360000000000001,197.856 2.537,194.931 2.819,194.256 2.98,193.541 3.013,192.81 2.92,192.084 2.701,191.385 2.365,190.735 1.3820000000000001,189.657 0.766,189.262 0.09,188.98 -0.624,188.82 -1.355,188.786 -2.081,188.88 -2.7800000000000002,189.098 -5.775,189.726 -6.961,188.156 -5.537,185.447 -5.136,184.835 -4.847,184.162 -4.68,183.449 -4.638,182.71800000000002 -4.7250000000000005,181.991 -4.936,181.29 -5.704,180.05 -6.237,179.549 -6.849,179.147 -7.522,178.859 -8.235,178.691 -8.966,178.65 -9.693,178.736 -12.752,178.803 -13.629,177.041 -11.732000000000001,174.64000000000001 -11.225,174.112 -10.818,173.504 -10.522,172.834 -10.347,172.123 -10.298,171.393 -10.377,170.665 -10.904,169.305 -11.336,168.714 -11.864,168.207 -12.472,167.8 -13.142,167.504 -13.853,167.329 -14.584,167.28 -17.603,166.784 -18.142,164.891 -15.836,162.88 -15.24,162.453 -14.728,161.931 -14.314,161.327 -14.012,160.66 -13.829,159.951 -13.773,159.221 -14.041,157.787 -14.357000000000001,157.127 -14.783,156.531 -15.306000000000001,156.019 -15.91,155.605 -16.577,155.303 -17.286,155.121 -20.163,154.078 -20.345,152.118 -17.708000000000002,150.565 -17.045,150.255 -16.445,149.836 -15.927,149.318 -15.507,148.718 -15.198,148.055 -15.008000000000001,147.347 -15.008000000000001,145.889 -15.198,145.18200000000002 -15.507,144.518 -15.927,143.918 -16.445,143.401 -17.045,142.981 -17.708000000000002,142.671 -20.345,141.118 -20.163,139.15800000000002 -17.286,138.116 -16.577,137.934 -15.91,137.631 -15.306000000000001,137.217 -14.783,136.705 -14.357000000000001,136.11 -14.041,135.449 -13.773,134.01500000000001 -13.829,133.286 -14.012,132.576 -14.314,131.91 -14.728,131.306 -15.24,130.78300000000002 -15.836,130.357 -18.142,128.345 -17.603,126.452 -14.584,125.956 -13.853,125.907 -13.142,125.733 -12.472,125.437 -11.864,125.029 -11.336,124.522 -10.904,123.931 -10.377,122.571 -10.298,121.843 -10.347,121.113 -10.522,120.402 -10.818,119.732 -11.225,119.12400000000001 -11.732000000000001,118.596 -13.629,116.19500000000001 -12.752,114.433 -9.693,114.5 -8.966,114.587 -8.235,114.545 -7.522,114.378 -6.849,114.089 -6.237,113.688 -5.704,113.186 -4.936,111.946 -4.7250000000000005,111.245 -4.638,110.518 -4.68,109.787 -4.847,109.074 -5.136,108.402 -5.537,107.789 -6.961,105.081 -5.775,103.51 -2.7800000000000002,104.138 -2.081,104.357 -1.355,104.45 -0.624,104.416 0.09,104.256 0.766,103.974 1.3820000000000001,103.57900000000001 2.365,102.501 2.701,101.851 2.92,101.152 3.013,100.426 2.98,99.69500000000001 2.819,98.98100000000001 2.537,98.305 1.6360000000000001,95.381 3.09,94.055 5.9190000000000005,95.223 6.565,95.566 7.2620000000000005,95.791 7.987,95.892 8.719,95.866 9.435,95.71300000000001 10.113,95.438 11.277000000000001,94.559 11.727,93.982 12.07,93.33500000000001 12.296,92.638 12.397,91.913 12.371,91.182 12.218,90.46600000000001 11.868,87.426 13.542,86.389 16.108,88.057 16.68,88.513 17.323,88.863 18.018,89.096 18.742,89.20400000000001 19.474,89.185 20.191,89.04 21.497,88.39 22.045,87.905 22.501,87.33200000000001 22.851,86.68900000000001 23.084,85.995 23.192,85.271 23.173000000000002,84.539 23.389,81.486 25.224,80.775 27.44,82.886 27.919,83.44 28.487000000000002,83.901 29.126,84.258 29.818,84.498 30.541,84.614 31.273,84.602 32.676,84.203 33.304,83.827 33.858000000000004,83.348 34.32,82.78 34.676,82.141 34.916000000000004,81.449 35.032000000000004,80.726 35.804,77.765 37.739000000000004,77.403 39.529,79.885 39.898,80.517 40.372,81.07600000000001 40.935,81.543 41.571,81.906 42.26,82.153 42.982,82.277 44.434,82.142 45.121,81.888 45.753,81.519 46.311,81.045 46.779,80.482 47.142,79.846 47.389,79.157 48.692,76.388 50.661,76.388 51.964,79.157 52.211,79.846 52.574,80.482 53.041000000000004,81.045 53.6,81.519 54.232,81.888 54.918,82.142 56.371,82.277 57.093,82.153 57.782000000000004,81.906 58.418,81.543 58.981,81.07600000000001 59.454,80.517 59.824,79.885 61.614000000000004,77.403 63.548,77.765 64.321,80.726 64.437,81.449 64.677,82.141 65.033,82.78 65.495,83.348 66.048,83.827 66.677,84.203 68.08,84.602 68.812,84.614 69.535,84.498 70.226,84.258 70.866,83.901 71.434,83.44 71.913,82.886 74.129,80.775 75.964,81.486 76.179,84.539 76.16,85.271 76.269,85.995 76.502,86.68900000000001 76.851,87.33200000000001 77.307,87.905 77.856,88.39 79.162,89.04 79.879,89.185 80.611,89.20400000000001 81.33500000000001,89.096 82.029,88.863 82.672,88.513 83.245,88.057 85.811,86.389 87.48400000000001,87.426 87.135,90.46600000000001 86.982,91.182 86.956,91.913 87.057,92.638 87.282,93.33500000000001 87.626,93.982 88.07600000000001,94.559 89.24,95.438 89.918,95.71300000000001 90.634,95.866 91.366,95.892 92.09100000000001,95.791 92.787,95.566 93.434,95.223 96.263,94.055 97.717,95.381 96.815,98.305 96.533,98.98100000000001 96.373,99.69500000000001 96.339,100.426 96.433,101.152 96.651,101.851 96.988,102.501 97.97,103.57900000000001 98.587,103.974 99.262,104.256 99.977,104.416 100.708,104.45 101.434,104.357 102.133,104.138 105.128,103.51 106.31400000000001,105.081 104.89,107.789 104.489,108.402 104.2,109.074 104.032,109.787 103.991,110.518 104.077,111.245 104.289,111.946 105.056,113.186 105.59,113.688 106.202,114.089 106.875,114.378 107.58800000000001,114.545 108.318,114.587 109.045,114.5 112.105,114.433 112.982,116.19500000000001 111.08500000000001,118.596 110.578,119.12400000000001 110.17,119.732 109.875,120.402 109.7,121.113 109.651,121.843 109.73,122.571 110.257,123.931 110.68900000000001,124.522 111.217,125.029 111.825,125.437 112.495,125.733 113.206,125.907 113.936,125.956 116.956,126.452 117.494,128.345 115.188,130.357 114.593,130.78300000000002 114.081,131.306 113.667,131.91 113.364,132.576 113.182,133.286 113.126,134.01500000000001 113.394,135.449 113.71000000000001,136.11 114.136,136.705 114.659,137.217 115.263,137.631 115.93,137.934 116.639,138.116 119.516,139.15800000000002 119.697,141.118 117.061,142.671 116.397,142.981 115.798,143.401 115.28,143.918 114.86,144.518 114.551,145.18200000000002 114.361,145.889 104.668,145.626 103.385208984375,134.71560546875 100.076984375,124.56559375 94.957298828125,115.38997265625001 88.240125,107.40275 80.139435546875,100.81793359375 70.869203125,95.84953125 60.643400390625004,92.71155078125 49.676,91.618 49.676,91.618 38.591771484375,92.73539062500001 28.267796875000002,95.94012500000001 18.925267578125002,101.011046875 10.785375,107.727 4.069310546875,115.866828125 -1.001734375,125.20937500000001 -4.206568359375,135.533484375 -5.324,146.618 -5.324,146.618 -4.206568359375,157.702515625 -1.001734375,168.026625 4.069310546875,177.369171875 10.785375,185.50900000000001 18.925267578125002,192.224953125 28.267796875000002,197.295875 38.591771484375,200.500609375 49.676,201.618 49.676,201.618 60.592111328125,200.534765625 70.774828125,197.4256875 80.013224609375,192.501703125 88.096375,185.97375 94.813353515625,178.052765625 99.95323437500001,168.9496875 103.305091796875,158.875453125 104.658,148.041"/>
            <polyline fill="none" stroke="black" stroke-width="0.1" id="simplify_38_1" points="109.157,148.15800000000002 107.69333984375,159.87874804687502 104.06721875000001,170.777109375 98.50680078125,180.624884765625 91.24025,189.193875 82.49573046875,196.255880859375 72.50140625,201.582703125 61.485441406250004,204.946142578125 49.676,206.118 49.676,206.118 37.684658203125004,204.909173828125 26.515890625,201.442203125 16.408958984375,195.956349609375 7.603125,188.690875 0.337650390625,179.885041015625 -5.148203125,169.778109375 -8.615173828125,158.60934179687501 -9.824,146.618 -9.824,146.618 -8.615173828125,134.626658203125 -5.148203125,123.457890625 0.337650390625,113.350958984375 7.603125,104.545125 16.408958984375,97.27965039062501 26.515890625,91.793796875 37.684658203125004,88.326826171875 49.676,87.118 49.676,87.118 61.48478515625,88.28976953125 72.50028125,91.65296875 82.49432421875,96.97943359375 91.23875,104.041 98.50539453125,112.60950390625 104.06609375000001,122.45678125 107.69268359375,133.35466796875 109.157,145.07500000000002 109.157,145.07500000000002 109.1588828125,145.179650390625 109.161375,145.359828125 109.16424218750001,145.59037304687502 109.16725,145.846125 109.1701640625,146.101923828125 109.17275000000001,146.332609375 109.17477343750001,146.513021484375 109.176,146.618"/>
            <polyline fill="none" stroke="black" stroke-width="0.1" id="simplify_39_1" points="107.157,148.106 105.74269140625,159.432966796875 102.23853125000001,169.965109375 96.86504296875,179.48191601562502 89.84275,187.762875 81.39217578125,194.587474609375 71.73384375,199.735203125 61.08827734375,202.985548828125 49.676,204.118 49.676,204.118 38.0878515625,202.94983007812502 27.2945625,199.599453125 17.5273671875,194.298068359375 9.0175,187.276875 1.9961953125,178.76707226562502 -3.3053125,168.999859375 -6.6557890625,158.206435546875 -7.824,146.618 -7.824,146.618 -6.6557890625,135.0298515625 -3.3053125,124.2365625 1.9961953125,114.4693671875 9.0175,105.9595 17.5273671875,98.9381953125 27.2945625,93.63668750000001 38.0878515625,90.2862109375 49.676,89.118 49.676,89.118 61.087908203125004,90.250404296875 71.733140625,93.500609375 81.391208984375,98.648103515625 89.84162500000001,105.472375 96.863900390625,113.752912109375 102.237546875,123.269203125 105.742076171875,133.800736328125 107.157,145.127 107.157,145.127 107.1588828125,145.228185546875 107.161375,145.402296875 107.16424218750001,145.62504101562502 107.16725,145.872125 107.1701640625,146.11925585937502 107.17275000000001,146.342140625 107.17477343750001,146.516486328125 107.176,146.618"/>
            <polygon fill="none" stroke="black" stroke-width="0.1" id="simplify_40_1" points="135.54500000000002,145.668 126.058,145.829 125.700587890625,139.15807421875002 124.781765625,132.65165625 123.325779296875,126.33391015625 121.356875,120.229 118.899298828125,114.36108984375001 115.97729687500001,108.75434375 112.615115234375,103.43292578125 108.837,98.421 108.662,98.283 108.491154296875,98.086408203125 108.289359375,97.927515625 108.05922851562501,97.809146484375 107.803375,97.734125 107.524412109375,97.705275390625 107.224953125,97.725421875 106.907611328125,97.797388671875 106.575,97.924 106.575,97.924 103.64254687500001,99.752421875 100.812,101.7166875 98.081953125,103.814921875 95.45100000000001,106.04525 92.917734375,108.40579687500001 90.48075,110.8946875 88.13864062500001,113.510046875 85.89,116.25 85.89,116.25 84.07365234375,114.22783203125 82.14478125000001,112.31378125 80.10851953125,110.51302734375 77.97,108.83075000000001 75.73435546875,107.27212890625 73.40671875,105.84234375 70.99222265625001,104.54657421875 68.496,103.39 68.496,103.39 70.12631640625,100.35464453125 71.56090625,97.54984375000001 72.83298046875,94.91787109375001 73.97575,92.401 75.02242578125,89.94150390625 76.00621875,87.48165625 76.96033984375,84.96373046875 77.918,82.33 77.918,82.33 78.236115234375,81.09539062500001 78.314734375,79.8935 78.174517578125,78.748984375 77.836125,77.6865 77.320216796875,76.730703125 76.647453125,75.90625 75.838494140625,75.237796875 74.914,74.75 74.914,74.75 71.96254296875,73.795251953125 68.95996875,72.958640625 65.90897265625,72.242990234375 62.81225,71.65112500000001 59.67249609375,71.185869140625 56.49240625,70.850046875 53.274675781250004,70.646482421875 50.022,70.578 50.022,70.578 47.027326171875,70.635908203125 44.061984375,70.808203125 41.128119140625,71.092740234375 38.227875,71.487375 35.363396484375,71.989962890625 32.536828125,72.598359375 29.750314453125,73.310419921875 27.006,74.124 26.908,74.174 25.686218750000002,74.70259375 24.6706875,75.375 23.8615,76.17453125 23.25875,77.0845 22.86253125,78.08821875 22.6729375,79.169 22.6900625,80.31015625 22.914,81.495 22.914,81.495 23.7623203125,84.237248046875 24.8034375,87.010421875 26.0045859375,89.785916015625 27.333000000000002,92.53512500000001 28.7559140625,95.229443359375 30.2405625,97.840265625 31.754179687500002,100.338986328125 33.264,102.697 33.264,102.697 30.542646484375002,103.835623046875 27.911046875,105.136796875 25.375517578125,106.594228515625 22.942375000000002,108.201625 20.617935546875,109.952693359375 18.408515625,111.84114062500001 16.320431640625,113.860673828125 14.36,116.005 14.36,116.005 11.941777343750001,114.423107421875 9.57415625,112.806796875 7.25383203125,111.158869140625 4.9775,109.482125 2.74185546875,107.779365234375 0.54359375,106.053390625 -1.62058984375,104.307001953125 -3.754,102.543 -3.754,102.543 -4.26426171875,102.18582617187501 -4.79896875,101.943859375 -5.35012890625,101.819431640625 -5.90975,101.814875 -6.46983984375,101.932521484375 -7.02240625,102.17470312500001 -7.55945703125,102.543751953125 -8.073,103.042 -8.073,103.042 -8.761046875,103.97351953125 -9.4345625,104.91621875 -10.093359375,105.86993359375 -10.73725,106.8345 -11.366046875,107.80975390625001 -11.9795625,108.79553125 -12.577609375,109.79166796875 -13.16,110.798 -13.16,110.798 -13.331068359375001,111.260546875 -13.449296875,111.751875 -13.511720703125,112.268515625 -13.515375,112.807 -13.457294921875,113.363859375 -13.334515625,113.935625 -13.144072265625,114.518828125 -12.883000000000001,115.11 -1.266,138.31900000000002 -1.2650000000000001,138.322 -0.81714453125,139.271513671875 -0.42284375,140.24979687500002 -0.08399609375,141.254962890625 0.1975,142.285125 0.41974609375,143.338396484375 0.58084375,144.41289062500002 0.67889453125,145.506720703125 0.712,146.618 0.712,146.618 0.67889453125,147.72956640625 0.58084375,148.82353125 0.41974609375,149.89804296875 0.1975,150.95125000000002 -0.08399609375,151.98130078125 -0.42284375,152.98634375 -0.81714453125,153.96452734375 -1.2650000000000001,154.91400000000002 -1.266,154.917 -12.883000000000001,178.126 -13.144072265625,178.717171875 -13.334515625,179.300375 -13.457294921875,179.87214062500001 -13.515375,180.429 -13.511720703125,180.967484375 -13.449296875,181.484125 -13.331068359375001,181.975453125 -13.16,182.43800000000002 -13.16,182.43800000000002 -12.577609375,183.44466015625 -11.9795625,184.44103125 -11.366046875,185.42694921875 -10.73725,186.40225 -10.093359375,187.36676953125001 -9.4345625,188.32034375 -8.761046875,189.26280859375 -8.073,190.19400000000002 -8.073,190.19400000000002 -7.55945703125,190.6922890625 -7.02240625,191.0614375 -6.46983984375,191.3037421875 -5.90975,191.4215 -5.35012890625,191.4170078125 -4.79896875,191.2925625 -4.26426171875,191.0504609375 -3.754,190.693 -3.754,190.693 -1.62058984375,188.9290390625 0.54359375,187.18275 2.74185546875,185.4568984375 4.9775,183.75425 7.25383203125,182.0775703125 9.57415625,180.42962500000002 11.941777343750001,178.8131796875 14.36,177.231 14.36,177.231 16.320431640625,179.37561328125 18.408515625,181.39528125 20.617935546875,183.28374609375 22.942375000000002,185.03475 25.375517578125,186.64203515625002 27.911046875,188.09934375 30.542646484375002,189.40041796875 33.264,190.53900000000002 33.264,190.53900000000002 31.754179687500002,192.897015625 30.2405625,195.39575 28.7559140625,198.006609375 27.333000000000002,200.701 26.0045859375,203.450328125 24.8034375,206.226 23.7623203125,208.999421875 22.914,211.742 22.914,211.742 22.6900625,212.92680078125 22.6729375,214.06784375 22.86253125,215.14846484375 23.25875,216.15200000000002 23.8615,217.06178515625 24.6706875,217.86115625 25.686218750000002,218.53344921875 26.908,219.062 27.006,219.113 29.750314453125,219.926580078125 32.536828125,220.638640625 35.363396484375,221.24703710937501 38.227875,221.749625 41.128119140625,222.144259765625 44.061984375,222.42879687500002 47.027326171875,222.601091796875 50.022,222.659 50.022,222.659 53.274675781250004,222.590474609375 56.49240625,222.38679687500002 59.67249609375,222.050814453125 62.81225,221.585375 65.90897265625,220.993326171875 68.95996875,220.277515625 71.96254296875,219.440791015625 74.914,218.48600000000002 74.914,218.48600000000002 75.838494140625,217.9984921875 76.647453125,217.3301875 77.320216796875,216.5057890625 77.836125,215.55 78.174517578125,214.48752343750002 78.314734375,213.3430625 78.236115234375,212.1413203125 77.918,210.907 77.918,210.907 76.96033984375,208.27298046875 76.00621875,205.75490625 75.02242578125,203.29500390625 73.97575,200.8355 72.83298046875,198.31862109375 71.56090625,195.68659375000001 70.12631640625,192.88164453125 68.496,189.846 68.496,189.846 70.99222265625001,188.689712890625 73.40671875,187.394078125 75.73435546875,185.964310546875 77.97,184.40562500000001 80.10851953125,182.723236328125 82.14478125000001,180.922359375 84.07365234375,179.00820898437502 85.89,176.986 85.89,176.986 88.13864062500001,179.726240234375 90.48075,182.34173437500002 92.917734375,184.830642578125 95.45100000000001,187.191125 98.081953125,189.421341796875 100.812,191.519453125 103.64254687500001,193.483619140625 106.575,195.312 106.575,195.312 106.907611328125,195.4388984375 107.224953125,195.511 107.524412109375,195.5311640625 107.803375,195.50225 108.05922851562501,195.42711718750002 108.289359375,195.308625 108.491154296875,195.14963281250002 108.662,194.953 108.837,194.815 112.62487890625,189.789046875 115.99446875,184.4519375 118.92132421875,178.828046875 121.381,172.94175 123.34905078125,166.817421875 124.80103125000001,160.47943750000002 125.71249609375,153.952171875 126.059,147.26 137.34,147.558 147.454,150.644 147.103,151.287 146.87,151.981 146.778,153.436 146.923,154.154 147.19,154.836 147.571,155.46 148.056,156.01 148.62800000000001,156.466 149.27100000000002,156.817 151.804,158.53300000000002 151.57,160.39000000000001 148.689,161.422 147.979,161.602 147.311,161.90200000000002 146.706,162.31300000000002 146.181,162.824 145.75300000000001,163.417 145.434,164.077 145.161,165.50900000000001 145.214,166.239 145.394,166.949 145.69400000000002,167.617 146.105,168.223 146.616,168.747 147.21,169.17600000000002 149.508,171.195 149.043,173.00900000000001 146.055,173.672 145.329,173.761 144.629,173.975 143.976,174.30700000000002 143.392,174.748 142.892,175.28300000000002 142.494,175.897 142.043,177.285 142.005,178.016 142.094,178.742 142.308,179.442 142.64000000000001,180.095 143.081,180.679 143.616,181.179 145.644,183.471 144.954,185.21200000000002 141.907,185.494 141.175,185.492 140.454,185.617 139.76500000000001,185.864 139.13,186.228 138.567,186.697 138.095,187.256 137.474,188.576 137.344,189.297 137.341,190.029 137.466,190.75 137.714,191.439 138.078,192.074 138.547,192.637 140.27100000000002,195.165 139.369,196.805 136.31,196.704 135.584,196.61 134.853,196.643 134.138,196.803 133.463,197.084 132.846,197.479 132.30700000000002,197.97400000000002 131.525,199.20600000000002 131.306,199.904 131.212,200.63 131.245,201.362 131.405,202.076 131.686,202.752 132.081,203.369 133.475,206.09300000000002 132.374,207.608 129.352,207.124 128.644,206.94 127.914,206.881 127.185,206.95000000000002 126.48,207.144 125.818,207.458 125.221,207.882 124.292,209.006 123.98700000000001,209.672 123.802,210.38 123.744,211.11 123.813,211.839 124.007,212.54500000000002 124.321,213.20600000000002 125.36200000000001,216.084 124.081,217.448 121.144,216.59 120.464,216.318 119.747,216.168 119.015,216.145 118.291,216.25 117.595,216.478 116.95,216.824 115.887,217.823 115.501,218.445 115.229,219.125 115.07900000000001,219.841 115.056,220.573 115.161,221.298 115.389,221.993 116.062,224.978 114.619,226.172 111.813,224.952 111.173,224.597 110.48,224.359 109.757,224.244 109.025,224.257 108.307,224.397 107.623,224.659 106.443,225.516 105.982,226.085 105.627,226.726 105.389,227.418 105.275,228.141 105.287,228.87300000000002 105.427,229.592 105.72,232.638 104.139,233.641 101.508,232.079 100.917,231.64600000000002 100.26,231.323 99.557,231.119 98.82900000000001,231.04 98.099,231.088 97.388,231.263 96.11,231.966 95.581,232.472 95.149,233.06300000000002 94.82600000000001,233.72 94.621,234.423 94.542,235.151 94.59100000000001,235.881 94.5,238.94 92.806,239.737 90.391,237.858 89.85900000000001,237.35500000000002 89.248,236.952 88.57600000000001,236.661 87.864,236.491 87.133,236.448 86.405,236.532 85.049,237.06900000000002 84.462,237.506 83.959,238.038 83.556,238.649 83.265,239.321 83.095,240.03300000000002 83.052,240.764 82.578,243.787 80.797,244.365 78.637,242.198 78.172,241.632 77.617,241.156 76.986,240.78300000000002 76.301,240.526 75.58200000000001,240.391 74.849,240.383 73.437,240.746 72.799,241.10500000000002 72.233,241.57 71.757,242.126 71.384,242.756 71.126,243.441 70.992,244.161 70.143,247.101 68.304,247.452 66.432,245.031 66.042,244.411 65.55,243.869 64.97200000000001,243.42000000000002 64.324,243.079 63.627,242.85500000000002 62.902,242.756 61.455,242.93800000000002 60.777,243.215 60.157000000000004,243.60500000000002 59.615,244.097 59.166000000000004,244.675 58.825,245.323 58.601,246.02 57.39,248.83 55.522,248.948 53.968,246.312 53.659,245.648 53.239000000000004,245.048 52.721000000000004,244.531 52.122,244.11100000000002 51.458,243.80100000000002 50.751,243.612 49.292,243.612 48.585,243.80100000000002 47.922000000000004,244.11100000000002 47.322,244.531 46.804,245.048 46.384,245.648 46.075,246.312 44.522,248.948 42.653,248.83100000000002 41.442,246.02 41.219,245.323 40.877,244.675 40.428000000000004,244.097 39.886,243.60500000000002 39.266,243.215 38.589,242.93800000000002 37.142,242.756 36.416000000000004,242.85500000000002 35.719,243.079 35.072,243.42000000000002 34.493,243.869 34.001,244.411 33.611000000000004,245.031 31.740000000000002,247.452 29.900000000000002,247.101 29.052,244.161 28.917,243.441 28.659,242.756 28.287,242.126 27.810000000000002,241.57 27.245,241.10500000000002 26.607,240.746 25.194,240.383 24.462,240.391 23.742,240.526 23.057000000000002,240.78300000000002 22.427,241.156 21.871000000000002,241.632 21.406,242.198 19.246,244.365 17.465,243.787 16.992,240.764 16.948,240.03300000000002 16.778,239.321 16.488,238.649 16.085,238.038 15.582,237.506 14.994,237.06900000000002 13.638,236.532 12.91,236.448 12.18,236.491 11.468,236.661 10.796,236.952 10.184000000000001,237.35500000000002 9.652000000000001,237.858 7.238,239.737 5.5440000000000005,238.94 5.452,235.882 5.501,235.151 5.422,234.423 5.218,233.72 4.894,233.06300000000002 4.462,232.472 3.934,231.966 2.6550000000000002,231.263 1.945,231.088 1.214,231.04 0.486,231.119 -0.217,231.323 -0.874,231.64600000000002 -1.465,232.079 -4.096,233.641 -5.6770000000000005,232.638 -5.384,229.592 -5.244,228.87300000000002 -5.231,228.141 -5.346,227.418 -5.5840000000000005,226.726 -5.939,226.085 -6.4,225.516 -7.58,224.659 -8.263,224.397 -8.982,224.257 -9.714,224.244 -10.437,224.359 -11.129,224.597 -11.77,224.952 -14.576,226.172 -16.019000000000002,224.978 -15.346,221.993 -15.118,221.298 -15.013,220.573 -15.036,219.841 -15.186,219.125 -15.458,218.445 -15.843,217.823 -16.907,216.824 -17.552,216.478 -18.247,216.25 -18.972,216.145 -19.704,216.168 -20.42,216.318 -21.1,216.59 -24.037,217.448 -25.319,216.084 -24.278000000000002,213.20600000000002 -23.964000000000002,212.54500000000002 -23.769000000000002,211.839 -23.7,211.11 -23.759,210.38 -23.944,209.672 -24.248,209.006 -25.178,207.882 -25.775000000000002,207.458 -26.436,207.144 -27.142,206.95000000000002 -27.871000000000002,206.881 -28.601,206.94 -29.309,207.124 -32.331,207.608 -33.431,206.09300000000002 -32.038000000000004,203.369 -31.643,202.752 -31.362000000000002,202.076 -31.202,201.362 -31.169,200.63 -31.263,199.904 -31.482,199.20600000000002 -32.264,197.97400000000002 -32.803,197.479 -33.419000000000004,197.084 -34.095,196.803 -34.81,196.643 -35.541000000000004,196.61 -36.267,196.704 -39.325,196.805 -40.227000000000004,195.165 -38.503,192.637 -38.035000000000004,192.074 -37.671,191.439 -37.423,190.75 -37.298,190.029 -37.301,189.296 -37.43,188.576 -38.051,187.256 -38.524,186.697 -39.086,186.228 -39.722,185.865 -40.411,185.616 -41.132,185.492 -41.864000000000004,185.494 -44.911,185.21200000000002 -45.6,183.471 -43.573,181.179 -43.037,180.679 -42.597,180.095 -42.264,179.442 -42.050000000000004,178.742 -41.961,178.016 -41.999,177.285 -42.45,175.897 -42.849000000000004,175.28300000000002 -43.348,174.748 -43.933,174.30700000000002 -44.585,173.975 -45.285000000000004,173.761 -46.012,173.672 -48.999,173.00900000000001 -49.465,171.195 -47.166000000000004,169.17600000000002 -46.573,168.747 -46.062,168.223 -45.651,167.617 -45.351,166.949 -45.171,166.239 -45.117000000000004,165.50900000000001 -45.391,164.077 -45.709,163.417 -46.138,162.824 -46.662,162.31300000000002 -47.268,161.90200000000002 -47.936,161.602 -48.646,161.422 -51.526,160.39000000000001 -51.761,158.53300000000002 -49.227000000000004,156.817 -48.584,156.466 -48.012,156.01 -47.528,155.46 -47.147,154.836 -46.88,154.154 -46.735,153.436 -46.826,151.981 -47.06,151.287 -47.410000000000004,150.644 -47.867000000000004,150.072 -48.416000000000004,149.588 -49.041000000000004,149.20600000000002 -49.723,148.939 -52.452,147.554 -52.452,145.68200000000002 -49.723,144.297 -49.041000000000004,144.03 -48.416000000000004,143.649 -47.867000000000004,143.165 -47.410000000000004,142.592 -47.06,141.95000000000002 -46.826,141.256 -46.735,139.8 -46.88,139.082 -47.147,138.401 -47.528,137.776 -48.012,137.227 -48.585,136.77 -49.227000000000004,136.419 -51.761,134.704 -51.526,132.846 -48.645,131.814 -47.936,131.635 -47.268,131.335 -46.662,130.923 -46.138,130.413 -45.709,129.81900000000002 -45.391,129.16 -45.117000000000004,127.727 -45.171,126.997 -45.351,126.287 -45.651,125.619 -46.062,125.014 -46.573,124.489 -47.166000000000004,124.061 -49.465,122.041 -48.999,120.227 -46.012,119.565 -45.285000000000004,119.47500000000001 -44.585,119.261 -43.933,118.929 -43.348,118.488 -42.849000000000004,117.953 -42.45,117.339 -41.999,115.952 -41.961,115.221 -42.050000000000004,114.494 -42.264,113.794 -42.597,113.142 -43.037,112.557 -43.573,112.058 -45.6,109.766 -44.911,108.025 -41.864000000000004,107.742 -41.132,107.744 -40.411,107.62 -39.722,107.372 -39.086,107.008 -38.524,106.539 -38.051,105.98 -37.43,104.66 -37.301,103.94 -37.298,103.208 -37.423,102.486 -37.671,101.797 -38.035000000000004,101.162 -38.503,100.60000000000001 -40.227000000000004,98.072 -39.325,96.431 -36.267,96.532 -35.541000000000004,96.626 -34.81,96.593 -34.095,96.433 -33.419000000000004,96.152 -32.803,95.758 -32.264,95.262 -31.482,94.031 -31.263,93.33200000000001 -31.169,92.60600000000001 -31.202,91.875 -31.362000000000002,91.16 -31.643,90.48400000000001 -32.038000000000004,89.867 -33.431,87.143 -32.331,85.628 -29.309,86.112 -28.601,86.297 -27.871000000000002,86.355 -27.142,86.287 -26.436,86.092 -25.775000000000002,85.778 -25.178,85.354 -24.248,84.23 -23.944,83.56400000000001 -23.759,82.85600000000001 -23.7,82.126 -23.769000000000002,81.397 -23.964000000000002,80.69200000000001 -24.278000000000002,80.03 -25.319,77.153 -24.037,75.788 -21.1,76.646 -20.42,76.918 -19.704,77.068 -18.972,77.09100000000001 -18.247,76.987 -17.552,76.758 -16.907,76.412 -15.843,75.414 -15.458,74.791 -15.186,74.112 -15.036,73.395 -15.013,72.663 -15.118,71.93900000000001 -15.346,71.243 -16.019000000000002,68.258 -14.576,67.06400000000001 -11.77,68.284 -11.129,68.639 -10.437,68.878 -9.714,68.992 -8.982,68.979 -8.263,68.84 -7.58,68.577 -6.4,67.72 -5.939,67.151 -5.5840000000000005,66.511 -5.346,65.818 -5.231,65.095 -5.244,64.363 -5.384,63.645 -5.6770000000000005,60.599000000000004 -4.096,59.595 -1.465,61.157000000000004 -0.874,61.59 -0.217,61.913000000000004 0.486,62.117000000000004 1.214,62.196 1.944,62.148 2.6550000000000002,61.973 3.934,61.271 4.462,60.764 4.894,60.173 5.218,59.516 5.422,58.813 5.501,58.085 5.453,57.355000000000004 5.5440000000000005,54.296 7.238,53.499 9.652000000000001,55.378 10.184000000000001,55.881 10.796,56.284 11.468,56.575 12.18,56.745000000000005 12.911,56.788000000000004 13.638,56.704 14.994,56.167 15.582,55.731 16.085,55.199 16.488,54.588 16.779,53.916000000000004 16.948,53.204 16.992,52.473 17.465,49.45 19.246,48.871 21.406,51.038000000000004 21.871000000000002,51.604 22.427,52.08 23.057000000000002,52.453 23.742,52.711 24.462,52.845 25.194,52.853 26.607,52.49 27.245,52.131 27.810000000000002,51.666000000000004 28.287,51.11 28.659,50.480000000000004 28.917,49.795 29.052,49.075 29.900000000000002,46.135 31.740000000000002,45.785000000000004 33.611000000000004,48.205 34.001,48.825 34.493,49.367000000000004 35.071,49.816 35.719,50.157000000000004 36.416000000000004,50.381 37.142,50.481 38.589,50.298 39.267,50.021 39.886,49.631 40.428000000000004,49.139 40.877,48.561 41.219,47.913000000000004 41.442,47.216 42.653,44.406 44.522,44.288000000000004 46.075,46.925000000000004 46.384,47.588 46.804,48.188 47.322,48.706 47.922000000000004,49.126 48.585,49.435 49.292,49.624 50.751,49.624 51.458,49.435 52.122,49.126 52.721000000000004,48.706 53.239000000000004,48.188 53.659,47.588 53.968,46.925000000000004 55.522,44.288000000000004 57.39,44.406 58.601,47.216 58.825,47.913000000000004 59.166000000000004,48.561 59.615,49.139 60.157000000000004,49.631 60.777,50.021 61.455,50.298 62.902,50.481 63.627,50.381 64.324,50.158 64.97200000000001,49.816 65.55,49.367000000000004 66.042,48.825 66.432,48.206 68.304,45.784 70.143,46.135 70.992,49.075 71.126,49.795 71.384,50.480000000000004 71.757,51.11 72.233,51.666000000000004 72.799,52.131 73.437,52.49 74.849,52.853 75.581,52.845 76.301,52.711 76.986,52.453 77.617,52.08 78.172,51.604 78.637,51.038000000000004 80.797,48.871 82.578,49.449 83.052,52.473 83.095,53.204 83.265,53.916000000000004 83.556,54.588 83.959,55.199 84.462,55.731 85.049,56.167 86.405,56.704 87.133,56.788000000000004 87.864,56.745000000000005 88.57600000000001,56.575 89.248,56.284 89.85900000000001,55.881 90.391,55.378 92.806,53.499 94.5,54.296 94.59100000000001,57.355000000000004 94.542,58.085 94.621,58.813 94.82600000000001,59.516 95.149,60.173 95.581,60.764 96.11,61.271 97.388,61.973 98.099,62.148 98.82900000000001,62.196 99.557,62.117000000000004 100.26,61.913000000000004 100.917,61.59 101.508,61.157000000000004 104.139,59.595 105.72,60.599000000000004 105.427,63.645 105.287,64.363 105.275,65.095 105.389,65.818 105.627,66.511 105.982,67.151 106.443,67.72 107.623,68.577 108.307,68.84 109.025,68.979 109.757,68.992 110.48,68.878 111.173,68.639 111.813,68.284 114.619,67.06400000000001 116.062,68.258 115.389,71.243 115.161,71.93900000000001 115.056,72.663 115.07900000000001,73.395 115.229,74.112 115.501,74.791 115.887,75.414 116.95,76.412 117.595,76.758 118.291,76.987 119.015,77.09100000000001 119.747,77.068 120.464,76.918 121.144,76.646 124.081,75.788 125.36200000000001,77.153 124.321,80.03 124.007,80.691 123.813,81.397 123.744,82.126 123.802,82.85600000000001 123.98700000000001,83.56400000000001 124.292,84.23 125.22200000000001,85.354 125.818,85.778 126.48,86.092 127.185,86.287 127.914,86.355 128.644,86.297 129.352,86.112 132.374,85.628 133.475,87.143 132.081,89.867 131.686,90.48400000000001 131.405,91.16 131.245,91.875 131.212,92.60600000000001 131.306,93.33200000000001 131.525,94.031 132.30700000000002,95.262 132.846,95.758 133.463,96.152 134.139,96.433 134.853,96.593 135.584,96.626 136.31,96.532 139.369,96.431 140.27100000000002,98.072 138.547,100.60000000000001 138.078,101.162 137.714,101.797 137.466,102.486 137.341,103.208 137.344,103.94 137.474,104.66 138.095,105.98 138.567,106.539 139.13,107.008 139.76500000000001,107.372 140.454,107.62 141.175,107.744 141.907,107.742 144.954,108.025 145.644,109.766 143.616,112.058 143.081,112.557 142.64000000000001,113.142 142.308,113.794 142.094,114.494 142.004,115.221 142.043,115.952 142.494,117.339 142.892,117.953 143.392,118.488 143.976,118.929 144.629,119.261 145.329,119.476 146.055,119.565 149.043,120.227 149.508,122.041 147.21,124.061 146.616,124.489 146.105,125.014 145.69400000000002,125.619 145.394,126.287 145.214,126.997 145.161,127.727 145.434,129.16 145.75300000000001,129.81900000000002 146.181,130.413 146.706,130.923 147.311,131.335 147.979,131.635 148.689,131.814 151.57,132.846 151.804,134.704 149.27100000000002,136.419 148.62800000000001,136.77 148.056,137.227 147.571,137.776 147.19,138.401 146.923,139.082 146.778,139.8 146.87,141.256 147.103,141.95000000000002 135.54500000000002,145.668"/>
            <polyline fill="none" stroke="black" stroke-width="0.1" id="simplify_41_1" points="145.647,150.89000000000001 143.006267578125,169.4280625 136.99589062500002,186.6444375 127.970349609375,202.18465625000002 116.284125,215.69425 102.291697265625,226.81875 86.347546875,235.2036875 68.80615429687501,240.49459375 50.022,242.33700000000002 50.022,242.33700000000002 30.730994140625,240.392365234375 12.763328125000001,234.815046875 -3.496095703125,225.989923828125 -17.662375,214.301875 -29.350607421875,200.135779296875 -38.175890625,183.876515625 -43.753322265625,165.908962890625 -45.698,146.618 -45.698,146.618 -43.753322265625,127.32732421875001 -38.175890625,109.35990625000001 -29.350607421875,93.10066015625 -17.662375,78.9345 -3.496095703125,67.24633984375001 12.763328125000001,58.421093750000004 30.730994140625,52.84367578125 50.022,50.899 50.022,50.899 68.450205078125,52.671298828125 85.69032812500001,57.765453125 101.408255859375,65.847349609375 115.269875,76.582875 126.941072265625,89.637916015625 136.087734375,104.678359375 142.375748046875,121.370091796875 145.471,139.379"/>
            <g id="simplify_42_1">
                <polyline fill="none" stroke="black" stroke-width="0.1" id="simplify_42___0" points="131.923,148.371 131.533208984375,154.845943359375 130.651171875,161.175796875 129.296142578125,167.341470703125 127.487375,173.32387500000002 125.244123046875,179.103919921875 122.585640625,184.662515625 119.53118164062501,189.980572265625 116.10000000000001,195.03900000000002 116.10000000000001,195.03900000000002 115.392189453125,195.7702734375 114.578828125,196.350375 113.678771484375,196.7752265625 112.710875,197.04075 111.69399414062501,197.1428671875 110.646984375,197.07750000000001 109.588701171875,196.8405703125 108.538,196.428 108.538,196.428 105.299345703125,194.54153515625 102.18070312500001,192.49496875 99.180302734375,190.29066796875 96.296375,187.931 93.527150390625,185.41833203125 90.870859375,182.75503125 88.325732421875,179.94346484375 85.89,176.986"/>
                <polyline fill="none" stroke="black" stroke-width="0.1" id="simplify_42___1" points="68.618,189.793 70.494607421875,192.68548046875 72.343546875,195.65359375 74.151119140625,198.71259765625 75.903625,201.87775 77.587365234375,205.16430859375 79.188640625,208.58753125 80.693751953125,212.16267578125002 82.089,215.905 82.089,215.905 82.40731640625,217.1569296875 82.48021875,218.33925 82.32676171875,219.4403828125 81.96600000000001,220.44875000000002 81.41698828125,221.3527734375 80.69878125,222.140875 79.83043359375,222.8014765625 78.831,223.323 78.831,223.323 75.43589648437501,224.514353515625 71.974546875,225.559140625 68.450642578125,226.453576171875 64.867875,227.193875 61.229935546875,227.776251953125 57.540515625000005,228.19692187500002 53.803306640625,228.452099609375 50.022,228.538 50.022,228.538 46.337494140625004,228.4566328125 42.694765625,228.2148125 39.097248046875,227.8159609375 35.548375,227.2635 32.051580078125,226.5608515625 28.610296875,225.71143750000002 25.227958984375,224.7186796875 21.908,223.586 21.908,223.586 20.760298828125002,223.028515625 19.785203125,222.3318125 18.994724609375,221.510515625 18.400875,220.57925 18.015666015625,219.552640625 17.851109375,218.4453125 17.919216796875002,217.271890625 18.232,216.047 18.232,216.047 19.519255859375,212.686306640625 20.956546875,209.46882812500002 22.552158203125,206.347091796875 24.314375000000002,203.273625 26.251482421875,200.200955078125 28.371765625000002,197.081609375 30.683509765625,193.868115234375 33.195,190.513"/>
                <polyline fill="none" stroke="black" stroke-width="0.1" id="simplify_42___2" points="14.359,177.23 10.94433984375,179.474890625 7.6264062500000005,181.7841875 4.39926953125,184.15395312500002 1.2570000000000001,186.58025 -1.80633203125,189.059140625 -4.79665625,191.5866875 -7.71990234375,194.158953125 -10.582,196.772 -10.582,196.772 -11.11013671875,197.14261914062502 -11.674156250000001,197.408015625 -12.26222265625,197.558498046875 -12.8625,197.584375 -13.46315234375,197.475955078125 -14.05234375,197.223546875 -14.618238281250001,196.817458984375 -15.149000000000001,196.248 -15.155000000000001,196.244 -16.12871484375,194.940607421875 -17.07709375,193.617421875 -17.99973828125,192.274806640625 -18.896250000000002,190.913125 -19.76623046875,189.532740234375 -20.60928125,188.13401562500002 -21.42500390625,186.717314453125 -22.213,185.28300000000002 -22.234,185.14600000000002 -22.412746093750002,184.80896484375 -22.57215625,184.41509375 -22.69373828125,183.97448828125002 -22.759,183.49725 -22.74944921875,182.99348046875 -22.64659375,182.47328125 -22.43194140625,181.94675390625 -22.087,181.424 -3.6830000000000003,158.53900000000002 -3.682,158.536 -2.706802734375,157.289431640625 -1.839921875,155.960140625 -1.088048828125,154.554748046875 -0.45787500000000003,153.07987500000002 0.043908203125,151.542142578125 0.410609375,149.948171875 0.635537109375,148.304583984375 0.712,146.618 0.712,146.618 0.635537109375,144.931703125 0.410609375,143.28825 0.043908203125,141.694296875 -0.45787500000000003,140.1565 -1.088048828125,138.681515625 -1.839921875,137.276 -2.706802734375,135.946609375 -3.682,134.7 -3.6830000000000003,134.697 -22.087,111.812 -22.43194140625,111.289287109375 -22.64659375,110.762859375 -22.74944921875,110.242783203125 -22.759,109.739125 -22.69373828125,109.261951171875 -22.57215625,108.82132812500001 -22.412746093750002,108.42732226562501 -22.234,108.09 -22.213,107.953 -21.42500390625,106.5187265625 -20.60928125,105.102125 -19.76623046875,103.7035234375 -18.896250000000002,102.32325 -17.99973828125,100.9616328125 -17.07709375,99.619 -16.12871484375,98.2956796875 -15.155000000000001,96.992 -15.149000000000001,96.989 -14.618238281250001,96.419498046875 -14.05234375,96.01329687500001 -13.46315234375,95.760728515625 -12.8625,95.652125 -12.26222265625,95.677818359375 -11.674156250000001,95.828140625 -11.11013671875,96.093423828125 -10.582,96.464 -10.582,96.464 -7.71990234375,99.07704687500001 -4.79665625,101.64931250000001 -1.80633203125,104.176859375 1.2570000000000001,106.65575 4.39926953125,109.082046875 7.6264062500000005,111.4518125 10.94433984375,113.761109375 14.359,116.006"/>
                <polyline fill="none" stroke="black" stroke-width="0.1" id="simplify_42___3" points="33.195,102.724 30.683509765625,99.368556640625 28.371765625000002,96.15482812500001 26.251482421875,93.035341796875 24.314375000000002,89.962625 22.552158203125,86.889205078125 20.956546875,83.767609375 19.519255859375,80.55036523437501 18.232,77.19 18.232,77.19 17.919216796875002,75.96477929687501 17.851109375,74.791109375 18.015666015625,73.683603515625 18.400875,72.656875 18.994724609375,71.725537109375 19.785203125,70.904203125 20.760298828125002,70.207486328125 21.908,69.65 21.908,69.65 25.227958984375,68.5173203125 28.610296875,67.5245625 32.051580078125,66.6751484375 35.548375,65.9725 39.097248046875,65.4200390625 42.694765625,65.0211875 46.337494140625004,64.7793671875 50.022,64.69800000000001 50.022,64.69800000000001 53.803306640625,64.78394140625001 57.540515625000005,65.03921875 61.229935546875,65.46001171875 64.867875,66.0425 68.450642578125,66.78286328125 71.974546875,67.67728125000001 75.43589648437501,68.72193359375 78.831,69.913 78.831,69.913 79.83043359375,70.434810546875 80.69878125,71.095546875 81.41698828125,71.883666015625 81.96600000000001,72.787625 82.32676171875,73.795880859375 82.48021875,74.896890625 82.40731640625,76.079111328125 82.089,77.331 82.089,77.331 80.693751953125,81.0733671875 79.188640625,84.648625 77.587365234375,88.0720078125 75.903625,91.35875 74.151119140625,94.5240859375 72.343546875,97.58325 70.494607421875,100.5514765625 68.618,103.444"/>
                <polyline fill="none" stroke="black" stroke-width="0.1" id="simplify_42___4" points="85.89,116.25 88.325732421875,113.292576171875 90.870859375,110.481109375 93.527150390625,107.817931640625 96.296375,105.305375 99.180302734375,102.945771484375 102.18070312500001,100.741453125 105.299345703125,98.694751953125 108.538,96.808 108.538,96.808 109.588701171875,96.39575781250001 110.646984375,96.1590625 111.69399414062501,96.0938359375 112.710875,96.196 113.678771484375,96.4614765625 114.578828125,96.8861875 115.392189453125,97.4660546875 116.10000000000001,98.197 116.10000000000001,98.197 119.53188085937501,103.256640625 122.586921875,108.5760625 125.245845703125,114.136140625 127.48937500000001,119.91775 129.298232421875,125.901765625 130.653140625,132.0690625 131.534822265625,138.400515625 131.924,144.877"/>
            </g>
            <polygon fill="none" stroke="black" stroke-width="0.1" id="simplify_43_1" points="68.618,103.444 71.0957734375,104.599607421875 73.4925,105.89254687500001 75.8031640625,107.317744140625 78.02275,108.870125 80.14624218750001,110.544615234375 82.168625,112.336140625 84.0848828125,114.239626953125 85.89,116.25 85.89,116.25 83.986,119.12700000000001 83.411943359375,120.16908203125 83.120671875,121.10890625 83.091783203125,121.94058984375 83.304875,122.65825000000001 83.73954492187501,123.25600390625 84.37539062500001,123.72796875 85.192009765625,124.06826171875001 86.169,124.271 74.70100000000001,146.618 86.169,168.965 85.192009765625,169.167740234375 84.37539062500001,169.508046875 83.73954492187501,169.980048828125 83.304875,170.577875 83.091783203125,171.295654296875 83.120671875,172.127515625 83.411943359375,173.067587890625 83.986,174.11 85.89,176.986 85.89,176.986 84.08512890625,178.996375 82.16890625,180.899875 80.14641796875,182.6914375 78.02275,184.366 75.80298828125,185.9185 73.49221875,187.343875 71.09552734375,188.6370625 68.618,189.793 68.618,189.793 59.377,178.214 58.6037734375,177.4414296875 57.73075,176.908625 56.7712890625,176.5895703125 55.73875,176.45825 54.6464921875,176.4886484375 53.507875,176.65475 52.3362578125,176.9305390625 51.145,177.29 49.676,146.618 50.022,146.618 51.145,115.946 52.3362578125,116.30546289062501 53.507875,116.581265625 54.6464921875,116.747404296875 55.73875,116.77787500000001 56.7712890625,116.646673828125 57.73075,116.327796875 58.6037734375,115.795240234375 59.377,115.023 68.618,103.444 68.618,103.444"/>
            <polygon fill="none" stroke="black" stroke-width="0.1" id="simplify_44_1" points="226.522,166.618 230.552498046875,166.21168359375 234.306609375,165.04634375 237.703884765625,163.20239453125 240.66387500000002,160.76025 243.106130859375,157.80032421875 244.950203125,154.40303125 246.115642578125,150.64878515625 246.522,146.618 246.522,146.579 246.522,145.099 246.522,142.013 246.522,141.979 246.522,138.995 246.522,138.985 246.522,138.976 246.522,138.93 246.52100000000002,138.929 246.261732421875,136.453248046875 245.539046875,134.147359375 244.401869140625,132.060259765625 242.899125,130.24087500000002 241.079740234375,128.738130859375 238.992640625,127.600953125 236.686751953125,126.878267578125 234.211,126.619 234.21,126.61800000000001 234.16400000000002,126.61800000000001 234.154,126.61800000000001 234.145,126.61800000000001 231.161,126.61800000000001 231.127,126.61800000000001 227.243,126.61800000000001 226.561,126.61800000000001 226.522,126.61800000000001 218.3505390625,126.76705859375001 207.560875,127.08803125 194.6149609375,127.48048828125 179.97475,127.84400000000001 164.10219531250002,128.07813671875002 147.45925,128.08246875 130.5078671875,127.75656640625 113.71000000000001,127.0 113.71000000000001,127.0 101.92421484375001,126.12504296875001 90.61934375,124.93815625 79.92023828125001,123.41381640625 69.95175,121.5265 60.83873046875,119.25068359375 52.70603125,116.56084375 45.67850390625,113.43145703125 39.881,109.837 39.849000000000004,109.812 38.807302734375,108.99989843750001 37.825734375,108.1661875 36.905455078125,107.3106328125 36.047625000000004,106.433 35.253404296875,105.5330546875 34.523953125,104.6105625 33.860431640625,103.66528906250001 33.264,102.697 33.264,102.697 30.542646484375002,103.835623046875 27.911046875,105.136796875 25.375517578125,106.594228515625 22.942375000000002,108.201625 20.617935546875,109.952693359375 18.408515625,111.84114062500001 16.320431640625,113.860673828125 14.36,116.005 14.36,116.005 15.268482421875,117.40219140625 16.103546875,118.87121875 16.865744140625,120.42776171875 17.555625,122.0875 18.173740234375,123.86611328125001 18.720640625,125.77928125 19.196876953125,127.84268359375 19.603,130.072 19.607,130.097 19.852046875,131.785150390625 20.0623125,133.56982812500002 20.237984375,135.456623046875 20.37925,137.451125 20.486296875,139.558923828125 20.5593125,141.785609375 20.598484375,144.136771484375 20.604,146.618 20.604,146.618 20.5330703125,152.38884765625 20.2645625,157.44759375 19.7958984375,161.87254296875 19.1245,165.742 18.2477890625,169.13426953125 17.1631875,172.12765625 15.868117187500001,174.80046484375 14.36,177.231 14.36,177.231 16.32047265625,179.37561328125 18.40865625,181.39528125 20.61819921875,183.28374609375 22.94275,185.03475 25.37595703125,186.64203515625002 27.91146875,188.09934375 30.54293359375,189.40041796875 33.264,190.53900000000002 33.264,190.53900000000002 37.6292421875,185.2441171875 44.062375,180.68437500000002 52.3423828125,176.8146328125 62.24825,173.58975 73.5589609375,170.9645859375 86.0535,168.894 99.51085156250001,167.3328515625 113.71000000000001,166.236 113.71000000000001,166.236 130.5078671875,165.47943359375 147.45925,165.15353125000001 164.10219531250002,165.15786328125 179.97475,165.392 194.6149609375,165.75551171875 207.560875,166.14796875 218.3505390625,166.46894140625 226.522,166.618"/>
            <polyline fill="none" stroke="black" stroke-width="0.1" id="simplify_45_1" points="14.359,116.006 16.34030859375,117.955310546875 18.80515625,119.838609375 21.76505078125,121.648947265625 25.2315,123.379375 29.21601171875,125.022943359375 33.73009375,126.572703125 38.78525390625,128.021705078125 44.393,129.363 44.393,129.363 51.69387890625,130.790400390625 59.79015625,132.048640625 68.70041796875,133.126529296875 78.44325,134.012875 89.03723828125,134.696486328125 100.50096875,135.166171875 112.85302734375,135.410740234375 126.11200000000001,135.419 126.11200000000001,135.419 131.434341796875,135.393310546875 136.513859375,135.398171875 141.49041601562502,135.420353515625 146.503875,135.446625 151.694099609375,135.463755859375 157.200953125,135.458515625 163.164298828125,135.417673828125 169.724,135.328 169.724,135.328 174.68377734375,134.995412109375 179.94146875,134.244921875 185.42186328125,133.20218945312502 191.04975000000002,131.992875 196.74991796875,130.742638671875 202.44715625,129.577140625 208.06625390625,128.622041015625 213.532,128.00300000000001"/>
            <circle id="simplify_46" cx="49.676" cy="146.618" r="15.028" fill="none" stroke="black" stroke-width="0.1"/>
            <polyline fill="none" stroke="black" stroke-width="0.1" id="simplify_47_1" points="14.359,177.23 19.283072265625,173.077970703125 26.555265625,169.276390625 36.293669921875,165.896521484375 48.616375,163.009625 63.641470703125,160.686962890625 81.487046875,158.99979687500002 102.271193359375,158.019388671875 126.11200000000001,157.817 126.11200000000001,157.817 131.434341796875,157.842689453125 136.513859375,157.83782812500002 141.49041601562502,157.815646484375 146.503875,157.789375 151.694099609375,157.772244140625 157.200953125,157.777484375 163.164298828125,157.81832617187501 169.724,157.90800000000002 169.724,157.90800000000002 174.68377734375,158.240916015625 179.94146875,158.991640625 185.42186328125,160.034513671875 191.04975000000002,161.243875 196.74991796875,162.494064453125 202.44715625,163.659421875 208.06625390625,164.614287109375 213.532,165.233"/>
            <circle id="simplify_48" cx="222.522" cy="146.618" r="12.5" fill="none" stroke="black" stroke-width="0.1"/>
            <circle id="simplify_49" cx="222.522" cy="146.618" r="7.0" fill="none" stroke="black" stroke-width="0.1"/>
            <circle id="simplify_50" cx="222.522" cy="146.618" r="5.0" fill="none" stroke="black" stroke-width="0.1"/>
            <circle id="simplify_51" cx="102.916" cy="223.632" r="2.565" fill="none" stroke="black" stroke-width="0.1"/>
            <circle id="simplify_52" cx="3.51" cy="227.697" r="2.565" fill="none" stroke="black" stroke-width="0.1"/>
            <circle id="simplify_53" cx="-22.971" cy="204.987" r="2.565" fill="none" stroke="black" stroke-width="0.1"/>
            <circle id="simplify_54" cx="-3.151" cy="69.751" r="2.565" fill="none" stroke="black" stroke-width="0.1"/>
            <circle id="simplify_55" cx="98.214" cy="66.529" r="2.565" fill="none" stroke="black" stroke-width="0.1"/>
            <circle id="simplify_56" cx="124.684" cy="90.397" r="2.565" fill="none" stroke="black" stroke-width="0.1"/>
            <polyline fill="none" stroke="black" stroke-width="0.1" id="simplify_57_1" points="33.164,141.889 33.86164453125,140.14021875 34.80653125,138.4761875 35.96521484375,136.915375 37.30425,135.47625 38.79019140625,134.17728125 40.38959375,133.0369375 42.06901171875,132.0736875 43.795,131.306 43.795,131.306 42.50425390625,130.52468359375 41.10028125,129.80240625 39.60448046875,129.13042578125 38.03825,128.5 36.42298828125,127.90238671875001 34.78009375,127.32884375 33.13096484375,126.77062890625 31.497,126.21900000000001"/>
            <polygon fill="none" fill-rule="nonzero" id="simplify_58_1" points="108.833,134.858 109.79520898437501,134.872716796875 110.762609375,134.886109375 111.735236328125,134.898166015625 112.713125,134.908875 113.696310546875,134.91822460937502 114.684828125,134.926203125 115.67871289062501,134.93279882812502 116.678,134.93800000000002 117.708,133.43200000000002 146.548,134.162 149.133,130.585 120.34400000000001,129.79500000000002 121.578,127.812 120.616421875,127.76699218750001 119.65625,127.7204375 118.697578125,127.6722890625 117.7405,127.6225 116.785109375,127.5710234375 115.8315,127.5178125 114.879765625,127.4628203125 113.93,127.406 108.833,134.858" stroke="black" stroke-width="0.1"/>
            <polygon fill="none" fill-rule="nonzero" id="simplify_59_1" points="68.125,132.565 68.99340625,132.656826171875 69.869125,132.747046875 70.75215625,132.835650390625 71.6425,132.922625 72.54015625,133.007958984375 73.445125,133.091640625 74.35740625,133.173658203125 75.277,133.254 75.776,132.671 100.924,133.155 102.4410703125,133.0049375 104.13425000000001,132.6334375 105.9183671875,132.07303125 107.70825,131.35625 109.4187265625,130.515625 110.964625,129.5836875 112.2607734375,128.59296875 113.22200000000001,127.57600000000001 113.22200000000001,127.57600000000001 113.240701171875,127.55082812500001 113.259296875,127.5255625 113.277775390625,127.500203125 113.296125,127.47475 113.314333984375,127.449203125 113.332390625,127.4235625 113.350283203125,127.397828125 113.36800000000001,127.372 113.36800000000001,127.372 112.52060546875,127.31879296875 111.67496875,127.26415625 110.83116015625001,127.20806640625 109.98925,127.15050000000001 109.14930859375,127.09143359375 108.31140625,127.03084375 107.47561328125,126.96870703125 106.642,126.905 106.642,126.905 105.87794140625,127.34085937500001 105.12234375,127.7681875 104.36707421875,128.170484375 103.604,128.53125 102.82498828125,128.833984375 102.02190625,129.0621875 101.18662109375,129.199359375 100.311,129.229 79.212,128.667 81.788,125.664 91.865,125.46900000000001 89.829541015625,125.21950390625 87.814953125,124.95840625 85.822044921875,124.68554296875 83.851625,124.40075 81.904501953125,124.10386328125 79.98148437500001,123.79471875 78.083380859375,123.47315234375 76.211,123.139 68.125,132.565" stroke="black" stroke-width="0.1"/>
            <polygon fill="none" fill-rule="nonzero" id="simplify_60_1" points="28.795,124.363 30.46001953125,124.97849218750001 32.20503125,125.5796875 34.03071484375,126.1661640625 35.93775,126.7375 37.92681640625,127.2932734375 39.99859375,127.8330625 42.15376171875,128.3564453125 44.393,128.863 44.393,128.863 46.40231640625,129.288111328125 48.475781250000004,129.700015625 50.61379296875,130.098443359375 52.81675,130.483125 55.085050781250004,130.853791015625 57.41909375,131.21017187500001 59.81927734375,131.551998046875 62.286,131.879 62.286,131.879 62.435744140625005,131.844544921875 62.582640625,131.80867187500002 62.726560546875,131.771369140625 62.867375,131.732625 63.004955078125,131.692427734375 63.139171875,131.650765625 63.269896484375,131.607626953125 63.397,131.56300000000002 63.397,131.56300000000002 64.220517578125,131.244046875 65.022765625,130.887875 65.798787109375,130.494390625 66.543625,130.0635 67.252322265625,129.595109375 67.919921875,129.089125 68.541466796875,128.545453125 69.112,127.964 73.879,122.697 73.0701875,122.537107421875 72.2668125,122.374671875 71.46896875,122.209681640625 70.67675,122.042125 69.89025,121.871990234375 69.1095625,121.69926562500001 68.33478125,121.523939453125 67.566,121.346 63.706,125.611 63.390349609375,125.93015625 63.039484375,126.2313125 62.656533203125,126.514375 62.244625,126.77925 61.806888671875,127.02584375 61.346453125000004,127.2540625 60.866447265625,127.4638125 60.370000000000005,127.655 60.370000000000005,127.655 59.739935546875,127.864861328125 59.097296875,128.045203125 58.447041015625004,128.196037109375 57.794125,128.317375 57.143505859375004,128.409228515625 56.500140625,128.471609375 55.868986328125004,128.504529296875 55.255,128.508 38.741,124.351 38.192005859375,124.212537109375 37.690671875,124.083484375 37.233095703125,123.960220703125 36.815375,123.839125 36.433607421875,123.716576171875 36.083890625,123.588953125 35.762322265625,123.452634765625 35.465,123.304 35.465,123.304 35.372453125,123.25175390625 35.287687500000004,123.19934375 35.210890625,123.14688671875 35.142250000000004,123.0945 35.081953125,123.04230078125 35.030187500000004,122.99040625 34.987140625,122.93893359375001 34.953,122.888 34.953,122.888 34.94171484375,122.866021484375 34.93265625,122.842859375 34.92589453125,122.818548828125 34.9215,122.793125 34.91954296875,122.766623046875 34.92009375,122.739078125 34.92322265625,122.71052539062501 34.929,122.681 34.929,122.681 34.947671875,122.61687109375 34.97525,122.54821875 35.011828125,122.47501953125 35.0575,122.39725 35.112359375000004,122.31488671875 35.1765,122.22790625 35.250015625,122.13628515625 35.333,122.04 43.728,112.658 43.213615234375,112.353634765625 42.708546875,112.045765625 42.212923828125,111.734357421875 41.726875,111.419375 41.250529296875,111.100783203125 40.784015625,110.778546875 40.327462890625,110.452630859375 39.881,110.123 39.849000000000004,110.099 39.737908203125,110.01494921875 39.627390625000004,109.93078125 39.517458984375004,109.84647265625 39.408125,109.762 39.299400390625,109.67733984375 39.191296875,109.59246875000001 39.083826171875,109.50736328125001 38.977000000000004,109.422 29.939,119.523 29.66391796875,119.845701171875 29.41740625,120.166421875 29.19906640625,120.484962890625 29.0085,120.801125 28.84530859375,121.114708984375 28.70909375,121.425515625 28.59945703125,121.733345703125 28.516000000000002,122.038 28.516000000000002,122.038 28.456251953125,122.3517578125 28.424453125,122.6591875 28.420146484375,122.9601484375 28.442875,123.25450000000001 28.492181640625002,123.54210156250001 28.567609375,123.8228125 28.668701171875,124.0964921875 28.795,124.363" stroke="black" stroke-width="0.1"/>
            <polygon fill="none" fill-rule="nonzero" id="simplify_61_1" points="27.124000000000002,101.128 26.612455078125002,100.825810546875 26.046265625,100.544234375 25.429099609375,100.28250976562501 24.764625,100.039875 24.056509765625,99.815568359375 23.308421875,99.608828125 22.524029296875,99.418892578125 21.707,99.245 21.707,99.245 20.2862890625,98.99317382812501 18.8155625,98.791140625 17.3059296875,98.634318359375 15.7685,98.518125 14.2143828125,98.437978515625 12.6546875,98.389296875 11.1005234375,98.367498046875 9.563,98.368 9.563,98.368 5.5547773437500005,98.45552734375 2.42553125,98.65103125 0.25464453125000003,98.94276953125001 -0.8785000000000001,99.319 -0.89451953125,99.76798046875 0.28596875,100.27796875 2.74234765625,100.83722265625 6.554,101.434 6.554,101.434 9.63287109375,101.89547265625 12.66465625,102.43778125 15.61323828125,103.05438671875 18.4425,103.73875 21.11632421875,104.48433203125 23.59859375,105.28459375 25.85319140625,106.13299609375001 27.844,107.023 27.844,107.023 29.12608984375,107.6407265625 30.33746875,108.2290625 31.44192578125,108.8178671875 32.40325,109.437 33.18523046875,110.11632031250001 33.75165625,110.8856875 34.06631640625,111.7749609375 34.093,112.81400000000001 34.093,112.81400000000001 33.850955078125004,113.7386171875 33.364328125,114.5671875 32.654880859375,115.3045390625 31.744375,115.9555 30.654572265625,116.5248984375 29.407234375,117.0175625 28.024123046875,117.4383203125 26.527,117.792 26.527,117.792 25.543572265625002,117.9824296875 24.525328125,118.153125 23.479076171875,118.3050703125 22.411625,118.43925 21.329783203125,118.5566484375 20.240359375,118.65825000000001 19.150162109375,118.7450390625 18.066,118.818 18.066,118.818 17.527080078125,118.41796875 17.015453125,118.02 16.529443359375,117.62240625 16.067375000000002,117.2235 15.627572265625,116.82159375 15.208359375,116.415 14.808060546875,116.00203125 14.425,115.581 14.213000000000001,115.913 13.881162109375,115.70066796875 13.560609375,115.49421875 13.247908203125,115.29147265625001 12.939625,115.09025 12.632326171875,114.88837109375 12.322578125,114.68365625 12.006947265625,114.47392578125 11.682,114.257 11.682,114.257 12.65089453125,114.28508789062501 13.67071875,114.303015625 14.73155859375,114.308029296875 15.823500000000001,114.297375 16.93662890625,114.268298828125 18.06103125,114.218046875 19.18679296875,114.143865234375 20.304000000000002,114.043 20.304000000000002,114.043 22.837146484375,113.741603515625 24.905609375,113.358703125 26.197048828125002,112.848232421875 26.399125,112.164125 25.199498046875,111.260314453125 22.285828125000002,110.090734375 17.345775390625,108.609318359375 10.067,106.77 10.067,106.77 8.96016796875,106.528435546875 7.74203125,106.298671875 6.43300390625,106.078353515625 5.0535000000000005,105.865125 3.62393359375,105.656630859375 2.16471875,105.45051562500001 0.69626953125,105.24442382812501 -0.761,105.036 -0.761,105.036 -1.8088359375,104.175404296875 -2.848,103.30898437500001 -3.8787265625000003,102.436916015625 -4.90125,101.559375 -5.9158046875000005,100.676537109375 -6.922625,99.788578125 -7.9219453125,98.895673828125 -8.914,97.998 -8.914,97.998 -8.233537109375,97.25429296875001 -7.007859375,96.56821875 -5.268033203125,95.94772265625001 -3.045125,95.40075 -0.370201171875,94.93524609375 2.725671875,94.55915625 6.211427734375,94.28042578125 10.056000000000001,94.107 10.056000000000001,94.107 12.735982421875,94.0610234375 15.401421875,94.0980625 18.018556640625,94.24432031250001 20.553625,94.526 22.972865234375,94.9693046875 25.242515625,95.6004375 27.328814453125002,96.4456015625 29.198,97.531 29.198,97.531 29.514126953125,97.9745546875 29.834015625,98.42031250000001 30.157677734375,98.86841406250001 30.485125,99.319 30.816369140625,99.7722109375 31.151421875,100.2281875 31.490294921875,100.6870703125 31.833000000000002,101.149 27.124000000000002,101.128" stroke="black" stroke-width="0.1"/>
            <polyline fill="none" stroke="black" stroke-width="0.1" id="simplify_62_1" points="33.264,102.697 30.542646484375002,103.835623046875 27.911046875,105.136796875 25.375517578125,106.594228515625 22.942375000000002,108.201625 20.617935546875,109.952693359375 18.408515625,111.84114062500001 16.320431640625,113.860673828125 14.36,116.005"/>
            <polygon fill="none" fill-rule="nonzero" id="simplify_63_1" points="149.354,134.958 150.276109375,134.96075 151.2069375,134.9629375 152.147234375,134.96446875 153.09775,134.96525 154.05923437500002,134.9651875 155.03243750000001,134.9641875 156.018109375,134.96215625 157.017,134.959 157.121,134.816 160.749,134.80700000000002 161.042,134.937 162.066095703125,134.9284609375 163.106328125,134.9185625 164.163365234375,134.9072578125 165.237875,134.8945 166.330525390625,134.88024218750002 167.441984375,134.8644375 168.572919921875,134.84703906250002 169.724,134.828 169.724,134.828 169.874892578125,134.825138671875 170.026078125,134.821796875 170.17756835937502,134.817962890625 170.329375,134.813625 170.481509765625,134.808771484375 170.633984375,134.803390625 170.78681054687502,134.79747070312501 170.94,134.791 170.917,134.781 171.04500000000002,134.786 173.2723515625,134.635318359375 175.563875,134.393359375 177.9127734375,134.071501953125 180.31225,133.681125 182.7555078125,133.233607421875 185.23575,132.740328125 187.74617968750002,132.212666015625 190.28,131.662 190.28,131.662 191.43103125000002,131.22035937500002 192.3870625,130.753125 193.15325,130.268828125 193.73475,129.776 194.13671875,129.283171875 194.3643125,128.798875 194.4226875,128.331640625 194.317,127.89 194.317,127.89 193.521302734375,127.91158984375001 192.514609375,127.93840625 191.366142578125,127.96864453125 190.145125,128.00050000000002 188.920779296875,128.03216796875 187.762328125,128.06184375 186.738994140625,128.08772265625 185.92000000000002,128.108 185.92000000000002,128.108 186.47951953125,128.568931640625 186.24340625,129.077828125 185.41990234375,129.600716796875 184.21725,130.103625 182.84369140625,130.552580078125 181.50746875000002,130.913609375 180.41682421875,131.15274023437502 179.78,131.236 159.964,130.882 161.68800000000002,128.495 160.735798828125,128.500576171875 159.781265625,128.505296875 158.824505859375,128.509150390625 157.865625,128.512125 156.904728515625,128.514208984375 155.941921875,128.515390625 154.977310546875,128.515658203125 154.011,128.51500000000001 149.354,134.958" stroke="black" stroke-width="0.1"/>
            <circle id="simplify_64" cx="18.422" cy="191.574" r="6.0" fill="none" stroke="black" stroke-width="0.1"/>
            <polygon id="simplify_65" points="14.982000000000001,191.167 16.018,189.779 17.054000000000002,188.391 18.774,188.595 20.494,188.798 21.178,190.39000000000001 21.862000000000002,191.981 20.825,193.369 19.789,194.757 18.069,194.553 16.349,194.35 15.665000000000001,192.758" fill="none" stroke="black" stroke-width="0.1"/>
            <circle id="simplify_66" cx="18.401" cy="101.447" r="6.0" fill="none" stroke="black" stroke-width="0.1"/>
            <polygon id="simplify_67" points="14.947000000000001,101.715 15.694,100.153 16.441,98.59 18.168,98.456 19.895,98.322 20.875,99.75 21.854,101.179 21.107,102.741 20.36,104.304 18.633,104.438 16.906,104.572 15.926,103.144" fill="none" stroke="black" stroke-width="0.1"/>
            <circle id="simplify_68" cx="81.697" cy="191.66" r="6.0" fill="none" stroke="black" stroke-width="0.1"/>
            <polygon id="simplify_69" points="79.619,188.888 81.339,188.68200000000002 83.059,188.475 84.09700000000001,189.862 85.136,191.248 84.455,192.84 83.774,194.433 82.054,194.639 80.334,194.845 79.296,193.459 78.257,192.073 78.938,190.481" fill="none" stroke="black" stroke-width="0.1"/>
            <circle id="simplify_70" cx="81.575" cy="101.606" r="6.0" fill="none" stroke="black" stroke-width="0.1"/>
            <polygon id="simplify_71" points="80.131,98.456 81.85600000000001,98.619 83.58,98.781 84.302,100.355 85.024,101.93 84.021,103.342 83.018,104.755 81.294,104.592 79.569,104.43 78.848,102.85600000000001 78.126,101.281 79.129,99.869" fill="none" stroke="black" stroke-width="0.1"/>
            <circle id="center_00" cx="49.676" cy="146.618" r="5.0" fill="none" stroke="black" stroke-width="0.1"/>
        </g>
    </g>
</svg>
