<!DOCTYPE svg PUBLIC "-//W3C//DTD SVG 1.1//EN" "http://www.w3.org/Graphics/SVG/1.1/DTD/svg11.dtd">
<svg xmlns="http://www.w3.org/2000/svg" width="297mm" height="210mm" viewBox="0 0 297 210">
    <defs id="_tag_13_"/>
    <g id="trashNode_001">
        <polygon class="fil1 str0" id="simplify_5___1" points="686.883,620.71" fill="none" stroke="black" stroke-width="0.1"/>
        <polygon class="fil1 str0" id="simplify_6___1" points="667.0060000000002,622.856" fill="none" stroke="black" stroke-width="0.1"/>
        <polygon class="fil1 str0" id="simplify_7___1" points="667.3870000000001,633.9709999999999" fill="none" stroke="black" stroke-width="0.1"/>
    </g>
    <g id="_tag_14_">
        <polygon id="simplify_2" points="648.784,269.829 619.236,269.829 618.967,270.678 649.267,270.677" fill="none" stroke="black" stroke-width="0.1"/>
        <g id="_tag_15_">
            <polygon id="_355585648" points="665.533,616.701 627.311,403.421 611.871,300.317 611.869,287.898 611.868,282.226 612.561,273.082 613.115,271.536 614.199,270.454 653.821,270.454 654.799,271.091 655.338,271.609 655.97,272.459 658.163,273.704 658.165,290.763 655.815,292.461 682.595,561.334 682.611,561.868 682.529,562.41 681.912,564.02 681.78,564.551 681.755,565.096 686.278,613.441" fill="none" stroke="black" stroke-width="0.1"/>
            <polyline id="simplify_SVG__000003" points="681.416,563.745 680.523,562.831 678.602,560.204 678.148,559.355 673.784,548.979 670.064,537.795 633.287,415.302" fill="none" stroke="black" stroke-width="0.1"/>
        </g>
        <polygon id="simplify_3" points="648.31,269.829 648.31,185.566 619.71,185.566 619.71,269.829" fill="none" stroke="black" stroke-width="0.1"/>
        <polygon id="simplify_4" points="679.314,645.858 681.184,646.518 683.201,645.704 684.391,645.168 685.66,644.4 686.733,643.556 687.524,642.786 688.557,641.51 689.435,640.037 690.046,638.577 690.454,637.041 690.618,635.879 690.66,634.528 690.522,633.02 690.294,631.917 689.932,630.761 689.611,629.653 687.864,625.181 687.277,623.219 686.883,620.71 686.278,613.441 665.533,616.702 667.156,623.81 667.55,626.319 667.606,628.417 667.447,632.232 667.387,633.971 667.372,635.423 667.499,636.638 667.809,638.045 668.205,639.198 668.969,640.747 669.547,641.647 671.016,642.372 674.852,633.107 675.31,632.266 675.903,631.572 676.695,630.97 677.573,630.565 678.746,630.336 679.824,630.402 680.731,630.671 681.61,631.155 682.261,631.716 682.914,632.59 683.317,633.526 683.485,634.352 683.503,635.098 683.389,635.871 683.168,636.551" fill="none" stroke="black" stroke-width="0.1"/>
        <g id="simplify_5_1">
            <polyline class="fil1 str0" id="simplify_5___0" points="686.883,620.71 667.1560000000001,623.8099000000001" fill="none" stroke="black" stroke-width="0.1"/>
        </g>
        <g id="simplify_6_1">
            <polyline class="fil1 str0" id="simplify_6___0" points="667.006,622.856 666.9802999999999,622.2067 667.1176999999999,621.5034999999999 667.4518999999999,620.7466999999999 668.0405999999999,619.9206999999999 668.9227999999999,619.0613999999999 669.9801,618.2983999999999 671.2056,617.6195999999999 672.6968,616.9922999999999 674.3902,616.4772999999999 676.0613000000001,616.1379999999999 677.7570000000001,615.9482999999999 679.6624,615.9246999999999 681.7868000000001,616.1669999999999 683.8668000000001,616.7778 685.3454000000002,617.6133 686.1290000000001,618.3803 686.5424000000002,619.0723 686.7408000000001,619.7548" fill="none" stroke="black" stroke-width="0.1"/>
        </g>
        <g id="simplify_7_1">
            <polyline class="fil1 str0" id="simplify_7___0" points="667.387,633.971 667.5929,632.4861 667.939,631.1888 668.3646,630.089 668.8334,629.1537000000001 669.5402,628.0407 670.4559,626.9173000000001 671.4542,625.9573 672.5942,625.0994000000001 674.138,624.2412 675.5246000000001,623.7088 677.2015000000001,623.3181 678.2840000000001,623.1986999999999 679.3195000000001,623.179 680.3585,623.2522 681.5450000000001,623.4527 682.9258000000001,623.8522 683.8984000000002,624.2504 685.2178000000001,624.9683 686.2093000000001,625.6667 687.0957000000001,626.4375 687.7225000000001,627.0894 688.6924000000001,628.3403 689.4266000000001,629.5985 689.9322000000001,630.7611999999999" fill="none" stroke="black" stroke-width="0.1"/>
        </g>
        <polygon id="simplify_8" cx="679.01" cy="634.829" points="683.51,634.829 683.4853485291572,635.2993780847044 683.4116642033022,635.7646026086799 683.2897543233282,636.2195764746872 683.1209545593917,636.659314893841 682.9071143170299,637.079 682.6505764746872,637.4740336353161 682.3541517146483,637.8400877286148 682.0210877286148,638.1731517146483 681.6550336353162,638.4695764746872 681.26,638.7261143170299 680.8403148938411,638.9399545593917 680.4005764746872,639.1087543233282 679.9456026086799,639.2306642033021 679.4803780847044,639.3043485291572 679.01,639.329 678.5396219152956,639.3043485291572 678.0743973913201,639.2306642033021 677.6194235253128,639.1087543233282 677.1796851061589,638.9399545593917 676.76,638.7261143170299 676.3649663646838,638.4695764746872 675.9989122713852,638.1731517146483 675.6658482853517,637.8400877286148 675.3694235253128,637.4740336353161 675.11288568297,637.079 674.8990454406082,636.659314893841 674.7302456766718,636.2195764746872 674.6083357966978,635.7646026086799 674.5346514708427,635.2993780847044 674.51,634.829 674.5346514708427,634.3586219152955 674.6083357966978,633.89339739132 674.7302456766718,633.4384235253127 674.8990454406082,632.9986851061589 675.11288568297,632.579 675.3694235253128,632.1839663646838 675.6658482853517,631.8179122713851 675.9989122713852,631.4848482853516 676.3649663646838,631.1884235253127 676.76,630.93188568297 677.1796851061589,630.7180454406082 677.6194235253128,630.5492456766717 678.0743973913201,630.4273357966978 678.5396219152956,630.3536514708427 679.01,630.329 679.4803780847044,630.3536514708427 679.9456026086799,630.4273357966978 680.4005764746872,630.5492456766717 680.8403148938411,630.7180454406082 681.26,630.93188568297 681.6550336353162,631.1884235253127 682.0210877286148,631.4848482853516 682.3541517146483,631.8179122713851 682.6505764746872,632.1839663646838 682.9071143170299,632.579 683.1209545593917,632.9986851061589 683.2897543233282,633.4384235253127 683.4116642033022,633.89339739132 683.4853485291572,634.3586219152955" fill="none" stroke="black" stroke-width="0.1"/>
        <polyline id="simplify_SVG__000007" points="655.817,292.48 655.541,287.351 655.541,276.503" fill="none" stroke="black" stroke-width="0.1"/>
        <circle id="center_00" cx="634.01" cy="269.829" r="5"/>
    </g>
</svg>
