<!DOCTYPE svg PUBLIC "-//W3C//DTD SVG 1.1//EN" "http://www.w3.org/Graphics/SVG/1.1/DTD/svg11.dtd">
<svg xmlns="http://www.w3.org/2000/svg" width="297mm" height="210mm" viewBox="0 0 297 210">
    <defs id="_tag_10_"/>
    <g id="trashNode_001"/>
    <g id="_tag_11_">
        <polygon class="fil0 str0" id="simplify_2_1" points="228.0,144.106 228.56337773437502,143.97606035156247 229.07397187499998,143.8193515625 229.524898828125,143.63847636718748 229.90927499999998,143.4360375 230.220216796875,143.2146376953125 230.45084062499998,142.97687968749997 230.594262890625,142.7253662109375 230.6436,142.46269999999998 230.6436,130.85019999999997 230.594262890625,130.58750800781246 230.45084062499998,130.3359265625 230.220216796875,130.0980724609375 229.90927499999998,129.87656249999998 229.524898828125,129.6740134765625 229.07397187499998,129.49304218749995 228.56337773437502,129.33626542968747 228.0,129.20629999999997 228.0,144.10599999999997" fill="none" stroke="black" stroke-width="0.1"/>
        <polygon class="fil0 str0" id="simplify_3_1" points="172.052,149.269 231.8209,490.50100000000003 231.8216,490.5008 231.71713222656248,490.9221921875 231.6258140625,491.34861875 231.5478857421875,491.77985468750006 231.4835875,492.21567500000003 231.43315957031248,492.6558546875 231.39684218749997,493.10016875 231.37487558593747,493.5483921875 231.36749999999998,494.00030000000004 231.36749999999998,494.00030000000004 231.64450937499998,496.74730312500003 232.4389625,499.30603750000006 233.695996875,501.62164062500005 235.36075,503.63925000000006 237.378359375,505.30400312500007 239.6939625,506.5610375 242.25269687499997,507.3554906250001 244.9997,507.63250000000005 244.9997,507.63250000000005 247.746703125,507.3554906250001 250.30543749999998,506.5610375 252.62104062499998,505.30400312500007 254.63864999999996,503.63925000000006 256.303403125,501.62164062500005 257.5604375,499.30603750000006 258.354890625,496.74730312500003 258.6319,494.00030000000004 258.6319,494.00030000000004 258.58764667968745,492.89444296875007 258.4571609374999,491.81286250000005 258.2438541015625,490.75895703125 257.95113749999996,489.736125 257.58242246093744,488.74776484375 257.1411203125,487.797275 256.6306423828125,486.88805390625004 256.0544,486.0235 227.9997,141.2745 227.9999,127.18869999999998 228.0,125.50059999999998 227.9796798828125,125.29909374999997 227.9214015625,125.11140624999997 227.82918808593752,124.94155937499998 227.7070625,124.79357499999998 227.5590478515625,124.67147499999999 227.3891671875,124.57928124999998 227.2014435546875,124.52101562499998 226.9999,124.50069999999998 172.9997,124.50069999999998 172.79819375,124.52101562499998 172.61050625000001,124.57928124999998 172.440659375,124.67147499999999 172.29267499999997,124.79357499999998 172.17057499999999,124.94155937499998 172.07838124999998,125.11140624999997 172.02011562500002,125.29909374999997 171.9998,125.50059999999998 171.9998,128.73729999999998 171.9998,148.67279999999997 172.0006361328125,148.74892578124997 172.00313281249998,148.82466249999996 172.0072724609375,148.89998671874997 172.0130375,148.97487499999997 172.0204103515625,149.04930390624995 172.02937343749997,149.12324999999996 172.0399091796875,149.19668984374997 172.052,149.26959999999997" fill="none" stroke="black" stroke-width="0.1"/>
        <polygon id="simplify_5" points="180,24 220,24 220,124 180,124" fill="none" stroke="black" stroke-width="0.1"/>
        <polygon id="simplify_7" points="200,124 178.174,124.0 175.343,124.5 200.0,124.5 224.657,124.5 221.826,124.0" fill="none" stroke="black" stroke-width="0.1"/>
        <circle id="center_00" cx="200" cy="124" r="5"/>
    </g>
</svg>
