<!DOCTYPE svg PUBLIC "-//W3C//DTD SVG 1.1//EN" "http://www.w3.org/Graphics/SVG/1.1/DTD/svg11.dtd">
<svg xmlns="http://www.w3.org/2000/svg" width="297mm" height="210mm" viewBox="0 0 297 210">
    <defs id="_tag_10_"/>
    <g id="trashNode_001"/>
    <g id="_tag_11_">
        <polygon class="fil0 str0" id="simplify_2_1" points="228.0,144.106 228.56337773437502,143.97606035156247 229.07397187499998,143.8193515625 229.524898828125,143.63847636718748 229.90927499999998,143.4360375 230.220216796875,143.2146376953125 230.45084062499998,142.97687968749997 230.594262890625,142.7253662109375 230.6436,142.46269999999998 230.6436,130.85019999999997 230.594262890625,130.58750800781246 230.45084062499998,130.3359265625 230.220216796875,130.0980724609375 229.90927499999998,129.87656249999998 229.524898828125,129.6740134765625 229.07397187499998,129.49304218749995 228.56337773437502,129.33626542968747 228.0,129.20629999999997 228.0,144.10599999999997" fill="none" stroke="black" stroke-width="0.1"/>
        <polygon id="simplify_3" cx="245" cy="489" points="249.5,489.0 249.47534852915723,489.47037808470446 249.40166420330212,489.9356026086799 249.27975432332818,490.39057647468724 249.1109545593917,490.8303148938411 248.89711431702997,491.25 248.64057647468726,491.6450336353161 248.34415171464826,492.0110877286149 248.01108772861485,492.34415171464826 247.64503363531614,492.64057647468724 247.25,492.89711431702995 246.8303148938411,493.1109545593917 246.39057647468726,493.2797543233282 245.93560260867991,493.4016642033021 245.47037808470444,493.4753485291572 245.0,493.5 244.52962191529556,493.47534852915726 244.06439739132009,493.4016642033021 243.60942352531274,493.2797543233282 243.1696851061589,493.1109545593917 242.75,492.89711431702995 242.35496636468386,492.64057647468724 241.98891227138515,492.34415171464826 241.65584828535174,492.0110877286149 241.35942352531274,491.6450336353161 241.10288568297003,491.25 240.8890454406083,490.8303148938411 240.72024567667182,490.39057647468724 240.59833579669788,489.9356026086799 240.52465147084277,489.47037808470446 240.5,489.0 240.52465147084277,488.52962191529554 240.59833579669788,488.0643973913201 240.72024567667182,487.60942352531276 240.8890454406083,487.1696851061589 241.10288568297003,486.75 241.35942352531274,486.3549663646839 241.65584828535174,485.9889122713851 241.98891227138515,485.65584828535174 242.35496636468386,485.35942352531276 242.75,485.10288568297005 243.1696851061589,484.8890454406083 243.60942352531274,484.7202456766718 244.06439739132009,484.5983357966979 244.52962191529556,484.5246514708428 245.0,484.5 245.47037808470444,484.52465147084274 245.93560260867991,484.5983357966979 246.39057647468726,484.7202456766718 246.8303148938411,484.8890454406083 247.25,485.10288568297 247.64503363531614,485.35942352531276 248.01108772861485,485.65584828535174 248.34415171464826,485.9889122713851 248.64057647468726,486.3549663646839 248.89711431702997,486.75 249.1109545593917,487.1696851061589 249.27975432332818,487.60942352531276 249.40166420330212,488.0643973913201 249.47534852915723,488.52962191529554" fill="none" stroke="black" stroke-width="0.1"/>
        <polygon id="simplify_4" points="180,24 220,24 220,124 180,124" fill="none" stroke="black" stroke-width="0.1"/>
        <polygon id="simplify_6" points="200,124 178.174,124.0 175.343,124.5 200.0,124.5 224.657,124.5 221.826,124.0" fill="none" stroke="black" stroke-width="0.1"/>
        <polygon class="fil0 str0" id="simplify_7_1" points="257.053,482.628 257.41022656249993,483.35342031249996 257.72499374999995,484.10228749999993 257.9957078125,484.87303593749994 258.220775,485.66409999999996 258.39860156249995,486.4739140625 258.52759375,487.3009125 258.6061578125,488.14352968749995 258.6327,489.0002 258.6327,489.0002 258.355690625,491.747203125 257.56123749999995,494.3059375 256.304203125,496.621540625 254.63944999999998,498.63915000000003 252.621840625,500.30390312500003 250.3062375,501.5609375 247.74750312499998,502.35539062500004 245.0005,502.6324 245.0005,502.6324 242.253496875,502.35539062500004 239.69476249999997,501.5609375 237.37915937499997,500.30390312500003 235.36154999999997,498.63915000000003 233.69679687499996,496.621540625 232.43976249999997,494.3059375 231.64530937499998,491.747203125 231.36829999999998,489.0002 231.36829999999998,489.0002 231.37434785156248,488.59175917968753 231.39236406249998,488.18629843749994 231.4221576171875,487.7839853515625 231.46353749999997,487.3849875 231.51631269531248,486.98947246093746 231.5802921875,486.59760781250003 231.6552849609375,486.2095611328125 231.7411,485.82550000000003 172.0528,149.26950000000005 172.0407091796875,149.19658984375005 172.0301734375,149.12315000000004 172.02121035156247,149.04920390625003 172.01383749999997,148.97477500000005 172.00807246093748,148.89988671875005 172.00393281249998,148.82456250000004 172.0014361328125,148.74882578125005 172.0006,148.67270000000005 172.0006,128.73720000000006 172.0006,125.50050000000006 172.020915625,125.29899375000005 172.07918125,125.11130625000006 172.17137499999998,124.94145937500006 172.293475,124.79347500000006 172.441459375,124.67137500000007 172.61130624999998,124.57918125000006 172.79899375,124.52091562500006 173.0005,124.50060000000006 227.0007,124.50060000000006 227.2022435546875,124.52091562500006 227.38996718750002,124.57918125000006 227.5598478515625,124.67137500000007 227.7078625,124.79347500000006 227.82998808593752,124.94145937500006 227.9222015625,125.11130625000006 227.9804798828125,125.29899375000005 228.0008,125.50050000000006 228.0007,127.18860000000006 228.0005,141.27440000000007 257.053,482.62840000000006" fill="none" stroke="black" stroke-width="0.1"/>
        <circle id="center_00" cx="200" cy="124" r="5"/>
    </g>
</svg>
