<!DOCTYPE svg PUBLIC "-//W3C//DTD SVG 1.1//EN" "http://www.w3.org/Graphics/SVG/1.1/DTD/svg11.dtd">
<svg xmlns="http://www.w3.org/2000/svg" width="297mm" height="210mm" viewBox="0 0 297 210">
    <defs id="_tag_9_"/>
    <g id="trashNode_001"/>
    <g id="_tag_10_">
        <g id="_tag_11_">
            <polygon id="_208443976" points="206.834,65.9352 211.803,59.0904 203.925,56.8362 200.782,61.1553" fill="none" stroke="black" stroke-width="0.1"/>
            <polygon id="_208442680_1" class="fil0 str0" points="205.683,100.193 204.84428046875,99.6325693359375 204.08634999999998,98.95898593749999 203.41877578125,98.1889126953125 202.851125,97.3390125 202.39296484374998,96.4259482421875 202.0538625,95.4663828125 201.84338515625,94.4769791015625 201.7711,93.4744 201.7711,93.4744 201.8246458984375,92.5022955078125 201.9812359375,91.5925078125 202.2347986328125,90.7439880859375 202.5792625,89.9556875 203.0085560546875,89.2265572265625 203.5166078125,88.55554843750001 204.0973462890625,87.94161230468751 204.7447,87.3837 204.7447,87.38340000000001 204.74779999999998,87.38140000000001 204.85563320312497,87.29873105468752 204.964921875,87.21791718750002 205.07564960937498,87.13898535156252 205.18779999999998,87.06196250000002 205.301356640625,86.98687558593751 205.41630312499998,86.91375156250001 205.532623046875,86.84261738281252 205.6503,86.77350000000001 205.6503,86.77350000000001 206.5023275390625,86.08916054687501 207.1856765625,85.35557187500001 207.70442167968747,84.573116015625 208.0626375,83.742175 208.2643986328125,82.863130859375 208.3137796875,81.93636562500001 208.2148552734375,80.96226132812501 207.9717,79.94120000000001 206.1449,73.8619 205.5627033203125,71.61974160156251 205.22763281250002,69.58886406250001 205.13319277343751,67.74496386718751 205.2728875,66.0637375 205.64022128906248,64.5208814453125 206.2286984375,63.0920921875 207.03182324218753,61.753066210937504 208.0431,60.4795 221.91680000000002,44.9143 226.06140000000002,44.348 230.9069,48.8961 242.0359,77.2764 238.2408,82.8736 237.48420000000002,84.37209999999999 226.0243,74.12989999999999 224.58120000000002,68.63189999999999 224.5809,68.62999999999998 224.57850000000002,68.62159999999999 224.57850000000002,68.6218 224.57050195312505,68.59188847656249 224.56232812500002,68.56200156249999 224.553971484375,68.53213574218748 224.54542500000002,68.5022875 224.53668164062503,68.4724533203125 224.52773437500002,68.44262968749999 224.518576171875,68.4128130859375 224.50920000000002,68.383 224.50920000000002,68.383 224.10582441406254,67.453972265625 223.54010781250003,66.648940625 222.83872792968754,65.980544921875 222.02836250000001,65.461425 221.13568925781252,65.10422070312501 220.1873859375,64.921571875 219.21013027343753,64.926118359375 218.2306,65.1305 218.2306,65.1305 217.316087890625,65.5211900390625 216.52313437499998,66.0611640625 215.86228867187498,66.7278154296875 215.3441,67.4985375 214.979117578125,68.35072363281249 214.777890625,69.2617671875 214.75096835937498,70.2090615234375 214.90890000000002,71.17 214.9087,71.1703 217.282,79.5474 217.56990000000002,91.9594 217.49120000000002,94.7335 217.03638105468752,96.4694693359375 216.3032359375,98.0687734375 215.3203947265625,99.5021939453125 214.1164875,100.7405125 212.7201443359375,101.7545107421875 211.15999531250003,102.5149703125 209.4646705078125,102.9926728515625 207.66280000000003,103.1584 207.66280000000003,103.1584 207.52361816406255,103.15886210937501 207.37644531250004,103.159884375 207.22184042968755,103.160920703125 207.06036250000002,103.161425 206.8925705078125,103.160851171875 206.71902343750003,103.158653125 206.54028027343753,103.154284765625 206.35690000000002,103.1472 206.14210000000003,103.13719999999999 205.98616074218754,103.1102498046875 205.83643593750003,103.04789843750001 205.6983525390625,102.9559572265625 205.57733750000003,102.8402375 205.47881777343753,102.70655058593749 205.40822031250002,102.5607078125 205.37097207031252,102.40852050781248 205.37250000000003,102.2558 205.68300000000002,100.193" fill="none" stroke="black" stroke-width="0.1"/>
            <polygon id="_209253440" cx="200.657" cy="57.9195" points="205.157,57.9195 205.13234852915724,58.38987808470444 205.05866420330213,58.855102608679914 204.9367543233282,59.310076474687264 204.7679545593917,59.7498148938411 204.55411431702998,60.1695 204.29757647468728,60.56453363531613 204.00115171464827,60.93058772861486 203.66808772861486,61.263651714648276 203.30203363531615,61.560076474687264 202.907,61.81661431702997 202.4873148938411,62.0304545593917 202.04757647468728,62.19925432332819 201.59260260867993,62.321164203302125 201.12737808470445,62.39484852915723 200.657,62.4195 200.18662191529558,62.39484852915723 199.7213973913201,62.321164203302125 199.26642352531275,62.19925432332819 198.82668510615892,62.0304545593917 198.407,61.81661431702997 198.01196636468387,61.560076474687264 197.64591227138516,61.263651714648276 197.31284828535175,60.93058772861486 197.01642352531275,60.56453363531613 196.75988568297004,60.1695 196.5460454406083,59.749814893841105 196.37724567667183,59.310076474687264 196.2553357966979,58.85510260867992 196.18165147084278,58.38987808470444 196.157,57.9195 196.18165147084278,57.449121915295564 196.2553357966979,56.983897391320085 196.3772456766718,56.528923525312734 196.5460454406083,56.0891851061589 196.75988568297004,55.6695 197.01642352531275,55.27446636468387 197.31284828535175,54.90841227138514 197.64591227138516,54.57534828535172 198.01196636468387,54.278923525312734 198.407,54.022385682970025 198.82668510615892,53.8085454406083 199.26642352531275,53.63974567667181 199.7213973913201,53.517835796697874 200.18662191529558,53.44415147084277 200.657,53.4195 201.12737808470445,53.44415147084277 201.59260260867993,53.517835796697874 202.04757647468728,53.63974567667181 202.4873148938411,53.80854544060829 202.907,54.022385682970025 203.30203363531615,54.278923525312734 203.66808772861486,54.57534828535172 204.00115171464827,54.90841227138513 204.29757647468728,55.27446636468387 204.55411431702998,55.6695 204.7679545593917,56.089185106158894 204.9367543233282,56.528923525312734 205.05866420330213,56.98389739132008 205.13234852915724,57.44912191529556" fill="none" stroke="black" stroke-width="0.1"/>
            <polygon id="_209254064" cx="200.657" cy="57.9195" points="203.157,57.9195 203.14330473842068,58.18082115816913 203.10236900183452,58.439279227044395 203.03464129073788,58.69204248593737 202.9408636441065,58.9363416076895 202.82206350946112,59.1695 202.6795424859374,59.388963130731184 202.5148620636935,59.59232651589714 202.32982651589717,59.77736206369349 202.1264631307312,59.94204248593737 201.907,60.0845635094611 201.67384160768952,60.2033636441065 201.4295424859374,60.29714129073788 201.17677922704442,60.36486900183451 200.91832115816914,60.405804738420684 200.657,60.4195 200.3956788418309,60.405804738420684 200.1372207729556,60.36486900183451 199.88445751406263,60.29714129073788 199.6401583923105,60.2033636441065 199.407,60.0845635094611 199.18753686926883,59.94204248593737 198.98417348410285,59.77736206369349 198.79913793630652,59.59232651589714 198.63445751406263,59.388963130731184 198.4919364905389,59.1695 198.3731363558935,58.9363416076895 198.27935870926214,58.69204248593737 198.2116309981655,58.4392792270444 198.17069526157934,58.18082115816913 198.157,57.9195 198.17069526157934,57.65817884183087 198.2116309981655,57.399720772955604 198.2793587092621,57.146957514062635 198.3731363558935,56.9026583923105 198.4919364905389,56.6695 198.63445751406263,56.450036869268814 198.79913793630652,56.24667348410286 198.98417348410285,56.06163793630651 199.18753686926883,55.896957514062635 199.407,55.7544364905389 199.6401583923105,55.635636355893496 199.88445751406263,55.541858709262115 200.1372207729556,55.474130998165485 200.3956788418309,55.433195261579314 200.657,55.4195 200.91832115816914,55.433195261579314 201.17677922704442,55.474130998165485 201.4295424859374,55.541858709262115 201.6738416076895,55.635636355893496 201.907,55.7544364905389 202.1264631307312,55.89695751406263 202.32982651589717,56.06163793630651 202.5148620636935,56.24667348410285 202.6795424859374,56.450036869268814 202.82206350946112,56.6695 202.9408636441065,56.9026583923105 203.03464129073788,57.14695751406263 203.10236900183452,57.3997207729556 203.14330473842068,57.65817884183086" fill="none" stroke="black" stroke-width="0.1"/>
            <g id="_tag_12_">
                <polygon id="_209255720_1" class="fil1 str0" points="247.11,85.6021 247.728824609375,85.3078896484375 248.32705937500003,84.96842968749999 248.90194570312502,84.5843142578125 249.45072500000003,84.15613749999999 249.970638671875,83.68449355468749 250.45892812500003,83.1699765625 250.91283476562504,82.61318066406248 251.32960000000003,82.01469999999999 251.32960000000003,82.01469999999999 252.20089472656252,80.29928046874998 252.69792656250002,78.49959374999999 252.83231699218754,76.66851015625 252.61568750000004,74.8589 252.0596595703125,73.12363359374999 251.17585468750002,71.51558125 249.9758943359375,70.08761328124999 248.47140000000002,68.89259999999999 248.47140000000002,68.89259999999999 247.27505527343754,68.05973867187498 246.16197343750002,67.15244687499998 245.13335800781252,66.17626289062498 244.1904125,65.13672499999998 243.3343404296875,64.03937148437498 242.5663453125,62.88974062499999 241.8876306640625,61.69337070312499 241.29940000000002,60.45579999999999 241.29940000000002,60.45579999999999 240.79897382812504,59.18017558593749 240.39049062500004,57.866735937499996 240.07716835937504,56.52014394531249 239.86222500000002,55.145062499999995 239.74887851562502,53.746154492187486 239.74034687500003,52.32808281249999 239.83984804687503,50.89551035156249 240.05060000000003,49.45309999999999 240.05060000000003,49.45309999999999 240.20793886718752,47.53822031249999 239.98704218750004,45.68614374999999 239.41852753906252,43.94151406249999 238.53301250000004,42.348974999999996 237.36111464843754,40.95317031249999 235.9334515625,39.79874374999999 234.28064082031253,38.93033906249999 232.43330000000003,38.392599999999995 232.43330000000003,38.392599999999995 231.71168535156255,38.28721953124999 230.99506406250003,38.237456249999994 230.28575761718753,38.24170234374999 229.58608750000002,38.29834999999999 228.89837519531255,38.405791406249996 228.22494218750006,38.56241874999999 227.56810996093753,38.766624218749996 226.93020000000004,39.016799999999996 226.93020000000004,39.016799999999996 226.31140839843755,39.3110103515625 225.71319843750004,39.65047031249999 225.13832988281254,40.0345857421875 224.58956250000003,40.4627625 224.06965605468756,40.9344064453125 223.58137031250004,41.4489234375 223.12746503906254,42.0057193359375 222.71070000000003,42.6042 222.71070000000003,42.6042 221.83940527343754,44.31961953125 221.34237343750004,46.11930625 221.20798300781252,47.950389843749996 221.42461250000002,49.760000000000005 221.98064042968755,51.495266406249996 222.86444531250004,53.10331875 224.06440566406255,54.531286718749996 225.56890000000004,55.726299999999995 225.56890000000004,55.726299999999995 226.7652447265625,56.559161328125 227.87832656250004,57.466453124999994 228.90694199218754,58.44263710937499 229.84988750000005,59.482175 230.70595957031256,60.57952851562499 231.47395468750005,61.729159374999995 232.15266933593756,62.92552929687499 232.74090000000004,64.1631 232.74090000000004,64.1631 233.24132617187502,65.4387244140625 233.64980937500002,66.7521640625 233.96313164062502,68.0987560546875 234.17807500000004,69.4738375 234.29142148437504,70.8727455078125 234.29995312500003,72.2908171875 234.20045195312503,73.72338964843749 233.98970000000003,75.1658 233.98970000000003,75.1658 233.83236113281254,77.08067968750001 234.05325781250002,78.93275625 234.62177246093754,80.6773859375 235.50728750000002,82.26992500000001 236.67918535156252,83.66572968750002 238.10684843750005,84.82015625000001 239.75965917968753,85.6885609375 241.60700000000003,86.22630000000001 241.60700000000003,86.22630000000001 242.32861445312503,86.33168046875001 243.04523437500004,86.38144375000002 243.75453710937504,86.37719765625 244.45420000000001,86.32055000000001 245.14190039062504,86.21310859375001 245.815315625,86.05648125 246.47212304687503,85.85227578125001 247.11,85.60210000000001" fill="none" stroke="black" stroke-width="0.1"/>
                <polyline id="_209248832_1" class="fil2 str0" points="240.533,85.9623 240.34660273437498,85.88311093749999 240.18465312499998,85.77175625 240.04980195312498,85.6332796875 239.94469999999998,85.472725 239.87199804687498,85.29513593749999 239.834346875,85.10555624999999 239.83439726562497,84.9090296875 239.8748,84.7106 239.8748,84.7106 239.95398671875,84.5242072265625 240.065325,84.3622703125 240.20375703125,84.2274388671875 240.364225,84.12236250000001 240.54167109374998,84.0496908203125 240.7310375,84.01207343749999 240.92726640624997,84.01215996093751 241.12529999999998,84.0526 241.12529999999998,84.0526 242.3135267578125,84.3154984375 243.51402656249996,84.38215 244.70290371093748,84.25770156249999 245.85626249999996,83.9473 246.9502072265625,83.4560921875 247.96084218749996,82.789225 248.86427167968748,81.95184531250001 249.6366,80.9491 249.6366,80.9491 250.32752089843748,79.59635390625 250.7230671875,78.17637500000001 250.8322517578125,76.73087734375001 250.6640875,75.30157500000001 250.2275873046875,73.93018203125 249.5317640625,72.65841250000001 248.58563066406248,71.52798046875 247.39819999999997,70.5806 247.39819999999997,70.5806 246.07467988281246,69.65923730468751 244.84332656249995,68.6556546875 243.70546308593748,67.5759728515625 242.66241249999996,66.42631250000001 241.71549785156247,65.2127943359375 240.86604218749997,63.941539062500006 240.11536855468748,62.618667382812504 239.46479999999997,61.2503 239.46479999999997,61.2503 238.91159765624997,59.839752734375 238.46006249999996,58.387296875000004 238.11375234374998,56.898086328125004 237.87622499999998,55.377275 237.75103828124998,53.830016796875 237.74174999999997,52.26146562500001 237.85191796874994,50.676775390625004 238.08509999999995,49.081100000000006 238.08509999999995,49.081100000000006 238.20620019531245,47.566898437500015 238.02872656249997,46.10350000000001 237.57694277343745,44.726014062500006 236.87511249999997,43.469550000000005 235.94749941406243,42.369217187500006 234.81836718749994,41.460125000000005 233.51197949218746,40.77738281250001 232.05259999999996,40.356100000000005 232.05259999999996,40.356100000000005 230.79283222656244,40.23362207031251 229.56402656249995,40.3198890625 228.38627949218747,40.600989648437505 227.27968749999997,41.0630125 226.26434707031245,41.6920462890625 225.36035468749998,42.474179687500005 224.58780683593747,43.39550136718751 223.96679999999995,44.4421 223.96679999999995,44.4421 223.86085722656244,44.6142265625 223.72670156249995,44.75743125000001 223.56972949218746,44.869839062500006 223.39533749999993,44.949575 223.20892207031247,44.9947640625 223.01587968749996,45.00353125 222.82160683593747,44.97400156250001 222.63149999999996,44.904300000000006 222.63149999999996,44.904300000000006 222.45910957031245,44.7980271484375 222.31570781249997,44.6636234375 222.20316152343744,44.5064736328125 222.12333749999996,44.3319625 222.07810253906246,44.14547480468751 222.06932343749995,43.9523953125 222.09886699218748,43.758108789062504 222.16859999999997,43.568000000000005" fill="none" stroke="black" stroke-width="0.1"/>
                <polygon id="_209248736" points="247.67664,74.03997 247.39718646011445,73.47753880757442 247.06047372772207,72.94739952114803 246.6701908979806,72.4553604576817 246.23061399124464,72.00681250012057 245.74655910409174,71.60667003375238 245.22332964316058,71.25931710317381 244.66665821991793,70.9685593797806 244.08264384296777,70.7375824660352 243.47768509603688,70.56891699333961 242.85841003375236,70.46441089590823 242.23160356328827,70.42520916441381 241.6041331075027,70.4517413012301 240.9828733640158,70.54371661471393 240.37463098458426,70.70012740408369 239.78607,70.91926 239.22363880757442,71.19871353988553 238.69349952114803,71.53542627227792 238.20146045768172,71.92570910201938 237.75291250012057,72.36528600875535 237.35277003375236,72.84934089590824 237.0054171031738,73.37257035683939 236.7146593797806,73.92924178008207 236.4836824660352,74.51325615703222 236.3150169933396,75.1182149039631 236.21051089590824,75.73748996624761 236.17130916441383,76.36429643671171 236.19784130123008,76.99176689249731 236.2898166147139,77.61302663598418 236.4462274040837,78.22126901541573 236.66536,78.80982999999999 236.94481353988553,79.37226119242557 237.28152627227792,79.90240047885196 237.67180910201938,80.39443954231828 238.11138600875535,80.84298749987941 238.59544089590824,81.24312996624761 239.1186703568394,81.59048289682617 239.67534178008205,81.88124062021937 240.25935615703222,82.11221753396478 240.8643149039631,82.28088300666036 241.48358996624762,82.38538910409176 242.1103964367117,82.42459083558617 242.7378668924973,82.39805869876989 243.35912663598418,82.30608338528606 243.96736901541573,82.1496725959163 244.55593,81.93054 245.11836119242557,81.65108646011446 245.64850047885196,81.31437372772207 246.14053954231827,80.9240908979806 246.5890874998794,80.48451399124464 246.98922996624762,80.00045910409176 247.33658289682617,79.4772296431606 247.62734062021937,78.92055821991792 247.8583175339648,78.33654384296779 248.02698300666037,77.73158509603688 248.13148910409174,77.11231003375238 248.17069083558616,76.48550356328828 248.1441586987699,75.85803310750268 248.05218338528607,75.2367733640158 247.8957725959163,74.62853098458426" fill="none" stroke="black" stroke-width="0.1"/>
                <polygon id="_209248904" points="235.75264,46.511770000000006 235.97177259591632,47.10033098458427 236.1281833852861,47.70857336401581 236.22015869876992,48.32983310750269 236.24669083558618,48.957303563288285 236.20748910409176,49.58411003375238 236.1029830066604,50.20338509603689 235.93431753396482,50.80834384296779 235.7033406202194,51.39235821991793 235.4125828968262,51.9490296431606 235.06522996624764,52.47225910409176 234.66508749987943,52.95631399124464 234.2165395423183,53.39589089798061 233.72450047885198,53.78617372772207 233.1943611924256,54.12288646011446 232.63193,54.40234 232.04336901541575,54.62147259591631 231.4351266359842,54.777883385286074 230.81386689249732,54.869858698769896 230.18639643671173,54.89639083558618 229.55958996624764,54.85718910409176 228.94031490396313,54.75268300666038 228.33535615703224,54.5840175339648 227.7513417800821,54.35304062021939 227.19467035683942,54.062282896826176 226.67144089590826,53.714929966247624 226.18738600875537,53.31478749987942 225.7478091020194,52.86623954231829 225.35752627227794,52.37420047885197 225.02081353988555,51.844061192425585 224.74136000000001,51.28163000000001 224.5222274040837,50.69306901541574 224.36581661471394,50.08482663598419 224.2738413012301,49.46356689249732 224.24730916441385,48.83609643671173 224.28651089590826,48.209289966247624 224.39101699333963,47.590014903963116 224.5596824660352,46.985056157032226 224.79065937978064,46.401041780082075 225.08141710317383,45.844370356839406 225.4287700337524,45.32114089590824 225.8289125001206,44.837086008755364 226.27746045768174,44.3975091020194 226.76949952114805,44.00722627227793 227.29963880757444,43.67051353988555 227.86207000000002,43.39106 228.45063098458428,43.171927404083696 229.05887336401582,43.01551661471393 229.68013310750268,42.92354130123011 230.3076035632883,42.897009164413824 230.93441003375239,42.936210895908246 231.5536850960369,43.04071699333963 232.1586438429678,43.20938246603521 232.74265821991793,43.44035937978062 233.2993296431606,43.73111710317383 233.82255910409177,44.07847003375238 234.30661399124466,44.47861250012058 234.74619089798063,44.927160457681715 235.1364737277221,45.41919952114804 235.47318646011448,45.94933880757442" fill="none" stroke="black" stroke-width="0.1"/>
                <polygon id="_209249144" points="231.477,46.285 228.6,46.5251 227.37,49.1364 229.016,51.5078 231.893,51.2677 233.123,48.6564" fill="none" stroke="black" stroke-width="0.1"/>
                <polygon id="_209249456" points="243.972,74.1685 241.118,73.7374 239.317,75.9937 240.371,78.6813 243.225,79.1124 245.026,76.8561" fill="none" stroke="black" stroke-width="0.1"/>
            </g>
            <polygon id="_209260992" cx="209.496" cy="93.4747" points="213.99596,93.4747 213.97130874828142,93.94507390356591 213.89762507739812,94.41029429221228 213.77571628106756,94.86526411400749 213.6069180175734,95.30499862437537 213.39307967601383,95.72467999999999 213.1365441140075,96.11971012390603 212.84012198885526,96.4857609633906 212.50706096339061,96.81882198885525 212.14101012390606,97.11524411400748 211.74598,97.37177967601382 211.3262986243754,97.5856180175734 210.88656411400748,97.75441628106753 210.43159429221228,97.87632507739809 209.9663739035659,97.95000874828142 209.496,97.97466 209.0256260964341,97.95000874828142 208.56040570778774,97.87632507739809 208.10543588599253,97.75441628106753 207.66570137562462,97.5856180175734 207.24602000000002,97.37177967601382 206.85098987609396,97.11524411400748 206.4849390366094,96.81882198885525 206.15187801114476,96.4857609633906 205.8554558859925,96.11971012390603 205.5989203239862,95.72468 205.3850819824266,95.30499862437537 205.21628371893246,94.86526411400749 205.0943749226019,94.41029429221228 205.0206912517186,93.94507390356591 204.99604000000002,93.4747 205.0206912517186,93.00432609643408 205.0943749226019,92.53910570778771 205.21628371893246,92.08413588599251 205.3850819824266,91.64440137562462 205.5989203239862,91.22472 205.8554558859925,90.82968987609397 206.15187801114476,90.4636390366094 206.4849390366094,90.13057801114475 206.85098987609396,89.83415588599252 207.24602000000002,89.57762032398618 207.66570137562462,89.3637819824266 208.10543588599253,89.19498371893246 208.56040570778774,89.0730749226019 209.0256260964341,88.99939125171858 209.496,88.97474 209.9663739035659,88.99939125171858 210.43159429221228,89.0730749226019 210.88656411400748,89.19498371893246 211.3262986243754,89.3637819824266 211.74598,89.57762032398617 212.14101012390606,89.83415588599252 212.50706096339061,90.13057801114475 212.84012198885526,90.4636390366094 213.1365441140075,90.82968987609397 213.39307967601383,91.22471999999999 213.6069180175734,91.64440137562461 213.77571628106756,92.08413588599251 213.89762507739812,92.53910570778771 213.97130874828142,93.00432609643408" fill="none" stroke="black" stroke-width="0.1"/>
            <polygon id="center_00" cx="219.746" cy="69.8963" points="224.746,69.8963 224.71860947684138,70.41894231633826 224.63673800366905,70.93585845408879 224.50128258147578,71.44138497187474 224.31372728821302,71.929983215379 224.0761270189222,72.3963 223.79108497187474,72.83522626146237 223.461724127387,73.24195303179428 223.0916530317943,73.61202412738697 222.68492626146238,73.94138497187474 222.246,74.2264270189222 221.779683215379,74.464027288213 221.29108497187474,74.65158258147576 220.7855584540888,74.78703800366902 220.2686423163383,74.86890947684137 219.746,74.8963 219.22335768366173,74.86890947684137 218.70644154591122,74.78703800366902 218.20091502812528,74.65158258147576 217.712316784621,74.464027288213 217.246,74.2264270189222 216.80707373853764,73.94138497187474 216.40034696820572,73.61202412738697 216.03027587261303,73.24195303179428 215.70091502812528,72.83522626146237 215.41587298107783,72.3963 215.178272711787,71.929983215379 214.99071741852424,71.44138497187474 214.855261996331,70.9358584540888 214.77339052315864,70.41894231633826 214.746,69.8963 214.77339052315864,69.37365768366173 214.85526199633097,68.8567415459112 214.99071741852424,68.35121502812527 215.178272711787,67.862616784621 215.41587298107783,67.3963 215.70091502812528,66.95737373853763 216.03027587261303,66.55064696820571 216.40034696820572,66.18057587261302 216.80707373853764,65.85121502812527 217.246,65.5661729810778 217.712316784621,65.32857271178699 218.20091502812528,65.14101741852423 218.70644154591122,65.00556199633097 219.22335768366173,64.92369052315863 219.746,64.8963 220.2686423163383,64.92369052315863 220.7855584540888,65.00556199633097 221.29108497187474,65.14101741852423 221.779683215379,65.32857271178699 222.246,65.5661729810778 222.68492626146238,65.85121502812525 223.0916530317943,66.18057587261302 223.461724127387,66.5506469682057 223.79108497187474,66.95737373853763 224.0761270189222,67.3963 224.31372728821302,67.862616784621 224.50128258147578,68.35121502812525 224.63673800366902,68.85674154591119 224.71860947684138,69.37365768366172" fill="none" stroke="black" stroke-width="0.1"/>
        </g>
    </g>
</svg>
