<?xml version="1.0" encoding="UTF-8" standalone="no"?>
<!-- Created with Inkscape (http://www.inkscape.org/) -->

<svg
   xmlns:dc="http://purl.org/dc/elements/1.1/"
   xmlns:cc="http://creativecommons.org/ns#"
   xmlns:rdf="http://www.w3.org/1999/02/22-rdf-syntax-ns#"
   xmlns:svg="http://www.w3.org/2000/svg"
   xmlns="http://www.w3.org/2000/svg"
   version="1.1"
   width="420mm"
   height="297mm"
   viewBox="-210 -148.5 420 297"
   id="svg2">
  <metadata
     id="metadata25">
    <rdf:RDF>
      <cc:Work
         rdf:about="">
        <dc:format>image/svg+xml</dc:format>
        <dc:type
           rdf:resource="http://purl.org/dc/dcmitype/StillImage" />
        <dc:title></dc:title>
      </cc:Work>
    </rdf:RDF>
  </metadata>
  <defs
     id="_tag_7_" />
  <g
     id="trashNode_001" />
  <g
     id="_tag_8_">
    <g
       id="_tag_9_"
       style="fill:#e6e6e6">
      <polygon
         points="63.736117,69.107082 63.507188,69.793781 63.332164,70.512027 63.217,71.28575 63.167648,72.138879 63.190063,73.095344 63.290195,74.179074 63.474,75.414 63.474,75.414 63.933154,77.098889 64.721922,78.840672 65.80326,80.5694 67.140125,82.215125 68.695475,83.707896 70.432266,84.977766 72.313455,85.954783 74.302,86.569 74.302,86.569 74.207555,86.024199 73.958562,84.587906 73.606539,82.557285 73.203,80.2295 72.799461,77.901715 72.447438,75.871094 72.198445,74.434801 72.104,73.89 72.104,73.89 72.039664,72.884893 72.171875,71.915891 72.484461,71.005975 72.96125,70.178125 73.58607,69.455322 74.34275,68.860547 75.215117,68.416779 76.187,68.147 76.187,68.147 77.197219,68.075598 78.171625,68.202969 79.086969,68.51273 79.92,68.9885 80.647469,69.613895 81.246125,70.372531 81.692719,71.248027 81.964,72.224 81.964,72.224 82.105002,73.039295 82.246016,73.854672 82.387053,74.670119 82.528125,75.485625 82.669244,76.301178 82.810422,77.116766 82.95167,77.932377 83.093,78.748 83.093,78.748 83.336117,78.975734 83.977063,79.576125 84.883227,80.424953 85.922,81.398 86.960773,82.371047 87.866938,83.219875 88.507883,83.820266 88.751,84.048 88.751,84.048 88.750613,84.046797 88.749594,84.043625 88.748152,84.039141 88.7465,84.034 88.744848,84.028859 88.743406,84.024375 88.742387,84.021203 88.742,84.02 88.742,84.02 88.742,84.02 88.742,84.02 88.742,84.02 88.742,84.02 88.742,84.02 88.742,84.02 88.742,84.02 88.742,84.02 88.742,84.02 89.085994,84.307322 89.459953,84.554016 89.860092,84.75742 90.282625,84.914875 90.723768,85.023721 91.179734,85.081297 91.64674,85.084943 92.121,85.032 92.121,85.032 92.893354,84.817004 93.586266,84.463281 94.186764,83.98923 94.681875,83.41325 95.058627,82.753738 95.304047,82.029094 95.405162,81.257715 95.349,80.458 95.349,80.458 95.299887,80.173504 95.170406,79.423469 94.987348,78.363074 94.7775,77.1475 94.567652,75.931926 94.384594,74.871531 94.255113,74.121496 94.206,73.837 94.206,73.837 94.071895,73.475805 93.718344,72.523562 93.218496,71.177289 92.6455,69.634 92.072504,68.090711 91.572656,66.744438 91.219105,65.792195 91.085,65.431 91.085,65.431 90.908828,65.220023 90.444375,64.663813 89.787734,63.877445 89.035,62.976 88.282266,62.074555 87.625625,61.288187 87.161172,60.731977 86.985,60.521 86.985,60.521 86.738875,60.394844 86.09,60.06225 85.172625,59.592031 84.121,59.053 83.069375,58.513969 82.152,58.04375 81.503125,57.711156 81.257,57.585 81.257,57.585 80.935207,57.577309 80.086844,57.557031 78.887434,57.528363 77.5125,57.4955 76.137566,57.462637 74.938156,57.433969 74.089793,57.413691 73.768,57.406 73.768,57.406 73.514785,57.528934 72.847219,57.853031 71.903418,58.311238 70.8215,58.8365 69.739582,59.361762 68.795781,59.819969 68.128215,60.144066 67.875,60.267 67.875,60.267 67.66802,60.48077 67.122344,61.044344 66.350871,61.841121 65.4665,62.7545 64.582129,63.667879 63.810656,64.464656 63.26498,65.02823 63.058,65.242 63.058,65.242 63.099035,65.378898 63.207219,65.739812 63.360168,66.25007 63.5355,66.835 63.710832,67.41993 63.863781,67.930188 63.971965,68.291102 64.013,68.428 64.013,68.428 "
         id="simplify_16_1"
         style="fill:#e6e6e6;stroke:#000000;stroke-width:0.1;stroke-linejoin:bevel" />
      <polygon
         points="63.901066,68.363805 63.605969,68.194563 63.188762,67.955289 62.7105,67.681 62.232238,67.406711 61.815031,67.167438 61.519934,66.998195 61.408,66.934 61.408,66.934 62.307566,65.014818 63.437406,63.228234 64.78198,61.596314 66.32575,60.141125 68.053176,58.884732 69.948719,57.849203 71.99684,57.056604 74.182,56.529 74.182,56.529 77.574246,56.28976 80.846281,56.718453 83.920176,57.760576 86.718,59.361625 89.161824,61.467096 91.173719,64.022484 92.675754,66.973287 93.59,70.265 93.59,70.265 93.665625,70.703281 93.865,71.85875 94.146875,73.492344 94.47,75.365 94.793125,77.237656 95.075,78.87125 95.274375,80.026719 95.35,80.465 95.35,80.465 95.405473,81.021043 95.383531,81.566094 95.288512,82.094035 95.12475,82.59875 94.896582,83.074121 94.608344,83.514031 94.264371,83.912363 93.869,84.263 93.869,84.263 93.76768,83.676906 93.500563,82.13175 93.122914,79.947219 92.69,77.443 92.257086,74.938781 91.879438,72.75425 91.61232,71.209094 91.511,70.623 91.511,70.623 90.709758,67.744652 89.395375,65.164594 87.635867,62.930426 85.49925,61.08975 83.053539,59.690168 80.36675,58.779281 77.506898,58.404691 74.542,58.614 74.542,58.614 72.782986,59.028693 71.124203,59.640297 69.576162,60.433846 68.149375,61.394375 66.854354,62.50692 65.701609,63.756516 64.701654,65.128197 63.865,66.607 63.865,66.607 63.898859,66.626766 63.988125,66.678875 64.114328,66.752547 64.259,66.837 64.403672,66.921453 64.529875,66.995125 64.619141,67.047234 64.653,67.067 64.653,67.067 64.566109,67.246066 64.481,67.421969 64.397766,67.595012 64.3165,67.7655 64.237297,67.933738 64.16025,68.100031 64.085453,68.264684 64.013,68.428 64.013,68.428 "
         id="simplify_17_1"
         style="fill:#e6e6e6;stroke:#000000;stroke-width:0.1;stroke-linejoin:bevel" />
      <polygon
         points="77.197219,68.062926 78.171625,68.190531 79.086969,68.500434 79.92,68.97625 80.647469,69.601598 81.246125,70.360094 81.692719,71.235355 81.964,72.211 81.964,72.211 82.035361,73.221221 81.907891,74.195641 81.598006,75.111021 81.122125,75.944125 80.496666,76.671713 79.738047,77.270547 78.862686,77.717389 77.887,77.989 77.887,77.989 76.876781,78.060074 75.902375,77.932469 74.987031,77.622566 74.154,77.14675 73.426531,76.521402 72.827875,75.762906 72.381281,74.887645 72.11,73.912 72.11,73.912 72.038598,72.901492 72.165969,71.926938 72.47573,71.011539 72.9515,70.1785 73.576895,69.451023 74.335531,68.852312 75.211027,68.40557 76.187,68.134 76.187,68.134 "
         id="simplify_18_1"
         style="fill:#e6e6e6;stroke:#000000;stroke-width:0.1;stroke-linejoin:bevel" />
      <polygon
         points="76.129895,97.466918 75.892344,96.064156 75.556496,94.080941 75.1715,91.8075 74.786504,89.534059 74.450656,87.550844 74.213105,86.148082 74.123,85.616 74.123,85.616 74.036203,85.113137 73.807375,83.787406 73.483859,81.913098 73.113,79.7645 72.742141,77.615902 72.418625,75.741594 72.189797,74.415863 72.103,73.913 72.103,73.913 72.03173,72.90133 72.159469,71.925578 72.469785,71.009006 72.94625,70.174875 73.572434,69.446447 74.331906,68.846984 75.208238,68.399748 76.185,68.128 76.185,68.128 77.197,68.056402 78.173,68.183906 79.08975,68.494082 79.924,68.9705 80.6525,69.59673 81.252,70.356344 81.69925,71.23291 81.971,72.21 81.971,72.21 82.018738,72.486805 82.144594,73.216562 82.322527,74.248289 82.5265,75.431 82.730473,76.613711 82.908406,77.645437 83.034262,78.375195 83.082,78.652 83.082,78.652 83.274586,78.83509 83.782313,79.317781 84.500133,80.000207 85.323,80.7825 86.145867,81.564793 86.863687,82.247219 87.371414,82.72991 87.564,82.913 87.564,82.913 88.609336,81.65965 89.506875,80.297516 90.246914,78.840342 90.81975,77.301875 91.21568,75.695861 91.425,74.036047 91.438008,72.336178 91.245,70.61 91.245,70.61 90.462244,67.796377 89.174141,65.272266 87.447686,63.084928 85.349875,61.281625 82.947705,59.909619 80.308172,59.016172 77.498271,58.648545 74.585,58.854 74.585,58.854 73.427078,59.10242 72.311063,59.438297 71.239953,59.857307 70.21675,60.355125 69.244453,60.927428 68.326063,61.569891 67.464578,62.278189 66.663,63.048 66.663,63.048 66.540387,63.178369 66.418031,63.309453 66.296285,63.441592 66.1755,63.575125 66.056027,63.710393 65.938219,63.847734 65.822426,63.98749 65.709,64.13 65.709,64.13 64.975475,65.128072 64.305734,66.161078 63.708908,67.224576 63.194125,68.314125 62.770514,69.425283 62.447203,70.553609 62.233322,71.694662 62.138,72.844 62.138,72.844 62.107492,73.643348 62.027062,75.750719 61.913352,78.730105 61.783,82.1455 61.652648,85.560895 61.538938,88.540281 61.458508,90.647652 61.428,91.447 61.428,91.447 61.388537,92.123135 61.325859,92.794453 61.240283,93.460451 61.132125,94.120625 61.001701,94.774471 60.849328,95.421484 60.675322,96.061162 60.48,96.693 60.48,96.693 60.341242,97.15125 60.23,97.61925 60.14707,98.095875 60.09325,98.58 60.069336,99.0705 60.076125,99.56625 60.114414,100.06612 60.185,100.569 60.185,100.569 60.387156,101.44482 60.679688,102.27534 61.056313,103.05613 61.51075,103.78275 62.036719,104.45078 62.627938,105.05578 63.278125,105.59333 63.981,106.059 63.981,106.059 63.887887,106.2173 63.642406,106.63462 63.295348,107.22464 62.8975,107.901 62.499652,108.57736 62.152594,109.16738 61.907113,109.5847 61.814,109.743 61.814,109.743 61.95898,109.76998 62.115281,109.79892 62.274441,109.82831 62.428,109.85663 62.567496,109.88237 62.684469,109.90402 62.770457,109.92006 62.817,109.929 62.817,109.929 64.155141,110.10955 65.530875,110.11925 66.921422,109.96226 68.304,109.64275 69.655828,109.1649 70.954125,108.53288 72.176109,107.75085 73.299,106.823 73.299,106.823 74.059229,106.04004 74.746391,105.17073 75.340576,104.21253 75.821875,103.16287 76.170377,102.01924 76.366172,100.77908 76.38935,99.439846 76.22,97.999 76.22,97.999 "
         id="simplify_19_1"
         style="fill:#e6e6e6;stroke:#000000;stroke-width:0.1;stroke-linejoin:bevel" />
      <polygon
         points="68.147969,94.766629 69.016063,94.880281 69.831563,95.156355 70.57375,95.58025 71.221906,96.137363 71.755313,96.813094 72.15325,97.59284 72.395,98.462 72.395,98.462 72.458658,99.362258 72.345141,100.2305 72.069084,101.04605 71.645125,101.78825 71.0879,102.43641 70.412047,102.96988 69.632201,103.36796 68.763,103.61 68.763,103.61 67.862742,103.67337 66.9945,103.5597 66.178945,103.28359 65.43675,102.85963 64.788586,102.30239 64.255125,101.62648 63.857039,100.84649 63.615,99.977 63.615,99.977 63.551631,99.077031 63.665297,98.208938 63.941408,97.393438 64.365375,96.65125 64.922607,96.003094 65.598516,95.469688 66.37851,95.07175 67.248,94.83 67.248,94.83 "
         id="simplify_20_1"
         style="fill:#e6e6e6;stroke:#000000;stroke-width:0.1;stroke-linejoin:bevel" />
      <polygon
         points="76.694098,66.954512 77.269219,66.660969 77.767605,66.267629 78.1785,65.78975 78.491145,65.24259 78.694781,64.641406 78.778652,64.001457 78.732,63.338 78.732,63.338 78.55351,62.696902 78.259953,62.121781 77.866576,61.623395 77.388625,61.2125 76.841346,60.899855 76.239984,60.696219 75.599787,60.612348 74.936,60.659 74.936,60.659 74.295232,60.83749 73.720359,61.131047 73.22215,61.524424 72.811375,62.002375 72.498803,62.549654 72.295203,63.151016 72.211346,63.791213 72.258,64.455 72.258,64.455 72.436488,65.095768 72.730031,65.670641 73.123371,66.16885 73.60125,66.579625 74.14841,66.892197 74.749594,67.095797 75.389543,67.179654 76.053,67.133 76.053,67.133 "
         id="simplify_22_1"
         style="fill:#e6e6e6;stroke:#000000;stroke-width:0.1;stroke-linejoin:bevel" />
      <polygon
         points="87.247768,74.450799 87.822641,74.157391 88.32085,73.764068 88.731625,73.286125 89.044197,72.738854 89.247797,72.137547 89.331654,71.497498 89.285,70.834 89.285,70.834 89.106512,70.192904 88.812969,69.617797 88.419629,69.119447 87.94175,68.708625 87.39459,68.3961 86.793406,68.192641 86.153457,68.109018 85.49,68.156 85.49,68.156 84.848902,68.33416 84.273781,68.627469 83.775395,69.020668 83.3645,69.4985 83.051855,70.045707 82.848219,70.647031 82.764348,71.287215 82.811,71.951 82.811,71.951 82.98949,72.591768 83.283047,73.166641 83.676424,73.66485 84.154375,74.075625 84.701654,74.388197 85.303016,74.591797 85.943213,74.675654 86.607,74.629 86.607,74.629 "
         id="simplify_24_1"
         style="fill:#e6e6e6;stroke:#000000;stroke-width:0.1;stroke-linejoin:bevel" />
      <polygon
         points="69.177768,77.541799 69.752641,77.248391 70.25085,76.855068 70.661625,76.377125 70.974197,75.829854 71.177797,75.228547 71.261654,74.588498 71.215,73.925 71.215,73.925 71.036512,73.284191 70.742969,72.709219 70.349629,72.210887 69.87175,71.8 69.32459,71.487363 68.723406,71.283781 68.083457,71.200059 67.42,71.247 67.42,71.247 66.778902,71.425201 66.203781,71.718609 65.705395,72.111932 65.2945,72.589875 64.981855,73.137146 64.778219,73.738453 64.694348,74.378502 64.741,75.042 64.741,75.042 64.91949,75.683096 65.213047,76.258203 65.606424,76.756553 66.084375,77.167375 66.631654,77.4799 67.233016,77.683359 67.873213,77.766982 68.537,77.72 68.537,77.72 "
         id="simplify_26_1"
         style="fill:#e6e6e6;stroke:#000000;stroke-width:0.1;stroke-linejoin:bevel" />
      <polyline
         id="simplify_27_1"
         points="74.649,88.771 72.546642578125,88.35558984375 70.540765625,87.66621875 68.656037109375,86.72030078125 66.917125,85.53525 65.348697265625,84.12848046875 63.975421875,82.51740625000001 62.821966796875,80.71944140625 61.913000000000004,78.752"
         stroke-linejoin="bevel"
         stroke-width="0.1"
         stroke="black"
         fill="none"
         style="fill:#e6e6e6;stroke:#000000;stroke-width:0.1;stroke-linejoin:bevel" />
      <polyline
         id="simplify_28_1"
         points="61.657000000000004,85.435 62.980070312500004,86.886259765625 64.4378125,88.192640625 66.0171484375,89.344919921875 67.705,90.333875 69.4882890625,91.150283203125 71.3539375,91.784921875 73.2888671875,92.228568359375 75.28,92.47200000000001"
         stroke-linejoin="bevel"
         stroke-width="0.1"
         stroke="black"
         fill="none"
         style="fill:#e6e6e6;stroke:#000000;stroke-width:0.1;stroke-linejoin:bevel" />
      <polygon
         points="77.103639,70.980174 77.509359,71.033141 77.890494,71.162068 78.237375,71.360125 78.540334,71.620479 78.789703,71.936297 78.975814,72.300748 79.089,72.707 79.089,72.707 79.118496,73.127967 79.065281,73.533922 78.936176,73.915197 78.738,74.262125 78.477574,74.565037 78.161719,74.814266 77.797254,75.000143 77.391,75.113 77.391,75.113 76.970361,75.142824 76.564641,75.089844 76.183506,74.960879 75.836625,74.76275 75.533666,74.502277 75.284297,74.186281 75.098186,73.821582 74.985,73.415 74.985,73.415 74.955504,72.994363 75.008719,72.588656 75.137824,72.207559 75.336,71.86075 75.596426,71.55791 75.912281,71.308719 76.276746,71.122855 76.683,71.01 76.683,71.01 "
         id="simplify_29_1"
         style="fill:#e6e6e6;stroke:#000000;stroke-width:0.1;stroke-linejoin:bevel" />
      <polygon
         points="76.082076,65.393699 76.363797,65.250031 76.6079,65.057473 76.809125,64.8235 76.962209,64.55559 77.061891,64.261219 77.102908,63.947863 77.08,63.623 77.08,63.623 76.992697,63.308924 76.849016,63.027203 76.65642,62.7831 76.422375,62.581875 76.154346,62.428791 75.859797,62.329109 75.546193,62.288092 75.221,62.311 75.221,62.311 74.907254,62.398303 74.625781,62.541984 74.381855,62.73458 74.18075,62.968625 74.027738,63.236654 73.928094,63.531203 73.88709,63.844807 73.91,64.17 73.91,64.17 73.997301,64.483746 74.140969,64.765219 74.333527,65.009145 74.5675,65.21025 74.83541,65.363262 75.129781,65.462906 75.443137,65.50391 75.768,65.481 75.768,65.481 "
         id="simplify_21_1"
         style="fill:#e6e6e6;stroke:#000000;stroke-width:0.1;stroke-linejoin:bevel" />
      <polygon
         points="68.565076,75.980699 68.846797,75.837031 69.0909,75.644473 69.292125,75.4105 69.445209,75.14259 69.544891,74.848219 69.585908,74.534863 69.563,74.21 69.563,74.21 69.475697,73.896254 69.332016,73.614781 69.13942,73.370855 68.905375,73.16975 68.637346,73.016738 68.342797,72.917094 68.029193,72.87609 67.704,72.899 67.704,72.899 67.390254,72.986301 67.108781,73.129969 66.864855,73.322527 66.66375,73.5565 66.510738,73.82441 66.411094,74.118781 66.37009,74.432137 66.393,74.757 66.393,74.757 66.480301,75.070746 66.623969,75.352219 66.816527,75.596145 67.0505,75.79725 67.31841,75.950262 67.612781,76.049906 67.926137,76.09091 68.251,76.068 68.251,76.068 "
         id="simplify_25_1"
         style="fill:#e6e6e6;stroke:#000000;stroke-width:0.1;stroke-linejoin:bevel" />
      <polygon
         points="86.635746,72.889699 86.917219,72.746031 87.161145,72.553473 87.36225,72.3195 87.515262,72.05159 87.614906,71.757219 87.65591,71.443863 87.633,71.119 87.633,71.119 87.545699,70.805211 87.402031,70.523625 87.209473,70.279539 86.9755,70.07825 86.70759,69.925055 86.413219,69.82525 86.099863,69.784133 85.775,69.807 85.775,69.807 85.460924,69.894344 85.179203,70.038125 84.9351,70.230844 84.733875,70.465 84.580791,70.733094 84.481109,71.027625 84.440092,71.341094 84.463,71.666 84.463,71.666 84.550303,71.979746 84.693984,72.261219 84.88658,72.505145 85.120625,72.70625 85.388654,72.859262 85.683203,72.958906 85.996807,72.99991 86.322,72.977 86.322,72.977 "
         id="simplify_23_1"
         style="fill:#e6e6e6;stroke:#000000;stroke-width:0.1;stroke-linejoin:bevel" />
    </g>
    <circle
       cx="77.037003"
       cy="73.061996"
       r="2.8789999"
       id="center_00"
       style="fill:#e6e6e6;stroke:#000000;stroke-width:0.1" />
  </g>
</svg>
