<!DOCTYPE svg PUBLIC "-//W3C//DTD SVG 1.1//EN" "http://www.w3.org/Graphics/SVG/1.1/DTD/svg11.dtd">
<svg xmlns="http://www.w3.org/2000/svg" width="420mm" height="297mm" viewBox="-210 -148.5 420 297">
    <polygon id="simplify_13_1" points="-15.295999999999992,10.296999999999997 -16.021,9.25 -17.560000000000002,5.834000000000003 -18.363,2.288000000000011 -18.456999999999994,-1.2870000000000061 -17.870000000000005,-4.787000000000006 -16.628,-8.113 -14.759,-11.161000000000001 -12.290999999999997,-13.830999999999989 -9.25,-16.020999999999987 -9.25,-16.020999999999987 -5.832999999999998,-17.558999999999997 -2.286999999999992,-18.361999999999995 1.2870000000000061,-18.45599999999999 4.787999999999997,-17.869 8.113,-16.62700000000001 11.162000000000006,-14.758999999999986 13.831000000000003,-12.290999999999997 16.021,-9.25 25.49199999999999,7.206000000000017 16.625,6.848000000000013 16.11200000000001,6.811000000000007 15.604,6.728000000000009 15.102000000000004,6.599999999999994 14.611000000000004,6.425000000000011 14.134,6.2050000000000125 13.674000000000007,5.938999999999993 13.235,5.6270000000000095 12.819000000000003,5.268000000000001 12.819000000000003,5.268000000000001 12.423000000000002,4.893000000000001 11.379000000000005,3.9039999999999964 9.903000000000006,2.5049999999999955 8.212000000000003,0.9020000000000152 6.519999999999996,-0.7009999999999934 5.045000000000002,-2.0989999999999895 4.001000000000005,-3.0889999999999986 3.605000000000004,-3.4639999999999986 3.605000000000004,-3.4639999999999986 3.585000000000008,-3.484999999999985 3.5649999999999977,-3.5060000000000002 3.543999999999997,-3.526999999999987 3.522999999999996,-3.546999999999997 3.5019999999999953,-3.5679999999999836 3.4810000000000088,-3.587999999999994 3.460000000000008,-3.608000000000004 3.439000000000007,-3.6289999999999907 3.439000000000007,-3.6289999999999907 2.6370000000000005,-4.2479999999999905 1.7560000000000002,-4.681999999999988 0.8220000000000027,-4.931999999999988 -0.1349999999999909,-4.9979999999999905 -1.0870000000000033,-4.881 -2.0060000000000002,-4.580999999999989 -2.8619999999999948,-4.099999999999994 -3.629000000000005,-3.438999999999993 -3.629000000000005,-3.438999999999993 -4.248999999999995,-2.6370000000000005 -4.682999999999993,-1.7560000000000002 -4.932999999999993,-0.8220000000000027 -4.998999999999995,0.1349999999999909 -4.882000000000005,1.086999999999989 -4.581999999999994,2.0060000000000002 -4.102000000000004,2.8629999999999995 -3.4399999999999977,3.6289999999999907 -3.4399999999999977,3.6289999999999907 -3.3670000000000044,3.6990000000000123 -3.1739999999999924,3.8810000000000002 -2.9009999999999962,4.140000000000015 -2.5889999999999986,4.436000000000007 -2.2759999999999962,4.731999999999999 -2.003,4.990000000000009 -1.8100000000000023,5.173000000000002 -1.7369999999999948,5.24199999999999 -1.7369999999999948,5.24199999999999 -1.0750000000000028,6.0090000000000146 -0.5949999999999989,6.866000000000014 -0.2950000000000017,7.784999999999997 -0.17799999999999727,8.736999999999995 -0.24399999999999977,9.694000000000017 -0.4939999999999998,10.628000000000014 -0.9279999999999973,11.509999999999991 -1.546999999999997,12.311000000000007" fill="none" stroke="black" stroke-width="0.1"/>
    <polygon id="simplify_14_1" points="-15.933999999999997,33.976 -15.863,33.77600000000001 -15.674999999999997,33.24600000000001 -15.408999999999992,32.49799999999999 -15.104,31.64099999999999 -14.798999999999992,30.783000000000015 -14.533000000000001,30.034999999999997 -14.344999999999999,29.506 -14.272999999999996,29.305000000000007 -14.272999999999996,29.305000000000007 -14.277000000000001,29.298000000000002 -14.287999999999997,29.28 -14.302999999999997,29.254999999999995 -14.319999999999993,29.224999999999994 -14.337000000000003,29.195999999999998 -14.352000000000004,29.170000000000016 -14.363,29.152000000000015 -14.367000000000004,29.14500000000001 -14.367000000000004,29.14500000000001 -14.387,29.128000000000014 -14.441000000000003,29.081000000000017 -14.515999999999991,29.015000000000015 -14.602999999999994,28.938999999999993 -14.688999999999993,28.864000000000004 -14.765,28.798000000000002 -14.817999999999998,28.751000000000005 -14.837999999999994,28.733000000000004 -14.837999999999994,28.733000000000004 -15.369,28.171999999999997 -15.825000000000003,27.568000000000012 -16.206000000000003,26.927999999999997 -16.513000000000005,26.25800000000001 -16.744,25.564999999999998 -16.89999999999999,24.85499999999999 -16.980999999999995,24.134000000000015 -16.986000000000004,23.408999999999992 -16.986000000000004,23.408999999999992 -16.876999999999995,21.313000000000017 -16.870999999999995,19.22800000000001 -16.967,17.156000000000006 -17.165999999999997,15.100999999999999 -17.467,13.063999999999993 -17.870999999999995,11.046999999999997 -18.376000000000005,9.051999999999992 -18.983000000000004,7.081999999999994 -18.983000000000004,7.081999999999994 -19.257000000000005,6.2379999999999995 -19.494,5.384999999999991 -19.692999999999998,4.524000000000001 -19.855999999999995,3.6580000000000155 -19.980999999999995,2.7860000000000014 -20.069000000000003,1.9120000000000061 -20.120999999999995,1.0349999999999966 -20.135000000000005,0.1570000000000107 -20.135000000000005,0.1570000000000107 -20.132999999999996,0.11199999999999477 -20.125,0.0660000000000025 -20.114000000000004,0.020000000000010232 -20.098,-0.025000000000005684 -20.076999999999998,-0.0689999999999884 -20.051999999999992,-0.11099999999999 -20.02199999999999,-0.15100000000001046 -19.988,-0.18899999999999295 -19.988,-0.18899999999999295 -19.947999999999993,-0.22499999999999432 -19.905,-0.2560000000000002 -19.858999999999995,-0.28299999999998704 -19.811999999999998,-0.30400000000000205 -19.763000000000005,-0.3199999999999932 -19.712999999999994,-0.3299999999999841 -19.662999999999997,-0.3359999999999843 -19.611999999999995,-0.3369999999999891 -17.467,-0.04099999999999682 -16.914,-0.044999999999987494 -16.363,-0.10599999999999454 -15.820999999999998,-0.22499999999999432 -15.292000000000002,-0.4019999999999868 -14.780000000000001,-0.6349999999999909 -14.290999999999997,-0.9269999999999925 -13.829999999999998,-1.2750000000000057 -13.400999999999996,-1.6800000000000068 -13.400999999999996,-1.6800000000000068 -13.192999999999998,-1.913000000000011 -13.001000000000005,-2.1539999999999964 -12.825000000000003,-2.4039999999999964 -12.665999999999997,-2.6610000000000014 -12.522999999999996,-2.9240000000000066 -12.396,-3.1929999999999836 -12.286000000000001,-3.4669999999999845 -12.191000000000003,-3.7460000000000093 -12.191000000000003,-3.7460000000000093 -11.962000000000003,-4.424000000000007 -11.694000000000003,-5.091000000000008 -11.385999999999996,-5.746000000000009 -11.039000000000001,-6.385999999999996 -10.652000000000001,-7.010999999999996 -10.225999999999999,-7.61699999999999 -9.760000000000005,-8.204000000000008 -9.254999999999995,-8.77000000000001 -9.254999999999995,-8.77000000000001 -7.299999999999997,-10.456999999999994 -5.114000000000004,-11.682999999999993 -2.771000000000001,-12.447000000000003 -0.3430000000000035,-12.74600000000001 2.097999999999999,-12.578000000000003 4.478999999999999,-11.941000000000003 6.727000000000004,-10.834000000000003 8.771,-9.254999999999995 8.771,-9.254999999999995 9.929000000000002,-8.001000000000005 10.888999999999996,-6.63900000000001 11.650999999999996,-5.186999999999983 12.213999999999999,-3.665999999999997 12.576999999999998,-2.0979999999999848 12.740000000000009,-0.5020000000000095 12.703000000000003,1.1020000000000039 12.463999999999999,2.6910000000000025 12.463999999999999,2.6910000000000025 12.451999999999998,2.7369999999999948 12.436000000000007,2.7820000000000107 12.418000000000006,2.8259999999999934 12.396,2.8700000000000045 12.372,2.913000000000011 12.343000000000004,2.9540000000000077 12.311999999999998,2.9950000000000045 12.278000000000006,3.0330000000000155 12.278000000000006,3.0330000000000155 12.162999999999997,3.1330000000000098 12.034000000000006,3.2050000000000125 11.897000000000006,3.2510000000000048 11.754999999999995,3.2690000000000055 11.614000000000004,3.2609999999999957 11.477000000000004,3.227000000000004 11.349000000000004,3.164999999999992 11.234000000000009,3.076999999999998 11.234000000000009,3.076999999999998 10.239000000000004,2.1330000000000098 9.295000000000002,1.2319999999999993 8.382999999999996,0.36199999999999477 7.487000000000009,-0.4939999999999998 6.590000000000003,-1.3479999999999848 5.676000000000002,-2.2169999999999845 4.728000000000009,-3.1129999999999995 3.7280000000000086,-4.050999999999988 3.7280000000000086,-4.050999999999988 2.8460000000000036,-4.731999999999999 1.8769999999999953,-5.209000000000003 0.8500000000000085,-5.484000000000009 -0.20300000000000296,-5.556999999999988 -1.25,-5.427999999999997 -2.2609999999999957,-5.0989999999999895 -3.2039999999999935,-4.569999999999993 -4.046999999999997,-3.8429999999999893 -4.046999999999997,-3.8429999999999893 -4.728999999999999,-2.9609999999999843 -5.206000000000003,-1.9909999999999854 -5.4809999999999945,-0.9639999999999986 -5.552999999999997,0.08899999999999864 -5.423999999999992,1.1359999999999957 -5.094999999999999,2.1469999999999914 -4.5660000000000025,3.0900000000000034 -3.837999999999994,3.9329999999999927 -3.837999999999994,3.9329999999999927 -3.649000000000001,4.1129999999999995 -3.1509999999999962,4.585000000000008 -2.4470000000000027,5.253999999999991 -1.6400000000000006,6.02000000000001 -0.8329999999999984,6.786000000000001 -0.1290000000000049,7.454000000000008 0.3689999999999998,7.9269999999999925 0.5580000000000069,8.105999999999995 0.5580000000000069,8.105999999999995 0.6820000000000022,10.825000000000017 0.5220000000000056,13.544000000000011 0.07800000000000296,16.238 -0.6509999999999962,18.884000000000015 -1.6659999999999968,21.458 -2.9669999999999987,23.935000000000002 -4.555999999999997,26.292 -6.432000000000002,28.50399999999999 -6.432000000000002,28.50399999999999 -7.417000000000002,29.49000000000001 -8.441000000000003,30.411 -9.501000000000005,31.269000000000005 -10.594999999999999,32.06399999999999 -11.721000000000004,32.79400000000001 -12.875,33.46100000000001 -14.055999999999997,34.06399999999999 -15.260000000000005,34.60300000000001 -15.260000000000005,34.60300000000001 -15.328000000000003,34.626000000000005 -15.397999999999996,34.63900000000001 -15.468999999999994,34.64099999999999 -15.539000000000001,34.63300000000001 -15.608999999999995,34.61500000000001 -15.676999999999992,34.587999999999994 -15.742000000000004,34.55199999999999 -15.804000000000002,34.507000000000005 -15.804000000000002,34.507000000000005 -15.855999999999995,34.45500000000001 -15.897999999999996,34.396000000000015 -15.929000000000002,34.33100000000002 -15.950000000000003,34.262 -15.960999999999999,34.19 -15.962000000000003,34.11699999999999 -15.953000000000003,34.04599999999999" fill="none" stroke="black" stroke-width="0.1"/>
    <polygon id="simplify_15_1" points="-5.736999999999995,22.736999999999995 -5.6370000000000005,23.643 -5.716999999999999,24.524 -5.962999999999994,25.35900000000001 -6.361000000000004,26.125 -6.896999999999991,26.801000000000016 -7.557999999999993,27.36699999999999 -8.328999999999994,27.799000000000007 -9.197000000000003,28.078000000000003 -9.197000000000003,28.078000000000003 -10.102999999999994,28.179000000000002 -10.983999999999995,28.09899999999999 -11.817999999999998,27.85300000000001 -12.582999999999998,27.455000000000013 -13.260000000000005,26.918000000000006 -13.825000000000003,26.257000000000005 -14.257999999999996,25.48599999999999 -14.536999999999992,24.617999999999995 -14.536999999999992,24.617999999999995 -14.637,23.712000000000018 -14.557000000000002,22.831000000000017 -14.310999999999993,21.997000000000014 -13.912999999999997,21.230999999999995 -13.376999999999995,20.555000000000007 -12.715999999999994,19.989000000000004 -11.944999999999993,19.55600000000001 -11.076999999999998,19.277000000000015 -11.076999999999998,19.277000000000015 -10.170999999999992,19.177999999999997 -9.289999999999992,19.25800000000001 -8.456000000000003,19.50399999999999 -7.689999999999998,19.902000000000015 -7.013999999999996,20.438000000000017 -6.447999999999993,21.09899999999999 -6.015999999999991,21.870000000000005" fill="none" stroke="black" stroke-width="0.1"/>
    <polygon id="simplify_16_1" points="6.626000000000005,-7.902999999999992 6.823999999999998,-7.673000000000002 6.9680000000000035,-7.415999999999997 7.058000000000007,-7.139999999999986 7.0930000000000035,-6.85499999999999 7.073999999999998,-6.567999999999984 6.999000000000009,-6.288000000000011 6.869,-6.022999999999996 6.683000000000007,-5.782999999999987 6.683000000000007,-5.782999999999987 6.451999999999998,-5.584000000000003 6.195000000000007,-5.439999999999998 5.918999999999997,-5.350999999999999 5.634,-5.3160000000000025 5.347000000000008,-5.335999999999984 5.067000000000007,-5.411000000000001 4.802000000000007,-5.540999999999997 4.561999999999998,-5.727000000000004 4.561999999999998,-5.727000000000004 4.3629999999999995,-5.956999999999994 4.219000000000008,-6.212999999999994 4.129000000000005,-6.489000000000004 4.094000000000008,-6.774000000000001 4.114000000000004,-7.061000000000007 4.189000000000007,-7.3419999999999845 4.319000000000003,-7.6059999999999945 4.5049999999999955,-7.847000000000008 4.5049999999999955,-7.847000000000008 4.734999999999999,-8.044999999999987 4.992000000000004,-8.188999999999993 5.268000000000001,-8.278999999999996 5.554000000000002,-8.313999999999993 5.841000000000008,-8.294000000000011 6.121000000000009,-8.218999999999994 6.385999999999996,-8.088999999999999" fill="none" stroke="black" stroke-width="0.1"/>
    <polygon id="simplify_17_1" points="-8.983000000000004,6.915999999999997 -8.784999999999997,7.146000000000015 -8.640999999999991,7.402999999999992 -8.551000000000002,7.679000000000002 -8.515999999999991,7.965000000000003 -8.534999999999997,8.25200000000001 -8.61,8.53200000000001 -8.739999999999995,8.795999999999992 -8.926000000000002,9.036000000000001 -8.926000000000002,9.036000000000001 -9.155999999999992,9.235000000000014 -9.412999999999997,9.37899999999999 -9.688999999999993,9.468999999999994 -9.974999999999994,9.50399999999999 -10.262,9.485000000000014 -10.542000000000002,9.409999999999997 -10.807000000000002,9.280000000000001 -11.046999999999997,9.093999999999994 -11.046999999999997,9.093999999999994 -11.245000000000005,8.864000000000004 -11.39,8.607 -11.479,8.331000000000017 -11.513999999999996,8.045999999999992 -11.495000000000005,7.7590000000000146 -11.420000000000002,7.478000000000009 -11.289999999999992,7.213999999999999 -11.104,6.973000000000013 -11.104,6.973000000000013 -10.873999999999995,6.775000000000006 -10.616,6.6299999999999955 -10.340999999999994,6.539999999999992 -10.054999999999993,6.5049999999999955 -9.768,6.525000000000006 -9.488,6.599999999999994 -9.222999999999999,6.72999999999999" fill="none" stroke="black" stroke-width="0.1"/>
    <polygon id="simplify_19_1" points="14.289000000000001,-8.25 14.668999999999997,-7.590000000000003 15.673000000000002,-5.849999999999994 17.091000000000008,-3.3899999999999864 18.717,-0.5699999999999932 20.343000000000004,2.25 21.760999999999996,4.710000000000008 22.763999999999996,6.450000000000017 23.14500000000001,7.110000000000014 23.14500000000001,7.110000000000014 23.069000000000017,7.106999999999999 22.86800000000001,7.0989999999999895 22.584000000000003,7.086999999999989 22.259,7.074000000000012 21.933999999999997,7.061000000000007 21.650000000000006,7.050000000000011 21.448999999999998,7.040999999999997 21.373000000000005,7.038000000000011 21.373000000000005,7.038000000000011 21.013000000000005,6.414000000000016 20.063000000000002,4.766999999999996 18.721000000000004,2.4380000000000166 17.182000000000002,-0.23099999999999454 15.643,-2.9000000000000057 14.301000000000002,-5.228000000000009 13.350999999999999,-6.875 12.991,-7.5 12.991,-7.5 11.216000000000008,-9.966000000000008 9.052000000000007,-11.96799999999999 6.579999999999998,-13.483000000000004 3.8829999999999956,-14.490000000000009 1.0450000000000017,-14.966000000000008 -1.8539999999999992,-14.88900000000001 -4.730000000000004,-14.238 -7.5,-12.990999999999985 -7.5,-12.990999999999985 -8.790999999999997,-12.156000000000006 -9.968000000000004,-11.212999999999994 -11.028999999999996,-10.173000000000002 -11.971000000000004,-9.044999999999987 -12.790999999999997,-7.841000000000008 -13.486000000000004,-6.569999999999993 -14.054000000000002,-5.242999999999995 -14.491,-3.8710000000000093 -14.491,-3.8710000000000093 -14.572999999999993,-3.625 -14.670000000000002,-3.383999999999986 -14.780000000000001,-3.1469999999999914 -14.905000000000001,-2.914999999999992 -15.045000000000002,-2.6899999999999977 -15.197999999999993,-2.469999999999999 -15.366,-2.2580000000000098 -15.548000000000002,-2.054000000000002 -15.548000000000002,-2.054000000000002 -15.676999999999992,-1.9099999999999966 -15.86,-1.711999999999989 -16.096999999999994,-1.4819999999999993 -16.39,-1.2419999999999902 -16.739999999999995,-1.01400000000001 -17.14999999999999,-0.8220000000000027 -17.619,-0.6879999999999882 -18.14999999999999,-0.6339999999999861 -18.14999999999999,-0.6339999999999861 -17.933999999999997,-2.055999999999983 -17.522999999999996,-3.5209999999999866 -16.935000000000002,-4.994 -16.188999999999993,-6.443999999999988 -15.301000000000002,-7.836999999999989 -14.292000000000002,-9.140999999999991 -13.179000000000002,-10.323999999999984 -11.979,-11.353000000000009 -11.979,-11.353000000000009 -11.561999999999998,-11.777999999999992 -11.129000000000005,-12.186999999999983 -10.682000000000002,-12.579000000000008 -10.221000000000004,-12.955999999999989 -9.747,-13.314999999999998 -9.259999999999991,-13.65700000000001 -8.760999999999996,-13.982 -8.25,-14.288999999999987 -8.25,-14.288999999999987 -5.203000000000003,-15.661000000000001 -2.039999999999992,-16.37700000000001 1.1479999999999961,-16.460999999999984 4.269999999999996,-15.936999999999983 7.236000000000004,-14.829999999999984 9.954999999999998,-13.163000000000011 12.335999999999999,-10.961999999999989" fill="none" stroke="black" stroke-width="0.1"/>
    <polyline id="simplify_SVG__000095" points="-18.491,-0.6399999999999864 -17.89999999999999,-0.6440000000000055 -17.319000000000003,-0.7119999999999891 -16.75,-0.8419999999999845 -16.197999999999993,-1.0339999999999918 -15.664000000000001,-1.288000000000011 -15.152999999999992,-1.6030000000000086 -14.667000000000002,-1.978999999999985 -14.209999999999994,-2.415999999999997 -14.209999999999994,-2.415999999999997 -13.986000000000004,-2.665999999999997 -13.780000000000001,-2.9259999999999877 -13.590999999999994,-3.194999999999993 -13.420000000000002,-3.4710000000000036 -13.265,-3.7560000000000002 -13.129000000000005,-4.045999999999992 -13.009,-4.342999999999989 -12.906999999999996,-4.64500000000001 -12.906999999999996,-4.64500000000001 -12.655999999999992,-5.289999999999992 -12.370999999999995,-5.924999999999983 -12.052999999999997,-6.546999999999997 -11.700999999999993,-7.156000000000006 -11.314999999999998,-7.75 -10.894999999999996,-8.329000000000008 -10.441000000000003,-8.88900000000001 -9.953000000000003,-9.431999999999988 -9.953000000000003,-9.431999999999988 -7.849999999999994,-11.24600000000001 -5.5,-12.564999999999998 -2.980000000000004,-13.385999999999996 -0.3689999999999998,-13.707999999999998 2.2560000000000002,-13.526999999999987 4.817000000000007,-12.841999999999985 7.234999999999999,-11.651999999999987 9.433000000000007,-9.953000000000003 9.433000000000007,-9.953000000000003 10.790000000000006,-8.465000000000003 11.89,-6.837999999999994 12.732,-5.100999999999999 13.314999999999998,-3.281000000000006 13.64,-1.4099999999999966 13.704000000000008,0.48500000000001364 13.507000000000005,2.3729999999999905 13.049000000000007,4.225999999999999 13.049000000000007,4.225999999999999 13.043999999999997,4.239000000000004 13.033000000000001,4.271000000000015 13.016000000000005,4.318000000000012 12.997,4.371000000000009 12.978000000000009,4.424000000000007 12.962000000000003,4.469999999999999 12.950000000000003,4.503000000000014 12.945999999999998,4.515000000000015 12.945999999999998,4.515000000000015 12.945000000000007,4.52000000000001 12.942999999999998,4.5330000000000155 12.939000000000007,4.551000000000016 12.935000000000002,4.570999999999998 12.930999999999997,4.592000000000013 12.927999999999997,4.610000000000014 12.926000000000002,4.622000000000014 12.924999999999997,4.6270000000000095 12.924999999999997,4.6270000000000095 12.912999999999997,4.765000000000015 12.918000000000006,4.902999999999992 12.939000000000007,5.039999999999992 12.975000000000009,5.175000000000011 13.028000000000006,5.304000000000002 13.096000000000004,5.427999999999997 13.180999999999997,5.545000000000016 13.281000000000006,5.652000000000015 13.281000000000006,5.652000000000015 13.299999999999997,5.670000000000016 13.320000000000007,5.687000000000012 13.340000000000003,5.704000000000008 13.36,5.721000000000004 13.381,5.73599999999999 13.402000000000001,5.7520000000000095 13.423000000000002,5.766999999999996 13.444000000000003,5.781000000000006" fill="none" stroke="black" stroke-width="0.1"/>
    <line id="simplify_22" x1="-11.979" y1="-11.353000000000009" x2="-10.899000000000001" y2="-10.311999999999983" stroke="black" stroke-width="0.1"/>
    <circle id="simplify_21" cx="0" cy="0" r="5.0" fill="none" stroke="black" stroke-width="0.1"/>
    <circle id="center_00" cx="0" cy="0" r="2.0" fill="none" stroke="black" stroke-width="0.1"/>
</svg>
