<?xml version="1.0" encoding="UTF-8"?>
<!DOCTYPE svg PUBLIC "-//W3C//DTD SVG 1.1//EN" "http://www.w3.org/Graphics/SVG/1.1/DTD/svg11.dtd">
<!-- Creator: CorelDRAW -->
<svg xmlns="http://www.w3.org/2000/svg" xml:space="preserve" width="210mm" height="297mm" style="shape-rendering:geometricPrecision; text-rendering:geometricPrecision; image-rendering:optimizeQuality; fill-rule:evenodd; clip-rule:evenodd"
viewBox="0 0 210 297"
 xmlns:dc="http://purl.org/dc/elements/1.1/"
 xmlns:cc="http://creativecommons.org/ns#"
 xmlns:rdf="http://www.w3.org/1999/02/22-rdf-syntax-ns#"
 xmlns:svg="http://www.w3.org/2000/svg"
 version="1.1">
 <defs>
  <style type="text/css">
   <![CDATA[
    .str1 {stroke:#1F1A17;stroke-width:0.0762}
    .str0 {stroke:black;stroke-width:0.1}
    .fil1 {fill:none}
    .fil0 {fill:black}
   ]]>
  </style>
 </defs>
 <g id="Ebene_x0020_1">
  <metadata id="CorelCorpID_0Corel-Layer"/>
  <metadata id="metadata22">
   <rdf:RDF>
    <cc:Work rdf:about="">
     <dc:format>
      image/svg+xml     </dc:format>
     <dc:type rdf:resource="http://purl.org/dc/dcmitype/StillImage"/>
     <dc:title/>
    </cc:Work>
   </rdf:RDF>
  </metadata>
  <circle id="center_00" class="fil0" cx="37.5045" cy="76.3374" r="7.874"/>
  <polygon id="dropout_1" class="fil0 str0" points="19.5715,70.7214 21.1305,67.7194 27.5035,59.2344 34.1165,50.4884 35.3655,46.6504 36.0155,44.3744 37.1285,42.5104 38.7925,41.4274 40.7445,40.7944 42.5975,40.2464 43.9685,39.4174 54.5365,29.2394 56.7755,30.0434 67.4335,18.3474 68.6765,19.0284 69.4045,20.2224 67.1605,24.8984 67.0935,26.4914 67.6455,27.4944 68.7525,27.8394 70.3525,27.4584 74.7775,24.2394 76.1165,24.8694 76.9275,26.0254 67.6125,38.1674 69.0005,40.1094 65.0665,45.1464 62.2835,49.7544 60.6275,53.9454 60.2115,57.7044 61.1465,61.0194 63.5425,63.8764 67.5115,66.2624 73.1655,68.1664 75.0465,69.7734 90.7195,70.4874 91.3015,72.7164 90.8095,74.5944 86.2905,75.1194 83.3415,76.1764 81.8125,77.5774 81.5555,79.1374 82.4215,80.6704 84.2625,81.9924 86.9285,82.9144 90.2715,83.2544 90.5835,85.7544 90.0035,88.0754 72.8965,87.4504 72.1805,89.2364 53.7305,87.8974 51.7605,86.5584 45.5345,81.4994 42.9835,75.0404 41.9345,72.6864 40.3065,71.2064 38.3515,70.5364 36.3225,70.6114 34.4705,71.3694 33.0485,72.7444 32.3095,74.6744 32.5045,77.0944 33.8485,82.8084 27.3785,83.1804 25.0065,82.6494 23.1335,81.7124 20.6505,78.8394 19.4685,74.9944 19.4685,74.9944 "/>
  <polygon id="hanger_1" class="fil1 str0" points="22.1215,89.3384 22.6385,92.3494 22.7795,95.1634 22.7925,100.201 23.0935,102.421 23.8745,104.441 25.3525,106.26 27.7395,107.877 27.7575,108.669 27.2405,110.193 26.7645,111.685 26.7215,112.178 26.9055,112.377 29.7975,111.941 32.2355,111.002 34.2245,109.663 35.7685,108.027 36.8715,106.198 37.5365,104.278 37.7695,102.369 37.5745,100.576 35.3015,89.6454 32.6516,76.7955 32.6854,75.7361 32.979,74.2466 33.7151,73.3262 34.6558,72.0993 36.3945,71.582 38.2885,71.2484 40.1619,72.1091 41.6125,73.0734 42.3189,74.6645 43.7135,78.5464 44.8985,81.2674 45.8375,82.4804 47.1705,83.6674 51.5065,86.1824 52.1165,85.4034 52.3955,84.5514 52.2255,82.6864 50.8735,78.7324 50.7415,76.0034 51.0035,73.4314 51.5805,70.9844 52.3935,68.6314 53.1475,66.2214 53.4265,64.0274 53.2845,62.0614 52.7715,60.3324 51.9405,58.8504 50.8435,57.6254 49.5325,56.6664 48.0595,55.9854 46.4755,55.5904 44.8345,55.4924 43.1875,55.7004 41.5875,56.2254 40.0845,57.0764 38.7325,58.2634 37.5825,59.7974 36.6875,61.6874 35.2915,64.1864 33.4935,66.2314 31.3605,67.8974 28.9615,69.2634 19.7155,72.1674 18.9245,73.3124 18.7735,74.3304 18.9555,76.2704 18.9555,76.2704 18.9555,76.2704 "/>
  <polygon id="rack_1" class="fil1 str0" points="41.3165,45.9604 41.2855,46.1514 41.2355,46.3374 41.1665,46.5164 41.0795,46.6884 40.9735,46.8494 40.8525,46.9994 40.7165,47.1354 40.5665,47.2564 40.4045,47.3614 40.2325,47.4484 40.0515,47.5174 39.8655,47.5674 39.6745,47.5974 39.4825,47.6074 39.2895,47.5974 39.0985,47.5674 38.9125,47.5174 38.7325,47.4484 38.5605,47.3614 38.3985,47.2564 38.2485,47.1354 38.1115,46.9994 37.9905,46.8494 37.8845,46.6884 37.7975,46.5164 37.7285,46.3374 37.6785,46.1514 37.6485,45.9604 37.6375,45.7684 37.6485,45.5764 37.6785,45.3864 37.7285,45.2004 37.7975,45.0204 37.8845,44.8484 37.9905,44.6874 38.1115,44.5374 38.2485,44.4014 38.3985,44.2804 38.5605,44.1754 38.7325,44.0884 38.9125,44.0194 39.0985,43.9694 39.2895,43.9394 39.4825,43.9294 39.6745,43.9394 39.8655,43.9694 40.0515,44.0194 40.2325,44.0884 40.4045,44.1754 40.5665,44.2804 40.7165,44.4014 40.8525,44.5374 40.9735,44.6874 41.0795,44.8484 41.1665,45.0204 41.2355,45.2004 41.2855,45.3864 41.3165,45.5764 41.3265,45.7684 "/>
  <polygon id="mudguard_1" class="fil1 str0" points="32.0955,63.1284 32.0655,63.3194 32.0155,63.5054 31.9465,63.6844 31.8585,63.8564 31.7535,64.0174 31.6325,64.1674 31.4955,64.3034 31.3455,64.4244 31.1835,64.5294 31.0115,64.6174 30.8315,64.6864 30.6455,64.7354 30.4545,64.7654 30.2615,64.7764 30.0685,64.7654 29.8785,64.7354 29.6915,64.6864 29.5115,64.6174 29.3395,64.5294 29.1775,64.4244 29.0275,64.3034 28.8915,64.1674 28.7695,64.0174 28.6645,63.8564 28.5765,63.6844 28.5075,63.5054 28.4575,63.3194 28.4275,63.1284 28.4175,62.9364 28.4275,62.7444 28.4575,62.5544 28.5075,62.3684 28.5765,62.1884 28.6645,62.0164 28.7695,61.8554 28.8915,61.7054 29.0275,61.5694 29.1775,61.4484 29.3395,61.3434 29.5115,61.2564 29.6915,61.1874 29.8785,61.1374 30.0685,61.1074 30.2615,61.0974 30.4545,61.1074 30.6455,61.1374 30.8315,61.1874 31.0115,61.2564 31.1835,61.3434 31.3455,61.4484 31.4955,61.5694 31.6325,61.7054 31.7535,61.8554 31.8585,62.0164 31.9465,62.1884 32.0155,62.3684 32.0655,62.5544 32.0955,62.7444 32.1055,62.9364 "/>
  <polygon id="derailleur_1" class="fil1 str0" points="34.5395,100.665 34.4635,101.141 34.3385,101.606 34.1655,102.055 33.9465,102.484 33.6845,102.888 33.3805,103.262 33.0385,103.602 32.6645,103.905 32.2595,104.167 31.8295,104.386 31.3785,104.558 30.9125,104.683 30.4365,104.758 29.9545,104.783 29.4725,104.758 28.9955,104.683 28.5295,104.558 28.0795,104.386 27.6495,104.167 27.2445,103.905 26.8695,103.602 26.5275,103.262 26.2245,102.888 25.9615,102.484 25.7425,102.055 25.5695,101.606 25.4445,101.141 25.3695,100.665 25.3435,100.185 25.3695,99.7044 25.4445,99.2284 25.5695,98.7634 25.7425,98.3144 25.9615,97.8854 26.2245,97.4824 26.5275,97.1084 26.8695,96.7674 27.2445,96.4644 27.6495,96.2024 28.0795,95.9844 28.5295,95.8114 28.9955,95.6864 29.4725,95.6114 29.9545,95.5864 30.4365,95.6114 30.9125,95.6864 31.3785,95.8114 31.8295,95.9844 32.2595,96.2024 32.6645,96.4644 33.0385,96.7674 33.3805,97.1084 33.6845,97.4824 33.9465,97.8854 34.1655,98.3144 34.3385,98.7634 34.4635,99.2284 34.5395,99.7044 34.5645,100.185 "/>
  <polygon id="bolt_1" class="fil1 str0" points="50.5165,64.7394 50.4255,65.3104 50.2755,65.8674 50.0685,66.4074 49.8055,66.9214 49.4905,67.4064 49.1255,67.8554 48.7165,68.2634 48.2665,68.6274 47.7805,68.9414 47.2645,69.2034 46.7235,69.4104 46.1645,69.5604 45.5925,69.6504 45.0145,69.6814 44.4365,69.6504 43.8645,69.5604 43.3045,69.4104 42.7645,69.2034 42.2485,68.9414 41.7625,68.6274 41.3125,68.2634 40.9025,67.8554 40.5385,67.4064 40.2235,66.9214 39.9605,66.4074 39.7525,65.8674 39.6025,65.3104 39.5125,64.7394 39.4825,64.1624 39.5125,63.5854 39.6025,63.0154 39.7525,62.4574 39.9605,61.9184 40.2235,61.4034 40.5385,60.9194 40.9025,60.4704 41.3125,60.0614 41.7625,59.6984 42.2485,59.3834 42.7645,59.1214 43.3045,58.9144 43.8645,58.7654 44.4365,58.6744 45.0145,58.6444 45.5925,58.6744 46.1645,58.7654 46.7235,58.9144 47.2645,59.1214 47.7805,59.3834 48.2665,59.6984 48.7165,60.0614 49.1255,60.4704 49.4905,60.9194 49.8055,61.4034 50.0685,61.9184 50.2755,62.4574 50.4255,63.0154 50.5165,63.5854 50.5465,64.1624 "/>
  <polygon id="bolt_hex_1" class="fil1 str0" points="46.5515,61.4034 48.0885,64.1624 46.5515,66.9224 43.4775,66.9224 41.8345,64.1624 43.4775,61.4034 "/>
  <circle class="fil1 str1" cx="37.638" cy="76.4259" r="4.9999"/>
 </g>
</svg>
