<?xml version="1.0" encoding="UTF-8"?>
<!DOCTYPE svg PUBLIC "-//W3C//DTD SVG 1.1//EN" "http://www.w3.org/Graphics/SVG/1.1/DTD/svg11.dtd">
<svg xmlns="http://www.w3.org/2000/svg" xml:space="preserve" width="210mm" height="297mm" 
    viewBox="0 0 210 297">
 <defs> </defs>
 <g id="Ebene_x0020_1">
  <g id="Ebene_x0020_1_0">
   <g id="Ebene_x0020_1_0_1">
    <polygon id="_new_6_1" class="fil0 str0" points="38.4659,88.6085 38.2902,87.0905 38.2964,85.7495 38.4709,84.5425 38.7996,83.4295 39.2687,82.3675 39.8644,81.3165 40.5728,80.2345 41.3801,79.0795 42.7276,77.3505 44.3862,75.4395 46.3426,73.2285 48.5831,70.5995 51.0944,67.4335 53.8629,63.6117 56.8749,59.0159 60.1173,53.5275 63.4621,52.1894 69.4955,43.7431 76.119,46.2478 74.3923,56.3225 76.6762,59.7893 75.7239,64.8928 75.7421,69.3575 76.7555,73.1665 78.7894,76.3055 81.8687,78.7585 86.0184,80.5075 91.2634,81.5385 97.6287,81.8355 99.9974,84.5495 109.964,87.4495 109.791,94.5285 99.695,96.9385 97.1958,99.5335 66.6705,99.8235 66.0152,88.3605 48.8541,84.7795 "/>
    <polygon id="_new_2_1" class="fil0 str0" points="56.4444,76.3825 55.4602,77.5055 54.3832,78.5695 53.2192,79.5645 51.9741,80.4775 50.6536,81.3005 49.2635,82.0205 47.8094,82.6275 46.2973,83.1105 45.7922,83.2405 45.2869,83.3555 44.7818,83.4575 44.2771,83.5455 43.7733,83.6195 43.2708,83.6795 42.7698,83.7265 42.2707,83.7605 41.8419,83.8045 41.4034,83.8975 40.6633,84.1745 40.0094,84.5755 39.4518,85.0835 39.0008,85.6815 38.6664,86.3505 38.4591,87.0725 38.3888,87.8315 38.4659,88.6085 44.1931,117.072 43.737,117.778 43.3599,118.528 43.0659,119.316 42.8589,120.136 42.7429,120.979 42.7221,121.84 42.8003,122.712 42.9817,123.587 43.2178,124.321 43.5195,125.015 43.8825,125.665 44.3022,126.272 44.7743,126.831 45.2942,127.339 45.8575,127.793 46.4597,128.193 46.6587,128.658 45.7879,132.576 46.2004,132.724 46.8436,132.885 47.5667,132.965 48.3866,132.933 48.8379,132.863 49.3196,132.755 51.9675,131.765 54.2902,130.305 56.2484,128.449 57.8026,126.263 58.9137,123.822 59.5422,121.191 59.6488,118.445 59.1941,115.652 59.0846,115.265 58.9276,114.777 58.0302,112.177 57.1726,109.691 56.3143,107.201 55.4555,104.709 54.5964,102.218 53.7368,99.7235 52.8771,97.2285 52.0172,94.7335 51.7521,93.3995 51.7907,92.4175 52.0161,91.4775 52.4144,90.6045 52.9711,89.8235 53.6723,89.1585 54.5033,88.6335 55.4502,88.2745 56.4082,88.1145 57.351,88.1405 58.2568,88.3385 59.1042,88.6965 59.8712,89.2035 60.5363,89.8445 61.0778,90.6085 61.4739,91.4825 63.0405,96.0275 63.3557,96.7525 63.756,97.4165 64.233,98.0155 64.7782,98.5435 65.3831,98.9965 66.0392,99.3695 66.7383,99.6575 67.4718,99.8555 71.4295,84.2605 71.5559,83.7215 71.6478,83.1725 71.7045,82.6165 71.7249,82.0545 71.7083,81.4865 71.6538,80.9165 71.5604,80.3445 71.4273,79.7715 70.8043,78.1285 69.8943,76.6855 68.7397,75.4695 67.3836,74.5025 65.8686,73.8115 64.2375,73.4195 62.5333,73.3535 60.7985,73.6355 60.1492,73.8355 59.5252,74.0785 58.9288,74.3655 58.3625,74.6925 57.8285,75.0595 57.3292,75.4645 56.8671,75.9065 "/>
    <circle id="_tag_18_" class="fil0 str0" cx="63.0446" cy="82.0175" r="6.048"/>
    <circle id="_tag_17_" class="fil0 str0" cx="63.0446" cy="82.0175" r="3.672"/>
    <circle id="_tag_16_" class="fil0 str0" cx="50.4057" cy="121.598" r="4.5"/>
    <circle id="_276049080" class="fil0 str0" cx="56.7443" cy="93.1045" r="5"/>
    <circle id="center_00" class="fil0 str0" cx="56.7443" cy="93.1045" r="4.5"/>
   </g>
  </g>
  <polyline class="fil0 str1" points="67.4855,56.8096 68.1999,60.2509 69.0081,63.4074 69.8072,66.4904 70.8282,69.9829 72.3373,73.1675 74.3078,76.7155 77.3296,80.2681 80.7967,83.5034 85.165,86.6145 88.8042,88.7665 93.0755,90.4223 95.9023,91.6721 "/>
  <polyline class="fil0 str1" points="60.1782,56.7911 62.4357,62.8282 64.2632,66.938 66.9712,71.6169 70.9761,77.1861 75.4841,82.915 80.6564,88.1322 87.1731,93.1491 90.8519,96.3149 92.4009,98.3977 "/>
 </g>
</svg>
