<!DOCTYPE svg PUBLIC "-//W3C//DTD SVG 1.1//EN" "http://www.w3.org/Graphics/SVG/1.1/DTD/svg11.dtd">
<svg xmlns="http://www.w3.org/2000/svg" width="420mm" height="297mm" viewBox="-210 -148.5 420 297">
    <defs id="_tag_2_"/>
    <g id="trashNode_001"/>
    <g id="_tag_3_">
        <g id="_tag_4_">
            <polygon fill="none" stroke="black" stroke-width="0.1" stroke-linecap="square" stroke-linejoin="bevel" id="simplify_1_1" points="23.48,106.47 23.50482421875,106.36455078125 23.52671875,106.25828125 23.54556640625,106.15130859375 23.56125,106.04375 23.573652343750002,105.93572265625001 23.58265625,105.82734375 23.588144531250002,105.71873046875 23.59,105.61 23.59,105.61 23.58904296875,105.52044921875 23.58609375,105.43171875 23.58103515625,105.34369140625 23.57375,105.25625000000001 23.56412109375,105.16927734375 23.55203125,105.08265625 23.537363281250002,104.99626953125001 23.52,104.91 22.66,101.11 22.631875,100.97123046875001 22.6075,100.83234375 22.586875,100.69322265625 22.57,100.55375000000001 22.556875,100.41380859375 22.5475,100.27328125 22.541875,100.13205078125 22.54,99.99000000000001 22.54,99.99000000000001 22.64302734375,98.96781250000001 22.93859375,98.015 23.40642578125,97.1521875 24.02625,96.4 24.77779296875,95.77906250000001 25.64078125,95.31 26.59494140625,95.0134375 27.62,94.91 27.62,94.91 28.49181640625,94.9854296875 29.32015625,95.2040625 30.09060546875,95.5544140625 30.78875,96.025 31.400175781250002,96.6043359375 31.91046875,97.28093750000001 32.30521484375,98.0433203125 32.57,98.88 33.43,102.69 33.50111328125,102.95232421875001 33.59390625,103.20609375000001 33.70755859375,103.45025390625 33.84125,103.68375 33.994160156250004,103.90552734375001 34.16546875,104.11453125 34.35435546875,104.30970703125 34.56,104.49000000000001 34.56,104.49000000000001 34.59375,104.5125 34.6275,104.535 34.66125,104.5575 34.695,104.58 34.72875,104.6025 34.7625,104.625 34.79625,104.64750000000001 34.83,104.67 37.02,106.06 38.76,107.16 39.09140625,106.96923828125 39.418125,106.77203125 39.74015625,106.56849609375 40.0575,106.35875 40.37015625,106.14291015625 40.678125,105.92109375 40.98140625,105.69341796875 41.28,105.46000000000001 41.43,105.34 41.86,104.98 42.54,104.36 43.39,103.49000000000001 44.29,102.44 45.22,101.16 46.17,99.58 47.0,97.82000000000001 47.69,95.82000000000001 48.15,93.75 48.21328125,93.3591015625 48.268125,92.9665625 48.31453125,92.5726171875 48.3525,92.1775 48.382031250000004,91.7814453125 48.403125,91.3846875 48.41578125,90.9874609375 48.42,90.59 48.42,90.59 48.41251953125,90.06130859375 48.390156250000004,89.53296875 48.35302734375,89.00533203125 48.30125,88.47875 48.23494140625,87.95357421875 48.15421875,87.43015625 48.05919921875,86.90884765625 47.95,86.39 47.35,84.3 46.49,82.23 45.36,80.25 44.0,78.39 42.38,76.68 40.57,75.18 38.61,73.94 36.56,72.95 34.46,72.23 33.27,71.95 32.14,71.75 31.240000000000002,71.63 30.43,71.57000000000001 29.7,71.55 29.11,71.54 27.490000000000002,71.64 25.44,71.95 24.53,72.17 23.5,72.47 22.330000000000002,72.89 21.07,73.44 19.77,74.14 18.47,74.97 17.21,75.93 16.606367187500002,76.4520703125 16.0259375,76.9978125 15.4694140625,77.5665234375 14.9375,78.1575 14.4308984375,78.7700390625 13.9503125,79.4034375 13.4964453125,80.0569921875 13.07,80.73 13.07,80.73 13.05455078125,80.7562890625 13.03828125,80.7828125 13.02130859375,80.8098046875 13.00375,80.8375 12.985722656250001,80.8661328125 12.96734375,80.8959375 12.94873046875,80.92714843750001 12.93,80.96000000000001 12.790000000000001,81.2 12.64,81.48 12.22146484375,82.29496093750001 11.84359375,83.1265625 11.50673828125,83.9736328125 11.21125,84.83500000000001 10.957480468750001,85.7094921875 10.74578125,86.5959375 10.57650390625,87.4931640625 10.450000000000001,88.4 10.450000000000001,88.4 10.41857421875,88.67375 10.39171875,88.9475 10.36931640625,89.22125 10.35125,89.495 10.33740234375,89.76875 10.32765625,90.0425 10.32189453125,90.31625 10.32,90.59 10.32,90.59 10.32705078125,91.1182421875 10.34828125,91.6453125 10.38380859375,92.1709765625 10.43375,92.69500000000001 10.49822265625,93.2171484375 10.57734375,93.7371875 10.67123046875,94.2548828125 10.78,94.77 23.48,106.47"/>
            <polygon fill="none" stroke="black" stroke-width="0.1" stroke-linecap="square" stroke-linejoin="bevel" id="simplify_2_1" points="32.62,99.99000000000001 32.518359375,98.982734375 32.226875,98.044375 31.765703125,97.19507812500001 31.155,96.455 30.414921875,95.844296875 29.565625,95.383125 28.627265625,95.091640625 27.62,94.99 27.62,94.99 26.612734375000002,95.091640625 25.674375,95.383125 24.825078125,95.844296875 24.085,96.455 23.474296875,97.19507812500001 23.013125,98.044375 22.721640625,98.982734375 22.62,99.99000000000001 22.62,99.99000000000001 22.721640625,100.997265625 23.013125,101.935625 23.474296875,102.78492187500001 24.085,103.525 24.825078125,104.135703125 25.674375,104.596875 26.612734375000002,104.88835937500001 27.62,104.99000000000001 27.62,104.99000000000001 28.627265625,104.88835937500001 29.565625,104.596875 30.414921875,104.135703125 31.155,103.525 31.765703125,102.78492187500001 32.226875,101.935625 32.518359375,100.997265625 32.62,99.99000000000001"/>
            <polyline fill="none" stroke="black" stroke-width="0.1" stroke-linecap="square" stroke-linejoin="bevel" id="simplify_3_1" points="37.480000000000004,104.39 39.222988281250004,103.20271484375 40.77578125,101.81609375000001 42.12537109375,100.25298828125 43.25875,98.53625 44.16291015625,96.68873046875001 44.82484375,94.73328125 45.23154296875,92.69275390625 45.37,90.59 45.37,90.59 45.26578125,88.76443359375 44.958125,86.98046875 44.45453125,85.25345703125001 43.7625,83.59875 42.88953125,82.03169921875 41.843125,80.56765625 40.63078125,79.22197265625 39.26,78.01 39.26,78.01 38.17263671875,77.22853515625 37.02984375,76.54328125 35.83806640625,75.95669921875 34.60375,75.47125 33.333339843750004,75.08939453125001 32.03328125,74.81359375 30.71001953125,74.64630859375 29.37,74.59 29.37,74.59 27.540292968750002,74.69509765625 25.751718750000002,75.00515625 24.02009765625,75.51232421875 22.361250000000002,76.20875 20.79099609375,77.08658203125 19.32515625,78.13796875 17.97955078125,79.35505859375 16.77,80.73"/>
            <line id="simplify_4" x1="18.26" y1="78.4" x2="17.21" y2="75.93" stroke="black" stroke-width="0.1"/>
            <line id="simplify_5" x1="46.13" y1="87.65" x2="47.95" y2="86.39" stroke="black" stroke-width="0.1"/>
            <line id="simplify_6" x1="48.15" y1="93.75" x2="46.32" y2="92.07000000000001" stroke="black" stroke-width="0.1"/>
            <polyline fill="none" stroke="black" stroke-width="0.1" stroke-linecap="square" stroke-linejoin="bevel" id="simplify_7_1" points="39.76,104.07000000000001 39.800000000000004,104.04 39.93,103.94 40.14,103.77 40.43,103.52 40.78,103.21000000000001 41.19,102.83 41.67,102.35000000000001 42.19,101.79 42.71,101.16 43.25,100.44 43.800000000000004,99.61 44.34,98.68 44.78,97.82000000000001 45.17,96.9 45.54,95.89 45.85,94.84 46.14,93.48 46.32,92.07000000000001 46.33736328125,91.88623046875 46.35203125,91.70234375 46.36412109375,91.51822265625 46.37375,91.33375 46.38103515625,91.14880859375 46.38609375,90.96328125000001 46.38904296875,90.77705078125 46.39,90.59 46.39,90.59 46.38580078125,90.22208984375 46.37328125,89.85359375 46.352558593750004,89.48486328125 46.323750000000004,89.11625000000001 46.28697265625,88.74810546875 46.24234375,88.38078125 46.18998046875,88.01462890625 46.13,87.65 45.58,85.42 44.72,83.26 43.57,81.22 42.480000000000004,79.74 41.24,78.4 39.89,77.22 37.75,75.78 35.93,74.89 34.45,74.35000000000001 32.96,73.96000000000001 32.02,73.78 31.17,73.67 30.25,73.60000000000001 28.0,73.63 26.25,73.86 25.330000000000002,74.06 24.18,74.39 22.95,74.83 21.580000000000002,75.46000000000001 21.2,75.68 20.42,76.27 19.69,76.96000000000001 18.98,77.69 18.26,78.4 17.97123046875,78.66951171875 17.68984375,78.94546875 17.41572265625,79.22775390625 17.14875,79.51625 16.88880859375,79.81083984375 16.63578125,80.11140625 16.38955078125,80.41783203125 16.15,80.73"/>
            <polyline fill="none" stroke="black" stroke-width="0.1" stroke-linecap="square" stroke-linejoin="bevel" id="simplify_8_1" points="37.02,106.06 37.2,105.4 41.57,89.34 41.83,88.38 41.87921875,88.187421875 41.921875,87.9925 41.95796875,87.795703125 41.987500000000004,87.5975 42.01046875,87.398359375 42.026875000000004,87.19875 42.03671875,86.999140625 42.04,86.8 42.04,86.8 42.000195312500004,86.10818359375 41.8828125,85.43171875 41.6908984375,84.77658203125 41.4275,84.14875 41.0956640625,83.55419921875 40.698437500000004,82.99890625 40.2388671875,82.48884765625 39.72,82.03 39.72,82.03 39.30744140625,81.73296875 38.87390625,81.4725 38.42185546875,81.24953125 37.95375,81.065 37.47205078125,80.91984375 36.97921875,80.815 36.47771484375,80.75140625 35.97,80.73 35.97,80.73 35.97,80.73 35.97,80.73 35.97,80.73 35.97,80.73 35.97,80.73 35.97,80.73 35.97,80.73 35.97,80.73 16.77,80.73 16.65,80.73 16.15,80.73 13.07,80.73"/>
            <polyline fill="none" stroke="black" stroke-width="0.1" stroke-linecap="square" stroke-linejoin="bevel" id="simplify_9_1" points="41.28,105.46000000000001 39.76,104.07000000000001 39.72,104.03 39.6,103.92 39.410000000000004,103.75 39.37,103.71000000000001 39.12109375,103.89515625 38.869375,104.075625 38.61484375,104.25140625 38.3575,104.4225 38.09734375,104.58890625000001 37.834375,104.750625 37.56859375,104.90765625 37.300000000000004,105.06"/>
            <line id="simplify_10" x1="34.46" y1="72.23" x2="35.93" y2="74.89" stroke="black" stroke-width="0.1"/>
            <line id="simplify_11" x1="26.25" y1="73.86" x2="25.44" y2="71.95" stroke="black" stroke-width="0.1"/>
            <line id="simplify_12" x1="30.25" y1="73.60000000000001" x2="29.11" y2="71.54" stroke="black" stroke-width="0.1"/>
        </g>
        <g id="_tag_5_">
            <polygon fill="none" stroke="black" stroke-width="0.1" stroke-linecap="square" stroke-linejoin="bevel" id="simplify_14_1" points="25.830000000000002,128.71 25.16,113.98 22.29,101.19 22.25857421875,101.04328125 22.23171875,100.895625 22.20931640625,100.74703125 22.19125,100.5975 22.17740234375,100.44703125000001 22.16765625,100.295625 22.16189453125,100.14328125 22.16,99.99000000000001 22.16,99.99000000000001 22.16046875,99.91125 22.161875000000002,99.8325 22.16421875,99.75375 22.1675,99.675 22.17171875,99.59625 22.176875,99.5175 22.18296875,99.43875 22.19,99.36 22.19,99.36 22.40158203125,98.36291015625 22.78390625,97.44515625 23.31833984375,96.62326171875 23.986250000000002,95.91375000000001 24.76900390625,95.33314453125 25.64796875,94.89796875 26.60451171875,94.62474609375 27.62,94.53 27.62,94.53 28.55818359375,94.6109375 29.44984375,94.845625 30.279394531250002,95.221875 31.03125,95.7275 31.68982421875,96.3503125 32.23953125,97.078125 32.66478515625,97.89875 32.95,98.8 33.88,102.97 33.9655859375,103.2753515625 34.0790625,103.5678125 34.219257812500004,103.84574218750001 34.385,104.1075 34.5751171875,104.3514453125 34.7884375,104.57593750000001 35.0237890625,104.77933593750001 35.28,104.96000000000001 36.4,105.67 36.65,105.77 36.9,105.74000000000001 37.1,105.59 37.2,105.4 41.57,89.34 41.76,87.35000000000001 41.7666015625,87.2820703125 41.7715625,87.2134375 41.7751171875,87.1443359375 41.7775,87.075 41.7789453125,87.0056640625 41.7796875,86.93656250000001 41.7799609375,86.8679296875 41.78,86.8 41.78,86.8 41.68419921875,85.74369140625001 41.40734375,84.74703125 40.96525390625,83.82841796875 40.37375,83.00625000000001 39.64865234375,82.29892578125 38.80578125,81.72484375 37.86095703125,81.30240234375 36.83,81.05 34.71,80.73 13.36,80.73 13.13,80.78 12.92,80.98 12.790000000000001,81.2 12.64,81.48 12.22146484375,82.29496093750001 11.84359375,83.1265625 11.50673828125,83.9736328125 11.21125,84.83500000000001 10.957480468750001,85.7094921875 10.74578125,86.5959375 10.57650390625,87.4931640625 10.450000000000001,88.4 10.450000000000001,88.4 10.41857421875,88.67375 10.39171875,88.9475 10.36931640625,89.22125 10.35125,89.495 10.33740234375,89.76875 10.32765625,90.0425 10.32189453125,90.31625 10.32,90.59 10.32,90.59 10.32705078125,91.1182421875 10.34828125,91.6453125 10.38380859375,92.1709765625 10.43375,92.69500000000001 10.49822265625,93.2171484375 10.57734375,93.7371875 10.67123046875,94.2548828125 10.78,94.77 13.88,108.58 14.02435546875,109.26474609375 14.14984375,109.95359375 14.25634765625,110.64595703125 14.34375,111.34125 14.41193359375,112.03888671875 14.46078125,112.73828125 14.49017578125,113.43884765625 14.5,114.14 14.5,114.14 14.45841796875,115.59166015625 14.33421875,117.03453125 14.128222656250001,118.46544921875 13.84125,119.88125000000001 13.47412109375,121.27876953125 13.02765625,122.65484375 12.50267578125,124.00630859375 11.9,125.33 11.9,125.33 11.77109375,125.6098046875 11.654375,125.8940625 11.54984375,126.1825390625 11.4575,126.47500000000001 11.37734375,126.7712109375 11.309375000000001,127.0709375 11.25359375,127.3739453125 11.21,127.68 11.21,127.68 11.199667968750001,127.78498046875 11.19109375,127.88984375 11.18416015625,127.99447265625 11.17875,128.09875 11.17474609375,128.20255859375 11.17203125,128.30578125 11.17048828125,128.40830078125 11.17,128.51 11.17,128.51 11.2208984375,129.36880859375 11.3709375,130.20734375 11.6161328125,131.01751953125 11.9525,131.79125 12.3760546875,132.52044921875 12.8828125,133.19703125 13.4687890625,133.81291015625 14.13,134.36 14.13,134.36 14.43248046875,134.60923828125001 14.70109375,134.88953125 14.93384765625,135.19724609375 15.12875,135.52875 15.28380859375,135.88041015625 15.39703125,136.24859375 15.46642578125,136.62966796875 15.49,137.02 15.49,137.02 15.4872265625,137.15078125 15.4790625,137.28062500000001 15.4657421875,137.40953125000001 15.4475,137.5375 15.4245703125,137.66453125 15.397187500000001,137.790625 15.3655859375,137.91578125 15.33,138.04 14.290000000000001,141.26 14.28669921875,141.280703125 14.28421875,141.298125 14.282441406250001,141.312734375 14.28125,141.32500000000002 14.28052734375,141.335390625 14.280156250000001,141.344375 14.28001953125,141.352421875 14.280000000000001,141.36 14.280000000000001,141.36 14.2904296875,141.4623046875 14.3203125,141.5578125 14.3675390625,141.6444140625 14.43,141.72 14.505585937500001,141.7824609375 14.5921875,141.8296875 14.6876953125,141.8595703125 14.790000000000001,141.87 14.790000000000001,141.87 14.79751953125,141.87 14.80515625,141.87 14.81302734375,141.87 14.821250000000001,141.87 14.82994140625,141.87 14.83921875,141.87 14.84919921875,141.87 14.86,141.87 14.86,141.87 17.13771484375,141.34255859375 19.22921875,140.43296875000001 21.09830078125,139.18283203125 22.708750000000002,137.63375 24.024355468750002,135.82732421875 25.00890625,133.80515625 25.62619140625,131.60884765625 25.84,129.28 25.84,129.28 25.83998046875,129.20875 25.83984375,129.1375 25.83947265625,129.06625 25.83875,128.995 25.83755859375,128.92375 25.83578125,128.8525 25.83330078125,128.78125 25.830000000000002,128.71"/>
            <polyline fill="none" stroke="black" stroke-width="0.1" stroke-linecap="square" stroke-linejoin="bevel" id="simplify_15_1" points="36.77,85.78 36.68435546875,85.7162890625 36.592968750000004,85.6603125 36.49666015625,85.6123046875 36.39625,85.5725 36.29255859375,85.5411328125 36.18640625,85.5184375 36.07861328125,85.5046484375 35.97,85.5 35.97,85.5 35.71072265625,85.526328125 35.46890625,85.601875 35.24982421875,85.721484375 35.05875,85.88 34.90095703125,86.072265625 34.78171875,86.293125 34.70630859375,86.537421875 34.68,86.8 34.68,86.8 34.68876953125,86.94552734375 34.71453125,87.08859375 34.75646484375,87.22767578125 34.81375,87.36125 34.88556640625,87.48779296875 34.97109375,87.60578125 35.06951171875,87.71369140625 35.18,87.81"/>
            <polyline fill="none" stroke="black" stroke-width="0.1" stroke-linecap="square" stroke-linejoin="bevel" id="simplify_16_1" points="34.99,87.99 34.99375,87.99044921875 34.9975,87.99171875 35.00125,87.99369140625001 35.005,87.99625 35.00875,87.99927734375 35.0125,88.00265625 35.01625,88.00626953125 35.02,88.01"/>
            <polyline fill="none" stroke="black" stroke-width="0.1" stroke-linecap="square" stroke-linejoin="bevel" id="simplify_18_1" points="35.18,87.81 35.265625,87.87371093750001 35.356875,87.9296875 35.4528125,87.9776953125 35.5525,88.0175 35.655,88.04886718750001 35.759375,88.0715625 35.8646875,88.08535156250001 35.97,88.09 35.97,88.09 36.232578125,88.06369140625 36.476875,87.98828125 36.697734375,87.86904296875001 36.89,87.71125 37.048515625,87.52017578125 37.168125,87.30109375 37.243671875000004,87.05927734375 37.27,86.8 37.27,86.8 37.26123046875,86.651171875 37.23546875,86.505625 37.19353515625,86.364765625 37.136250000000004,86.23 37.06443359375,86.102734375 36.97890625,85.984375 36.88048828125,85.876328125 36.77,85.78"/>
            <polyline fill="none" stroke="black" stroke-width="0.1" stroke-linecap="square" stroke-linejoin="bevel" id="simplify_19_1" points="18.23,85.78 18.141484375,85.7162890625 18.048750000000002,85.6603125 17.952265625,85.6123046875 17.8525,85.5725 17.749921875000002,85.5411328125 17.645,85.5184375 17.538203125,85.5046484375 17.43,85.5 17.43,85.5 17.17072265625,85.526328125 16.92890625,85.601875 16.70982421875,85.721484375 16.51875,85.88 16.36095703125,86.072265625 16.24171875,86.293125 16.16630859375,86.537421875 16.14,86.8 16.14,86.8 16.14833984375,86.94552734375 16.17296875,87.08859375 16.213300781250002,87.22767578125 16.26875,87.36125 16.33873046875,87.48779296875 16.42265625,87.60578125 16.519941406250002,87.71369140625 16.63,87.81"/>
            <polyline fill="none" stroke="black" stroke-width="0.1" stroke-linecap="square" stroke-linejoin="bevel" id="simplify_20_1" points="16.45,87.99 16.45375,87.99044921875 16.4575,87.99171875 16.46125,87.99369140625001 16.465,87.99625 16.46875,87.99927734375 16.4725,88.00265625 16.47625,88.00626953125 16.48,88.01"/>
            <polyline fill="none" stroke="black" stroke-width="0.1" stroke-linecap="square" stroke-linejoin="bevel" id="simplify_22_1" points="16.63,87.81 16.718515625000002,87.87371093750001 16.81125,87.9296875 16.907734375,87.9776953125 17.0075,88.0175 17.110078125,88.04886718750001 17.215,88.0715625 17.321796875,88.08535156250001 17.43,88.09 17.43,88.09 17.68927734375,88.06369140625 17.93109375,87.98828125 18.15017578125,87.86904296875001 18.34125,87.71125 18.49904296875,87.52017578125 18.61828125,87.30109375 18.69369140625,87.05927734375 18.72,86.8 18.72,86.8 18.71166015625,86.651171875 18.68703125,86.505625 18.64669921875,86.364765625 18.59125,86.23 18.52126953125,86.102734375 18.43734375,85.984375 18.34005859375,85.876328125 18.23,85.78"/>
            <polyline id="simplify_SVG__000007" points="16.15,80.73 16.65,80.73 16.77,80.73" fill="none" stroke="black" stroke-width="0.1"/>
            <polyline fill="none" stroke="black" stroke-width="0.1" stroke-linecap="square" stroke-linejoin="bevel" id="simplify_24_1" points="15.450000000000001,86.56 15.44626953125,86.59 15.44265625,86.62 15.43927734375,86.65 15.436250000000001,86.68 15.43369140625,86.71000000000001 15.43171875,86.74 15.43044921875,86.77 15.43,86.8 15.43,86.8 15.4708203125,87.201328125 15.5878125,87.575 15.7727734375,87.913046875 16.017500000000002,88.2075 16.3137890625,88.450390625 16.6534375,88.63375 17.028242187500002,88.749609375 17.43,88.79 17.43,88.79 17.8034375,88.755390625 18.154375,88.655625 18.47625,88.496796875 18.7625,88.285 19.0065625,88.026328125 19.201875,87.726875 19.341875,87.392734375 19.42,87.03"/>
            <polyline fill="none" stroke="black" stroke-width="0.1" stroke-linecap="square" stroke-linejoin="bevel" id="simplify_25_1" points="33.99,86.56 33.98669921875,86.59 33.984218750000004,86.62 33.982441406250004,86.65 33.98125,86.68 33.98052734375,86.71000000000001 33.98015625,86.74 33.98001953125,86.77 33.980000000000004,86.8 33.980000000000004,86.8 34.020390625,87.201328125 34.136250000000004,87.575 34.319609375,87.913046875 34.5625,88.2075 34.856953125000004,88.450390625 35.195,88.63375 35.568671875,88.749609375 35.97,88.79 35.97,88.79 36.3434375,88.755390625 36.694375,88.655625 37.01625,88.496796875 37.3025,88.285 37.5465625,88.026328125 37.741875,87.726875 37.881875,87.392734375 37.96,87.03"/>
            <polyline fill="none" stroke="black" stroke-width="0.1" stroke-linecap="square" stroke-linejoin="bevel" id="simplify_26_1" points="19.42,87.03 19.42330078125,87.00001953125 19.42578125,86.97015625 19.42755859375,86.94052734375 19.42875,86.91125 19.42947265625,86.88244140625 19.42984375,86.85421875 19.42998046875,86.82669921875001 19.43,86.8 19.43,86.8 19.38958984375,86.39537109375 19.27359375,86.01921875000001 19.08986328125,85.67939453125 18.84625,85.38375 18.55060546875,85.14013671875 18.21078125,84.95640625 17.83462890625,84.84041015625 17.43,84.8 17.43,84.8 17.059453125,84.834609375 16.71,84.934375 16.388671875,85.093203125 16.1025,85.305 15.858515625,85.563671875 15.66375,85.863125 15.525234375,86.197265625 15.450000000000001,86.56"/>
            <polyline fill="none" stroke="black" stroke-width="0.1" stroke-linecap="square" stroke-linejoin="bevel" id="simplify_27_1" points="14.3,141.21 14.296679687500001,141.22126953125002 14.2940625,141.23265625 14.2919140625,141.24427734375 14.290000000000001,141.25625 14.2880859375,141.26869140625 14.285937500000001,141.28171875 14.2833203125,141.29544921875 14.280000000000001,141.31"/>
            <polyline fill="none" stroke="black" stroke-width="0.1" stroke-linecap="square" stroke-linejoin="bevel" id="simplify_28_1" points="36.36,105.64 40.82,89.21000000000001 41.01,87.28 41.0166015625,87.22 41.0215625,87.16 41.0251171875,87.10000000000001 41.0275,87.04 41.0289453125,86.98 41.0296875,86.92 41.0299609375,86.86 41.03,86.8 41.03,86.8 40.9465234375,85.8792578125 40.7053125,85.0103125 40.3201953125,84.2093359375 39.805,83.4925 39.1735546875,82.8759765625 38.4396875,82.3759375 37.6172265625,82.0085546875 36.72,81.79 34.65,81.48 12.64,81.48"/>
            <polyline fill="none" stroke="black" stroke-width="0.1" stroke-linecap="square" stroke-linejoin="bevel" id="simplify_29_1" points="37.96,87.03 37.96330078125,87.00001953125 37.96578125,86.97015625 37.96755859375,86.94052734375 37.96875,86.91125 37.96947265625,86.88244140625 37.96984375,86.85421875 37.96998046875,86.82669921875001 37.97,86.8 37.97,86.8 37.92958984375,86.39537109375 37.81359375,86.01921875000001 37.62986328125,85.67939453125 37.386250000000004,85.38375 37.09060546875,85.14013671875 36.75078125,84.95640625 36.37462890625,84.84041015625 35.97,84.8 35.97,84.8 35.59986328125,84.834609375 35.25140625,84.934375 34.93130859375,85.093203125 34.64625,85.305 34.40291015625,85.563671875 34.20796875,85.863125 34.06810546875,86.197265625 33.99,86.56"/>
            <line id="simplify_31" x1="40.82" y1="89.21000000000001" x2="41.57" y2="89.34" stroke="black" stroke-width="0.1"/>
            <line id="simplify_32" x1="41.01" y1="87.28" x2="41.76" y2="87.35000000000001" stroke="black" stroke-width="0.1"/>
            <line id="simplify_33" x1="36.72" y1="81.79" x2="36.83" y2="81.05" stroke="black" stroke-width="0.1"/>
            <line id="simplify_34" x1="34.65" y1="81.48" x2="34.71" y2="80.73" stroke="black" stroke-width="0.1"/>
            <polygon fill="none" stroke="black" stroke-width="0.1" stroke-linecap="square" stroke-linejoin="bevel" id="simplify_35_1" points="22.900000000000002,129.04 22.90703125,128.9729296875 22.913125,128.9065625 22.91828125,128.8406640625 22.9225,128.775 22.92578125,128.70933593750001 22.928125,128.6434375 22.92953125,128.5770703125 22.93,128.51 22.93,128.51 22.837890625,127.60087890625 22.57375,126.75328125 22.155859375000002,125.98560546875001 21.6025,125.31625 20.931953125,124.76361328125 20.1625,124.34609375000001 19.312421875000002,124.08208984375 18.400000000000002,123.99000000000001 18.400000000000002,123.99000000000001 17.5606640625,124.068359375 16.7703125,124.294375 16.0441796875,124.654453125 15.3975,125.135 14.845507812500001,125.72242187500001 14.4034375,126.403125 14.0865234375,127.163515625 13.91,127.99000000000001 13.91,127.99000000000001 13.90296875,128.05705078125 13.896875,128.12328125 13.89171875,128.18880859375 13.887500000000001,128.25375 13.88421875,128.31822265625001 13.881875,128.38234375 13.88046875,128.44623046875 13.88,128.51 13.88,128.51 13.97208984375,129.422421875 14.23609375,130.2725 14.653613281250001,131.041953125 15.20625,131.7125 15.87560546875,132.265859375 16.64328125,132.68375 17.49087890625,132.947890625 18.400000000000002,133.04 18.400000000000002,133.04 19.24263671875,132.961640625 20.03546875,132.735625 20.76337890625,132.375546875 21.41125,131.895 21.963964843750002,131.307578125 22.40640625,130.626875 22.72345703125,129.866484375 22.900000000000002,129.04"/>
        </g>
        <polygon fill="none" stroke="black" stroke-width="0.1" stroke-linecap="square" stroke-linejoin="bevel" id="simplify_36_1" points="29.5,99.99000000000001 29.461875,99.610625 29.3525,99.25750000000001 29.179375,98.938125 28.95,98.66 28.671875,98.430625 28.3525,98.25750000000001 27.999375,98.14812500000001 27.62,98.11 27.62,98.11 27.240625,98.14812500000001 26.8875,98.25750000000001 26.568125000000002,98.430625 26.29,98.66 26.060625,98.938125 25.8875,99.25750000000001 25.778125,99.610625 25.740000000000002,99.99000000000001 25.740000000000002,99.99000000000001 25.778125,100.369375 25.8875,100.7225 26.060625,101.041875 26.29,101.32000000000001 26.568125000000002,101.549375 26.8875,101.7225 27.240625,101.831875 27.62,101.87 27.62,101.87 27.999375,101.831875 28.3525,101.7225 28.671875,101.549375 28.95,101.32000000000001 29.179375,101.041875 29.3525,100.7225 29.461875,100.369375 29.5,99.99000000000001"/>
    </g>
    <circle id="center_00" cx="27.62" cy="99.99000000000001" r="5"/>
</svg>
