<!DOCTYPE svg PUBLIC "-//W3C//DTD SVG 1.1//EN" "http://www.w3.org/Graphics/SVG/1.1/DTD/svg11.dtd">
<svg xmlns="http://www.w3.org/2000/svg" width="297mm" height="210mm" viewBox="0 0 297 210">
    <defs id="_tag_6_"/>
    <g id="trashNode_001"/>
    <g id="_tag_7_">
        <polygon id="path32_1" class="fil0 str0" points="63.1548,200.845 63.1965,206.5341 63.020715234375004,208.7068080078125 62.481046875,210.7731015625 61.607736328125,212.69610996093752 60.431025,214.4389625 58.981154296875,215.9647884765625 57.288365625000004,217.2367171875 55.382900390625004,218.21787792968752 53.295,218.8714 53.295,218.8714 53.282875390625,218.8738923828125 53.27009687500001,218.8761703125 53.256844921875,218.87819746093749 53.243300000000005,218.87993749999998 53.229642578125,218.8813541015625 53.216053125,218.8824109375 53.202712109375,218.8830716796875 53.1898,218.8833 53.1898,218.8833 53.087638671875,218.872940234375 52.99238437499999,218.843209375 52.906106640625,218.796130078125 52.830875,218.733725 52.768758984375,218.65801679687502 52.721828124999995,218.571028125 52.692151953125,218.474781640625 52.681799999999996,218.3713 52.681799999999996,218.3713 52.68216015625,218.35477890625 52.6832,218.338 52.68485859375,218.32108984375 52.68707499999999,218.304175 52.68978828124999,218.28738203125 52.69293749999999,218.2708375 52.696461718749994,218.25466796875 52.7003,218.239 53.4617,215.4925 53.4786470703125,215.4184408203125 53.494395312500004,215.3429578125 53.50861777343751,215.2663802734375 53.520987500000004,215.1890375 53.5311775390625,215.1112587890625 53.538860937500004,215.03337343750002 53.54371074218751,214.9557107421875 53.5454,214.8786 53.5454,214.8786 53.5239666015625,214.56403300781253 53.4611390625,214.2577640625 53.3591263671875,213.9637412109375 53.2201375,213.68591250000003 53.0463814453125,213.42822597656252 52.840067187500004,213.19462968750003 52.6034037109375,212.9890716796875 52.3386,212.81550000000001 52.3386,212.81550000000001 51.549826171875004,212.2857884765625 50.842565625,211.6583203125 50.224109765624995,210.9440326171875 49.701750000000004,210.1538625 49.282777734375,209.29874707031252 48.974484375,208.3896234375 48.784161328124995,207.4374287109375 48.7191,206.4531 48.7191,206.4531 48.7519412109375,205.78821718749998 48.8492859375,205.1318 49.009365820312496,204.4870078125 49.2304125,203.85699999999997 49.51065761718749,203.2449359375 49.8483328125,202.653975 50.2416697265625,202.0872765625 50.6889,201.548 50.6889,201.548 50.822737109375,201.39392187500002 50.962103125,201.22699999999998 51.104380078125,201.050665625 51.24695,200.86835 51.387194921875,200.68348437499998 51.522496874999995,200.4995 51.65023789062499,200.319828125 51.767799999999994,200.1479 51.767799999999994,200.1479 51.95087910156249,199.8365216796875 52.1125703125,199.51351718749999 52.2519419921875,199.1802822265625 52.36806249999999,198.8382125 52.46000019531249,198.4887037109375 52.5268234375,198.1331515625 52.56760058593749,197.77295175781248 52.581399999999995,197.40949999999998 52.581399999999995,197.40949999999998 52.514418554687495,196.59563339843746 52.31716093749999,195.81369218749995 51.99515722656249,195.07512675781248 51.55393749999999,194.39138749999998 50.999031835937494,193.77392480468745 50.335970312499995,193.23418906249998 49.57028300781249,192.78363066406249 48.707499999999996,192.4337 48.707499999999996,192.4337 48.3524013671875,192.3089490234375 47.9596796875,192.16111093749998 47.5335712890625,191.9950080078125 47.078312499999996,191.8154625 46.598139648437495,191.6272966796875 46.097289062499996,191.43533281249998 45.579997070312494,191.2443931640625 45.0505,191.05929999999998 45.0505,191.05929999999998 45.019566015625,191.04385390624998 44.936978124999996,191.00270625 44.818057421875004,190.94364296875 44.678125,190.87444999999997 44.532501953125,190.80291328124997 44.396509375,190.73681874999997 44.285468359375,190.68395234374998 44.2147,190.6521 44.2147,190.6521 43.043673828125,190.056175390625 41.923434375,189.364646875 40.859327734375,188.585794921875 39.856700000000004,187.7279 38.920897265625,186.799242578125 38.057265625,185.80810312499997 37.271151171875005,184.762762109375 36.5679,183.67149999999998 37.048100000000005,183.19169999999997 37.158370507812506,183.09218105468747 37.27840156250001,183.00389218749996 37.40679746093751,182.92746035156247 37.5421625,182.86351249999996 37.68310097656251,182.81267558593748 37.8282171875,182.77557656249996 37.9761154296875,182.75284238281247 38.125400000000006,182.74509999999998 63.99700000000001,182.74349999999998 65.018608984375,182.6399806640625 65.971140625,182.34322031249997 66.833901953125,181.8739154296875 67.5862,181.25276249999996 68.20734179687501,180.50045800781248 68.676634375,179.63769843749998 68.97338476562501,178.68518027343748 69.07690000000001,177.66359999999997 69.07690000000001,177.66359999999997 68.97338476562501,176.64198671874996 68.676634375,175.68944374999998 68.20734179687501,174.82666640624998 67.58620000000002,174.07434999999998 66.83390195312501,173.45318984374995 65.97114062500002,172.98388124999997 65.01860898437502,172.68711953124995 63.99700000000001,172.58359999999996 38.10090000000001,172.58529999999996 37.95404843750001,172.57734863281246 37.80900625000001,172.55405156249998 37.66702968750001,172.51624433593744 37.529375000000016,172.46476249999995 37.39729843750001,172.40044160156248 37.272056250000006,172.32411718749998 37.154904687500014,172.23662480468744 37.04710000000001,172.13879999999997 36.66630000000001,171.53269999999998 37.247032617187514,170.6309818359375 37.8969421875,169.74676093749997 38.613796289062506,168.88455019531247 39.395362500000005,168.04886249999998 40.239408398437504,167.24421074218748 41.14370156250001,166.47510781249997 42.10600957031251,165.74606660156246 43.124100000000006,165.06159999999997 43.124100000000006,165.06159999999997 46.81271777343751,162.60046757812495 50.327498437500005,159.82007187499997 53.63784550781251,156.749027734375 56.71316250000001,153.41594999999998 59.5228529296875,149.84945351562496 62.0363203125,146.07815312499997 64.2229681640625,142.13066367187497 66.0522,138.03559999999996 66.0522,138.03559999999996 66.0745447265625,137.98889023437496 66.10370156249999,137.94394062499993 66.1409044921875,137.90064570312495 66.1873875,137.85889999999995 66.2443845703125,137.81859804687494 66.3131296875,137.77963437499994 66.39485683593749,137.74190351562498 66.4908,137.70529999999997 66.4908,137.70529999999997 66.8724326171875,137.58516621093747 67.2627921875,137.47681093749998 67.66013378906248,137.38154082031247 68.06271249999998,137.30066249999996 68.46878339843748,137.23548261718747 68.87660156249999,137.18730781249997 69.28442207031249,137.15744472656246 69.69049999999999,137.14719999999997 69.69049999999999,137.14719999999997 70.96109570312498,137.23139374999997 72.19534687499998,137.47891874999996 73.37782460937498,137.88219062499996 74.4931,138.43362499999995 75.52574414062498,139.12563749999998 76.46032812499999,139.95064374999998 77.28142304687499,140.90105937499996 77.97359999999999,141.96929999999998 77.97359999999999,141.96929999999998 77.9877267578125,141.99747851562498 78.00027031249999,142.02676562499997 78.01113808593749,142.05697617187496 78.0202375,142.08792499999998 78.02747597656249,142.11942695312496 78.0327609375,142.15129687499999 78.03599980468749,142.183349609375 78.0371,142.2154 78.0371,142.2154 78.03655234374999,142.23721074218747 78.03495,142.25938593749999 78.03235390625,142.2817275390625 78.02882499999998,142.3040375 78.02442421875,142.3261177734375 78.0192125,142.34777031250002 78.01325078125,142.3687970703125 78.00659999999999,142.38899999999998 74.2233,152.8155 74.0652638671875,153.30579570312497 73.9264171875,153.80770937499997 73.80734003906248,154.31891835937498 73.70861249999999,154.83709999999996 73.6308146484375,155.35993164062498 73.57452656249998,155.885090625 73.54032832031248,156.410254296875 73.52879999999999,156.9331 73.52879999999999,156.9331 73.76102617187499,159.334398828125 74.42852187499999,161.595609375 75.48751289062498,163.669652734375 76.89422499999999,165.50945 78.604883984375,167.067922265625 80.57571562499999,168.297990625 82.76294570312498,169.152576171875 85.12279999999998,169.5846 97.14409999999998,170.6358 97.23867031249998,170.6530587890625 97.32629374999999,170.6872265625 97.40522656249998,170.7364154296875 97.47372499999997,170.79873750000002 97.53004531249998,170.8723048828125 97.57244374999996,170.95522968749998 97.59917656249998,171.04562402343748 97.60849999999998,171.14159999999998 97.60929999999998,184.15669999999997 97.59829179687499,184.25802929687498 97.56814687499998,184.35233437499997 97.52093476562497,184.437616015625 97.45872499999999,184.51187499999997 97.38358710937499,184.573112109375 97.29759062499998,184.61932812499998 97.20280507812498,184.64852382812498 97.10129999999998,184.65869999999998 97.10129999999998,184.65869999999998 97.09896874999997,184.65867578125 97.09200624999997,184.65850625 97.07595937499998,184.65804609375 97.04637499999997,184.65715 96.99879999999999,184.65567265624998 96.92878124999999,184.65346874999997 96.83186562499998,184.65039296874997 96.70359999999998,184.64629999999997 96.70359999999998,184.64629999999997 96.65176757812497,184.64629999999997 96.59120937499998,184.64629999999997 96.52483398437498,184.64629999999997 96.45554999999999,184.64629999999997 96.38626601562498,184.64629999999997 96.319890625,184.64629999999997 96.25933242187499,184.64629999999997 96.20749999999998,184.64629999999997 96.20749999999998,184.64629999999997 94.11083808593747,184.7210517578125 92.01491093749999,184.94200781249998 89.93206894531247,185.30421933593746 87.87466249999997,185.80273749999998 85.85504199218748,186.43261347656247 83.88555781249997,187.18889843749997 81.97856035156248,188.06664355468746 80.14639999999999,189.06089999999998 80.14639999999999,189.06089999999998 79.8477943359375,189.21021640624997 79.49888593749999,189.38475624999998 79.11633769531248,189.57625546874996 78.71681249999999,189.77644999999995 78.31697324218749,189.97707578124997 77.93348281249999,190.16986874999998 77.58300410156248,190.34656484374995 77.28219999999999,190.49889999999996 77.28219999999999,190.49889999999996 76.31355078124999,190.94274804687495 75.31078124999999,191.37715312499995 74.28229609374998,191.79583164062495 73.23649999999998,192.19249999999997 72.18179765624998,192.56087460937496 71.12659374999998,192.89467187499997 70.07929296874998,193.18760820312494 69.04829999999998,193.43339999999995 69.04829999999998,193.43339999999995 67.81015957031248,193.81793925781244 66.68022656249998,194.40163281249994 65.67603339843748,195.16231933593744 64.81511249999997,196.07783749999996 64.11499628906247,197.12602597656246 63.59321718749998,198.28472343749996 63.267307617187484,199.53176855468743 63.15479999999998,200.84499999999994" fill="none" stroke="black" stroke-width="0.1"/>
        <polygon id="path33_1" class="fil1 str0" points="38.1254,182.745 38.0815,182.7456 37.9065,182.8071 37.7425875,182.87661757812498 37.573575,182.968121875 37.402725000000004,183.075015234375 37.2333,183.1907 37.0685625,183.30857851562502 36.911775000000006,183.422053125 36.7662,183.52452617187498 36.6351,183.6094 36.6405,183.61769999999999 37.397193359375,184.5391212890625 38.258996874999994,185.3633390625 39.211958203125,186.08244667968748 40.242125,186.6885375 41.335544921875,187.17370488281247 42.478265625000006,187.5300421875 43.656334765625004,187.7496427734375 44.8558,187.82459999999998 44.8558,187.82459999999998 44.8558013671875,187.82459980468747 44.8558109375,187.82459843749996 44.8558369140625,187.82459472656248 44.8558875,187.82458749999998 44.855970898437505,187.82457558593748 44.8560953125,187.82455781249996 44.85626894531251,187.82453300781248 44.856500000000004,187.82449999999997 49.9213,187.82429999999997 50.308951953125,187.84719121093747 50.690559375,187.91450468749994 51.061962109375,188.02420019531246 51.419,188.17423749999998 51.757512890625,188.3625763671875 52.073340625,188.58717656249996 52.362323046875,188.8459978515625 52.6203,189.13699999999997 52.6203,189.13699999999997 53.02761875,189.70600449218747 53.38485625,190.30976093749996 53.690709375,190.94285878906248 53.943875000000006,191.59988749999997 54.143049999999995,192.27543652343746 54.28693125,192.96409531249998 54.374215625,193.66045332031248 54.4036,194.35909999999998 54.4036,194.35909999999998 54.348288476562495,195.31410195312498 54.1854703125,196.253140625 53.9198201171875,197.16647773437498 53.556012499999994,198.044375 53.0987220703125,198.877094140625 52.552623437499996,199.654896875 51.9223912109375,200.368044921875 51.2127,201.0068 51.2127,201.0068 51.13245390624999,201.08213203124998 51.057031249999994,201.1609 50.98690546875,201.24028671875 50.92255,201.317475 50.864438281249996,201.38964765625 50.81304375,201.45398749999998 50.768839843749994,201.50767734375 50.732299999999995,201.5479 50.732299999999995,201.5479 50.27074433593749,202.0871765625 49.8666421875,202.65387499999997 49.521253320312496,203.2448359375 49.235837499999995,203.8569 49.011654492187496,204.48690781250002 48.8499640625,205.1317 48.7520259765625,205.7881171875 48.7191,206.453 48.7191,206.453 48.784161328124995,207.4373287109375 48.974484375,208.3895234375 49.282777734374996,209.2986470703125 49.70175,210.1537625 50.224109765624995,210.9439326171875 50.84256562499999,211.6582203125 51.549826171875,212.28568847656248 52.3386,212.8154 52.3386,212.8154 52.6034037109375,212.9889716796875 52.840067187500004,213.1945296875 53.0463814453125,213.4281259765625 53.2201375,213.6858125 53.3591263671875,213.9636412109375 53.4611390625,214.2576640625 53.5239666015625,214.56393300781252 53.5454,214.8785 53.5454,214.8785 53.54371074218751,214.9556107421875 53.538860937500004,215.03327343750001 53.5311775390625,215.11115878906253 53.520987500000004,215.18893749999998 53.50861777343751,215.2662802734375 53.494395312500004,215.34285781250003 53.4786470703125,215.4183408203125 53.4617,215.4924 52.7003,218.2389 52.696461718749994,218.25456796875 52.6929375,218.2707375 52.689788281249996,218.28728203125 52.687075,218.30407499999998 52.68485859375,218.32098984375 52.6832,218.3379 52.68216015625,218.35467890625 52.681799999999996,218.3712 52.681799999999996,218.3712 52.692151953125,218.47468164062496 52.721828124999995,218.570928125 52.768758984375,218.65791679687499 52.830875,218.733625 52.906106640625,218.796030078125 52.99238437499999,218.84310937499998 53.087638671875,218.872840234375 53.1898,218.8832 53.1898,218.8832 53.2026916015625,218.88293066406248 53.2159828125,218.8821703125 53.2295107421875,218.88099042968747 53.243112499999995,218.8794625 53.256625195312495,218.8776580078125 53.2698859375,218.8756484375 53.282731835937504,218.87350527343747 53.295,218.8713 53.295,218.8713 55.3810669921875,218.2174251953125 57.2821921875,217.2361390625 58.9696494140625,215.9642490234375 60.41471250000001,214.4385625 61.5886552734375,212.6958869140625 62.4627515625,210.7730296875 63.0082751953125,208.70679824218746 63.1965,206.534 63.14,198.94 63.1045,194.1499 63.1921876953125,192.9840365234375 63.4466015625,191.87347968749998 63.8547677734375,190.83117988281248 64.4037125,189.8700875 65.0804619140625,189.0031529296875 65.8720421875,188.24332656250002 66.7654794921875,187.6035587890625 67.7478,187.0968 67.7478,187.0968 68.797311328125,186.5957947265625 69.77140312499999,185.9896078125 70.664049609375,185.28732011718748 71.469225,184.49801250000002 72.180903515625,183.6307658203125 72.793059375,182.6946609375 73.29966679687499,181.6987787109375 73.6947,180.6522 73.6947,180.6522 73.80115234374999,180.2914134765625 73.89415625,179.9262828125 73.97348203125,179.5571513671875 74.03889999999998,179.1843625 74.09018046874999,178.80825957031252 74.12709375,178.4291859375 74.14941015624998,178.04748496093748 74.1569,177.6635 74.1569,177.6635 73.9533462890625,175.63330000000002 73.36935156249999,173.73751875 72.44491542968748,172.017546875 71.22003749999999,170.514775 69.73471738281249,169.27059375000002 68.02895468749999,168.32639375 66.14274902343749,167.723565625 64.11609999999999,167.5035 52.240999999999985,167.5042 44.816099999999985,167.50469999999999 43.63615664062498,167.5775109375 42.479278124999986,167.79076874999998 41.35769179687498,168.1369359375 40.28362499999999,168.608475 39.26930507812499,169.1978484375 38.32695937499999,169.89751875 37.46881523437498,170.69994843749998 36.70709999999998,171.5976 37.047099999999986,172.1387 37.154904687499986,172.23652480468746 37.272056249999984,172.3240171875 37.397298437499984,172.4003416015625 37.52937499999999,172.46466249999997 37.66702968749998,172.51614433593747 37.80900624999999,172.5539515625 37.95404843749999,172.57724863281248 38.10089999999999,172.5852 63.99659999999999,172.58329999999998 63.99673203124999,172.58336601562496 63.996831249999985,172.583415625 63.99690234374998,172.583451171875 63.996949999999984,172.58347499999996 63.996978906249986,172.583489453125 63.99699374999999,172.58349687499998 63.996999218749984,172.583499609375 63.996999999999986,172.5835 63.996999999999986,172.5835 65.01860898437499,172.68701953124997 65.97114062499999,172.98378125 66.83390195312498,173.45308984374998 67.58619999999999,174.07425 68.20734179687499,174.82656640625 68.67663437499998,175.68934375 68.97338476562498,176.64188671875 69.07689999999998,177.6635 69.07689999999998,177.6635 68.97338476562498,178.6850802734375 68.67663437499998,179.6375984375 68.20734179687499,180.5003580078125 67.58619999999999,181.25266249999999 66.83390195312498,181.8738154296875 65.97114062499999,182.3431203125 65.01860898437499,182.63988066406253 63.99699999999998,182.7434 38.12539999999998,182.745" fill="none" stroke="black" stroke-width="0.1"/>
        <polyline id="path34_1" class="fil2 str0" points="49.9143,187.824 49.9143990234375,187.82403300781252 49.9144734375,187.82405781250003 49.914526757812496,187.82407558593752 49.9145625,187.82408750000002 49.9145841796875,187.82409472656252 49.9145953125,187.82409843750003 49.9145994140625,187.8240998046875 49.9146,187.82410000000002" fill="none" stroke="black" stroke-width="0.1"/>
        <line id="path35" x1="44.8161" y1="187.824" x2="49.9143" y2="187.824" stroke="black" stroke-width="0.1"/>
        <polyline id="path36_1" class="fil2 str0" points="38.1254,182.745 38.1229626953125,182.7450330078125 38.1200953125,182.74505781250002 38.1169396484375,182.7450755859375 38.1136375,182.7450875 38.110330664062495,182.7450947265625 38.1071609375,182.74509843750002 38.104270117187504,182.7450998046875 38.1018,182.7451" fill="none" stroke="black" stroke-width="0.1"/>
        <polygon id="path37_1" class="fil0 str0" points="51.386,206.537 51.479200585937505,205.6175810546875 51.746310937500006,204.7603171875 52.16870644531251,203.9838353515625 52.7277625,203.3067625 53.4048544921875,202.7477255859375 54.1813578125,202.3253515625 55.0386478515625,202.05826738281252 55.9581,201.9651 55.9581,201.9651 56.877551953125,202.058267578125 57.734840625000004,202.32535312500002 58.511340234375,202.747730859375 59.18842500000001,203.30677500000002 59.74746914062501,203.983859765625 60.169846875000005,204.760359375 60.436932421875,205.61764804687502 60.530100000000004,206.5371 60.530100000000004,206.5371 60.436932421875,207.456551953125 60.169846875000005,208.313840625 59.74746914062501,209.09034023437502 59.18842500000001,209.767425 58.511340234375,210.32646914062502 57.734840625000004,210.748846875 56.877551953125,211.01593242187502 55.9581,211.1091 55.9581,211.1091 55.038648046875004,211.01593242187502 54.181359375,210.748846875 53.404859765625005,210.32646914062502 52.727774999999994,209.767425 52.168730859374996,209.09034023437502 51.746353125,208.313840625 51.479267578125004,207.456551953125 51.3861,206.5371 51.385999999999996,206.537" fill="none" stroke="black" stroke-width="0.1"/>
        <g id="path38_1">
            <polyline id="path38___0" class="fil2 str0" points="63.1245,196.838 63.59665214843749,196.0410626953125 64.1528171875,195.3040328125 64.7846080078125,194.6323583984375 65.48363749999999,194.0314875 66.2415185546875,193.5068681640625 67.04986406249999,193.06394843749996 67.9002869140625,192.7081763671875 68.7844,192.445 68.7844,192.445 69.80276015625,192.21426894531248 70.83273125000001,191.93287656249998 71.86683671875,191.60806152343747 72.89760000000001,191.2470625 73.91754453125,190.85711816406248 74.91919375,190.4454671875 75.89507109375,190.01934824218748 76.83770000000001,189.58599999999998 76.83770000000001,189.58599999999998 77.13186269531252,189.43697109374997 77.47458906250002,189.26414375000002 77.84958652343751,189.07559453125 78.24056250000001,188.87939999999998 78.63122441406252,188.68363671875 79.0052796875,188.49638124999998 79.34643574218752,188.32571015625 79.63840000000002,188.1797 79.63840000000002,188.1797 81.52721484375002,187.15573085937498 83.49376250000002,186.251478125 85.52522265625002,185.47212382812498 87.60877500000002,184.82285000000002 89.73159921875,184.30883867187498 91.88087500000002,183.935271875 94.04378203125002,183.707331640625 96.20750000000001,183.6302 96.20750000000001,183.6302 96.3144998046875,183.6302 96.4394984375,183.6302 96.57649472656252,183.6302 96.71948750000001,183.6302 96.8624755859375,183.6302 96.99945781250001,183.6302 97.12443300781251,183.6302 97.23140000000001,183.6302" fill="none" stroke="black" stroke-width="0.1"/>
            <polyline id="path38___1" class="fil2 str0" points="97.6085,171.6959 85.0343,170.5967 82.48563984375,170.1300958984375 80.12342500000001,169.2071296875 77.99492890625,167.87864550781248 76.147425,166.1954875 74.62818671875,164.2084998046875 73.4844875,161.96852656250002 72.76360078125,159.5264119140625 72.5128,156.933 72.5128,156.933 72.52755625,156.343629296875 72.57056875,155.74421562499998 72.639953125,155.139781640625 72.733825,154.53535 72.8503,153.935943359375 72.98749375,153.34658437499996 73.143521875,152.772295703125 73.3165,152.2181 77.4016,141.0803" fill="none" stroke="black" stroke-width="0.1"/>
        </g>
        <polyline id="path39_1" class="fil2 str0" points="37.8432,185.538 39.09599609375,186.45882285156253 40.4246125,187.36465156250003 41.81442890625001,188.2399388671875 43.250825000000006,189.0691375 44.719180468750004,189.83670019531252 46.20487500000001,190.52707968750002 47.693288281250005,191.12472871093752 49.1698,191.6141 49.1698,191.6141 50.1244484375,191.97894765625 50.9848125,192.4771125 51.740720312499995,193.09287734375002 52.382,193.810525 52.8984796875,194.61433828124999 53.279987500000004,195.4886 53.516351562500006,196.41759296875 53.5974,197.3856 53.5974,197.3856 53.59637734375,197.4579671875 53.593681249999996,197.53145 53.58986953125,197.6049328125 53.585499999999996,197.6773 53.58113046875,197.7474359375 53.577318749999996,197.81422500000002 53.57462265625,197.8765515625 53.5736,197.9333" fill="none" stroke="black" stroke-width="0.1"/>
        <polyline id="path40_1" class="fil2 str0" points="67.3737,137.433 65.305676171875,142.34886855468747 62.750984375,147.03699843749996 59.749381640624996,151.4614634765625 56.340624999999996,155.58633749999998 52.564471484375,159.37569433593748 48.460678124999994,162.7936078125 44.069001953124996,165.8041517578125 39.429199999999994,168.3714" fill="none" stroke="black" stroke-width="0.1"/>
        <line id="simplify_2" x1="39.4292" y1="168.371" x2="38.6524" y2="168.841" stroke="black" stroke-width="0.1"/>
        <polygon id="simplify_3" cx="63.997" cy="177.664" points="69.0764,177.664 69.04857451533361,178.1949418763217 68.96540292316729,178.7200666423397 68.82779646886961,179.2336209212281 68.63726279754982,179.7299781048392 68.39588943598268,180.2037 68.1063209212281,180.64959641049438 67.77172982652988,181.06278200193918 67.39578200193918,181.43872982652985 66.98259641049438,181.7733209212281 66.5367,182.06288943598267 66.06297810483922,182.30426279754982 65.56662092122811,182.4947964688696 65.05306664233973,182.6324029231673 64.52794187632172,182.7155745153336 63.997,182.74339999999998 63.46605812367828,182.7155745153336 62.94093335766028,182.6324029231673 62.42737907877189,182.4947964688696 61.93102189516078,182.30426279754982 61.457300000000004,182.06288943598267 61.01140358950561,181.7733209212281 60.59821799806082,181.43872982652985 60.22227017347012,181.06278200193918 59.887679078771896,180.64959641049438 59.598110564017325,180.2037 59.35673720245018,179.7299781048392 59.1662035311304,179.2336209212281 59.02859707683271,178.7200666423397 58.945425484666394,178.1949418763217 58.9176,177.664 58.945425484666394,177.13305812367827 59.02859707683271,176.60793335766027 59.1662035311304,176.09437907877188 59.35673720245017,175.59802189516077 59.59811056401732,175.12429999999998 59.887679078771896,174.6784035895056 60.22227017347012,174.2652179980608 60.59821799806082,173.88927017347012 61.01140358950561,173.55467907877187 61.4573,173.2651105640173 61.931021895160775,173.02373720245015 62.42737907877189,172.83320353113038 62.94093335766027,172.69559707683268 63.46605812367828,172.61242548466637 63.997,172.5846 64.52794187632172,172.61242548466637 65.05306664233973,172.69559707683268 65.56662092122811,172.83320353113038 66.06297810483922,173.02373720245015 66.5367,173.2651105640173 66.98259641049438,173.55467907877187 67.39578200193918,173.88927017347012 67.77172982652988,174.2652179980608 68.1063209212281,174.6784035895056 68.39588943598268,175.12429999999998 68.63726279754982,175.59802189516077 68.82779646886961,176.09437907877188 68.96540292316729,176.60793335766027 69.04857451533361,177.13305812367827" fill="none" stroke="black" stroke-width="0.1"/>
        <polygon id="center_00" cx="63.997" cy="177.664" points="69.0764,177.664 69.04857451533361,178.1949418763217 68.96540292316729,178.7200666423397 68.82779646886961,179.2336209212281 68.63726279754982,179.7299781048392 68.39588943598268,180.2037 68.1063209212281,180.64959641049438 67.77172982652988,181.06278200193918 67.39578200193918,181.43872982652985 66.98259641049438,181.7733209212281 66.5367,182.06288943598267 66.06297810483922,182.30426279754982 65.56662092122811,182.4947964688696 65.05306664233973,182.6324029231673 64.52794187632172,182.7155745153336 63.997,182.74339999999998 63.46605812367828,182.7155745153336 62.94093335766028,182.6324029231673 62.42737907877189,182.4947964688696 61.93102189516078,182.30426279754982 61.457300000000004,182.06288943598267 61.01140358950561,181.7733209212281 60.59821799806082,181.43872982652985 60.22227017347012,181.06278200193918 59.887679078771896,180.64959641049438 59.598110564017325,180.2037 59.35673720245018,179.7299781048392 59.1662035311304,179.2336209212281 59.02859707683271,178.7200666423397 58.945425484666394,178.1949418763217 58.9176,177.664 58.945425484666394,177.13305812367827 59.02859707683271,176.60793335766027 59.1662035311304,176.09437907877188 59.35673720245017,175.59802189516077 59.59811056401732,175.12429999999998 59.887679078771896,174.6784035895056 60.22227017347012,174.2652179980608 60.59821799806082,173.88927017347012 61.01140358950561,173.55467907877187 61.4573,173.2651105640173 61.931021895160775,173.02373720245015 62.42737907877189,172.83320353113038 62.94093335766027,172.69559707683268 63.46605812367828,172.61242548466637 63.997,172.5846 64.52794187632172,172.61242548466637 65.05306664233973,172.69559707683268 65.56662092122811,172.83320353113038 66.06297810483922,173.02373720245015 66.5367,173.2651105640173 66.98259641049438,173.55467907877187 67.39578200193918,173.88927017347012 67.77172982652988,174.2652179980608 68.1063209212281,174.6784035895056 68.39588943598268,175.12429999999998 68.63726279754982,175.59802189516077 68.82779646886961,176.09437907877188 68.96540292316729,176.60793335766027 69.04857451533361,177.13305812367827" fill="none" stroke="black" stroke-width="0.1"/>
    </g>
</svg>
