<!DOCTYPE svg PUBLIC "-//W3C//DTD SVG 1.1//EN" "http://www.w3.org/Graphics/SVG/1.1/DTD/svg11.dtd">
<svg xmlns="http://www.w3.org/2000/svg" width="420mm" height="297mm" viewBox="-210 -148.5 420 297">
    <defs id="_tag_48_"/>
    <g id="trashNode_001"/>
    <g id="_tag_49_">
        <polygon fill="none" stroke="black" stroke-width="0.1" stroke-linecap="square" stroke-linejoin="bevel" id="simplify_66_1" points="90.2,117.69 87.4,120.47 86.36,121.76 86.36,121.76 85.09,123.73 84.05,125.83 83.25,128.06 82.7,130.39000000000001 82.44,132.82 82.47,135.32 82.78,137.67000000000002 83.37,140.07 84.26,142.5 85.46000000000001,144.94 86.98,147.4 88.85000000000001,149.86 94.28,149.19 92.36,142.0 92.3182421875,141.83873046875001 92.2828125,141.67734375 92.2534765625,141.51572265625 92.23,141.35375 92.2121484375,141.19130859375 92.1996875,141.02828125 92.1923828125,140.86455078125002 92.19,140.70000000000002 92.19,140.70000000000002 92.291640625,139.69273437500001 92.583125,138.754375 93.044296875,137.90507812500002 93.655,137.165 94.395078125,136.554296875 95.244375,136.09312500000001 96.182734375,135.801640625 97.19,135.7 97.19,135.7 98.02220703125,135.76958984375 98.81515625,135.97171875 99.55583984375001,136.29642578125 100.23125,136.73375000000001 100.82837890625001,137.27373046875002 101.33421875,137.90640625 101.73576171875,138.62181640625 102.02,139.41 104.31,147.96 109.77,147.29 110.53,144.86 110.53,144.86 111.44,142.75 112.5,140.97 113.72,139.5 115.10000000000001,138.36 116.63,137.54 118.22,137.06 119.94,136.86 121.81,136.95000000000002 124.27,137.47 127.47,137.12 142.53,142.4 145.05,139.79 145.35,139.48 145.35,139.48 146.25,138.36 146.99,137.15 147.53,135.78 147.84,134.34 147.81,132.11 147.88,127.88000000000001 109.49000000000001,114.79 101.75,112.63 97.57000000000001,113.57000000000001 92.77,115.83 90.2,117.69"/>
        <polygon fill="none" stroke="black" stroke-width="0.1" stroke-linecap="square" stroke-linejoin="bevel" id="simplify_67_1" points="153.67000000000002,89.71000000000001 153.48025390625,89.625625 153.28640625,89.5525 153.08904296875,89.49062500000001 152.88875000000002,89.44 152.68611328125002,89.400625 152.48171875,89.3725 152.27615234375,89.355625 152.07,89.35000000000001 152.07,89.35000000000001 151.52267578125,89.38955078125001 150.99515625,89.50515625 150.49412109375,89.69224609375 150.02625,89.94625 149.59822265625002,90.26259765625001 149.21671875,90.63671875 148.88841796875,91.06404296875 148.62,91.54 147.11,94.79 145.18,98.93 142.74,97.84 141.54,99.9 140.19,101.65 138.69,103.07000000000001 137.05,104.17 135.22,104.96000000000001 133.24,105.41 131.11,105.53 128.83,105.32000000000001 126.39,104.77 125.59,104.45 124.86,104.03 123.58,103.0 122.93,102.42 122.25,101.89 121.45,101.47 120.60000000000001,101.18 119.69,101.02 118.76,101.02 117.73,101.2 116.76,101.58 115.87,102.13 115.08,102.81 114.35000000000001,103.68 113.74000000000001,104.64 112.84,106.03 111.72,107.33 110.41,108.49000000000001 108.96000000000001,109.46000000000001 107.75,110.07000000000001 106.5,110.5 105.22,110.75 103.95,110.78 97.74000000000001,110.4 92.86,110.09 91.76,110.09 90.66,110.22 89.67,110.49000000000001 88.72,110.9 87.89,111.42 87.16,112.06 86.55,112.81 86.07000000000001,113.65 85.73,114.59 85.56,115.56 85.56,116.63 85.76,117.69 86.14,118.69 86.68,119.61 87.64,120.72 88.79,121.65 92.87,124.41 98.07000000000001,127.92 146.5,145.55 148.20000000000002,146.03 149.32,146.20000000000002 150.44,146.27 169.22,146.53 169.20000000000002,144.12 177.5,144.04 178.52,143.92000000000002 179.56,143.57 180.53,142.98 181.35,142.16 181.98,141.15 182.34,140.06 182.45000000000002,138.98 182.33892578125,137.9810546875 182.04140625,137.0521875 181.57724609375,136.2128515625 180.96625,135.48250000000002 180.22822265625,134.8805859375 179.38296875,134.4265625 178.45029296875,134.1398828125 177.45000000000002,134.04 177.45000000000002,134.04 177.4429296875,134.04 177.4365625,134.04 177.4306640625,134.04 177.425,134.04 177.4193359375,134.04 177.41343750000001,134.04 177.4070703125,134.04 177.4,134.04 172.75,134.09 169.09,134.12 169.07,131.71 166.36,130.14000000000001 163.93,128.38 161.78,126.45 159.91,124.33 158.32,122.04 156.95000000000002,119.42 155.89000000000001,116.59 155.15,113.56 154.72,110.33 154.62,106.89 154.82,103.26 152.11,102.04 154.01,97.96000000000001 155.51,94.76 155.59150390625,94.566953125 155.66328125,94.370625 155.72498046875,94.171484375 155.77625,93.97 155.81673828125,93.76664062500001 155.84609375,93.561875 155.86396484375,93.356171875 155.87,93.15 155.87,93.15 155.83042968750001,92.6026953125 155.7146875,92.0753125 155.5272265625,91.5746484375 155.2725,91.1075 154.9549609375,90.6806640625 154.5790625,90.3009375 154.1492578125,89.9751171875 153.67000000000002,89.71000000000001"/>
        <polygon fill="none" stroke="black" stroke-width="0.1" stroke-linecap="square" stroke-linejoin="bevel" id="simplify_68_1" points="150.13,137.29 150.18955078125,137.12033203125 150.24078125,136.94890625 150.28380859375,136.77583984375 150.31875,136.60125 150.34572265625,136.42525390625 150.36484375,136.24796875 150.37623046875,136.06951171875 150.38,135.89000000000001 150.38,135.89000000000001 150.33042968750001,135.25494140625 150.1859375,134.64578125 149.9528515625,134.07154296875 149.63750000000002,133.54125 149.2462109375,133.06392578125 148.7853125,132.64859375 148.2611328125,132.30427734375002 147.68,132.04 139.9,129.2 133.78,126.98 133.60990234375,126.92044921875001 133.43734375,126.86921875 133.26267578125,126.82619140625 133.08625,126.79125 132.90841796875,126.76427734375001 132.72953125,126.74515625000001 132.54994140625,126.73376953125 132.37,126.73 132.37,126.73 131.5449609375,126.8134765625 130.7759375,127.0528125 130.0795703125,127.4313671875 129.4725,127.9325 128.9713671875,128.5395703125 128.5928125,129.2359375 128.3534765625,130.00496093750002 128.27,130.83 128.27,130.83 128.3195703125,131.46505859375 128.4640625,132.07421875 128.6971484375,132.64845703125 129.0125,133.17875 129.4037890625,133.65607421875 129.8646875,134.07140625 130.3888671875,134.41572265625 130.97,134.68 138.76,137.52 144.88,139.74 145.04966796875001,139.79955078125 145.22109375,139.85078125 145.39416015625,139.89380859375 145.56875,139.92875 145.74474609375,139.95572265625 145.92203125,139.97484375 146.10048828125,139.98623046875 146.28,139.99 146.28,139.99 146.91833984375,139.9404296875 147.52984375,139.7959375 148.10548828125,139.56285156250001 148.63625,139.2475 149.11310546875,138.8562109375 149.52703125,138.39531250000002 149.86900390625001,137.8711328125 150.13,137.29"/>
        <polygon fill="none" stroke="black" stroke-width="0.1" stroke-linecap="square" stroke-linejoin="bevel" id="simplify_69_1" points="121.94,127.03 121.99955078125001,126.86033203125 122.05078125,126.68890625 122.09380859375,126.51583984375 122.12875,126.34125 122.15572265625,126.16525390625 122.17484375000001,125.98796875000001 122.18623046875,125.80951171875 122.19,125.63000000000001 122.19,125.63000000000001 122.1404296875,124.99494140625 121.9959375,124.38578125000001 121.7628515625,123.81154296875 121.4475,123.28125 121.0562109375,122.80392578125 120.5953125,122.38859375 120.0711328125,122.04427734375 119.49000000000001,121.78 113.37,119.55 105.59,116.72 105.41990234375,116.66044921875 105.24734375,116.60921875 105.07267578125,116.56619140625 104.89625000000001,116.53125 104.71841796875,116.50427734375 104.53953125,116.48515625 104.35994140625,116.47376953125 104.18,116.47 104.18,116.47 103.3549609375,116.55306640625 102.5859375,116.79140625000001 101.8895703125,117.16873046875 101.2825,117.66875 100.7813671875,118.27517578125 100.4028125,118.97171875000001 100.16347656250001,119.74208984375001 100.08,120.57000000000001 100.08,120.57000000000001 100.12957031250001,121.20505859375 100.2740625,121.81421875000001 100.5071484375,122.38845703125 100.8225,122.91875 101.2137890625,123.39607421875 101.6746875,123.81140625 102.1988671875,124.15572265625 102.78,124.42 110.57000000000001,127.26 116.69,129.48 116.85966796875,129.53955078125 117.03109375,129.59078125 117.20416015625,129.63380859375 117.37875,129.66875 117.55474609375,129.69572265625 117.73203125,129.71484375 117.91048828125,129.72623046875 118.09,129.73 118.09,129.73 118.72792968750001,129.6804296875 119.3384375,129.5359375 119.91285156250001,129.3028515625 120.4425,128.9875 120.91871093750001,128.5962109375 121.3328125,128.1353125 121.6761328125,127.6111328125 121.94,127.03"/>
        <polyline id="simplify_SVG__000023" points="147.96,113.17 147.84,112.61 147.62,112.07000000000001 146.94,111.14 145.96,110.44 145.34,110.18 144.69,110.02 143.96,109.96000000000001 143.23,110.01 142.43,110.18 141.67000000000002,110.46000000000001 141.38,110.59 139.35,111.54 137.26,112.35000000000001 133.88,113.32000000000001 132.64000000000001,113.71000000000001 131.5,114.32000000000001 130.94,114.76 130.46,115.28 130.08,115.89 129.81,116.55 129.7,117.16 129.7,117.78 129.99,118.9 130.64000000000001,119.93 131.13,120.42 131.68,120.84 132.89000000000001,121.44 137.77,123.21000000000001 143.97,125.47 145.14000000000001,125.81 146.35,125.96000000000001 147.06,125.94 147.77,125.81 148.31,125.62 148.82,125.34 149.28,124.97 149.65,124.52 150.06,123.61 150.17000000000002,122.97 150.18,122.32000000000001 150.05,121.45 149.8,120.60000000000001 149.12,118.55 148.57,116.48 147.96,113.17" fill="none" stroke="black" stroke-width="0.1"/>
        <circle id="simplify_71" cx="97.19" cy="140.7" r="5" fill="none" stroke="black" stroke-width="0.1"/>
        <polygon fill="none" stroke="black" stroke-width="0.1" stroke-linecap="square" stroke-linejoin="bevel" id="simplify_72_1" points="109.60000000000001,126.16 109.740078125,126.20591796875 109.88250000000001,126.24609375 110.026796875,126.28041015625 110.1725,126.30875 110.319140625,126.33099609375 110.46625,126.34703125 110.613359375,126.35673828125 110.76,126.36 110.76,126.36 111.28796875,126.319140625 111.794375,126.2 112.27171875,126.007734375 112.7125,125.7475 113.10921875,125.424453125 113.454375,125.04375 113.74046875,124.610546875 113.96000000000001,124.13000000000001 113.96000000000001,124.13000000000001 114.00591796875,123.98703125 114.04609375,123.843125 114.08041015625,123.69828125000001 114.10875,123.55250000000001 114.13099609375,123.40578125 114.14703125,123.258125 114.15673828125,123.10953125 114.16,122.96000000000001 114.16,122.96000000000001 114.091015625,122.27701171875 113.893125,121.63984375 113.579921875,121.06244140625 113.165,120.55875 112.661953125,120.14271484375 112.08437500000001,119.82828125 111.445859375,119.62939453125 110.76,119.56 110.76,119.56 110.23246093750001,119.6012890625 109.7271875,119.7215625 109.2514453125,119.91542968750001 108.8125,120.17750000000001 108.4176171875,120.5023828125 108.0740625,120.8846875 107.78910156250001,121.31902343750001 107.57000000000001,121.8 107.57000000000001,121.8 107.52078125,121.940078125 107.478125,122.0825 107.44203125,122.226796875 107.41250000000001,122.3725 107.38953125,122.519140625 107.373125,122.66625 107.36328125,122.813359375 107.36,122.96000000000001 107.36,122.96000000000001 107.4012890625,123.48796875000001 107.5215625,123.994375 107.7154296875,124.47171875000001 107.9775,124.91250000000001 108.3023828125,125.30921875 108.6846875,125.654375 109.1190234375,125.94046875000001 109.60000000000001,126.16"/>
        <polygon fill="none" stroke="black" stroke-width="0.1" stroke-linecap="square" stroke-linejoin="bevel" id="simplify_73_1" points="137.79,136.42000000000002 137.930078125,136.46591796875 138.0725,136.50609375 138.216796875,136.54041015625 138.3625,136.56875 138.50914062500001,136.59099609375 138.65625,136.60703125 138.803359375,136.61673828125 138.95000000000002,136.62 138.95000000000002,136.62 139.47796875,136.579140625 139.984375,136.46 140.46171875000002,136.267734375 140.9025,136.0075 141.29921875,135.684453125 141.644375,135.30375 141.93046875000002,134.870546875 142.15,134.39000000000001 142.15,134.39000000000001 142.19591796875,134.24703125 142.23609375,134.103125 142.27041015625,133.95828125 142.29875,133.8125 142.32099609375,133.66578125 142.33703125,133.518125 142.34673828125,133.36953125 142.35,133.22 142.35,133.22 142.281015625,132.53701171875 142.083125,131.89984375 141.769921875,131.32244140625 141.355,130.81875 140.851953125,130.40271484375 140.274375,130.08828125 139.635859375,129.88939453125 138.95000000000002,129.82 138.95000000000002,129.82 138.4224609375,129.8612890625 137.9171875,129.9815625 137.4414453125,130.1754296875 137.0025,130.4375 136.6076171875,130.7623828125 136.2640625,131.1446875 135.9791015625,131.5790234375 135.76,132.06 135.76,132.06 135.71078125,132.200078125 135.668125,132.3425 135.63203125,132.486796875 135.6025,132.6325 135.57953125,132.779140625 135.563125,132.92625 135.55328125,133.073359375 135.55,133.22 135.55,133.22 135.5912890625,133.74796875 135.7115625,134.254375 135.9054296875,134.73171875 136.1675,135.1725 136.4923828125,135.56921875 136.8746875,135.914375 137.3090234375,136.20046875 137.79,136.42000000000002"/>
        <polyline id="simplify_SVG__000024" points="92.77,115.83 91.81,116.43 90.2,117.69" fill="none" stroke="black" stroke-width="0.1"/>
        <polygon fill="none" stroke="black" stroke-width="0.1" stroke-linecap="square" stroke-linejoin="bevel" id="simplify_75_1" points="88.7,114.93 89.10000000000001,114.26 89.79,113.75 90.61,113.55 91.39,113.68 92.07000000000001,114.08 92.58,114.76 92.77,115.59 92.65,116.37 92.512421875,116.66759765625 92.33500000000001,116.93578125 92.121953125,117.17138671875 91.8775,117.37125 91.60585937500001,117.53220703125 91.31125,117.65109375 90.997890625,117.72474609375 90.67,117.75 90.67,117.75 90.57958984375,117.74810546875 90.48859375,117.74234375 90.39736328125001,117.73259765625001 90.30625,117.71875 90.21560546875,117.70068359375 90.12578125,117.67828125 90.03712890625,117.65142578125 89.95,117.62 89.95,117.62 89.65240234375,117.4853125 89.38421875,117.309375 89.14861328125001,117.096875 88.94875,116.8525 88.78779296875,116.5809375 88.66890625,116.28687500000001 88.59525390625001,115.97500000000001 88.57000000000001,115.65 88.57000000000001,115.65 88.57230468750001,115.55958984375 88.5790625,115.46859375 88.5900390625,115.37736328125 88.605,115.28625 88.62371093750001,115.19560546875 88.6459375,115.10578125 88.6714453125,115.01712890625001 88.7,114.93"/>
        <polygon fill="none" stroke="black" stroke-width="0.1" stroke-linecap="square" stroke-linejoin="bevel" id="simplify_76_1" points="118.43,108.71000000000001 118.51669921875,108.74142578125 118.60421875,108.76828125 118.69244140625,108.79068359375 118.78125,108.80875 118.87052734375,108.82259765625 118.96015625,108.83234375 119.05001953125,108.83810546875 119.14,108.84 119.14,108.84 119.467890625,108.81474609375 119.78125,108.74109375 120.07585937500001,108.62220703125 120.3475,108.46125 120.591953125,108.26138671875 120.805,108.02578125000001 120.982421875,107.75759765625 121.12,107.46000000000001 121.12,107.46000000000001 121.14812500000001,107.37287109375 121.1725,107.28421875000001 121.19312500000001,107.19439453125 121.21000000000001,107.10375 121.223125,107.01263671875 121.2325,106.92140625 121.238125,106.83041015625 121.24000000000001,106.74000000000001 121.24000000000001,106.74000000000001 121.19734375,106.31671875 121.075,105.9225 120.88140625,105.56578125 120.625,105.255 120.31421875000001,104.99859375 119.9575,104.805 119.56328125,104.68265625000001 119.14,104.64 119.14,104.64 118.815,104.66525390625 118.503125,104.73890625 118.2090625,104.85779296875 117.9375,105.01875 117.69312500000001,105.21861328125 117.480625,105.45421875 117.3046875,105.72240234375 117.17,106.02 117.17,106.02 117.1414453125,106.10671875 117.1159375,106.19437500000001 117.0937109375,106.28296875000001 117.075,106.3725 117.0600390625,106.46296875 117.0490625,106.55437500000001 117.0423046875,106.64671875 117.04,106.74000000000001 117.04,106.74000000000001 117.06568359375001,107.065 117.14046875,107.376875 117.26095703125,107.67093750000001 117.42375,107.9425 117.62544921875,108.186875 117.86265625,108.399375 118.13197265625,108.5753125 118.43,108.71000000000001"/>
    </g>
    <circle id="center_00" cx="97.19" cy="140.7" r="5.77" fill="none" stroke="black" stroke-width="0.1"/>
</svg>
