<?xml version="1.0" encoding="UTF-8" standalone="no"?>
<!-- Created with Inkscape (http://www.inkscape.org/) -->

<svg
   xmlns:dc="http://purl.org/dc/elements/1.1/"
   xmlns:cc="http://creativecommons.org/ns#"
   xmlns:rdf="http://www.w3.org/1999/02/22-rdf-syntax-ns#"
   xmlns:svg="http://www.w3.org/2000/svg"
   xmlns="http://www.w3.org/2000/svg"
   version="1.1"
   width="420mm"
   height="297mm"
   viewBox="-210 -148.5 420 297"
   id="svg2">
  <metadata
     id="metadata12">
    <rdf:RDF>
      <cc:Work
         rdf:about="">
        <dc:format>image/svg+xml</dc:format>
        <dc:type
           rdf:resource="http://purl.org/dc/dcmitype/StillImage" />
        <dc:title></dc:title>
      </cc:Work>
    </rdf:RDF>
  </metadata>
  <defs
     id="_tag_23_" />
  <g
     id="trashNode_001" />
  <g
     transform="translate(-99.000124,-99.000003)"
     id="_tag_24_">
    <circle
       cx="99"
       cy="99"
       r="4.5"
       id="center_00"
       style="fill:none;stroke:#000000;stroke-width:0.1" />
    <polyline
       class="fil1 str1"
       id="outerShape"
       points="136.46,99.0 135.841015625,93.785703125 134.79500000000002,88.615 133.312109375,83.592421875 131.3825,78.8225 128.996328125,74.409765625 126.14375,70.45875 122.814921875,67.073984375 119.0,64.36 119.0,64.36 116.75142578125,63.15064453125 114.41953125,62.08390625 112.01005859375,61.16552734375 109.52875,60.401250000000005 106.98134765625001,59.79681640625 104.37359375,59.35796875 101.71123046875,59.09044921875 99.0,59.0 99.0,59.0 96.99791015625,59.049296875 95.02078125,59.195625 93.07107421875,59.436640625 91.15125,59.77 89.26376953125,60.193359375 87.41109375,60.704375 85.59568359375,61.300703125 83.82000000000001,61.980000000000004 83.82000000000001,61.980000000000004 83.60748046875,62.06201171875 83.40609375,62.13359375 83.21759765625,62.20306640625 83.04375,62.27875 82.88630859375,62.36896484375 82.74703125,62.48203125 82.62767578125,62.62626953125 82.53,62.81 82.53,62.81 82.466171875,63.010585937500004 82.443125,63.2015625 82.45476562500001,63.3855078125 82.495,63.565000000000005 82.557734375,63.7426171875 82.636875,63.9209375 82.726328125,64.1025390625 82.82000000000001,64.29 83.8,66.31 83.93951171875,66.58708984375001 84.11734375,66.89734375 84.34369140625,67.22423828125 84.62875,67.55125 84.98271484375,67.86185546875001 85.41578125,68.13953125 85.93814453125,68.36775390625 86.56,68.53 86.56,68.53 91.791328125,70.02054687500001 96.595625,72.45 100.883359375,75.68007812500001 104.565,79.5725 107.551015625,83.988984375 109.751875,88.79125 111.078046875,93.841015625 111.44,99.0"
       style="fill:none;stroke:#000000;stroke-width:0.1" />
    <polyline
       class="fil1 str1"
       id="innerShape"
       points="83.3,65.26 83.42384765625,65.47828125 83.59140625,65.654375 83.78919921875,65.79015625 84.00375,65.8875 84.22158203125001,65.94828125000001 84.42921875,65.974375 84.61318359375001,65.96765625 84.76,65.93 84.76,65.93 86.41900390625,65.26433593750001 88.11703125,64.6790625 89.85185546875,64.1767578125 91.62125,63.76 93.42298828125,63.4313671875 95.25484375,63.1934375 97.11458984375,63.0487890625 99.0,63.0 99.0,63.0 100.68580078125001,63.03865234375 102.35203125,63.15359375 103.99693359375,63.34330078125 105.61875,63.60625 107.21572265625001,63.94091796875 108.78609375,64.34578125 110.32810546875,64.81931640625 111.84,65.36 111.84,65.36 113.84615234375,66.3265625 116.03359375000001,67.74875 118.22455078125,69.5365625 120.24125000000001,71.60000000000001 121.90591796875,73.8490625 123.04078125000001,76.19375000000001 123.46806640625,78.5440625 123.01,80.81"
       style="fill:none;stroke:#000000;stroke-width:0.1" />
  </g>
</svg>
