<!DOCTYPE svg PUBLIC "-//W3C//DTD SVG 1.1//EN" "http://www.w3.org/Graphics/SVG/1.1/DTD/svg11.dtd">
<svg xmlns="http://www.w3.org/2000/svg" width="297mm" height="210mm" viewBox="0 0 297 210">
    <defs id="_tag_17_"/>
    <g id="trashNode_001"/>
    <g id="_tag_18_">
        <polygon id="_130029648" cx="71.1302" cy="145.448" points="87.0243,145.448 86.93723045717287,147.1093858480224 86.67697578082318,148.75256920502656 86.2463873756468,150.35954701029485 85.65018285831727,151.9127128787111 84.89489437029025,153.39505 83.98879701029486,154.7903175784618 82.94181817062025,156.08322877052834 81.76542877052833,157.25961817062026 80.4725175784618,158.30659701029487 79.07725,159.21269437029025 77.59491287871109,159.96798285831727 76.04174701029486,160.5641873756468 74.43476920502656,160.99477578082318 72.79158584802242,161.2550304571729 71.1302,161.34210000000002 69.4688141519776,161.2550304571729 67.82563079497346,160.99477578082318 66.21865298970515,160.5641873756468 64.66548712128893,159.96798285831727 63.183150000000005,159.21269437029025 61.78788242153821,158.30659701029487 60.49497122947168,157.25961817062026 59.31858182937975,156.08322877052834 58.27160298970515,154.7903175784618 57.36550562970976,153.39505000000003 56.61021714168274,151.9127128787111 56.0140126243532,150.35954701029488 55.58342421917682,148.75256920502656 55.32316954282713,147.1093858480224 55.2361,145.448 55.32316954282713,143.7866141519776 55.58342421917682,142.14343079497345 56.0140126243532,140.53645298970517 56.61021714168274,138.98328712128892 57.36550562970975,137.50095000000002 58.27160298970515,136.1056824215382 59.318581829379745,134.81277122947168 60.49497122947167,133.63638182937976 61.7878824215382,132.58940298970515 63.18315,131.68330562970976 64.66548712128892,130.92801714168274 66.21865298970515,130.3318126243532 67.82563079497345,129.90122421917684 69.46881415197758,129.64096954282712 71.1302,129.5539 72.79158584802241,129.64096954282712 74.43476920502654,129.9012242191768 76.04174701029486,130.3318126243532 77.59491287871107,130.92801714168274 79.07724999999999,131.68330562970976 80.47251757846179,132.58940298970515 81.76542877052833,133.63638182937976 82.94181817062025,134.81277122947168 83.98879701029486,136.1056824215382 84.89489437029025,137.50095 85.65018285831727,138.98328712128892 86.2463873756468,140.53645298970514 86.67697578082318,142.14343079497345 86.93723045717287,143.78661415197757" fill="none" stroke="black" stroke-width="0.1"/>
        <polygon id="_129596160" points="71.1302,130.791 120.207,130.885 137.488,132.676 151.939,139.975 182.698,176.43 185.226,192.315 184.22,208.373 177.485,230.967 168.766,245.07 162.567,256.318 155.88,269.986 140.681,288.98 124.649,303.437 107.953,312.581 47.4446,329.637 40.3349,301.875 99.2088,284.964 115.262,275.074 126.502,264.332 134.701,249.975 142.706,233.346 154.392,217.724 155.357,205.736 156.463,195.029 152.068,187.189 132.46,161.487 126.426,160.217 71.1302,160.217 66.9883,159.544 61.7338,156.737 58.8287,153.476 57.2965,150.395 56.4584,146.142 57.0787,141.159 59.6604,136.273 64.8762,132.155" fill="none" stroke="black" stroke-width="0.1"/>
        <polygon class="fil1 str1" id="simplify_2_1" points="220.798,152.963 226.7566,148.2087 226.9155646484375,148.05465683593746 227.0388609375,147.8780984375 227.1258548828125,147.68471894531248 227.17591249999998,147.4802125 227.1883998046875,147.2702732421875 227.16268281249998,147.06059531249997 227.09812753906252,146.85687285156249 226.9941,146.66479999999999 220.30100000000002,152.00519999999997 220.24126718750003,152.04367070312497 220.17689375,152.06870937499997 220.1099046875,152.08054335937499 220.042325,152.07939999999996 219.97617968750004,152.06550664062496 219.91349375,152.03909062499997 219.8562921875,152.00037929687497 219.8066,151.94959999999998 217.2621,148.76059999999998 217.129257421875,148.92480429687498 217.030453125,149.10695937499997 216.966284765625,149.30184101562497 216.93735,149.504225 216.944246484375,149.70888710937498 216.98757187500001,149.91060312499997 217.067923828125,150.10414882812498 217.1859,150.28429999999997 219.1779,152.78089999999997 219.3407380859375,152.94723769531248 219.5281984375,153.07405156249996 219.7336376953125,153.16059277343746 219.95041250000003,153.20611249999996 220.1718794921875,153.20986191406246 220.3913953125,153.17109218749997 220.6023166015625,153.08905449218747 220.798,152.96299999999997" fill="none" stroke="black" stroke-width="0.1"/>
        <polygon class="fil1 str1" id="simplify_3_1" points="225.769,229.96 227.4550380859375,230.06483652343752 229.16447968749998,230.1232234375 230.8973283203125,230.1351642578125 232.65358750000001,230.1006625 234.4332607421875,230.0197216796875 236.23635156249998,229.8923453125 238.06286347656248,229.7185369140625 239.9128,229.4983 239.9128,229.4983 240.89140234375,229.3147994140625 241.7725375,229.0295765625 242.54162265624998,228.63937480468752 243.184075,228.1409375 243.68531171875,227.5310080078125 244.03075,226.80632968749998 244.20580703125,225.9636458984375 244.1959,224.9997 242.70489999999998,210.7481 242.55336621093747,208.483055078125 242.54945468749997,206.21442187499997 242.65910019531248,203.943027734375 242.84823749999998,201.66969999999998 243.08280136718747,199.395266015625 243.32872656249998,197.120553125 243.5519478515625,194.846388671875 243.71839999999997,192.5736 242.15489999999997,191.1265 242.25729999999996,161.6181 240.95156171874996,159.1327595703125 239.67746874999997,156.88121406250002 238.42080390624994,154.8180146484375 237.16734999999994,152.8977125 235.90288984374996,151.0748587890625 234.61320624999996,149.3040046875 233.28408203124997,147.53970136718752 231.90129999999996,145.7365 221.43299999999996,141.13420000000002 218.98809999999997,150.37730000000002 221.35179999999997,150.33890000000002 223.66009511718747,150.18527929687502 225.75232343749997,150.42811562500003 227.66061191406249,151.05083164062503 229.41708749999998,152.03685000000002 231.05387714843746,153.36959335937502 232.60310781249996,155.03248437500002 234.09690644531247,157.00894570312502 235.56739999999996,159.28240000000002 235.56739999999996,159.28240000000002 236.93861601562497,161.85464433593754 238.20354062499996,164.93087343750003 239.23257617187497,168.36355644531253 239.89612499999998,172.00516250000004 240.06458945312497,175.70816074218754 239.60837187499996,179.32502031250002 238.39787460937495,182.7082103515625 236.30349999999996,185.71020000000001 228.66799999999995,191.09410000000003 226.72974082031243,192.70323046875 225.22888281249993,194.42277500000003 224.10365527343745,196.19727578125003 223.29228749999993,197.97127500000005 222.73300878906244,199.68931484375003 222.36404843749997,201.29593750000004 222.12363574218747,202.73568515625004 221.94999999999996,203.95310000000003 221.94999999999996,203.95310000000003 221.61433164062495,206.42718398437503 221.32822187499997,208.94635937500004 221.08615117187495,211.50653632812504 220.88259999999997,214.10362500000002 220.71204882812498,216.73353554687506 220.568978125,219.39217812500002 220.44786835937495,222.07546289062503 220.34319999999997,224.77930000000003 220.34319999999997,224.77930000000003 220.43531171874997,225.78216894531252 220.76342499999996,226.71843906250004 221.29326953124996,227.57065527343752 221.99057499999995,228.32136250000005 222.82107109374996,228.95310566406252 223.75048749999996,229.44842968750004 224.74455390624996,229.78987949218754 225.76899999999998,229.96000000000004" fill="none" stroke="black" stroke-width="0.1"/>
        <polygon class="fil1 str1" id="simplify_4_1" points="255.328,179.446 254.87013203125002,174.667416796875 254.03633125000002,169.894653125 252.94802734375,164.969812890625 251.72665,159.735 250.49362890625002,154.03231835937498 249.37039375,147.703871875 248.47837421875002,140.591764453125 247.939,132.5381 247.939,132.5381 247.8636765625,128.98500195312496 247.88841249999996,125.19232812499999 248.0015921875,121.153096484375 248.1916,116.86032499999999 248.4468203125,112.30703164062498 248.7556375,107.48623437499998 249.1064359375,102.39095117187499 249.4876,97.01419999999999 249.4876,97.01419999999999 249.4634529296875,96.59806992187498 249.3395171875,96.24091562499999 249.1338384765625,95.94016601562498 248.8644625,95.69324999999998 248.54943496093748,95.497596484375 248.2068015625,95.350634375 247.8546080078125,95.24979257812498 247.5109,95.19249999999998 246.5975,95.09289999999999 232.6109,142.3611 233.54079316406245,143.68360039062497 234.4297140625,145.034359375 235.28109980468747,146.416651171875 236.09838749999997,147.83375 236.8850142578125,149.28893007812496 237.64441718749998,150.78546562499997 238.3800333984375,152.326630859375 239.09529999999998,153.9157 239.09529999999998,153.9157 240.11927597656248,157.05880703124998 240.7828265625,160.77996249999998 241.16034824218747,164.94339296874998 241.3262375,169.413325 241.35489082031248,174.05398515624998 241.32070468749998,178.7296 241.29807558593748,183.30439609375 241.36139999999997,187.6426 241.36139999999997,187.6426 241.48391484374997,192.39122128906249 241.58958749999996,196.87486406249997 241.74922265624997,201.21458417968748 242.03362499999997,205.53143749999998 242.51359921875,209.94647988281247 243.25995,214.5807671875 244.34348203124998,219.5553552734375 245.83499999999998,224.9913 245.83499999999998,224.9913 246.71122890624997,227.6009419921875 247.87324999999996,230.3178421875 249.23673984374994,233.0434119140625 250.71737499999998,235.6790625 252.23083203124997,238.1262052734375 253.6927875,240.2862515625 255.01891796874997,242.0606126953125 256.12489999999997,243.3507 256.12489999999997,243.3507 256.875174609375,244.087305859375 257.68897187499994,244.79689062499997 258.553089453125,245.47606757812497 259.454325,246.12144999999998 260.37947617187496,246.729651171875 261.315340625,247.29728437499998 262.248716015625,247.820962890625 263.16639999999995,248.29729999999998 263.16639999999995,248.29729999999998 264.4603515624999,248.94621777343747 265.65208749999994,249.53126718749996 266.74731718749996,250.02499238281248 267.75174999999996,250.3999375 268.6710953125,250.62864667968748 269.5110625,250.68366406249996 270.27736093749996,250.53753378906248 270.97569999999996,250.16279999999998 270.97569999999996,250.16279999999998 271.4412697265625,249.69897480468748 271.6697140625,249.19761093749997 271.6900732421875,248.66165097656247 271.53138749999994,248.09403749999998 271.22269707031245,247.49771308593748 270.79304218749996,246.87562031249996 270.27146308593746,246.23070175781248 269.68699999999995,245.56589999999997 269.68699999999995,245.56589999999997 269.3019640624999,245.13490722656246 268.92111874999995,244.70247656249995 268.54002031249996,244.26387949218747 268.154225,243.81438749999998 267.75928906249993,243.34927207031245 267.35076874999993,242.86380468749996 266.9242203124999,242.35325683593746 266.4752,241.81289999999996 266.4752,241.81289999999996 264.90946757812503,239.91655957031247 263.275834375,237.87436406249998 261.635896484375,235.68893964843744 260.05125,233.36291249999996 258.583491015625,230.89890878906246 257.294215625,228.29955468749995 256.245019921875,225.56747636718745 255.49749999999997,222.70529999999997 255.49749999999997,222.70529999999997 255.01747070312496,219.0106671875 254.84562812499996,214.70777499999997 254.89342773437497,209.85607031249998 255.07232499999998,204.515 255.29377539062497,198.74401093749998 255.46923437499996,192.60254999999998 255.51015742187496,186.15006406249998 255.32799999999997,179.44599999999997" fill="none" stroke="black" stroke-width="0.1"/>
        <polygon class="fil1 str1" id="simplify_7_1" points="219.088,154.859 219.0771,154.3432 218.4796,153.5495 218.1305,152.7819 218.0797,152.35660000000001 218.141,151.8802 218.3114,151.0485 241.2515,80.58599999999998 241.23139999999998,80.46039999999998 241.15999999999997,80.35219999999998 241.05629999999996,80.28719999999998 240.92929999999996,80.25429999999999 236.74978046874995,80.13632519531248 232.84295624999996,80.22822031249999 229.26280390624993,80.49727714843749 226.06329999999997,80.9107875 223.29842109374994,81.43604316406248 221.02214374999994,82.04033593749998 219.28844453124995,82.69095761718748 218.15129999999996,83.35519999999998 218.15129999999996,83.35519999999998 217.07348574218747,84.32782265624998 216.14929843749997,85.38120624999999 215.35962128906246,86.51964921874999 214.68533749999997,87.74744999999999 214.10733027343747,89.06890703124998 213.60648281249996,90.48831874999998 213.16367832031244,92.00998359374998 212.75979999999996,93.63819999999998 212.75979999999996,93.63819999999998 212.55777812499997,94.53440976562499 212.33948124999995,95.51111562499999 212.10763749999995,96.55631992187497 211.86497499999996,97.65802499999998 211.61422187499994,98.804233203125 211.35810624999993,99.982946875 211.09935624999997,101.18216835937497 210.84069999999997,102.38989999999998 210.84069999999997,102.38989999999998 210.31133085937498,104.70422929687498 209.683053125,107.00230937499998 208.91983632812494,109.23496601562499 207.98565,111.35302499999999 206.844463671875,113.30731210937498 205.46024687499997,115.04865312499999 203.79696914062498,116.52787382812498 201.81859999999998,117.69579999999998 201.81859999999998,117.69579999999998 194.5462015625,120.43367675781248 185.8475375,122.76588906249998 176.24851718749997,124.74993496093748 166.27504999999996,126.44331249999998 156.45304531249997,127.90351972656248 147.30841249999995,129.18805468749997 139.36706093749999,130.3544154296875 133.15489999999997,131.46009999999998 132.83449999999996,131.599 132.74379999999996,131.8285 132.75529999999998,132.0829 132.8447,132.4059 133.01139999999998,132.6807 138.62231152343747,141.5212822265625 144.66176718749998,150.22833281249999 151.03229863281248,158.4615076171875 157.6364375,165.8804625 164.3767154296875,172.14485332031248 171.1556640625,176.9143359375 177.8758150390625,179.8485662109375 184.4397,180.6072 184.5083,180.5919 188.3502029296875,177.64801679687503 192.19576093749998,174.704253125 196.1117978515625,171.72158789062502 200.1651375,168.661 204.4226037109375,165.483468359375 208.95102031249996,162.149971875 213.81721113281247,158.621489453125 219.088,154.859" fill="none" stroke="black" stroke-width="0.1"/>
        <polyline id="simplify_SVG__000003" points="240.789,80.5286 217.833,151.041 217.622,151.754 217.535,152.302 217.635,152.968 217.943,153.721 218.582,154.737" fill="none" stroke="black" stroke-width="0.1"/>
        <polyline class="fil2 str1" id="simplify_9_1" points="205.64,115.145 204.914584765625,115.99628671875 204.470928125,116.5893625 204.22175117187498,117.10627578125 204.07977499999998,117.729075 203.957720703125,118.63980859375 203.76830937499997,120.02052499999999 203.42426210937498,122.05327265624999 202.83829999999998,124.92009999999999 202.83829999999998,124.92009999999999 202.71592246093746,125.535660546875 202.6051921875,126.14160937499997 202.48143769531248,126.73714726562498 202.31998749999997,127.32147499999999 202.09617011718746,127.893793359375 201.78531406249996,128.453303125 201.36274785156246,128.999205078125 200.80379999999997,129.5307 200.80379999999997,129.5307 199.53481308593746,130.5578001953125 198.19606093749996,131.6054140625 196.7859064453125,132.6779490234375 195.30271249999998,133.7798125 193.74484199218747,134.9154119140625 192.11065781249997,136.0891546875 190.39852285156246,137.30544824218748 188.60679999999996,138.5687 188.60679999999996,138.5687 183.78887246093745,141.91609296875 178.85848593749995,145.25781875 173.92224707031247,148.51283515625 169.08676249999996,151.6001 164.45863886718746,154.43857109375 160.14448281249997,156.94720625 156.25090097656246,159.04496328125 152.88449999999997,160.6508" fill="none" stroke="black" stroke-width="0.1"/>
        <polyline class="fil2 str1" id="simplify_10_1" points="167.409,174.673 172.08593242187501,171.1015966796875 177.365646875,167.3138546875 183.08421914062498,163.41045097656252 189.077725,159.4920625 195.182240234375,155.6593662109375 201.233840625,152.01303906249998 207.068601953125,148.6537580078125 212.52259999999998,145.6822 212.52259999999998,145.6822 213.8317875,144.9213884765625 215.0312875,144.0775578125 216.17530625,143.12431386718748 217.31804999999997,142.03526250000002 218.51372499999997,140.7840095703125 219.81653749999998,139.3441609375 221.28069374999998,137.6893224609375 222.9604,135.79309999999998" fill="none" stroke="black" stroke-width="0.1"/>
        <polygon class="fil1 str1" id="simplify_11_1" points="241.267,80.5369 241.4068,80.3601 241.6602,80.2783 242.9605,80.351 243.2212,80.4002 243.45440000000002,80.47109999999999 243.7264,80.5636 243.952,80.70809999999999 244.2048,80.96499999999999 248.1087,85.05599999999998 248.7558,86.02359999999999 249.1683,87.20619999999998 249.2525,88.28759999999998 248.7781,93.97329999999998 248.35739999999998,94.23179999999998 247.9408,94.88289999999998 247.5839,96.00879999999998 247.098,97.84849999999997 246.5902736328125,102.62332558593748 246.13365156250003,107.39762968749997 245.7243943359375,112.17145332031248 245.3587625,116.94483749999998 245.0330166015625,121.71782324218748 244.7434171875,126.49045156249997 244.48622480468748,131.26276347656247 244.2577,136.03479999999996 243.7311,138.47979999999995 242.6865,140.56819999999996 241.034,142.65639999999996 239.4134,143.99399999999997 237.5541,145.06069999999997 234.5897,145.85659999999996 231.98471171874996,146.43999433593746 229.6755,147.04176718749994 227.63641953125,147.66032832031246 225.84182499999997,148.2940875 224.26607109374999,148.94145449218746 222.8835125,149.60083906249997 221.66850390625,150.27065097656248 220.59539999999998,150.94929999999997 220.14,151.11889999999997 219.7044,151.16909999999996 219.3101,151.03429999999994 218.9108,150.84769999999995 218.52339999999998,150.39629999999994 241.267,80.53689999999995" fill="none" stroke="black" stroke-width="0.1"/>
        <polygon id="simplify_12" cx="235.179" cy="135.45" points="238.162,135.45 238.14565881388356,135.7618084059274 238.09681429298894,136.07020057370937 238.01600158810845,136.37179769422045 237.90410610014789,136.6632954062951 237.762353779489,136.9415 237.59229769422046,137.20336340758843 237.39580101439907,137.44601659876847 237.17501659876848,137.66680101439906 236.93236340758844,137.86329769422045 236.6705,138.03335377948898 236.39229540629512,138.17510610014787 236.10079769422046,138.28700158810844 235.79920057370938,138.36781429298892 235.49080840592742,138.41665881388354 235.179,138.433 234.86719159407258,138.41665881388354 234.55879942629062,138.36781429298892 234.25720230577954,138.28700158810844 233.96570459370488,138.17510610014787 233.6875,138.03335377948898 233.42563659241156,137.86329769422045 233.18298340123152,137.66680101439906 232.96219898560093,137.44601659876847 232.76570230577954,137.20336340758843 232.59564622051101,136.9415 232.45389389985212,136.6632954062951 232.34199841189155,136.37179769422045 232.26118570701107,136.07020057370937 232.21234118611645,135.7618084059274 232.196,135.45 232.21234118611645,135.13819159407257 232.26118570701107,134.8297994262906 232.34199841189155,134.52820230577953 232.45389389985212,134.23670459370487 232.59564622051101,133.9585 232.76570230577954,133.69663659241155 232.96219898560093,133.4539834012315 233.18298340123152,133.23319898560092 233.42563659241156,133.03670230577953 233.6875,132.866646220511 233.96570459370488,132.7248938998521 234.25720230577954,132.61299841189154 234.55879942629062,132.53218570701105 234.86719159407258,132.48334118611643 235.179,132.46699999999998 235.49080840592742,132.48334118611643 235.79920057370938,132.53218570701105 236.10079769422046,132.61299841189154 236.39229540629512,132.7248938998521 236.6705,132.866646220511 236.93236340758844,133.03670230577953 237.17501659876848,133.23319898560092 237.39580101439907,133.4539834012315 237.59229769422046,133.69663659241155 237.762353779489,133.9585 237.90410610014789,134.23670459370487 238.01600158810845,134.52820230577953 238.09681429298894,134.8297994262906 238.14565881388356,135.13819159407257" fill="none" stroke="black" stroke-width="0.1"/>
        <polyline class="fil2 str1" id="simplify_13_1" points="249.057,89.2034 248.82959843749998,89.7335341796875 248.59264375,90.3054609375 248.35599843749998,90.90695410156249 248.129525,91.52578749999999 247.9230859375,92.1497349609375 247.74654374999997,92.76657031250001 247.6097609375,93.36406738281251 247.52259999999998,93.93 247.0981,97.8485" fill="none" stroke="black" stroke-width="0.1"/>
        <polygon id="center_00" cx="71.1302" cy="145.448" points="106.9136,145.448 106.71757479072107,149.18838381249176 106.13164685609806,152.8877871972082 105.162235745196,156.5056787165165 103.81996252900825,160.0024199938386 102.11953343378009,163.3397 100.0795787165165,166.4809547968825 97.7224485479878,169.3917681395816 95.07396813958157,172.0402485479878 92.16315479688248,174.3973787165165 89.0219,176.43733343378008 85.6846199938386,178.13776252900826 82.1878787165165,179.480035745196 78.56998719720822,180.44944685609806 74.87058381249176,181.03537479072108 71.1302,181.2314 67.38981618750826,181.03537479072108 63.6904128027918,180.44944685609806 60.07252128348351,179.480035745196 56.575780006161416,178.13776252900826 53.23850000000001,176.43733343378008 50.097245203117524,174.3973787165165 47.186431860418445,172.0402485479878 44.537951452012216,169.3917681395816 42.18082128348351,166.4809547968825 40.14086656621993,163.33970000000002 38.44043747099176,160.0024199938386 37.098164254804004,156.5056787165165 36.128753143901946,152.88778719720824 35.54282520927893,149.18838381249176 35.3468,145.448 35.54282520927893,141.70761618750828 36.12875314390194,138.0082128027918 37.098164254804004,134.39032128348353 38.44043747099175,130.89358000616144 40.14086656621991,127.55630000000002 42.18082128348351,124.41504520311753 44.53795145201221,121.50423186041846 47.18643186041842,118.85575145201223 50.09724520311751,116.49862128348352 53.23849999999999,114.45866656621993 56.57578000616139,112.75823747099177 60.0725212834835,111.41596425480401 63.690412802791776,110.44655314390195 67.38981618750822,109.86062520927894 71.1302,109.66460000000001 74.87058381249173,109.86062520927894 78.56998719720818,110.44655314390194 82.1878787165165,111.41596425480401 85.68461999383858,112.75823747099176 89.02189999999997,114.4586665662199 92.16315479688248,116.49862128348352 95.07396813958155,118.85575145201221 97.72244854798777,121.50423186041841 100.0795787165165,124.41504520311751 102.11953343378008,127.5563 103.81996252900824,130.8935800061614 105.162235745196,134.3903212834835 106.13164685609806,138.00821280279177 106.71757479072107,141.70761618750822" fill="none" stroke="black" stroke-width="0.1"/>
    </g>
</svg>
