<!DOCTYPE svg PUBLIC "-//W3C//DTD SVG 1.1//EN" "http://www.w3.org/Graphics/SVG/1.1/DTD/svg11.dtd">
<svg xmlns="http://www.w3.org/2000/svg" width="420mm" height="297mm" viewBox="-210 -148.5 420 297">
    <defs id="_tag_74_"/>
    <g id="trashNode_001"/>
    <g id="_tag_75_">
        <g id="_tag_76_">
            <circle id="center_00" cx="154.84" cy="109.61" r="35.25" fill="none" stroke="black" stroke-width="0.1"/>
            <polygon fill="none" stroke="black" stroke-width="0.1" id="simplify_406_1" points="98.37,165.92000000000002 95.49,168.32 94.6020703125,168.84275390625 93.7434375,169.31078125 92.9105859375,169.72748046875 92.10000000000001,170.09625 91.3081640625,170.42048828125002 90.5315625,170.70359375 89.7666796875,170.94896484375 89.01,171.16 89.01,171.16 87.26328125,171.511640625 85.495,171.708125 83.64796875,171.800546875 81.665,171.84 79.48890625,171.877578125 77.0625,171.964375 74.32859375,172.151484375 71.23,172.49 68.45,171.65 104.81,151.06 98.37,165.92000000000002"/>
            <polygon fill="none" stroke="black" stroke-width="0.1" id="simplify_407_1" points="153.4,135.33 161.70000000000002,137.86 161.7637890625,137.4821875 161.84843750000002,137.125 161.9851171875,136.8165625 162.205,136.585 162.5392578125,136.4584375 163.0190625,136.465 163.67558593750002,136.6328125 164.54,136.99 160.61,133.47 155.67000000000002,131.44 153.4,135.33"/>
            <g id="_tag_77_">
                <polygon fill="none" stroke="black" stroke-width="0.1" id="simplify_409_1" points="114.02,149.13 152.33,132.31 163.12,138.06 163.25,138.23 163.24,138.45000000000002 158.8,148.33 158.0652734375,149.6148046875 157.1034375,150.7596875 155.9555078125,151.75035156250001 154.6625,152.5725 153.26542968750002,153.2118359375 151.8053125,153.6540625 150.3231640625,153.8848828125 148.86,153.89000000000001 148.86,153.89000000000001 142.39546875,153.77421875000002 135.511875,154.37 128.38921875,155.59578125000002 121.2075,157.37 114.14671875,159.61109375 107.386875,162.2375 101.10796875,165.16765625 95.49,168.32 94.77,168.54 94.11,168.48 93.46000000000001,168.20000000000002 88.8,163.77 88.65,163.26 88.7,162.61 89.27,162.11 91.8198828125,160.69791015625 94.4646875,159.23390625 97.2346484375,157.71388671875 100.16,156.13375 103.2709765625,154.48939453125 106.5978125,152.77671875000001 110.1707421875,150.99162109375 114.02,149.13"/>
                <polyline id="simplify_SVG__000187" points="161.94,138.03 159.05,144.43 158.53,145.07 157.58,145.38 152.78,145.72 150.32,146.70000000000002 147.12,146.87 132.93,145.82" fill="none" stroke="black" stroke-width="0.1"/>
                <circle id="simplify_411" cx="157.87" cy="138.69" r="2.12" fill="none" stroke="black" stroke-width="0.1"/>
            </g>
            <polygon id="simplify_412" points="133.76,123.28 130.12,122.81 130.5,121.82000000000001 133.88,122.32000000000001" fill="none" stroke="black" stroke-width="0.1"/>
            <g id="_tag_78_">
                <polygon id="simplify_414" points="142.55,114.93 142.41,115.24000000000001 142.61,115.8 142.59,116.11 141.78,122.31 146.33,122.9 148.33,115.19 145.47,115.14 142.88,114.82000000000001" fill="none" stroke="black" stroke-width="0.1"/>
                <polygon id="simplify_415" points="140.51,131.65 142.58,116.21000000000001 143.67000000000002,116.54 145.29,116.75 145.43,117.99000000000001 145.66,119.81 145.37,122.72 145.26,123.86 144.69,125.78 144.5,126.48 143.98,129.53 143.74,132.15" fill="none" stroke="black" stroke-width="0.1"/>
                <polygon id="simplify_416" points="143.74,132.15 146.81,129.47 139.46,128.42000000000002 140.51,131.65" fill="none" stroke="black" stroke-width="0.1"/>
            </g>
            <polygon id="simplify_417" points="134.6,116.60000000000001 134.84,116.42 143.54,117.55 143.04,121.45 134.33,120.32000000000001 134.15,120.08" fill="none" stroke="black" stroke-width="0.1"/>
            <polygon id="simplify_418" points="133.54,103.96000000000001 126.91,103.91 126.34,113.06 127.31,113.93 127.03,116.12 127.09,122.37 128.34,123.46000000000001 131.87,124.0 135.77,124.60000000000001 135.91,123.74000000000001 134.74,123.41 130.02,122.8 129.85,122.89 129.53,122.85000000000001 129.4,122.72 129.59,121.33 129.73,120.33 134.52,119.12" fill="none" stroke="black" stroke-width="0.1"/>
            <polyline fill="none" stroke="black" stroke-width="0.1" id="simplify_419_1" points="128.85,107.29 128.54306640625,107.61318359375001 128.26203125,107.97796875 128.01029296875,108.37720703125001 127.79125,108.80375000000001 127.60830078125001,109.25044921875 127.46484375,109.71015625 127.36427734375,110.17572265625 127.31,110.64 127.22,112.25 127.21490234375,112.4465234375 127.23546875000001,112.62406250000001 127.27923828125,112.7833203125 127.34375,112.925 127.42654296875,113.0498046875 127.52515625000001,113.1584375 127.63712890625,113.2516015625 127.76,113.33 130.78,115.25"/>
            <polygon id="simplify_420" points="151.79,120.28 146.91,122.98 145.74,122.83 146.34,115.5 146.21,115.02 145.88,114.72 145.49,114.55 144.76,114.46000000000001 139.63,113.79 143.32,104.05 151.79,99.96000000000001" fill="none" stroke="black" stroke-width="0.1"/>
            <g id="_tag_79_">
                <polygon id="simplify_422" points="129.65,120.85000000000001 129.71,121.35000000000001 130.0,121.77 130.45,122.06 139.35,123.39 139.79,123.32000000000001 140.16,123.15 140.4,122.79 140.55,122.44 140.76,120.76 141.06,118.47 141.32,116.5 142.04,113.01 144.12,103.23 144.39000000000001,102.0 144.45000000000002,100.85000000000001 144.22,99.9 142.93,96.01 142.47,95.24 141.81,94.93 140.27,94.60000000000001 140.1,94.82000000000001 139.92000000000002,95.32000000000001 139.23,95.82000000000001 138.41,95.75 137.22,95.52 136.77,95.13 136.17000000000002,94.45 135.26,93.45 134.44,92.68 133.18,92.36 132.69,92.28 131.54,92.37 129.58,92.52 127.51,92.43 126.22,92.29 123.24000000000001,91.91 122.43,91.58 121.44,91.3 120.62,91.08 119.57000000000001,90.85000000000001 118.62,98.27 116.44,100.63 116.32000000000001,101.42 116.51,101.9 117.88,102.13 119.26,102.34 119.82000000000001,102.14 120.29,101.33 120.88,101.12 121.83,100.8 122.81,100.9 123.55,101.58 124.26,102.55 124.95,103.4 125.85000000000001,104.05 127.05,104.5 128.22,105.51 129.0,107.71000000000001 129.58,109.98 129.55,112.48 130.34,113.53 130.48,113.84 130.51,114.23" fill="none" stroke="black" stroke-width="0.1"/>
                <g id="_tag_80_">
                    <polygon fill="none" stroke="black" stroke-width="0.1" id="simplify_424_1" points="119.57000000000001,90.85000000000001 119.78251953125,90.9908203125 119.95390625,91.3240625 120.08240234375,91.8283984375 120.16625,92.4825 120.20369140625,93.26503906250001 120.19296875,94.15468750000001 120.13232421875,95.1301171875 120.02,96.17 120.02,96.17 119.86271484375,97.19931640625 119.67296875,98.15140625000001 119.45767578125,99.00623046875 119.22375,99.74375 118.97810546875,100.34392578125001 118.72765625,100.78671875 118.47931640625,101.05208984375 118.24000000000001,101.12 118.24000000000001,101.12 118.03076171875,100.97917968750001 117.86171875000001,100.6459375 117.73462890625001,100.1416015625 117.65125,99.4875 117.61333984375,98.7049609375 117.62265625,97.8153125 117.68095703125,96.83988281250001 117.79,95.8 117.79,95.8 117.9476953125,94.77068359375001 118.13843750000001,93.81859375 118.3549609375,92.96376953125001 118.59,92.22625000000001 118.8362890625,91.62607421875 119.0865625,91.18328125000001 119.3335546875,90.91791015625 119.57000000000001,90.85000000000001"/>
                    <polygon fill="none" stroke="black" stroke-width="0.1" id="simplify_425_1" points="116.18,100.18 116.06902343750001,99.87328125 115.98406250000001,99.47 115.92582031250001,98.98046875 115.895,98.415 115.8923046875,97.78390625 115.9184375,97.0975 115.9741015625,96.36609375 116.06,95.60000000000001 116.06,95.60000000000001 116.17748046875,94.80302734375 116.31734375,94.05421875 116.47572265625,93.36423828125 116.64875,92.74375 116.83255859375001,92.20341796875 117.02328125,91.75390625 117.21705078125001,91.40587890625 117.41,91.17 117.41,91.17 117.4380859375,91.1461328125 117.4753125,91.1140625 117.5186328125,91.07683593750001 117.565,91.03750000000001 117.61136718750001,90.9991015625 117.65468750000001,90.9646875 117.6919140625,90.9373046875 117.72,90.92 117.72,90.92 117.74625,90.90267578125 117.77250000000001,90.88828125 117.79875,90.87693359375 117.825,90.86875 117.85125000000001,90.86384765625 117.8775,90.86234375000001 117.90375,90.86435546875 117.93,90.87 119.21000000000001,90.99 119.41552734375,91.12716796875 119.58109375000001,91.44984375 119.70517578125,91.93728515625 119.78625,92.56875000000001 119.82279296875001,93.32349609375 119.81328125,94.18078125 119.75619140625,95.11986328125 119.65,96.12 119.65,96.12 119.49693359375,97.116171875 119.31234375,98.03687500000001 119.10314453125,98.862890625 118.87625,99.575 118.63857421875001,100.15398437500001 118.39703125,100.580625 118.15853515625,100.83570312500001 117.93,100.9 116.64,100.77 116.61376953125,100.76439453125 116.58765625000001,100.75515625 116.56177734375001,100.74240234375 116.53625,100.72625000000001 116.51119140625,100.70681640625 116.48671875000001,100.68421875 116.46294921875,100.65857421875 116.44,100.63 116.18,100.18"/>
                    <polyline fill="none" stroke="black" stroke-width="0.1" id="simplify_426_1" points="117.93,90.87 118.13263671875,91.0038671875 118.29671875,91.3240625 118.42025390625,91.8097265625 118.50125,92.44 118.53771484375,93.19402343750001 118.52765625,94.0509375 118.46908203125,94.9898828125 118.36,95.99000000000001 118.36,95.99000000000001 118.21021484375001,96.986171875 118.02796875,97.906875 117.82017578125,98.732890625 117.59375,99.44500000000001 117.35560546875,100.023984375 117.11265625,100.450625 116.87181640625,100.705703125 116.64,100.77"/>
                    <line id="simplify_427" x1="115.83" y1="99.94" x2="116.73" y2="100.08" stroke="black" stroke-width="0.1"/>
                    <polygon fill="none" stroke="black" stroke-width="0.1" id="simplify_428_1" points="117.10000000000001,99.85000000000001 117.0545703125,99.90951171875 117.0084375,99.96046875 116.9618359375,100.00275390625 116.915,100.03625 116.8681640625,100.06083984375 116.8215625,100.07640625 116.77542968750001,100.08283203125 116.73,100.08 115.86,99.95 115.86,99.95 115.86,99.95 115.86,99.95 115.86,99.95 115.86,99.95 115.86,99.95 115.86,99.95 115.86,99.95 115.86,99.95 115.8454296875,99.94580078125 115.8315625,99.94078125 115.8181640625,99.93505859375 115.805,99.92875000000001 115.7918359375,99.92197265625 115.7784375,99.91484375 115.7645703125,99.90748046875001 115.75,99.9 115.75,99.9 115.7495703125,99.89669921875 115.74843750000001,99.89421875000001 115.74683593750001,99.89244140625 115.745,99.89125 115.7431640625,99.89052734375001 115.7415625,99.89015625 115.7404296875,99.89001953125 115.74000000000001,99.89 113.78,98.32000000000001 114.53,92.39 114.8137890625,92.274140625 115.1015625,92.15875 115.3916796875,92.04335937500001 115.6825,91.9275 115.9723828125,91.810703125 116.2596875,91.6925 116.5427734375,91.572421875 116.82000000000001,91.45 116.82000000000001,91.45 116.83875,91.4396875 116.8575,91.43125 116.87625,91.4246875 116.895,91.42 116.91375000000001,91.4171875 116.9325,91.41625 116.95125,91.4171875 116.97,91.42 117.08,91.44 117.84,91.55 117.88779296875,91.56638671875 117.93359375,91.59296875 117.97728515625,91.62962890625 118.01875,91.67625 118.05787109375001,91.73271484375 118.09453125,91.79890625 118.12861328125,91.87470703125 118.16,91.96000000000001 118.16,91.96000000000001 118.21197265625,92.31966796875 118.24765625,92.72796875 118.26669921875,93.18009765625 118.26875,93.67125 118.25345703125001,94.19662109375 118.22046875000001,94.75140625 118.16943359375,95.33080078125 118.10000000000001,95.93 118.10000000000001,95.93 118.0102734375,96.55166015625001 117.9071875,97.14578125 117.79238281250001,97.70732421875 117.6675,98.23125 117.5341796875,98.71251953125 117.3940625,99.14609375 117.24878906250001,99.52693359375 117.10000000000001,99.85000000000001 117.10000000000001,99.85000000000001"/>
                    <g id="_tag_81_">
                        <g id="simplify_430_1">
                            <polygon fill="none" id="simplify_430___0" points="113.68,98.19 113.68,98.19 113.68,98.19" stroke="black" stroke-width="0.1"/>
                            <polygon fill="none" id="simplify_430___1" points="113.51,97.86 113.51,97.86 113.44916015625,97.682734375 113.40203125000001,97.454375 113.36919921875,97.18007812500001 113.35125000000001,96.86500000000001 113.34876953125,96.514296875 113.36234375000001,96.133125 113.39255859375,95.726640625 113.44,95.3 113.44,95.3 113.4790625,95.02544921875 113.529375,94.71984375 113.591875,94.39525390625 113.6675,94.06375 113.7571875,93.73740234375 113.861875,93.42828125 113.9825,93.14845703125 114.12,92.91 114.36,92.55 114.36,92.55 114.39373046875001,92.5049609375 114.42734375,92.46718750000001 114.46072265625,92.4364453125 114.49375,92.41250000000001 114.52630859375,92.3951171875 114.55828125000001,92.3840625 114.58955078125,92.3791015625 114.62,92.38 114.62,92.38 114.74314453125,92.46232421875 114.84203125,92.65609375 114.91583984375,92.94900390625 114.96375,93.32875 114.98494140625,93.78302734375 114.97859375,94.29953125 114.94388671875001,94.86595703125 114.88,95.47 114.88,95.47 114.78980468750001,96.066640625 114.6796875,96.61875 114.55410156250001,97.114609375 114.4175,97.5425 114.2743359375,97.890703125 114.1290625,98.14750000000001 113.9861328125,98.30117187500001 113.85000000000001,98.34 113.85000000000001,98.34 113.8246484375,98.33437500000001 113.8009375,98.325 113.7786328125,98.311875 113.75750000000001,98.295 113.7373046875,98.274375 113.71781250000001,98.25 113.6987890625,98.221875 113.68,98.19 113.67,98.18 113.6508203125,98.14205078125 113.6309375,98.10328125000001 113.6105859375,98.06380859375 113.59,98.02375 113.5694140625,97.98322265625 113.5490625,97.94234375 113.5291796875,97.90123046875 113.51,97.86" stroke="black" stroke-width="0.1"/>
                            <polygon fill="none" id="simplify_430___2" points="113.51,97.86 113.51,97.86 113.51,97.86" stroke="black" stroke-width="0.1"/>
                        </g>
                        <g id="1_1">
                            <polyline id="1___0" fill="none" stroke="black" stroke-width="0.1" points="113.68,98.19 113.68,98.19"/>
                            <polygon id="1___1" fill="none" stroke="black" stroke-width="0.1" points="113.51,97.86 113.51,97.86 113.44916015625,97.682734375 113.40203125000001,97.454375 113.36919921875,97.18007812500001 113.35125000000001,96.86500000000001 113.34876953125,96.514296875 113.36234375000001,96.133125 113.39255859375,95.726640625 113.44,95.3 113.44,95.3 113.4790625,95.02544921875 113.529375,94.71984375 113.591875,94.39525390625 113.6675,94.06375 113.7571875,93.73740234375 113.861875,93.42828125 113.9825,93.14845703125 114.12,92.91 114.36,92.55 114.36,92.55 114.39373046875001,92.5049609375 114.42734375,92.46718750000001 114.46072265625,92.4364453125 114.49375,92.41250000000001 114.52630859375,92.3951171875 114.55828125000001,92.3840625 114.58955078125,92.3791015625 114.62,92.38 114.62,92.38 114.74314453125,92.46232421875 114.84203125,92.65609375 114.91583984375,92.94900390625 114.96375,93.32875 114.98494140625,93.78302734375 114.97859375,94.29953125 114.94388671875001,94.86595703125 114.88,95.47 114.88,95.47 114.78980468750001,96.066640625 114.6796875,96.61875 114.55410156250001,97.114609375 114.4175,97.5425 114.2743359375,97.890703125 114.1290625,98.14750000000001 113.9861328125,98.30117187500001 113.85000000000001,98.34 113.85000000000001,98.34 113.8246484375,98.33437500000001 113.8009375,98.325 113.7786328125,98.311875 113.75750000000001,98.295 113.7373046875,98.274375 113.71781250000001,98.25 113.6987890625,98.221875 113.68,98.19 113.67,98.18 113.6508203125,98.14205078125 113.6309375,98.10328125000001 113.6105859375,98.06380859375 113.59,98.02375 113.5694140625,97.98322265625 113.5490625,97.94234375 113.5291796875,97.90123046875 113.51,97.86"/>
                            <polyline id="1___2" fill="none" stroke="black" stroke-width="0.1" points="113.51,97.86 113.51,97.86"/>
                        </g>
                    </g>
                    <polyline fill="none" stroke="black" stroke-width="0.1" id="simplify_431_1" points="114.62,92.38 114.74314453125,92.46232421875 114.84203125,92.65609375 114.91583984375,92.94900390625 114.96375,93.32875 114.98494140625,93.78302734375 114.97859375,94.29953125 114.94388671875001,94.86595703125 114.88,95.47 114.88,95.47 114.78980468750001,96.066640625 114.6796875,96.61875 114.55410156250001,97.114609375 114.4175,97.5425 114.2743359375,97.890703125 114.1290625,98.14750000000001 113.9861328125,98.30117187500001 113.85000000000001,98.34"/>
                    <polyline fill="none" stroke="black" stroke-width="0.1" id="simplify_432_1" points="114.0,93.11 114.045,93.025234375 114.09,92.95125 114.135,92.888515625 114.18,92.8375 114.22500000000001,92.798671875 114.27,92.77250000000001 114.315,92.75945312500001 114.36,92.76 114.36,92.76 114.46626953125,92.83177734375 114.55203125,93.00234375000001 114.61646484375001,93.26080078125 114.65875,93.59625 114.67806640625,93.99779296875 114.67359375000001,94.45453125 114.64451171875,94.95556640625 114.59,95.49 114.59,95.49 114.50904296875001,96.0175 114.41109375,96.50562500000001 114.29978515625,96.9440625 114.17875000000001,97.3225 114.05162109375,97.63062500000001 113.92203125,97.858125 113.79361328125,97.9946875 113.67,98.03 113.67,98.03 113.62970703125,98.01509765625 113.59140625,97.98578125 113.55521484375001,97.94263671875001 113.52125000000001,97.88625 113.48962890625,97.81720703125 113.46046875,97.73609375000001 113.43388671875,97.64349609375 113.41,97.54"/>
                    <polygon id="simplify_433" points="113.79,94.23 114.29,93.19 114.53,94.41 114.24000000000001,96.58 113.76,97.55 113.53,96.4" fill="none" stroke="black" stroke-width="0.1"/>
                    <line id="simplify_434" x1="113.79" y1="94.25" x2="114.52" y2="94.38" stroke="black" stroke-width="0.1"/>
                    <line id="simplify_435" x1="113.53" y1="96.44" x2="114.24000000000001" y2="96.55" stroke="black" stroke-width="0.1"/>
                    <line id="simplify_436" x1="114.05" y1="93.01" x2="114.36" y2="92.55" stroke="black" stroke-width="0.1"/>
                    <g id="_tag_82_">
                        <polygon fill="none" stroke="black" stroke-width="0.1" id="simplify_438_1" points="117.10000000000001,99.85000000000001 117.02083984375,100.001328125 116.94109375000001,100.13250000000001 116.86111328125,100.243046875 116.78125,100.3325 116.70185546875,100.400390625 116.62328125,100.44625 116.54587890625,100.469609375 116.47,100.47 116.47,100.47 116.41513671875,100.45509765625 116.36296875000001,100.42578125 116.31337890625001,100.38263671875 116.26625,100.32625 116.22146484375,100.25720703125 116.17890625,100.17609375 116.13845703125,100.08349609375 116.10000000000001,99.98 116.73,100.08 116.77501953125,100.08283203125 116.82015625,100.07640625 116.86552734375,100.06083984375 116.91125,100.03625 116.95744140625,100.00275390625 117.00421875,99.96046875 117.05169921875,99.90951171875 117.10000000000001,99.85000000000001"/>
                        <polygon fill="none" stroke="black" stroke-width="0.1" id="simplify_439_1" points="117.19,91.45 117.84,91.55 117.88779296875,91.56638671875 117.93359375,91.59296875 117.97728515625,91.62962890625 118.01875,91.67625 118.05787109375001,91.73271484375 118.09453125,91.79890625 118.12861328125,91.87470703125 118.16,91.96000000000001 118.16,91.96000000000001 118.11970703125,91.76751953125 118.07390625000001,91.59578125 118.02271484375001,91.44583984375001 117.96625,91.31875000000001 117.90462890625,91.21556640625 117.83796875,91.13734375 117.76638671875,91.08513671875001 117.69,91.06 117.69,91.06 117.62955078125,91.0570703125 117.56828125,91.0703125 117.50630859375,91.09902343750001 117.44375000000001,91.1425 117.38072265625,91.2000390625 117.31734375,91.2709375 117.25373046875,91.3544921875 117.19,91.45"/>
                    </g>
                </g>
                <polyline id="simplify_SVG__000201" points="117.12,101.15 119.83,101.58 119.75,101.88" fill="none" stroke="black" stroke-width="0.1"/>
                <polyline fill="none" stroke="black" stroke-width="0.1" id="simplify_441_1" points="116.97,91.42 117.14462890625,91.53609375 117.28515625,91.8125 117.39029296875,92.23140625 117.45875000000001,92.775 117.48923828125,93.42546875000001 117.48046875,94.165 117.43115234375,94.97578125 117.34,95.84 117.34,95.84 117.2083203125,96.69458984375001 117.0496875,97.48484375 116.8699609375,98.19423828125001 116.675,98.80625 116.4706640625,99.30435546875 116.2628125,99.67203125 116.05730468750001,99.89275390625001 115.86,99.95"/>
                <polyline fill="none" stroke="black" stroke-width="0.1" id="simplify_442_1" points="116.57000000000001,91.69 116.62205078125,91.62302734375 116.67328125,91.56484375000001 116.72380859375001,91.51580078125001 116.77375,91.47625000000001 116.82322265625,91.44654296875 116.87234375,91.42703125 116.92123046875,91.41806640625 116.97,91.42"/>
                <polyline id="simplify_SVG__000202" points="122.33,92.03 122.77,93.31 123.57000000000001,94.39 123.85000000000001,96.07000000000001 123.73,97.59 123.25,98.88 122.46000000000001,100.03 121.83,100.8 120.29,101.33 118.29,101.12" fill="none" stroke="black" stroke-width="0.1"/>
                <polyline id="simplify_SVG__000203" points="123.61,92.59 124.73,93.31 125.81,94.51 126.57000000000001,95.79 127.34,98.12 130.06,107.73 130.46,109.01 130.66,110.22 130.62,112.18 130.42000000000002,113.54" fill="none" stroke="black" stroke-width="0.1"/>
                <polyline id="simplify_SVG__000204" points="135.75,94.47 136.47,96.07000000000001 136.75,97.59 137.23,100.12 137.83,103.12 138.15,105.17 138.43,107.69" fill="none" stroke="black" stroke-width="0.1"/>
                <polygon id="simplify_446" points="132.72,92.28 133.41,92.56 133.95,92.95 134.47,94.07000000000001 134.99,95.35000000000001 135.59,97.47 136.27,100.28 136.99,103.12 137.35,105.17 137.67000000000002,106.89 137.79,107.97 137.55,109.29 136.87,110.58 131.86,116.4 131.29,116.92 130.97,116.86 131.22,114.82000000000001 131.56,112.67 131.59,111.16 131.45,109.68 130.97,107.67 130.66,106.33 127.73,96.45 126.94,93.78 126.58,93.01 126.33,92.58 126.07000000000001,92.27 127.51,92.43 129.58,92.52" fill="none" stroke="black" stroke-width="0.1"/>
                <polyline id="simplify_SVG__000206" points="130.99,117.88 136.48,112.17 138.71,109.48 139.27,108.05 139.91,103.05 140.19,100.67 140.34,97.72 140.01,96.57000000000001 139.63,96.24000000000001" fill="none" stroke="black" stroke-width="0.1"/>
                <polygon fill="none" stroke="black" stroke-width="0.1" id="simplify_448_1" points="124.14,98.64 123.99802734375,98.8105078125 123.89296875000001,98.9728125 123.82236328125,99.1318359375 123.78375,99.2925 123.77466796875001,99.45972656250001 123.79265625000001,99.63843750000001 123.83525390625,99.8335546875 123.9,100.05 123.9,100.05 123.97464843750001,100.23919921875 124.0865625,100.46859375 124.2251953125,100.72587890625 124.38000000000001,100.99875 124.54042968750001,101.27490234375 124.6959375,101.54203125000001 124.83597656250001,101.78783203125 124.95,102.0 124.95,102.0 125.00083984375,102.06162109375 125.04921875000001,102.12546875 125.09642578125,102.19001953125 125.14375,102.25375 125.19248046875,102.31513671875 125.24390625000001,102.37265625 125.29931640625,102.42478515625 125.36,102.47 125.36,102.47 125.40255859375,102.48890625 125.44734375,102.50125 125.49376953125001,102.50796875 125.54125,102.51 125.58919921875,102.50828125 125.63703125,102.50375 125.68416015625,102.49734375 125.73,102.49000000000001 125.73,102.49000000000001 125.78740234375,102.47482421875 125.84609375000001,102.45859375 125.90455078125001,102.44025390625 125.96125,102.41875 126.01466796875,102.39302734375 126.06328125,102.36203125 126.10556640625,102.32470703125 126.14,102.28 126.14,102.28 126.245625,102.0463671875 126.293125,101.7928125 126.29468750000001,101.5266015625 126.2625,101.255 126.20875000000001,100.9852734375 126.14562500000001,100.7246875 126.0853125,100.48050781250001 126.04,100.26 126.04,100.26 126.01998046875,100.1187890625 126.00359375000001,99.9553125 125.98884765625,99.7773046875 125.97375000000001,99.5925 125.95630859375001,99.4086328125 125.93453125,99.23343750000001 125.90642578125001,99.0746484375 125.87,98.94 125.87,98.94 125.80474609375,98.77480468750001 125.73421875,98.63843750000001 125.65501953125,98.5297265625 125.56375,98.4475 125.45701171875,98.3905859375 125.33140625,98.35781250000001 125.18353515625,98.3480078125 125.01,98.36 125.01,98.36 124.89263671875,98.37408203125 124.77421875,98.38828125 124.65650390625001,98.40552734375001 124.54125,98.42875000000001 124.43021484375001,98.46087890625 124.32515625,98.50484375 124.22783203125,98.56357421875 124.14,98.64"/>
                <polyline id="simplify_SVG__000207" points="117.12,101.11 116.98,101.69 116.63,101.92" fill="none" stroke="black" stroke-width="0.1"/>
            </g>
            <polygon fill="none" stroke="black" stroke-width="0.1" id="simplify_451_1" points="129.38,119.67 124.5,119.04 124.32000000000001,118.8 124.77,115.32000000000001 125.0,115.14 129.89000000000001,115.78 129.96865234375,115.83109375000001 130.03171875,115.95625 130.07861328125,116.14703125 130.10875000000001,116.395 130.12154296875,116.69171875 130.11640625,117.02875 130.09275390625,117.39765625 130.05,117.79 130.05,117.79 129.9933203125,118.1825 129.9228125,118.545 129.8415234375,118.87 129.7525,119.15 129.6587890625,119.3775 129.5634375,119.545 129.4694921875,119.645 129.38,119.67"/>
            <polygon fill="none" stroke="black" stroke-width="0.1" stroke-linecap="round" stroke-linejoin="round" id="simplify_452_1" points="149.76,118.86 149.8123828125,119.414140625 149.95781250000002,119.92937500000001 150.1787109375,120.39492187500001 150.4575,120.8 150.7766015625,121.13382812500001 151.1184375,121.385625 151.4654296875,121.54460937500001 151.8,121.60000000000001 154.86,121.60000000000001 154.86,109.62 154.86,97.61 151.8,97.61 151.4654296875,97.66580078125 151.1184375,97.82578125 150.7766015625,98.07880859375 150.4575,98.41375000000001 150.1787109375,98.81947265625 149.95781250000002,99.28484375000001 149.8123828125,99.79873046875001 149.76,100.35000000000001 149.76,118.86"/>
            <polyline fill="none" stroke="black" stroke-width="0.1" id="simplify_453_1" points="153.36,121.60000000000001 153.0254296875,121.54460937500001 152.6784375,121.385625 152.3366015625,121.13382812500001 152.0175,120.8 151.7387109375,120.39492187500001 151.5178125,119.92937500000001 151.3723828125,119.414140625 151.32,118.86 151.32,100.35000000000001 151.3723828125,99.79873046875001 151.5178125,99.28484375000001 151.7387109375,98.81947265625 152.0175,98.41375000000001 152.3366015625,98.07880859375 152.6784375,97.82578125 153.0254296875,97.66580078125 153.36,97.61"/>
            <g id="_tag_83_">
                <polygon fill="none" stroke="black" stroke-width="0.1" stroke-linecap="round" stroke-linejoin="round" id="simplify_454_1" points="157.51,113.91 158.42000000000002,113.91 162.12,112.95 162.2012109375,112.9169921875 162.2784375,112.8715625 162.3495703125,112.8153515625 162.4125,112.75 162.4651171875,112.67714843750001 162.5053125,112.5984375 162.5309765625,112.5155078125 162.54,112.43 162.54,109.64 162.54,106.84 162.5309765625,106.75736328125001 162.5053125,106.67578125 162.4651171875,106.59724609375 162.4125,106.52375 162.3495703125,106.45728515625001 162.2784375,106.39984375 162.2012109375,106.35341796875001 162.12,106.32000000000001 158.42000000000002,105.36 157.51,105.36 157.51,113.91"/>
                <polygon fill="none" stroke="black" stroke-width="0.1" stroke-linecap="round" stroke-linejoin="round" id="simplify_455_1" points="156.05,102.12 156.2433203125,102.33390625 156.42656250000002,102.54875 156.6008984375,102.76546875 156.7675,102.985 156.92753906250002,103.20828125 157.0821875,103.43625 157.2326171875,103.66984375 157.38,103.91 157.38,103.91 157.41716796875,103.97291015625001 157.44671875,104.03453125 157.46947265625,104.09544921875 157.48625,104.15625 157.49787109375,104.21751953125 157.50515625,104.27984375 157.50892578125,104.34380859375 157.51,104.41 157.51,105.36 157.51,109.61 157.51,113.86 157.51,114.81 157.50892578125,114.87291015625 157.50515625,114.93453125 157.49787109375,114.99544921875 157.48625,115.05625 157.46947265625,115.11751953125 157.44671875,115.17984375 157.41716796875,115.24380859375 157.38,115.31 157.38,115.31 157.2326171875,115.55015625 157.0821875,115.78375 156.92753906250002,116.01171875 156.7675,116.235 156.6008984375,116.45453125 156.42656250000002,116.67125 156.2433203125,116.88609375 156.05,117.10000000000001 156.05,117.10000000000001 155.94115234375,117.2084765625 155.82421875,117.3078125 155.69861328125,117.3963671875 155.56375,117.4725 155.41904296875,117.53457031250001 155.26390625,117.5809375 155.09775390625,117.6099609375 154.92000000000002,117.62 154.66,117.62 154.52900390625,117.55779296875001 154.35453125,117.38671875 154.14935546875,117.13009765625 153.92625,116.81125 153.69798828125,116.45349609375 153.47734375000002,116.08015625 153.27708984375,115.71455078125 153.11,115.38 153.11,115.38 152.89978515625,114.920859375 152.71265625,114.463125 152.55013671875,114.013828125 152.41375,113.58 152.30501953125,113.168671875 152.22546875,112.78687500000001 152.17662109375001,112.441640625 152.16,112.14 152.16,109.61 152.16,107.08 152.17662109375001,106.77835937500001 152.22546875,106.433125 152.30501953125,106.051328125 152.41375,105.64 152.55013671875,105.206171875 152.71265625,104.75687500000001 152.89978515625,104.299140625 153.11,103.84 153.11,103.84 153.27708984375,103.502578125 153.47734375000002,103.135625 153.69798828125,102.76210937500001 153.92625,102.405 154.14935546875,102.087265625 154.35453125,101.831875 154.52900390625,101.66179687500001 154.66,101.60000000000001 154.66,101.60000000000001 154.6933203125,101.60000000000001 154.72593750000001,101.60000000000001 154.7580859375,101.60000000000001 154.79,101.60000000000001 154.8219140625,101.60000000000001 154.8540625,101.60000000000001 154.8866796875,101.60000000000001 154.92000000000002,101.60000000000001 154.92000000000002,101.60000000000001 155.09775390625,101.60962890625001 155.26390625,101.63765625 155.41904296875,101.68279296875001 155.56375,101.74375 155.69861328125,101.81923828125001 155.82421875,101.90796875000001 155.94115234375,102.00865234375 156.05,102.12"/>
                <polyline fill="none" stroke="black" stroke-width="0.1" id="simplify_456_1" points="154.92000000000002,101.60000000000001 154.94664062500001,103.07580078125 155.016875,104.30140625 155.116171875,105.33412109375 155.23,106.23125 155.34382812500002,107.05009765625 155.443125,107.84796875 155.513359375,108.68216796875001 155.54,109.61 155.54,109.61 155.513359375,110.53783203125 155.443125,111.37203125 155.34382812500002,112.16990234375 155.23,112.98875 155.116171875,113.88587890625 155.016875,114.91859375 154.94664062500001,116.14419921875 154.92000000000002,117.62"/>
                <polyline fill="none" stroke="black" stroke-width="0.1" id="simplify_457_1" points="157.42000000000002,103.98 157.400234375,104.69810546875 157.348125,105.40671875 157.274453125,106.10853515625 157.19,106.80625 157.10554687500002,107.50255859375 157.031875,108.20015625 156.979765625,108.90173828125 156.96,109.61 156.96,109.61 156.979765625,110.3182421875 157.031875,111.0196875 157.10554687500002,111.7169140625 157.19,112.41250000000001 157.274453125,113.1090234375 157.348125,113.8090625 157.400234375,114.5151953125 157.42000000000002,115.23"/>
                <line id="simplify_458" x1="158.42000000000002" y1="113.86" x2="158.42000000000002" y2="105.36" stroke="black" stroke-width="0.1"/>
            </g>
            <polygon id="simplify_459" points="144.06,121.62 144.58,117.65 144.4,117.41 143.57,117.31 143.0,121.69 143.83,121.8" fill="none" stroke="black" stroke-width="0.1"/>
            <polygon id="simplify_460" points="125.45,119.77 126.54,119.91 127.2,114.82000000000001 126.11,114.68" fill="none" stroke="black" stroke-width="0.1"/>
            <line id="simplify_461" x1="144.4" y1="117.41" x2="143.83" y2="121.8" stroke="black" stroke-width="0.1"/>
            <line id="simplify_462" x1="125.0" y1="115.14" x2="124.5" y2="119.04" stroke="black" stroke-width="0.1"/>
            <polygon id="simplify_463" points="127.10000000000001,125.24000000000001 128.52,114.28 127.29,114.12 125.88000000000001,124.96000000000001" fill="none" stroke="black" stroke-width="0.1"/>
            <polygon id="simplify_464" points="140.83,129.66 142.59,116.11 143.71,116.25 142.37,126.58 141.87,130.39000000000001" fill="none" stroke="black" stroke-width="0.1"/>
            <polyline fill="none" stroke="black" stroke-width="0.1" id="simplify_465_1" points="159.39000000000001,145.57 159.14488281250001,145.621640625 158.9271875,145.690625 158.7371484375,145.771796875 158.57500000000002,145.86 158.4409765625,145.950078125 158.33531250000001,146.036875 158.2582421875,146.115234375 158.21,146.18 158.21,146.18 157.61025390625,147.11265625000001 156.86765625,148.12125 156.00341796875,149.14296875 155.03875,150.115 153.99486328125,150.97453125 152.89296875,151.65875 151.75427734375,152.10484375000001 150.6,152.25 150.6,152.25 141.25400390625,152.35763671875 132.79453125,153.08859375 125.10310546875,154.37994140625 118.06125,156.16875000000002 111.55048828125,158.39208984375 105.45234375,160.98703125 99.64833984375001,163.89064453125 94.02,167.04 93.46000000000001,166.93 89.4,163.31 89.60000000000001,162.86 116.7,148.54"/>
            <polygon fill="none" stroke="black" stroke-width="0.1" id="simplify_466_1" points="144.43,130.11 148.01,128.07 149.92000000000002,127.61 151.21,127.73 152.72,128.26 158.84,131.53 162.79,133.64000000000001 163.1675,133.85107421875 163.535625,134.07234375000002 163.89531250000002,134.30462890625 164.2475,134.54875 164.59312500000001,134.80552734375001 164.933125,135.07578125 165.2684375,135.36033203125 165.6,135.66 164.54,136.99 163.94205078125,136.45982421875001 163.27765625,135.94171875 162.55349609375,135.43556640625 161.77625,134.94125 160.95259765625,134.45865234375 160.08921875000001,133.98765625000001 159.19279296875,133.52814453125 158.27,133.08 158.27,133.08 158.2044140625,133.05503906250001 158.12968750000002,133.0321875 158.0488671875,133.0107421875 157.965,132.99 157.8811328125,132.9692578125 157.8003125,132.9478125 157.7255859375,132.9249609375 157.66,132.9 157.05,132.92000000000002 156.53,133.06 156.07,133.38 155.5,133.96 153.83,136.69 151.41,141.36 150.70000000000002,142.55 150.17000000000002,143.43 148.51,144.84 146.78,145.37 144.74,145.56 142.11,145.64000000000001 135.25642578125002,146.0161328125 128.36078125,146.9821875 121.42318359375,148.5083984375 114.44375000000001,150.565 107.42259765625,153.1222265625 100.35984375,156.1503125 93.25560546875,159.61949218750001 86.11,163.5 86.11,163.5 83.54705078125001,164.97408203125 80.92328125,166.51578125 78.24255859375,168.12427734375 75.50875,169.79875 72.72572265625,171.53837890625002 69.89734375,173.34234375 67.02748046875,175.20982421875001 64.12,177.14000000000001 64.12,177.14000000000001 63.7825,177.3511328125 63.480625,177.50718750000001 63.2003125,177.6121484375 62.9275,177.67000000000002 62.648125,177.6847265625 62.348125,177.6603125 62.0134375,177.6007421875 61.63,177.51 61.63,177.51 61.09357421875,177.37404296875 60.593593750000004,177.24171875 60.11775390625,177.11009765625 59.65375,176.97625 59.18927734375,176.83724609375 58.71203125,176.69015625 58.20970703125,176.53205078125 57.67,176.36 57.67,176.36 57.21990234375,176.16181640625 56.85734375,175.89390625000001 56.590175781250004,175.57373046875 56.42625,175.21875 56.373417968750005,174.84642578125 56.43953125,174.47421875 56.63244140625,174.11958984375 56.96,173.8 56.96,173.8 57.818046875,173.1515234375 58.565,172.59843750000002 59.238828125,172.1142578125 59.8775,171.6725 60.518984375,171.2466796875 61.20125,170.8103125 61.962265625,170.3369140625 62.84,169.8 62.84,169.8 68.41125,166.36119140625001 73.96000000000001,162.88828125 79.49,159.38654296875 85.005,155.86125 90.50875,152.31767578125002 96.005,148.76109375000001 101.4975,145.19677734375 106.99000000000001,141.63 106.99000000000001,141.63 109.60044921875,139.832890625 112.16671875,137.876875 114.67744140625,135.784921875 117.12125,133.58 119.48677734375,131.285078125 121.76265625,128.923125 123.93751953125,126.517109375 126.0,124.09 126.39,123.9 126.86,123.79 127.61,123.89 127.95,123.17 141.41,124.92 141.98,125.77 141.73,127.87 141.9,128.84 142.57,129.76 143.53,130.29 144.24,130.18 144.43,130.11"/>
            <polygon id="simplify_467" points="129.73,120.33 130.38,115.25 129.69,115.15 129.03,120.23" fill="none" stroke="black" stroke-width="0.1"/>
            <polyline fill="none" stroke="black" stroke-width="0.1" id="simplify_468_1" points="143.49,130.83 141.78083984375002,131.78603515625 139.79921875,132.82703125 137.52767578125,133.95732421875 134.94875,135.18125 132.04498046875,136.50314453125 128.79890625000002,137.92734375 125.19306640625,139.45818359375 121.21000000000001,141.1 121.21000000000001,141.1 120.6176953125,141.3384375 120.0265625,141.57500000000002 119.4377734375,141.8115625 118.8525,142.05 118.2719140625,142.2921875 117.6971875,142.54 117.1294921875,142.7953125 116.57000000000001,143.06 116.57000000000001,143.06 110.75201171875,145.94357421875 105.38109375,148.70796875 100.36806640625001,151.37744140625 95.62375,153.97625 91.05896484375,156.52865234375 86.58453125,159.05890625 82.11126953125,161.59126953125 77.55,164.15"/>
            <polyline fill="none" stroke="black" stroke-width="0.1" id="simplify_469_1" points="159.0,147.01 158.13310546875002,148.2331640625 157.24359375,149.3759375 156.32197265625,150.4169921875 155.35875000000001,151.335 154.34443359375,152.1086328125 153.26953125,152.7165625 152.12455078125,153.1374609375 150.9,153.35 150.9,153.35 147.0248046875,153.2989453125 143.2984375,153.3540625 139.7122265625,153.51277343750002 136.2575,153.7725 132.9255859375,154.13066406250002 129.7078125,154.5846875 126.5955078125,155.1319921875 123.58,155.77 123.58,155.77 119.62630859375,156.77458984375 115.81359375,157.93234375 112.12064453125001,159.23798828125 108.52625,160.68625 105.00919921875,162.27185546875 101.54828125,163.98953125 98.12228515625,165.83400390625 94.71000000000001,167.8"/>
            <circle id="simplify_470" cx="62.27" cy="174.44" r="2.49" fill="none" stroke="black" stroke-width="0.1"/>
            <polygon id="simplify_471" points="62.43,173.53 62.83,173.83 63.230000000000004,174.13 63.15,174.59 63.07,175.05 62.59,175.20000000000002 62.120000000000005,175.35 61.72,175.05 61.32,174.75 61.4,174.29 61.480000000000004,173.83 61.96,173.68" fill="none" stroke="black" stroke-width="0.1"/>
            <g id="simplify_472_1">
                <polyline fill="none" stroke="black" stroke-width="0.1" id="simplify_472___0" points="124.67,95.27 124.6873828125,95.69484375 124.7096875,96.1075 124.7371484375,96.50890625 124.77,96.9 124.8084765625,97.28171875 124.8528125,97.655 124.9032421875,98.02078125 124.96000000000001,98.38"/>
                <polyline fill="none" stroke="black" stroke-width="0.1" id="simplify_472___1" points="126.17,102.22 126.21501953125001,102.2987109375 126.26015625000001,102.3771875 126.30552734375,102.4551953125 126.35125000000001,102.5325 126.39744140625,102.6088671875 126.44421875,102.6840625 126.49169921875,102.75785156250001 126.54,102.83"/>
            </g>
        </g>
    </g>
</svg>
