<?xml version="1.0" encoding="UTF-8"?>
<!DOCTYPE svg PUBLIC "-//W3C//DTD SVG 1.1//EN" "http://www.w3.org/Graphics/SVG/1.1/DTD/svg11.dtd">
<!-- Creator: CorelDRAW -->
<svg xmlns="http://www.w3.org/2000/svg" xml:space="preserve" width="297mm" height="210mm" style="shape-rendering:geometricPrecision; text-rendering:geometricPrecision; image-rendering:optimizeQuality; fill-rule:evenodd; clip-rule:evenodd"
viewBox="0 0 297 210">
 <defs>
  <style type="text/css">
   <![CDATA[
    .str0 {stroke:black;stroke-width:0.1}
    .fil0 {fill:none}
   ]]>
  </style>
 </defs>
 <g id="Ebene_x0020_1">
  <metadata id="CorelCorpID_0Corel-Layer"/>
  <circle id="center_00" class="fil0 str0" cx="105.774" cy="148.5" r="11.9212"/>
  <g id="_212815672">
   <polygon id="polygon10" class="fil0 str0" points="126.753,145.517 126.861,144.448 127.17,143.45 127.66,142.548 128.309,141.763 129.095,141.113 129.997,140.625 130.993,140.315 132.063,140.206 139.65,140.206 139.65,137.172 132.063,137.172 130.382,137.342 128.816,137.828 127.398,138.598 126.163,139.616 125.144,140.852 124.374,142.269 123.888,143.836 123.719,145.517 123.719,150.069 123.888,151.75 124.374,153.317 125.144,154.735 126.163,155.969 127.398,156.988 128.816,157.758 130.382,158.245 132.063,158.414 144.202,158.414 144.202,155.379 132.063,155.379 130.993,155.271 129.997,154.962 129.095,154.472 128.309,153.824 127.66,153.037 127.17,152.136 126.861,151.139 126.753,150.069 "/>
   <polygon id="polygon12" class="fil0 str0" points="178.954,145.517 178.84,144.448 178.517,143.45 178.003,142.548 177.324,141.763 176.501,141.113 175.555,140.625 174.511,140.315 173.391,140.206 168.478,140.206 168.478,152.345 165.443,152.345 165.443,137.172 173.391,137.172 175.153,137.342 176.793,137.828 178.278,138.598 179.572,139.616 180.64,140.852 181.446,142.269 181.955,143.836 182.132,145.517 182.132,150.069 181.955,151.75 181.446,153.317 180.64,154.735 179.572,155.969 178.278,156.988 176.793,157.758 175.153,158.245 173.391,158.414 160.892,158.414 160.892,155.379 173.391,155.379 174.511,155.271 175.555,154.962 176.501,154.472 177.324,153.824 178.003,153.037 178.517,152.136 178.84,151.139 178.954,150.069 "/>
   <polygon id="polygon14" class="fil0 str0" points="147.236,144.759 147.344,143.689 147.653,142.692 148.143,141.79 148.791,141.004 149.577,140.356 150.48,139.865 151.476,139.555 152.546,139.448 153.617,139.555 154.613,139.865 155.515,140.356 156.301,141.004 156.95,141.79 157.439,142.692 157.749,143.689 157.857,144.759 157.857,149.31 157.857,152.345 157.857,158.414 160.892,158.414 160.892,144.759 160.721,143.076 160.235,141.511 159.466,140.094 158.447,138.858 157.212,137.838 155.794,137.069 154.228,136.583 152.546,136.414 150.865,136.583 149.298,137.069 147.881,137.838 146.646,138.858 145.626,140.094 144.857,141.511 144.371,143.076 144.202,144.759 144.202,158.414 147.236,158.414 147.236,155.379 154.822,155.379 154.822,152.345 147.236,152.345 "/>
   <polygon id="polygon16" class="fil0 str0" points="59.2351,158.414 31.166,158.414 31.166,150.069 31.3355,148.387 31.8219,146.821 32.5913,145.403 33.6104,144.169 34.8455,143.149 36.263,142.38 37.8293,141.894 39.5108,141.725 41.1925,141.894 42.7588,142.38 44.1762,143.149 45.4112,144.169 46.4304,145.403 47.1999,146.821 47.6862,148.387 47.8558,150.069 44.8213,150.069 44.7134,148.998 44.4039,148.002 43.9142,147.1 43.2657,146.314 42.4797,145.665 41.5776,145.176 40.5809,144.866 39.5108,144.759 38.4408,144.866 37.444,145.176 36.542,145.665 35.7561,146.314 35.1075,147.1 34.6178,148.002 34.3083,148.998 34.2005,150.069 34.2005,155.379 74.4077,155.379 74.4077,144.759 70.6145,144.759 70.6145,141.725 74.4077,141.725 74.4077,137.172 77.471,137.172 77.471,141.725 83.5112,141.725 83.5112,137.172 86.5457,137.172 86.5457,141.725 92.6147,141.725 92.6147,138.689 95.6493,138.689 95.6493,145.517 95.6493,150.069 95.7572,151.139 96.0667,152.136 96.5563,153.037 97.2049,153.824 97.9907,154.472 98.8928,154.962 99.8895,155.271 100.96,155.379 104.385,155.379 103.961,154.82 103.584,154.225 103.257,153.597 102.984,152.94 102.766,152.255 102.607,151.547 102.51,150.817 102.477,150.069 102.646,148.387 103.133,146.821 103.902,145.403 104.922,144.169 106.156,143.149 107.574,142.38 109.14,141.894 110.822,141.725 112.503,141.894 114.07,142.38 115.487,143.149 116.722,144.169 117.741,145.403 118.511,146.821 118.997,148.387 119.167,150.069 119.205,151.576 117.687,151.576 116.929,151.576 108.584,151.576 108.584,148.543 115.909,148.543 115.6,147.751 115.175,147.028 114.644,146.384 114.02,145.829 113.314,145.379 112.538,145.042 111.703,144.832 110.822,144.759 109.752,144.866 108.755,145.176 107.853,145.665 107.067,146.314 106.419,147.1 105.929,148.002 105.619,148.998 105.512,150.069 105.619,151.139 105.929,152.136 106.419,153.037 107.067,153.824 107.853,154.472 108.755,154.962 109.752,155.271 110.822,155.379 119.167,155.379 119.167,158.414 113.856,158.414 110.822,158.414 100.96,158.414 99.2781,158.245 97.7117,157.758 96.2943,156.988 95.0592,155.969 94.0401,154.735 93.2706,153.317 92.7842,151.75 92.6147,150.069 92.6147,144.759 86.5457,144.759 86.5457,158.414 83.5112,158.414 83.5112,144.759 77.471,144.759 77.471,158.414 60.7465,158.41 "/>
   <polygon id="polygon18" class="fil0 str0" points="74.4077,158.414 59.2351,158.414 57.5536,158.245 55.9873,157.758 54.5699,156.988 53.3347,155.969 52.3157,154.735 51.5462,153.317 51.0598,151.75 50.8902,150.069 51.0598,148.387 51.5462,146.821 52.3157,145.403 53.3347,144.169 54.5699,143.149 55.9873,142.38 57.5536,141.894 59.2351,141.725 59.9833,141.757 60.713,141.854 61.4213,142.013 62.1057,142.231 62.7631,142.505 63.3907,142.832 63.9857,143.208 64.5456,143.632 64.5456,141.725 67.58,141.725 67.58,150.069 67.58,150.828 67.58,152.345 64.5456,152.345 64.5456,150.828 64.5456,150.069 64.4377,148.998 64.1282,148.002 63.6385,147.1 62.99,146.314 62.204,145.665 61.3019,145.176 60.3052,144.866 59.2351,144.759 58.1651,144.866 57.1682,145.176 56.2663,145.665 55.4803,146.314 54.8318,147.1 54.3421,148.002 54.0326,148.998 53.9247,150.069 54.0326,151.139 54.3421,152.136 54.8318,153.037 55.4803,153.824 56.2663,154.472 57.1682,154.962 58.1651,155.271 59.2351,155.379 74.4077,155.379 "/>
  </g>
 </g>
</svg>
