<?xml version="1.0" encoding="UTF-8"?>
<!DOCTYPE svg PUBLIC "-//W3C//DTD SVG 1.1//EN" "http://www.w3.org/Graphics/SVG/1.1/DTD/svg11.dtd">
<!-- Creator: CorelDRAW -->
<svg xmlns="http://www.w3.org/2000/svg" xml:space="preserve" width="297mm" height="210mm" style="shape-rendering:geometricPrecision; text-rendering:geometricPrecision; image-rendering:optimizeQuality; fill-rule:evenodd; clip-rule:evenodd"
viewBox="0 0 297 210">
 <defs>
  <style type="text/css">
   <![CDATA[
    .str0 {stroke:black;stroke-width:0.1}
    .fil0 {fill:none}
   ]]>
  </style>
 </defs>
 <g id="Ebene_x0020_1">
  <metadata id="CorelCorpID_0Corel-Layer"/>
  <circle id="center_00" class="fil0 str0" cx="105.774" cy="148.5" r="11.9212"/>
  <g id="_212840176">
   <polygon id="polygon10" class="fil0 str0" points="145.938,145.095 146.075,143.735 146.469,142.465 147.092,141.317 147.917,140.317 148.918,139.491 150.066,138.869 151.334,138.474 152.696,138.336 162.351,138.336 162.351,134.474 152.696,134.474 150.556,134.691 148.563,135.31 146.759,136.289 145.187,137.585 143.89,139.158 142.91,140.962 142.292,142.955 142.076,145.095 142.076,150.888 142.292,153.028 142.91,155.022 143.89,156.827 145.187,158.399 146.759,159.695 148.563,160.675 150.556,161.294 152.696,161.509 168.145,161.509 168.145,157.647 152.696,157.647 151.334,157.509 150.066,157.116 148.918,156.493 147.917,155.668 147.092,154.667 146.469,153.52 146.075,152.25 145.938,150.888 "/>
   <polygon id="polygon12" class="fil0 str0" points="212.375,145.095 212.23,143.735 211.819,142.465 211.165,141.317 210.301,140.317 209.253,139.491 208.049,138.869 206.72,138.474 205.295,138.336 199.042,138.336 199.042,153.786 195.18,153.786 195.18,134.474 205.295,134.474 207.537,134.691 209.625,135.31 211.515,136.289 213.162,137.585 214.521,139.158 215.547,140.962 216.194,142.955 216.421,145.095 216.421,150.888 216.194,153.028 215.547,155.022 214.521,156.827 213.162,158.399 211.515,159.695 209.625,160.675 207.537,161.294 205.295,161.509 189.387,161.509 189.387,157.647 205.295,157.647 206.72,157.509 208.049,157.116 209.253,156.493 210.301,155.668 211.165,154.667 211.819,153.52 212.23,152.25 212.375,150.888 "/>
   <polygon id="polygon14" class="fil0 str0" points="172.007,144.131 172.144,142.768 172.538,141.5 173.161,140.352 173.986,139.351 174.987,138.526 176.135,137.902 177.403,137.508 178.766,137.371 180.128,137.508 181.396,137.902 182.544,138.526 183.544,139.351 184.37,140.352 184.992,141.5 185.387,142.768 185.525,144.131 185.525,149.923 185.525,153.786 185.525,161.509 189.387,161.509 189.387,144.131 189.17,141.989 188.551,139.997 187.572,138.193 186.276,136.62 184.703,135.322 182.899,134.344 180.906,133.725 178.766,133.509 176.625,133.725 174.632,134.344 172.827,135.322 171.256,136.62 169.958,138.193 168.979,139.997 168.361,141.989 168.145,144.131 168.145,161.509 172.007,161.509 172.007,157.647 181.661,157.647 181.661,153.786 172.007,153.786 "/>
   <polygon id="polygon16" class="fil0 str0" points="60.0058,161.509 24.2814,161.509 24.2814,150.888 24.4971,148.748 25.1162,146.754 26.0955,144.951 27.3925,143.38 28.9645,142.082 30.7685,141.103 32.762,140.484 34.9021,140.269 37.0424,140.484 39.0359,141.103 40.8399,142.082 42.4117,143.38 43.7089,144.951 44.6882,146.754 45.3071,148.748 45.523,150.888 41.6609,150.888 41.5235,149.526 41.1297,148.258 40.5064,147.11 39.681,146.11 38.6807,145.284 37.5326,144.662 36.264,144.267 34.9021,144.131 33.5402,144.267 32.2717,144.662 31.1236,145.284 30.1234,146.11 29.2979,147.11 28.6746,148.258 28.2807,149.526 28.1435,150.888 28.1435,157.647 79.3164,157.647 79.3164,144.131 74.4886,144.131 74.4886,140.269 79.3164,140.269 79.3164,134.474 83.2151,134.474 83.2151,140.269 90.9026,140.269 90.9026,134.474 94.7647,134.474 94.7647,140.269 102.489,140.269 102.489,136.405 106.351,136.405 106.351,145.095 106.351,150.888 106.488,152.25 106.882,153.52 107.505,154.667 108.331,155.668 109.331,156.493 110.479,157.116 111.748,157.509 113.11,157.647 117.469,157.647 116.929,156.936 116.45,156.178 116.034,155.379 115.686,154.543 115.409,153.671 115.207,152.771 115.083,151.84 115.041,150.888 115.256,148.748 115.875,146.754 116.855,144.951 118.152,143.38 119.724,142.082 121.528,141.103 123.521,140.484 125.662,140.269 127.802,140.484 129.796,141.103 131.599,142.082 133.171,143.38 134.468,144.951 135.448,146.754 136.066,148.748 136.283,150.888 136.331,152.807 134.399,152.807 133.434,152.807 122.813,152.807 122.813,148.946 132.136,148.946 131.743,147.939 131.202,147.018 130.527,146.198 129.732,145.493 128.833,144.919 127.846,144.49 126.783,144.223 125.662,144.131 124.3,144.267 123.031,144.662 121.883,145.284 120.883,146.11 120.058,147.11 119.434,148.258 119.04,149.526 118.903,150.888 119.04,152.25 119.434,153.52 120.058,154.667 120.883,155.668 121.883,156.493 123.031,157.116 124.3,157.509 125.662,157.647 136.283,157.647 136.283,161.509 129.523,161.509 125.662,161.509 113.11,161.509 110.97,161.294 108.976,160.675 107.172,159.695 105.6,158.399 104.303,156.827 103.324,155.022 102.705,153.028 102.489,150.888 102.489,144.131 94.7647,144.131 94.7647,161.509 90.9026,161.509 90.9026,144.131 83.2151,144.131 83.2151,161.509 61.9294,161.505 "/>
   <polygon id="polygon18" class="fil0 str0" points="79.3164,161.509 60.0058,161.509 57.8657,161.294 55.8722,160.675 54.0682,159.695 52.4962,158.399 51.1992,156.827 50.2199,155.022 49.6008,153.028 49.3849,150.888 49.6008,148.748 50.2199,146.754 51.1992,144.951 52.4962,143.38 54.0682,142.082 55.8722,141.103 57.8657,140.484 60.0058,140.269 60.9579,140.31 61.8867,140.434 62.7882,140.636 63.6593,140.913 64.4959,141.262 65.2947,141.678 66.052,142.157 66.7645,142.696 66.7645,140.269 70.6265,140.269 70.6265,150.888 70.6265,151.855 70.6265,153.786 66.7645,153.786 66.7645,151.855 66.7645,150.888 66.6272,149.526 66.2333,148.258 65.61,147.11 64.7847,146.11 63.7843,145.284 62.6363,144.662 61.3677,144.267 60.0058,144.131 58.6439,144.267 57.3752,144.662 56.2273,145.284 55.2269,146.11 54.4016,147.11 53.7783,148.258 53.3844,149.526 53.2471,150.888 53.3844,152.25 53.7783,153.52 54.4016,154.667 55.2269,155.668 56.2273,156.493 57.3752,157.116 58.6439,157.509 60.0058,157.647 79.3164,157.647 "/>
  </g>
 </g>
</svg>
