<?xml version="1.0" encoding="UTF-8"?>
<!DOCTYPE svg PUBLIC "-//W3C//DTD SVG 1.1//EN" "http://www.w3.org/Graphics/SVG/1.1/DTD/svg11.dtd">
<!-- Creator: CorelDRAW -->
<svg xmlns="http://www.w3.org/2000/svg" xml:space="preserve" width="297mm" height="210mm" style="shape-rendering:geometricPrecision; text-rendering:geometricPrecision; image-rendering:optimizeQuality; fill-rule:evenodd; clip-rule:evenodd"
viewBox="0 0 297 210">
 <defs>
  <style type="text/css">
   <![CDATA[
    .str1 {stroke:#1F1A17;stroke-width:0.0762}
    .str0 {stroke:black;stroke-width:0.1}
    .fil0 {fill:none}
   ]]>
  </style>
 </defs>
 <g id="Ebene_x0020_1">
  <metadata id="CorelCorpID_0Corel-Layer"/>
  <circle id="center_00" class="fil0 str0" cx="105.672" cy="148.836" r="11.9212"/>
  <g id="_212816032">
   <polygon id="polygon10" class="fil0 str0" points="128.558,145.582 128.676,144.415 129.013,143.327 129.548,142.343 130.255,141.486 131.113,140.778 132.097,140.245 133.184,139.907 134.351,139.788 142.627,139.788 142.627,136.478 134.351,136.478 132.517,136.664 130.809,137.194 129.262,138.033 127.915,139.144 126.803,140.492 125.963,142.038 125.433,143.747 125.248,145.582 125.248,150.547 125.433,152.381 125.963,154.09 126.803,155.638 127.915,156.984 129.262,158.095 130.809,158.936 132.517,159.466 134.351,159.651 147.593,159.651 147.593,156.341 134.351,156.341 133.184,156.222 132.097,155.886 131.113,155.351 130.255,154.644 129.548,153.786 129.013,152.803 128.676,151.715 128.558,150.547 "/>
   <polygon id="polygon12" class="fil0 str0" points="185.504,145.582 185.38,144.415 185.028,143.327 184.467,142.343 183.727,141.486 182.828,140.778 181.797,140.245 180.657,139.907 179.436,139.788 174.076,139.788 174.076,153.03 170.766,153.03 170.766,136.478 179.436,136.478 181.358,136.664 183.148,137.194 184.768,138.033 186.179,139.144 187.344,140.492 188.223,142.038 188.778,143.747 188.972,145.582 188.972,150.547 188.778,152.381 188.223,154.09 187.344,155.638 186.179,156.984 184.768,158.095 183.148,158.936 181.358,159.466 179.436,159.651 165.8,159.651 165.8,156.341 179.436,156.341 180.657,156.222 181.797,155.886 182.828,155.351 183.727,154.644 184.467,153.786 185.028,152.803 185.38,151.715 185.504,150.547 "/>
   <polygon id="polygon14" class="fil0 str0" points="150.903,144.755 151.021,143.587 151.358,142.5 151.893,141.516 152.6,140.658 153.457,139.951 154.442,139.416 155.529,139.078 156.696,138.961 157.864,139.078 158.951,139.416 159.935,139.951 160.792,140.658 161.5,141.516 162.034,142.5 162.372,143.587 162.49,144.755 162.49,149.72 162.49,153.03 162.49,159.651 165.8,159.651 165.8,144.755 165.614,142.919 165.084,141.212 164.245,139.666 163.134,138.317 161.786,137.205 160.24,136.366 158.531,135.835 156.696,135.651 154.862,135.835 153.153,136.366 151.607,137.205 150.26,138.317 149.147,139.666 148.308,141.212 147.778,142.919 147.593,144.755 147.593,159.651 150.903,159.651 150.903,156.341 159.178,156.341 159.178,153.03 150.903,153.03 "/>
   <polygon id="polygon16" class="fil0 str0" points="54.9023,159.651 24.2814,159.651 24.2814,150.547 24.4663,148.713 24.9969,147.004 25.8363,145.458 26.948,144.111 28.2954,142.999 29.8417,142.16 31.5505,141.629 33.3848,141.445 35.2194,141.629 36.9281,142.16 38.4744,142.999 39.8217,144.111 40.9335,145.458 41.7729,147.004 42.3034,148.713 42.4884,150.547 39.1781,150.547 39.0603,149.379 38.7227,148.293 38.1885,147.308 37.481,146.452 36.6236,145.743 35.6395,145.21 34.5522,144.872 33.3848,144.755 32.2175,144.872 31.1302,145.21 30.1461,145.743 29.2888,146.452 28.5812,147.308 28.047,148.293 27.7093,149.379 27.5918,150.547 27.5918,156.341 71.4542,156.341 71.4542,144.755 67.3161,144.755 67.3161,141.445 71.4542,141.445 71.4542,136.478 74.796,136.478 74.796,141.445 81.3852,141.445 81.3852,136.478 84.6956,136.478 84.6956,141.445 91.3164,141.445 91.3164,138.133 94.6268,138.133 94.6268,145.582 94.6268,150.547 94.7445,151.715 95.0821,152.803 95.6162,153.786 96.3238,154.644 97.1811,155.351 98.1652,155.886 99.2525,156.222 100.42,156.341 104.157,156.341 103.694,155.731 103.283,155.082 102.926,154.396 102.628,153.68 102.391,152.932 102.218,152.16 102.111,151.363 102.075,150.547 102.26,148.713 102.791,147.004 103.63,145.458 104.742,144.111 106.089,142.999 107.636,142.16 109.344,141.629 111.179,141.445 113.013,141.629 114.722,142.16 116.268,142.999 117.615,144.111 118.727,145.458 119.567,147.004 120.097,148.713 120.282,150.547 120.324,152.191 118.668,152.191 117.841,152.191 108.737,152.191 108.737,148.882 116.728,148.882 116.392,148.019 115.927,147.23 115.349,146.527 114.667,145.922 113.897,145.431 113.051,145.063 112.14,144.834 111.179,144.755 110.011,144.872 108.924,145.21 107.94,145.743 107.083,146.452 106.375,147.308 105.841,148.293 105.503,149.379 105.386,150.547 105.503,151.715 105.841,152.803 106.375,153.786 107.083,154.644 107.94,155.351 108.924,155.886 110.011,156.222 111.179,156.341 120.282,156.341 120.282,159.651 114.489,159.651 111.179,159.651 100.42,159.651 98.5855,159.466 96.8768,158.936 95.3305,158.095 93.9831,156.984 92.8713,155.638 92.0319,154.09 91.5013,152.381 91.3164,150.547 91.3164,144.755 84.6956,144.755 84.6956,159.651 81.3852,159.651 81.3852,144.755 74.796,144.755 74.796,159.651 56.5511,159.647 "/>
   <polygon id="polygon18" class="fil0 str0" points="71.4542,159.651 54.9023,159.651 53.0679,159.466 51.3592,158.936 49.8129,158.095 48.4655,156.984 47.3538,155.638 46.5143,154.09 45.9837,152.381 45.7987,150.547 45.9837,148.713 46.5143,147.004 47.3538,145.458 48.4655,144.111 49.8129,142.999 51.3592,142.16 53.0679,141.629 54.9023,141.445 55.7184,141.48 56.5145,141.586 57.2872,141.76 58.0338,141.997 58.751,142.296 59.4356,142.653 60.0848,143.063 60.6955,143.525 60.6955,141.445 64.0057,141.445 64.0057,150.547 64.0057,151.375 64.0057,153.03 60.6955,153.03 60.6955,151.375 60.6955,150.547 60.5778,149.379 60.2402,148.293 59.7059,147.308 58.9985,146.452 58.141,145.743 57.157,145.21 56.0696,144.872 54.9023,144.755 53.7349,144.872 52.6475,145.21 51.6635,145.743 50.8061,146.452 50.0987,147.308 49.5644,148.293 49.2268,149.379 49.1091,150.547 49.2268,151.715 49.5644,152.803 50.0987,153.786 50.8061,154.644 51.6635,155.351 52.6475,155.886 53.7349,156.222 54.9023,156.341 71.4542,156.341 "/>
  </g>
 </g>
</svg>
