<?xml version="1.0" encoding="UTF-8"?>
<!DOCTYPE svg PUBLIC "-//W3C//DTD SVG 1.1//EN" "http://www.w3.org/Graphics/SVG/1.1/DTD/svg11.dtd">
<!-- Creator: CorelDRAW -->
<svg xmlns="http://www.w3.org/2000/svg" xml:space="preserve" width="297mm" height="210mm" style="shape-rendering:geometricPrecision; text-rendering:geometricPrecision; image-rendering:optimizeQuality; fill-rule:evenodd; clip-rule:evenodd"
viewBox="0 0 297 210">
 <defs>
  <style type="text/css">
   <![CDATA[
    .str1 {stroke:#1F1A17;stroke-width:0.0762}
    .str0 {stroke:black;stroke-width:0.1}
    .fil0 {fill:none}
   ]]>
  </style>
 </defs>
 <g id="Ebene_x0020_1">
  <metadata id="CorelCorpID_0Corel-Layer"/>
  <circle id="center_00" class="fil0 str0" cx="105.774" cy="148.5" r="11.9212"/>
  <g id="_212814568">
   <polygon id="polygon10" class="fil0 str0" points="137.248,145.338 137.375,144.075 137.741,142.896 138.32,141.83 139.086,140.902 140.015,140.134 141.082,139.557 142.259,139.19 143.524,139.062 152.489,139.062 152.489,135.476 143.524,135.476 141.536,135.677 139.686,136.252 138.01,137.161 136.551,138.365 135.346,139.825 134.437,141.5 133.862,143.351 133.662,145.338 133.662,150.718 133.862,152.705 134.437,154.556 135.346,156.232 136.551,157.691 138.01,158.895 139.686,159.805 141.536,160.38 143.524,160.58 157.869,160.58 157.869,156.994 143.524,156.994 142.259,156.866 141.082,156.501 140.015,155.922 139.086,155.156 138.32,154.226 137.741,153.161 137.375,151.983 137.248,150.718 "/>
   <polygon id="polygon12" class="fil0 str0" points="198.94,145.338 198.805,144.075 198.423,142.896 197.816,141.83 197.014,140.902 196.041,140.134 194.923,139.557 193.689,139.19 192.365,139.062 186.559,139.062 186.559,153.408 182.973,153.408 182.973,135.476 192.365,135.476 194.447,135.677 196.386,136.252 198.141,137.161 199.67,138.365 200.932,139.825 201.885,141.5 202.486,143.351 202.696,145.338 202.696,150.718 202.486,152.705 201.885,154.556 200.932,156.232 199.67,157.691 198.141,158.895 196.386,159.805 194.447,160.38 192.365,160.58 177.594,160.58 177.594,156.994 192.365,156.994 193.689,156.866 194.923,156.501 196.041,155.922 197.014,155.156 197.816,154.226 198.423,153.161 198.805,151.983 198.94,150.718 "/>
   <polygon id="polygon14" class="fil0 str0" points="161.455,144.443 161.582,143.178 161.948,142 162.527,140.934 163.293,140.005 164.222,139.238 165.288,138.659 166.466,138.293 167.731,138.166 168.996,138.293 170.173,138.659 171.24,139.238 172.168,140.005 172.935,140.934 173.513,142 173.879,143.178 174.007,144.443 174.007,149.822 174.007,153.408 174.007,160.58 177.594,160.58 177.594,144.443 177.392,142.454 176.817,140.604 175.908,138.929 174.705,137.469 173.244,136.264 171.57,135.355 169.718,134.78 167.731,134.58 165.743,134.78 163.893,135.355 162.217,136.264 160.758,137.469 159.553,138.929 158.644,140.604 158.069,142.454 157.869,144.443 157.869,160.58 161.455,160.58 161.455,156.994 170.42,156.994 170.42,153.408 161.455,153.408 "/>
   <polygon id="polygon16" class="fil0 str0" points="57.4541,160.58 24.2814,160.58 24.2814,150.718 24.4817,148.731 25.0566,146.879 25.9659,145.204 27.1703,143.745 28.63,142.54 30.3051,141.631 32.1563,141.056 34.1435,140.857 36.1309,141.056 37.982,141.631 39.6572,142.54 41.1167,143.745 42.3212,145.204 43.2306,146.879 43.8053,148.731 44.0057,150.718 40.4195,150.718 40.292,149.453 39.9262,148.275 39.3474,147.209 38.5811,146.281 37.6521,145.513 36.5861,144.936 35.4081,144.57 34.1435,144.443 32.8789,144.57 31.7009,144.936 30.6349,145.513 29.7061,146.281 28.9396,147.209 28.3608,148.275 27.995,149.453 27.8677,150.718 27.8677,156.994 75.3853,156.994 75.3853,144.443 70.9024,144.443 70.9024,140.857 75.3853,140.857 75.3853,135.476 79.0056,135.476 79.0056,140.857 86.1439,140.857 86.1439,135.476 89.7302,135.476 89.7302,140.857 96.9027,140.857 96.9027,137.269 100.489,137.269 100.489,145.338 100.489,150.718 100.616,151.983 100.982,153.161 101.561,154.226 102.327,155.156 103.256,155.922 104.322,156.501 105.5,156.866 106.765,156.994 110.813,156.994 110.311,156.333 109.866,155.63 109.48,154.887 109.157,154.111 108.9,153.301 108.712,152.465 108.597,151.602 108.558,150.718 108.758,148.731 109.333,146.879 110.242,145.204 111.447,143.745 112.906,142.54 114.582,141.631 116.433,141.056 118.42,140.857 120.407,141.056 122.259,141.631 123.934,142.54 125.393,143.745 126.598,145.204 127.507,146.879 128.082,148.731 128.282,150.718 128.327,152.499 126.533,152.499 125.637,152.499 115.775,152.499 115.775,148.914 124.432,148.914 124.068,147.979 123.565,147.124 122.938,146.363 122.2,145.708 121.365,145.175 120.448,144.777 119.461,144.529 118.42,144.443 117.156,144.57 115.978,144.936 114.911,145.513 113.983,146.281 113.216,147.209 112.637,148.275 112.272,149.453 112.144,150.718 112.272,151.983 112.637,153.161 113.216,154.226 113.983,155.156 114.911,155.922 115.978,156.501 117.156,156.866 118.42,156.994 128.282,156.994 128.282,160.58 122.006,160.58 118.42,160.58 106.765,160.58 104.778,160.38 102.926,159.805 101.251,158.895 99.7915,157.691 98.5872,156.232 97.6778,154.556 97.103,152.705 96.9027,150.718 96.9027,144.443 89.7302,144.443 89.7302,160.58 86.1439,160.58 86.1439,144.443 79.0056,144.443 79.0056,160.58 59.2403,160.576 "/>
   <polygon id="polygon18" class="fil0 str0" points="75.3853,160.58 57.4541,160.58 55.4668,160.38 53.6157,159.805 51.9405,158.895 50.4809,157.691 49.2765,156.232 48.3671,154.556 47.7923,152.705 47.5918,150.718 47.7923,148.731 48.3671,146.879 49.2765,145.204 50.4809,143.745 51.9405,142.54 53.6157,141.631 55.4668,141.056 57.4541,140.857 58.3382,140.894 59.2006,141.01 60.0377,141.198 60.8466,141.455 61.6235,141.779 62.3652,142.165 63.0684,142.61 63.73,143.111 63.73,140.857 67.3161,140.857 67.3161,150.718 67.3161,151.615 67.3161,153.408 63.73,153.408 63.73,151.615 63.73,150.718 63.6025,149.453 63.2368,148.275 62.658,147.209 61.8916,146.281 60.9627,145.513 59.8966,144.936 58.7187,144.57 57.4541,144.443 56.1894,144.57 55.0113,144.936 53.9454,145.513 53.0165,146.281 52.2501,147.209 51.6714,148.275 51.3056,149.453 51.1781,150.718 51.3056,151.983 51.6714,153.161 52.2501,154.226 53.0165,155.156 53.9454,155.922 55.0113,156.501 56.1894,156.866 57.4541,156.994 75.3853,156.994 "/>
  </g>
 </g>
</svg>
