<?xml version="1.0" encoding="UTF-8"?>
<!DOCTYPE svg PUBLIC "-//W3C//DTD SVG 1.1//EN" "http://www.w3.org/Graphics/SVG/1.1/DTD/svg11.dtd">
<!-- Creator: CorelDRAW -->
<svg xmlns="http://www.w3.org/2000/svg" xml:space="preserve" width="297mm" height="210mm" style="shape-rendering:geometricPrecision; text-rendering:geometricPrecision; image-rendering:optimizeQuality; fill-rule:evenodd; clip-rule:evenodd"
viewBox="0 0 297 210">
 <defs>
  <style type="text/css">
   <![CDATA[
    .str0 {stroke:black;stroke-width:0.1}
    .fil0 {fill:none}
   ]]>
  </style>
 </defs>
 <g id="Ebene_x0020_1">
  <metadata id="CorelCorpID_0Corel-Layer"/>
  <circle id="center_00" class="fil0 str0" cx="105.774" cy="148.5" r="11.9212"/>
  <g id="_62355520">
   <polygon id="polygon10" class="fil0 str0" points="124.705,146.241 124.803,145.269 125.085,144.362 125.53,143.542 126.119,142.828 126.834,142.238 127.654,141.793 128.56,141.512 129.533,141.413 136.429,141.413 136.429,138.654 129.533,138.654 128.004,138.809 126.58,139.251 125.292,139.951 124.169,140.876 123.242,142 122.543,143.288 122.101,144.712 121.947,146.241 121.947,150.379 122.101,151.907 122.543,153.331 123.242,154.621 124.169,155.743 125.292,156.669 126.58,157.369 128.004,157.811 129.533,157.965 140.568,157.965 140.568,155.207 129.533,155.207 128.56,155.108 127.654,154.827 126.834,154.382 126.119,153.793 125.53,153.078 125.085,152.258 124.803,151.352 124.705,150.379 "/>
   <polygon id="polygon12" class="fil0 str0" points="172.16,146.241 172.057,145.269 171.763,144.362 171.296,143.542 170.679,142.828 169.93,142.238 169.071,141.793 168.121,141.512 167.103,141.413 162.637,141.413 162.637,152.448 159.878,152.448 159.878,138.654 167.103,138.654 168.705,138.809 170.196,139.251 171.546,139.951 172.723,140.876 173.693,142 174.426,143.288 174.888,144.712 175.05,146.241 175.05,150.379 174.888,151.907 174.426,153.331 173.693,154.621 172.723,155.743 171.546,156.669 170.196,157.369 168.705,157.811 167.103,157.965 155.74,157.965 155.74,155.207 167.103,155.207 168.121,155.108 169.071,154.827 169.93,154.382 170.679,153.793 171.296,153.078 171.763,152.258 172.057,151.352 172.16,150.379 "/>
   <polygon id="polygon14" class="fil0 str0" points="143.326,145.552 143.424,144.579 143.705,143.673 144.151,142.853 144.74,142.138 145.455,141.549 146.275,141.103 147.181,140.821 148.154,140.724 149.127,140.821 150.032,141.103 150.853,141.549 151.567,142.138 152.157,142.853 152.601,143.673 152.883,144.579 152.982,145.552 152.982,149.69 152.982,152.448 152.982,157.965 155.74,157.965 155.74,145.552 155.585,144.022 155.143,142.599 154.444,141.311 153.518,140.187 152.395,139.26 151.106,138.561 149.682,138.119 148.154,137.965 146.625,138.119 145.201,138.561 143.912,139.26 142.79,140.187 141.863,141.311 141.163,142.599 140.721,144.022 140.568,145.552 140.568,157.965 143.326,157.965 143.326,155.207 150.222,155.207 150.222,152.448 143.326,152.448 "/>
   <polygon id="polygon16" class="fil0 str0" points="63.3253,157.965 37.8079,157.965 37.8079,150.379 37.962,148.85 38.4042,147.426 39.1037,146.138 40.0301,145.015 41.1529,144.088 42.4415,143.389 43.8655,142.947 45.3941,142.793 46.9229,142.947 48.3468,143.389 49.6354,144.088 50.7581,145.015 51.6847,146.138 52.3842,147.426 52.8262,148.85 52.9804,150.379 50.2218,150.379 50.1237,149.406 49.8423,148.5 49.3971,147.68 48.8076,146.966 48.0931,146.375 47.273,145.931 46.3669,145.649 45.3941,145.552 44.4213,145.649 43.5152,145.931 42.6952,146.375 41.9807,146.966 41.3911,147.68 40.9459,148.5 40.6645,149.406 40.5665,150.379 40.5665,155.207 77.1186,155.207 77.1186,145.552 73.6702,145.552 73.6702,142.793 77.1186,142.793 77.1186,138.654 79.9034,138.654 79.9034,142.793 85.3944,142.793 85.3944,138.654 88.1531,138.654 88.1531,142.793 93.6704,142.793 93.6704,140.034 96.429,140.034 96.429,146.241 96.429,150.379 96.5271,151.352 96.8085,152.258 97.2536,153.078 97.8432,153.793 98.5577,154.382 99.3777,154.827 100.284,155.108 101.257,155.207 104.371,155.207 103.985,154.698 103.642,154.157 103.345,153.586 103.097,152.989 102.899,152.366 102.755,151.723 102.666,151.059 102.636,150.379 102.79,148.85 103.232,147.426 103.932,146.138 104.858,145.015 105.981,144.088 107.27,143.389 108.694,142.947 110.222,142.793 111.751,142.947 113.175,143.389 114.463,144.088 115.586,145.015 116.513,146.138 117.212,147.426 117.654,148.85 117.809,150.379 117.843,151.749 116.463,151.749 115.774,151.749 108.188,151.749 108.188,148.992 114.847,148.992 114.566,148.272 114.18,147.614 113.697,147.029 113.13,146.525 112.488,146.115 111.782,145.809 111.023,145.618 110.222,145.552 109.25,145.649 108.344,145.931 107.523,146.375 106.809,146.966 106.219,147.68 105.774,148.5 105.493,149.406 105.395,150.379 105.493,151.352 105.774,152.258 106.219,153.078 106.809,153.793 107.523,154.382 108.344,154.827 109.25,155.108 110.222,155.207 117.809,155.207 117.809,157.965 112.981,157.965 110.222,157.965 101.257,157.965 99.728,157.811 98.304,157.369 97.0154,156.669 95.8926,155.743 94.9662,154.621 94.2667,153.331 93.8245,151.907 93.6704,150.379 93.6704,145.552 88.1531,145.552 88.1531,157.965 85.3944,157.965 85.3944,145.552 79.9034,145.552 79.9034,157.965 64.6993,157.962 "/>
   <polygon id="polygon18" class="fil0 str0" points="77.1186,157.965 63.3253,157.965 61.7967,157.811 60.3727,157.369 59.0841,156.669 57.9613,155.743 57.0349,154.621 56.3354,153.331 55.8932,151.907 55.739,150.379 55.8932,148.85 56.3354,147.426 57.0349,146.138 57.9613,145.015 59.0841,144.088 60.3727,143.389 61.7967,142.947 63.3253,142.793 64.0054,142.822 64.6688,142.911 65.3127,143.056 65.9349,143.253 66.5325,143.503 67.1031,143.8 67.644,144.142 68.153,144.527 68.153,142.793 70.9115,142.793 70.9115,150.379 70.9115,151.069 70.9115,152.448 68.153,152.448 68.153,151.069 68.153,150.379 68.0549,149.406 67.7735,148.5 67.3283,147.68 66.7388,146.966 66.0243,146.375 65.2042,145.931 64.2981,145.649 63.3253,145.552 62.3525,145.649 61.4463,145.931 60.6264,146.375 59.9118,146.966 59.3223,147.68 58.8771,148.5 58.5957,149.406 58.4976,150.379 58.5957,151.352 58.8771,152.258 59.3223,153.078 59.9118,153.793 60.6264,154.382 61.4463,154.827 62.3525,155.108 63.3253,155.207 77.1186,155.207 "/>
  </g>
 </g>
</svg>
