<!DOCTYPE svg PUBLIC "-//W3C//DTD SVG 1.1//EN" "http://www.w3.org/Graphics/SVG/1.1/DTD/svg11.dtd">
<svg xmlns="http://www.w3.org/2000/svg" width="297mm" height="210mm" viewBox="0 0 297 210">
    <defs id="_tag_78_"/>
    <g id="trashNode_001"/>
    <g id="_tag_79_">
        <polygon id="_new_32_2" points="204.743,258.896 205.043,258.896 205.549,258.844 206.04,258.746 206.515,258.605 206.97,258.421 207.405,258.198 207.816,257.938 208.202,257.644 208.56,257.316 208.56,257.316 208.91,256.931 209.222,256.514 209.494,256.069 209.722,255.597 209.904,255.101 210.038,254.585 210.12,254.05 210.149,253.501 210.14,253.501 210.14,253.5 210.14,253.499 210.149,253.499 210.12,252.949 210.038,252.415 209.904,251.899 209.722,251.403 209.494,250.931 209.222,250.486 208.91,250.07 208.56,249.685 208.56,249.685 208.175,249.335 207.758,249.022 207.313,248.751 206.841,248.522 206.345,248.34 205.829,248.206 205.294,248.124 204.745,248.096 204.745,248.104 204.744,248.104 204.743,248.104 204.743,248.096 204.193,248.124 203.659,248.206 203.143,248.34 202.647,248.522 202.176,248.75 201.73,249.022 201.313,249.334 200.929,249.684 200.929,249.684 200.579,250.069 200.266,250.486 199.995,250.931 199.766,251.403 199.584,251.899 199.45,252.415 199.368,252.95 199.34,253.499 199.348,253.499 199.348,253.5 199.348,253.501 199.34,253.501 199.368,254.051 199.45,254.585 199.584,255.101 199.766,255.597 199.995,256.069 200.266,256.514 200.578,256.931 200.928,257.315 200.928,257.315 201.286,257.643 201.672,257.938 202.083,258.198 202.518,258.421 202.974,258.605 203.449,258.746 203.94,258.844 204.446,258.896 204.743,258.896 204.744,263.047 174.857,263.047 172.781,263.047 172.781,260.972 172.781,253.5 172.781,253.499 172.789,253.499 172.839,252.522 172.983,251.573 173.218,250.657 173.538,249.78 173.939,248.946 174.416,248.159 174.964,247.426 175.578,246.749 175.578,246.749 176.255,246.135 176.988,245.587 177.774,245.11 178.609,244.709 179.486,244.389 180.401,244.155 181.35,244.01 182.327,243.961 182.327,243.953 182.329,243.953 182.329,243.953 182.329,243.961 183.307,244.01 184.256,244.154 185.171,244.389 186.049,244.709 186.883,245.11 187.669,245.587 188.403,246.135 189.079,246.75 189.079,246.75 189.694,247.426 190.242,248.16 190.718,248.946 191.119,249.78 191.44,250.657 191.674,251.572 191.819,252.521 191.868,253.499 191.876,253.499 191.876,253.5 187.725,253.5 187.725,253.499 187.733,253.499 187.705,252.949 187.623,252.415 187.489,251.899 187.307,251.403 187.078,250.931 186.807,250.486 186.494,250.07 186.144,249.685 186.144,249.685 185.76,249.335 185.343,249.022 184.897,248.751 184.425,248.522 183.93,248.34 183.414,248.206 182.879,248.124 182.329,248.096 182.329,248.104 182.329,248.104 182.327,248.104 182.327,248.096 181.778,248.124 181.244,248.206 180.727,248.34 180.232,248.522 179.76,248.75 179.315,249.022 178.898,249.334 178.513,249.684 178.513,249.684 178.163,250.069 177.851,250.486 177.579,250.931 177.351,251.403 177.168,251.899 177.035,252.415 176.952,252.95 176.924,253.499 176.932,253.499 176.932,253.5 176.932,258.896 196.869,258.896 196.497,258.307 196.167,257.689 195.882,257.044 195.644,256.376 195.455,255.685 195.318,254.975 195.233,254.246 195.205,253.501 195.197,253.501 195.197,253.5 195.197,253.499 195.205,253.499 195.254,252.522 195.398,251.573 195.633,250.657 195.953,249.78 196.354,248.946 196.831,248.159 197.379,247.426 197.994,246.749 197.994,246.749 198.67,246.135 199.404,245.587 200.19,245.11 201.024,244.709 201.901,244.389 202.816,244.155 203.765,244.01 204.743,243.961 204.743,243.953 204.744,243.953 204.745,243.953 204.745,243.961 205.722,244.01 206.671,244.154 207.587,244.389 208.464,244.709 209.298,245.11 210.085,245.587 210.819,246.135 211.495,246.75 211.495,246.75 212.109,247.426 212.657,248.16 213.134,248.946 213.535,249.78 213.855,250.657 214.09,251.572 214.234,252.521 214.283,253.499 214.291,253.499 214.291,253.5 214.291,253.501 214.283,253.501 214.255,254.245 214.171,254.974 214.034,255.685 213.845,256.376 213.607,257.044 213.322,257.689 212.992,258.307 212.619,258.896 231.726,258.896 231.727,258.896 231.727,258.904 231.895,258.896 232.058,258.87 232.216,258.829 232.368,258.772 232.513,258.701 232.651,258.616 232.78,258.519 232.899,258.41 232.899,258.41 233.009,258.291 233.106,258.162 233.19,258.024 233.261,257.879 233.318,257.726 233.36,257.568 233.385,257.404 233.394,257.237 233.386,257.237 233.386,257.236 233.386,257.235 233.394,257.235 233.385,257.067 233.36,256.904 233.318,256.745 233.261,256.593 233.19,256.448 233.106,256.31 233.009,256.182 232.9,256.062 232.9,256.054 232.782,255.947 232.654,255.851 232.517,255.768 232.372,255.698 232.22,255.642 232.06,255.601 231.896,255.576 231.726,255.567 231.726,255.576 231.726,255.576 223.424,255.576 223.422,255.576 223.422,255.567 222.827,255.537 222.249,255.45 221.691,255.307 221.158,255.113 220.65,254.869 220.172,254.579 219.726,254.246 219.315,253.873 219.319,253.869 218.945,253.457 218.611,253.01 218.32,252.531 218.076,252.024 217.881,251.49 217.738,250.934 217.65,250.358 217.62,249.765 217.612,249.765 217.612,249.764 217.612,249.763 217.62,249.763 217.65,249.167 217.738,248.589 217.881,248.032 218.075,247.498 218.319,246.991 218.608,246.512 218.941,246.066 219.315,245.655 219.319,245.659 219.731,245.285 220.178,244.952 220.657,244.661 221.164,244.417 221.697,244.222 222.254,244.079 222.83,243.991 223.423,243.961 223.423,243.953 223.424,243.953 237.569,243.953 237.569,248.104 223.424,248.104 223.423,248.104 223.423,248.096 223.254,248.104 223.089,248.129 222.929,248.17 222.777,248.226 222.632,248.296 222.495,248.379 222.367,248.475 222.249,248.582 222.249,248.59 222.141,248.71 222.043,248.839 221.959,248.976 221.888,249.122 221.831,249.274 221.789,249.432 221.764,249.595 221.755,249.763 221.763,249.763 221.763,249.764 221.763,249.765 221.755,249.765 221.764,249.934 221.789,250.099 221.83,250.258 221.886,250.411 221.956,250.556 222.039,250.693 222.134,250.821 222.242,250.938 222.25,250.938 222.369,251.047 222.498,251.144 222.636,251.229 222.781,251.3 222.933,251.357 223.091,251.398 223.255,251.424 223.422,251.433 223.422,251.424 223.424,251.424 231.726,251.424 231.726,251.424 231.726,251.433 232.319,251.463 232.896,251.551 233.452,251.694 233.985,251.888 234.493,252.133 234.971,252.423 235.418,252.757 235.831,253.131 235.835,253.127 236.208,253.538 236.541,253.984 236.83,254.462 237.074,254.97 237.268,255.504 237.411,256.061 237.499,256.639 237.529,257.235 237.537,257.235 237.537,257.236 237.537,257.237 237.529,257.237 237.499,257.832 237.411,258.411 237.269,258.968 237.074,259.502 236.83,260.01 236.541,260.488 236.208,260.934 235.834,261.345 235.834,261.345 235.424,261.718 234.977,262.051 234.499,262.341 233.992,262.584 233.458,262.779 232.9,262.921 232.322,263.009 231.727,263.039 231.727,263.047 231.726,263.047 204.744,263.047" fill="none" stroke="black" stroke-width="0.1"/>
        <polygon id="_new_33_1" points="247.923,251.487 254.571,251.448 254.462,251.202 254.341,250.963 254.209,250.731 254.066,250.506 253.912,250.288 253.748,250.079 253.574,249.877 253.39,249.685 253.39,249.685 253.005,249.335 252.589,249.023 252.143,248.751 251.671,248.523 251.176,248.34 250.66,248.207 250.125,248.124 249.576,248.096 249.576,248.104 249.575,248.104 249.574,248.104 249.574,248.096 249.024,248.124 248.49,248.207 247.974,248.34 247.478,248.523 247.006,248.751 246.56,249.023 246.144,249.335 245.759,249.685 245.759,249.685 245.409,250.07 245.097,250.487 244.825,250.932 244.597,251.404 244.414,251.899 244.281,252.415 244.198,252.95 244.17,253.499 244.178,253.499 244.178,253.501 244.178,253.501 244.17,253.501 244.198,254.051 244.281,254.585 244.414,255.102 244.597,255.597 244.825,256.069 245.097,256.515 245.409,256.932 245.759,257.316 245.759,257.316 246.144,257.666 246.56,257.979 247.006,258.25 247.478,258.479 247.973,258.661 248.489,258.795 249.024,258.877 249.573,258.905 249.573,258.897 249.575,258.897 262.443,258.897 262.443,253.501 262.443,253.5 262.451,253.5 262.498,252.529 262.636,251.586 262.861,250.676 263.168,249.802 263.554,248.97 264.014,248.185 264.545,247.452 265.141,246.774 265.141,246.774 265.803,246.154 266.523,245.602 267.297,245.121 268.12,244.717 268.989,244.394 269.898,244.157 270.845,244.011 271.824,243.962 271.824,243.953 271.825,243.953 271.826,243.953 271.826,243.962 272.798,244.011 273.747,244.154 274.666,244.387 275.551,244.706 276.395,245.104 277.194,245.578 277.942,246.123 278.634,246.734 278.634,246.734 279.268,247.411 279.836,248.146 280.33,248.933 280.747,249.769 281.081,250.649 281.326,251.567 281.478,252.518 281.529,253.499 281.537,253.499 281.537,253.501 281.537,258.897 294.405,258.897 294.406,258.897 294.406,258.905 294.956,258.877 295.49,258.795 296.007,258.661 296.502,258.479 296.974,258.25 297.42,257.978 297.837,257.666 298.221,257.316 298.221,257.316 298.571,256.931 298.883,256.515 299.155,256.069 299.383,255.597 299.566,255.102 299.7,254.586 299.782,254.052 299.81,253.502 299.802,253.502 299.802,253.501 299.802,253.5 299.81,253.5 299.782,252.95 299.7,252.416 299.566,251.899 299.383,251.404 299.155,250.932 298.883,250.486 298.571,250.07 298.221,249.685 298.221,249.685 297.836,249.335 297.42,249.023 296.974,248.751 296.502,248.523 296.007,248.34 295.491,248.207 294.956,248.124 294.407,248.096 294.407,248.104 294.405,248.104 294.405,248.104 294.405,248.096 293.855,248.124 293.321,248.207 292.804,248.34 292.309,248.523 291.837,248.751 291.391,249.023 290.974,249.335 290.59,249.685 290.59,249.685 290.262,250.043 289.967,250.429 289.707,250.84 289.484,251.274 289.301,251.73 289.159,252.205 289.061,252.696 289.009,253.202 289.009,253.499 289.009,253.501 289.009,255.991 284.858,255.991 284.858,253.501 284.858,253.499 284.858,241.048 289.009,241.048 289.009,245.626 289.599,245.253 290.217,244.923 290.861,244.638 291.53,244.4 292.221,244.212 292.932,244.074 293.66,243.99 294.405,243.962 294.405,243.953 294.405,243.953 294.407,243.953 294.407,243.962 295.384,244.011 296.333,244.155 297.248,244.39 298.126,244.71 298.96,245.111 299.746,245.588 300.48,246.136 301.156,246.75 301.156,246.75 301.77,247.426 302.318,248.16 302.795,248.946 303.196,249.781 303.516,250.658 303.751,251.573 303.895,252.522 303.945,253.5 303.953,253.5 303.953,253.501 303.953,253.502 303.945,253.502 303.895,254.479 303.751,255.428 303.516,256.344 303.196,257.221 302.795,258.055 302.318,258.841 301.771,259.575 301.156,260.251 301.156,260.251 300.48,260.865 299.746,261.414 298.96,261.89 298.125,262.291 297.248,262.612 296.333,262.846 295.384,262.991 294.406,263.04 294.406,263.048 294.405,263.048 279.462,263.048 277.386,263.048 277.386,260.973 277.386,253.501 277.386,253.499 277.394,253.499 277.365,252.953 277.279,252.422 277.14,251.908 276.95,251.415 276.713,250.945 276.431,250.501 276.108,250.086 275.748,249.701 275.748,249.701 275.348,249.348 274.915,249.032 274.454,248.758 273.968,248.527 273.458,248.343 272.93,248.208 272.384,248.125 271.826,248.096 271.826,248.104 271.825,248.104 271.824,248.104 271.824,248.096 271.28,248.124 270.753,248.205 270.248,248.337 269.765,248.516 269.307,248.741 268.877,249.009 268.476,249.316 268.108,249.661 268.108,249.661 267.771,250.044 267.471,250.461 267.21,250.908 266.992,251.382 266.818,251.882 266.69,252.403 266.612,252.943 266.586,253.5 266.594,253.5 266.594,253.501 266.594,260.973 266.594,263.048 264.518,263.048 249.575,263.048 249.573,263.048 249.573,263.04 248.596,262.991 247.647,262.846 246.732,262.611 245.854,262.291 245.02,261.89 244.234,261.414 243.5,260.866 242.824,260.251 242.824,260.251 242.21,259.575 241.662,258.841 241.185,258.055 240.784,257.221 240.464,256.343 240.229,255.428 240.085,254.479 240.036,253.501 240.027,253.501 240.027,253.501 240.027,253.499 240.036,253.499 240.085,252.522 240.229,251.573 240.464,250.658 240.784,249.781 241.185,248.947 241.662,248.16 242.21,247.427 242.824,246.75 242.824,246.75 243.5,246.136 244.234,245.588 245.02,245.111 245.855,244.71 246.732,244.39 247.647,244.155 248.596,244.011 249.574,243.962 249.574,243.953 249.575,243.953 249.576,243.953 249.576,243.962 250.553,244.011 251.502,244.155 252.418,244.39 253.295,244.71 254.129,245.111 254.915,245.588 255.649,246.136 256.325,246.75 256.325,246.75 256.939,247.426 257.488,248.16 257.964,248.946 258.365,249.781 258.685,250.658 258.92,251.573 259.065,252.522 259.114,253.5 259.122,253.5 259.122,253.501 259.122,255.556 257.055,255.568 247.939,255.622" fill="none" stroke="black" stroke-width="0.1"/>
        <polygon id="_new_34_1" points="352.105,253.5 352.105,253.5 352.113,253.5 352.16,252.529 352.298,251.586 352.523,250.675 352.831,249.802 353.217,248.97 353.677,248.185 354.207,247.451 354.803,246.774 354.803,246.774 355.465,246.154 356.185,245.601 356.959,245.12 357.782,244.716 358.651,244.393 359.56,244.156 360.507,244.011 361.486,243.961 361.486,243.953 361.487,243.953 361.488,243.953 361.488,243.961 362.465,244.01 363.414,244.154 364.33,244.389 365.207,244.709 366.041,245.11 366.828,245.587 367.561,246.135 368.238,246.75 368.238,246.75 368.852,247.426 369.4,248.16 369.877,248.946 370.278,249.78 370.598,250.657 370.832,251.572 370.977,252.521 371.026,253.499 371.034,253.499 371.034,253.5 371.034,253.5 371.026,253.5 370.977,254.478 370.833,255.427 370.598,256.343 370.278,257.22 369.877,258.054 369.4,258.841 368.852,259.574 368.237,260.251 368.237,260.251 367.561,260.865 366.827,261.413 366.041,261.89 365.207,262.291 364.33,262.611 363.415,262.846 362.466,262.99 361.488,263.039 361.488,263.047 361.487,263.047 361.487,263.039 339.237,263.04 339.237,258.905 361.487,258.904 361.487,258.896 361.488,258.896 361.488,258.904 362.038,258.876 362.572,258.794 363.089,258.661 363.584,258.478 364.056,258.25 364.501,257.978 364.918,257.666 365.302,257.316 365.302,257.316 365.653,256.931 365.965,256.514 366.236,256.069 366.465,255.597 366.647,255.101 366.781,254.585 366.863,254.05 366.891,253.5 366.883,253.5 366.883,253.5 366.883,253.499 366.891,253.499 366.863,252.949 366.781,252.415 366.647,251.899 366.465,251.403 366.237,250.931 365.965,250.486 365.653,250.07 365.303,249.685 365.303,249.685 364.918,249.335 364.501,249.022 364.056,248.751 363.584,248.522 363.088,248.34 362.572,248.206 362.037,248.124 361.488,248.096 361.488,248.104 361.487,248.104 361.486,248.104 361.486,248.096 360.942,248.123 360.416,248.204 359.91,248.336 359.427,248.516 358.969,248.741 358.539,249.008 358.139,249.315 357.771,249.66 357.771,249.66 357.433,250.044 357.133,250.461 356.873,250.908 356.654,251.382 356.48,251.881 356.353,252.403 356.275,252.943 356.248,253.5 356.256,253.5 356.256,253.5" fill="none" stroke="black" stroke-width="0.1"/>
        <polygon id="_new_35_1" points="315.171,251.487 321.818,251.448 321.709,251.202 321.588,250.963 321.456,250.731 321.313,250.506 321.159,250.288 320.995,250.079 320.821,249.878 320.637,249.685 320.637,249.685 320.253,249.335 319.836,249.023 319.391,248.751 318.919,248.523 318.423,248.34 317.907,248.207 317.373,248.124 316.823,248.096 316.823,248.104 316.822,248.104 316.822,248.104 316.822,248.096 316.272,248.124 315.737,248.207 315.221,248.34 314.725,248.523 314.253,248.751 313.808,249.023 313.391,249.335 313.006,249.685 313.006,249.685 312.656,250.07 312.344,250.487 312.072,250.932 311.844,251.404 311.662,251.899 311.528,252.415 311.446,252.95 311.418,253.499 311.426,253.499 311.426,253.501 311.426,253.501 311.418,253.501 311.446,254.051 311.528,254.585 311.661,255.102 311.844,255.597 312.072,256.069 312.344,256.515 312.656,256.932 313.007,257.316 313.007,257.316 313.391,257.666 313.808,257.979 314.254,258.25 314.725,258.479 315.221,258.661 315.737,258.795 316.271,258.877 316.821,258.905 316.821,258.897 316.822,258.897 329.69,258.897 329.69,253.501 329.69,253.5 329.698,253.5 329.746,252.528 329.885,251.585 330.111,250.675 330.421,249.804 330.809,248.976 331.272,248.195 331.805,247.465 332.405,246.793 332.405,246.793 333.069,246.18 333.79,245.634 334.565,245.159 335.389,244.76 336.257,244.441 337.166,244.208 338.111,244.065 339.088,244.016 339.088,244.007 339.089,244.007 339.09,244.007 339.09,244.016 340.068,244.065 341.017,244.209 341.932,244.444 342.81,244.764 343.644,245.165 344.43,245.642 345.164,246.19 345.84,246.804 345.84,246.804 346.455,247.481 347.002,248.214 347.479,249.0 347.88,249.835 348.2,250.712 348.435,251.627 348.579,252.576 348.629,253.553 348.637,253.553 348.637,253.555 344.486,253.555 344.486,253.553 344.494,253.553 344.466,253.004 344.384,252.47 344.25,251.953 344.067,251.458 343.839,250.986 343.567,250.541 343.255,250.124 342.905,249.739 342.905,249.739 342.521,249.389 342.104,249.077 341.658,248.805 341.186,248.577 340.691,248.394 340.174,248.261 339.64,248.178 339.09,248.15 339.09,248.159 339.089,248.159 339.088,248.159 339.088,248.15 338.541,248.178 338.013,248.257 337.505,248.387 337.02,248.564 336.56,248.786 336.128,249.051 335.726,249.354 335.356,249.696 335.356,249.696 335.019,250.074 334.719,250.486 334.458,250.928 334.239,251.397 334.065,251.892 333.938,252.409 333.86,252.946 333.833,253.5 333.841,253.5 333.841,253.501 333.841,260.973 333.841,263.048 331.766,263.048 316.822,263.048 316.821,263.048 316.821,263.04 315.843,262.991 314.894,262.846 313.979,262.611 313.102,262.291 312.268,261.89 311.481,261.414 310.748,260.866 310.072,260.251 310.072,260.251 309.457,259.575 308.909,258.841 308.432,258.055 308.031,257.221 307.711,256.343 307.476,255.428 307.332,254.479 307.283,253.501 307.275,253.501 307.275,253.501 307.275,253.499 307.283,253.499 307.332,252.522 307.476,251.573 307.711,250.658 308.031,249.781 308.432,248.947 308.909,248.16 309.457,247.427 310.071,246.75 310.071,246.75 310.748,246.136 311.481,245.588 312.268,245.111 313.102,244.71 313.979,244.39 314.895,244.155 315.844,244.011 316.822,243.962 316.822,243.953 316.822,243.953 316.823,243.953 316.823,243.962 317.801,244.011 318.75,244.155 319.665,244.39 320.542,244.71 321.376,245.111 322.163,245.588 322.896,246.136 323.572,246.75 323.572,246.75 324.187,247.426 324.735,248.16 325.212,248.946 325.613,249.781 325.933,250.658 326.168,251.573 326.312,252.522 326.361,253.5 326.369,253.5 326.369,253.501 326.369,255.556 324.302,255.568 315.187,255.622" fill="none" stroke="black" stroke-width="0.1"/>
        <polygon id="_new_36_1" points="382.564,251.433 389.212,251.394 389.103,251.148 388.982,250.909 388.85,250.677 388.707,250.452 388.553,250.234 388.389,250.024 388.215,249.823 388.031,249.631 388.031,249.631 387.646,249.281 387.23,248.968 386.784,248.697 386.313,248.468 385.817,248.286 385.301,248.152 384.767,248.07 384.217,248.042 384.217,248.05 384.216,248.05 384.215,248.05 384.215,248.042 383.665,248.07 383.131,248.152 382.615,248.286 382.119,248.468 381.647,248.697 381.201,248.969 380.785,249.281 380.4,249.631 380.4,249.631 380.05,250.016 379.738,250.432 379.466,250.878 379.238,251.35 379.055,251.845 378.922,252.361 378.839,252.895 378.811,253.445 378.82,253.445 378.82,253.446 378.82,253.447 378.811,253.447 378.839,253.997 378.922,254.531 379.055,255.048 379.238,255.543 379.466,256.015 379.738,256.461 380.05,256.877 380.4,257.262 380.4,257.262 380.785,257.612 381.202,257.924 381.647,258.196 382.119,258.424 382.614,258.607 383.13,258.741 383.665,258.823 384.214,258.851 384.214,258.843 384.216,258.843 384.216,258.851 397.101,258.897 397.101,253.5 397.101,253.5 397.109,253.5 397.156,252.529 397.294,251.586 397.519,250.675 397.826,249.802 398.212,248.97 398.673,248.185 399.203,247.451 399.799,246.774 399.799,246.774 400.461,246.154 401.181,245.602 401.955,245.121 402.778,244.716 403.647,244.393 404.556,244.157 405.503,244.011 406.482,243.961 406.482,243.953 406.483,243.953 406.484,243.953 406.484,243.961 407.461,244.011 408.41,244.155 409.326,244.389 410.203,244.71 411.037,245.111 411.824,245.588 412.558,246.136 413.234,246.75 413.234,246.75 413.848,247.426 414.396,248.16 414.873,248.946 415.274,249.78 415.594,250.657 415.829,251.573 415.973,252.522 416.022,253.499 416.031,253.499 416.031,253.5 411.879,253.5 411.879,253.499 411.888,253.499 411.86,252.949 411.777,252.415 411.644,251.899 411.461,251.404 411.233,250.932 410.961,250.486 410.649,250.07 410.299,249.685 410.299,249.685 409.914,249.335 409.498,249.023 409.052,248.751 408.58,248.522 408.084,248.34 407.568,248.206 407.034,248.124 406.484,248.096 406.484,248.104 406.483,248.104 406.482,248.104 406.482,248.096 405.938,248.124 405.412,248.205 404.906,248.336 404.423,248.516 403.965,248.741 403.535,249.008 403.135,249.316 402.767,249.66 402.767,249.66 402.429,250.044 402.129,250.461 401.868,250.908 401.65,251.382 401.476,251.881 401.349,252.402 401.27,252.943 401.244,253.5 401.252,253.5 401.252,253.5 401.252,260.972 401.252,263.047 399.176,263.04 384.216,262.986 384.216,262.994 384.214,262.994 384.214,262.986 383.237,262.936 382.288,262.792 381.373,262.557 380.496,262.237 379.662,261.836 378.875,261.359 378.142,260.811 377.465,260.197 377.465,260.197 376.851,259.521 376.303,258.787 375.826,258.001 375.425,257.166 375.105,256.289 374.87,255.374 374.726,254.425 374.677,253.447 374.668,253.447 374.668,253.446 374.668,253.445 374.677,253.445 374.726,252.468 374.87,251.519 375.105,250.603 375.425,249.726 375.826,248.892 376.303,248.106 376.851,247.372 377.465,246.696 377.465,246.696 378.141,246.082 378.875,245.534 379.661,245.057 380.496,244.656 381.373,244.335 382.288,244.101 383.237,243.956 384.215,243.907 384.215,243.899 384.216,243.899 384.217,243.899 384.217,243.907 385.195,243.957 386.143,244.101 387.059,244.336 387.936,244.656 388.77,245.057 389.556,245.533 390.29,246.081 390.966,246.696 390.966,246.696 391.581,247.372 392.129,248.106 392.606,248.892 393.007,249.726 393.327,250.604 393.561,251.519 393.706,252.468 393.755,253.446 393.763,253.446 393.763,253.446 393.763,255.501 391.696,255.514 382.581,255.568" fill="none" stroke="black" stroke-width="0.1"/>
        <polygon id="center_00" cx="254.274" cy="253.5" points="266.1952,253.5 266.12989441906427,254.74610471630635 265.93469317786787,255.97855684857666 265.6117349420578,257.18385339334264 265.16455810964897,258.3487888694352 264.59806204359506,259.4606 263.91845339334265,260.50710554962905 263.1331780934811,261.4768397845252 262.2508397845252,262.3591780934811 261.28110554962905,263.14445339334264 260.2346,263.82406204359506 259.1227888694352,264.39055810964896 257.95785339334265,264.8377349420578 256.75255684857666,265.16069317786787 255.52010471630635,265.35589441906427 254.274,265.4212 253.02789528369365,265.35589441906427 251.79544315142334,265.16069317786787 250.59014660665738,264.8377349420578 249.42521113056478,264.39055810964896 248.3134,263.82406204359506 247.26689445037098,263.14445339334264 246.29716021547478,262.3591780934811 245.41482190651888,261.4768397845252 244.62954660665739,260.50710554962905 243.94993795640494,259.4606 243.38344189035104,258.3487888694352 242.93626505794222,257.18385339334264 242.61330682213216,255.9785568485767 242.41810558093573,254.74610471630635 242.3528,253.5 242.41810558093573,252.25389528369365 242.61330682213216,251.02144315142334 242.93626505794222,249.81614660665738 243.38344189035104,248.65121113056477 243.94993795640494,247.5394 244.62954660665739,246.49289445037098 245.41482190651888,245.52316021547477 246.29716021547478,244.64082190651888 247.26689445037096,243.85554660665738 248.3134,243.17593795640494 249.42521113056478,242.60944189035104 250.59014660665738,242.16226505794222 251.7954431514233,241.83930682213216 253.02789528369365,241.64410558093573 254.274,241.5788 255.52010471630635,241.64410558093573 256.75255684857666,241.83930682213216 257.95785339334265,242.16226505794222 259.1227888694352,242.60944189035104 260.2346,243.17593795640494 261.28110554962905,243.85554660665738 262.2508397845252,244.64082190651888 263.1331780934811,245.52316021547477 263.91845339334265,246.49289445037095 264.59806204359506,247.5394 265.16455810964897,248.65121113056477 265.6117349420578,249.81614660665738 265.93469317786787,251.0214431514233 266.12989441906427,252.25389528369365" fill="none" stroke="black" stroke-width="0.1"/>
    </g>
</svg>
