<!DOCTYPE svg PUBLIC "-//W3C//DTD SVG 1.1//EN" "http://www.w3.org/Graphics/SVG/1.1/DTD/svg11.dtd">
<svg xmlns="http://www.w3.org/2000/svg" width="297mm" height="210mm" viewBox="0 0 297 210">
    <defs id="_tag_84_"/>
    <g id="trashNode_001"/>
    <g id="_tag_85_">
        <polygon id="_new_32_2" points="207.649,259.387 207.976,259.387 208.527,259.33 209.063,259.223 209.581,259.068 210.078,258.868 210.552,258.625 211.001,258.342 211.421,258.02 211.812,257.663 211.812,257.663 212.194,257.243 212.534,256.788 212.831,256.302 213.08,255.787 213.279,255.247 213.425,254.684 213.515,254.1 213.545,253.501 213.536,253.501 213.536,253.5 213.536,253.499 213.545,253.499 213.515,252.899 213.425,252.316 213.279,251.753 213.08,251.213 212.831,250.698 212.534,250.212 212.194,249.758 211.812,249.338 211.812,249.338 211.392,248.956 210.938,248.615 210.452,248.319 209.937,248.07 209.396,247.87 208.833,247.725 208.25,247.635 207.65,247.604 207.65,247.613 207.649,247.613 207.648,247.613 207.648,247.604 207.049,247.635 206.466,247.725 205.903,247.87 205.362,248.07 204.848,248.319 204.361,248.615 203.907,248.956 203.487,249.337 203.487,249.337 203.105,249.757 202.765,250.212 202.468,250.698 202.219,251.213 202.02,251.753 201.874,252.317 201.784,252.9 201.754,253.499 201.763,253.499 201.763,253.5 201.763,253.501 201.754,253.501 201.784,254.101 201.874,254.684 202.02,255.247 202.219,255.787 202.468,256.302 202.765,256.788 203.105,257.243 203.487,257.662 203.487,257.662 203.878,258.02 204.298,258.342 204.747,258.625 205.221,258.868 205.719,259.068 206.236,259.223 206.772,259.33 207.325,259.387 207.649,259.387 207.649,263.915 175.046,263.915 172.781,263.915 172.781,261.651 172.781,253.5 172.781,253.499 172.79,253.499 172.844,252.433 173.001,251.398 173.257,250.399 173.607,249.442 174.044,248.532 174.564,247.674 175.162,246.873 175.832,246.136 175.832,246.136 176.57,245.465 177.371,244.868 178.228,244.348 179.138,243.91 180.095,243.561 181.094,243.305 182.129,243.148 183.195,243.094 183.195,243.085 183.197,243.085 183.197,243.085 183.197,243.094 184.264,243.148 185.299,243.305 186.298,243.561 187.255,243.91 188.165,244.348 189.023,244.868 189.823,245.466 190.561,246.136 190.561,246.136 191.231,246.874 191.829,247.674 192.349,248.532 192.786,249.442 193.135,250.399 193.392,251.397 193.549,252.432 193.603,253.499 193.612,253.499 193.612,253.5 189.083,253.5 189.083,253.499 189.092,253.499 189.062,252.899 188.972,252.316 188.826,251.753 188.627,251.213 188.378,250.698 188.082,250.212 187.741,249.758 187.359,249.338 187.359,249.338 186.939,248.956 186.485,248.615 185.999,248.319 185.484,248.07 184.943,247.87 184.38,247.725 183.797,247.635 183.197,247.604 183.197,247.613 183.197,247.613 183.195,247.613 183.195,247.604 182.596,247.635 182.013,247.725 181.45,247.87 180.909,248.07 180.394,248.319 179.908,248.615 179.454,248.956 179.034,249.337 179.034,249.337 178.652,249.757 178.312,250.212 178.015,250.698 177.766,251.213 177.567,251.753 177.421,252.317 177.331,252.9 177.301,253.499 177.31,253.499 177.31,253.5 177.31,259.387 199.059,259.387 198.652,258.744 198.292,258.07 197.981,257.367 197.722,256.637 197.516,255.884 197.366,255.109 197.274,254.314 197.243,253.501 197.234,253.501 197.234,253.5 197.234,253.499 197.243,253.499 197.297,252.433 197.454,251.398 197.71,250.399 198.06,249.442 198.497,248.532 199.017,247.674 199.615,246.873 200.286,246.136 200.286,246.136 201.023,245.465 201.824,244.868 202.681,244.348 203.591,243.91 204.548,243.561 205.547,243.305 206.582,243.148 207.648,243.094 207.648,243.085 207.649,243.085 207.65,243.085 207.65,243.094 208.717,243.148 209.752,243.305 210.751,243.561 211.708,243.91 212.618,244.348 213.476,244.868 214.276,245.466 215.014,246.136 215.014,246.136 215.684,246.874 216.282,247.674 216.802,248.532 217.239,249.442 217.589,250.399 217.845,251.397 218.002,252.432 218.056,253.499 218.065,253.499 218.065,253.5 218.065,253.501 218.056,253.501 218.025,254.313 217.933,255.108 217.783,255.884 217.578,256.637 217.318,257.366 217.007,258.069 216.647,258.744 216.241,259.387 237.084,259.387 237.085,259.387 237.085,259.396 237.268,259.386 237.446,259.358 237.619,259.313 237.785,259.251 237.943,259.173 238.093,259.081 238.234,258.975 238.364,258.856 238.364,258.856 238.483,258.726 238.589,258.585 238.682,258.435 238.759,258.277 238.821,258.111 238.867,257.938 238.894,257.759 238.904,257.576 238.895,257.576 238.895,257.576 238.895,257.574 238.904,257.574 238.894,257.391 238.867,257.213 238.821,257.041 238.759,256.874 238.682,256.716 238.589,256.566 238.484,256.425 238.365,256.295 238.365,256.286 238.236,256.169 238.097,256.065 237.947,255.974 237.789,255.898 237.623,255.837 237.449,255.792 237.269,255.765 237.084,255.755 237.084,255.764 237.084,255.764 228.027,255.764 228.026,255.764 228.026,255.755 227.376,255.723 226.746,255.627 226.137,255.471 225.555,255.259 225.001,254.993 224.48,254.677 223.993,254.314 223.545,253.907 223.549,253.903 223.141,253.453 222.777,252.965 222.46,252.443 222.194,251.889 221.981,251.308 221.825,250.701 221.729,250.072 221.696,249.425 221.687,249.425 221.687,249.425 221.687,249.423 221.696,249.423 221.729,248.773 221.825,248.143 221.98,247.535 222.193,246.952 222.458,246.399 222.774,245.877 223.137,245.39 223.544,244.942 223.549,244.947 223.999,244.539 224.486,244.174 225.009,243.858 225.562,243.591 226.144,243.378 226.751,243.223 227.379,243.126 228.027,243.094 228.027,243.085 228.027,243.085 243.458,243.085 243.458,247.613 228.027,247.613 228.027,247.613 228.027,247.604 227.842,247.614 227.662,247.641 227.488,247.686 227.322,247.747 227.164,247.823 227.014,247.914 226.875,248.018 226.746,248.135 226.746,248.144 226.627,248.274 226.522,248.415 226.429,248.565 226.352,248.724 226.29,248.89 226.244,249.062 226.217,249.24 226.207,249.423 226.216,249.423 226.216,249.425 226.216,249.425 226.207,249.425 226.216,249.61 226.244,249.79 226.288,249.964 226.349,250.13 226.426,250.288 226.516,250.437 226.621,250.577 226.738,250.705 226.747,250.705 226.877,250.824 227.017,250.93 227.167,251.022 227.326,251.1 227.492,251.162 227.665,251.207 227.843,251.235 228.026,251.245 228.026,251.236 228.027,251.236 237.084,251.236 237.084,251.236 237.084,251.245 237.732,251.278 238.36,251.373 238.967,251.529 239.549,251.742 240.102,252.008 240.624,252.325 241.112,252.689 241.562,253.098 241.566,253.093 241.974,253.541 242.337,254.028 242.653,254.55 242.918,255.103 243.13,255.686 243.286,256.294 243.382,256.924 243.415,257.574 243.423,257.574 243.423,257.576 243.423,257.576 243.415,257.576 243.382,258.226 243.286,258.857 243.131,259.465 242.918,260.048 242.653,260.601 242.337,261.123 241.973,261.61 241.566,262.058 241.566,262.058 241.118,262.465 240.631,262.828 240.11,263.144 239.556,263.41 238.974,263.622 238.365,263.778 237.735,263.874 237.085,263.906 237.085,263.915 237.084,263.915 207.649,263.915" fill="none" stroke="black" stroke-width="0.1"/>
        <polygon id="_new_33_1" points="254.754,251.304 262.006,251.261 261.887,250.993 261.755,250.733 261.611,250.479 261.455,250.234 261.287,249.996 261.108,249.768 260.918,249.548 260.718,249.338 260.718,249.338 260.298,248.956 259.844,248.616 259.357,248.319 258.843,248.07 258.302,247.871 257.739,247.725 257.156,247.636 256.557,247.605 256.557,247.614 256.555,247.614 256.555,247.614 256.555,247.605 255.955,247.636 255.372,247.725 254.809,247.871 254.268,248.07 253.753,248.319 253.267,248.616 252.813,248.957 252.393,249.339 252.393,249.339 252.011,249.758 251.67,250.213 251.374,250.699 251.125,251.213 250.926,251.754 250.78,252.317 250.69,252.9 250.66,253.499 250.669,253.499 250.669,253.501 250.669,253.501 250.66,253.501 250.69,254.101 250.78,254.684 250.926,255.247 251.125,255.788 251.374,256.303 251.671,256.789 252.011,257.243 252.393,257.663 252.393,257.663 252.813,258.045 253.267,258.386 253.753,258.682 254.268,258.931 254.808,259.13 255.372,259.276 255.954,259.366 256.554,259.396 256.554,259.387 256.555,259.387 270.593,259.387 270.593,253.501 270.593,253.5 270.602,253.5 270.653,252.441 270.804,251.412 271.049,250.419 271.385,249.466 271.806,248.558 272.308,247.702 272.886,246.902 273.537,246.163 273.537,246.163 274.259,245.487 275.044,244.884 275.889,244.359 276.787,243.918 277.734,243.566 278.726,243.308 279.759,243.149 280.827,243.094 280.827,243.086 280.829,243.086 280.829,243.086 280.829,243.094 281.89,243.148 282.925,243.304 283.928,243.559 284.893,243.906 285.814,244.341 286.685,244.858 287.502,245.453 288.256,246.119 288.256,246.119 288.948,246.857 289.567,247.659 290.107,248.518 290.562,249.43 290.926,250.389 291.193,251.391 291.358,252.429 291.415,253.499 291.424,253.499 291.424,253.501 291.424,259.387 305.462,259.387 305.462,259.387 305.462,259.396 306.062,259.366 306.645,259.276 307.208,259.13 307.749,258.931 308.264,258.682 308.75,258.385 309.204,258.045 309.624,257.663 309.624,257.663 310.006,257.243 310.346,256.789 310.643,256.303 310.892,255.788 311.091,255.248 311.237,254.685 311.327,254.102 311.357,253.502 311.348,253.502 311.348,253.501 311.348,253.5 311.357,253.5 311.327,252.9 311.237,252.317 311.091,251.754 310.892,251.213 310.643,250.699 310.346,250.212 310.006,249.758 309.624,249.338 309.624,249.338 309.204,248.956 308.75,248.616 308.264,248.319 307.749,248.07 307.208,247.871 306.645,247.725 306.062,247.636 305.463,247.605 305.463,247.614 305.462,247.614 305.461,247.614 305.461,247.605 304.861,247.636 304.278,247.725 303.715,247.871 303.174,248.07 302.659,248.319 302.173,248.616 301.719,248.957 301.299,249.339 301.299,249.339 300.942,249.729 300.62,250.15 300.336,250.598 300.093,251.072 299.893,251.569 299.738,252.087 299.631,252.623 299.575,253.175 299.575,253.499 299.575,253.501 299.575,256.218 295.046,256.218 295.046,253.501 295.046,253.499 295.046,239.916 299.575,239.916 299.575,244.91 300.218,244.503 300.892,244.143 301.595,243.833 302.325,243.573 303.078,243.367 303.854,243.217 304.649,243.125 305.461,243.094 305.461,243.086 305.462,243.086 305.463,243.086 305.463,243.094 306.529,243.148 307.564,243.306 308.563,243.562 309.52,243.911 310.43,244.348 311.288,244.868 312.088,245.466 312.826,246.136 312.826,246.136 313.496,246.874 314.094,247.674 314.614,248.532 315.051,249.443 315.401,250.399 315.657,251.398 315.814,252.433 315.868,253.5 315.877,253.5 315.877,253.501 315.877,253.502 315.868,253.502 315.814,254.568 315.656,255.604 315.401,256.602 315.051,257.559 314.614,258.469 314.094,259.327 313.496,260.127 312.826,260.865 312.826,260.865 312.088,261.535 311.288,262.133 310.43,262.653 309.52,263.091 308.563,263.44 307.564,263.696 306.529,263.853 305.462,263.907 305.462,263.916 305.462,263.916 289.159,263.916 286.895,263.916 286.895,261.652 286.895,253.501 286.895,253.499 286.904,253.499 286.872,252.904 286.778,252.324 286.626,251.764 286.419,251.226 286.16,250.713 285.853,250.229 285.501,249.775 285.108,249.356 285.108,249.356 284.671,248.97 284.2,248.626 283.697,248.327 283.166,248.075 282.61,247.874 282.033,247.727 281.438,247.636 280.829,247.605 280.829,247.614 280.829,247.614 280.827,247.614 280.827,247.605 280.233,247.635 279.659,247.724 279.108,247.867 278.581,248.063 278.082,248.308 277.612,248.6 277.176,248.936 276.774,249.312 276.774,249.312 276.406,249.73 276.078,250.185 275.794,250.672 275.556,251.19 275.366,251.734 275.227,252.303 275.142,252.892 275.113,253.5 275.122,253.5 275.122,253.501 275.122,261.652 275.122,263.916 272.857,263.916 256.555,263.916 256.554,263.916 256.554,263.907 255.488,263.853 254.452,263.696 253.454,263.44 252.497,263.091 251.587,262.653 250.729,262.133 249.929,261.535 249.191,260.865 249.191,260.865 248.521,260.127 247.923,259.327 247.403,258.469 246.966,257.559 246.616,256.602 246.36,255.603 246.203,254.568 246.149,253.501 246.14,253.501 246.14,253.501 246.14,253.499 246.149,253.499 246.203,252.433 246.361,251.398 246.616,250.399 246.966,249.443 247.403,248.533 247.923,247.675 248.521,246.875 249.191,246.137 249.191,246.137 249.929,245.466 250.729,244.869 251.587,244.348 252.497,243.911 253.454,243.562 254.453,243.305 255.488,243.148 256.555,243.094 256.555,243.086 256.555,243.086 256.557,243.086 256.557,243.094 257.623,243.148 258.658,243.306 259.657,243.562 260.614,243.911 261.524,244.348 262.381,244.868 263.182,245.466 263.919,246.136 263.919,246.136 264.59,246.874 265.188,247.674 265.708,248.532 266.145,249.442 266.495,250.399 266.75,251.398 266.908,252.433 266.962,253.5 266.971,253.5 266.971,253.501 266.971,255.743 264.715,255.756 254.772,255.815" fill="none" stroke="black" stroke-width="0.1"/>
        <polygon id="_new_34_1" points="368.406,253.501 368.406,253.5 368.415,253.5 368.466,252.441 368.617,251.412 368.862,250.419 369.198,249.466 369.619,248.558 370.121,247.702 370.699,246.901 371.35,246.162 371.35,246.162 372.072,245.486 372.857,244.883 373.701,244.359 374.599,243.918 375.547,243.565 376.539,243.307 377.572,243.148 378.64,243.094 378.64,243.085 378.641,243.085 378.642,243.085 378.642,243.094 379.708,243.148 380.743,243.305 381.742,243.561 382.699,243.91 383.609,244.348 384.467,244.868 385.268,245.466 386.005,246.136 386.005,246.136 386.676,246.874 387.273,247.674 387.793,248.532 388.231,249.442 388.58,250.399 388.836,251.397 388.993,252.432 389.047,253.499 389.056,253.499 389.056,253.5 389.056,253.501 389.047,253.501 388.994,254.567 388.836,255.602 388.58,256.601 388.231,257.558 387.793,258.468 387.273,259.326 386.675,260.127 386.005,260.864 386.005,260.864 385.267,261.534 384.467,262.132 383.609,262.653 382.699,263.09 381.743,263.439 380.744,263.695 379.709,263.853 378.642,263.906 378.642,263.915 378.641,263.915 378.641,263.906 354.368,263.907 354.368,259.396 378.641,259.396 378.641,259.387 378.642,259.387 378.642,259.396 379.242,259.365 379.825,259.275 380.388,259.13 380.928,258.93 381.443,258.681 381.929,258.385 382.384,258.044 382.803,257.663 382.803,257.663 383.185,257.243 383.526,256.788 383.822,256.302 384.072,255.787 384.271,255.247 384.416,254.683 384.506,254.1 384.537,253.501 384.528,253.501 384.528,253.5 384.528,253.499 384.537,253.499 384.506,252.899 384.416,252.316 384.271,251.753 384.072,251.213 383.822,250.698 383.526,250.212 383.185,249.758 382.804,249.338 382.804,249.338 382.384,248.956 381.929,248.615 381.443,248.319 380.928,248.07 380.388,247.87 379.825,247.725 379.241,247.635 378.642,247.604 378.642,247.613 378.641,247.613 378.64,247.613 378.64,247.604 378.046,247.634 377.472,247.723 376.921,247.867 376.394,248.062 375.894,248.308 375.425,248.6 374.988,248.935 374.587,249.311 374.587,249.311 374.219,249.73 373.891,250.185 373.607,250.672 373.369,251.19 373.179,251.734 373.04,252.303 372.955,252.892 372.926,253.5 372.935,253.5 372.935,253.501" fill="none" stroke="black" stroke-width="0.1"/>
        <polygon id="_new_35_1" points="328.114,251.304 335.366,251.261 335.247,250.993 335.115,250.733 334.971,250.479 334.815,250.234 334.647,249.996 334.468,249.768 334.278,249.548 334.078,249.338 334.078,249.338 333.658,248.956 333.204,248.616 332.718,248.319 332.203,248.07 331.663,247.871 331.1,247.725 330.517,247.636 329.917,247.605 329.917,247.614 329.916,247.614 329.915,247.614 329.915,247.605 329.315,247.636 328.732,247.725 328.169,247.871 327.629,248.07 327.114,248.319 326.628,248.616 326.173,248.957 325.753,249.339 325.753,249.339 325.371,249.758 325.031,250.213 324.735,250.699 324.485,251.213 324.286,251.754 324.14,252.317 324.051,252.9 324.02,253.499 324.029,253.499 324.029,253.501 324.029,253.501 324.02,253.501 324.051,254.101 324.14,254.684 324.286,255.247 324.485,255.788 324.735,256.303 325.031,256.789 325.372,257.243 325.754,257.663 325.754,257.663 326.173,258.045 326.628,258.386 327.114,258.682 327.629,258.931 328.169,259.13 328.732,259.276 329.315,259.366 329.914,259.396 329.914,259.387 329.916,259.387 343.954,259.387 343.954,253.501 343.954,253.5 343.962,253.5 344.014,252.44 344.166,251.411 344.413,250.418 344.75,249.468 345.174,248.564 345.679,247.712 346.261,246.917 346.916,246.184 346.916,246.184 347.64,245.515 348.427,244.919 349.272,244.4 350.171,243.965 351.118,243.618 352.109,243.363 353.14,243.207 354.206,243.153 354.206,243.144 354.207,243.144 354.208,243.144 354.208,243.153 355.275,243.207 356.31,243.365 357.309,243.62 358.266,243.97 359.176,244.407 360.034,244.928 360.834,245.525 361.572,246.196 361.572,246.196 362.242,246.933 362.84,247.734 363.36,248.591 363.797,249.501 364.146,250.458 364.402,251.457 364.56,252.492 364.614,253.558 364.623,253.558 364.623,253.56 360.094,253.56 360.094,253.558 360.103,253.558 360.073,252.959 359.983,252.376 359.837,251.813 359.638,251.272 359.389,250.758 359.092,250.272 358.752,249.817 358.37,249.398 358.37,249.398 357.95,249.016 357.496,248.675 357.01,248.379 356.495,248.129 355.954,247.93 355.391,247.784 354.808,247.695 354.208,247.664 354.208,247.673 354.207,247.673 354.206,247.673 354.206,247.664 353.61,247.694 353.033,247.781 352.479,247.922 351.95,248.116 351.448,248.358 350.976,248.646 350.538,248.978 350.135,249.35 350.135,249.35 349.767,249.763 349.439,250.212 349.155,250.694 348.916,251.206 348.726,251.746 348.587,252.31 348.502,252.896 348.473,253.5 348.482,253.5 348.482,253.501 348.482,261.652 348.482,263.916 346.218,263.916 329.916,263.916 329.914,263.916 329.914,263.907 328.848,263.853 327.813,263.696 326.815,263.44 325.858,263.091 324.948,262.653 324.09,262.133 323.29,261.535 322.552,260.865 322.552,260.865 321.882,260.127 321.284,259.327 320.763,258.469 320.326,257.559 319.977,256.602 319.721,255.603 319.563,254.568 319.51,253.501 319.5,253.501 319.5,253.501 319.5,253.499 319.51,253.499 319.563,252.433 319.721,251.398 319.977,250.399 320.326,249.443 320.763,248.533 321.284,247.675 321.881,246.875 322.551,246.137 322.551,246.137 323.289,245.466 324.09,244.869 324.947,244.348 325.858,243.911 326.815,243.562 327.813,243.305 328.849,243.148 329.915,243.094 329.915,243.086 329.916,243.086 329.917,243.086 329.917,243.094 330.983,243.148 332.019,243.306 333.017,243.562 333.974,243.911 334.884,244.348 335.742,244.868 336.542,245.466 337.28,246.136 337.28,246.136 337.95,246.874 338.548,247.674 339.068,248.532 339.506,249.443 339.855,250.399 340.111,251.398 340.268,252.433 340.322,253.5 340.331,253.5 340.331,253.501 340.331,255.743 338.076,255.756 328.132,255.815" fill="none" stroke="black" stroke-width="0.1"/>
        <polygon id="_new_36_1" points="401.634,251.245 408.886,251.202 408.767,250.934 408.635,250.673 408.491,250.42 408.335,250.174 408.167,249.937 407.988,249.709 407.798,249.489 407.598,249.279 407.598,249.279 407.178,248.897 406.724,248.557 406.238,248.26 405.723,248.011 405.183,247.812 404.62,247.666 404.037,247.576 403.437,247.546 403.437,247.555 403.436,247.555 403.435,247.555 403.435,247.546 402.835,247.576 402.252,247.666 401.689,247.812 401.149,248.011 400.634,248.26 400.148,248.557 399.693,248.897 399.273,249.279 399.273,249.279 398.891,249.699 398.551,250.153 398.255,250.639 398.005,251.154 397.806,251.695 397.661,252.258 397.571,252.84 397.54,253.44 397.549,253.44 397.549,253.441 397.549,253.442 397.54,253.442 397.571,254.042 397.661,254.625 397.806,255.188 398.005,255.729 398.255,256.244 398.551,256.73 398.892,257.184 399.274,257.604 399.274,257.604 399.693,257.986 400.148,258.326 400.634,258.623 401.149,258.872 401.689,259.071 402.252,259.217 402.835,259.307 403.435,259.337 403.435,259.328 403.436,259.328 403.436,259.337 417.492,259.388 417.492,253.5 417.492,253.5 417.501,253.5 417.553,252.441 417.703,251.412 417.948,250.418 418.284,249.465 418.705,248.558 419.207,247.702 419.785,246.901 420.436,246.163 420.436,246.163 421.158,245.487 421.944,244.884 422.788,244.359 423.686,243.918 424.633,243.565 425.625,243.307 426.658,243.148 427.726,243.094 427.726,243.085 427.728,243.085 427.728,243.085 427.728,243.094 428.795,243.148 429.83,243.305 430.829,243.561 431.786,243.911 432.696,244.348 433.554,244.868 434.354,245.466 435.092,246.137 435.092,246.137 435.762,246.874 436.36,247.674 436.88,248.532 437.317,249.442 437.667,250.399 437.923,251.398 438.08,252.433 438.134,253.499 438.143,253.499 438.143,253.5 433.614,253.5 433.614,253.499 433.623,253.499 433.593,252.899 433.503,252.317 433.357,251.753 433.158,251.213 432.909,250.698 432.613,250.212 432.272,249.758 431.89,249.338 431.89,249.338 431.47,248.956 431.016,248.616 430.53,248.319 430.015,248.07 429.474,247.871 428.911,247.725 428.328,247.635 427.728,247.605 427.728,247.614 427.728,247.614 427.726,247.614 427.726,247.605 427.132,247.635 426.558,247.723 426.007,247.867 425.48,248.063 424.981,248.308 424.512,248.6 424.075,248.935 423.673,249.311 423.673,249.311 423.305,249.73 422.977,250.185 422.693,250.672 422.455,251.19 422.265,251.734 422.126,252.303 422.041,252.892 422.012,253.5 422.021,253.5 422.021,253.5 422.021,261.651 422.021,263.915 419.757,263.907 403.436,263.848 403.436,263.857 403.435,263.857 403.435,263.848 402.368,263.794 401.333,263.637 400.334,263.38 399.378,263.031 398.468,262.594 397.61,262.074 396.81,261.476 396.072,260.806 396.072,260.806 395.402,260.068 394.804,259.268 394.284,258.41 393.846,257.5 393.497,256.543 393.241,255.544 393.083,254.509 393.03,253.442 393.021,253.442 393.021,253.441 393.021,253.44 393.03,253.44 393.083,252.374 393.241,251.339 393.497,250.34 393.846,249.383 394.284,248.473 394.804,247.615 395.401,246.815 396.071,246.077 396.071,246.077 396.809,245.407 397.61,244.809 398.468,244.289 399.378,243.852 400.335,243.502 401.333,243.246 402.369,243.089 403.435,243.035 403.435,243.026 403.436,243.026 403.437,243.026 403.437,243.035 404.504,243.089 405.539,243.246 406.537,243.502 407.494,243.852 408.404,244.289 409.262,244.809 410.062,245.407 410.8,246.077 410.8,246.077 411.47,246.815 412.068,247.615 412.588,248.473 413.026,249.383 413.375,250.34 413.631,251.339 413.789,252.374 413.842,253.441 413.851,253.441 413.851,253.441 413.851,255.683 411.596,255.697 401.652,255.756" fill="none" stroke="black" stroke-width="0.1"/>
        <polygon id="center_00" cx="254.274" cy="253.5" points="266.1952,253.5 266.12989441906427,254.74610471630635 265.93469317786787,255.97855684857666 265.6117349420578,257.18385339334264 265.16455810964897,258.3487888694352 264.59806204359506,259.4606 263.91845339334265,260.50710554962905 263.1331780934811,261.4768397845252 262.2508397845252,262.3591780934811 261.28110554962905,263.14445339334264 260.2346,263.82406204359506 259.1227888694352,264.39055810964896 257.95785339334265,264.8377349420578 256.75255684857666,265.16069317786787 255.52010471630635,265.35589441906427 254.274,265.4212 253.02789528369365,265.35589441906427 251.79544315142334,265.16069317786787 250.59014660665738,264.8377349420578 249.42521113056478,264.39055810964896 248.3134,263.82406204359506 247.26689445037098,263.14445339334264 246.29716021547478,262.3591780934811 245.41482190651888,261.4768397845252 244.62954660665739,260.50710554962905 243.94993795640494,259.4606 243.38344189035104,258.3487888694352 242.93626505794222,257.18385339334264 242.61330682213216,255.9785568485767 242.41810558093573,254.74610471630635 242.3528,253.5 242.41810558093573,252.25389528369365 242.61330682213216,251.02144315142334 242.93626505794222,249.81614660665738 243.38344189035104,248.65121113056477 243.94993795640494,247.5394 244.62954660665739,246.49289445037098 245.41482190651888,245.52316021547477 246.29716021547478,244.64082190651888 247.26689445037096,243.85554660665738 248.3134,243.17593795640494 249.42521113056478,242.60944189035104 250.59014660665738,242.16226505794222 251.7954431514233,241.83930682213216 253.02789528369365,241.64410558093573 254.274,241.5788 255.52010471630635,241.64410558093573 256.75255684857666,241.83930682213216 257.95785339334265,242.16226505794222 259.1227888694352,242.60944189035104 260.2346,243.17593795640494 261.28110554962905,243.85554660665738 262.2508397845252,244.64082190651888 263.1331780934811,245.52316021547477 263.91845339334265,246.49289445037095 264.59806204359506,247.5394 265.16455810964897,248.65121113056477 265.6117349420578,249.81614660665738 265.93469317786787,251.0214431514233 266.12989441906427,252.25389528369365" fill="none" stroke="black" stroke-width="0.1"/>
    </g>
</svg>
