<!DOCTYPE svg PUBLIC "-//W3C//DTD SVG 1.1//EN" "http://www.w3.org/Graphics/SVG/1.1/DTD/svg11.dtd">
<svg xmlns="http://www.w3.org/2000/svg" width="297mm" height="210mm" viewBox="0 0 297 210">
    <defs id="_tag_102_"/>
    <g id="trashNode_001"/>
    <g id="_tag_103_">
        <polygon id="_new_32_2" points="216.366,260.859 216.774,260.859 217.464,260.789 218.134,260.655 218.781,260.461 219.402,260.211 219.995,259.908 220.556,259.553 221.082,259.151 221.57,258.704 221.57,258.704 222.047,258.179 222.473,257.611 222.843,257.004 223.155,256.36 223.404,255.684 223.586,254.98 223.698,254.251 223.736,253.502 223.725,253.502 223.725,253.501 223.725,253.499 223.736,253.499 223.698,252.75 223.586,252.021 223.404,251.317 223.155,250.642 222.843,249.998 222.473,249.391 222.047,248.823 221.57,248.298 221.57,248.298 221.045,247.821 220.477,247.395 219.869,247.024 219.226,246.713 218.55,246.464 217.846,246.282 217.117,246.169 216.367,246.131 216.367,246.142 216.367,246.142 216.365,246.142 216.365,246.131 215.616,246.169 214.887,246.282 214.183,246.464 213.507,246.713 212.864,247.024 212.257,247.395 211.689,247.82 211.164,248.298 211.164,248.298 210.687,248.822 210.261,249.39 209.89,249.998 209.579,250.642 209.33,251.317 209.147,252.022 209.035,252.75 208.997,253.5 209.008,253.5 209.008,253.501 209.008,253.503 208.997,253.503 209.035,254.252 209.147,254.981 209.33,255.684 209.578,256.36 209.89,257.003 210.26,257.611 210.686,258.179 211.163,258.704 211.163,258.704 211.652,259.151 212.178,259.553 212.738,259.907 213.331,260.211 213.953,260.461 214.6,260.655 215.27,260.789 215.96,260.859 216.366,260.859 216.367,266.52 175.612,266.52 172.781,266.52 172.781,263.69 172.781,253.501 172.781,253.5 172.792,253.5 172.86,252.167 173.056,250.873 173.376,249.624 173.813,248.428 174.36,247.29 175.01,246.218 175.757,245.217 176.595,244.295 176.595,244.295 177.518,243.458 178.518,242.711 179.59,242.06 180.728,241.514 181.924,241.077 183.172,240.757 184.466,240.56 185.799,240.493 185.799,240.482 185.801,240.482 185.801,240.482 185.801,240.493 187.134,240.56 188.428,240.757 189.677,241.077 190.873,241.513 192.011,242.06 193.083,242.711 194.084,243.458 195.006,244.296 195.006,244.296 195.844,245.218 196.591,246.218 197.241,247.291 197.787,248.428 198.224,249.624 198.544,250.872 198.741,252.166 198.808,253.499 198.819,253.499 198.819,253.501 193.159,253.501 193.159,253.499 193.17,253.499 193.132,252.75 193.02,252.021 192.837,251.317 192.589,250.642 192.277,249.998 191.907,249.391 191.481,248.823 191.004,248.298 191.004,248.298 190.479,247.821 189.911,247.395 189.303,247.024 188.659,246.713 187.984,246.464 187.28,246.282 186.551,246.169 185.801,246.131 185.801,246.142 185.801,246.142 185.799,246.142 185.799,246.131 185.049,246.169 184.321,246.282 183.617,246.464 182.941,246.713 182.298,247.024 181.69,247.394 181.122,247.82 180.598,248.298 180.598,248.298 180.12,248.822 179.694,249.39 179.324,249.998 179.012,250.642 178.763,251.317 178.581,252.022 178.469,252.75 178.431,253.5 178.442,253.5 178.442,253.501 178.442,260.859 205.629,260.859 205.12,260.055 204.67,259.213 204.281,258.334 203.957,257.423 203.7,256.481 203.512,255.512 203.398,254.518 203.359,253.503 203.348,253.503 203.348,253.501 203.348,253.5 203.359,253.5 203.426,252.167 203.623,250.873 203.943,249.624 204.379,248.428 204.926,247.29 205.577,246.218 206.324,245.217 207.162,244.295 207.162,244.295 208.084,243.458 209.084,242.711 210.156,242.06 211.294,241.514 212.49,241.077 213.738,240.757 215.032,240.56 216.365,240.493 216.365,240.482 216.367,240.482 216.367,240.482 216.367,240.493 217.701,240.56 218.995,240.757 220.243,241.077 221.44,241.513 222.577,242.06 223.649,242.711 224.65,243.458 225.572,244.296 225.572,244.296 226.41,245.218 227.157,246.218 227.807,247.291 228.354,248.428 228.79,249.624 229.111,250.872 229.307,252.166 229.375,253.499 229.386,253.499 229.386,253.501 229.386,253.502 229.375,253.502 229.336,254.517 229.221,255.511 229.034,256.48 228.777,257.422 228.452,258.334 228.064,259.212 227.614,260.055 227.105,260.859 253.16,260.859 253.161,260.859 253.161,260.87 253.39,260.858 253.613,260.824 253.828,260.767 254.036,260.689 254.234,260.592 254.421,260.477 254.597,260.345 254.76,260.196 254.76,260.196 254.909,260.033 255.041,259.857 255.157,259.67 255.254,259.471 255.331,259.264 255.388,259.048 255.423,258.825 255.435,258.596 255.424,258.596 255.424,258.595 255.424,258.594 255.435,258.594 255.423,258.365 255.388,258.142 255.331,257.926 255.254,257.719 255.157,257.521 255.042,257.333 254.909,257.157 254.761,256.994 254.761,256.983 254.6,256.837 254.426,256.707 254.239,256.593 254.041,256.498 253.833,256.422 253.616,256.366 253.392,256.332 253.16,256.32 253.16,256.331 253.16,256.331 241.839,256.331 241.837,256.331 241.837,256.32 241.025,256.279 240.237,256.159 239.477,255.965 238.749,255.7 238.057,255.367 237.404,254.972 236.796,254.519 236.236,254.01 236.241,254.004 235.731,253.442 235.276,252.832 234.88,252.18 234.547,251.488 234.281,250.76 234.086,250.002 233.966,249.216 233.925,248.407 233.914,248.407 233.914,248.406 233.914,248.405 233.925,248.405 233.966,247.593 234.086,246.805 234.28,246.044 234.546,245.316 234.878,244.624 235.273,243.972 235.726,243.364 236.235,242.803 236.241,242.809 236.803,242.299 237.413,241.844 238.066,241.448 238.757,241.115 239.485,240.849 240.243,240.654 241.029,240.534 241.838,240.493 241.838,240.482 241.839,240.482 261.127,240.482 261.127,246.142 241.839,246.142 241.838,246.142 241.838,246.131 241.607,246.143 241.382,246.177 241.165,246.233 240.957,246.309 240.759,246.405 240.572,246.518 240.398,246.649 240.238,246.795 240.238,246.806 240.089,246.969 239.957,247.144 239.841,247.332 239.744,247.53 239.667,247.738 239.61,247.953 239.575,248.176 239.563,248.405 239.574,248.405 239.574,248.406 239.574,248.407 239.563,248.407 239.575,248.638 239.61,248.863 239.665,249.08 239.742,249.288 239.837,249.486 239.95,249.673 240.081,249.847 240.227,250.007 240.238,250.007 240.401,250.156 240.577,250.288 240.764,250.404 240.962,250.501 241.17,250.578 241.386,250.635 241.608,250.67 241.837,250.682 241.837,250.671 241.839,250.671 253.16,250.671 253.16,250.671 253.16,250.682 253.969,250.723 254.755,250.843 255.513,251.037 256.24,251.303 256.933,251.636 257.585,252.032 258.195,252.487 258.757,252.998 258.763,252.992 259.272,253.553 259.726,254.161 260.12,254.813 260.453,255.505 260.718,256.233 260.912,256.993 261.032,257.781 261.073,258.594 261.084,258.594 261.084,258.595 261.084,258.596 261.073,258.596 261.032,259.408 260.913,260.197 260.718,260.957 260.453,261.685 260.12,262.378 259.725,263.03 259.272,263.638 258.762,264.199 258.762,264.199 258.202,264.707 257.594,265.161 256.942,265.556 256.25,265.888 255.522,266.154 254.762,266.348 253.973,266.468 253.161,266.509 253.161,266.52 253.16,266.52 216.367,266.52" fill="none" stroke="black" stroke-width="0.1"/>
        <polygon id="_new_33_1" points="275.247,250.756 284.312,250.702 284.164,250.368 283.999,250.041 283.818,249.725 283.623,249.418 283.413,249.121 283.189,248.835 282.952,248.561 282.702,248.298 282.702,248.298 282.177,247.821 281.609,247.395 281.002,247.025 280.358,246.714 279.683,246.465 278.979,246.283 278.25,246.17 277.501,246.132 277.501,246.143 277.499,246.143 277.498,246.143 277.498,246.132 276.748,246.17 276.02,246.282 275.315,246.465 274.64,246.714 273.996,247.025 273.389,247.396 272.82,247.821 272.296,248.299 272.296,248.299 271.818,248.824 271.393,249.392 271.022,249.999 270.711,250.643 270.462,251.318 270.28,252.022 270.168,252.75 270.129,253.5 270.141,253.5 270.141,253.502 270.141,253.502 270.129,253.502 270.168,254.252 270.28,254.981 270.462,255.685 270.711,256.361 271.022,257.004 271.393,257.612 271.819,258.18 272.296,258.705 272.296,258.705 272.821,259.182 273.389,259.608 273.996,259.978 274.64,260.29 275.315,260.539 276.019,260.721 276.748,260.833 277.497,260.871 277.497,260.86 277.499,260.86 295.046,260.86 295.046,253.502 295.046,253.501 295.057,253.501 295.121,252.177 295.31,250.891 295.616,249.649 296.035,248.458 296.562,247.324 297.19,246.253 297.913,245.253 298.726,244.329 298.726,244.329 299.628,243.484 300.61,242.731 301.666,242.075 302.788,241.523 303.972,241.083 305.213,240.76 306.503,240.562 307.839,240.494 307.839,240.483 307.84,240.483 307.841,240.483 307.841,240.494 309.167,240.56 310.461,240.756 311.715,241.074 312.921,241.508 314.072,242.052 315.162,242.699 316.182,243.442 317.125,244.275 317.125,244.275 317.99,245.197 318.764,246.199 319.438,247.273 320.007,248.413 320.462,249.612 320.797,250.864 321.003,252.162 321.073,253.5 321.084,253.5 321.084,253.502 321.084,260.86 338.632,260.86 338.632,260.86 338.632,260.871 339.382,260.833 340.111,260.721 340.815,260.539 341.491,260.29 342.134,259.978 342.742,259.608 343.31,259.182 343.835,258.704 343.835,258.704 344.312,258.18 344.738,257.612 345.108,257.004 345.42,256.361 345.668,255.685 345.851,254.981 345.963,254.253 346.001,253.503 345.99,253.503 345.99,253.502 345.99,253.501 346.001,253.501 345.963,252.751 345.851,252.022 345.668,251.318 345.42,250.643 345.108,249.999 344.738,249.391 344.312,248.823 343.834,248.298 343.834,248.298 343.31,247.821 342.742,247.395 342.134,247.025 341.491,246.714 340.815,246.465 340.111,246.283 339.383,246.17 338.633,246.132 338.633,246.143 338.632,246.143 338.631,246.143 338.631,246.132 337.881,246.17 337.152,246.282 336.448,246.465 335.772,246.714 335.129,247.025 334.521,247.396 333.953,247.821 333.428,248.299 333.428,248.299 332.982,248.787 332.579,249.313 332.225,249.874 331.921,250.466 331.671,251.088 331.478,251.735 331.344,252.405 331.273,253.095 331.273,253.5 331.273,253.502 331.273,256.898 325.613,256.898 325.613,253.502 325.613,253.5 325.613,236.521 331.273,236.521 331.273,242.763 332.077,242.255 332.92,241.805 333.798,241.416 334.71,241.092 335.652,240.835 336.622,240.647 337.616,240.533 338.631,240.494 338.631,240.483 338.632,240.483 338.633,240.483 338.633,240.494 339.966,240.561 341.26,240.758 342.508,241.078 343.705,241.514 344.842,242.061 345.914,242.711 346.914,243.458 347.837,244.296 347.837,244.296 348.675,245.218 349.422,246.219 350.072,247.291 350.619,248.429 351.056,249.625 351.375,250.874 351.572,252.168 351.639,253.501 351.651,253.501 351.651,253.502 351.651,253.503 351.639,253.503 351.572,254.836 351.375,256.13 351.055,257.378 350.619,258.574 350.072,259.712 349.422,260.784 348.675,261.784 347.837,262.707 347.837,262.707 346.915,263.544 345.914,264.292 344.842,264.942 343.704,265.489 342.508,265.926 341.26,266.246 339.966,266.442 338.632,266.51 338.632,266.521 338.632,266.521 318.254,266.521 315.424,266.521 315.424,263.69 315.424,253.502 315.424,253.5 315.435,253.5 315.395,252.755 315.278,252.031 315.087,251.331 314.829,250.658 314.505,250.017 314.121,249.411 313.681,248.845 313.189,248.321 313.189,248.321 312.644,247.839 312.054,247.408 311.426,247.034 310.762,246.72 310.067,246.468 309.346,246.284 308.603,246.171 307.841,246.132 307.841,246.143 307.84,246.143 307.839,246.143 307.839,246.132 307.096,246.17 306.379,246.28 305.689,246.46 305.031,246.705 304.407,247.011 303.82,247.376 303.274,247.795 302.772,248.265 302.772,248.265 302.312,248.789 301.902,249.357 301.547,249.966 301.249,250.613 301.012,251.294 300.838,252.004 300.732,252.741 300.695,253.501 300.707,253.501 300.707,253.502 300.707,263.69 300.707,266.521 297.876,266.521 277.499,266.521 277.497,266.521 277.497,266.51 276.164,266.442 274.87,266.245 273.622,265.925 272.426,265.489 271.289,264.942 270.217,264.292 269.216,263.545 268.294,262.707 268.294,262.707 267.456,261.785 266.709,260.784 266.058,259.712 265.512,258.574 265.075,257.378 264.755,256.13 264.558,254.836 264.491,253.502 264.48,253.502 264.48,253.502 264.48,253.5 264.491,253.5 264.558,252.167 264.755,250.873 265.075,249.625 265.512,248.429 266.059,247.291 266.709,246.219 267.456,245.219 268.293,244.297 268.293,244.297 269.216,243.459 270.216,242.711 271.289,242.061 272.426,241.514 273.622,241.078 274.871,240.758 276.165,240.561 277.498,240.494 277.498,240.483 277.499,240.483 277.501,240.483 277.501,240.494 278.834,240.561 280.128,240.758 281.376,241.078 282.572,241.514 283.709,242.061 284.781,242.711 285.782,243.458 286.704,244.296 286.704,244.296 287.542,245.218 288.289,246.219 288.94,247.291 289.486,248.429 289.923,249.625 290.243,250.874 290.44,252.168 290.507,253.501 290.518,253.501 290.518,253.502 290.518,256.304 287.699,256.321 275.269,256.394" fill="none" stroke="black" stroke-width="0.1"/>
        <polygon id="_new_34_1" points="417.313,253.501 417.313,253.501 417.324,253.501 417.388,252.177 417.576,250.891 417.882,249.649 418.302,248.458 418.828,247.324 419.456,246.253 420.179,245.253 420.992,244.329 420.992,244.329 421.894,243.484 422.876,242.73 423.931,242.074 425.054,241.523 426.238,241.082 427.479,240.759 428.769,240.561 430.104,240.493 430.104,240.482 430.106,240.482 430.107,240.482 430.107,240.493 431.44,240.56 432.734,240.757 433.983,241.077 435.179,241.513 436.316,242.06 437.389,242.711 438.389,243.458 439.312,244.296 439.312,244.296 440.149,245.218 440.896,246.218 441.547,247.291 442.093,248.428 442.53,249.624 442.85,250.872 443.047,252.166 443.114,253.499 443.125,253.499 443.125,253.501 443.125,253.501 443.114,253.501 443.047,254.835 442.85,256.129 442.53,257.377 442.093,258.574 441.547,259.711 440.896,260.783 440.149,261.784 439.311,262.706 439.311,262.706 438.389,263.544 437.388,264.291 436.316,264.941 435.179,265.488 433.983,265.925 432.735,266.245 431.441,266.442 430.108,266.509 430.108,266.52 430.106,266.52 430.106,266.509 399.765,266.51 399.765,260.871 430.106,260.87 430.106,260.859 430.108,260.859 430.108,260.87 430.857,260.832 431.586,260.72 432.29,260.538 432.965,260.289 433.609,259.978 434.216,259.607 434.784,259.181 435.309,258.704 435.309,258.704 435.786,258.179 436.212,257.611 436.582,257.003 436.894,256.36 437.143,255.684 437.325,254.98 437.437,254.251 437.476,253.501 437.465,253.501 437.465,253.501 437.465,253.499 437.476,253.499 437.437,252.75 437.325,252.021 437.143,251.317 436.894,250.642 436.583,249.998 436.212,249.391 435.787,248.823 435.309,248.298 435.309,248.298 434.784,247.821 434.216,247.395 433.609,247.024 432.965,246.713 432.289,246.464 431.585,246.282 430.856,246.169 430.107,246.131 430.107,246.142 430.106,246.142 430.104,246.142 430.104,246.131 429.362,246.169 428.645,246.279 427.955,246.459 427.297,246.704 426.673,247.011 426.086,247.375 425.54,247.795 425.038,248.265 425.038,248.265 424.578,248.788 424.169,249.356 423.813,249.966 423.515,250.613 423.278,251.294 423.105,252.004 422.998,252.741 422.962,253.501 422.973,253.501 422.973,253.501" fill="none" stroke="black" stroke-width="0.1"/>
        <polygon id="_new_35_1" points="366.947,250.756 376.012,250.702 375.864,250.368 375.699,250.042 375.519,249.725 375.323,249.418 375.114,249.121 374.89,248.836 374.653,248.561 374.402,248.298 374.402,248.298 373.878,247.821 373.31,247.395 372.702,247.025 372.059,246.714 371.383,246.465 370.679,246.283 369.951,246.17 369.201,246.132 369.201,246.143 369.2,246.143 369.199,246.143 369.199,246.132 368.449,246.17 367.72,246.282 367.016,246.465 366.34,246.714 365.697,247.025 365.089,247.396 364.521,247.821 363.996,248.299 363.996,248.299 363.519,248.824 363.093,249.392 362.723,249.999 362.411,250.643 362.163,251.318 361.98,252.022 361.868,252.75 361.83,253.5 361.841,253.5 361.841,253.502 361.841,253.502 361.83,253.502 361.868,254.252 361.98,254.981 362.163,255.685 362.411,256.361 362.723,257.004 363.093,257.612 363.519,258.18 363.997,258.705 363.997,258.705 364.521,259.182 365.089,259.608 365.697,259.978 366.34,260.29 367.016,260.539 367.72,260.721 368.448,260.833 369.198,260.871 369.198,260.86 369.2,260.86 386.747,260.86 386.747,253.502 386.747,253.501 386.758,253.501 386.822,252.175 387.012,250.889 387.321,249.649 387.743,248.461 388.273,247.331 388.904,246.266 389.631,245.272 390.449,244.355 390.449,244.355 391.354,243.519 392.338,242.774 393.394,242.126 394.518,241.582 395.702,241.148 396.941,240.83 398.23,240.634 399.562,240.568 399.562,240.556 399.564,240.556 399.565,240.556 399.565,240.568 400.898,240.635 402.192,240.831 403.441,241.151 404.637,241.588 405.774,242.135 406.847,242.785 407.847,243.533 408.77,244.37 408.77,244.37 409.607,245.292 410.354,246.293 411.005,247.365 411.551,248.503 411.988,249.699 412.308,250.947 412.505,252.241 412.572,253.574 412.583,253.574 412.583,253.575 406.923,253.575 406.923,253.574 406.934,253.574 406.895,252.824 406.783,252.096 406.601,251.392 406.352,250.716 406.041,250.073 405.67,249.465 405.245,248.897 404.767,248.373 404.767,248.373 404.243,247.895 403.675,247.469 403.067,247.099 402.423,246.787 401.748,246.538 401.043,246.356 400.315,246.244 399.565,246.206 399.565,246.217 399.564,246.217 399.562,246.217 399.562,246.206 398.817,246.243 398.096,246.352 397.403,246.529 396.742,246.77 396.115,247.073 395.525,247.433 394.977,247.848 394.473,248.313 394.473,248.313 394.013,248.829 393.604,249.391 393.248,249.993 392.95,250.634 392.713,251.308 392.539,252.013 392.432,252.745 392.396,253.501 392.407,253.501 392.407,253.502 392.407,263.69 392.407,266.521 389.577,266.521 369.2,266.521 369.198,266.521 369.198,266.51 367.865,266.442 366.571,266.245 365.323,265.925 364.127,265.489 362.989,264.942 361.917,264.292 360.917,263.545 359.995,262.707 359.995,262.707 359.157,261.785 358.409,260.784 357.759,259.712 357.212,258.574 356.775,257.378 356.456,256.13 356.259,254.836 356.192,253.502 356.18,253.502 356.18,253.502 356.18,253.5 356.192,253.5 356.259,252.167 356.456,250.873 356.776,249.625 357.212,248.429 357.759,247.291 358.409,246.219 359.156,245.219 359.994,244.297 359.994,244.297 360.916,243.459 361.917,242.711 362.989,242.061 364.127,241.514 365.323,241.078 366.572,240.758 367.866,240.561 369.199,240.494 369.199,240.483 369.2,240.483 369.201,240.483 369.201,240.494 370.534,240.561 371.828,240.758 373.076,241.078 374.272,241.514 375.41,242.061 376.482,242.711 377.482,243.458 378.404,244.296 378.404,244.296 379.242,245.218 379.99,246.219 380.64,247.291 381.187,248.429 381.623,249.625 381.943,250.874 382.14,252.168 382.207,253.501 382.218,253.501 382.218,253.502 382.218,256.304 379.399,256.321 366.97,256.394" fill="none" stroke="black" stroke-width="0.1"/>
        <polygon id="_new_36_1" points="458.848,250.682 467.913,250.628 467.764,250.293 467.599,249.968 467.419,249.651 467.224,249.344 467.014,249.047 466.79,248.761 466.553,248.487 466.302,248.224 466.302,248.224 465.778,247.747 465.21,247.321 464.602,246.951 463.959,246.639 463.283,246.391 462.579,246.208 461.851,246.096 461.101,246.058 461.101,246.069 461.1,246.069 461.099,246.069 461.099,246.058 460.349,246.096 459.62,246.208 458.916,246.391 458.24,246.64 457.597,246.951 456.989,247.322 456.421,247.747 455.896,248.225 455.896,248.225 455.419,248.75 454.993,249.317 454.623,249.925 454.311,250.568 454.063,251.244 453.88,251.948 453.768,252.676 453.73,253.426 453.741,253.426 453.741,253.428 453.741,253.428 453.73,253.428 453.768,254.178 453.88,254.907 454.063,255.611 454.311,256.287 454.623,256.93 454.994,257.538 455.419,258.106 455.897,258.631 455.897,258.631 456.422,259.108 456.99,259.534 457.597,259.904 458.24,260.216 458.916,260.464 459.62,260.647 460.348,260.759 461.098,260.797 461.098,260.786 461.1,260.786 461.1,260.797 478.67,260.861 478.67,253.501 478.67,253.5 478.681,253.5 478.745,252.177 478.933,250.891 479.24,249.649 479.659,248.458 480.186,247.323 480.813,246.253 481.537,245.253 482.35,244.329 482.35,244.329 483.253,243.484 484.234,242.73 485.289,242.074 486.412,241.523 487.596,241.083 488.837,240.76 490.127,240.561 491.462,240.493 491.462,240.482 491.464,240.482 491.465,240.482 491.465,240.493 492.798,240.56 494.092,240.757 495.341,241.077 496.537,241.514 497.675,242.061 498.747,242.711 499.747,243.458 500.669,244.296 500.669,244.296 501.507,245.219 502.254,246.219 502.905,247.291 503.451,248.428 503.888,249.625 504.208,250.873 504.405,252.167 504.472,253.5 504.483,253.5 504.483,253.501 498.823,253.501 498.823,253.5 498.834,253.5 498.796,252.75 498.683,252.022 498.501,251.318 498.252,250.642 497.941,249.999 497.57,249.391 497.145,248.823 496.668,248.298 496.668,248.298 496.143,247.821 495.575,247.395 494.967,247.025 494.323,246.713 493.648,246.464 492.943,246.282 492.215,246.17 491.465,246.132 491.465,246.143 491.464,246.143 491.462,246.143 491.462,246.132 490.72,246.169 490.003,246.28 489.313,246.459 488.655,246.704 488.031,247.011 487.444,247.376 486.898,247.795 486.396,248.265 486.396,248.265 485.936,248.788 485.526,249.356 485.171,249.966 484.873,250.613 484.636,251.293 484.462,252.004 484.356,252.741 484.319,253.5 484.331,253.5 484.331,253.501 484.331,263.69 484.331,266.519 481.5,266.509 461.1,266.435 461.1,266.447 461.098,266.447 461.098,266.435 459.765,266.368 458.471,266.171 457.223,265.851 456.027,265.415 454.889,264.868 453.817,264.218 452.817,263.471 451.895,262.633 451.895,262.633 451.057,261.711 450.309,260.71 449.659,259.638 449.112,258.5 448.676,257.304 448.356,256.056 448.159,254.762 448.092,253.428 448.081,253.428 448.081,253.428 448.081,253.426 448.092,253.426 448.159,252.093 448.356,250.799 448.676,249.551 449.112,248.355 449.659,247.217 450.309,246.145 451.056,245.145 451.894,244.223 451.894,244.223 452.816,243.385 453.817,242.637 454.889,241.987 456.027,241.44 457.223,241.004 458.471,240.684 459.765,240.487 461.099,240.42 461.099,240.409 461.1,240.409 461.101,240.409 461.101,240.42 462.434,240.487 463.728,240.684 464.976,241.004 466.173,241.44 467.31,241.987 468.382,242.637 469.382,243.385 470.305,244.222 470.305,244.222 471.143,245.144 471.89,246.145 472.54,247.217 473.087,248.355 473.524,249.551 473.844,250.799 474.04,252.094 474.108,253.427 474.119,253.427 474.119,253.428 474.119,256.23 471.299,256.247 458.87,256.32" fill="none" stroke="black" stroke-width="0.1"/>
        <polygon id="center_00" cx="254.274" cy="253.5" points="266.1952,253.5 266.12989441906427,254.74610471630635 265.93469317786787,255.97855684857666 265.6117349420578,257.18385339334264 265.16455810964897,258.3487888694352 264.59806204359506,259.4606 263.91845339334265,260.50710554962905 263.1331780934811,261.4768397845252 262.2508397845252,262.3591780934811 261.28110554962905,263.14445339334264 260.2346,263.82406204359506 259.1227888694352,264.39055810964896 257.95785339334265,264.8377349420578 256.75255684857666,265.16069317786787 255.52010471630635,265.35589441906427 254.274,265.4212 253.02789528369365,265.35589441906427 251.79544315142334,265.16069317786787 250.59014660665738,264.8377349420578 249.42521113056478,264.39055810964896 248.3134,263.82406204359506 247.26689445037098,263.14445339334264 246.29716021547478,262.3591780934811 245.41482190651888,261.4768397845252 244.62954660665739,260.50710554962905 243.94993795640494,259.4606 243.38344189035104,258.3487888694352 242.93626505794222,257.18385339334264 242.61330682213216,255.9785568485767 242.41810558093573,254.74610471630635 242.3528,253.5 242.41810558093573,252.25389528369365 242.61330682213216,251.02144315142334 242.93626505794222,249.81614660665738 243.38344189035104,248.65121113056477 243.94993795640494,247.5394 244.62954660665739,246.49289445037098 245.41482190651888,245.52316021547477 246.29716021547478,244.64082190651888 247.26689445037096,243.85554660665738 248.3134,243.17593795640494 249.42521113056478,242.60944189035104 250.59014660665738,242.16226505794222 251.7954431514233,241.83930682213216 253.02789528369365,241.64410558093573 254.274,241.5788 255.52010471630635,241.64410558093573 256.75255684857666,241.83930682213216 257.95785339334265,242.16226505794222 259.1227888694352,242.60944189035104 260.2346,243.17593795640494 261.28110554962905,243.85554660665738 262.2508397845252,244.64082190651888 263.1331780934811,245.52316021547477 263.91845339334265,246.49289445037095 264.59806204359506,247.5394 265.16455810964897,248.65121113056477 265.6117349420578,249.81614660665738 265.93469317786787,251.0214431514233 266.12989441906427,252.25389528369365" fill="none" stroke="black" stroke-width="0.1"/>
    </g>
</svg>
