<!DOCTYPE svg PUBLIC "-//W3C//DTD SVG 1.1//EN" "http://www.w3.org/Graphics/SVG/1.1/DTD/svg11.dtd">
<svg xmlns="http://www.w3.org/2000/svg" width="297mm" height="210mm" viewBox="0 0 297 210">
    <defs id="_tag_108_"/>
    <g id="trashNode_001"/>
    <g id="_tag_109_">
        <polygon id="_new_32_2" points="219.224,262.061 219.659,262.061 220.395,261.986 221.11,261.843 221.8,261.637 222.463,261.37 223.095,261.046 223.693,260.668 224.254,260.239 224.774,259.762 224.774,259.762 225.284,259.202 225.738,258.596 226.133,257.948 226.465,257.262 226.731,256.541 226.925,255.79 227.045,255.012 227.086,254.213 227.074,254.213 227.074,254.212 227.074,254.21 227.086,254.21 227.045,253.411 226.925,252.634 226.731,251.882 226.465,251.162 226.133,250.476 225.738,249.828 225.284,249.222 224.775,248.662 224.775,248.662 224.215,248.153 223.609,247.699 222.961,247.304 222.274,246.971 221.554,246.706 220.803,246.511 220.025,246.392 219.226,246.351 219.226,246.363 219.225,246.363 219.223,246.363 219.223,246.351 218.423,246.392 217.646,246.511 216.896,246.706 216.175,246.971 215.489,247.303 214.841,247.699 214.235,248.153 213.675,248.662 213.675,248.662 213.166,249.221 212.712,249.827 212.316,250.476 211.984,251.162 211.719,251.883 211.524,252.634 211.405,253.411 211.364,254.211 211.376,254.211 211.376,254.212 211.376,254.214 211.364,254.214 211.405,255.013 211.524,255.79 211.719,256.541 211.984,257.262 212.316,257.948 212.711,258.596 213.166,259.202 213.675,259.762 213.675,259.762 214.195,260.238 214.756,260.667 215.355,261.046 215.987,261.37 216.65,261.637 217.34,261.843 218.055,261.986 218.791,262.061 219.224,262.061 219.225,268.099 175.753,268.099 172.734,268.099 172.734,265.08 172.734,254.212 172.734,254.211 172.746,254.211 172.817,252.789 173.027,251.409 173.368,250.077 173.834,248.801 174.417,247.587 175.111,246.444 175.908,245.376 176.802,244.393 176.802,244.393 177.786,243.499 178.853,242.702 179.997,242.009 181.21,241.426 182.486,240.96 183.817,240.619 185.197,240.409 186.619,240.337 186.619,240.325 186.621,240.325 186.622,240.325 186.622,240.337 188.044,240.409 189.424,240.618 190.756,240.96 192.032,241.425 193.245,242.009 194.389,242.702 195.456,243.5 196.44,244.393 196.44,244.393 197.333,245.377 198.13,246.444 198.824,247.588 199.407,248.801 199.873,250.077 200.214,251.408 200.424,252.788 200.496,254.21 200.508,254.21 200.508,254.212 194.47,254.212 194.47,254.21 194.482,254.21 194.441,253.411 194.321,252.634 194.127,251.882 193.861,251.162 193.529,250.476 193.134,249.828 192.68,249.222 192.171,248.662 192.171,248.662 191.611,248.153 191.005,247.699 190.357,247.304 189.671,246.971 188.95,246.706 188.199,246.511 187.421,246.392 186.622,246.351 186.622,246.363 186.621,246.363 186.619,246.363 186.619,246.351 185.819,246.392 185.042,246.511 184.292,246.706 183.571,246.971 182.885,247.303 182.237,247.699 181.631,248.153 181.071,248.662 181.071,248.662 180.562,249.221 180.108,249.827 179.712,250.476 179.38,251.162 179.115,251.883 178.92,252.634 178.801,253.411 178.76,254.211 178.772,254.211 178.772,254.212 178.772,262.061 207.771,262.061 207.228,261.204 206.748,260.305 206.334,259.368 205.988,258.395 205.713,257.39 205.513,256.357 205.391,255.297 205.35,254.214 205.338,254.214 205.338,254.212 205.338,254.211 205.35,254.211 205.421,252.789 205.631,251.409 205.973,250.077 206.438,248.801 207.022,247.587 207.715,246.444 208.512,245.376 209.406,244.393 209.406,244.393 210.39,243.499 211.457,242.702 212.601,242.009 213.814,241.426 215.09,240.96 216.421,240.619 217.801,240.409 219.223,240.337 219.223,240.325 219.225,240.325 219.226,240.325 219.226,240.337 220.648,240.409 222.028,240.618 223.36,240.96 224.636,241.425 225.849,242.009 226.993,242.702 228.06,243.5 229.044,244.393 229.044,244.393 229.938,245.377 230.734,246.444 231.428,247.588 232.011,248.801 232.477,250.077 232.818,251.408 233.028,252.788 233.1,254.21 233.112,254.21 233.112,254.212 233.112,254.213 233.1,254.213 233.058,255.296 232.936,256.356 232.736,257.39 232.462,258.395 232.116,259.367 231.702,260.304 231.222,261.203 230.679,262.061 258.47,262.061 258.472,262.061 258.472,262.073 258.716,262.06 258.954,262.023 259.184,261.962 259.405,261.88 259.616,261.776 259.817,261.654 260.004,261.512 260.178,261.354 260.178,261.354 260.337,261.18 260.478,260.992 260.601,260.792 260.704,260.581 260.787,260.359 260.847,260.129 260.885,259.891 260.897,259.647 260.885,259.647 260.885,259.646 260.885,259.644 260.897,259.644 260.885,259.4 260.847,259.163 260.787,258.933 260.704,258.711 260.601,258.5 260.478,258.3 260.337,258.112 260.178,257.938 260.178,257.927 260.007,257.771 259.821,257.632 259.622,257.511 259.411,257.409 259.189,257.328 258.958,257.268 258.718,257.231 258.471,257.219 258.471,257.231 258.47,257.231 246.395,257.231 246.393,257.231 246.393,257.219 245.527,257.175 244.686,257.048 243.875,256.84 243.099,256.557 242.361,256.203 241.665,255.782 241.016,255.298 240.418,254.755 240.424,254.749 239.88,254.149 239.394,253.499 238.972,252.803 238.617,252.064 238.333,251.289 238.125,250.48 237.998,249.642 237.954,248.779 237.942,248.779 237.942,248.778 237.942,248.776 237.954,248.776 237.998,247.91 238.125,247.069 238.332,246.258 238.616,245.482 238.97,244.744 239.391,244.048 239.875,243.399 240.418,242.802 240.424,242.807 241.024,242.263 241.674,241.778 242.37,241.355 243.108,241.0 243.884,240.716 244.693,240.509 245.531,240.381 246.394,240.337 246.394,240.325 246.395,240.325 266.969,240.325 266.969,246.363 246.395,246.363 246.394,246.363 246.394,246.351 246.147,246.363 245.908,246.4 245.676,246.46 245.454,246.541 245.243,246.643 245.044,246.764 244.858,246.903 244.687,247.059 244.687,247.071 244.529,247.244 244.387,247.432 244.265,247.632 244.161,247.843 244.078,248.065 244.018,248.295 243.981,248.532 243.968,248.776 243.98,248.776 243.98,248.778 243.98,248.779 243.968,248.779 243.98,249.025 244.017,249.265 244.077,249.497 244.158,249.718 244.26,249.93 244.381,250.128 244.52,250.314 244.676,250.486 244.687,250.486 244.861,250.644 245.049,250.785 245.249,250.908 245.46,251.012 245.681,251.094 245.911,251.155 246.149,251.192 246.393,251.205 246.393,251.193 246.395,251.193 258.47,251.193 258.471,251.193 258.471,251.205 259.334,251.249 260.172,251.376 260.981,251.584 261.757,251.868 262.495,252.223 263.191,252.645 263.841,253.131 264.441,253.675 264.447,253.67 264.99,254.267 265.474,254.916 265.895,255.612 266.25,256.35 266.533,257.126 266.74,257.937 266.868,258.778 266.911,259.644 266.923,259.644 266.923,259.646 266.923,259.647 266.911,259.647 266.868,260.513 266.74,261.354 266.533,262.165 266.25,262.942 265.895,263.681 265.474,264.376 264.99,265.025 264.447,265.623 264.447,265.623 263.849,266.166 263.2,266.65 262.505,267.071 261.767,267.425 260.99,267.708 260.179,267.916 259.339,268.043 258.472,268.087 258.472,268.099 258.47,268.099 219.225,268.099" fill="none" stroke="black" stroke-width="0.1"/>
        <polygon id="_new_33_1" points="282.03,251.284 291.7,251.227 291.541,250.87 291.366,250.522 291.173,250.184 290.965,249.857 290.741,249.54 290.502,249.235 290.249,248.943 289.982,248.662 289.982,248.662 289.423,248.153 288.817,247.699 288.169,247.304 287.482,246.972 286.762,246.707 286.011,246.512 285.234,246.393 284.434,246.352 284.434,246.364 284.433,246.364 284.432,246.364 284.432,246.352 283.632,246.393 282.855,246.512 282.104,246.707 281.383,246.972 280.696,247.304 280.048,247.7 279.442,248.154 278.882,248.663 278.882,248.663 278.373,249.223 277.919,249.829 277.524,250.477 277.192,251.163 276.927,251.884 276.732,252.634 276.612,253.411 276.572,254.211 276.584,254.211 276.584,254.213 276.584,254.214 276.572,254.214 276.612,255.013 276.732,255.791 276.927,256.542 277.192,257.263 277.524,257.949 277.919,258.597 278.374,259.203 278.883,259.763 278.883,259.763 279.443,260.272 280.048,260.726 280.696,261.121 281.383,261.454 282.103,261.719 282.854,261.913 283.631,262.033 284.431,262.074 284.431,262.062 284.433,262.062 303.15,262.062 303.15,254.213 303.15,254.212 303.161,254.212 303.23,252.8 303.43,251.428 303.758,250.104 304.205,248.833 304.766,247.623 305.436,246.481 306.207,245.414 307.074,244.429 307.074,244.429 308.037,243.528 309.085,242.724 310.21,242.024 311.408,241.436 312.671,240.966 313.994,240.622 315.371,240.41 316.795,240.338 316.795,240.326 316.797,240.326 316.797,240.326 316.797,240.338 318.212,240.409 319.592,240.618 320.929,240.957 322.216,241.42 323.444,242.0 324.606,242.69 325.694,243.482 326.7,244.371 326.7,244.371 327.623,245.355 328.448,246.424 329.168,247.569 329.774,248.785 330.26,250.064 330.617,251.4 330.837,252.784 330.912,254.211 330.924,254.211 330.924,254.213 330.924,262.062 349.641,262.062 349.641,262.062 349.641,262.074 350.441,262.033 351.219,261.913 351.97,261.719 352.69,261.453 353.377,261.121 354.025,260.726 354.631,260.272 355.191,259.762 355.191,259.762 355.7,259.203 356.154,258.597 356.549,257.949 356.881,257.263 357.147,256.542 357.341,255.791 357.461,255.014 357.502,254.215 357.49,254.215 357.49,254.213 357.49,254.212 357.502,254.212 357.461,253.412 357.341,252.635 357.147,251.884 356.881,251.163 356.549,250.477 356.154,249.828 355.7,249.222 355.19,248.662 355.19,248.662 354.631,248.153 354.025,247.699 353.377,247.304 352.69,246.972 351.97,246.707 351.219,246.512 350.442,246.393 349.642,246.352 349.642,246.364 349.641,246.364 349.64,246.364 349.64,246.352 348.84,246.393 348.063,246.512 347.312,246.707 346.591,246.972 345.905,247.304 345.256,247.7 344.65,248.154 344.091,248.663 344.091,248.663 343.614,249.184 343.185,249.745 342.807,250.343 342.483,250.975 342.216,251.638 342.01,252.328 341.867,253.043 341.791,253.779 341.791,254.211 341.791,254.213 341.791,257.836 335.754,257.836 335.754,254.213 335.754,254.211 335.754,236.1 341.791,236.1 341.791,242.759 342.649,242.216 343.548,241.736 344.485,241.322 345.458,240.976 346.463,240.701 347.497,240.501 348.557,240.379 349.64,240.338 349.64,240.326 349.641,240.326 349.642,240.326 349.642,240.338 351.064,240.409 352.445,240.619 353.776,240.961 355.052,241.427 356.265,242.01 357.409,242.703 358.476,243.5 359.459,244.394 359.459,244.394 360.353,245.377 361.15,246.445 361.844,247.588 362.427,248.802 362.893,250.078 363.234,251.409 363.444,252.79 363.516,254.212 363.528,254.212 363.528,254.213 363.528,254.215 363.516,254.215 363.444,255.636 363.234,257.017 362.893,258.348 362.427,259.624 361.844,260.837 361.151,261.981 360.353,263.048 359.46,264.031 359.46,264.031 358.476,264.925 357.409,265.722 356.265,266.416 355.052,266.999 353.776,267.465 352.444,267.806 351.063,268.016 349.641,268.088 349.641,268.1 349.641,268.1 327.905,268.1 324.886,268.1 324.886,265.081 324.886,254.213 324.886,254.211 324.898,254.211 324.855,253.416 324.73,252.644 324.527,251.897 324.251,251.18 323.906,250.496 323.496,249.85 323.027,249.245 322.502,248.687 322.502,248.687 321.92,248.172 321.291,247.713 320.621,247.314 319.913,246.979 319.172,246.71 318.403,246.514 317.61,246.393 316.797,246.352 316.797,246.364 316.797,246.364 316.795,246.364 316.795,246.352 316.003,246.392 315.238,246.51 314.502,246.701 313.8,246.963 313.134,247.29 312.508,247.679 311.926,248.126 311.39,248.627 311.39,248.627 310.9,249.186 310.463,249.792 310.084,250.442 309.766,251.132 309.513,251.858 309.328,252.616 309.214,253.402 309.176,254.212 309.188,254.212 309.188,254.213 309.188,265.081 309.188,268.1 306.168,268.1 284.433,268.1 284.431,268.1 284.431,268.088 283.009,268.016 281.629,267.806 280.297,267.465 279.021,266.999 277.808,266.416 276.664,265.723 275.598,264.925 274.614,264.032 274.614,264.032 273.72,263.048 272.923,261.981 272.229,260.837 271.646,259.624 271.18,258.348 270.839,257.016 270.629,255.636 270.558,254.214 270.546,254.214 270.546,254.213 270.546,254.211 270.558,254.211 270.629,252.789 270.839,251.409 271.18,250.077 271.646,248.802 272.229,247.589 272.923,246.445 273.72,245.378 274.613,244.394 274.613,244.394 275.597,243.5 276.664,242.703 277.808,242.01 279.022,241.426 280.298,240.961 281.629,240.619 283.01,240.409 284.432,240.338 284.432,240.326 284.433,240.326 284.434,240.326 284.434,240.338 285.856,240.409 287.236,240.619 288.568,240.961 289.844,241.427 291.057,242.01 292.2,242.703 293.267,243.5 294.251,244.394 294.251,244.394 295.145,245.377 295.942,246.445 296.636,247.588 297.219,248.802 297.685,250.078 298.026,251.409 298.236,252.79 298.308,254.212 298.32,254.212 298.32,254.213 298.32,257.202 295.312,257.22 282.054,257.298" fill="none" stroke="black" stroke-width="0.1"/>
        <polygon id="_new_34_1" points="433.567,254.213 433.567,254.212 433.579,254.212 433.647,252.8 433.848,251.428 434.175,250.103 434.622,248.833 435.184,247.623 435.853,246.481 436.624,245.414 437.492,244.428 437.492,244.428 438.454,243.527 439.502,242.723 440.627,242.023 441.824,241.435 443.088,240.965 444.411,240.621 445.788,240.409 447.212,240.337 447.212,240.325 447.213,240.325 447.214,240.325 447.214,240.337 448.636,240.409 450.017,240.618 451.348,240.96 452.624,241.426 453.838,242.009 454.982,242.702 456.049,243.5 457.033,244.393 457.033,244.393 457.926,245.377 458.723,246.444 459.417,247.588 460.0,248.801 460.465,250.077 460.807,251.408 461.017,252.788 461.088,254.21 461.1,254.21 461.1,254.212 461.1,254.213 461.088,254.213 461.017,255.635 460.807,257.015 460.466,258.347 460.0,259.623 459.417,260.836 458.723,261.98 457.926,263.047 457.032,264.031 457.032,264.031 456.048,264.925 454.981,265.721 453.838,266.415 452.624,266.998 451.349,267.464 450.017,267.805 448.637,268.015 447.215,268.087 447.215,268.099 447.213,268.099 447.213,268.087 414.85,268.088 414.85,262.074 447.213,262.073 447.213,262.061 447.215,262.061 447.215,262.073 448.015,262.032 448.792,261.912 449.543,261.718 450.263,261.452 450.95,261.12 451.598,260.725 452.203,260.271 452.763,259.762 452.763,259.762 453.272,259.202 453.726,258.596 454.122,257.948 454.454,257.262 454.719,256.541 454.914,255.79 455.034,255.012 455.074,254.213 455.062,254.213 455.062,254.212 455.062,254.21 455.074,254.21 455.034,253.411 454.914,252.634 454.719,251.882 454.454,251.162 454.122,250.476 453.727,249.828 453.273,249.222 452.764,248.662 452.764,248.662 452.204,248.153 451.598,247.699 450.95,247.304 450.263,246.971 449.542,246.706 448.791,246.511 448.014,246.392 447.214,246.351 447.214,246.363 447.213,246.363 447.212,246.363 447.212,246.351 446.42,246.391 445.655,246.509 444.919,246.701 444.217,246.962 443.551,247.289 442.925,247.678 442.343,248.125 441.808,248.627 441.808,248.627 441.317,249.185 440.88,249.791 440.501,250.441 440.183,251.131 439.93,251.858 439.745,252.616 439.632,253.402 439.593,254.212 439.605,254.212 439.605,254.213" fill="none" stroke="black" stroke-width="0.1"/>
        <polygon id="_new_35_1" points="379.844,251.284 389.514,251.227 389.355,250.87 389.179,250.522 388.987,250.184 388.779,249.857 388.555,249.54 388.316,249.236 388.063,248.943 387.796,248.662 387.796,248.662 387.236,248.153 386.63,247.7 385.983,247.304 385.296,246.972 384.576,246.707 383.825,246.512 383.048,246.393 382.248,246.352 382.248,246.364 382.246,246.364 382.246,246.364 382.246,246.352 381.446,246.393 380.669,246.512 379.918,246.707 379.197,246.972 378.51,247.304 377.862,247.7 377.256,248.154 376.696,248.663 376.696,248.663 376.187,249.223 375.733,249.829 375.338,250.477 375.006,251.163 374.741,251.884 374.546,252.634 374.426,253.411 374.385,254.211 374.397,254.211 374.397,254.213 374.397,254.214 374.385,254.214 374.426,255.013 374.546,255.791 374.74,256.542 375.006,257.262 375.338,257.949 375.733,258.597 376.188,259.203 376.697,259.763 376.697,259.763 377.257,260.272 377.862,260.726 378.51,261.121 379.197,261.454 379.917,261.719 380.668,261.913 381.445,262.033 382.245,262.074 382.245,262.062 382.246,262.062 400.964,262.062 400.964,254.213 400.964,254.212 400.975,254.212 401.044,252.798 401.246,251.426 401.576,250.103 402.026,248.836 402.591,247.631 403.265,246.495 404.041,245.434 404.913,244.457 404.913,244.457 405.878,243.565 406.928,242.77 408.054,242.079 409.253,241.499 410.516,241.035 411.838,240.696 413.212,240.488 414.633,240.416 414.633,240.404 414.635,240.404 414.636,240.404 414.636,240.416 416.058,240.488 417.439,240.698 418.77,241.039 420.046,241.505 421.26,242.088 422.404,242.782 423.471,243.579 424.455,244.473 424.455,244.473 425.348,245.456 426.145,246.524 426.838,247.667 427.422,248.88 427.887,250.156 428.229,251.488 428.438,252.868 428.51,254.29 428.522,254.29 428.522,254.291 422.484,254.291 422.484,254.29 422.496,254.29 422.455,253.49 422.336,252.713 422.141,251.962 421.876,251.242 421.544,250.555 421.149,249.907 420.695,249.301 420.185,248.742 420.185,248.742 419.626,248.233 419.02,247.778 418.372,247.383 417.685,247.051 416.964,246.785 416.213,246.591 415.436,246.471 414.636,246.43 414.636,246.442 414.635,246.442 414.633,246.442 414.633,246.43 413.838,246.47 413.069,246.586 412.33,246.775 411.625,247.033 410.956,247.356 410.327,247.74 409.743,248.182 409.205,248.678 409.205,248.678 408.714,249.229 408.278,249.828 407.899,250.471 407.581,251.154 407.327,251.873 407.142,252.625 407.028,253.406 406.989,254.212 407.001,254.212 407.001,254.213 407.001,265.081 407.001,268.1 403.982,268.1 382.246,268.1 382.245,268.1 382.245,268.088 380.823,268.016 379.443,267.806 378.111,267.465 376.836,266.999 375.622,266.416 374.478,265.723 373.411,264.925 372.428,264.032 372.428,264.032 371.534,263.048 370.737,261.981 370.043,260.837 369.46,259.624 368.994,258.348 368.653,257.016 368.443,255.636 368.371,254.214 368.359,254.214 368.359,254.213 368.359,254.211 368.371,254.211 368.443,252.789 368.653,251.409 368.994,250.077 369.46,248.802 370.043,247.589 370.737,246.445 371.534,245.378 372.427,244.394 372.427,244.394 373.411,243.5 374.478,242.703 375.622,242.01 376.836,241.426 378.112,240.961 379.443,240.619 380.824,240.409 382.246,240.338 382.246,240.326 382.246,240.326 382.248,240.326 382.248,240.338 383.67,240.409 385.05,240.619 386.382,240.961 387.657,241.427 388.871,242.01 390.014,242.703 391.081,243.5 392.065,244.394 392.065,244.394 392.959,245.377 393.756,246.445 394.45,247.588 395.033,248.802 395.499,250.078 395.84,251.409 396.05,252.79 396.122,254.212 396.133,254.212 396.133,254.213 396.133,257.202 393.126,257.22 379.868,257.298" fill="none" stroke="black" stroke-width="0.1"/>
        <polygon id="_new_36_1" points="477.871,251.205 487.54,251.148 487.382,250.791 487.206,250.443 487.014,250.105 486.805,249.778 486.582,249.461 486.343,249.157 486.09,248.864 485.823,248.584 485.823,248.584 485.263,248.075 484.657,247.62 484.009,247.225 483.323,246.893 482.603,246.628 481.851,246.433 481.075,246.314 480.275,246.273 480.275,246.285 480.273,246.285 480.272,246.285 480.272,246.273 479.473,246.314 478.695,246.433 477.944,246.628 477.223,246.893 476.537,247.225 475.889,247.621 475.283,248.075 474.723,248.584 474.723,248.584 474.214,249.144 473.76,249.75 473.365,250.398 473.033,251.084 472.767,251.805 472.573,252.555 472.453,253.333 472.412,254.132 472.424,254.132 472.424,254.134 472.424,254.135 472.412,254.135 472.453,254.934 472.573,255.712 472.767,256.463 473.033,257.183 473.365,257.87 473.76,258.518 474.214,259.124 474.724,259.684 474.724,259.684 475.283,260.193 475.889,260.647 476.537,261.042 477.223,261.375 477.944,261.64 478.695,261.834 479.472,261.954 480.271,261.995 480.271,261.983 480.273,261.983 480.273,261.995 499.015,262.063 499.015,254.212 499.015,254.211 499.027,254.211 499.095,252.8 499.296,251.428 499.623,250.103 500.07,248.833 500.632,247.623 501.301,246.481 502.072,245.414 502.94,244.429 502.94,244.429 503.903,243.527 504.95,242.723 506.076,242.024 507.273,241.436 508.536,240.966 509.859,240.622 511.236,240.41 512.66,240.337 512.66,240.326 512.662,240.326 512.663,240.326 512.663,240.337 514.085,240.409 515.465,240.619 516.797,240.96 518.073,241.426 519.286,242.009 520.43,242.703 521.497,243.5 522.481,244.394 522.481,244.394 523.375,245.378 524.172,246.445 524.865,247.588 525.448,248.801 525.914,250.077 526.255,251.409 526.466,252.789 526.537,254.211 526.549,254.211 526.549,254.212 520.511,254.212 520.511,254.211 520.523,254.211 520.482,253.411 520.363,252.634 520.168,251.883 519.903,251.162 519.571,250.476 519.175,249.828 518.721,249.223 518.212,248.663 518.212,248.663 517.652,248.154 517.046,247.699 516.398,247.304 515.712,246.972 514.991,246.706 514.24,246.512 513.463,246.392 512.663,246.351 512.663,246.363 512.662,246.363 512.66,246.363 512.66,246.351 511.869,246.392 511.103,246.51 510.368,246.701 509.665,246.962 509.0,247.289 508.374,247.678 507.792,248.125 507.256,248.627 507.256,248.627 506.765,249.185 506.329,249.791 505.95,250.441 505.632,251.131 505.379,251.857 505.193,252.615 505.08,253.401 505.041,254.211 505.053,254.211 505.053,254.212 505.053,265.08 505.053,268.099 502.034,268.088 480.273,268.009 480.273,268.021 480.271,268.021 480.271,268.009 478.85,267.937 477.469,267.727 476.138,267.386 474.862,266.92 473.649,266.337 472.505,265.644 471.438,264.847 470.455,263.953 470.455,263.953 469.561,262.969 468.764,261.902 468.07,260.758 467.487,259.545 467.021,258.269 466.68,256.937 466.47,255.557 466.398,254.135 466.386,254.135 466.386,254.134 466.386,254.132 466.398,254.132 466.47,252.71 466.68,251.33 467.021,249.999 467.487,248.723 468.07,247.51 468.764,246.366 469.56,245.299 470.454,244.315 470.454,244.315 471.438,243.421 472.505,242.624 473.649,241.93 474.862,241.347 476.138,240.882 477.47,240.54 478.85,240.33 480.272,240.259 480.272,240.247 480.273,240.247 480.275,240.247 480.275,240.259 481.697,240.33 483.077,240.54 484.409,240.882 485.684,241.348 486.897,241.93 488.041,242.624 489.108,243.421 490.092,244.315 490.092,244.315 490.986,245.298 491.783,246.366 492.476,247.509 493.06,248.723 493.525,249.999 493.867,251.331 494.077,252.711 494.148,254.133 494.16,254.133 494.16,254.134 494.16,257.123 491.153,257.141 477.895,257.219" fill="none" stroke="black" stroke-width="0.1"/>
        <polygon id="center_00" cx="254.274" cy="253.5" points="266.1952,253.5 266.12989441906427,254.74610471630635 265.93469317786787,255.97855684857666 265.6117349420578,257.18385339334264 265.16455810964897,258.3487888694352 264.59806204359506,259.4606 263.91845339334265,260.50710554962905 263.1331780934811,261.4768397845252 262.2508397845252,262.3591780934811 261.28110554962905,263.14445339334264 260.2346,263.82406204359506 259.1227888694352,264.39055810964896 257.95785339334265,264.8377349420578 256.75255684857666,265.16069317786787 255.52010471630635,265.35589441906427 254.274,265.4212 253.02789528369365,265.35589441906427 251.79544315142334,265.16069317786787 250.59014660665738,264.8377349420578 249.42521113056478,264.39055810964896 248.3134,263.82406204359506 247.26689445037098,263.14445339334264 246.29716021547478,262.3591780934811 245.41482190651888,261.4768397845252 244.62954660665739,260.50710554962905 243.94993795640494,259.4606 243.38344189035104,258.3487888694352 242.93626505794222,257.18385339334264 242.61330682213216,255.9785568485767 242.41810558093573,254.74610471630635 242.3528,253.5 242.41810558093573,252.25389528369365 242.61330682213216,251.02144315142334 242.93626505794222,249.81614660665738 243.38344189035104,248.65121113056477 243.94993795640494,247.5394 244.62954660665739,246.49289445037098 245.41482190651888,245.52316021547477 246.29716021547478,244.64082190651888 247.26689445037096,243.85554660665738 248.3134,243.17593795640494 249.42521113056478,242.60944189035104 250.59014660665738,242.16226505794222 251.7954431514233,241.83930682213216 253.02789528369365,241.64410558093573 254.274,241.5788 255.52010471630635,241.64410558093573 256.75255684857666,241.83930682213216 257.95785339334265,242.16226505794222 259.1227888694352,242.60944189035104 260.2346,243.17593795640494 261.28110554962905,243.85554660665738 262.2508397845252,244.64082190651888 263.1331780934811,245.52316021547477 263.91845339334265,246.49289445037095 264.59806204359506,247.5394 265.16455810964897,248.65121113056477 265.6117349420578,249.81614660665738 265.93469317786787,251.0214431514233 266.12989441906427,252.25389528369365" fill="none" stroke="black" stroke-width="0.1"/>
    </g>
</svg>
