<!DOCTYPE svg PUBLIC "-//W3C//DTD SVG 1.1//EN" "http://www.w3.org/Graphics/SVG/1.1/DTD/svg11.dtd">
<svg xmlns="http://www.w3.org/2000/svg" width="297mm" height="210mm" viewBox="0 0 297 210">
    <defs id="_tag_96_"/>
    <g id="trashNode_001"/>
    <g id="_tag_97_">
        <polygon id="_new_32_2" points="213.46,260.524 213.841,260.524 214.485,260.458 215.11,260.333 215.714,260.153 216.294,259.919 216.847,259.636 217.371,259.305 217.861,258.93 218.317,258.513 218.317,258.513 218.762,258.023 219.16,257.493 219.506,256.925 219.797,256.325 220.029,255.694 220.199,255.037 220.304,254.357 220.339,253.657 220.329,253.657 220.329,253.656 220.329,253.654 220.339,253.654 220.304,252.955 220.199,252.275 220.029,251.618 219.797,250.988 219.506,250.387 219.16,249.82 218.763,249.29 218.318,248.8 218.318,248.8 217.828,248.355 217.297,247.957 216.73,247.611 216.13,247.321 215.499,247.088 214.842,246.918 214.161,246.813 213.462,246.778 213.462,246.788 213.461,246.788 213.459,246.788 213.459,246.778 212.76,246.813 212.08,246.918 211.423,247.088 210.792,247.321 210.192,247.611 209.625,247.957 209.095,248.354 208.605,248.8 208.605,248.8 208.159,249.289 207.762,249.82 207.416,250.387 207.125,250.988 206.893,251.618 206.723,252.275 206.618,252.956 206.583,253.655 206.593,253.655 206.593,253.656 206.593,253.658 206.583,253.658 206.618,254.357 206.723,255.037 206.893,255.694 207.125,256.325 207.416,256.925 207.762,257.492 208.159,258.022 208.605,258.512 208.605,258.512 209.06,258.929 209.551,259.305 210.075,259.635 210.628,259.919 211.208,260.153 211.812,260.333 212.438,260.458 213.082,260.524 213.46,260.524 213.461,265.807 175.423,265.807 172.781,265.807 172.781,263.166 172.781,253.656 172.781,253.655 172.792,253.655 172.854,252.411 173.038,251.203 173.337,250.038 173.744,248.921 174.255,247.86 174.862,246.859 175.559,245.925 176.341,245.064 176.341,245.064 177.202,244.283 178.136,243.585 179.136,242.978 180.198,242.468 181.314,242.061 182.479,241.762 183.687,241.578 184.931,241.515 184.931,241.505 184.933,241.505 184.933,241.505 184.933,241.515 186.178,241.578 187.385,241.762 188.551,242.06 189.667,242.468 190.729,242.978 191.73,243.585 192.664,244.283 193.524,245.065 193.524,245.065 194.306,245.926 195.003,246.859 195.61,247.86 196.12,248.921 196.528,250.038 196.827,251.203 197.01,252.41 197.073,253.654 197.083,253.654 197.083,253.656 191.8,253.656 191.8,253.654 191.811,253.654 191.775,252.955 191.67,252.275 191.5,251.618 191.268,250.988 190.977,250.387 190.632,249.82 190.234,249.29 189.789,248.8 189.789,248.8 189.299,248.355 188.769,247.957 188.202,247.611 187.601,247.321 186.97,247.088 186.313,246.918 185.633,246.813 184.933,246.778 184.933,246.788 184.933,246.788 184.931,246.788 184.931,246.778 184.231,246.813 183.551,246.918 182.894,247.088 182.264,247.321 181.663,247.611 181.096,247.957 180.566,248.354 180.077,248.8 180.077,248.8 179.631,249.289 179.233,249.82 178.888,250.387 178.597,250.988 178.365,251.618 178.195,252.275 178.09,252.956 178.054,253.655 178.065,253.655 178.065,253.656 178.065,260.524 203.439,260.524 202.964,259.774 202.544,258.987 202.182,258.167 201.879,257.316 201.639,256.437 201.464,255.533 201.357,254.605 201.32,253.658 201.31,253.658 201.31,253.656 201.31,253.655 201.32,253.655 201.383,252.411 201.567,251.203 201.865,250.038 202.273,248.921 202.783,247.86 203.39,246.859 204.088,245.925 204.87,245.064 204.87,245.064 205.73,244.283 206.664,243.585 207.665,242.978 208.726,242.468 209.843,242.061 211.008,241.762 212.215,241.578 213.459,241.515 213.459,241.505 213.461,241.505 213.462,241.505 213.462,241.515 214.706,241.578 215.914,241.762 217.079,242.06 218.196,242.468 219.257,242.978 220.258,243.585 221.192,244.283 222.053,245.065 222.053,245.065 222.835,245.926 223.532,246.859 224.139,247.86 224.649,248.921 225.057,250.038 225.355,251.203 225.539,252.41 225.602,253.654 225.612,253.654 225.612,253.656 225.612,253.657 225.602,253.657 225.565,254.605 225.459,255.532 225.284,256.437 225.044,257.316 224.741,258.167 224.378,258.987 223.958,259.774 223.484,260.524 247.801,260.524 247.803,260.524 247.803,260.534 248.016,260.523 248.224,260.491 248.425,260.438 248.619,260.365 248.804,260.275 248.979,260.167 249.143,260.044 249.295,259.905 249.295,259.905 249.434,259.753 249.557,259.589 249.665,259.414 249.756,259.229 249.828,259.035 249.881,258.833 249.913,258.625 249.924,258.412 249.914,258.412 249.914,258.411 249.914,258.409 249.924,258.409 249.913,258.196 249.881,257.988 249.828,257.787 249.756,257.593 249.665,257.408 249.558,257.233 249.434,257.069 249.296,256.917 249.296,256.906 249.145,256.77 248.983,256.648 248.808,256.543 248.624,256.454 248.43,256.382 248.227,256.33 248.017,256.298 247.802,256.287 247.802,256.298 247.801,256.298 237.235,256.298 237.233,256.298 237.233,256.287 236.475,256.249 235.74,256.137 235.03,255.956 234.351,255.708 233.705,255.398 233.096,255.03 232.528,254.606 232.005,254.131 232.011,254.126 231.534,253.601 231.11,253.032 230.74,252.423 230.429,251.777 230.181,251.098 229.999,250.391 229.887,249.657 229.849,248.902 229.839,248.902 229.839,248.901 229.839,248.9 229.849,248.9 229.887,248.142 229.999,247.406 230.18,246.697 230.428,246.017 230.738,245.371 231.106,244.763 231.53,244.195 232.005,243.672 232.01,243.677 232.535,243.201 233.104,242.776 233.713,242.406 234.359,242.096 235.038,241.847 235.746,241.666 236.479,241.554 237.234,241.515 237.234,241.505 237.235,241.505 255.238,241.505 255.238,246.788 237.235,246.788 237.234,246.788 237.234,246.778 237.018,246.789 236.808,246.821 236.606,246.873 236.412,246.944 236.227,247.033 236.053,247.139 235.89,247.261 235.74,247.397 235.74,247.407 235.602,247.559 235.478,247.724 235.371,247.899 235.28,248.083 235.208,248.277 235.155,248.479 235.122,248.686 235.111,248.9 235.122,248.9 235.122,248.901 235.122,248.902 235.111,248.902 235.122,249.118 235.154,249.328 235.206,249.53 235.278,249.724 235.367,249.909 235.472,250.083 235.594,250.246 235.73,250.396 235.741,250.396 235.893,250.534 236.057,250.658 236.232,250.766 236.417,250.856 236.611,250.928 236.812,250.981 237.02,251.014 237.233,251.025 237.233,251.015 237.235,251.015 247.801,251.015 247.802,251.015 247.802,251.025 248.557,251.063 249.29,251.175 249.998,251.357 250.677,251.605 251.322,251.916 251.932,252.285 252.501,252.71 253.026,253.187 253.031,253.182 253.506,253.704 253.929,254.272 254.298,254.881 254.608,255.527 254.856,256.206 255.037,256.916 255.149,257.651 255.187,258.409 255.197,258.409 255.197,258.411 255.197,258.412 255.187,258.412 255.149,259.17 255.037,259.906 254.856,260.615 254.608,261.295 254.298,261.941 253.929,262.55 253.505,263.118 253.03,263.641 253.03,263.641 252.507,264.116 251.94,264.539 251.331,264.908 250.685,265.218 250.006,265.465 249.296,265.647 248.56,265.759 247.803,265.797 247.803,265.807 247.801,265.807 213.461,265.807" fill="none" stroke="black" stroke-width="0.1"/>
        <polygon id="_new_33_1" points="268.416,251.094 276.877,251.044 276.738,250.732 276.584,250.427 276.416,250.132 276.234,249.845 276.038,249.569 275.829,249.302 275.607,249.045 275.374,248.8 275.374,248.8 274.884,248.355 274.354,247.958 273.787,247.612 273.186,247.321 272.556,247.089 271.899,246.919 271.219,246.814 270.519,246.779 270.519,246.789 270.518,246.789 270.517,246.789 270.517,246.779 269.817,246.814 269.137,246.919 268.48,247.089 267.849,247.321 267.249,247.612 266.681,247.958 266.151,248.355 265.661,248.801 265.661,248.801 265.216,249.291 264.819,249.821 264.473,250.388 264.182,250.988 263.95,251.619 263.78,252.276 263.675,252.956 263.64,253.655 263.65,253.655 263.65,253.657 263.65,253.658 263.64,253.658 263.675,254.357 263.78,255.037 263.95,255.695 264.182,256.325 264.473,256.926 264.819,257.493 265.216,258.024 265.662,258.513 265.662,258.513 266.152,258.959 266.682,259.356 267.249,259.702 267.849,259.993 268.48,260.225 269.137,260.395 269.817,260.499 270.516,260.535 270.516,260.525 270.518,260.525 286.895,260.525 286.895,253.657 286.895,253.656 286.906,253.656 286.965,252.421 287.141,251.221 287.427,250.061 287.818,248.949 288.31,247.891 288.896,246.892 289.571,245.958 290.329,245.096 290.329,245.096 291.172,244.307 292.089,243.604 293.073,242.992 294.121,242.477 295.226,242.066 296.384,241.765 297.589,241.58 298.835,241.516 298.835,241.506 298.836,241.506 298.837,241.506 298.837,241.516 300.075,241.578 301.282,241.761 302.452,242.058 303.578,242.463 304.653,242.971 305.67,243.574 306.622,244.267 307.502,245.045 307.502,245.045 308.309,245.906 309.031,246.841 309.661,247.844 310.192,248.908 310.617,250.027 310.929,251.195 311.121,252.407 311.187,253.655 311.197,253.655 311.197,253.657 311.197,260.525 327.575,260.525 327.576,260.525 327.576,260.535 328.275,260.499 328.956,260.395 329.613,260.225 330.243,259.992 330.844,259.702 331.411,259.356 331.942,258.958 332.431,258.513 332.431,258.513 332.877,258.023 333.274,257.493 333.62,256.926 333.911,256.325 334.143,255.695 334.313,255.038 334.418,254.358 334.453,253.658 334.443,253.658 334.443,253.657 334.443,253.656 334.453,253.656 334.418,252.956 334.313,252.276 334.143,251.619 333.911,250.988 333.62,250.388 333.274,249.821 332.877,249.29 332.431,248.8 332.431,248.8 331.941,248.355 331.411,247.958 330.844,247.612 330.243,247.321 329.613,247.089 328.956,246.919 328.276,246.814 327.576,246.779 327.576,246.789 327.575,246.789 327.574,246.789 327.574,246.779 326.875,246.814 326.194,246.919 325.537,247.089 324.906,247.321 324.306,247.612 323.739,247.958 323.208,248.355 322.719,248.801 322.719,248.801 322.302,249.256 321.926,249.747 321.595,250.271 321.312,250.824 321.078,251.404 320.898,252.008 320.773,252.633 320.707,253.277 320.707,253.655 320.707,253.657 320.707,256.827 315.424,256.827 315.424,253.657 315.424,253.655 315.424,237.808 320.707,237.808 320.707,243.634 321.457,243.16 322.244,242.74 323.064,242.377 323.915,242.075 324.794,241.834 325.699,241.659 326.627,241.552 327.574,241.516 327.574,241.506 327.575,241.506 327.576,241.506 327.576,241.516 328.821,241.579 330.028,241.763 331.193,242.061 332.31,242.469 333.371,242.979 334.372,243.586 335.306,244.283 336.166,245.065 336.166,245.065 336.948,245.926 337.646,246.86 338.253,247.861 338.763,248.922 339.171,250.039 339.469,251.204 339.653,252.412 339.716,253.656 339.726,253.656 339.726,253.657 339.726,253.658 339.716,253.658 339.653,254.903 339.469,256.11 339.171,257.275 338.763,258.392 338.253,259.453 337.646,260.454 336.949,261.387 336.167,262.248 336.167,262.248 335.306,263.03 334.372,263.728 333.371,264.335 332.31,264.845 331.193,265.253 330.028,265.551 328.82,265.735 327.576,265.798 327.576,265.808 327.575,265.808 308.556,265.808 305.914,265.808 305.914,263.166 305.914,253.657 305.914,253.655 305.925,253.655 305.887,252.96 305.778,252.284 305.6,251.63 305.359,251.003 305.057,250.405 304.699,249.839 304.288,249.31 303.829,248.822 303.829,248.822 303.319,248.371 302.769,247.97 302.183,247.62 301.563,247.327 300.915,247.092 300.242,246.92 299.548,246.815 298.837,246.779 298.837,246.789 298.836,246.789 298.835,246.789 298.835,246.779 298.142,246.814 297.472,246.917 296.829,247.084 296.214,247.313 295.632,247.599 295.084,247.94 294.575,248.331 294.106,248.769 294.106,248.769 293.676,249.258 293.294,249.788 292.963,250.357 292.685,250.961 292.463,251.596 292.301,252.259 292.202,252.947 292.168,253.656 292.178,253.656 292.178,253.657 292.178,263.166 292.178,265.808 289.537,265.808 270.518,265.808 270.516,265.808 270.516,265.798 269.272,265.735 268.064,265.551 266.899,265.252 265.783,264.845 264.722,264.335 263.721,263.728 262.787,263.03 261.926,262.249 261.926,262.249 261.144,261.388 260.447,260.454 259.84,259.453 259.33,258.392 258.922,257.275 258.624,256.11 258.44,254.902 258.377,253.658 258.367,253.658 258.367,253.657 258.367,253.655 258.377,253.655 258.44,252.411 258.624,251.204 258.922,250.039 259.33,248.922 259.84,247.861 260.447,246.86 261.144,245.926 261.926,245.065 261.926,245.065 262.787,244.284 263.721,243.586 264.721,242.979 265.783,242.469 266.9,242.061 268.065,241.762 269.273,241.579 270.517,241.516 270.517,241.506 270.518,241.506 270.519,241.506 270.519,241.516 271.764,241.579 272.971,241.763 274.136,242.061 275.253,242.469 276.314,242.979 277.315,243.586 278.248,244.283 279.109,245.065 279.109,245.065 279.891,245.926 280.589,246.86 281.196,247.86 281.706,248.922 282.113,250.039 282.412,251.204 282.596,252.412 282.659,253.656 282.669,253.656 282.669,253.657 282.669,256.272 280.038,256.288 268.437,256.357" fill="none" stroke="black" stroke-width="0.1"/>
        <polygon id="_new_34_1" points="401.01,253.657 401.01,253.656 401.021,253.656 401.081,252.421 401.256,251.22 401.542,250.061 401.934,248.949 402.425,247.891 403.011,246.891 403.686,245.958 404.445,245.096 404.445,245.096 405.287,244.307 406.203,243.603 407.188,242.991 408.236,242.476 409.341,242.065 410.499,241.764 411.703,241.579 412.95,241.515 412.95,241.505 412.951,241.505 412.952,241.505 412.952,241.515 414.196,241.578 415.404,241.762 416.569,242.06 417.686,242.468 418.747,242.978 419.748,243.585 420.682,244.283 421.543,245.065 421.543,245.065 422.325,245.926 423.022,246.859 423.629,247.86 424.139,248.921 424.547,250.038 424.845,251.203 425.029,252.41 425.092,253.654 425.102,253.654 425.102,253.656 425.102,253.657 425.092,253.657 425.029,254.901 424.845,256.109 424.547,257.274 424.139,258.391 423.629,259.452 423.022,260.453 422.324,261.387 421.542,262.248 421.542,262.248 420.682,263.03 419.748,263.727 418.747,264.334 417.686,264.844 416.569,265.252 415.404,265.55 414.197,265.734 412.953,265.797 412.953,265.807 412.951,265.807 412.951,265.797 384.633,265.798 384.633,260.535 412.951,260.534 412.951,260.524 412.953,260.524 412.953,260.534 413.652,260.499 414.332,260.394 414.989,260.224 415.62,259.992 416.22,259.701 416.787,259.355 417.317,258.958 417.807,258.512 417.807,258.512 418.253,258.023 418.65,257.492 418.996,256.925 419.287,256.325 419.519,255.694 419.689,255.037 419.794,254.356 419.829,253.657 419.819,253.657 419.819,253.656 419.819,253.654 419.829,253.654 419.794,252.955 419.689,252.275 419.519,251.618 419.287,250.988 418.996,250.387 418.65,249.82 418.253,249.29 417.808,248.8 417.808,248.8 417.318,248.355 416.787,247.957 416.22,247.611 415.62,247.321 414.989,247.088 414.332,246.918 413.652,246.813 412.952,246.778 412.952,246.788 412.951,246.788 412.95,246.788 412.95,246.778 412.257,246.813 411.587,246.916 410.944,247.084 410.329,247.312 409.747,247.599 409.199,247.939 408.69,248.33 408.221,248.769 408.221,248.769 407.791,249.258 407.409,249.788 407.078,250.357 406.8,250.961 406.578,251.596 406.416,252.259 406.317,252.947 406.283,253.656 406.293,253.656 406.293,253.657" fill="none" stroke="black" stroke-width="0.1"/>
        <polygon id="_new_35_1" points="354.003,251.094 362.464,251.044 362.325,250.732 362.171,250.428 362.003,250.132 361.821,249.845 361.625,249.569 361.416,249.302 361.195,249.046 360.961,248.8 360.961,248.8 360.471,248.355 359.941,247.958 359.374,247.612 358.774,247.321 358.143,247.089 357.486,246.919 356.806,246.814 356.106,246.779 356.106,246.789 356.105,246.789 356.104,246.789 356.104,246.779 355.405,246.814 354.724,246.919 354.067,247.089 353.436,247.321 352.836,247.612 352.269,247.958 351.738,248.355 351.249,248.801 351.249,248.801 350.803,249.291 350.406,249.821 350.06,250.388 349.769,250.988 349.537,251.619 349.367,252.276 349.262,252.956 349.227,253.655 349.237,253.655 349.237,253.657 349.237,253.658 349.227,253.658 349.262,254.357 349.367,255.037 349.537,255.695 349.769,256.325 350.06,256.926 350.406,257.493 350.803,258.024 351.249,258.513 351.249,258.513 351.739,258.959 352.269,259.356 352.836,259.702 353.436,259.993 354.067,260.225 354.724,260.395 355.404,260.499 356.103,260.535 356.103,260.525 356.105,260.525 372.483,260.525 372.483,253.657 372.483,253.656 372.493,253.656 372.553,252.419 372.73,251.218 373.018,250.061 373.412,248.952 373.906,247.898 374.496,246.904 375.175,245.976 375.938,245.12 375.938,245.12 376.783,244.34 377.701,243.644 378.687,243.04 379.735,242.532 380.841,242.127 381.997,241.83 383.2,241.647 384.444,241.585 384.444,241.575 384.445,241.575 384.446,241.575 384.446,241.585 385.69,241.648 386.898,241.831 388.063,242.13 389.18,242.537 390.242,243.048 391.242,243.655 392.176,244.352 393.037,245.134 393.037,245.134 393.819,245.995 394.516,246.929 395.123,247.929 395.633,248.991 396.041,250.107 396.339,251.272 396.523,252.48 396.586,253.724 396.596,253.724 396.596,253.726 391.313,253.726 391.313,253.724 391.324,253.724 391.288,253.024 391.183,252.345 391.013,251.687 390.781,251.057 390.49,250.457 390.144,249.89 389.747,249.359 389.302,248.87 389.302,248.87 388.812,248.424 388.282,248.027 387.714,247.681 387.114,247.39 386.483,247.158 385.826,246.988 385.146,246.883 384.446,246.847 384.446,246.858 384.445,246.858 384.444,246.858 384.444,246.847 383.748,246.882 383.075,246.983 382.428,247.149 381.811,247.374 381.226,247.657 380.676,247.993 380.164,248.38 379.694,248.814 379.694,248.814 379.264,249.296 378.882,249.82 378.551,250.382 378.272,250.98 378.051,251.609 377.889,252.268 377.789,252.951 377.755,253.656 377.766,253.656 377.766,253.657 377.766,263.166 377.766,265.808 375.124,265.808 356.105,265.808 356.103,265.808 356.103,265.798 354.859,265.735 353.652,265.551 352.487,265.252 351.37,264.845 350.309,264.335 349.308,263.728 348.374,263.03 347.514,262.249 347.514,262.249 346.732,261.388 346.034,260.454 345.427,259.453 344.917,258.392 344.509,257.275 344.211,256.11 344.027,254.902 343.964,253.658 343.954,253.658 343.954,253.657 343.954,253.655 343.964,253.655 344.027,252.411 344.211,251.204 344.51,250.039 344.917,248.922 345.427,247.861 346.034,246.86 346.731,245.926 347.513,245.065 347.513,245.065 348.374,244.284 349.308,243.586 350.309,242.979 351.37,242.469 352.487,242.061 353.652,241.762 354.86,241.579 356.104,241.516 356.104,241.506 356.105,241.506 356.106,241.506 356.106,241.516 357.351,241.579 358.558,241.763 359.723,242.061 360.84,242.469 361.901,242.979 362.902,243.586 363.836,244.283 364.696,245.065 364.696,245.065 365.478,245.926 366.176,246.86 366.783,247.861 367.293,248.922 367.701,250.039 367.999,251.204 368.183,252.412 368.246,253.656 368.256,253.656 368.256,253.657 368.256,256.272 365.625,256.288 354.024,256.357" fill="none" stroke="black" stroke-width="0.1"/>
        <polygon id="_new_36_1" points="439.777,251.025 448.237,250.975 448.098,250.662 447.945,250.358 447.776,250.063 447.594,249.776 447.398,249.499 447.189,249.233 446.968,248.976 446.734,248.731 446.734,248.731 446.245,248.286 445.715,247.889 445.148,247.543 444.547,247.252 443.917,247.02 443.26,246.85 442.58,246.745 441.88,246.709 441.88,246.72 441.878,246.72 441.878,246.72 441.878,246.709 441.178,246.745 440.498,246.85 439.841,247.02 439.21,247.252 438.609,247.543 438.042,247.889 437.512,248.286 437.022,248.732 437.022,248.732 436.577,249.221 436.179,249.752 435.834,250.319 435.543,250.919 435.311,251.55 435.14,252.207 435.036,252.887 435.0,253.586 435.01,253.586 435.01,253.588 435.01,253.588 435.0,253.588 435.036,254.288 435.14,254.968 435.311,255.626 435.543,256.256 435.834,256.857 436.179,257.424 436.577,257.954 437.023,258.444 437.023,258.444 437.512,258.89 438.042,259.287 438.609,259.633 439.21,259.923 439.84,260.156 440.497,260.326 441.177,260.43 441.877,260.466 441.877,260.456 441.878,260.456 441.878,260.466 458.278,260.525 458.278,253.656 458.278,253.656 458.288,253.656 458.348,252.42 458.523,251.22 458.81,250.061 459.201,248.949 459.692,247.89 460.278,246.891 460.953,245.958 461.712,245.096 461.712,245.096 462.554,244.307 463.471,243.604 464.455,242.991 465.503,242.477 466.609,242.066 467.766,241.765 468.971,241.579 470.217,241.516 470.217,241.506 470.219,241.506 470.219,241.506 470.219,241.516 471.464,241.578 472.671,241.762 473.837,242.061 474.953,242.468 476.015,242.979 477.016,243.586 477.95,244.283 478.81,245.065 478.81,245.065 479.592,245.926 480.29,246.86 480.897,247.86 481.407,248.922 481.814,250.038 482.113,251.203 482.297,252.411 482.359,253.655 482.37,253.655 482.37,253.656 477.087,253.656 477.087,253.655 477.097,253.655 477.061,252.955 476.957,252.275 476.787,251.618 476.554,250.988 476.264,250.387 475.918,249.821 475.52,249.29 475.075,248.801 475.075,248.801 474.585,248.355 474.055,247.958 473.488,247.612 472.887,247.321 472.256,247.089 471.599,246.919 470.919,246.814 470.219,246.778 470.219,246.789 470.219,246.789 470.217,246.789 470.217,246.778 469.524,246.813 468.855,246.916 468.211,247.084 467.597,247.313 467.014,247.599 466.467,247.939 465.957,248.331 465.488,248.769 465.488,248.769 465.059,249.258 464.677,249.788 464.345,250.357 464.067,250.961 463.846,251.596 463.684,252.259 463.584,252.947 463.55,253.656 463.561,253.656 463.561,253.656 463.561,263.166 463.561,265.807 460.919,265.797 441.878,265.728 441.878,265.739 441.877,265.739 441.877,265.728 440.633,265.666 439.425,265.482 438.26,265.183 437.144,264.776 436.082,264.266 435.081,263.659 434.148,262.961 433.287,262.18 433.287,262.18 432.505,261.319 431.808,260.385 431.201,259.384 430.69,258.322 430.283,257.206 429.984,256.041 429.8,254.833 429.738,253.588 429.727,253.588 429.727,253.588 429.727,253.586 429.738,253.586 429.801,252.342 429.984,251.134 430.283,249.969 430.69,248.853 431.201,247.791 431.807,246.791 432.505,245.857 433.287,244.996 433.287,244.996 434.147,244.214 435.081,243.517 436.082,242.91 437.144,242.399 438.26,241.992 439.426,241.693 440.633,241.51 441.878,241.447 441.878,241.437 441.878,241.437 441.88,241.437 441.88,241.447 443.124,241.51 444.332,241.694 445.497,241.992 446.613,242.4 447.675,242.91 448.675,243.517 449.609,244.214 450.47,244.996 450.47,244.996 451.252,245.857 451.949,246.791 452.556,247.791 453.067,248.853 453.474,249.97 453.773,251.135 453.957,252.343 454.019,253.587 454.029,253.587 454.029,253.588 454.029,256.203 451.398,256.219 439.797,256.288" fill="none" stroke="black" stroke-width="0.1"/>
        <polygon id="center_00" cx="254.274" cy="253.5" points="266.1952,253.5 266.12989441906427,254.74610471630635 265.93469317786787,255.97855684857666 265.6117349420578,257.18385339334264 265.16455810964897,258.3487888694352 264.59806204359506,259.4606 263.91845339334265,260.50710554962905 263.1331780934811,261.4768397845252 262.2508397845252,262.3591780934811 261.28110554962905,263.14445339334264 260.2346,263.82406204359506 259.1227888694352,264.39055810964896 257.95785339334265,264.8377349420578 256.75255684857666,265.16069317786787 255.52010471630635,265.35589441906427 254.274,265.4212 253.02789528369365,265.35589441906427 251.79544315142334,265.16069317786787 250.59014660665738,264.8377349420578 249.42521113056478,264.39055810964896 248.3134,263.82406204359506 247.26689445037098,263.14445339334264 246.29716021547478,262.3591780934811 245.41482190651888,261.4768397845252 244.62954660665739,260.50710554962905 243.94993795640494,259.4606 243.38344189035104,258.3487888694352 242.93626505794222,257.18385339334264 242.61330682213216,255.9785568485767 242.41810558093573,254.74610471630635 242.3528,253.5 242.41810558093573,252.25389528369365 242.61330682213216,251.02144315142334 242.93626505794222,249.81614660665738 243.38344189035104,248.65121113056477 243.94993795640494,247.5394 244.62954660665739,246.49289445037098 245.41482190651888,245.52316021547477 246.29716021547478,244.64082190651888 247.26689445037096,243.85554660665738 248.3134,243.17593795640494 249.42521113056478,242.60944189035104 250.59014660665738,242.16226505794222 251.7954431514233,241.83930682213216 253.02789528369365,241.64410558093573 254.274,241.5788 255.52010471630635,241.64410558093573 256.75255684857666,241.83930682213216 257.95785339334265,242.16226505794222 259.1227888694352,242.60944189035104 260.2346,243.17593795640494 261.28110554962905,243.85554660665738 262.2508397845252,244.64082190651888 263.1331780934811,245.52316021547477 263.91845339334265,246.49289445037095 264.59806204359506,247.5394 265.16455810964897,248.65121113056477 265.6117349420578,249.81614660665738 265.93469317786787,251.0214431514233 266.12989441906427,252.25389528369365" fill="none" stroke="black" stroke-width="0.1"/>
    </g>
</svg>
