<!DOCTYPE svg PUBLIC "-//W3C//DTD SVG 1.1//EN" "http://www.w3.org/Graphics/SVG/1.1/DTD/svg11.dtd">
<svg xmlns="http://www.w3.org/2000/svg" width="297mm" height="210mm" viewBox="0 0 297 210">
    <defs id="_tag_72_"/>
    <g id="trashNode_001"/>
    <g id="_tag_73_">
        <polygon id="_new_32_2" points="203.003,258.408 203.275,258.408 203.735,258.36 204.181,258.271 204.613,258.142 205.027,257.976 205.422,257.773 205.796,257.537 206.146,257.269 206.472,256.971 206.472,256.971 206.79,256.621 207.074,256.242 207.321,255.837 207.529,255.408 207.695,254.958 207.816,254.488 207.891,254.002 207.916,253.502 207.909,253.502 207.909,253.502 207.909,253.501 207.916,253.501 207.891,253.001 207.816,252.515 207.695,252.046 207.529,251.596 207.321,251.167 207.074,250.762 206.79,250.383 206.472,250.033 206.472,250.033 206.122,249.715 205.743,249.431 205.338,249.184 204.909,248.976 204.459,248.81 203.989,248.689 203.504,248.614 203.004,248.589 203.004,248.596 203.003,248.596 203.002,248.596 203.002,248.589 202.502,248.614 202.017,248.689 201.547,248.81 201.097,248.976 200.668,249.184 200.263,249.431 199.885,249.715 199.535,250.033 199.535,250.033 199.216,250.383 198.933,250.762 198.685,251.167 198.478,251.596 198.312,252.046 198.19,252.516 198.116,253.001 198.09,253.501 198.098,253.501 198.098,253.502 198.098,253.503 198.09,253.503 198.116,254.003 198.19,254.488 198.312,254.958 198.478,255.408 198.685,255.837 198.932,256.242 199.216,256.621 199.534,256.97 199.534,256.97 199.86,257.268 200.21,257.536 200.584,257.773 200.98,257.975 201.394,258.142 201.826,258.271 202.272,258.36 202.732,258.408 203.003,258.408 203.003,262.181 175.833,262.181 173.946,262.181 173.946,260.294 173.946,253.502 173.946,253.501 173.954,253.501 173.998,252.612 174.13,251.75 174.343,250.917 174.634,250.12 174.999,249.362 175.432,248.647 175.93,247.98 176.489,247.365 176.489,247.365 177.104,246.806 177.771,246.308 178.486,245.875 179.244,245.51 180.041,245.219 180.873,245.006 181.736,244.875 182.625,244.83 182.625,244.823 182.626,244.823 182.626,244.823 182.626,244.83 183.515,244.875 184.378,245.006 185.21,245.219 186.007,245.51 186.766,245.875 187.481,246.308 188.148,246.807 188.763,247.365 188.763,247.365 189.321,247.98 189.819,248.647 190.253,249.362 190.617,250.12 190.908,250.917 191.122,251.749 191.253,252.612 191.298,253.501 191.305,253.501 191.305,253.502 187.531,253.502 187.531,253.501 187.539,253.501 187.513,253.001 187.439,252.515 187.317,252.046 187.151,251.596 186.943,251.167 186.697,250.762 186.413,250.383 186.094,250.033 186.094,250.033 185.745,249.715 185.366,249.431 184.961,249.184 184.532,248.976 184.081,248.81 183.612,248.689 183.126,248.614 182.626,248.589 182.626,248.596 182.626,248.596 182.625,248.596 182.625,248.589 182.125,248.614 181.639,248.689 181.17,248.81 180.72,248.976 180.291,249.184 179.886,249.431 179.507,249.715 179.157,250.033 179.157,250.033 178.839,250.383 178.555,250.762 178.308,251.167 178.1,251.596 177.935,252.046 177.813,252.516 177.738,253.001 177.713,253.501 177.72,253.501 177.72,253.502 177.72,258.408 195.844,258.408 195.505,257.872 195.206,257.31 194.947,256.724 194.73,256.116 194.559,255.488 194.434,254.842 194.357,254.18 194.331,253.503 194.324,253.503 194.324,253.502 194.324,253.501 194.331,253.501 194.376,252.612 194.507,251.75 194.721,250.917 195.012,250.12 195.376,249.362 195.81,248.647 196.308,247.98 196.867,247.365 196.867,247.365 197.481,246.806 198.148,246.308 198.863,245.875 199.621,245.51 200.419,245.219 201.251,245.006 202.113,244.875 203.002,244.83 203.002,244.823 203.003,244.823 203.004,244.823 203.004,244.83 203.892,244.875 204.755,245.006 205.588,245.219 206.385,245.51 207.143,245.875 207.858,246.308 208.525,246.807 209.14,247.365 209.14,247.365 209.699,247.98 210.197,248.647 210.63,249.362 210.995,250.12 211.286,250.917 211.499,251.749 211.63,252.612 211.675,253.501 211.683,253.501 211.683,253.502 211.683,253.502 211.675,253.502 211.649,254.179 211.573,254.842 211.448,255.488 211.277,256.116 211.06,256.724 210.801,257.31 210.501,257.872 210.162,258.408 227.532,258.408 227.533,258.408 227.533,258.415 227.685,258.407 227.834,258.384 227.978,258.346 228.116,258.294 228.248,258.23 228.373,258.153 228.49,258.065 228.599,257.966 228.599,257.966 228.698,257.857 228.786,257.74 228.863,257.615 228.928,257.482 228.98,257.344 229.017,257.2 229.041,257.051 229.049,256.899 229.041,256.899 229.041,256.898 229.041,256.897 229.049,256.897 229.041,256.744 229.017,256.596 228.98,256.452 228.928,256.314 228.863,256.182 228.786,256.057 228.698,255.94 228.599,255.831 228.599,255.824 228.492,255.726 228.376,255.639 228.251,255.564 228.12,255.5 227.981,255.449 227.836,255.412 227.687,255.389 227.532,255.381 227.532,255.389 227.532,255.389 219.985,255.389 219.983,255.389 219.983,255.381 219.442,255.354 218.917,255.274 218.41,255.144 217.924,254.968 217.463,254.746 217.028,254.483 216.623,254.18 216.249,253.841 216.253,253.838 215.913,253.463 215.609,253.056 215.345,252.621 215.123,252.16 214.946,251.675 214.816,251.169 214.736,250.645 214.709,250.106 214.701,250.106 214.701,250.106 214.701,250.105 214.709,250.105 214.736,249.563 214.816,249.038 214.945,248.531 215.122,248.046 215.344,247.584 215.607,247.149 215.91,246.744 216.249,246.37 216.253,246.374 216.628,246.034 217.034,245.73 217.469,245.466 217.93,245.244 218.415,245.067 218.921,244.937 219.445,244.857 219.984,244.83 219.984,244.823 219.985,244.823 232.844,244.823 232.844,248.596 219.985,248.596 219.984,248.596 219.984,248.589 219.83,248.596 219.68,248.619 219.535,248.657 219.397,248.707 219.265,248.771 219.14,248.847 219.024,248.934 218.917,249.031 218.917,249.038 218.818,249.147 218.73,249.264 218.653,249.389 218.588,249.521 218.537,249.66 218.499,249.803 218.476,249.952 218.468,250.105 218.475,250.105 218.475,250.106 218.475,250.106 218.468,250.106 218.476,250.26 218.498,250.41 218.536,250.555 218.586,250.693 218.65,250.825 218.726,250.95 218.813,251.066 218.91,251.173 218.917,251.173 219.026,251.272 219.143,251.36 219.268,251.437 219.4,251.502 219.539,251.553 219.682,251.591 219.831,251.614 219.983,251.622 219.983,251.615 219.985,251.615 227.532,251.615 227.532,251.615 227.532,251.622 228.072,251.65 228.595,251.73 229.101,251.86 229.586,252.037 230.047,252.259 230.482,252.523 230.889,252.826 231.264,253.166 231.267,253.163 231.607,253.536 231.909,253.942 232.172,254.376 232.394,254.838 232.571,255.323 232.7,255.83 232.78,256.355 232.807,256.897 232.815,256.897 232.815,256.898 232.815,256.899 232.807,256.899 232.78,257.44 232.7,257.966 232.571,258.473 232.394,258.958 232.172,259.42 231.909,259.855 231.606,260.26 231.267,260.634 231.267,260.634 230.894,260.973 230.488,261.275 230.053,261.539 229.592,261.76 229.106,261.937 228.6,262.067 228.074,262.147 227.533,262.174 227.533,262.181 227.532,262.181 203.003,262.181" fill="none" stroke="black" stroke-width="0.1"/>
        <polygon id="_new_33_1" points="242.257,251.672 248.3,251.636 248.201,251.413 248.091,251.196 247.971,250.984 247.841,250.78 247.701,250.582 247.552,250.392 247.393,250.209 247.227,250.033 247.227,250.033 246.877,249.715 246.498,249.431 246.093,249.185 245.664,248.977 245.214,248.811 244.744,248.69 244.259,248.615 243.759,248.589 243.759,248.597 243.758,248.597 243.758,248.597 243.758,248.589 243.258,248.615 242.772,248.69 242.303,248.811 241.852,248.977 241.423,249.185 241.018,249.432 240.639,249.716 240.289,250.034 240.289,250.034 239.971,250.384 239.687,250.762 239.44,251.167 239.233,251.596 239.067,252.047 238.945,252.516 238.87,253.001 238.845,253.501 238.852,253.501 238.852,253.502 238.852,253.503 238.845,253.503 238.87,254.003 238.945,254.488 239.067,254.958 239.233,255.409 239.44,255.838 239.688,256.243 239.971,256.621 240.29,256.971 240.29,256.971 240.639,257.289 241.018,257.573 241.423,257.82 241.852,258.028 242.302,258.194 242.772,258.315 243.257,258.39 243.757,258.415 243.757,258.408 243.758,258.408 255.456,258.408 255.456,253.502 255.456,253.502 255.464,253.502 255.506,252.619 255.632,251.762 255.836,250.934 256.116,250.14 256.467,249.384 256.885,248.67 257.367,248.003 257.909,247.387 257.909,247.387 258.511,246.824 259.166,246.322 259.869,245.884 260.618,245.517 261.407,245.223 262.234,245.008 263.094,244.876 263.985,244.83 263.985,244.823 263.986,244.823 263.986,244.823 263.986,244.83 264.87,244.875 265.733,245.005 266.568,245.217 267.373,245.507 268.14,245.869 268.866,246.3 269.547,246.796 270.176,247.351 270.176,247.351 270.752,247.966 271.268,248.634 271.718,249.35 272.097,250.11 272.4,250.91 272.623,251.744 272.761,252.609 272.808,253.501 272.815,253.501 272.815,253.502 272.815,258.408 284.513,258.408 284.514,258.408 284.514,258.415 285.014,258.39 285.499,258.315 285.969,258.194 286.419,258.028 286.848,257.82 287.253,257.573 287.632,257.289 287.982,256.971 287.982,256.971 288.3,256.621 288.584,256.242 288.831,255.837 289.039,255.409 289.205,254.958 289.326,254.489 289.401,254.003 289.426,253.504 289.419,253.504 289.419,253.502 289.419,253.502 289.426,253.502 289.401,253.002 289.326,252.516 289.205,252.047 289.039,251.596 288.831,251.167 288.584,250.762 288.3,250.383 287.982,250.033 287.982,250.033 287.632,249.715 287.253,249.431 286.848,249.185 286.419,248.977 285.969,248.811 285.5,248.69 285.014,248.615 284.514,248.589 284.514,248.597 284.513,248.597 284.513,248.597 284.513,248.589 284.013,248.615 283.527,248.69 283.058,248.811 282.607,248.977 282.178,249.185 281.773,249.432 281.394,249.716 281.044,250.034 281.044,250.034 280.746,250.359 280.478,250.71 280.242,251.084 280.039,251.479 279.873,251.893 279.744,252.325 279.655,252.771 279.607,253.231 279.607,253.501 279.607,253.502 279.607,255.767 275.834,255.767 275.834,253.502 275.834,253.501 275.834,242.182 279.607,242.182 279.607,246.344 280.143,246.005 280.705,245.705 281.291,245.446 281.899,245.229 282.527,245.058 283.173,244.933 283.836,244.856 284.513,244.83 284.513,244.823 284.513,244.823 284.514,244.823 284.514,244.83 285.403,244.875 286.265,245.007 287.098,245.22 287.895,245.511 288.653,245.875 289.368,246.309 290.035,246.807 290.65,247.365 290.65,247.365 291.209,247.98 291.707,248.647 292.14,249.362 292.505,250.12 292.796,250.918 293.009,251.75 293.14,252.613 293.185,253.502 293.193,253.502 293.193,253.502 293.193,253.504 293.185,253.504 293.14,254.392 293.009,255.255 292.796,256.087 292.505,256.884 292.14,257.642 291.707,258.357 291.209,259.024 290.65,259.639 290.65,259.639 290.035,260.197 289.368,260.696 288.653,261.129 287.895,261.494 287.098,261.785 286.265,261.998 285.402,262.13 284.514,262.174 284.514,262.182 284.513,262.182 270.928,262.182 269.041,262.182 269.041,260.295 269.041,253.502 269.041,253.501 269.049,253.501 269.022,253.005 268.944,252.522 268.817,252.055 268.644,251.607 268.429,251.179 268.173,250.775 267.88,250.398 267.552,250.048 267.552,250.048 267.188,249.727 266.795,249.44 266.376,249.191 265.933,248.981 265.47,248.813 264.99,248.691 264.494,248.615 263.986,248.589 263.986,248.597 263.986,248.597 263.985,248.597 263.985,248.589 263.49,248.614 263.011,248.688 262.552,248.808 262.113,248.971 261.697,249.176 261.305,249.419 260.942,249.698 260.607,250.011 260.607,250.011 260.3,250.36 260.027,250.739 259.79,251.146 259.592,251.577 259.433,252.03 259.318,252.504 259.247,252.995 259.222,253.502 259.23,253.502 259.23,253.502 259.23,260.295 259.23,262.182 257.343,262.182 243.758,262.182 243.757,262.182 243.757,262.174 242.868,262.129 242.006,261.998 241.173,261.785 240.376,261.494 239.618,261.129 238.903,260.696 238.236,260.198 237.621,259.639 237.621,259.639 237.063,259.024 236.565,258.358 236.131,257.643 235.767,256.884 235.476,256.087 235.262,255.254 235.131,254.392 235.086,253.503 235.079,253.503 235.079,253.502 235.079,253.501 235.086,253.501 235.131,252.613 235.262,251.75 235.476,250.918 235.767,250.12 236.131,249.362 236.565,248.648 237.063,247.981 237.621,247.366 237.621,247.366 238.236,246.807 238.903,246.309 239.618,245.875 240.376,245.511 241.174,245.22 242.006,245.006 242.869,244.875 243.758,244.83 243.758,244.823 243.758,244.823 243.759,244.823 243.759,244.83 244.648,244.875 245.511,245.007 246.343,245.22 247.14,245.511 247.898,245.875 248.613,246.309 249.28,246.807 249.895,247.365 249.895,247.365 250.453,247.98 250.952,248.647 251.385,249.362 251.75,250.12 252.041,250.918 252.254,251.75 252.385,252.613 252.43,253.502 252.438,253.502 252.438,253.502 252.438,255.371 250.558,255.382 242.272,255.431" fill="none" stroke="black" stroke-width="0.1"/>
        <polygon id="_new_34_1" points="336.967,253.502 336.967,253.502 336.974,253.502 337.017,252.619 337.143,251.762 337.347,250.934 337.627,250.14 337.978,249.384 338.396,248.67 338.878,248.003 339.42,247.387 339.42,247.387 340.022,246.824 340.676,246.321 341.38,245.884 342.128,245.516 342.918,245.223 343.745,245.007 344.605,244.875 345.495,244.83 345.495,244.822 345.496,244.822 345.497,244.822 345.497,244.83 346.385,244.875 347.248,245.006 348.08,245.219 348.878,245.51 349.636,245.875 350.351,246.308 351.018,246.807 351.633,247.365 351.633,247.365 352.192,247.98 352.69,248.647 353.123,249.362 353.488,250.12 353.779,250.917 353.992,251.749 354.123,252.612 354.168,253.501 354.175,253.501 354.175,253.502 354.175,253.502 354.168,253.502 354.123,254.391 353.992,255.254 353.779,256.086 353.488,256.884 353.123,257.642 352.69,258.357 352.191,259.024 351.633,259.639 351.633,259.639 351.018,260.197 350.351,260.695 349.636,261.129 348.878,261.493 348.081,261.784 347.248,261.998 346.386,262.129 345.497,262.174 345.497,262.181 345.496,262.181 345.496,262.174 325.269,262.174 325.269,258.415 345.496,258.415 345.496,258.407 345.497,258.407 345.497,258.415 345.997,258.389 346.483,258.315 346.952,258.193 347.402,258.027 347.831,257.82 348.236,257.573 348.615,257.289 348.965,256.971 348.965,256.971 349.283,256.621 349.567,256.242 349.814,255.837 350.022,255.408 350.187,254.957 350.309,254.488 350.384,254.002 350.409,253.502 350.402,253.502 350.402,253.502 350.402,253.501 350.409,253.501 350.384,253.001 350.309,252.515 350.187,252.046 350.022,251.596 349.814,251.167 349.567,250.762 349.283,250.383 348.965,250.033 348.965,250.033 348.615,249.715 348.236,249.431 347.831,249.184 347.402,248.976 346.952,248.81 346.482,248.689 345.996,248.614 345.497,248.589 345.497,248.596 345.496,248.596 345.495,248.596 345.495,248.589 345.0,248.614 344.522,248.688 344.062,248.807 343.623,248.971 343.207,249.175 342.816,249.418 342.452,249.698 342.118,250.011 342.118,250.011 341.811,250.36 341.538,250.739 341.301,251.145 341.102,251.577 340.944,252.03 340.829,252.504 340.758,252.995 340.733,253.502 340.741,253.502 340.741,253.502" fill="none" stroke="black" stroke-width="0.1"/>
        <polygon id="_new_35_1" points="303.39,251.672 309.434,251.636 309.335,251.413 309.225,251.196 309.104,250.984 308.974,250.78 308.834,250.582 308.685,250.392 308.527,250.209 308.36,250.033 308.36,250.033 308.01,249.715 307.632,249.432 307.227,249.185 306.798,248.977 306.348,248.811 305.878,248.69 305.393,248.615 304.893,248.589 304.893,248.597 304.892,248.597 304.891,248.597 304.891,248.589 304.392,248.615 303.906,248.69 303.436,248.811 302.986,248.977 302.557,249.185 302.152,249.432 301.773,249.716 301.423,250.034 301.423,250.034 301.105,250.384 300.821,250.762 300.574,251.167 300.366,251.596 300.2,252.047 300.079,252.516 300.004,253.001 299.979,253.501 299.986,253.501 299.986,253.502 299.986,253.503 299.979,253.503 300.004,254.003 300.079,254.488 300.2,254.958 300.366,255.408 300.574,255.837 300.821,256.243 301.105,256.621 301.423,256.971 301.423,256.971 301.773,257.289 302.152,257.573 302.557,257.82 302.986,258.028 303.436,258.194 303.905,258.315 304.391,258.39 304.891,258.415 304.891,258.408 304.892,258.408 316.59,258.408 316.59,253.502 316.59,253.502 316.597,253.502 316.64,252.618 316.767,251.761 316.973,250.934 317.254,250.142 317.607,249.389 318.028,248.679 318.513,248.016 319.058,247.405 319.058,247.405 319.662,246.847 320.317,246.351 321.022,245.919 321.771,245.556 322.56,245.267 323.386,245.055 324.245,244.924 325.134,244.88 325.134,244.872 325.135,244.872 325.135,244.872 325.135,244.88 326.024,244.924 326.887,245.056 327.719,245.269 328.517,245.56 329.275,245.924 329.99,246.358 330.657,246.856 331.272,247.415 331.272,247.415 331.83,248.03 332.328,248.697 332.762,249.411 333.126,250.17 333.417,250.967 333.631,251.799 333.762,252.662 333.807,253.55 333.814,253.55 333.814,253.551 330.04,253.551 330.04,253.55 330.048,253.55 330.022,253.051 329.948,252.565 329.826,252.096 329.66,251.645 329.453,251.216 329.206,250.811 328.922,250.433 328.604,250.083 328.604,250.083 328.254,249.765 327.875,249.481 327.47,249.234 327.041,249.026 326.591,248.86 326.121,248.739 325.635,248.664 325.135,248.638 325.135,248.646 325.135,248.646 325.134,248.646 325.134,248.638 324.637,248.663 324.156,248.736 323.694,248.854 323.253,249.015 322.835,249.217 322.442,249.457 322.077,249.733 321.741,250.043 321.741,250.043 321.434,250.388 321.161,250.762 320.924,251.164 320.726,251.59 320.567,252.04 320.452,252.51 320.38,252.998 320.356,253.502 320.364,253.502 320.364,253.502 320.364,260.295 320.364,262.182 318.477,262.182 304.892,262.182 304.891,262.182 304.891,262.174 304.002,262.129 303.14,261.998 302.307,261.785 301.51,261.494 300.752,261.129 300.037,260.696 299.37,260.198 298.755,259.639 298.755,259.639 298.197,259.024 297.698,258.358 297.265,257.643 296.9,256.884 296.609,256.087 296.396,255.254 296.265,254.392 296.22,253.503 296.212,253.503 296.212,253.502 296.212,253.501 296.22,253.501 296.265,252.613 296.396,251.75 296.609,250.918 296.9,250.12 297.265,249.362 297.698,248.648 298.196,247.981 298.755,247.366 298.755,247.366 299.37,246.807 300.037,246.309 300.752,245.875 301.51,245.511 302.308,245.22 303.14,245.006 304.003,244.875 304.891,244.83 304.891,244.823 304.892,244.823 304.893,244.823 304.893,244.83 305.781,244.875 306.644,245.007 307.476,245.22 308.274,245.511 309.032,245.875 309.747,246.309 310.414,246.807 311.028,247.365 311.028,247.365 311.587,247.98 312.085,248.647 312.519,249.362 312.883,250.12 313.174,250.918 313.388,251.75 313.519,252.613 313.564,253.502 313.571,253.502 313.571,253.502 313.571,255.371 311.692,255.382 303.405,255.431" fill="none" stroke="black" stroke-width="0.1"/>
        <polygon id="_new_36_1" points="364.657,251.623 370.701,251.587 370.601,251.363 370.491,251.146 370.371,250.935 370.241,250.73 370.101,250.533 369.952,250.342 369.794,250.159 369.627,249.984 369.627,249.984 369.277,249.666 368.899,249.382 368.493,249.135 368.065,248.928 367.614,248.762 367.145,248.64 366.659,248.565 366.16,248.54 366.16,248.547 366.159,248.547 366.158,248.547 366.158,248.54 365.658,248.565 365.172,248.64 364.703,248.762 364.252,248.928 363.823,249.135 363.418,249.382 363.039,249.666 362.69,249.984 362.69,249.984 362.371,250.334 362.088,250.713 361.841,251.118 361.633,251.547 361.467,251.997 361.346,252.467 361.271,252.952 361.245,253.452 361.253,253.452 361.253,253.453 361.253,253.454 361.245,253.454 361.271,253.953 361.346,254.439 361.467,254.909 361.633,255.359 361.841,255.788 362.088,256.193 362.372,256.572 362.69,256.922 362.69,256.922 363.04,257.24 363.418,257.524 363.824,257.771 364.252,257.978 364.703,258.144 365.172,258.266 365.658,258.341 366.157,258.366 366.157,258.359 366.159,258.359 366.159,258.366 377.872,258.409 377.872,253.502 377.872,253.501 377.88,253.501 377.922,252.619 378.048,251.762 378.252,250.934 378.532,250.14 378.883,249.384 379.301,248.67 379.783,248.003 380.325,247.387 380.325,247.387 380.927,246.824 381.582,246.322 382.285,245.884 383.033,245.517 383.823,245.223 384.65,245.008 385.51,244.875 386.4,244.83 386.4,244.823 386.402,244.823 386.402,244.823 386.402,244.83 387.291,244.875 388.154,245.006 388.986,245.219 389.783,245.511 390.542,245.875 391.257,246.309 391.924,246.807 392.538,247.366 392.538,247.366 393.097,247.98 393.595,248.647 394.029,249.362 394.393,250.12 394.684,250.918 394.897,251.75 395.029,252.612 395.073,253.501 395.081,253.501 395.081,253.502 391.307,253.502 391.307,253.501 391.315,253.501 391.289,253.001 391.214,252.516 391.093,252.046 390.927,251.596 390.719,251.167 390.472,250.762 390.189,250.383 389.87,250.034 389.87,250.034 389.52,249.715 389.142,249.431 388.737,249.184 388.308,248.977 387.857,248.811 387.388,248.689 386.902,248.614 386.402,248.589 386.402,248.596 386.402,248.596 386.4,248.596 386.4,248.589 385.906,248.614 385.427,248.688 384.968,248.808 384.529,248.971 384.113,249.175 383.721,249.418 383.357,249.698 383.023,250.011 383.023,250.011 382.716,250.36 382.443,250.739 382.206,251.145 382.008,251.577 381.849,252.03 381.734,252.504 381.663,252.995 381.638,253.501 381.646,253.501 381.646,253.502 381.646,260.295 381.646,262.181 379.759,262.174 366.159,262.125 366.159,262.132 366.157,262.132 366.157,262.125 365.269,262.08 364.406,261.949 363.574,261.736 362.777,261.444 362.018,261.08 361.303,260.647 360.637,260.149 360.022,259.59 360.022,259.59 359.463,258.975 358.965,258.308 358.531,257.593 358.167,256.835 357.876,256.037 357.663,255.205 357.531,254.342 357.487,253.454 357.479,253.454 357.479,253.453 357.479,253.452 357.487,253.452 357.531,252.563 357.663,251.701 357.876,250.868 358.167,250.071 358.531,249.313 358.965,248.598 359.463,247.931 360.021,247.316 360.021,247.316 360.636,246.758 361.303,246.26 362.018,245.826 362.777,245.461 363.574,245.17 364.406,244.957 365.269,244.826 366.158,244.781 366.158,244.774 366.159,244.774 366.16,244.774 366.16,244.781 367.048,244.826 367.911,244.957 368.743,245.171 369.541,245.462 370.299,245.826 371.014,246.259 371.68,246.758 372.295,247.316 372.295,247.316 372.854,247.931 373.352,248.598 373.786,249.313 374.15,250.071 374.441,250.869 374.654,251.701 374.786,252.564 374.83,253.452 374.838,253.452 374.838,253.453 374.838,255.321 372.958,255.332 364.672,255.382" fill="none" stroke="black" stroke-width="0.1"/>
        <polygon id="center_00" cx="254.274" cy="253.5" points="266.1952,253.5 266.12989441906427,254.74610471630635 265.93469317786787,255.97855684857666 265.6117349420578,257.18385339334264 265.16455810964897,258.3487888694352 264.59806204359506,259.4606 263.91845339334265,260.50710554962905 263.1331780934811,261.4768397845252 262.2508397845252,262.3591780934811 261.28110554962905,263.14445339334264 260.2346,263.82406204359506 259.1227888694352,264.39055810964896 257.95785339334265,264.8377349420578 256.75255684857666,265.16069317786787 255.52010471630635,265.35589441906427 254.274,265.4212 253.02789528369365,265.35589441906427 251.79544315142334,265.16069317786787 250.59014660665738,264.8377349420578 249.42521113056478,264.39055810964896 248.3134,263.82406204359506 247.26689445037098,263.14445339334264 246.29716021547478,262.3591780934811 245.41482190651888,261.4768397845252 244.62954660665739,260.50710554962905 243.94993795640494,259.4606 243.38344189035104,258.3487888694352 242.93626505794222,257.18385339334264 242.61330682213216,255.9785568485767 242.41810558093573,254.74610471630635 242.3528,253.5 242.41810558093573,252.25389528369365 242.61330682213216,251.02144315142334 242.93626505794222,249.81614660665738 243.38344189035104,248.65121113056477 243.94993795640494,247.5394 244.62954660665739,246.49289445037098 245.41482190651888,245.52316021547477 246.29716021547478,244.64082190651888 247.26689445037096,243.85554660665738 248.3134,243.17593795640494 249.42521113056478,242.60944189035104 250.59014660665738,242.16226505794222 251.7954431514233,241.83930682213216 253.02789528369365,241.64410558093573 254.274,241.5788 255.52010471630635,241.64410558093573 256.75255684857666,241.83930682213216 257.95785339334265,242.16226505794222 259.1227888694352,242.60944189035104 260.2346,243.17593795640494 261.28110554962905,243.85554660665738 262.2508397845252,244.64082190651888 263.1331780934811,245.52316021547477 263.91845339334265,246.49289445037095 264.59806204359506,247.5394 265.16455810964897,248.65121113056477 265.6117349420578,249.81614660665738 265.93469317786787,251.0214431514233 266.12989441906427,252.25389528369365" fill="none" stroke="black" stroke-width="0.1"/>
    </g>
</svg>
