<!DOCTYPE svg PUBLIC "-//W3C//DTD SVG 1.1//EN" "http://www.w3.org/Graphics/SVG/1.1/DTD/svg11.dtd">
<svg xmlns="http://www.w3.org/2000/svg" width="297mm" height="210mm" viewBox="0 0 297 210">
    <defs id="_tag_90_"/>
    <g id="trashNode_001"/>
    <g id="_tag_91_">
        <polygon id="_new_32_2" points="210.545,259.878 210.899,259.878 211.497,259.817 212.077,259.701 212.638,259.533 213.177,259.317 213.69,259.053 214.176,258.746 214.632,258.398 215.055,258.01 215.055,258.01 215.469,257.556 215.838,257.063 216.159,256.536 216.429,255.979 216.644,255.393 216.802,254.783 216.9,254.151 216.933,253.501 216.923,253.501 216.923,253.501 216.923,253.499 216.933,253.499 216.9,252.85 216.802,252.218 216.644,251.608 216.429,251.023 216.159,250.465 215.838,249.939 215.469,249.447 215.055,248.992 215.055,248.992 214.601,248.578 214.108,248.209 213.581,247.888 213.024,247.618 212.438,247.402 211.828,247.244 211.196,247.147 210.546,247.114 210.546,247.123 210.546,247.123 210.544,247.123 210.544,247.114 209.895,247.147 209.263,247.244 208.653,247.402 208.068,247.618 207.51,247.888 206.984,248.209 206.491,248.578 206.037,248.991 206.037,248.991 205.623,249.446 205.254,249.938 204.933,250.465 204.663,251.023 204.447,251.608 204.289,252.219 204.192,252.85 204.159,253.5 204.168,253.5 204.168,253.501 204.168,253.502 204.159,253.502 204.192,254.152 204.289,254.783 204.447,255.393 204.663,255.979 204.933,256.536 205.254,257.063 205.623,257.555 206.036,258.01 206.036,258.01 206.459,258.397 206.915,258.746 207.401,259.053 207.915,259.316 208.454,259.533 209.015,259.701 209.596,259.817 210.194,259.878 210.545,259.878 210.546,264.784 175.225,264.784 172.772,264.784 172.772,262.331 172.772,253.501 172.772,253.5 172.781,253.5 172.839,252.345 173.01,251.223 173.287,250.141 173.666,249.104 174.14,248.118 174.703,247.189 175.351,246.322 176.077,245.523 176.077,245.523 176.876,244.797 177.743,244.149 178.673,243.586 179.659,243.112 180.695,242.734 181.777,242.456 182.898,242.286 184.053,242.227 184.053,242.218 184.055,242.218 184.056,242.218 184.056,242.227 185.211,242.286 186.332,242.456 187.415,242.733 188.451,243.112 189.437,243.586 190.366,244.149 191.234,244.797 192.033,245.523 192.033,245.523 192.759,246.322 193.406,247.189 193.97,248.119 194.444,249.104 194.822,250.141 195.099,251.223 195.27,252.344 195.328,253.499 195.338,253.499 195.338,253.501 190.432,253.501 190.432,253.499 190.442,253.499 190.409,252.85 190.312,252.218 190.154,251.608 189.938,251.023 189.668,250.465 189.347,249.939 188.978,249.447 188.564,248.992 188.564,248.992 188.11,248.578 187.617,248.209 187.091,247.888 186.533,247.618 185.947,247.402 185.337,247.244 184.705,247.147 184.056,247.114 184.056,247.123 184.055,247.123 184.053,247.123 184.053,247.114 183.404,247.147 182.772,247.244 182.162,247.402 181.577,247.618 181.019,247.888 180.493,248.209 180.001,248.578 179.546,248.991 179.546,248.991 179.132,249.446 178.763,249.938 178.442,250.465 178.172,251.023 177.956,251.608 177.798,252.219 177.701,252.85 177.668,253.5 177.678,253.5 177.678,253.501 177.678,259.878 201.239,259.878 200.799,259.182 200.409,258.451 200.072,257.69 199.791,256.9 199.568,256.083 199.405,255.243 199.306,254.382 199.272,253.502 199.263,253.502 199.263,253.501 199.263,253.5 199.272,253.5 199.33,252.345 199.501,251.223 199.778,250.141 200.157,249.104 200.631,248.118 201.194,247.189 201.842,246.322 202.568,245.523 202.568,245.523 203.367,244.797 204.234,244.149 205.164,243.586 206.149,243.112 207.186,242.734 208.268,242.456 209.389,242.286 210.544,242.227 210.544,242.218 210.546,242.218 210.546,242.218 210.546,242.227 211.702,242.286 212.823,242.456 213.905,242.733 214.942,243.112 215.928,243.586 216.858,244.149 217.724,244.797 218.524,245.523 218.524,245.523 219.25,246.322 219.897,247.189 220.461,248.119 220.935,249.104 221.313,250.141 221.59,251.223 221.761,252.344 221.819,253.499 221.829,253.499 221.829,253.501 221.829,253.501 221.819,253.501 221.786,254.382 221.686,255.243 221.524,256.083 221.301,256.899 221.02,257.69 220.683,258.451 220.293,259.181 219.853,259.878 242.433,259.878 242.434,259.878 242.434,259.888 242.632,259.877 242.826,259.847 243.012,259.798 243.192,259.731 243.364,259.647 243.527,259.547 243.679,259.432 243.82,259.304 243.82,259.304 243.949,259.162 244.064,259.01 244.164,258.847 244.248,258.675 244.315,258.495 244.364,258.308 244.394,258.115 244.405,257.917 244.395,257.917 244.395,257.916 244.395,257.914 244.405,257.914 244.394,257.716 244.364,257.523 244.315,257.336 244.248,257.156 244.164,256.985 244.064,256.822 243.949,256.67 243.821,256.529 243.821,256.519 243.681,256.392 243.53,256.279 243.368,256.181 243.197,256.098 243.017,256.032 242.829,255.984 242.634,255.954 242.433,255.944 242.433,255.954 242.433,255.954 232.622,255.954 232.62,255.954 232.62,255.944 231.916,255.909 231.233,255.805 230.574,255.636 229.943,255.406 229.344,255.119 228.778,254.776 228.251,254.383 227.766,253.942 227.77,253.937 227.328,253.45 226.934,252.921 226.59,252.356 226.302,251.756 226.071,251.126 225.903,250.468 225.799,249.787 225.763,249.086 225.753,249.086 225.753,249.086 225.753,249.084 225.763,249.084 225.799,248.38 225.902,247.697 226.071,247.039 226.301,246.408 226.589,245.808 226.931,245.243 227.324,244.715 227.765,244.23 227.77,244.235 228.257,243.792 228.786,243.398 229.351,243.055 229.951,242.766 230.581,242.536 231.239,242.367 231.92,242.263 232.621,242.227 232.621,242.218 232.622,242.218 249.338,242.218 249.338,247.123 232.622,247.123 232.621,247.123 232.621,247.114 232.42,247.124 232.226,247.154 232.037,247.202 231.857,247.268 231.686,247.351 231.524,247.449 231.373,247.562 231.234,247.689 231.234,247.698 231.105,247.84 230.99,247.992 230.891,248.154 230.806,248.326 230.739,248.506 230.69,248.693 230.66,248.886 230.649,249.084 230.659,249.084 230.659,249.086 230.659,249.086 230.649,249.086 230.66,249.287 230.69,249.482 230.738,249.67 230.804,249.85 230.887,250.021 230.985,250.183 231.098,250.334 231.224,250.473 231.234,250.473 231.375,250.602 231.528,250.717 231.69,250.817 231.862,250.901 232.042,250.968 232.229,251.017 232.422,251.047 232.62,251.058 232.62,251.048 232.622,251.048 242.433,251.048 242.433,251.048 242.433,251.058 243.135,251.093 243.815,251.197 244.473,251.366 245.103,251.596 245.703,251.885 246.268,252.228 246.797,252.623 247.284,253.065 247.289,253.06 247.73,253.546 248.123,254.073 248.466,254.638 248.754,255.238 248.983,255.869 249.152,256.528 249.256,257.211 249.291,257.914 249.301,257.914 249.301,257.916 249.301,257.917 249.291,257.917 249.256,258.621 249.152,259.304 248.984,259.963 248.754,260.594 248.466,261.194 248.123,261.759 247.73,262.286 247.289,262.772 247.289,262.772 246.803,263.213 246.276,263.606 245.711,263.949 245.111,264.237 244.48,264.467 243.821,264.635 243.138,264.739 242.434,264.774 242.434,264.784 242.433,264.784 210.546,264.784" fill="none" stroke="black" stroke-width="0.1"/>
        <polygon id="_new_33_1" points="261.575,251.122 269.432,251.075 269.303,250.785 269.16,250.503 269.004,250.228 268.834,249.962 268.653,249.705 268.459,249.457 268.253,249.219 268.036,248.992 268.036,248.992 267.581,248.578 267.089,248.209 266.563,247.888 266.005,247.618 265.42,247.403 264.809,247.245 264.178,247.148 263.529,247.114 263.529,247.124 263.527,247.124 263.526,247.124 263.526,247.114 262.877,247.148 262.245,247.245 261.635,247.403 261.049,247.618 260.491,247.888 259.965,248.21 259.472,248.579 259.017,248.992 259.017,248.992 258.604,249.447 258.235,249.939 257.914,250.466 257.644,251.024 257.428,251.609 257.27,252.219 257.173,252.85 257.14,253.5 257.15,253.5 257.15,253.501 257.15,253.502 257.14,253.502 257.173,254.152 257.27,254.784 257.428,255.394 257.644,255.979 257.914,256.537 258.235,257.064 258.604,257.556 259.018,258.011 259.018,258.011 259.473,258.425 259.965,258.793 260.491,259.115 261.049,259.385 261.635,259.6 262.245,259.758 262.876,259.855 263.526,259.889 263.526,259.879 263.527,259.879 278.735,259.879 278.735,253.501 278.735,253.501 278.744,253.501 278.8,252.354 278.963,251.239 279.229,250.163 279.592,249.13 280.048,248.147 280.592,247.22 281.219,246.352 281.924,245.552 281.924,245.552 282.706,244.82 283.557,244.167 284.471,243.598 285.444,243.12 286.471,242.738 287.546,242.459 288.664,242.287 289.821,242.228 289.821,242.218 289.823,242.218 289.824,242.218 289.824,242.228 290.973,242.286 292.094,242.455 293.181,242.731 294.226,243.107 295.224,243.578 296.168,244.139 297.052,244.783 297.87,245.505 297.87,245.505 298.619,246.305 299.29,247.173 299.875,248.104 300.367,249.092 300.762,250.131 301.052,251.216 301.23,252.341 301.291,253.5 301.301,253.5 301.301,253.501 301.301,259.879 316.509,259.879 316.509,259.879 316.509,259.889 317.159,259.855 317.791,259.758 318.401,259.6 318.986,259.384 319.544,259.115 320.071,258.793 320.563,258.424 321.018,258.011 321.018,258.011 321.432,257.556 321.801,257.064 322.122,256.537 322.392,255.979 322.607,255.394 322.765,254.784 322.863,254.153 322.896,253.503 322.886,253.503 322.886,253.501 322.886,253.501 322.896,253.501 322.863,252.851 322.765,252.219 322.607,251.609 322.392,251.024 322.122,250.466 321.801,249.939 321.432,249.447 321.018,248.992 321.018,248.992 320.563,248.578 320.071,248.209 319.544,247.888 318.986,247.618 318.401,247.403 317.791,247.245 317.16,247.148 316.51,247.114 316.51,247.124 316.509,247.124 316.508,247.124 316.508,247.114 315.858,247.148 315.227,247.245 314.616,247.403 314.031,247.618 313.473,247.888 312.946,248.21 312.454,248.579 311.999,248.992 311.999,248.992 311.612,249.415 311.264,249.871 310.956,250.357 310.693,250.871 310.476,251.409 310.308,251.97 310.193,252.551 310.131,253.149 310.131,253.5 310.131,253.501 310.131,256.445 305.226,256.445 305.226,253.501 305.226,253.5 305.226,238.785 310.131,238.785 310.131,244.195 310.828,243.754 311.558,243.364 312.32,243.028 313.11,242.746 313.927,242.523 314.767,242.361 315.628,242.262 316.508,242.228 316.508,242.218 316.509,242.218 316.51,242.218 316.51,242.228 317.665,242.286 318.787,242.457 319.869,242.734 320.905,243.113 321.891,243.586 322.82,244.15 323.687,244.797 324.486,245.523 324.486,245.523 325.213,246.323 325.86,247.19 326.424,248.119 326.898,249.105 327.276,250.142 327.553,251.224 327.724,252.345 327.782,253.501 327.792,253.501 327.792,253.501 327.792,253.503 327.782,253.503 327.724,254.658 327.553,255.779 327.276,256.861 326.898,257.898 326.424,258.884 325.86,259.813 325.213,260.68 324.487,261.479 324.487,261.479 323.687,262.205 322.82,262.853 321.891,263.417 320.905,263.89 319.868,264.269 318.786,264.546 317.665,264.717 316.509,264.775 316.509,264.785 316.509,264.785 298.848,264.785 296.395,264.785 296.395,262.332 296.395,253.501 296.395,253.5 296.405,253.5 296.37,252.855 296.269,252.227 296.104,251.62 295.879,251.037 295.599,250.482 295.266,249.957 294.885,249.465 294.459,249.012 294.459,249.012 293.986,248.594 293.475,248.221 292.93,247.896 292.355,247.624 291.753,247.406 291.128,247.246 290.484,247.148 289.824,247.114 289.824,247.124 289.823,247.124 289.821,247.124 289.821,247.114 289.178,247.147 288.556,247.243 287.959,247.398 287.388,247.611 286.847,247.876 286.339,248.193 285.866,248.556 285.43,248.963 285.43,248.963 285.032,249.417 284.677,249.909 284.369,250.438 284.111,250.998 283.905,251.588 283.755,252.204 283.662,252.843 283.631,253.501 283.64,253.501 283.64,253.501 283.64,262.332 283.64,264.785 281.188,264.785 263.527,264.785 263.526,264.785 263.526,264.775 262.37,264.717 261.249,264.546 260.167,264.269 259.13,263.89 258.145,263.417 257.216,262.853 256.349,262.206 255.549,261.48 255.549,261.48 254.823,260.68 254.176,259.813 253.612,258.884 253.138,257.898 252.76,256.861 252.482,255.779 252.312,254.658 252.254,253.502 252.244,253.502 252.244,253.501 252.244,253.5 252.254,253.5 252.312,252.345 252.482,251.223 252.76,250.142 253.138,249.105 253.612,248.119 254.176,247.19 254.823,246.323 255.549,245.524 255.549,245.524 256.348,244.798 257.215,244.15 258.145,243.586 259.131,243.113 260.167,242.734 261.249,242.457 262.371,242.286 263.526,242.228 263.526,242.218 263.527,242.218 263.529,242.218 263.529,242.228 264.684,242.286 265.805,242.457 266.887,242.734 267.924,243.113 268.909,243.586 269.839,244.15 270.705,244.797 271.505,245.523 271.505,245.523 272.231,246.322 272.878,247.19 273.442,248.119 273.916,249.105 274.294,250.142 274.572,251.224 274.742,252.345 274.801,253.501 274.81,253.501 274.81,253.501 274.81,255.93 272.367,255.945 261.594,256.009" fill="none" stroke="black" stroke-width="0.1"/>
        <polygon id="_new_34_1" points="384.699,253.501 384.699,253.501 384.708,253.501 384.764,252.354 384.927,251.239 385.193,250.163 385.556,249.13 386.012,248.147 386.556,247.219 387.183,246.352 387.887,245.552 387.887,245.552 388.67,244.819 389.521,244.166 390.435,243.598 391.408,243.12 392.434,242.738 393.509,242.458 394.628,242.286 395.785,242.227 395.785,242.218 395.787,242.218 395.787,242.218 395.787,242.227 396.943,242.286 398.064,242.456 399.146,242.733 400.183,243.112 401.169,243.586 402.098,244.149 402.965,244.797 403.765,245.523 403.765,245.523 404.491,246.322 405.138,247.189 405.702,248.119 406.175,249.104 406.554,250.141 406.831,251.223 407.002,252.344 407.06,253.499 407.07,253.499 407.07,253.501 407.07,253.501 407.06,253.501 407.002,254.657 406.831,255.778 406.554,256.86 406.176,257.897 405.702,258.883 405.138,259.812 404.49,260.68 403.764,261.479 403.764,261.479 402.965,262.205 402.098,262.852 401.169,263.416 400.183,263.89 399.146,264.268 398.065,264.545 396.943,264.716 395.788,264.774 395.788,264.784 395.787,264.784 395.787,264.774 369.491,264.775 369.491,259.889 395.787,259.888 395.787,259.878 395.788,259.878 395.788,259.888 396.438,259.855 397.069,259.757 397.679,259.599 398.265,259.384 398.822,259.114 399.349,258.793 399.841,258.424 400.296,258.01 400.296,258.01 400.709,257.555 401.078,257.063 401.399,256.536 401.669,255.979 401.885,255.393 402.043,254.783 402.14,254.151 402.173,253.501 402.164,253.501 402.164,253.501 402.164,253.499 402.173,253.499 402.14,252.85 402.043,252.218 401.885,251.608 401.669,251.023 401.4,250.465 401.079,249.939 400.71,249.447 400.296,248.992 400.296,248.992 399.841,248.578 399.349,248.209 398.822,247.888 398.264,247.618 397.679,247.402 397.069,247.244 396.437,247.147 395.787,247.114 395.787,247.123 395.787,247.123 395.785,247.123 395.785,247.114 395.142,247.146 394.52,247.242 393.923,247.398 393.352,247.61 392.811,247.876 392.303,248.192 391.83,248.555 391.394,248.963 391.394,248.963 390.995,249.416 390.641,249.909 390.333,250.437 390.075,250.998 389.869,251.588 389.719,252.204 389.626,252.842 389.595,253.501 389.605,253.501 389.605,253.501" fill="none" stroke="black" stroke-width="0.1"/>
        <polygon id="_new_35_1" points="341.049,251.122 348.905,251.075 348.777,250.785 348.634,250.503 348.477,250.228 348.308,249.962 348.126,249.705 347.933,249.458 347.727,249.22 347.51,248.992 347.51,248.992 347.055,248.578 346.563,248.209 346.036,247.888 345.479,247.618 344.893,247.403 344.283,247.245 343.652,247.148 343.002,247.114 343.002,247.124 343.001,247.124 343.0,247.124 343.0,247.114 342.351,247.148 341.719,247.245 341.109,247.403 340.523,247.618 339.965,247.888 339.438,248.21 338.946,248.579 338.491,248.992 338.491,248.992 338.078,249.447 337.709,249.939 337.388,250.466 337.118,251.024 336.902,251.609 336.744,252.219 336.647,252.85 336.614,253.5 336.623,253.5 336.623,253.501 336.623,253.502 336.614,253.502 336.647,254.152 336.744,254.784 336.902,255.394 337.118,255.979 337.388,256.537 337.709,257.064 338.078,257.556 338.492,258.011 338.492,258.011 338.947,258.425 339.439,258.793 339.965,259.115 340.523,259.385 341.108,259.6 341.719,259.758 342.35,259.855 342.999,259.889 342.999,259.879 343.001,259.879 358.209,259.879 358.209,253.501 358.209,253.501 358.218,253.501 358.274,252.352 358.438,251.237 358.706,250.162 359.072,249.133 359.531,248.154 360.078,247.231 360.709,246.369 361.417,245.575 361.417,245.575 362.202,244.85 363.054,244.204 363.97,243.643 364.943,243.171 365.97,242.795 367.044,242.519 368.161,242.35 369.315,242.292 369.315,242.282 369.317,242.282 369.318,242.282 369.318,242.292 370.473,242.35 371.594,242.521 372.677,242.798 373.713,243.176 374.699,243.65 375.629,244.214 376.496,244.862 377.295,245.588 377.295,245.588 378.021,246.387 378.668,247.254 379.232,248.183 379.706,249.169 380.084,250.206 380.361,251.287 380.532,252.409 380.59,253.564 380.6,253.564 380.6,253.565 375.694,253.565 375.694,253.564 375.704,253.564 375.671,252.914 375.574,252.283 375.416,251.673 375.2,251.087 374.93,250.53 374.609,250.003 374.24,249.511 373.826,249.056 373.826,249.056 373.372,248.643 372.879,248.274 372.353,247.952 371.795,247.682 371.209,247.467 370.599,247.309 369.967,247.212 369.318,247.178 369.318,247.188 369.317,247.188 369.315,247.188 369.315,247.178 368.669,247.211 368.044,247.305 367.444,247.458 366.871,247.668 366.327,247.93 365.817,248.242 365.341,248.601 364.905,249.005 364.905,249.005 364.506,249.452 364.151,249.939 363.843,250.461 363.585,251.016 363.379,251.6 363.229,252.211 363.136,252.846 363.105,253.501 363.114,253.501 363.114,253.501 363.114,262.332 363.114,264.785 360.661,264.785 343.001,264.785 342.999,264.785 342.999,264.775 341.844,264.717 340.723,264.546 339.641,264.269 338.604,263.89 337.619,263.417 336.689,262.853 335.822,262.206 335.023,261.48 335.023,261.48 334.297,260.68 333.649,259.813 333.086,258.884 332.612,257.898 332.233,256.861 331.956,255.779 331.786,254.658 331.727,253.502 331.718,253.502 331.718,253.501 331.718,253.5 331.727,253.5 331.786,252.345 331.956,251.223 332.234,250.142 332.612,249.105 333.086,248.119 333.649,247.19 334.297,246.323 335.023,245.524 335.023,245.524 335.822,244.798 336.689,244.15 337.618,243.586 338.605,243.113 339.641,242.734 340.723,242.457 341.845,242.286 343.0,242.228 343.0,242.218 343.001,242.218 343.002,242.218 343.002,242.228 344.158,242.286 345.279,242.457 346.361,242.734 347.397,243.113 348.383,243.586 349.312,244.15 350.179,244.797 350.979,245.523 350.979,245.523 351.705,246.323 352.352,247.19 352.916,248.119 353.39,249.105 353.768,250.142 354.046,251.224 354.216,252.345 354.274,253.501 354.284,253.501 354.284,253.501 354.284,255.93 351.841,255.945 341.068,256.009" fill="none" stroke="black" stroke-width="0.1"/>
        <polygon id="_new_36_1" points="420.696,251.058 428.552,251.011 428.423,250.721 428.281,250.439 428.124,250.164 427.955,249.898 427.773,249.641 427.579,249.393 427.374,249.155 427.157,248.928 427.157,248.928 426.702,248.514 426.21,248.145 425.683,247.824 425.126,247.554 424.54,247.339 423.93,247.181 423.299,247.084 422.649,247.05 422.649,247.06 422.648,247.06 422.647,247.06 422.647,247.05 421.997,247.084 421.366,247.181 420.755,247.339 420.17,247.554 419.612,247.824 419.085,248.145 418.593,248.514 418.138,248.928 418.138,248.928 417.724,249.383 417.356,249.875 417.034,250.402 416.765,250.959 416.549,251.545 416.391,252.155 416.294,252.786 416.261,253.436 416.27,253.436 416.27,253.437 416.27,253.438 416.261,253.438 416.294,254.088 416.391,254.719 416.549,255.33 416.765,255.915 417.035,256.473 417.356,257.0 417.725,257.492 418.139,257.947 418.139,257.947 418.593,258.361 419.086,258.729 419.612,259.051 420.17,259.32 420.755,259.536 421.365,259.694 421.997,259.791 422.646,259.824 422.646,259.815 422.648,259.815 422.648,259.824 437.875,259.879 437.875,253.501 437.875,253.5 437.885,253.5 437.941,252.353 438.104,251.239 438.369,250.162 438.733,249.13 439.189,248.147 439.733,247.219 440.36,246.352 441.064,245.552 441.064,245.552 441.847,244.82 442.698,244.166 443.612,243.598 444.585,243.12 445.611,242.738 446.686,242.459 447.805,242.286 448.962,242.228 448.962,242.218 448.964,242.218 448.964,242.218 448.964,242.228 450.12,242.286 451.241,242.457 452.323,242.734 453.36,243.112 454.346,243.586 455.275,244.15 456.142,244.797 456.942,245.524 456.942,245.524 457.668,246.323 458.315,247.19 458.879,248.119 459.353,249.105 459.731,250.141 460.008,251.223 460.179,252.345 460.237,253.5 460.247,253.5 460.247,253.501 455.341,253.501 455.341,253.5 455.351,253.5 455.318,252.85 455.22,252.219 455.062,251.608 454.847,251.023 454.577,250.465 454.256,249.939 453.887,249.447 453.473,248.992 453.473,248.992 453.018,248.578 452.526,248.209 451.999,247.888 451.441,247.618 450.856,247.403 450.246,247.245 449.614,247.147 448.964,247.114 448.964,247.124 448.964,247.124 448.962,247.124 448.962,247.114 448.319,247.147 447.697,247.243 447.1,247.398 446.529,247.61 445.988,247.876 445.48,248.192 445.006,248.556 444.571,248.963 444.571,248.963 444.172,249.416 443.818,249.909 443.51,250.437 443.251,250.998 443.046,251.588 442.895,252.204 442.803,252.842 442.772,253.5 442.781,253.5 442.781,253.501 442.781,262.331 442.781,264.784 440.328,264.775 422.648,264.711 422.648,264.72 422.646,264.72 422.646,264.711 421.491,264.653 420.37,264.482 419.288,264.205 418.251,263.826 417.265,263.352 416.336,262.789 415.469,262.141 414.67,261.416 414.67,261.416 413.944,260.616 413.296,259.749 412.733,258.82 412.259,257.834 411.88,256.797 411.603,255.715 411.432,254.593 411.374,253.438 411.365,253.438 411.365,253.437 411.365,253.436 411.374,253.436 411.432,252.281 411.603,251.159 411.88,250.077 412.259,249.041 412.733,248.055 413.296,247.126 413.943,246.259 414.669,245.46 414.669,245.46 415.469,244.733 416.336,244.086 417.265,243.522 418.251,243.048 419.288,242.67 420.37,242.392 421.491,242.222 422.647,242.164 422.647,242.154 422.648,242.154 422.649,242.154 422.649,242.164 423.804,242.222 424.926,242.393 426.008,242.67 427.044,243.048 428.03,243.522 428.959,244.086 429.826,244.733 430.625,245.459 430.625,245.459 431.351,246.258 431.999,247.126 432.563,248.055 433.037,249.041 433.415,250.078 433.692,251.16 433.863,252.281 433.921,253.437 433.931,253.437 433.931,253.437 433.931,255.866 431.488,255.881 420.715,255.944" fill="none" stroke="black" stroke-width="0.1"/>
        <polygon id="center_00" cx="254.274" cy="253.5" points="266.1952,253.5 266.12989441906427,254.74610471630635 265.93469317786787,255.97855684857666 265.6117349420578,257.18385339334264 265.16455810964897,258.3487888694352 264.59806204359506,259.4606 263.91845339334265,260.50710554962905 263.1331780934811,261.4768397845252 262.2508397845252,262.3591780934811 261.28110554962905,263.14445339334264 260.2346,263.82406204359506 259.1227888694352,264.39055810964896 257.95785339334265,264.8377349420578 256.75255684857666,265.16069317786787 255.52010471630635,265.35589441906427 254.274,265.4212 253.02789528369365,265.35589441906427 251.79544315142334,265.16069317786787 250.59014660665738,264.8377349420578 249.42521113056478,264.39055810964896 248.3134,263.82406204359506 247.26689445037098,263.14445339334264 246.29716021547478,262.3591780934811 245.41482190651888,261.4768397845252 244.62954660665739,260.50710554962905 243.94993795640494,259.4606 243.38344189035104,258.3487888694352 242.93626505794222,257.18385339334264 242.61330682213216,255.9785568485767 242.41810558093573,254.74610471630635 242.3528,253.5 242.41810558093573,252.25389528369365 242.61330682213216,251.02144315142334 242.93626505794222,249.81614660665738 243.38344189035104,248.65121113056477 243.94993795640494,247.5394 244.62954660665739,246.49289445037098 245.41482190651888,245.52316021547477 246.29716021547478,244.64082190651888 247.26689445037096,243.85554660665738 248.3134,243.17593795640494 249.42521113056478,242.60944189035104 250.59014660665738,242.16226505794222 251.7954431514233,241.83930682213216 253.02789528369365,241.64410558093573 254.274,241.5788 255.52010471630635,241.64410558093573 256.75255684857666,241.83930682213216 257.95785339334265,242.16226505794222 259.1227888694352,242.60944189035104 260.2346,243.17593795640494 261.28110554962905,243.85554660665738 262.2508397845252,244.64082190651888 263.1331780934811,245.52316021547477 263.91845339334265,246.49289445037095 264.59806204359506,247.5394 265.16455810964897,248.65121113056477 265.6117349420578,249.81614660665738 265.93469317786787,251.0214431514233 266.12989441906427,252.25389528369365" fill="none" stroke="black" stroke-width="0.1"/>
    </g>
</svg>
