<!DOCTYPE svg PUBLIC "-//W3C//DTD SVG 1.1//EN" "http://www.w3.org/Graphics/SVG/1.1/DTD/svg11.dtd">
<svg xmlns="http://www.w3.org/2000/svg" width="297mm" height="210mm" viewBox="0 0 297 210">
    <defs id="_tag_40_"/>
    <g id="trashNode_001"/>
    <g id="_tag_41_">
        <polygon id="_132204712___0" points="115.174,161.244 117.864,161.245 117.938,161.244 118.01,161.243 118.084,161.241 118.157,161.239 118.23,161.236 118.303,161.232 118.376,161.227 118.448,161.221 118.448,161.221 118.483,161.218 118.518,161.215 118.553,161.212 118.588,161.208 118.623,161.204 118.658,161.2 118.693,161.196 118.728,161.192 118.728,161.192 118.762,161.187 118.796,161.182 118.83,161.177 118.864,161.172 118.898,161.167 118.932,161.161 118.965,161.155 118.999,161.149 118.999,161.149 119.032,161.143 119.065,161.137 119.098,161.13 119.131,161.124 119.164,161.117 119.197,161.109 119.229,161.102 119.262,161.094 119.262,161.094 119.294,161.087 119.326,161.079 119.358,161.071 119.39,161.062 119.422,161.053 119.453,161.045 119.485,161.036 119.517,161.026 119.517,161.026 119.548,161.017 119.579,161.007 119.611,160.997 119.641,160.987 119.673,160.977 119.703,160.966 119.734,160.956 119.765,160.945 119.765,160.945 119.796,160.934 119.826,160.922 119.856,160.91 119.886,160.899 119.917,160.887 119.947,160.874 119.976,160.862 120.006,160.849 120.006,160.849 120.036,160.836 120.066,160.823 120.095,160.81 120.125,160.796 120.154,160.782 120.183,160.768 120.212,160.754 120.241,160.74 120.241,160.74 120.27,160.725 120.299,160.71 120.328,160.695 120.357,160.679 120.385,160.664 120.414,160.648 120.442,160.632 120.47,160.616 120.47,160.616 120.499,160.599 120.527,160.582 120.555,160.565 120.583,160.548 120.611,160.531 120.639,160.513 120.667,160.495 120.694,160.477 120.694,160.477 120.722,160.459 120.75,160.44 120.778,160.421 120.805,160.402 120.832,160.382 120.86,160.363 120.887,160.343 120.914,160.323 120.914,160.323 120.941,160.303 120.968,160.282 120.995,160.261 121.022,160.24 121.049,160.219 121.076,160.198 121.102,160.176 121.129,160.154 121.129,160.154 121.156,160.132 121.182,160.109 121.209,160.087 121.236,160.064 121.262,160.04 121.288,160.017 121.314,159.993 121.34,159.97 121.34,159.97 121.366,159.945 121.393,159.921 121.419,159.896 121.445,159.871 121.471,159.846 121.497,159.82 121.522,159.795 121.548,159.769 121.548,159.769 121.574,159.743 121.6,159.716 121.626,159.689 121.652,159.662 121.677,159.635 121.703,159.608 121.728,159.58 121.753,159.553 121.753,159.553 121.779,159.524 121.805,159.495 121.83,159.466 121.856,159.437 121.881,159.408 121.906,159.378 121.931,159.349 121.956,159.319 121.956,159.319 121.982,159.288 122.007,159.257 122.033,159.226 122.058,159.195 122.083,159.164 122.108,159.132 122.133,159.101 122.157,159.069 122.157,159.069 122.183,159.036 122.208,159.003 122.233,158.97 122.259,158.936 122.283,158.903 122.308,158.869 122.333,158.836 122.357,158.802 122.357,158.802 122.383,158.767 122.408,158.731 122.433,158.696 122.458,158.66 122.483,158.625 122.508,158.589 122.532,158.553 122.557,158.517 122.557,158.517 122.582,158.48 122.607,158.442 122.632,158.404 122.657,158.367 122.682,158.329 122.707,158.291 122.731,158.253 122.756,158.214 122.756,158.214 122.781,158.175 122.806,158.135 122.831,158.095 122.856,158.055 122.881,158.015 122.906,157.975 122.931,157.934 122.955,157.894 122.955,157.894 123.007,157.808 123.057,157.723 123.108,157.636 123.158,157.55 123.207,157.463 123.257,157.376 123.305,157.289 123.354,157.202 125.098,154.054 124.034,152.011 124.113,151.996 124.191,151.98 124.269,151.963 124.346,151.945 124.424,151.926 124.501,151.905 124.578,151.883 124.654,151.861 124.654,151.861 124.691,151.849 124.727,151.838 124.763,151.826 124.799,151.814 124.835,151.802 124.871,151.789 124.907,151.776 124.943,151.763 124.943,151.763 124.977,151.75 125.012,151.737 125.046,151.723 125.081,151.709 125.115,151.695 125.149,151.681 125.183,151.666 125.217,151.651 125.217,151.651 125.25,151.636 125.283,151.621 125.316,151.606 125.348,151.59 125.381,151.574 125.413,151.558 125.446,151.541 125.478,151.525 125.478,151.525 125.509,151.508 125.541,151.491 125.572,151.474 125.603,151.457 125.634,151.439 125.665,151.421 125.696,151.403 125.726,151.385 125.726,151.385 125.756,151.366 125.786,151.348 125.816,151.329 125.846,151.31 125.875,151.29 125.905,151.271 125.934,151.251 125.963,151.231 125.963,151.231 125.992,151.211 126.021,151.19 126.049,151.17 126.077,151.149 126.106,151.128 126.134,151.107 126.162,151.086 126.189,151.064 126.189,151.064 126.217,151.042 126.245,151.02 126.272,150.998 126.299,150.975 126.326,150.953 126.353,150.93 126.38,150.907 126.406,150.884 126.406,150.884 126.433,150.86 126.459,150.837 126.486,150.813 126.512,150.789 126.538,150.765 126.564,150.74 126.589,150.716 126.615,150.691 126.615,150.691 126.64,150.666 126.666,150.64 126.691,150.615 126.716,150.589 126.741,150.564 126.766,150.538 126.791,150.512 126.816,150.485 126.816,150.485 126.84,150.459 126.865,150.432 126.89,150.405 126.914,150.378 126.938,150.35 126.962,150.323 126.986,150.295 127.01,150.268 127.01,150.268 127.034,150.239 127.058,150.211 127.082,150.182 127.105,150.154 127.129,150.125 127.152,150.096 127.176,150.067 127.199,150.038 127.199,150.038 127.222,150.008 127.245,149.978 127.269,149.948 127.292,149.918 127.315,149.887 127.338,149.857 127.36,149.827 127.383,149.796 127.383,149.796 127.406,149.765 127.429,149.733 127.452,149.702 127.474,149.67 127.497,149.638 127.519,149.607 127.542,149.575 127.564,149.543 127.564,149.543 127.587,149.51 127.609,149.477 127.632,149.444 127.654,149.411 127.676,149.378 127.698,149.345 127.72,149.312 127.742,149.278 127.742,149.278 127.765,149.244 127.787,149.21 127.809,149.176 127.831,149.141 127.854,149.107 127.875,149.072 127.897,149.038 127.919,149.003 127.919,149.003 127.941,148.967 127.964,148.932 127.986,148.896 128.008,148.86 128.03,148.824 128.052,148.789 128.074,148.753 128.095,148.717 128.095,148.717 128.118,148.68 128.14,148.643 128.162,148.606 128.184,148.569 128.207,148.531 128.229,148.494 128.25,148.457 128.272,148.42 128.272,148.42 128.318,148.343 128.363,148.265 128.408,148.188 128.452,148.11 128.497,148.032 128.541,147.954 128.586,147.876 128.63,147.798 133.268,139.458 131.31,135.715 126.8,135.715 122.685,143.041 118.818,149.926 117.573,152.143 112.461,161.245 115.174,161.244 116.375,159.117 120.29,152.182 121.566,149.926 128.332,137.842 129.651,137.842 130.545,139.543 126.204,147.33 126.163,147.402 126.122,147.474 126.08,147.546 126.038,147.617 125.996,147.688 125.953,147.759 125.91,147.83 125.866,147.9 125.866,147.9 125.845,147.932 125.825,147.965 125.804,147.997 125.783,148.029 125.763,148.061 125.742,148.093 125.72,148.125 125.699,148.157 125.699,148.157 125.679,148.187 125.659,148.216 125.638,148.246 125.618,148.276 125.597,148.305 125.576,148.334 125.555,148.364 125.534,148.393 125.534,148.393 125.514,148.421 125.494,148.448 125.474,148.475 125.453,148.502 125.433,148.529 125.412,148.557 125.391,148.583 125.37,148.61 125.37,148.61 125.35,148.635 125.33,148.66 125.31,148.685 125.289,148.71 125.269,148.735 125.248,148.759 125.227,148.784 125.206,148.808 125.206,148.808 125.186,148.831 125.166,148.854 125.146,148.876 125.125,148.899 125.104,148.922 125.084,148.944 125.063,148.966 125.041,148.988 125.041,148.988 125.021,149.009 125.001,149.029 124.98,149.05 124.96,149.07 124.939,149.09 124.918,149.11 124.897,149.13 124.875,149.15 124.875,149.15 124.855,149.168 124.834,149.187 124.813,149.205 124.792,149.224 124.771,149.242 124.75,149.259 124.728,149.277 124.707,149.295 124.707,149.295 124.686,149.311 124.665,149.328 124.643,149.344 124.622,149.36 124.6,149.376 124.579,149.392 124.557,149.408 124.535,149.423 124.535,149.423 124.513,149.438 124.492,149.452 124.47,149.466 124.448,149.481 124.426,149.495 124.404,149.508 124.381,149.522 124.359,149.535 124.359,149.535 124.337,149.548 124.315,149.56 124.292,149.573 124.27,149.585 124.247,149.597 124.224,149.609 124.201,149.62 124.178,149.632 124.178,149.632 124.155,149.643 124.132,149.654 124.109,149.664 124.086,149.675 124.063,149.685 124.039,149.695 124.016,149.704 123.992,149.714 123.992,149.714 123.968,149.723 123.944,149.732 123.92,149.741 123.896,149.749 123.872,149.758 123.848,149.766 123.824,149.774 123.799,149.781 123.799,149.781 123.774,149.789 123.75,149.796 123.725,149.803 123.7,149.81 123.675,149.817 123.65,149.823 123.625,149.829 123.599,149.835 123.599,149.835 123.574,149.841 123.548,149.847 123.522,149.852 123.496,149.857 123.47,149.862 123.444,149.867 123.418,149.872 123.391,149.876 123.391,149.876 123.364,149.88 123.337,149.884 123.31,149.888 123.283,149.892 123.256,149.895 123.229,149.899 123.202,149.902 123.175,149.904 123.175,149.904 123.117,149.91 123.06,149.914 123.003,149.918 122.945,149.921 122.888,149.923 122.83,149.925 122.773,149.926 122.715,149.926 121.566,149.926 120.29,152.182 121.354,152.182 122.375,154.138 121.056,156.521 121.017,156.592 120.977,156.662 120.936,156.733 120.895,156.803 120.854,156.873 120.812,156.942 120.769,157.012 120.727,157.081 120.727,157.081 120.706,157.113 120.686,157.144 120.666,157.176 120.645,157.208 120.625,157.239 120.604,157.271 120.583,157.302 120.562,157.334 120.562,157.334 120.542,157.363 120.521,157.393 120.501,157.422 120.481,157.451 120.46,157.481 120.439,157.51 120.418,157.539 120.397,157.568 120.397,157.568 120.377,157.595 120.357,157.622 120.337,157.649 120.316,157.676 120.295,157.703 120.274,157.73 120.254,157.757 120.232,157.783 120.232,157.783 120.212,157.808 120.192,157.833 120.171,157.858 120.15,157.883 120.13,157.907 120.109,157.932 120.088,157.956 120.066,157.98 120.066,157.98 120.046,158.003 120.025,158.026 120.005,158.049 119.984,158.071 119.963,158.094 119.941,158.116 119.92,158.138 119.899,158.16 119.899,158.16 119.878,158.181 119.857,158.202 119.836,158.222 119.815,158.243 119.793,158.263 119.772,158.283 119.75,158.303 119.728,158.323 119.728,158.323 119.707,158.342 119.686,158.36 119.665,158.379 119.643,158.397 119.621,158.416 119.599,158.433 119.577,158.451 119.555,158.469 119.555,158.469 119.534,158.486 119.512,158.503 119.49,158.519 119.468,158.535 119.446,158.552 119.423,158.568 119.401,158.583 119.378,158.599 119.378,158.599 119.356,158.614 119.334,158.629 119.311,158.643 119.289,158.658 119.266,158.672 119.243,158.685 119.22,158.699 119.197,158.713 119.197,158.713 119.174,158.726 119.152,158.739 119.128,158.752 119.105,158.764 119.082,158.776 119.058,158.788 119.035,158.8 119.011,158.812 119.011,158.812 118.988,158.823 118.964,158.834 118.94,158.845 118.916,158.856 118.892,158.866 118.868,158.876 118.844,158.886 118.82,158.896 118.82,158.896 118.795,158.905 118.771,158.915 118.746,158.924 118.722,158.933 118.697,158.941 118.672,158.95 118.647,158.958 118.622,158.966 118.622,158.966 118.597,158.973 118.572,158.981 118.546,158.988 118.52,158.995 118.495,159.002 118.469,159.009 118.444,159.015 118.418,159.022 118.418,159.022 118.391,159.028 118.365,159.033 118.339,159.039 118.312,159.045 118.286,159.05 118.259,159.055 118.233,159.06 118.206,159.064 118.206,159.064 118.179,159.069 118.151,159.073 118.124,159.077 118.096,159.081 118.069,159.084 118.042,159.088 118.014,159.091 117.987,159.094 117.987,159.094 117.929,159.1 117.871,159.104 117.813,159.108 117.756,159.111 117.698,159.114 117.64,159.116 117.582,159.116 117.524,159.117 116.375,159.117" fill="none" stroke="black" stroke-width="0.1"/>
        <polygon id="_132204712___0_0" points="78.3242,161.244 81.0147,161.245 81.0877,161.244 81.1608,161.243 81.2338,161.241 81.3069,161.239 81.3799,161.236 81.4529,161.232 81.5258,161.227 81.5987,161.221 81.5987,161.221 81.6337,161.218 81.6686,161.215 81.7037,161.212 81.7387,161.208 81.7736,161.204 81.8085,161.2 81.8434,161.196 81.8783,161.192 81.8783,161.192 81.9123,161.187 81.9462,161.182 81.9802,161.177 82.0141,161.172 82.048,161.167 82.0818,161.161 82.1156,161.155 82.1493,161.149 82.1493,161.149 82.1823,161.143 82.2153,161.137 82.2482,161.13 82.2811,161.124 82.3139,161.117 82.3467,161.109 82.3795,161.102 82.4122,161.094 82.4122,161.094 82.4442,161.087 82.4763,161.079 82.5082,161.071 82.5402,161.062 82.572,161.053 82.6038,161.045 82.6356,161.036 82.6672,161.026 82.6672,161.026 82.6985,161.017 82.7297,161.007 82.7607,160.997 82.7918,160.987 82.8228,160.977 82.8537,160.966 82.8845,160.956 82.9152,160.945 82.9152,160.945 82.9457,160.934 82.9761,160.922 83.0064,160.91 83.0366,160.899 83.0667,160.887 83.0967,160.874 83.1266,160.862 83.1565,160.849 83.1565,160.849 83.1862,160.836 83.2158,160.823 83.2454,160.81 83.2748,160.796 83.3041,160.782 83.3333,160.768 83.3626,160.754 83.3915,160.74 83.3915,160.74 83.4205,160.725 83.4493,160.71 83.4781,160.695 83.507,160.679 83.5355,160.664 83.564,160.648 83.5924,160.632 83.6206,160.616 83.6206,160.616 83.6491,160.599 83.6774,160.582 83.7056,160.565 83.7336,160.548 83.7615,160.531 83.7893,160.513 83.8171,160.495 83.8447,160.477 83.8447,160.477 83.8725,160.459 83.9003,160.44 83.9278,160.421 83.9553,160.402 83.9826,160.382 84.0099,160.363 84.0369,160.343 84.0639,160.323 84.0639,160.323 84.0912,160.303 84.1185,160.282 84.1455,160.261 84.1725,160.24 84.1993,160.219 84.2261,160.198 84.2526,160.176 84.2789,160.154 84.2789,160.154 84.3058,160.132 84.3326,160.109 84.3592,160.087 84.3857,160.064 84.4121,160.04 84.4382,160.017 84.4643,159.993 84.4902,159.97 84.4902,159.97 84.5167,159.945 84.5431,159.921 84.5692,159.896 84.5953,159.871 84.6213,159.846 84.647,159.82 84.6728,159.795 84.6982,159.769 84.6982,159.769 84.7243,159.743 84.7503,159.716 84.7762,159.689 84.8019,159.662 84.8275,159.635 84.853,159.608 84.8782,159.58 84.9034,159.553 84.9034,159.553 84.9293,159.524 84.955,159.495 84.9806,159.466 85.0061,159.437 85.0314,159.408 85.0565,159.378 85.0816,159.349 85.1064,159.319 85.1064,159.319 85.1321,159.288 85.1576,159.257 85.1829,159.226 85.2081,159.195 85.2332,159.164 85.2582,159.132 85.283,159.101 85.3076,159.069 85.3076,159.069 85.333,159.036 85.3585,159.003 85.3837,158.97 85.4088,158.936 85.4336,158.903 85.4584,158.869 85.4831,158.836 85.5077,158.802 85.5077,158.802 85.533,158.767 85.5584,158.731 85.5835,158.696 85.6084,158.66 85.6332,158.625 85.6579,158.589 85.6825,158.553 85.7069,158.517 85.7069,158.517 85.7323,158.48 85.7575,158.442 85.7826,158.404 85.8074,158.367 85.8322,158.329 85.8569,158.291 85.8816,158.253 85.906,158.214 85.906,158.214 85.9314,158.175 85.9566,158.135 85.9817,158.095 86.0066,158.055 86.0314,158.015 86.0561,157.975 86.0808,157.934 86.1053,157.894 86.1053,157.894 86.1567,157.808 86.2077,157.723 86.2581,157.636 86.3081,157.55 86.3576,157.463 86.4068,157.376 86.4555,157.289 86.5039,157.202 88.2485,154.054 87.1846,152.011 87.2629,151.996 87.341,151.98 87.419,151.963 87.4967,151.945 87.5741,151.926 87.6512,151.905 87.728,151.883 87.8045,151.861 87.8045,151.861 87.8408,151.849 87.8772,151.838 87.9134,151.826 87.9496,151.814 87.9855,151.802 88.0214,151.789 88.0574,151.776 88.0931,151.763 88.0931,151.763 88.1277,151.75 88.1622,151.737 88.1966,151.723 88.231,151.709 88.2653,151.695 88.2994,151.681 88.3334,151.666 88.3673,151.651 88.3673,151.651 88.4003,151.636 88.4332,151.621 88.4661,151.606 88.4986,151.59 88.5312,151.574 88.5637,151.558 88.596,151.541 88.6281,151.525 88.6281,151.525 88.6596,151.508 88.691,151.491 88.7222,151.474 88.7533,151.457 88.7844,151.439 88.8151,151.421 88.8459,151.403 88.8764,151.385 88.8764,151.385 88.9065,151.366 88.9365,151.348 88.9664,151.329 88.996,151.31 89.0256,151.29 89.055,151.271 89.0842,151.251 89.1133,151.231 89.1133,151.231 89.1421,151.211 89.1708,151.19 89.1992,151.17 89.2277,151.149 89.2559,151.128 89.2839,151.107 89.3119,151.086 89.3397,151.064 89.3397,151.064 89.3673,151.042 89.3949,151.02 89.4221,150.998 89.4494,150.975 89.4764,150.953 89.5033,150.93 89.5301,150.907 89.5566,150.884 89.5566,150.884 89.5832,150.86 89.6096,150.837 89.6359,150.813 89.662,150.789 89.688,150.765 89.7138,150.74 89.7394,150.716 89.7649,150.691 89.7649,150.691 89.7905,150.666 89.8161,150.64 89.8414,150.615 89.8665,150.589 89.8916,150.564 89.9164,150.538 89.9412,150.512 89.9658,150.485 89.9658,150.485 89.9906,150.459 90.0153,150.432 90.0397,150.405 90.0642,150.378 90.0884,150.35 90.1124,150.323 90.1363,150.295 90.1601,150.268 90.1601,150.268 90.1842,150.239 90.2081,150.211 90.232,150.182 90.2557,150.154 90.2792,150.125 90.3026,150.096 90.3259,150.067 90.349,150.038 90.349,150.038 90.3724,150.008 90.3958,149.978 90.4189,149.948 90.4421,149.918 90.4651,149.887 90.4879,149.857 90.5106,149.827 90.5332,149.796 90.5332,149.796 90.5563,149.765 90.5793,149.733 90.602,149.702 90.6246,149.67 90.6473,149.638 90.6696,149.607 90.692,149.575 90.7141,149.543 90.7141,149.543 90.7367,149.51 90.7594,149.477 90.7819,149.444 90.8041,149.411 90.8263,149.378 90.8486,149.345 90.8706,149.312 90.8925,149.278 90.8925,149.278 90.9149,149.244 90.9373,149.21 90.9595,149.176 90.9816,149.141 91.0037,149.107 91.0257,149.072 91.0475,149.038 91.0694,149.003 91.0694,149.003 91.0918,148.967 91.114,148.932 91.1361,148.896 91.1582,148.86 91.1802,148.824 91.2022,148.789 91.224,148.753 91.2457,148.717 91.2457,148.717 91.2681,148.68 91.2903,148.643 91.3126,148.606 91.3347,148.569 91.3568,148.531 91.3788,148.494 91.4008,148.457 91.4226,148.42 91.4226,148.42 91.4679,148.343 91.513,148.265 91.5578,148.188 91.6026,148.11 91.6472,148.032 91.6917,147.954 91.736,147.876 91.7802,147.798 96.4182,139.458 94.4606,135.715 89.9505,135.715 85.8354,143.041 81.9683,149.926 80.7232,152.143 75.6107,161.245 78.3242,161.244 79.5253,159.117 83.4401,152.182 84.7166,149.926 91.4821,137.842 92.8013,137.842 93.695,139.543 89.3545,147.33 89.3137,147.402 89.2724,147.474 89.2307,147.546 89.1886,147.617 89.1462,147.688 89.1033,147.759 89.0599,147.83 89.016,147.9 89.016,147.9 88.9956,147.932 88.9751,147.965 88.9545,147.997 88.9337,148.029 88.9127,148.061 88.8918,148.093 88.8706,148.125 88.8493,148.157 88.8493,148.157 88.8291,148.187 88.8088,148.216 88.7885,148.246 88.7679,148.276 88.7473,148.305 88.7264,148.334 88.7054,148.364 88.6843,148.393 88.6843,148.393 88.6643,148.421 88.6442,148.448 88.6239,148.475 88.6035,148.502 88.5829,148.529 88.5621,148.557 88.5413,148.583 88.5204,148.61 88.5204,148.61 88.5003,148.635 88.4803,148.66 88.46,148.685 88.4396,148.71 88.419,148.735 88.3983,148.759 88.3775,148.784 88.3564,148.808 88.3564,148.808 88.3364,148.831 88.3161,148.854 88.2958,148.876 88.2752,148.899 88.2545,148.922 88.2337,148.944 88.2128,148.966 88.1917,148.988 88.1917,148.988 88.1714,149.009 88.1511,149.029 88.1306,149.05 88.1099,149.07 88.0891,149.09 88.068,149.11 88.0469,149.13 88.0256,149.15 88.0256,149.15 88.005,149.168 87.9842,149.187 87.9634,149.205 87.9423,149.224 87.9212,149.242 87.8999,149.259 87.8784,149.277 87.8569,149.295 87.8569,149.295 87.8359,149.311 87.8148,149.328 87.7936,149.344 87.7722,149.36 87.7506,149.376 87.7289,149.392 87.707,149.408 87.685,149.423 87.685,149.423 87.6636,149.438 87.6419,149.452 87.6201,149.466 87.5983,149.481 87.5762,149.495 87.5541,149.508 87.5317,149.522 87.5092,149.535 87.5092,149.535 87.4871,149.548 87.4649,149.56 87.4424,149.573 87.4199,149.585 87.3972,149.597 87.3745,149.609 87.3516,149.62 87.3286,149.632 87.3286,149.632 87.3057,149.643 87.2826,149.654 87.2594,149.664 87.2361,149.675 87.2129,149.685 87.1895,149.695 87.1659,149.704 87.1423,149.714 87.1423,149.714 87.1185,149.723 87.0946,149.732 87.0707,149.741 87.0465,149.749 87.0224,149.758 86.9981,149.766 86.9738,149.774 86.9495,149.781 86.9495,149.781 86.9247,149.789 86.8999,149.796 86.875,149.803 86.8501,149.81 86.825,149.817 86.7999,149.823 86.7748,149.829 86.7496,149.835 86.7496,149.835 86.7238,149.841 86.6979,149.847 86.6721,149.852 86.6461,149.857 86.62,149.862 86.594,149.867 86.5679,149.872 86.5417,149.876 86.5417,149.876 86.5147,149.88 86.4877,149.884 86.4607,149.888 86.4335,149.892 86.4065,149.895 86.3794,149.899 86.3521,149.902 86.3249,149.904 86.3249,149.904 86.2677,149.91 86.2104,149.914 86.153,149.918 86.0956,149.921 86.038,149.923 85.9806,149.925 85.9231,149.926 85.8656,149.926 84.7166,149.926 83.4401,152.182 84.5038,152.182 85.525,154.138 84.2064,156.521 84.1669,156.592 84.1268,156.662 84.0863,156.733 84.0455,156.803 84.0041,156.873 83.9622,156.942 83.9198,157.012 83.8769,157.081 83.8769,157.081 83.8567,157.113 83.8364,157.144 83.816,157.176 83.7954,157.208 83.7749,157.239 83.754,157.271 83.7331,157.302 83.712,157.334 83.712,157.334 83.692,157.363 83.6717,157.393 83.6514,157.422 83.6308,157.451 83.6103,157.481 83.5895,157.51 83.5686,157.539 83.5476,157.568 83.5476,157.568 83.5274,157.595 83.5071,157.622 83.4868,157.649 83.4661,157.676 83.4454,157.703 83.4246,157.73 83.4038,157.757 83.3826,157.783 83.3826,157.783 83.3623,157.808 83.342,157.833 83.3214,157.858 83.3008,157.883 83.2799,157.907 83.259,157.932 83.2378,157.956 83.2166,157.98 83.2166,157.98 83.1962,158.003 83.1755,158.026 83.1548,158.049 83.1338,158.071 83.1128,158.094 83.0916,158.116 83.0702,158.138 83.0488,158.16 83.0488,158.16 83.028,158.181 83.0071,158.202 82.9861,158.222 82.9649,158.243 82.9435,158.263 82.9221,158.283 82.9005,158.303 82.8786,158.323 82.8786,158.323 82.8574,158.342 82.8362,158.36 82.8148,158.379 82.7932,158.397 82.7715,158.416 82.7496,158.433 82.7276,158.451 82.7055,158.469 82.7055,158.469 82.6839,158.486 82.6621,158.503 82.6402,158.519 82.6181,158.535 82.596,158.552 82.5736,158.568 82.5513,158.583 82.5287,158.599 82.5287,158.599 82.5064,158.614 82.4842,158.629 82.4617,158.643 82.4391,158.658 82.4164,158.672 82.3935,158.685 82.3707,158.699 82.3475,158.713 82.3475,158.713 82.3246,158.726 82.3018,158.739 82.2786,158.752 82.2555,158.764 82.2322,158.776 82.2087,158.788 82.1853,158.8 82.1616,158.812 82.1616,158.812 82.1379,158.823 82.1143,158.834 82.0905,158.845 82.0666,158.856 82.0425,158.866 82.0185,158.876 81.9943,158.886 81.97,158.896 81.97,158.896 81.9456,158.905 81.9211,158.915 81.8966,158.924 81.8719,158.933 81.8472,158.941 81.8224,158.95 81.7974,158.958 81.7725,158.966 81.7725,158.966 81.7471,158.973 81.7218,158.981 81.6963,158.988 81.6707,158.995 81.6451,159.002 81.6195,159.009 81.5938,159.015 81.568,159.022 81.568,159.022 81.5418,159.028 81.5154,159.033 81.4891,159.039 81.4627,159.045 81.4362,159.05 81.4095,159.055 81.383,159.06 81.3564,159.064 81.3564,159.064 81.329,159.069 81.3016,159.073 81.2742,159.077 81.2468,159.081 81.2192,159.084 81.1918,159.088 81.1643,159.091 81.1367,159.094 81.1367,159.094 81.0791,159.1 81.0214,159.104 80.9636,159.108 80.9058,159.111 80.848,159.114 80.7901,159.116 80.7322,159.116 80.6744,159.117 79.5253,159.117" fill="none" stroke="black" stroke-width="0.1"/>
        <polygon id="center_00" cx="105.774" cy="148.5" points="117.6952,148.5 117.62989441906426,149.74610471630635 117.43469317786784,150.97855684857666 117.11173494205778,152.18385339334262 116.66455810964898,153.34878886943523 116.09806204359505,154.4606 115.41845339334263,155.50710554962905 114.63317809348112,156.47683978452523 113.75083978452523,157.35917809348112 112.78110554962903,158.14445339334262 111.7346,158.82406204359506 110.62278886943523,159.39055810964896 109.45785339334263,159.83773494205778 108.25255684857667,160.16069317786784 107.02010471630635,160.35589441906427 105.774,160.4212 104.52789528369365,160.35589441906427 103.29544315142333,160.16069317786784 102.09014660665738,159.83773494205778 100.92521113056478,159.39055810964896 99.8134,158.82406204359506 98.76689445037097,158.14445339334262 97.79716021547479,157.35917809348112 96.9148219065189,156.47683978452523 96.12954660665739,155.50710554962905 95.44993795640495,154.4606 94.88344189035102,153.34878886943523 94.43626505794222,152.18385339334262 94.11330682213216,150.9785568485767 93.91810558093574,149.74610471630635 93.8528,148.5 93.91810558093574,147.25389528369365 94.11330682213216,146.02144315142334 94.43626505794222,144.81614660665738 94.88344189035102,143.65121113056477 95.44993795640495,142.5394 96.12954660665737,141.49289445037098 96.91482190651888,140.52316021547477 97.79716021547478,139.64082190651888 98.76689445037097,138.85554660665738 99.8134,138.17593795640494 100.92521113056476,137.60944189035104 102.09014660665737,137.16226505794222 103.29544315142333,136.83930682213216 104.52789528369364,136.64410558093573 105.774,136.5788 107.02010471630635,136.64410558093573 108.25255684857666,136.83930682213216 109.45785339334262,137.16226505794222 110.62278886943523,137.60944189035104 111.7346,138.17593795640494 112.78110554962903,138.85554660665738 113.75083978452521,139.64082190651888 114.6331780934811,140.52316021547477 115.41845339334262,141.49289445037095 116.09806204359505,142.5394 116.66455810964897,143.65121113056477 117.11173494205778,144.81614660665738 117.43469317786784,146.0214431514233 117.62989441906426,147.25389528369365" fill="none" stroke="black" stroke-width="0.1"/>
        <polygon id="_131954472___1" points="133.141,153.032 134.29,153.032 132.247,161.245 134.801,161.245 136.758,152.905 136.818,152.892 136.877,152.879 136.937,152.866 136.996,152.851 137.055,152.836 137.113,152.82 137.172,152.803 137.23,152.786 137.23,152.786 137.259,152.777 137.288,152.768 137.316,152.759 137.345,152.749 137.373,152.739 137.402,152.73 137.43,152.72 137.458,152.709 137.681,152.621 137.708,152.609 137.736,152.596 137.763,152.584 137.791,152.572 137.818,152.559 137.845,152.546 137.872,152.533 137.899,152.519 137.899,152.519 137.926,152.506 137.953,152.492 137.98,152.478 138.006,152.464 138.033,152.449 138.06,152.435 138.086,152.42 138.113,152.405 138.113,152.405 138.139,152.389 138.166,152.374 138.192,152.358 138.219,152.342 138.245,152.326 138.271,152.31 138.297,152.293 138.323,152.276 138.323,152.276 138.349,152.259 138.375,152.242 138.401,152.224 138.427,152.207 138.453,152.189 138.479,152.171 138.504,152.152 138.53,152.134 138.53,152.134 138.556,152.115 138.582,152.095 138.607,152.076 138.633,152.056 138.658,152.037 138.684,152.017 138.709,151.997 138.734,151.976 138.734,151.976 138.76,151.955 138.785,151.934 138.811,151.912 138.836,151.891 138.861,151.869 138.887,151.847 138.911,151.825 138.936,151.803 138.936,151.803 138.962,151.78 138.987,151.757 139.013,151.733 139.038,151.71 139.063,151.686 139.088,151.662 139.113,151.638 139.137,151.614 139.137,151.614 139.162,151.589 139.188,151.564 139.213,151.538 139.238,151.513 139.263,151.487 139.288,151.461 139.313,151.435 139.337,151.409 139.337,151.409 139.363,151.382 139.388,151.354 139.413,151.327 139.438,151.299 139.463,151.271 139.488,151.243 139.512,151.215 139.537,151.187 139.537,151.187 139.562,151.157 139.587,151.127 139.613,151.097 139.637,151.068 139.662,151.037 139.687,151.007 139.712,150.977 139.736,150.947 139.736,150.947 139.762,150.915 139.787,150.883 139.813,150.851 139.838,150.818 139.863,150.786 139.887,150.754 139.912,150.721 139.937,150.689 139.937,150.689 139.963,150.654 139.988,150.62 140.013,150.585 140.039,150.551 140.064,150.516 140.089,150.481 140.114,150.447 140.139,150.412 140.139,150.412 140.165,150.375 140.19,150.338 140.216,150.301 140.242,150.264 140.267,150.227 140.292,150.19 140.317,150.153 140.342,150.116 140.342,150.116 140.369,150.077 140.394,150.037 140.421,149.998 140.446,149.958 140.472,149.919 140.498,149.879 140.523,149.84 140.548,149.8 140.548,149.8 140.575,149.758 140.601,149.716 140.628,149.674 140.654,149.632 140.68,149.59 140.706,149.548 140.732,149.506 140.757,149.464 140.757,149.464 140.812,149.373 140.866,149.283 140.92,149.192 140.974,149.101 141.027,149.01 141.079,148.918 141.131,148.826 141.183,148.734 146.417,139.373 144.503,135.715 140.119,135.715 125.779,161.245 128.503,161.245 134.333,150.905 141.652,137.842 142.843,137.842 143.652,139.415 138.673,148.309 138.632,148.381 138.59,148.453 138.549,148.524 138.507,148.596 138.464,148.667 138.421,148.738 138.378,148.808 138.334,148.878 138.334,148.878 138.314,148.911 138.293,148.943 138.273,148.975 138.252,149.007 138.231,149.039 138.21,149.071 138.189,149.103 138.167,149.135 138.167,149.135 138.147,149.165 138.127,149.195 138.107,149.224 138.086,149.254 138.065,149.284 138.044,149.313 138.024,149.342 138.002,149.372 138.002,149.372 137.982,149.399 137.962,149.426 137.942,149.454 137.922,149.481 137.901,149.508 137.88,149.535 137.859,149.562 137.838,149.589 137.838,149.589 137.818,149.614 137.798,149.639 137.778,149.664 137.757,149.689 137.737,149.713 137.716,149.738 137.696,149.762 137.674,149.787 137.674,149.787 137.654,149.81 137.634,149.832 137.614,149.855 137.593,149.878 137.573,149.9 137.552,149.922 137.531,149.944 137.51,149.966 137.51,149.966 137.489,149.987 137.469,150.008 137.449,150.028 137.428,150.049 137.407,150.069 137.386,150.089 137.365,150.109 137.344,150.128 137.344,150.128 137.323,150.147 137.302,150.166 137.281,150.184 137.261,150.202 137.239,150.22 137.218,150.238 137.197,150.256 137.175,150.273 137.175,150.273 137.154,150.29 137.133,150.306 137.112,150.323 137.09,150.339 137.069,150.355 137.047,150.371 137.025,150.386 137.003,150.402 137.003,150.402 136.982,150.416 136.96,150.431 136.938,150.445 136.916,150.459 136.894,150.473 136.872,150.487 136.85,150.5 136.827,150.514 136.827,150.514 136.805,150.527 136.783,150.539 136.76,150.552 136.738,150.564 136.715,150.576 136.693,150.588 136.67,150.599 136.647,150.611 136.647,150.611 136.624,150.622 136.601,150.632 136.577,150.643 136.554,150.653 136.531,150.663 136.508,150.673 136.484,150.683 136.46,150.692 136.46,150.692 136.437,150.702 136.413,150.711 136.389,150.719 136.365,150.728 136.34,150.736 136.316,150.744 136.292,150.752 136.268,150.76 136.268,150.76 136.243,150.767 136.218,150.775 136.193,150.782 136.168,150.789 136.143,150.795 136.118,150.802 136.093,150.808 136.068,150.814 136.068,150.814 136.042,150.82 136.016,150.825 135.99,150.831 135.964,150.836 135.938,150.841 135.912,150.846 135.886,150.85 135.86,150.855 135.86,150.855 135.833,150.859 135.806,150.863 135.779,150.867 135.752,150.87 135.725,150.874 135.697,150.877 135.67,150.88 135.643,150.883 135.643,150.883 135.586,150.888 135.528,150.893 135.471,150.897 135.414,150.9 135.356,150.902 135.299,150.903 135.241,150.904 135.184,150.905 134.333,150.905" fill="none" stroke="black" stroke-width="0.1"/>
        <polygon id="_131954472___1_1" points="200.417,153.032 201.566,153.032 199.523,161.245 202.077,161.245 204.034,152.905 204.093,152.892 204.153,152.879 204.212,152.866 204.272,152.851 204.331,152.836 204.389,152.82 204.448,152.803 204.506,152.786 204.506,152.786 204.535,152.777 204.564,152.768 204.592,152.759 204.621,152.749 204.649,152.739 204.678,152.73 204.706,152.72 204.734,152.709 204.957,152.621 204.984,152.609 205.012,152.596 205.039,152.584 205.067,152.572 205.094,152.559 205.121,152.546 205.148,152.533 205.175,152.519 205.175,152.519 205.202,152.506 205.229,152.492 205.256,152.478 205.282,152.464 205.309,152.449 205.336,152.435 205.362,152.42 205.388,152.405 205.388,152.405 205.415,152.389 205.442,152.374 205.468,152.358 205.494,152.342 205.521,152.326 205.547,152.31 205.572,152.293 205.598,152.276 205.598,152.276 205.625,152.259 205.651,152.242 205.677,152.224 205.703,152.207 205.729,152.189 205.754,152.171 205.78,152.152 205.805,152.134 205.805,152.134 205.831,152.115 205.857,152.095 205.883,152.076 205.909,152.056 205.934,152.037 205.959,152.017 205.985,151.997 206.01,151.976 206.01,151.976 206.035,151.955 206.061,151.934 206.087,151.912 206.112,151.891 206.137,151.869 206.162,151.847 206.187,151.825 206.212,151.803 206.212,151.803 206.238,151.78 206.263,151.757 206.288,151.733 206.314,151.71 206.339,151.686 206.363,151.662 206.388,151.638 206.413,151.614 206.413,151.614 206.438,151.589 206.464,151.564 206.489,151.538 206.514,151.513 206.539,151.487 206.564,151.461 206.588,151.435 206.613,151.409 206.613,151.409 206.638,151.382 206.664,151.354 206.689,151.327 206.714,151.299 206.738,151.271 206.763,151.243 206.788,151.215 206.812,151.187 206.812,151.187 206.838,151.157 206.863,151.127 206.888,151.097 206.913,151.068 206.938,151.037 206.963,151.007 206.988,150.977 207.012,150.947 207.012,150.947 207.037,150.915 207.063,150.883 207.088,150.851 207.113,150.818 207.138,150.786 207.163,150.754 207.188,150.721 207.213,150.689 207.213,150.689 207.238,150.654 207.264,150.62 207.289,150.585 207.315,150.551 207.34,150.516 207.365,150.481 207.39,150.447 207.414,150.412 207.414,150.412 207.44,150.375 207.466,150.338 207.492,150.301 207.517,150.264 207.543,150.227 207.568,150.19 207.593,150.153 207.618,150.116 207.618,150.116 207.644,150.077 207.67,150.037 207.696,149.998 207.722,149.958 207.748,149.919 207.774,149.879 207.799,149.84 207.824,149.8 207.824,149.8 207.851,149.758 207.877,149.716 207.903,149.674 207.93,149.632 207.956,149.59 207.982,149.548 208.007,149.506 208.033,149.464 208.033,149.464 208.088,149.373 208.142,149.283 208.196,149.192 208.249,149.101 208.302,149.01 208.355,148.918 208.407,148.826 208.459,148.734 213.693,139.373 211.778,135.715 207.395,135.715 193.055,161.245 195.779,161.245 201.608,150.905 208.927,137.842 210.119,137.842 210.927,139.415 205.948,148.309 205.907,148.381 205.866,148.453 205.825,148.524 205.782,148.596 205.74,148.667 205.697,148.738 205.654,148.808 205.61,148.878 205.61,148.878 205.589,148.911 205.569,148.943 205.548,148.975 205.527,149.007 205.507,149.039 205.486,149.071 205.464,149.103 205.443,149.135 205.443,149.135 205.423,149.165 205.403,149.195 205.382,149.224 205.362,149.254 205.341,149.284 205.32,149.313 205.299,149.342 205.278,149.372 205.278,149.372 205.258,149.399 205.238,149.426 205.218,149.454 205.197,149.481 205.177,149.508 205.156,149.535 205.135,149.562 205.114,149.589 205.114,149.589 205.094,149.614 205.074,149.639 205.054,149.664 205.033,149.689 205.013,149.713 204.992,149.738 204.971,149.762 204.95,149.787 204.95,149.787 204.93,149.81 204.91,149.832 204.89,149.855 204.869,149.878 204.848,149.9 204.828,149.922 204.807,149.944 204.786,149.966 204.786,149.966 204.765,149.987 204.745,150.008 204.724,150.028 204.704,150.049 204.683,150.069 204.662,150.089 204.641,150.109 204.619,150.128 204.619,150.128 204.599,150.147 204.578,150.166 204.557,150.184 204.536,150.202 204.515,150.22 204.494,150.238 204.472,150.256 204.451,150.273 204.451,150.273 204.43,150.29 204.409,150.306 204.387,150.323 204.366,150.339 204.344,150.355 204.323,150.371 204.301,150.386 204.279,150.402 204.279,150.402 204.257,150.416 204.236,150.431 204.214,150.445 204.192,150.459 204.17,150.473 204.148,150.487 204.125,150.5 204.103,150.514 204.103,150.514 204.081,150.527 204.059,150.539 204.036,150.552 204.014,150.564 203.991,150.576 203.968,150.588 203.945,150.599 203.922,150.611 203.922,150.611 203.899,150.622 203.876,150.632 203.853,150.643 203.83,150.653 203.807,150.663 203.783,150.673 203.76,150.683 203.736,150.692 203.736,150.692 203.712,150.702 203.688,150.711 203.665,150.719 203.64,150.728 203.616,150.736 203.592,150.744 203.568,150.752 203.543,150.76 203.543,150.76 203.519,150.767 203.494,150.775 203.469,150.782 203.444,150.789 203.419,150.795 203.394,150.802 203.369,150.808 203.344,150.814 203.344,150.814 203.318,150.82 203.292,150.825 203.266,150.831 203.24,150.836 203.214,150.841 203.188,150.846 203.162,150.85 203.136,150.855 203.136,150.855 203.108,150.859 203.082,150.863 203.055,150.867 203.028,150.87 203.0,150.874 202.973,150.877 202.946,150.88 202.919,150.883 202.919,150.883 202.862,150.888 202.804,150.893 202.747,150.897 202.689,150.9 202.632,150.902 202.574,150.903 202.517,150.904 202.459,150.905 201.608,150.905" fill="none" stroke="black" stroke-width="0.1"/>
        <polygon id="_132883608_1" points="59.7815,137.756 59.7204,137.765 59.6594,137.775 59.5983,137.785 59.5374,137.795 59.4765,137.805 59.4158,137.816 59.355,137.828 59.2944,137.839 59.2944,137.839 59.2671,137.845 59.2399,137.851 59.2128,137.856 59.1856,137.862 59.1586,137.868 59.1316,137.874 59.1046,137.88 59.0776,137.887 59.0776,137.887 59.0525,137.893 59.0275,137.899 59.0026,137.905 58.9776,137.911 58.9528,137.918 58.928,137.925 58.9033,137.932 58.8786,137.939 58.8786,137.939 58.8556,137.946 58.8325,137.952 58.8095,137.959 58.7866,137.967 58.7638,137.974 58.741,137.981 58.7183,137.989 58.6956,137.997 58.6956,137.997 58.6743,138.004 58.6531,138.012 58.6319,138.02 58.6108,138.028 58.5897,138.036 58.5688,138.045 58.548,138.053 58.5272,138.062 58.5272,138.062 58.5074,138.071 58.4877,138.079 58.4681,138.088 58.4486,138.097 58.4292,138.107 58.4098,138.116 58.3905,138.125 58.3714,138.135 58.3714,138.135 58.3529,138.145 58.3344,138.155 58.3162,138.165 58.2979,138.175 58.2798,138.186 58.2619,138.196 58.244,138.207 58.2263,138.218 58.2263,138.218 58.2089,138.229 58.1915,138.24 58.1743,138.252 58.1573,138.263 58.1403,138.275 58.1235,138.287 58.1068,138.299 58.0903,138.312 58.0903,138.312 58.0737,138.324 58.0573,138.337 58.0412,138.35 58.025,138.363 58.009,138.376 57.9932,138.389 57.9774,138.403 57.9619,138.416 57.9619,138.416 57.946,138.431 57.9304,138.445 57.9147,138.459 57.8993,138.474 57.8841,138.489 57.8688,138.504 57.8538,138.519 57.839,138.534 57.839,138.534 57.8236,138.55 57.8083,138.566 57.7932,138.582 57.7783,138.599 57.7635,138.615 57.7488,138.632 57.7342,138.648 57.7199,138.665 57.7199,138.665 57.7048,138.683 57.6898,138.701 57.675,138.719 57.6603,138.738 57.6457,138.756 57.6313,138.774 57.617,138.793 57.6027,138.812 57.6027,138.812 57.5877,138.831 57.5729,138.851 57.5581,138.872 57.5434,138.892 57.5289,138.912 57.5144,138.933 57.5001,138.953 57.4859,138.974 57.4859,138.974 57.4707,138.996 57.4556,139.018 57.4407,139.04 57.4259,139.062 57.4111,139.085 57.3965,139.107 57.3819,139.13 57.3674,139.153 57.3674,139.153 57.3519,139.177 57.3365,139.201 57.3212,139.226 57.3059,139.251 57.2906,139.275 57.2755,139.3 57.2605,139.325 57.2455,139.35 57.2455,139.35 57.2294,139.377 57.2133,139.404 57.1973,139.43 57.1814,139.458 57.1655,139.485 57.1497,139.512 57.1339,139.539 57.1183,139.566 56.8451,140.054 53.1432,146.564 53.1134,146.618 53.0841,146.672 53.0551,146.727 53.0264,146.781 52.9982,146.836 52.9703,146.891 52.943,146.947 52.9161,147.003 52.9161,147.003 52.9038,147.028 52.8917,147.054 52.8797,147.08 52.8678,147.106 52.856,147.132 52.8444,147.159 52.8329,147.185 52.8215,147.211 52.8215,147.211 52.8109,147.236 52.8004,147.261 52.7901,147.286 52.7799,147.312 52.7699,147.337 52.7599,147.362 52.7503,147.388 52.7408,147.413 52.7408,147.413 52.7319,147.437 52.7231,147.462 52.7146,147.486 52.7062,147.511 52.6979,147.535 52.6899,147.56 52.682,147.585 52.6742,147.61 52.6742,147.61 52.6671,147.634 52.6601,147.658 52.6533,147.681 52.6467,147.705 52.6404,147.73 52.6341,147.754 52.6282,147.778 52.6224,147.802 52.6224,147.802 52.617,147.826 52.6118,147.849 52.6067,147.873 52.6021,147.897 52.5976,147.92 52.5932,147.944 52.5892,147.968 52.5853,147.992 52.5853,147.992 52.5818,148.016 52.5784,148.039 52.5753,148.063 52.5725,148.086 52.5699,148.11 52.5676,148.133 52.5654,148.157 52.5636,148.181 52.5636,148.181 52.5619,148.204 52.5606,148.228 52.5594,148.251 52.5585,148.275 52.5579,148.298 52.5575,148.322 52.5572,148.346 52.5574,148.369 52.5574,148.369 52.5577,148.393 52.5583,148.417 52.5592,148.44 52.5602,148.464 52.5616,148.488 52.5632,148.512 52.565,148.536 52.567,148.559 52.567,148.559 52.5695,148.583 52.5721,148.608 52.5749,148.632 52.578,148.656 52.5814,148.68 52.585,148.704 52.5889,148.728 52.5929,148.752 52.5929,148.752 52.5974,148.777 52.6021,148.801 52.6071,148.826 52.6123,148.851 52.6177,148.875 52.6234,148.9 52.6294,148.924 52.6354,148.949 52.6354,148.949 52.642,148.974 52.6489,149.0 52.656,149.025 52.6632,149.05 52.6709,149.075 52.6786,149.101 52.6865,149.126 52.6947,149.151 52.7709,149.36 52.7937,149.416 52.8174,149.471 52.8417,149.527 52.8667,149.581 52.8925,149.636 52.9188,149.69 52.9457,149.744 52.9731,149.798 53.952,151.713 53.9692,151.747 53.9864,151.781 54.0035,151.814 54.0204,151.848 54.0372,151.882 54.0539,151.916 54.0704,151.95 54.0868,151.985 54.0868,151.985 54.0946,152.001 54.1024,152.018 54.1101,152.034 54.1179,152.051 54.1255,152.067 54.1331,152.084 54.1408,152.1 54.1483,152.117 54.1483,152.117 54.1555,152.133 54.1629,152.149 54.1701,152.165 54.1772,152.182 54.1843,152.198 54.1914,152.214 54.1984,152.231 54.2054,152.247 54.2054,152.247 54.2121,152.263 54.2189,152.279 54.2256,152.295 54.2322,152.311 54.2388,152.327 54.2452,152.343 54.2517,152.359 54.258,152.375 54.258,152.375 54.2642,152.391 54.2704,152.406 54.2765,152.422 54.2826,152.438 54.2885,152.454 54.2945,152.47 54.3003,152.486 54.3061,152.502 54.3061,152.502 54.3118,152.518 54.3174,152.533 54.3228,152.549 54.3282,152.565 54.3337,152.58 54.339,152.596 54.3441,152.612 54.3493,152.628 54.3493,152.628 54.3543,152.643 54.3594,152.659 54.3643,152.674 54.3691,152.69 54.3739,152.706 54.3787,152.721 54.3833,152.737 54.3878,152.753 54.3878,152.753 54.3922,152.768 54.3966,152.784 54.4009,152.8 54.4052,152.815 54.4093,152.831 54.4133,152.846 54.4173,152.862 54.4213,152.878 54.4213,152.878 54.4251,152.893 54.4288,152.909 54.4324,152.925 54.4361,152.94 54.4395,152.956 54.4429,152.972 54.4463,152.987 54.4495,153.003 54.4495,153.003 54.4526,153.019 54.4557,153.035 54.4588,153.05 54.4617,153.066 54.4645,153.082 54.4673,153.098 54.4699,153.113 54.4725,153.129 54.4725,153.129 54.4751,153.145 54.4774,153.161 54.4799,153.177 54.4821,153.193 54.4843,153.208 54.4864,153.224 54.4883,153.24 54.4902,153.256 54.4902,153.256 54.492,153.272 54.4938,153.288 54.4955,153.304 54.4971,153.32 54.4985,153.336 54.4999,153.352 54.5012,153.369 54.5024,153.385 54.5024,153.385 54.5035,153.401 54.5046,153.417 54.5055,153.434 54.5064,153.45 54.5072,153.466 54.5078,153.482 54.5085,153.499 54.509,153.515 54.509,153.515 54.5094,153.531 54.5098,153.548 54.51,153.565 54.5101,153.581 54.5103,153.598 54.5101,153.614 54.5101,153.631 54.5099,153.648 54.5099,153.648 54.5095,153.665 54.5091,153.682 54.5086,153.698 54.5079,153.715 54.5073,153.732 54.5065,153.749 54.5056,153.766 54.5047,153.783 54.5047,153.783 54.5037,153.8 54.5025,153.818 54.5012,153.835 54.4999,153.852 54.4984,153.869 54.497,153.887 54.4953,153.904 54.4936,153.921 54.4936,153.921 54.4918,153.939 54.4898,153.957 54.4878,153.975 54.4857,153.992 54.4835,154.01 54.4813,154.028 54.4789,154.046 54.4764,154.063 54.4764,154.063 54.4738,154.082 54.4711,154.1 54.4682,154.118 54.4654,154.136 54.4624,154.155 54.4593,154.173 54.4562,154.191 54.453,154.209 54.453,154.209 54.4495,154.228 54.446,154.247 54.4424,154.266 54.4388,154.285 54.435,154.303 54.4311,154.322 54.4271,154.341 54.4231,154.36 54.4231,154.36 54.4189,154.379 54.4146,154.398 54.4102,154.418 54.4057,154.437 54.4011,154.457 54.3965,154.476 54.3917,154.495 54.3869,154.515 54.3869,154.515 54.3819,154.535 54.3767,154.555 54.3714,154.575 54.3661,154.595 54.3607,154.615 54.3553,154.635 54.3497,154.655 54.344,154.675 54.344,154.675 54.3381,154.696 54.332,154.716 54.3259,154.737 54.3197,154.758 54.3135,154.779 54.3072,154.799 54.3008,154.82 54.2944,154.841 54.2944,154.841 54.2875,154.862 54.2807,154.884 54.2737,154.905 54.2667,154.927 54.2596,154.948 54.2523,154.97 54.2451,154.991 54.2379,155.012 54.2379,155.012 54.2301,155.035 54.2223,155.057 54.2146,155.079 54.2067,155.102 54.1987,155.124 54.1907,155.146 54.1825,155.168 54.1744,155.19 54.1744,155.19 54.1657,155.214 54.157,155.237 54.1484,155.26 54.1396,155.283 54.1308,155.306 54.1219,155.329 54.113,155.352 54.1039,155.375 54.1039,155.375 54.0943,155.4 54.0848,155.424 54.0751,155.448 54.0654,155.472 54.0557,155.496 54.0459,155.52 54.0359,155.544 54.026,155.568 54.026,155.568 54.0155,155.593 54.005,155.618 53.9945,155.643 53.9839,155.668 53.9732,155.693 53.9625,155.718 53.9517,155.743 53.9409,155.768 53.9409,155.768 53.9295,155.794 53.918,155.82 53.9065,155.846 53.895,155.872 53.8833,155.898 53.8717,155.924 53.8599,155.95 53.8482,155.976 53.8482,155.976 53.8359,156.003 53.8235,156.03 53.8109,156.057 53.7984,156.084 53.7859,156.111 53.7733,156.138 53.7606,156.165 53.748,156.192 53.748,156.192 53.7347,156.221 53.7213,156.249 53.7079,156.277 53.6943,156.305 53.6809,156.333 53.6673,156.361 53.6537,156.39 53.64,156.418 53.64,156.418 53.6242,156.45 53.6085,156.482 53.5927,156.515 53.5768,156.547 53.5609,156.579 53.5449,156.611 53.5288,156.643 53.5127,156.676 53.5127,156.676 53.4948,156.711 53.4769,156.747 53.4589,156.782 53.4409,156.818 53.4228,156.853 53.4047,156.888 53.3865,156.924 53.3683,156.959 53.3683,156.959 53.3486,156.997 53.3288,157.035 53.3089,157.073 53.2891,157.111 53.2691,157.148 53.249,157.186 53.229,157.224 53.2088,157.261 53.2088,157.261 53.1892,157.298 53.1694,157.334 53.1495,157.371 53.1296,157.407 53.1097,157.444 53.0895,157.48 53.0693,157.516 53.0492,157.552 53.0492,157.552 53.0294,157.587 53.0096,157.623 52.9898,157.658 52.9698,157.693 52.9497,157.727 52.9297,157.762 52.9095,157.797 52.8892,157.832 52.8892,157.832 52.8695,157.866 52.8495,157.899 52.8296,157.933 52.8096,157.967 52.7896,158.0 52.7694,158.034 52.7491,158.067 52.7288,158.101 52.7288,158.101 52.7089,158.133 52.689,158.165 52.6689,158.198 52.6489,158.23 52.6287,158.262 52.6084,158.294 52.588,158.326 52.5676,158.358 52.5676,158.358 52.5475,158.389 52.5275,158.42 52.5073,158.451 52.487,158.482 52.4667,158.513 52.4463,158.544 52.4259,158.574 52.4053,158.605 52.4053,158.605 52.3851,158.635 52.365,158.664 52.3445,158.694 52.3242,158.724 52.3037,158.753 52.2831,158.782 52.2626,158.812 52.2418,158.841 52.2418,158.841 52.2215,158.869 52.2012,158.898 52.1807,158.926 52.1602,158.954 52.1395,158.982 52.1188,159.01 52.0979,159.038 52.0769,159.066 52.0769,159.066 52.0565,159.093 52.0359,159.12 52.0154,159.147 51.9946,159.174 51.9737,159.201 51.9528,159.227 51.9317,159.254 51.9106,159.281 51.9106,159.281 51.89,159.307 51.8691,159.332 51.8483,159.358 51.8273,159.383 51.8063,159.409 51.7851,159.434 51.7638,159.459 51.7424,159.485 51.7424,159.485 51.7215,159.509 51.7004,159.534 51.6793,159.558 51.6581,159.582 51.6368,159.606 51.6155,159.631 51.5939,159.654 51.5723,159.678 51.5723,159.678 51.5511,159.702 51.5298,159.725 51.5083,159.748 51.4868,159.771 51.4652,159.794 51.4435,159.816 51.4217,159.839 51.3998,159.862 51.3998,159.862 51.3784,159.884 51.3568,159.906 51.335,159.927 51.3133,159.949 51.2915,159.971 51.2695,159.992 51.2474,160.013 51.2252,160.035 51.2252,160.035 51.2033,160.055 51.1815,160.076 51.1593,160.096 51.1372,160.117 51.115,160.137 51.0926,160.157 51.0703,160.177 51.0478,160.197 51.0478,160.197 51.0255,160.217 51.0033,160.236 50.9809,160.256 50.9584,160.275 50.9359,160.294 50.9133,160.313 50.8906,160.332 50.8677,160.35 50.8677,160.35 50.845,160.368 50.8224,160.387 50.7997,160.405 50.7768,160.423 50.7539,160.44 50.7309,160.458 50.7077,160.476 50.6845,160.493 50.6845,160.493 50.6614,160.51 50.6384,160.527 50.6153,160.544 50.592,160.56 50.5686,160.577 50.5452,160.593 50.5217,160.61 50.498,160.626 50.498,160.626 50.4746,160.642 50.4511,160.657 50.4276,160.673 50.4039,160.688 50.3801,160.704 50.3562,160.719 50.3323,160.734 50.3082,160.749 50.3082,160.749 50.2843,160.764 50.2604,160.778 50.2363,160.793 50.2122,160.807 50.188,160.821 50.1637,160.835 50.1392,160.849 50.1148,160.863 50.1148,160.863 50.0904,160.876 50.0659,160.889 50.0414,160.902 50.0168,160.916 49.9921,160.928 49.9674,160.941 49.9426,160.954 49.9176,160.966 49.9176,160.966 49.8927,160.978 49.8677,160.991 49.8427,161.003 49.8176,161.015 49.7924,161.026 49.7672,161.038 49.7418,161.049 49.7165,161.06 49.7165,161.06 49.691,161.072 49.6654,161.083 49.6398,161.093 49.6142,161.104 49.5885,161.115 49.5626,161.125 49.5368,161.135 49.5109,161.145 49.5109,161.145 49.4848,161.155 49.4587,161.165 49.4326,161.175 49.4063,161.184 49.3801,161.194 49.3538,161.203 49.3274,161.212 49.3011,161.221 49.3011,161.221 49.2744,161.23 49.2477,161.238 49.2209,161.247 49.1941,161.255 49.1673,161.263 49.1405,161.271 49.1135,161.279 49.0866,161.287 49.0866,161.287 49.0593,161.295 49.032,161.302 49.0046,161.31 48.9772,161.317 48.9498,161.324 48.9224,161.331 48.8948,161.338 48.8673,161.344 48.8673,161.344 48.8394,161.351 48.8114,161.357 48.7834,161.363 48.7553,161.369 48.7273,161.375 48.6992,161.381 48.6712,161.387 48.643,161.392 48.643,161.392 48.6144,161.398 48.5857,161.403 48.557,161.408 48.5284,161.413 48.4997,161.418 48.471,161.422 48.4422,161.427 48.4135,161.431 48.4135,161.431 48.3841,161.435 48.3549,161.44 48.3256,161.444 48.2962,161.447 48.2667,161.451 48.2374,161.455 48.2081,161.458 48.1786,161.462 48.1786,161.462 48.1484,161.465 48.1185,161.468 48.0883,161.471 48.0583,161.473 48.0282,161.476 47.9982,161.478 47.9681,161.481 47.938,161.483 47.938,161.483 47.9072,161.485 47.8764,161.487 47.8457,161.489 47.8149,161.49 47.7841,161.492 47.7532,161.493 47.7224,161.495 47.6917,161.496 47.6917,161.496 47.661,161.497 47.6304,161.498 47.5997,161.498 47.569,161.499 47.5383,161.499 47.5077,161.5 47.477,161.5 47.4464,161.5 47.4464,161.5 47.4163,161.5 47.3862,161.5 47.356,161.499 47.326,161.499 47.2959,161.498 47.2658,161.497 47.2358,161.496 47.2057,161.495 47.2057,161.495 47.1766,161.493 47.1475,161.492 47.1184,161.49 47.0894,161.488 47.0603,161.486 47.0314,161.484 47.0023,161.482 46.9733,161.479 46.9733,161.479 46.9449,161.476 46.9164,161.474 46.888,161.471 46.8597,161.467 46.8312,161.464 46.8029,161.461 46.7746,161.457 46.7463,161.453 46.7463,161.453 46.7186,161.449 46.691,161.445 46.6633,161.441 46.6356,161.436 46.608,161.432 46.5804,161.427 46.5529,161.422 46.5253,161.417 46.5253,161.417 46.4983,161.411 46.4714,161.406 46.4445,161.4 46.4177,161.394 46.3909,161.388 46.3641,161.382 46.3375,161.376 46.3109,161.37 46.3109,161.37 46.2847,161.363 46.2586,161.356 46.2326,161.35 46.2066,161.342 46.1808,161.335 46.1549,161.328 46.1291,161.32 46.1032,161.312 46.1032,161.312 46.0781,161.305 46.0529,161.297 46.028,161.288 46.0029,161.28 45.9779,161.271 45.9531,161.263 45.9283,161.254 45.9035,161.245 45.9035,161.245 45.8793,161.236 45.8551,161.226 45.8311,161.217 45.807,161.207 45.7831,161.197 45.7593,161.187 45.7355,161.177 45.7119,161.167 45.7119,161.167 45.6887,161.156 45.6656,161.146 45.6426,161.135 45.6197,161.124 45.5968,161.113 45.574,161.101 45.5514,161.09 45.5289,161.078 45.5289,161.078 45.5068,161.067 45.485,161.055 45.463,161.043 45.4413,161.03 45.4197,161.018 45.3981,161.005 45.3766,160.992 45.3553,160.979 45.3553,160.979 45.3345,160.966 45.3136,160.953 45.2931,160.94 45.2725,160.926 45.2521,160.912 45.2318,160.899 45.2116,160.885 45.1916,160.87 45.1916,160.87 45.1719,160.856 45.1524,160.841 45.1332,160.827 45.1139,160.812 45.0948,160.797 45.0759,160.782 45.057,160.766 45.0384,160.751 45.0384,160.751 45.02,160.735 45.0019,160.719 44.984,160.703 44.9661,160.687 44.9484,160.671 44.9308,160.654 44.9135,160.638 44.8963,160.621 44.8963,160.621 44.8794,160.604 44.8626,160.587 44.846,160.57 44.8296,160.552 44.8134,160.535 44.7974,160.517 44.7815,160.499 44.7658,160.481 44.7658,160.481 44.7503,160.463 44.7351,160.444 44.7199,160.426 44.7051,160.407 44.6903,160.388 44.6759,160.369 44.6616,160.35 44.6475,160.33 44.6475,160.33 44.6336,160.311 44.6199,160.291 44.6063,160.271 44.5931,160.251 44.5799,160.231 44.5671,160.211 44.5545,160.19 44.542,160.17 44.542,160.17 44.5298,160.149 44.5176,160.127 44.5057,160.106 44.4941,160.085 44.4827,160.064 44.4716,160.042 44.4606,160.02 44.4499,159.998 44.4499,159.998 44.4393,159.976 44.4289,159.954 44.4187,159.931 44.4089,159.909 44.3992,159.886 44.3899,159.863 44.3807,159.84 44.3718,159.817 44.3718,159.817 44.363,159.793 44.3543,159.77 44.346,159.746 44.3379,159.722 44.3301,159.698 44.3225,159.674 44.3153,159.65 44.3082,159.626 44.3082,159.626 44.3012,159.601 44.2945,159.576 44.288,159.551 44.2818,159.525 44.276,159.5 44.2703,159.475 44.2649,159.449 44.2597,159.424 44.2597,159.424 44.2546,159.398 44.2499,159.371 44.2453,159.345 44.2412,159.318 44.2372,159.292 44.2336,159.265 44.2301,159.239 44.227,159.212 44.227,159.212 44.224,159.184 44.2212,159.157 44.2187,159.129 44.2165,159.101 44.2146,159.074 44.2129,159.046 44.2115,159.018 44.2103,158.99 44.2103,158.99 44.2094,158.961 44.2087,158.932 44.2085,158.903 44.2084,158.874 44.2085,158.845 44.2089,158.816 44.2096,158.787 44.2105,158.758 44.2105,158.758 44.2118,158.728 44.2134,158.697 44.2152,158.667 44.2173,158.637 44.2196,158.607 44.2222,158.576 44.225,158.546 44.2281,158.516 44.2281,158.516 44.2318,158.484 44.2355,158.452 44.2396,158.421 44.2439,158.389 44.2484,158.358 44.2533,158.326 44.2584,158.295 44.2637,158.263 44.2637,158.263 44.2695,158.231 44.2757,158.198 44.282,158.165 44.2888,158.132 44.2956,158.099 44.3027,158.066 44.3101,158.034 44.3177,158.001 44.3177,158.001 44.326,157.967 44.3345,157.933 44.3433,157.899 44.3523,157.864 44.3616,157.831 44.3711,157.797 44.3808,157.763 44.3908,157.729 44.3908,157.729 44.4015,157.693 44.4125,157.658 44.4237,157.623 44.4353,157.587 44.447,157.552 44.4589,157.517 44.4711,157.482 44.4835,157.447 44.4835,157.447 44.4968,157.41 44.5102,157.373 44.5241,157.336 44.538,157.3 44.5523,157.263 44.5666,157.227 44.5814,157.19 44.5962,157.154 44.5962,157.154 44.6121,157.116 44.6283,157.078 44.6447,157.04 44.6613,157.002 44.6781,156.964 44.6951,156.927 44.7123,156.889 44.7298,156.852 44.7298,156.852 44.7679,156.772 44.807,156.692 44.8468,156.613 44.8875,156.534 44.929,156.456 44.9713,156.378 45.0143,156.3 45.058,156.223 46.2498,154.138 48.9307,154.138 46.9445,157.767 46.9384,157.781 46.9325,157.794 46.9265,157.808 46.9207,157.821 46.9149,157.835 46.9092,157.849 46.9036,157.862 46.8981,157.876 46.8981,157.876 46.8929,157.889 46.8877,157.902 46.8827,157.915 46.8777,157.928 46.8727,157.942 46.868,157.955 46.8633,157.968 46.8587,157.981 46.8587,157.981 46.8543,157.994 46.85,158.007 46.8459,158.019 46.8417,158.032 46.8377,158.045 46.8338,158.058 46.83,158.07 46.8262,158.083 46.8262,158.083 46.8227,158.095 46.8194,158.108 46.816,158.12 46.8128,158.132 46.8095,158.144 46.8066,158.157 46.8035,158.169 46.8006,158.182 46.8006,158.182 46.7979,158.193 46.7953,158.205 46.7928,158.217 46.7904,158.229 46.7881,158.241 46.7857,158.253 46.7835,158.265 46.7815,158.277 46.7815,158.277 46.7797,158.288 46.7779,158.299 46.7762,158.311 46.7745,158.322 46.7729,158.334 46.7715,158.345 46.7702,158.356 46.7689,158.368 46.7689,158.368 46.7678,158.379 46.7667,158.39 46.7658,158.401 46.7651,158.412 46.7643,158.423 46.7636,158.434 46.7631,158.445 46.7626,158.456 46.7626,158.456 46.7622,158.466 46.7619,158.477 46.7618,158.487 46.7618,158.498 46.7618,158.508 46.7619,158.519 46.7622,158.529 46.7625,158.54 46.7625,158.54 46.7629,158.55 46.7634,158.56 46.7639,158.57 46.7645,158.58 46.7653,158.59 46.7662,158.6 46.7672,158.61 46.7683,158.62 46.7683,158.62 46.7694,158.63 46.7706,158.639 46.7719,158.649 46.7732,158.659 46.7747,158.668 46.7763,158.678 46.778,158.687 46.7798,158.697 46.7798,158.697 46.7816,158.706 46.7835,158.715 46.7856,158.724 46.7877,158.733 46.7899,158.742 46.7921,158.751 46.7945,158.761 46.797,158.769 46.797,158.769 46.7994,158.778 46.8022,158.787 46.8047,158.796 46.8076,158.804 46.8104,158.813 46.8134,158.822 46.8165,158.83 46.8196,158.838 46.8196,158.838 46.8227,158.847 46.8259,158.855 46.8293,158.863 46.8328,158.871 46.8363,158.879 46.8399,158.887 46.8437,158.895 46.8475,158.904 46.8475,158.904 46.8514,158.911 46.8553,158.919 46.8593,158.927 46.8633,158.934 46.8674,158.942 46.8717,158.95 46.8761,158.957 46.8805,158.964 46.8805,158.964 46.8849,158.972 46.8896,158.979 46.8941,158.986 46.8989,158.993 46.9036,159.0 46.9086,159.007 46.9135,159.015 46.9185,159.022 46.9185,159.022 46.9236,159.028 46.9287,159.035 46.934,159.042 46.9393,159.048 46.9446,159.055 46.9502,159.062 46.9556,159.068 46.9613,159.074 46.9613,159.074 46.967,159.081 46.9727,159.087 46.9785,159.093 46.9845,159.099 46.9904,159.105 46.9964,159.111 47.0024,159.117 47.0086,159.123 47.0086,159.123 47.0148,159.129 47.0212,159.135 47.0275,159.14 47.034,159.146 47.0406,159.151 47.047,159.157 47.0536,159.162 47.0603,159.168 47.0603,159.168 47.0672,159.173 47.0741,159.178 47.081,159.183 47.088,159.188 47.095,159.193 47.1021,159.198 47.1092,159.203 47.1165,159.208 47.1165,159.208 47.1238,159.213 47.1312,159.217 47.1387,159.222 47.1461,159.227 47.1537,159.231 47.1612,159.235 47.169,159.24 47.1766,159.244 47.1766,159.244 47.1845,159.248 47.1924,159.252 47.2002,159.256 47.2083,159.26 47.2163,159.264 47.2243,159.268 47.2323,159.272 47.2404,159.276 47.2404,159.276 47.2489,159.279 47.2573,159.283 47.2657,159.286 47.2741,159.29 47.2826,159.293 47.2911,159.297 47.2997,159.3 47.3082,159.303 47.3082,159.303 47.317,159.306 47.3259,159.309 47.3348,159.312 47.3436,159.315 47.3527,159.318 47.3616,159.32 47.3705,159.323 47.3796,159.326 47.3796,159.326 47.3889,159.328 47.3981,159.331 47.4074,159.333 47.4167,159.335 47.4261,159.338 47.4354,159.34 47.4449,159.342 47.4543,159.344 47.4543,159.344 47.464,159.346 47.4737,159.348 47.4834,159.35 47.4931,159.352 47.5028,159.353 47.5126,159.355 47.5224,159.356 47.5323,159.358 47.5323,159.358 47.5423,159.359 47.5524,159.361 47.5625,159.362 47.5726,159.363 47.5827,159.364 47.5929,159.365 47.603,159.366 47.6132,159.367 47.6132,159.367 47.6243,159.368 47.6353,159.369 47.6464,159.369 47.6575,159.37 47.6685,159.371 47.6796,159.371 47.6908,159.372 47.7019,159.372 47.7019,159.372 47.7144,159.372 47.7268,159.372 47.7394,159.372 47.7518,159.372 47.7643,159.372 47.7769,159.372 47.7893,159.372 47.8018,159.372 47.8018,159.372 47.8155,159.371 47.8292,159.371 47.8429,159.37 47.8566,159.37 47.8703,159.369 47.8839,159.368 47.8976,159.368 47.9113,159.367 47.9113,159.367 47.9254,159.366 47.9395,159.365 47.9536,159.364 47.9677,159.363 47.9818,159.361 47.9959,159.36 48.01,159.358 48.0241,159.357 48.0241,159.357 48.038,159.355 48.0519,159.354 48.0657,159.352 48.0797,159.35 48.0935,159.348 48.1073,159.346 48.1212,159.344 48.135,159.342 48.135,159.342 48.1487,159.339 48.1625,159.337 48.1762,159.334 48.19,159.332 48.2035,159.329 48.2172,159.327 48.2309,159.324 48.2445,159.321 48.2445,159.321 48.2581,159.318 48.2717,159.315 48.2851,159.312 48.2987,159.308 48.3121,159.305 48.3256,159.301 48.339,159.298 48.3525,159.294 48.3525,159.294 48.3659,159.29 48.3794,159.286 48.3928,159.282 48.4061,159.278 48.4196,159.274 48.4329,159.27 48.4461,159.266 48.4594,159.261 48.4594,159.261 48.4727,159.257 48.486,159.252 48.4993,159.247 48.5127,159.242 48.5258,159.237 48.539,159.232 48.5522,159.227 48.5654,159.222 48.5654,159.222 48.5787,159.216 48.5919,159.211 48.6051,159.205 48.6183,159.2 48.6315,159.194 48.6445,159.188 48.6576,159.182 48.6706,159.176 48.6706,159.176 48.684,159.169 48.6972,159.163 48.7103,159.157 48.7234,159.15 48.7365,159.143 48.7495,159.137 48.7624,159.13 48.7754,159.123 48.7754,159.123 48.7887,159.116 48.8019,159.108 48.8149,159.101 48.828,159.094 48.8411,159.086 48.8541,159.078 48.867,159.071 48.88,159.063 48.88,159.063 48.8932,159.055 48.9063,159.047 48.9194,159.038 48.9325,159.03 48.9455,159.021 48.9584,159.013 48.9714,159.004 48.9843,158.995 48.9843,158.995 48.9976,158.986 49.0108,158.977 49.024,158.968 49.0371,158.958 49.0501,158.949 49.063,158.94 49.076,158.93 49.0889,158.92 49.0889,158.92 49.1022,158.91 49.1154,158.9 49.1287,158.89 49.1418,158.879 49.1548,158.869 49.1679,158.858 49.1808,158.848 49.1938,158.837 49.1938,158.837 49.2072,158.826 49.2205,158.815 49.2338,158.803 49.247,158.792 49.2602,158.781 49.2733,158.769 49.2863,158.757 49.2994,158.746 49.2994,158.746 49.3128,158.734 49.3263,158.721 49.3397,158.709 49.353,158.697 49.3662,158.684 49.3794,158.672 49.3926,158.659 49.4057,158.646 49.4057,158.646 49.4192,158.633 49.4328,158.619 49.4464,158.606 49.4598,158.592 49.4731,158.579 49.4866,158.565 49.4998,158.551 49.5131,158.538 49.5131,158.538 49.5268,158.523 49.5405,158.509 49.5542,158.494 49.5678,158.48 49.5814,158.465 49.5948,158.45 49.6083,158.435 49.6217,158.42 49.6217,158.42 49.6357,158.405 49.6496,158.389 49.6635,158.373 49.6772,158.358 49.6909,158.342 49.7046,158.326 49.7182,158.31 49.7317,158.294 49.7317,158.294 49.746,158.277 49.76,158.26 49.7741,158.243 49.7881,158.226 49.8021,158.209 49.8159,158.192 49.8297,158.175 49.8436,158.158 49.8436,158.158 49.858,158.14 49.8724,158.122 49.8866,158.103 49.9008,158.085 49.9151,158.067 49.9292,158.049 49.9432,158.03 49.9572,158.012 49.9572,158.012 49.9718,157.993 49.9864,157.973 50.001,157.954 50.0155,157.934 50.03,157.915 50.0445,157.895 50.0588,157.876 50.0731,157.856 50.0731,157.856 50.0881,157.835 50.1029,157.815 50.1178,157.794 50.1325,157.773 50.1473,157.753 50.162,157.732 50.1766,157.711 50.1912,157.69 50.1912,157.69 50.2065,157.668 50.2217,157.646 50.2369,157.624 50.252,157.602 50.2671,157.58 50.2821,157.558 50.2971,157.536 50.312,157.513 50.312,157.513 50.3276,157.49 50.3431,157.467 50.3587,157.444 50.3742,157.42 50.3896,157.397 50.4049,157.373 50.4203,157.35 50.4356,157.326 50.4356,157.326 50.4516,157.302 50.4675,157.277 50.4834,157.252 50.4992,157.227 50.515,157.202 50.5307,157.178 50.5465,157.153 50.5622,157.128 50.5622,157.128 50.5786,157.102 50.5949,157.076 50.6112,157.05 50.6274,157.023 50.6436,156.997 50.6598,156.971 50.6759,156.945 50.692,156.918 50.692,156.918 50.7088,156.891 50.7256,156.863 50.7423,156.836 50.7589,156.808 50.7756,156.78 50.7922,156.753 50.8087,156.725 50.8253,156.697 50.8253,156.697 50.8603,156.638 50.8951,156.579 50.9297,156.52 50.9642,156.461 50.9986,156.401 51.0329,156.342 51.0669,156.283 51.1009,156.223 51.5265,155.458 51.556,155.403 51.585,155.348 51.6134,155.292 51.6413,155.236 51.6686,155.18 51.6954,155.124 51.7214,155.067 51.7467,155.01 51.7467,155.01 51.7581,154.984 51.7693,154.958 51.7805,154.931 51.7913,154.905 51.802,154.878 51.8126,154.851 51.823,154.825 51.8332,154.798 51.8332,154.798 51.8426,154.772 51.8518,154.747 51.8609,154.721 51.8697,154.696 51.8783,154.67 51.8867,154.644 51.895,154.619 51.903,154.593 51.903,154.593 51.9104,154.568 51.9176,154.544 51.9246,154.519 51.9313,154.494 51.9379,154.47 51.9443,154.445 51.9503,154.42 51.9563,154.395 51.9563,154.395 51.9617,154.371 51.9668,154.347 51.9717,154.323 51.9765,154.299 51.9808,154.275 51.9851,154.251 51.989,154.226 51.9927,154.202 51.9927,154.202 51.9961,154.179 51.9992,154.156 52.0021,154.132 52.0048,154.109 52.0071,154.086 52.0092,154.062 52.0111,154.039 52.0127,154.015 52.0127,154.015 52.0139,153.992 52.015,153.969 52.0158,153.946 52.0163,153.923 52.0165,153.9 52.0165,153.878 52.0163,153.854 52.0158,153.832 52.0158,153.832 52.015,153.809 52.0139,153.786 52.0127,153.764 52.0111,153.741 52.0093,153.719 52.0072,153.696 52.0048,153.674 52.0022,153.651 52.0022,153.651 51.9993,153.629 51.9961,153.607 51.9927,153.584 51.989,153.562 51.9851,153.54 51.9808,153.518 51.9765,153.495 51.9718,153.473 51.9718,153.473 51.9668,153.451 51.9615,153.429 51.9559,153.407 51.9502,153.385 51.9441,153.363 51.9378,153.341 51.9313,153.319 51.9246,153.297 51.7816,152.947 50.8029,151.032 50.7671,150.961 50.7318,150.89 50.6973,150.819 50.6633,150.747 50.63,150.675 50.5976,150.603 50.5658,150.53 50.5347,150.457 50.5347,150.457 50.52,150.422 50.5054,150.386 50.491,150.351 50.477,150.315 50.463,150.279 50.4492,150.243 50.4356,150.207 50.4223,150.172 50.4223,150.172 50.4093,150.136 50.3967,150.101 50.3841,150.065 50.3718,150.03 50.3598,149.995 50.3479,149.959 50.3363,149.923 50.3249,149.887 50.3249,149.887 50.3139,149.852 50.3032,149.817 50.2926,149.782 50.2822,149.747 50.2722,149.711 50.2622,149.676 50.2525,149.64 50.2431,149.605 50.2431,149.605 50.234,149.57 50.2252,149.535 50.2167,149.5 50.2084,149.464 50.2003,149.429 50.1924,149.394 50.1848,149.359 50.1774,149.324 50.1774,149.324 50.1704,149.289 50.1636,149.254 50.157,149.219 50.1508,149.184 50.1447,149.149 50.1389,149.113 50.1333,149.078 50.128,149.043 50.128,149.043 50.123,149.008 50.1182,148.973 50.1138,148.939 50.1095,148.904 50.1055,148.869 50.1018,148.834 50.0984,148.799 50.0952,148.763 50.0952,148.763 50.0922,148.729 50.0896,148.694 50.0873,148.659 50.0851,148.624 50.0833,148.589 50.0817,148.554 50.0804,148.519 50.0794,148.484 50.0794,148.484 50.0786,148.45 50.0782,148.415 50.078,148.38 50.0781,148.345 50.0784,148.31 50.079,148.275 50.0799,148.241 50.0811,148.206 50.0811,148.206 50.0825,148.171 50.0843,148.136 50.0862,148.101 50.0886,148.066 50.0912,148.032 50.094,147.997 50.0971,147.962 50.1005,147.927 50.1005,147.927 50.1042,147.892 50.1082,147.858 50.1125,147.823 50.117,147.788 50.1218,147.753 50.1268,147.718 50.1323,147.683 50.138,147.649 50.138,147.649 50.1439,147.614 50.1502,147.579 50.1568,147.544 50.1637,147.509 50.1708,147.474 50.1782,147.439 50.1859,147.405 50.1938,147.37 50.1938,147.37 50.2022,147.335 50.2109,147.3 50.2198,147.265 50.229,147.23 50.2385,147.195 50.2482,147.16 50.2583,147.125 50.2685,147.091 50.2685,147.091 50.2794,147.055 50.2904,147.02 50.3018,146.985 50.3134,146.95 50.3253,146.915 50.3374,146.88 50.3499,146.845 50.3625,146.811 50.3625,146.811 50.3757,146.775 50.3893,146.74 50.403,146.705 50.4171,146.669 50.4313,146.634 50.4459,146.599 50.4608,146.565 50.4758,146.53 50.4758,146.53 50.5079,146.458 50.5411,146.386 50.5752,146.315 50.6104,146.245 50.6465,146.175 50.6834,146.105 50.7214,146.036 50.7602,145.968 55.4413,138.096 55.4829,138.026 55.5257,137.957 55.5695,137.888 55.6144,137.82 55.6604,137.753 55.7075,137.686 55.7556,137.62 55.8048,137.555 55.8048,137.555 55.829,137.524 55.8535,137.493 55.8782,137.462 55.9031,137.431 55.9282,137.401 55.9537,137.371 55.9794,137.341 56.0052,137.311 56.0052,137.311 56.031,137.282 56.0568,137.254 56.0829,137.225 56.1093,137.197 56.1358,137.169 56.1626,137.141 56.1896,137.113 56.2169,137.086 56.2169,137.086 56.2439,137.06 56.2712,137.033 56.2986,137.007 56.3263,136.981 56.3542,136.955 56.3824,136.929 56.4107,136.904 56.4391,136.879 56.4391,136.879 56.4675,136.854 56.496,136.83 56.5247,136.806 56.5536,136.782 56.5828,136.759 56.612,136.735 56.6415,136.712 56.6712,136.689 56.6712,136.689 56.7008,136.667 56.7306,136.644 56.7606,136.623 56.7907,136.601 56.8209,136.579 56.8514,136.558 56.8821,136.537 56.9129,136.516 56.9129,136.516 56.9436,136.495 56.9745,136.475 57.0057,136.455 57.0368,136.435 57.0683,136.416 57.0998,136.397 57.1315,136.378 57.1633,136.359 57.1633,136.359 57.1952,136.34 57.2272,136.322 57.2594,136.304 57.2917,136.286 57.324,136.269 57.3566,136.251 57.3893,136.234 57.422,136.217 57.422,136.217 57.455,136.201 57.4879,136.184 57.5212,136.168 57.5544,136.152 57.5877,136.136 57.6212,136.121 57.6548,136.105 57.6885,136.09 57.6885,136.09 57.7223,136.076 57.7563,136.061 57.7905,136.047 57.8246,136.032 57.8589,136.018 57.8933,136.005 57.9276,135.991 57.9622,135.978 57.9622,135.978 57.9969,135.965 58.0319,135.952 58.0668,135.939 58.1018,135.927 58.1368,135.915 58.172,135.903 58.2073,135.891 58.2426,135.879 58.2426,135.879 58.2782,135.867 58.3137,135.856 58.3494,135.845 58.3852,135.834 58.421,135.824 58.457,135.813 58.4929,135.803 58.529,135.793 58.529,135.793 58.5653,135.783 58.6016,135.773 58.6381,135.764 58.6746,135.755 58.711,135.745 58.7476,135.737 58.7842,135.728 58.8209,135.72 58.8209,135.72 58.8579,135.711 58.8949,135.703 58.932,135.695 58.9691,135.687 59.0062,135.68 59.0434,135.672 59.0807,135.665 59.1179,135.658 59.4193,135.607 59.4573,135.602 59.4954,135.596 59.5334,135.591 59.5716,135.586 59.6098,135.581 59.648,135.576 59.6862,135.572 59.7244,135.567 59.7244,135.567 59.7629,135.563 59.8014,135.559 59.84,135.555 59.8786,135.551 59.9172,135.547 59.9558,135.544 59.9943,135.54 60.033,135.537 60.033,135.537 60.0719,135.534 60.1108,135.531 60.1497,135.528 60.1887,135.526 60.2276,135.523 60.2665,135.521 60.3055,135.519 60.3445,135.516 60.3445,135.516 60.4229,135.513 60.5015,135.509 60.58,135.507 60.6586,135.504 60.7371,135.503 60.8157,135.501 60.8943,135.501 60.9729,135.5 61.3556,135.5 63.3133,139.246 59.058,146.819 56.3772,146.819 60.5898,139.33" fill="none" stroke="black" stroke-width="0.1"/>
        <polygon id="_132511232" points="66.8022,152.181 67.9512,150.097 65.4835,150.097 70.8875,137.841 74.8448,137.841 76.0365,135.714 69.2705,135.714 62.8452,150.097 61.3556,150.097 55.1009,161.245 61.6962,161.245 62.8872,159.117 59.0157,159.117 62.9301,152.181" fill="none" stroke="black" stroke-width="0.1"/>
        <polygon id="_131839120" points="83.0575,135.714 80.3764,135.714 66.0364,161.245 72.3767,161.245 73.5682,159.117 69.9088,159.117" fill="none" stroke="black" stroke-width="0.1"/>
        <polygon id="_131531760" points="100.036,152.181 101.185,150.097 98.7163,150.097 104.078,137.841 108.078,137.841 109.269,135.714 102.503,135.714 96.0785,150.097 94.5889,150.097 88.334,161.245 94.9295,161.245 96.1211,159.117 92.206,159.117 96.1211,152.181" fill="none" stroke="black" stroke-width="0.1"/>
        <polygon id="_131379720_1" points="143.439,157.542 155.651,135.715 152.928,135.715 141.438,156.224 141.401,156.293 141.364,156.362 141.329,156.431 141.293,156.501 141.259,156.572 141.224,156.642 141.191,156.713 141.158,156.784 141.158,156.784 141.143,156.817 141.128,156.851 141.113,156.885 141.098,156.918 141.083,156.952 141.069,156.986 141.054,157.02 141.04,157.054 141.04,157.054 141.027,157.087 141.014,157.119 141.001,157.152 140.988,157.185 140.975,157.218 140.963,157.25 140.951,157.283 140.938,157.316 140.938,157.316 140.927,157.348 140.916,157.38 140.905,157.411 140.893,157.443 140.883,157.475 140.872,157.507 140.862,157.539 140.851,157.571 140.851,157.571 140.842,157.601 140.832,157.632 140.823,157.662 140.814,157.693 140.805,157.724 140.796,157.755 140.788,157.786 140.779,157.817 140.779,157.817 140.771,157.846 140.764,157.876 140.756,157.906 140.749,157.936 140.742,157.966 140.735,157.995 140.728,158.025 140.721,158.055 140.721,158.055 140.715,158.084 140.709,158.113 140.703,158.141 140.698,158.17 140.693,158.199 140.687,158.228 140.682,158.257 140.677,158.286 140.677,158.286 140.673,158.313 140.669,158.341 140.665,158.369 140.661,158.396 140.657,158.424 140.654,158.452 140.65,158.48 140.647,158.508 140.647,158.508 140.644,158.535 140.642,158.561 140.64,158.588 140.637,158.615 140.635,158.642 140.633,158.668 140.632,158.695 140.63,158.722 140.63,158.722 140.629,158.748 140.628,158.774 140.627,158.799 140.627,158.825 140.626,158.851 140.626,158.877 140.626,158.903 140.626,158.928 140.626,158.928 140.627,158.953 140.628,158.978 140.628,159.003 140.629,159.028 140.63,159.052 140.632,159.077 140.634,159.102 140.635,159.127 140.635,159.127 140.637,159.15 140.639,159.174 140.642,159.198 140.644,159.222 140.647,159.246 140.65,159.27 140.653,159.293 140.656,159.317 140.656,159.317 140.66,159.34 140.663,159.363 140.667,159.386 140.671,159.409 140.675,159.431 140.68,159.454 140.684,159.477 140.689,159.5 140.689,159.5 140.694,159.522 140.699,159.543 140.705,159.565 140.71,159.587 140.716,159.609 140.721,159.631 140.728,159.652 140.734,159.674 140.734,159.674 140.74,159.695 140.747,159.716 140.753,159.737 140.76,159.758 140.767,159.779 140.775,159.799 140.782,159.82 140.79,159.84 140.79,159.84 140.797,159.861 140.805,159.881 140.813,159.9 140.822,159.92 140.83,159.94 140.839,159.96 140.848,159.979 140.856,159.999 140.856,159.999 140.865,160.018 140.875,160.037 140.884,160.056 140.894,160.075 140.903,160.094 140.913,160.112 140.923,160.131 140.934,160.149 140.934,160.149 140.944,160.168 140.954,160.186 140.965,160.204 140.976,160.222 140.987,160.239 140.998,160.257 141.01,160.275 141.021,160.292 141.021,160.292 141.033,160.309 141.044,160.326 141.056,160.343 141.068,160.36 141.081,160.377 141.093,160.394 141.106,160.41 141.118,160.427 141.118,160.427 141.131,160.443 141.144,160.459 141.157,160.475 141.17,160.491 141.184,160.507 141.197,160.522 141.211,160.538 141.225,160.553 141.225,160.553 141.239,160.569 141.253,160.584 141.267,160.599 141.282,160.614 141.296,160.628 141.311,160.643 141.326,160.657 141.341,160.672 141.341,160.672 141.356,160.686 141.371,160.7 141.387,160.714 141.402,160.728 141.418,160.742 141.434,160.756 141.449,160.769 141.465,160.782 141.465,160.782 141.482,160.796 141.498,160.809 141.514,160.822 141.531,160.835 141.548,160.848 141.564,160.86 141.581,160.873 141.598,160.885 141.598,160.885 141.616,160.897 141.633,160.91 141.65,160.922 141.668,160.934 141.686,160.945 141.703,160.957 141.721,160.969 141.739,160.98 141.739,160.98 141.757,160.991 141.776,161.002 141.794,161.013 141.813,161.024 141.831,161.035 141.85,161.046 141.869,161.056 141.888,161.067 141.888,161.067 141.907,161.077 141.926,161.087 141.946,161.097 141.965,161.107 141.985,161.117 142.004,161.127 142.024,161.136 142.044,161.146 142.044,161.146 142.064,161.155 142.084,161.164 142.104,161.173 142.125,161.182 142.145,161.191 142.166,161.2 142.186,161.208 142.207,161.217 142.207,161.217 142.228,161.225 142.249,161.233 142.27,161.241 142.291,161.249 142.312,161.257 142.333,161.265 142.355,161.272 142.376,161.279 142.376,161.279 142.398,161.287 142.42,161.294 142.442,161.301 142.464,161.308 142.486,161.315 142.508,161.322 142.53,161.328 142.552,161.334 142.552,161.334 142.575,161.341 142.597,161.347 142.62,161.353 142.642,161.359 142.665,161.365 142.688,161.371 142.711,161.376 142.734,161.382 142.734,161.382 142.757,161.387 142.78,161.392 142.803,161.398 142.827,161.403 142.85,161.407 142.874,161.412 142.897,161.417 142.921,161.421 142.921,161.421 142.945,161.425 142.969,161.43 142.993,161.434 143.017,161.438 143.041,161.442 143.065,161.445 143.089,161.449 143.113,161.452 143.113,161.452 143.138,161.456 143.162,161.459 143.187,161.462 143.212,161.465 143.236,161.468 143.261,161.471 143.286,161.474 143.311,161.476 143.311,161.476 143.336,161.479 143.361,161.481 143.386,161.483 143.411,161.485 143.437,161.487 143.462,161.489 143.487,161.49 143.512,161.492 143.512,161.492 143.539,161.493 143.565,161.494 143.591,161.496 143.617,161.497 143.643,161.498 143.67,161.498 143.696,161.499 143.722,161.5 143.722,161.5 143.749,161.5 143.777,161.5 143.804,161.5 143.831,161.5 143.858,161.5 143.886,161.5 143.913,161.5 143.94,161.5 143.94,161.5 143.968,161.499 143.996,161.498 144.024,161.498 144.052,161.497 144.08,161.496 144.108,161.495 144.136,161.494 144.164,161.492 144.164,161.492 144.192,161.491 144.22,161.489 144.248,161.487 144.275,161.486 144.303,161.484 144.331,161.482 144.359,161.48 144.387,161.477 144.387,161.477 144.414,161.475 144.441,161.472 144.468,161.47 144.495,161.467 144.522,161.464 144.549,161.461 144.576,161.458 144.603,161.455 144.603,161.455 144.63,161.451 144.656,161.448 144.683,161.444 144.709,161.441 144.735,161.437 144.762,161.433 144.788,161.429 144.814,161.425 144.814,161.425 144.84,161.42 144.866,161.416 144.892,161.411 144.917,161.407 144.943,161.402 144.969,161.397 144.995,161.392 145.02,161.387 145.02,161.387 145.046,161.382 145.071,161.376 145.096,161.371 145.121,161.366 145.146,161.36 145.171,161.354 145.196,161.348 145.221,161.342 145.221,161.342 145.246,161.336 145.27,161.329 145.295,161.323 145.32,161.316 145.344,161.31 145.368,161.303 145.393,161.296 145.417,161.289 145.417,161.289 145.441,161.282 145.465,161.275 145.489,161.267 145.513,161.26 145.537,161.252 145.561,161.244 145.585,161.237 145.609,161.229 145.609,161.229 145.632,161.221 145.656,161.212 145.679,161.204 145.703,161.195 145.726,161.187 145.75,161.178 145.773,161.169 145.796,161.16 145.796,161.16 145.819,161.151 145.842,161.142 145.865,161.133 145.888,161.123 145.911,161.114 145.934,161.104 145.956,161.094 145.979,161.084 145.979,161.084 146.002,161.074 146.024,161.064 146.047,161.054 146.069,161.044 146.092,161.033 146.114,161.022 146.136,161.012 146.158,161.001 146.158,161.001 146.18,160.99 146.203,160.979 146.225,160.967 146.247,160.956 146.269,160.945 146.29,160.933 146.312,160.921 146.334,160.91 146.334,160.91 146.356,160.898 146.377,160.885 146.399,160.873 146.421,160.861 146.442,160.848 146.464,160.836 146.485,160.823 146.506,160.81 146.506,160.81 146.528,160.797 146.549,160.784 146.57,160.771 146.591,160.758 146.612,160.744 146.633,160.731 146.654,160.717 146.675,160.704 146.675,160.704 146.696,160.69 146.717,160.676 146.738,160.661 146.759,160.647 146.78,160.633 146.8,160.618 146.821,160.604 146.842,160.589 146.842,160.589 146.862,160.574 146.883,160.559 146.903,160.544 146.924,160.529 146.944,160.513 146.965,160.498 146.985,160.482 147.005,160.467 147.005,160.467 147.025,160.451 147.046,160.435 147.066,160.418 147.086,160.402 147.106,160.386 147.126,160.37 147.146,160.353 147.166,160.336 147.166,160.336 147.186,160.319 147.206,160.302 147.226,160.285 147.246,160.268 147.266,160.251 147.286,160.233 147.305,160.216 147.325,160.198 147.325,160.198 147.345,160.18 147.365,160.162 147.384,160.144 147.404,160.126 147.423,160.108 147.443,160.089 147.462,160.071 147.482,160.052 147.482,160.052 147.501,160.033 147.521,160.014 147.541,159.995 147.56,159.976 147.579,159.957 147.599,159.937 147.618,159.918 147.637,159.899 147.637,159.899 147.656,159.879 147.676,159.858 147.695,159.838 147.714,159.818 147.734,159.798 147.753,159.778 147.772,159.757 147.791,159.737 147.791,159.737 147.81,159.716 147.829,159.695 147.848,159.674 147.867,159.652 147.887,159.631 147.905,159.61 147.924,159.589 147.943,159.567 147.943,159.567 147.962,159.545 147.981,159.523 148.0,159.501 148.019,159.479 148.038,159.457 148.057,159.434 148.076,159.412 148.094,159.39 148.094,159.39 148.113,159.367 148.133,159.344 148.151,159.32 148.17,159.297 148.189,159.274 148.208,159.251 148.226,159.227 148.245,159.204 148.245,159.204 148.264,159.18 148.283,159.156 148.302,159.132 148.321,159.108 148.339,159.083 148.358,159.059 148.377,159.035 148.395,159.011 148.395,159.011 148.414,158.985 148.433,158.96 148.452,158.935 148.47,158.91 148.489,158.885 148.508,158.86 148.527,158.834 148.545,158.809 148.545,158.809 148.564,158.783 148.583,158.757 148.602,158.731 148.62,158.705 148.639,158.678 148.658,158.652 148.676,158.626 148.695,158.599 148.695,158.599 148.714,158.572 148.732,158.545 148.751,158.518 148.77,158.491 148.789,158.464 148.807,158.436 148.826,158.409 148.845,158.382 148.845,158.382 148.864,158.354 148.882,158.326 148.901,158.297 148.92,158.269 148.939,158.241 148.958,158.213 148.976,158.184 148.995,158.156 148.995,158.156 149.014,158.127 149.033,158.098 149.052,158.069 149.071,158.04 149.09,158.01 149.108,157.981 149.127,157.952 149.146,157.922 149.146,157.922 149.165,157.892 149.184,157.862 149.203,157.832 149.222,157.802 149.241,157.771 149.26,157.741 149.279,157.711 149.298,157.68 149.298,157.68 149.317,157.649 149.336,157.618 149.355,157.587 149.374,157.556 149.393,157.524 149.412,157.493 149.432,157.462 149.451,157.431 149.451,157.431 149.47,157.398 149.489,157.366 149.509,157.334 149.528,157.302 149.547,157.269 149.566,157.237 149.586,157.205 149.605,157.172 149.605,157.172 149.624,157.139 149.644,157.106 149.664,157.073 149.683,157.04 149.702,157.006 149.722,156.973 149.741,156.939 149.761,156.906 149.761,156.906 149.801,156.837 149.84,156.768 149.88,156.699 149.92,156.629 149.959,156.56 149.999,156.49 150.038,156.421 150.077,156.351 161.651,135.715 158.927,135.715 147.439,156.224 147.403,156.284 147.368,156.344 147.332,156.405 147.296,156.465 147.261,156.525 147.225,156.585 147.188,156.645 147.152,156.705 147.152,156.705 147.135,156.733 147.118,156.762 147.101,156.79 147.084,156.818 147.067,156.846 147.05,156.874 147.032,156.902 147.015,156.93 147.015,156.93 146.999,156.957 146.982,156.983 146.966,157.01 146.949,157.036 146.933,157.063 146.916,157.089 146.899,157.116 146.883,157.142 146.883,157.142 146.867,157.168 146.851,157.193 146.835,157.218 146.819,157.243 146.803,157.268 146.787,157.293 146.771,157.318 146.755,157.343 146.755,157.343 146.739,157.367 146.724,157.391 146.708,157.414 146.693,157.438 146.677,157.462 146.661,157.486 146.646,157.509 146.63,157.533 146.63,157.533 146.615,157.555 146.6,157.577 146.585,157.6 146.57,157.622 146.555,157.644 146.54,157.667 146.524,157.689 146.509,157.711 146.509,157.711 146.495,157.732 146.48,157.753 146.465,157.774 146.451,157.795 146.436,157.816 146.421,157.837 146.406,157.858 146.392,157.879 146.392,157.879 146.377,157.899 146.363,157.918 146.349,157.938 146.335,157.957 146.32,157.977 146.306,157.997 146.292,158.016 146.277,158.036 146.277,158.036 146.263,158.054 146.249,158.072 146.235,158.091 146.221,158.109 146.207,158.128 146.193,158.146 146.179,158.164 146.165,158.182 146.165,158.182 146.152,158.2 146.138,158.217 146.124,158.234 146.111,158.251 146.097,158.268 146.083,158.285 146.069,158.302 146.055,158.319 146.055,158.319 146.042,158.335 146.029,158.351 146.015,158.367 146.002,158.383 145.988,158.399 145.975,158.415 145.961,158.43 145.948,158.446 145.948,158.446 145.935,158.461 145.922,158.476 145.908,158.49 145.895,158.505 145.882,158.52 145.869,158.534 145.855,158.549 145.842,158.563 145.842,158.563 145.829,158.577 145.816,158.591 145.803,158.604 145.79,158.618 145.777,158.631 145.764,158.645 145.75,158.658 145.737,158.672 145.737,158.672 145.724,158.684 145.712,158.697 145.699,158.709 145.686,158.722 145.673,158.734 145.66,158.746 145.647,158.759 145.634,158.771 145.634,158.771 145.621,158.782 145.608,158.794 145.595,158.805 145.583,158.817 145.57,158.828 145.557,158.839 145.544,158.85 145.531,158.861 145.531,158.861 145.518,158.872 145.506,158.882 145.493,158.893 145.48,158.903 145.467,158.913 145.454,158.924 145.441,158.934 145.428,158.944 145.428,158.944 145.416,158.953 145.403,158.963 145.391,158.972 145.378,158.981 145.365,158.991 145.352,159.0 145.339,159.009 145.326,159.018 145.326,159.018 145.313,159.026 145.301,159.035 145.288,159.043 145.275,159.052 145.262,159.06 145.25,159.068 145.237,159.076 145.224,159.084 145.224,159.084 145.211,159.092 145.198,159.099 145.185,159.107 145.173,159.114 145.16,159.121 145.147,159.129 145.134,159.136 145.121,159.143 145.121,159.143 145.108,159.149 145.095,159.156 145.082,159.163 145.069,159.169 145.056,159.176 145.043,159.182 145.03,159.188 145.017,159.194 145.017,159.194 145.004,159.2 144.991,159.206 144.978,159.211 144.965,159.217 144.951,159.222 144.938,159.228 144.925,159.233 144.912,159.238 144.912,159.238 144.899,159.243 144.885,159.248 144.872,159.253 144.859,159.258 144.845,159.262 144.832,159.267 144.819,159.271 144.805,159.276 144.805,159.276 144.792,159.28 144.778,159.284 144.765,159.288 144.751,159.292 144.738,159.296 144.724,159.299 144.711,159.303 144.697,159.307 144.697,159.307 144.683,159.31 144.67,159.313 144.656,159.317 144.642,159.32 144.628,159.323 144.614,159.326 144.601,159.328 144.587,159.331 144.587,159.331 144.573,159.334 144.559,159.337 144.545,159.339 144.531,159.341 144.517,159.344 144.503,159.346 144.488,159.348 144.474,159.35 144.474,159.35 144.46,159.352 144.445,159.354 144.431,159.356 144.417,159.357 144.402,159.359 144.388,159.36 144.373,159.362 144.359,159.363 144.359,159.363 144.344,159.364 144.329,159.365 144.315,159.366 144.3,159.367 144.285,159.368 144.27,159.369 144.255,159.37 144.241,159.37 144.241,159.37 144.227,159.371 144.213,159.372 144.2,159.372 144.186,159.372 144.172,159.373 144.159,159.373 144.145,159.373 144.132,159.373 144.132,159.373 144.119,159.373 144.107,159.373 144.095,159.373 144.083,159.372 144.071,159.372 144.059,159.372 144.047,159.371 144.034,159.371 144.034,159.371 144.024,159.37 144.013,159.369 144.003,159.369 143.992,159.368 143.982,159.367 143.971,159.366 143.961,159.364 143.951,159.363 143.951,159.363 143.94,159.362 143.93,159.361 143.92,159.36 143.91,159.358 143.9,159.357 143.89,159.355 143.88,159.353 143.87,159.351 143.87,159.351 143.86,159.35 143.85,159.348 143.84,159.346 143.831,159.344 143.821,159.342 143.812,159.339 143.802,159.337 143.792,159.335 143.792,159.335 143.783,159.332 143.774,159.33 143.764,159.327 143.755,159.325 143.746,159.322 143.737,159.319 143.727,159.316 143.718,159.313 143.718,159.313 143.709,159.31 143.701,159.308 143.692,159.304 143.683,159.301 143.674,159.298 143.665,159.295 143.657,159.291 143.648,159.288 143.648,159.288 143.64,159.284 143.631,159.281 143.623,159.277 143.614,159.273 143.606,159.269 143.598,159.265 143.589,159.261 143.581,159.257 143.581,159.257 143.573,159.253 143.565,159.249 143.557,159.245 143.549,159.24 143.542,159.236 143.534,159.231 143.526,159.227 143.519,159.222 143.519,159.222 143.511,159.218 143.504,159.213 143.496,159.208 143.489,159.203 143.482,159.198 143.474,159.193 143.467,159.188 143.46,159.183 143.46,159.183 143.453,159.177 143.446,159.172 143.439,159.167 143.433,159.161 143.426,159.156 143.419,159.15 143.412,159.144 143.406,159.139 143.406,159.139 143.399,159.133 143.393,159.127 143.387,159.121 143.381,159.115 143.374,159.109 143.368,159.103 143.362,159.097 143.356,159.091 143.356,159.091 143.35,159.084 143.345,159.078 143.339,159.071 143.333,159.065 143.328,159.058 143.322,159.052 143.317,159.045 143.311,159.038 143.311,159.038 143.306,159.031 143.301,159.024 143.296,159.017 143.291,159.01 143.286,159.003 143.281,158.996 143.276,158.988 143.271,158.981 143.271,158.981 143.267,158.974 143.262,158.966 143.257,158.959 143.253,158.951 143.249,158.944 143.244,158.936 143.24,158.928 143.236,158.92 143.236,158.92 143.232,158.912 143.228,158.904 143.224,158.896 143.221,158.888 143.217,158.88 143.213,158.872 143.21,158.863 143.207,158.855 143.207,158.855 143.203,158.847 143.2,158.838 143.197,158.83 143.194,158.821 143.191,158.812 143.188,158.803 143.185,158.795 143.182,158.786 143.182,158.786 143.179,158.777 143.177,158.768 143.174,158.759 143.172,158.75 143.17,158.74 143.168,158.731 143.165,158.722 143.163,158.713 143.163,158.713 143.161,158.703 143.16,158.694 143.158,158.684 143.156,158.674 143.155,158.665 143.153,158.655 143.152,158.645 143.15,158.636 143.15,158.636 143.149,158.625 143.148,158.615 143.147,158.605 143.146,158.595 143.146,158.585 143.145,158.575 143.144,158.565 143.143,158.555 143.143,158.555 143.143,158.544 143.143,158.533 143.143,158.523 143.142,158.512 143.142,158.501 143.142,158.491 143.143,158.48 143.143,158.47 143.143,158.47 143.143,158.458 143.143,158.447 143.144,158.436 143.145,158.425 143.146,158.414 143.146,158.403 143.147,158.392 143.148,158.381 143.148,158.381 143.149,158.369 143.151,158.358 143.152,158.346 143.153,158.334 143.155,158.323 143.157,158.311 143.158,158.3 143.16,158.288 143.16,158.288 143.162,158.276 143.164,158.264 143.166,158.252 143.169,158.24 143.171,158.228 143.173,158.216 143.176,158.204 143.179,158.192 143.179,158.192 143.182,158.18 143.185,158.167 143.188,158.155 143.191,158.142 143.194,158.13 143.197,158.117 143.201,158.105 143.204,158.092 143.204,158.092 143.208,158.079 143.212,158.066 143.216,158.053 143.22,158.041 143.224,158.028 143.228,158.015 143.232,158.002 143.237,157.989 143.237,157.989 143.241,157.976 143.246,157.962 143.251,157.949 143.256,157.935 143.261,157.922 143.266,157.908 143.271,157.895 143.276,157.882 143.276,157.882 143.282,157.868 143.287,157.854 143.293,157.84 143.299,157.827 143.305,157.813 143.311,157.799 143.317,157.785 143.323,157.772 143.323,157.772 143.336,157.742 143.35,157.713 143.364,157.685 143.378,157.656 143.393,157.627 143.408,157.599 143.423,157.571" fill="none" stroke="black" stroke-width="0.1"/>
        <polygon id="_132136424" points="172.886,135.714 165.311,135.714 164.119,137.841 168.247,137.841 150.503,161.245 158.417,161.245 159.609,159.117 155.057,159.117" fill="none" stroke="black" stroke-width="0.1"/>
        <polygon id="_132150832" points="183.566,135.714 175.991,135.714 174.799,137.841 178.927,137.841 161.184,161.245 169.098,161.245 170.288,159.117 165.736,159.117" fill="none" stroke="black" stroke-width="0.1"/>
        <polygon id="_132204424" points="189.991,135.714 187.31,135.714 172.97,161.245 179.31,161.245 180.501,159.117 176.842,159.117" fill="none" stroke="black" stroke-width="0.1"/>
        <polygon id="_132141592" points="194.203,152.181 195.354,150.097 192.884,150.097 198.246,137.841 202.246,137.841 203.437,135.714 196.628,135.714 190.247,150.097 188.715,150.097 182.46,161.245 189.097,161.245 190.288,159.117 186.375,159.117 190.288,152.181" fill="none" stroke="black" stroke-width="0.1"/>
        <polygon id="_131954472___1_2" points="106.759,153.032 107.908,153.032 105.865,161.245 108.419,161.245 110.376,152.905 110.435,152.892 110.495,152.879 110.554,152.866 110.613,152.851 110.672,152.836 110.731,152.82 110.79,152.803 110.848,152.786 110.848,152.786 110.877,152.777 110.905,152.768 110.934,152.759 110.963,152.749 110.991,152.739 111.019,152.73 111.048,152.72 111.076,152.709 111.299,152.621 111.326,152.609 111.354,152.596 111.381,152.584 111.409,152.572 111.436,152.559 111.463,152.546 111.49,152.533 111.517,152.519 111.517,152.519 111.544,152.506 111.571,152.492 111.598,152.478 111.624,152.464 111.651,152.449 111.677,152.435 111.704,152.42 111.73,152.405 111.73,152.405 111.757,152.389 111.784,152.374 111.81,152.358 111.836,152.342 111.863,152.326 111.888,152.31 111.915,152.293 111.94,152.276 111.94,152.276 111.967,152.259 111.993,152.242 112.019,152.224 112.045,152.207 112.071,152.189 112.096,152.171 112.122,152.152 112.147,152.134 112.147,152.134 112.173,152.115 112.199,152.095 112.225,152.076 112.25,152.056 112.276,152.037 112.301,152.017 112.327,151.997 112.352,151.976 112.352,151.976 112.377,151.955 112.403,151.934 112.429,151.912 112.454,151.891 112.479,151.869 112.504,151.847 112.529,151.825 112.554,151.803 112.554,151.803 112.58,151.78 112.605,151.757 112.63,151.733 112.655,151.71 112.68,151.686 112.705,151.662 112.73,151.638 112.755,151.614 112.755,151.614 112.78,151.589 112.806,151.564 112.831,151.538 112.856,151.513 112.881,151.487 112.905,151.461 112.93,151.435 112.955,151.409 112.955,151.409 112.98,151.382 113.006,151.354 113.031,151.327 113.056,151.299 113.08,151.271 113.105,151.243 113.13,151.215 113.154,151.187 113.154,151.187 113.18,151.157 113.205,151.127 113.23,151.097 113.255,151.068 113.28,151.037 113.305,151.007 113.33,150.977 113.354,150.947 113.354,150.947 113.38,150.915 113.405,150.883 113.43,150.851 113.455,150.818 113.48,150.786 113.505,150.754 113.53,150.721 113.554,150.689 113.554,150.689 113.58,150.654 113.606,150.62 113.631,150.585 113.656,150.551 113.682,150.516 113.707,150.481 113.732,150.447 113.756,150.412 113.756,150.412 113.782,150.375 113.808,150.338 113.834,150.301 113.859,150.264 113.885,150.227 113.91,150.19 113.935,150.153 113.96,150.116 113.96,150.116 113.986,150.077 114.012,150.037 114.038,149.998 114.064,149.958 114.09,149.919 114.115,149.879 114.141,149.84 114.166,149.8 114.166,149.8 114.193,149.758 114.219,149.716 114.245,149.674 114.272,149.632 114.298,149.59 114.324,149.548 114.349,149.506 114.375,149.464 114.375,149.464 114.43,149.373 114.484,149.283 114.538,149.192 114.591,149.101 114.644,149.01 114.697,148.918 114.749,148.826 114.801,148.734 120.035,139.373 118.12,135.715 113.737,135.715 99.397,161.245 102.12,161.245 107.95,150.905 115.269,137.842 116.461,137.842 117.269,139.415 112.29,148.309 112.249,148.381 112.208,148.453 112.167,148.524 112.124,148.596 112.082,148.667 112.039,148.738 111.996,148.808 111.952,148.878 111.952,148.878 111.931,148.911 111.911,148.943 111.89,148.975 111.869,149.007 111.848,149.039 111.828,149.071 111.806,149.103 111.785,149.135 111.785,149.135 111.765,149.165 111.744,149.195 111.724,149.224 111.704,149.254 111.683,149.284 111.662,149.313 111.641,149.342 111.62,149.372 111.62,149.372 111.6,149.399 111.58,149.426 111.56,149.454 111.539,149.481 111.519,149.508 111.498,149.535 111.477,149.562 111.456,149.589 111.456,149.589 111.436,149.614 111.416,149.639 111.396,149.664 111.375,149.689 111.355,149.713 111.334,149.738 111.313,149.762 111.292,149.787 111.292,149.787 111.272,149.81 111.252,149.832 111.232,149.855 111.211,149.878 111.19,149.9 111.17,149.922 111.149,149.944 111.128,149.966 111.128,149.966 111.107,149.987 111.087,150.008 111.066,150.028 111.046,150.049 111.025,150.069 111.004,150.089 110.983,150.109 110.961,150.128 110.961,150.128 110.941,150.147 110.92,150.166 110.899,150.184 110.878,150.202 110.857,150.22 110.836,150.238 110.814,150.256 110.793,150.273 110.793,150.273 110.772,150.29 110.751,150.306 110.729,150.323 110.708,150.339 110.686,150.355 110.665,150.371 110.643,150.386 110.621,150.402 110.621,150.402 110.599,150.416 110.578,150.431 110.556,150.445 110.534,150.459 110.512,150.473 110.49,150.487 110.468,150.5 110.445,150.514 110.445,150.514 110.423,150.527 110.401,150.539 110.378,150.552 110.356,150.564 110.333,150.576 110.31,150.588 110.287,150.599 110.264,150.611 110.264,150.611 110.242,150.622 110.218,150.632 110.195,150.643 110.172,150.653 110.149,150.663 110.125,150.673 110.102,150.683 110.078,150.692 110.078,150.692 110.054,150.702 110.03,150.711 110.006,150.719 109.982,150.728 109.958,150.736 109.934,150.744 109.91,150.752 109.885,150.76 109.885,150.76 109.861,150.767 109.836,150.775 109.811,150.782 109.786,150.789 109.761,150.795 109.736,150.802 109.711,150.808 109.685,150.814 109.685,150.814 109.66,150.82 109.634,150.825 109.608,150.831 109.582,150.836 109.556,150.841 109.53,150.846 109.504,150.85 109.477,150.855 109.477,150.855 109.451,150.859 109.423,150.863 109.396,150.867 109.369,150.87 109.342,150.874 109.315,150.877 109.288,150.88 109.261,150.883 109.261,150.883 109.203,150.888 109.146,150.893 109.089,150.897 109.031,150.9 108.974,150.902 108.916,150.903 108.859,150.904 108.801,150.905 107.95,150.905" fill="none" stroke="black" stroke-width="0.1"/>
    </g>
</svg>
