<!DOCTYPE svg PUBLIC "-//W3C//DTD SVG 1.1//EN" "http://www.w3.org/Graphics/SVG/1.1/DTD/svg11.dtd">
<svg xmlns="http://www.w3.org/2000/svg" width="297mm" height="210mm" viewBox="0 0 297 210">
    <defs id="_tag_34_"/>
    <g id="trashNode_001"/>
    <g id="_tag_35_">
        <polygon id="_132204712___0" points="114.451,160.264 116.934,160.264 117.002,160.264 117.069,160.263 117.137,160.261 117.204,160.259 117.271,160.256 117.339,160.252 117.406,160.248 117.473,160.243 117.473,160.243 117.506,160.24 117.538,160.237 117.57,160.234 117.602,160.231 117.635,160.227 117.667,160.223 117.699,160.219 117.731,160.215 117.731,160.215 117.763,160.211 117.794,160.207 117.826,160.202 117.857,160.197 117.888,160.193 117.919,160.187 117.95,160.182 117.982,160.177 117.982,160.177 118.012,160.171 118.042,160.165 118.073,160.159 118.103,160.153 118.134,160.146 118.164,160.14 118.194,160.133 118.224,160.126 118.224,160.126 118.254,160.119 118.283,160.111 118.313,160.104 118.342,160.096 118.372,160.088 118.401,160.08 118.43,160.071 118.46,160.063 118.46,160.063 118.489,160.054 118.517,160.045 118.546,160.036 118.575,160.027 118.603,160.017 118.632,160.007 118.66,159.998 118.689,159.987 118.689,159.987 118.717,159.977 118.745,159.967 118.773,159.956 118.801,159.945 118.828,159.934 118.856,159.922 118.884,159.911 118.911,159.899 118.911,159.899 118.939,159.887 118.966,159.875 118.993,159.863 119.021,159.85 119.048,159.838 119.075,159.825 119.102,159.812 119.128,159.798 119.128,159.798 119.155,159.785 119.182,159.771 119.208,159.757 119.235,159.743 119.261,159.728 119.287,159.714 119.314,159.699 119.34,159.684 119.34,159.684 119.366,159.668 119.392,159.653 119.418,159.637 119.444,159.621 119.47,159.605 119.495,159.589 119.521,159.572 119.546,159.556 119.546,159.556 119.572,159.539 119.598,159.521 119.623,159.504 119.649,159.486 119.674,159.468 119.699,159.45 119.724,159.432 119.749,159.414 119.749,159.414 119.774,159.395 119.799,159.376 119.824,159.357 119.849,159.337 119.874,159.318 119.899,159.298 119.923,159.278 119.947,159.258 119.947,159.258 119.972,159.237 119.997,159.216 120.022,159.195 120.046,159.174 120.07,159.153 120.094,159.131 120.119,159.109 120.142,159.088 120.142,159.088 120.167,159.065 120.191,159.042 120.215,159.019 120.239,158.996 120.263,158.973 120.287,158.95 120.311,158.926 120.334,158.903 120.334,158.903 120.358,158.878 120.382,158.853 120.406,158.829 120.43,158.804 120.454,158.778 120.477,158.753 120.501,158.728 120.524,158.702 120.524,158.702 120.548,158.676 120.571,158.649 120.595,158.623 120.619,158.596 120.642,158.569 120.665,158.542 120.688,158.514 120.711,158.487 120.711,158.487 120.735,158.459 120.758,158.43 120.782,158.401 120.805,158.373 120.828,158.344 120.851,158.315 120.874,158.285 120.897,158.256 120.897,158.256 120.92,158.226 120.944,158.195 120.967,158.164 120.99,158.134 121.013,158.103 121.036,158.072 121.059,158.041 121.082,158.01 121.082,158.01 121.105,157.977 121.128,157.944 121.152,157.912 121.175,157.879 121.197,157.846 121.22,157.813 121.243,157.78 121.266,157.747 121.266,157.747 121.289,157.712 121.312,157.677 121.335,157.643 121.358,157.608 121.381,157.573 121.404,157.538 121.427,157.503 121.449,157.467 121.449,157.467 121.473,157.43 121.496,157.394 121.519,157.357 121.542,157.32 121.565,157.283 121.588,157.246 121.611,157.209 121.633,157.171 121.633,157.171 121.681,157.092 121.728,157.013 121.774,156.934 121.821,156.854 121.866,156.774 121.912,156.694 121.957,156.613 122.001,156.533 123.612,153.626 122.63,151.741 122.702,151.727 122.774,151.712 122.846,151.697 122.918,151.68 122.989,151.662 123.06,151.643 123.131,151.623 123.202,151.602 123.202,151.602 123.235,151.592 123.269,151.581 123.302,151.57 123.336,151.559 123.369,151.548 123.402,151.536 123.435,151.524 123.468,151.512 123.468,151.512 123.5,151.5 123.532,151.488 123.564,151.475 123.596,151.462 123.627,151.449 123.659,151.436 123.69,151.422 123.721,151.409 123.721,151.409 123.752,151.395 123.782,151.381 123.812,151.367 123.843,151.352 123.873,151.338 123.903,151.323 123.932,151.307 123.962,151.292 123.962,151.292 123.991,151.277 124.02,151.261 124.049,151.245 124.078,151.229 124.106,151.213 124.135,151.196 124.163,151.18 124.191,151.163 124.191,151.163 124.219,151.146 124.247,151.129 124.274,151.111 124.302,151.093 124.329,151.076 124.356,151.058 124.383,151.039 124.41,151.021 124.41,151.021 124.437,151.002 124.463,150.983 124.489,150.965 124.516,150.945 124.542,150.926 124.567,150.906 124.593,150.887 124.619,150.867 124.619,150.867 124.644,150.846 124.67,150.826 124.695,150.806 124.72,150.785 124.745,150.764 124.77,150.743 124.795,150.722 124.819,150.7 124.819,150.7 124.844,150.679 124.868,150.657 124.892,150.635 124.916,150.613 124.94,150.59 124.964,150.568 124.988,150.545 125.011,150.522 125.011,150.522 125.035,150.499 125.059,150.476 125.082,150.452 125.105,150.429 125.128,150.405 125.151,150.381 125.174,150.357 125.197,150.333 125.197,150.333 125.22,150.308 125.243,150.283 125.265,150.258 125.288,150.233 125.31,150.208 125.332,150.183 125.354,150.157 125.376,150.132 125.376,150.132 125.398,150.105 125.42,150.079 125.443,150.053 125.464,150.026 125.486,150.0 125.508,149.973 125.529,149.946 125.551,149.92 125.551,149.92 125.572,149.892 125.594,149.864 125.615,149.836 125.636,149.809 125.658,149.781 125.679,149.753 125.7,149.725 125.721,149.696 125.721,149.696 125.742,149.667 125.763,149.638 125.784,149.609 125.805,149.58 125.826,149.551 125.846,149.522 125.867,149.492 125.888,149.463 125.888,149.463 125.908,149.432 125.929,149.402 125.95,149.372 125.971,149.341 125.991,149.311 126.012,149.28 126.032,149.249 126.052,149.219 126.052,149.219 126.073,149.187 126.094,149.155 126.114,149.124 126.135,149.092 126.155,149.06 126.175,149.028 126.195,148.996 126.215,148.964 126.215,148.964 126.236,148.931 126.257,148.899 126.277,148.866 126.298,148.833 126.318,148.799 126.338,148.766 126.358,148.733 126.378,148.7 126.378,148.7 126.399,148.666 126.42,148.632 126.44,148.598 126.46,148.563 126.481,148.529 126.501,148.495 126.521,148.461 126.542,148.426 126.542,148.426 126.583,148.355 126.625,148.283 126.666,148.212 126.708,148.14 126.749,148.068 126.79,147.996 126.831,147.924 126.872,147.852 131.153,140.154 129.346,136.698 125.183,136.698 121.384,143.461 117.815,149.816 116.665,151.863 111.946,160.264 114.451,160.264 115.559,158.3 119.173,151.898 120.351,149.816 126.596,138.661 127.814,138.661 128.639,140.232 124.632,147.42 124.595,147.487 124.557,147.553 124.518,147.619 124.479,147.685 124.44,147.751 124.401,147.816 124.361,147.881 124.32,147.946 124.32,147.946 124.301,147.976 124.282,148.006 124.263,148.036 124.244,148.065 124.225,148.095 124.205,148.124 124.186,148.154 124.166,148.183 124.166,148.183 124.147,148.211 124.129,148.238 124.11,148.266 124.091,148.293 124.072,148.32 124.053,148.347 124.033,148.374 124.014,148.401 124.014,148.401 123.995,148.427 123.977,148.452 123.958,148.477 123.939,148.502 123.92,148.527 123.901,148.552 123.882,148.577 123.863,148.602 123.863,148.602 123.844,148.625 123.826,148.648 123.807,148.671 123.788,148.694 123.769,148.717 123.75,148.739 123.731,148.762 123.711,148.784 123.711,148.784 123.693,148.805 123.674,148.827 123.655,148.848 123.636,148.868 123.617,148.889 123.598,148.91 123.579,148.93 123.559,148.95 123.559,148.95 123.54,148.97 123.522,148.988 123.503,149.007 123.484,149.026 123.464,149.045 123.445,149.063 123.426,149.082 123.406,149.1 123.406,149.1 123.387,149.117 123.368,149.134 123.348,149.151 123.329,149.168 123.31,149.185 123.29,149.201 123.27,149.217 123.25,149.233 123.25,149.233 123.231,149.249 123.211,149.264 123.192,149.279 123.172,149.294 123.152,149.309 123.132,149.323 123.112,149.338 123.092,149.352 123.092,149.352 123.072,149.366 123.052,149.379 123.032,149.392 123.011,149.405 122.991,149.418 122.971,149.431 122.95,149.443 122.929,149.456 122.929,149.456 122.909,149.467 122.888,149.479 122.868,149.49 122.847,149.502 122.826,149.513 122.805,149.524 122.784,149.534 122.762,149.545 122.762,149.545 122.741,149.555 122.72,149.565 122.699,149.575 122.677,149.584 122.656,149.594 122.634,149.603 122.612,149.612 122.59,149.62 122.59,149.62 122.569,149.629 122.546,149.637 122.524,149.645 122.502,149.653 122.48,149.661 122.457,149.668 122.435,149.676 122.412,149.683 122.412,149.683 122.39,149.69 122.367,149.696 122.344,149.703 122.321,149.709 122.298,149.715 122.274,149.721 122.251,149.727 122.228,149.733 122.228,149.733 122.204,149.738 122.18,149.743 122.156,149.748 122.132,149.753 122.108,149.757 122.084,149.762 122.06,149.766 122.036,149.77 122.036,149.77 122.011,149.774 121.986,149.778 121.961,149.781 121.936,149.785 121.911,149.788 121.886,149.791 121.861,149.794 121.836,149.796 121.836,149.796 121.783,149.801 121.73,149.805 121.677,149.809 121.624,149.812 121.571,149.814 121.518,149.815 121.465,149.816 121.412,149.816 120.351,149.816 119.173,151.898 120.155,151.898 121.098,153.704 119.88,155.904 119.844,155.969 119.807,156.035 119.77,156.1 119.732,156.164 119.694,156.229 119.655,156.293 119.616,156.357 119.576,156.421 119.576,156.421 119.558,156.45 119.539,156.479 119.52,156.509 119.501,156.538 119.482,156.567 119.463,156.596 119.444,156.625 119.424,156.654 119.424,156.654 119.406,156.681 119.387,156.709 119.368,156.736 119.349,156.763 119.33,156.79 119.311,156.817 119.292,156.843 119.272,156.87 119.272,156.87 119.254,156.895 119.235,156.92 119.216,156.945 119.197,156.97 119.178,156.995 119.159,157.02 119.14,157.045 119.12,157.069 119.12,157.069 119.101,157.092 119.083,157.115 119.064,157.138 119.044,157.161 119.025,157.184 119.006,157.206 118.986,157.229 118.967,157.251 118.967,157.251 118.948,157.272 118.929,157.293 118.91,157.314 118.89,157.335 118.871,157.356 118.851,157.376 118.832,157.397 118.812,157.417 118.812,157.417 118.793,157.436 118.773,157.456 118.754,157.474 118.734,157.493 118.715,157.512 118.695,157.531 118.675,157.549 118.655,157.567 118.655,157.567 118.635,157.585 118.616,157.602 118.596,157.619 118.576,157.636 118.556,157.653 118.536,157.669 118.515,157.686 118.495,157.702 118.495,157.702 118.475,157.718 118.455,157.733 118.435,157.748 118.414,157.763 118.394,157.778 118.373,157.793 118.353,157.808 118.332,157.822 118.332,157.822 118.311,157.836 118.291,157.849 118.27,157.863 118.249,157.876 118.228,157.889 118.207,157.902 118.186,157.915 118.165,157.927 118.165,157.927 118.143,157.939 118.122,157.951 118.101,157.963 118.08,157.975 118.058,157.986 118.036,157.997 118.015,158.008 117.993,158.019 117.993,158.019 117.971,158.029 117.949,158.039 117.927,158.049 117.905,158.059 117.883,158.069 117.861,158.078 117.839,158.087 117.816,158.096 117.816,158.096 117.793,158.105 117.771,158.113 117.748,158.122 117.726,158.13 117.703,158.138 117.68,158.146 117.657,158.153 117.634,158.161 117.634,158.161 117.61,158.168 117.587,158.175 117.563,158.181 117.54,158.188 117.516,158.194 117.493,158.201 117.469,158.207 117.445,158.212 117.445,158.212 117.421,158.218 117.396,158.223 117.372,158.229 117.348,158.233 117.323,158.238 117.299,158.243 117.274,158.247 117.25,158.251 117.25,158.251 117.224,158.256 117.199,158.26 117.174,158.263 117.149,158.267 117.123,158.27 117.098,158.273 117.072,158.276 117.047,158.279 117.047,158.279 116.994,158.284 116.94,158.289 116.887,158.292 116.834,158.295 116.78,158.297 116.727,158.299 116.673,158.3 116.62,158.3 115.559,158.3" fill="none" stroke="black" stroke-width="0.1"/>
        <polygon id="_132204712___0_0" points="80.4356,160.264 82.9191,160.264 82.9865,160.264 83.0539,160.263 83.1214,160.261 83.1888,160.259 83.2562,160.256 83.3235,160.252 83.3908,160.248 83.4581,160.243 83.4581,160.243 83.4905,160.24 83.5227,160.237 83.5551,160.234 83.5874,160.231 83.6196,160.227 83.6518,160.223 83.6841,160.219 83.7163,160.215 83.7163,160.215 83.7477,160.211 83.7789,160.207 83.8103,160.202 83.8416,160.197 83.8729,160.193 83.9041,160.187 83.9353,160.182 83.9664,160.177 83.9664,160.177 83.9969,160.171 84.0273,160.165 84.0577,160.159 84.088,160.153 84.1184,160.146 84.1487,160.14 84.1789,160.133 84.2091,160.126 84.2091,160.126 84.2386,160.119 84.2682,160.111 84.2977,160.104 84.3272,160.096 84.3566,160.088 84.3859,160.08 84.4153,160.071 84.4445,160.063 84.4445,160.063 84.4734,160.054 84.5022,160.045 84.5308,160.036 84.5594,160.027 84.5881,160.017 84.6166,160.007 84.645,159.998 84.6734,159.987 84.6734,159.987 84.7016,159.977 84.7296,159.967 84.7576,159.956 84.7855,159.945 84.8133,159.934 84.841,159.922 84.8685,159.911 84.8961,159.899 84.8961,159.899 84.9236,159.887 84.9509,159.875 84.9782,159.863 85.0053,159.85 85.0324,159.838 85.0594,159.825 85.0863,159.812 85.1131,159.798 85.1131,159.798 85.1398,159.785 85.1664,159.771 85.193,159.757 85.2196,159.743 85.246,159.728 85.2723,159.714 85.2985,159.699 85.3245,159.684 85.3245,159.684 85.3508,159.668 85.3769,159.653 85.403,159.637 85.4289,159.621 85.4546,159.605 85.4803,159.589 85.5059,159.572 85.5314,159.556 85.5314,159.556 85.557,159.539 85.5827,159.521 85.6081,159.504 85.6335,159.486 85.6587,159.468 85.6839,159.45 85.7088,159.432 85.7338,159.414 85.7338,159.414 85.759,159.395 85.7841,159.376 85.8091,159.357 85.834,159.337 85.8587,159.318 85.8834,159.298 85.9079,159.278 85.9322,159.258 85.9322,159.258 85.9571,159.237 85.9818,159.216 86.0064,159.195 86.0308,159.174 86.0552,159.153 86.0793,159.131 86.1034,159.109 86.1272,159.088 86.1272,159.088 86.1517,159.065 86.1761,159.042 86.2002,159.019 86.2243,158.996 86.2483,158.973 86.272,158.95 86.2958,158.926 86.3193,158.903 86.3193,158.903 86.3434,158.878 86.3674,158.853 86.3912,158.829 86.415,158.804 86.4386,158.778 86.4621,158.753 86.4854,158.728 86.5087,158.702 86.5087,158.702 86.5325,158.676 86.5563,158.649 86.5799,158.623 86.6034,158.596 86.6268,158.569 86.65,158.542 86.6731,158.514 86.696,158.487 86.696,158.487 86.7198,158.459 86.7433,158.43 86.7667,158.401 86.79,158.373 86.8131,158.344 86.8361,158.315 86.8591,158.285 86.8817,158.256 86.8817,158.256 86.9052,158.226 86.9287,158.195 86.952,158.164 86.9752,158.134 86.9981,158.103 87.021,158.072 87.0438,158.041 87.0665,158.01 87.0665,158.01 87.0899,157.977 87.1133,157.944 87.1364,157.912 87.1594,157.879 87.1824,157.846 87.2051,157.813 87.2278,157.78 87.2504,157.747 87.2504,157.747 87.2738,157.712 87.297,157.677 87.3202,157.643 87.3431,157.608 87.366,157.573 87.3888,157.538 87.4116,157.503 87.4342,157.467 87.4342,157.467 87.4576,157.43 87.4808,157.394 87.504,157.357 87.527,157.32 87.5499,157.283 87.5727,157.246 87.5955,157.209 87.6181,157.171 87.6181,157.171 87.6656,157.092 87.7126,157.013 87.7591,156.934 87.8053,156.854 87.851,156.774 87.8964,156.694 87.9414,156.613 87.986,156.533 89.5964,153.626 88.6143,151.741 88.6867,151.727 88.7587,151.712 88.8307,151.697 88.9024,151.68 88.9739,151.662 89.045,151.643 89.1159,151.623 89.1866,151.602 89.1866,151.602 89.2201,151.592 89.2537,151.581 89.2871,151.57 89.3205,151.559 89.3537,151.548 89.3868,151.536 89.42,151.524 89.453,151.512 89.453,151.512 89.4849,151.5 89.5168,151.488 89.5486,151.475 89.5803,151.462 89.6119,151.449 89.6434,151.436 89.6748,151.422 89.7061,151.409 89.7061,151.409 89.7365,151.395 89.767,151.381 89.7973,151.367 89.8273,151.352 89.8574,151.338 89.8874,151.323 89.9172,151.307 89.9468,151.292 89.9468,151.292 89.9759,151.277 90.0049,151.261 90.0337,151.245 90.0624,151.229 90.0911,151.213 90.1195,151.196 90.1479,151.18 90.1761,151.163 90.1761,151.163 90.2039,151.146 90.2316,151.129 90.2591,151.111 90.2864,151.093 90.3138,151.076 90.3409,151.058 90.3678,151.039 90.3947,151.021 90.3947,151.021 90.4213,151.002 90.4478,150.983 90.4741,150.965 90.5003,150.945 90.5263,150.926 90.5522,150.906 90.578,150.887 90.6037,150.867 90.6037,150.867 90.6292,150.846 90.6546,150.826 90.6798,150.806 90.705,150.785 90.7299,150.764 90.7547,150.743 90.7795,150.722 90.8039,150.7 90.8039,150.7 90.8285,150.679 90.8528,150.657 90.8771,150.635 90.9012,150.613 90.9252,150.59 90.949,150.568 90.9727,150.545 90.9962,150.522 90.9962,150.522 91.0198,150.499 91.0434,150.476 91.0668,150.452 91.09,150.429 91.1131,150.405 91.136,150.381 91.159,150.357 91.1816,150.333 91.1816,150.333 91.2046,150.308 91.2273,150.283 91.2499,150.258 91.2725,150.233 91.2948,150.208 91.317,150.183 91.339,150.157 91.361,150.132 91.361,150.132 91.3832,150.105 91.4053,150.079 91.4274,150.053 91.4492,150.026 91.4709,150.0 91.4925,149.973 91.514,149.946 91.5354,149.92 91.5354,149.92 91.557,149.892 91.5786,149.864 91.5999,149.836 91.6213,149.809 91.6425,149.781 91.6635,149.753 91.6845,149.725 91.7054,149.696 91.7054,149.696 91.7267,149.667 91.7479,149.638 91.7689,149.609 91.7898,149.58 91.8107,149.551 91.8313,149.522 91.852,149.492 91.8724,149.463 91.8724,149.463 91.8933,149.432 91.9142,149.402 91.9349,149.372 91.9555,149.341 91.976,149.311 91.9965,149.28 92.0168,149.249 92.0371,149.219 92.0371,149.219 92.0577,149.187 92.0784,149.155 92.0989,149.124 92.1193,149.092 92.1397,149.06 92.16,149.028 92.1802,148.996 92.2003,148.964 92.2003,148.964 92.221,148.931 92.2415,148.899 92.2619,148.866 92.2823,148.833 92.3026,148.799 92.3229,148.766 92.3431,148.733 92.3631,148.7 92.3631,148.7 92.3838,148.666 92.4043,148.632 92.4248,148.598 92.4452,148.563 92.4656,148.529 92.4859,148.495 92.5062,148.461 92.5264,148.426 92.5264,148.426 92.5682,148.355 92.6098,148.283 92.6512,148.212 92.6925,148.14 92.7337,148.068 92.7747,147.996 92.8157,147.924 92.8565,147.852 97.1377,140.154 95.3307,136.698 91.1676,136.698 87.369,143.461 83.7993,149.816 82.65,151.863 77.9308,160.264 80.4356,160.264 81.5443,158.3 85.1579,151.898 86.3362,149.816 92.5813,138.661 93.7991,138.661 94.624,140.232 90.6174,147.42 90.5797,147.487 90.5416,147.553 90.5031,147.619 90.4643,147.685 90.4251,147.751 90.3855,147.816 90.3454,147.881 90.3049,147.946 90.3049,147.946 90.2861,147.976 90.2671,148.006 90.2481,148.036 90.2289,148.065 90.2096,148.095 90.1903,148.124 90.1707,148.154 90.151,148.183 90.151,148.183 90.1324,148.211 90.1136,148.238 90.0949,148.266 90.0759,148.293 90.0568,148.32 90.0376,148.347 90.0182,148.374 89.9987,148.401 89.9987,148.401 89.9802,148.427 89.9617,148.452 89.943,148.477 89.9241,148.502 89.9051,148.527 89.8859,148.552 89.8667,148.577 89.8474,148.602 89.8474,148.602 89.8289,148.625 89.8104,148.648 89.7917,148.671 89.7728,148.694 89.7538,148.717 89.7347,148.739 89.7155,148.762 89.6961,148.784 89.6961,148.784 89.6776,148.805 89.6588,148.827 89.6401,148.848 89.6211,148.868 89.602,148.889 89.5828,148.91 89.5635,148.93 89.544,148.95 89.544,148.95 89.5253,148.97 89.5065,148.988 89.4876,149.007 89.4685,149.026 89.4493,149.045 89.4298,149.063 89.4104,149.082 89.3907,149.1 89.3907,149.1 89.3717,149.117 89.3525,149.134 89.3333,149.151 89.3138,149.168 89.2944,149.185 89.2747,149.201 89.2549,149.217 89.2349,149.233 89.2349,149.233 89.2156,149.249 89.1961,149.264 89.1766,149.279 89.1568,149.294 89.1368,149.309 89.1168,149.323 89.0966,149.338 89.0763,149.352 89.0763,149.352 89.0565,149.366 89.0365,149.379 89.0164,149.392 88.9962,149.405 88.9758,149.418 88.9554,149.431 88.9348,149.443 88.914,149.456 88.914,149.456 88.8936,149.467 88.8731,149.479 88.8523,149.49 88.8315,149.502 88.8107,149.513 88.7897,149.524 88.7685,149.534 88.7473,149.545 88.7473,149.545 88.7262,149.555 88.7048,149.565 88.6834,149.575 88.662,149.584 88.6405,149.594 88.6189,149.603 88.5972,149.612 88.5753,149.62 88.5753,149.62 88.5534,149.629 88.5313,149.637 88.5092,149.645 88.4869,149.653 88.4647,149.661 88.4422,149.668 88.4198,149.676 88.3974,149.683 88.3974,149.683 88.3745,149.69 88.3515,149.696 88.3286,149.703 88.3056,149.709 88.2825,149.715 88.2593,149.721 88.2361,149.727 88.2129,149.733 88.2129,149.733 88.189,149.738 88.1651,149.743 88.1413,149.748 88.1173,149.753 88.0932,149.757 88.0692,149.762 88.0451,149.766 88.021,149.77 88.021,149.77 87.996,149.774 87.9711,149.778 87.9461,149.781 87.9211,149.785 87.8961,149.788 87.8711,149.791 87.8459,149.794 87.8208,149.796 87.8208,149.796 87.768,149.801 87.7151,149.805 87.6621,149.809 87.6091,149.812 87.556,149.814 87.503,149.815 87.4499,149.816 87.3968,149.816 86.3362,149.816 85.1579,151.898 86.1398,151.898 87.0825,153.704 85.8653,155.904 85.8288,155.969 85.7918,156.035 85.7544,156.1 85.7167,156.164 85.6785,156.229 85.6398,156.293 85.6007,156.357 85.5611,156.421 85.5611,156.421 85.5425,156.45 85.5237,156.479 85.5049,156.509 85.4859,156.538 85.4669,156.567 85.4477,156.596 85.4284,156.625 85.4089,156.654 85.4089,156.654 85.3904,156.681 85.3717,156.709 85.353,156.736 85.334,156.763 85.315,156.79 85.2958,156.817 85.2766,156.843 85.2571,156.87 85.2571,156.87 85.2385,156.895 85.2198,156.92 85.201,156.945 85.1819,156.97 85.1628,156.995 85.1436,157.02 85.1244,157.045 85.1048,157.069 85.1048,157.069 85.0861,157.092 85.0674,157.115 85.0484,157.138 85.0293,157.161 85.0101,157.184 84.9907,157.206 84.9712,157.229 84.9516,157.251 84.9516,157.251 84.9327,157.272 84.9137,157.293 84.8946,157.314 84.8752,157.335 84.8558,157.356 84.8362,157.376 84.8165,157.397 84.7967,157.417 84.7967,157.417 84.7775,157.436 84.7583,157.456 84.7388,157.474 84.7192,157.493 84.6996,157.512 84.6797,157.531 84.6598,157.549 84.6396,157.567 84.6396,157.567 84.6201,157.585 84.6005,157.602 84.5807,157.619 84.5608,157.636 84.5407,157.653 84.5205,157.669 84.5002,157.686 84.4798,157.702 84.4798,157.702 84.4599,157.718 84.4397,157.733 84.4196,157.748 84.3992,157.763 84.3788,157.778 84.3581,157.793 84.3375,157.808 84.3166,157.822 84.3166,157.822 84.2961,157.836 84.2755,157.849 84.2548,157.863 84.2339,157.876 84.213,157.889 84.1919,157.902 84.1707,157.915 84.1494,157.927 84.1494,157.927 84.1283,157.939 84.1071,157.951 84.0858,157.963 84.0644,157.975 84.0429,157.986 84.0212,157.997 83.9996,158.008 83.9778,158.019 83.9778,158.019 83.9559,158.029 83.9341,158.039 83.9121,158.049 83.8901,158.059 83.8679,158.069 83.8457,158.078 83.8233,158.087 83.8009,158.096 83.8009,158.096 83.7783,158.105 83.7558,158.113 83.7331,158.122 83.7103,158.13 83.6875,158.138 83.6646,158.146 83.6416,158.153 83.6185,158.161 83.6185,158.161 83.5952,158.168 83.5718,158.175 83.5483,158.181 83.5246,158.188 83.501,158.194 83.4774,158.201 83.4536,158.207 83.4299,158.212 83.4299,158.212 83.4056,158.218 83.3813,158.223 83.3569,158.229 83.3326,158.233 83.3081,158.238 83.2836,158.243 83.2591,158.247 83.2345,158.251 83.2345,158.251 83.2092,158.256 83.1839,158.26 83.1586,158.263 83.1333,158.267 83.1079,158.27 83.0826,158.273 83.0572,158.276 83.0317,158.279 83.0317,158.279 82.9785,158.284 82.9253,158.289 82.8719,158.292 82.8186,158.295 82.7652,158.297 82.7118,158.299 82.6583,158.3 82.605,158.3 81.5443,158.3" fill="none" stroke="black" stroke-width="0.1"/>
        <polygon id="center_00" cx="105.774" cy="148.5" points="117.6952,148.5 117.62989441906426,149.74610471630635 117.43469317786784,150.97855684857666 117.11173494205778,152.18385339334262 116.66455810964898,153.34878886943523 116.09806204359505,154.4606 115.41845339334263,155.50710554962905 114.63317809348112,156.47683978452523 113.75083978452523,157.35917809348112 112.78110554962903,158.14445339334262 111.7346,158.82406204359506 110.62278886943523,159.39055810964896 109.45785339334263,159.83773494205778 108.25255684857667,160.16069317786784 107.02010471630635,160.35589441906427 105.774,160.4212 104.52789528369365,160.35589441906427 103.29544315142333,160.16069317786784 102.09014660665738,159.83773494205778 100.92521113056478,159.39055810964896 99.8134,158.82406204359506 98.76689445037097,158.14445339334262 97.79716021547479,157.35917809348112 96.9148219065189,156.47683978452523 96.12954660665739,155.50710554962905 95.44993795640495,154.4606 94.88344189035102,153.34878886943523 94.43626505794222,152.18385339334262 94.11330682213216,150.9785568485767 93.91810558093574,149.74610471630635 93.8528,148.5 93.91810558093574,147.25389528369365 94.11330682213216,146.02144315142334 94.43626505794222,144.81614660665738 94.88344189035102,143.65121113056477 95.44993795640495,142.5394 96.12954660665737,141.49289445037098 96.91482190651888,140.52316021547477 97.79716021547478,139.64082190651888 98.76689445037097,138.85554660665738 99.8134,138.17593795640494 100.92521113056476,137.60944189035104 102.09014660665737,137.16226505794222 103.29544315142333,136.83930682213216 104.52789528369364,136.64410558093573 105.774,136.5788 107.02010471630635,136.64410558093573 108.25255684857666,136.83930682213216 109.45785339334262,137.16226505794222 110.62278886943523,137.60944189035104 111.7346,138.17593795640494 112.78110554962903,138.85554660665738 113.75083978452521,139.64082190651888 114.6331780934811,140.52316021547477 115.41845339334262,141.49289445037095 116.09806204359505,142.5394 116.66455810964897,143.65121113056477 117.11173494205778,144.81614660665738 117.43469317786784,146.0214431514233 117.62989441906426,147.25389528369365" fill="none" stroke="black" stroke-width="0.1"/>
        <polygon id="_131954472___1" points="131.036,152.684 132.097,152.684 130.211,160.265 132.568,160.265 134.375,152.566 134.43,152.554 134.485,152.543 134.54,152.53 134.594,152.517 134.649,152.502 134.703,152.488 134.757,152.472 134.811,152.456 134.811,152.456 134.837,152.448 134.864,152.44 134.89,152.431 134.916,152.422 134.943,152.413 134.969,152.404 134.995,152.395 135.021,152.386 135.227,152.304 135.252,152.293 135.278,152.281 135.303,152.27 135.328,152.258 135.353,152.247 135.378,152.235 135.403,152.222 135.428,152.21 135.428,152.21 135.453,152.197 135.478,152.185 135.503,152.172 135.527,152.159 135.552,152.145 135.576,152.132 135.601,152.118 135.625,152.104 135.625,152.104 135.65,152.09 135.674,152.076 135.699,152.061 135.723,152.047 135.747,152.032 135.771,152.017 135.795,152.001 135.819,151.986 135.819,151.986 135.843,151.97 135.867,151.954 135.891,151.938 135.915,151.921 135.939,151.905 135.963,151.888 135.987,151.871 136.01,151.854 136.01,151.854 136.034,151.837 136.058,151.819 136.082,151.801 136.105,151.783 136.129,151.765 136.152,151.746 136.175,151.727 136.199,151.709 136.199,151.709 136.222,151.689 136.246,151.67 136.27,151.65 136.293,151.63 136.316,151.61 136.339,151.59 136.363,151.57 136.385,151.549 136.385,151.549 136.409,151.528 136.433,151.506 136.456,151.485 136.479,151.463 136.502,151.441 136.525,151.419 136.548,151.397 136.571,151.375 136.571,151.375 136.594,151.351 136.618,151.328 136.641,151.305 136.664,151.281 136.687,151.257 136.71,151.233 136.733,151.209 136.755,151.185 136.755,151.185 136.779,151.16 136.802,151.135 136.825,151.109 136.848,151.083 136.871,151.058 136.894,151.032 136.917,151.006 136.94,150.98 136.94,150.98 136.963,150.953 136.986,150.925 137.01,150.898 137.033,150.87 137.056,150.842 137.078,150.814 137.101,150.786 137.124,150.758 137.124,150.758 137.147,150.729 137.171,150.699 137.194,150.67 137.217,150.64 137.241,150.61 137.263,150.58 137.286,150.55 137.309,150.52 137.309,150.52 137.333,150.488 137.356,150.457 137.38,150.425 137.403,150.393 137.426,150.361 137.45,150.329 137.472,150.297 137.495,150.265 137.495,150.265 137.519,150.231 137.543,150.197 137.567,150.163 137.59,150.129 137.614,150.094 137.637,150.06 137.66,150.026 137.683,149.991 137.683,149.991 137.708,149.955 137.732,149.919 137.756,149.882 137.779,149.846 137.803,149.81 137.827,149.773 137.85,149.737 137.874,149.7 137.874,149.7 137.898,149.661 137.922,149.623 137.947,149.584 137.971,149.545 137.995,149.506 138.019,149.468 138.043,149.428 138.066,149.39 138.066,149.39 138.117,149.306 138.167,149.223 138.217,149.139 138.266,149.055 138.315,148.97 138.363,148.886 138.412,148.801 138.46,148.716 143.291,140.075 141.524,136.698 137.477,136.698 124.241,160.265 126.755,160.265 132.136,150.72 138.892,138.661 139.992,138.661 140.738,140.114 136.142,148.324 136.104,148.39 136.066,148.456 136.028,148.522 135.989,148.588 135.95,148.654 135.91,148.719 135.87,148.784 135.83,148.849 135.83,148.849 135.811,148.879 135.792,148.909 135.773,148.939 135.753,148.968 135.734,148.998 135.715,149.027 135.695,149.057 135.676,149.086 135.676,149.086 135.657,149.114 135.638,149.141 135.619,149.169 135.6,149.196 135.581,149.223 135.562,149.25 135.543,149.278 135.523,149.304 135.523,149.304 135.505,149.33 135.486,149.355 135.468,149.38 135.449,149.405 135.43,149.43 135.411,149.455 135.391,149.48 135.372,149.505 135.372,149.505 135.353,149.528 135.335,149.551 135.316,149.574 135.297,149.597 135.278,149.62 135.259,149.643 135.24,149.665 135.221,149.688 135.221,149.688 135.202,149.709 135.184,149.73 135.165,149.751 135.146,149.772 135.127,149.792 135.107,149.813 135.088,149.833 135.069,149.854 135.069,149.854 135.05,149.873 135.031,149.892 135.012,149.911 134.993,149.929 134.974,149.948 134.954,149.966 134.935,149.985 134.915,150.003 134.915,150.003 134.896,150.02 134.877,150.037 134.858,150.054 134.839,150.071 134.819,150.088 134.799,150.104 134.78,150.121 134.76,150.137 134.76,150.137 134.74,150.152 134.721,150.167 134.701,150.182 134.681,150.197 134.661,150.212 134.641,150.227 134.621,150.241 134.601,150.255 134.601,150.255 134.581,150.269 134.561,150.282 134.541,150.295 134.521,150.309 134.5,150.321 134.48,150.334 134.459,150.346 134.439,150.359 134.439,150.359 134.418,150.37 134.398,150.382 134.377,150.394 134.356,150.405 134.335,150.416 134.314,150.427 134.293,150.438 134.272,150.448 134.272,150.448 134.251,150.458 134.229,150.468 134.208,150.478 134.187,150.488 134.165,150.497 134.143,150.506 134.122,150.515 134.1,150.524 134.1,150.524 134.078,150.532 134.056,150.541 134.034,150.549 134.012,150.557 133.989,150.564 133.967,150.572 133.944,150.579 133.922,150.586 133.922,150.586 133.899,150.593 133.876,150.6 133.853,150.606 133.83,150.612 133.807,150.619 133.784,150.625 133.761,150.63 133.738,150.636 133.738,150.636 133.714,150.641 133.69,150.646 133.666,150.651 133.642,150.656 133.618,150.661 133.594,150.665 133.57,150.669 133.546,150.673 133.546,150.673 133.521,150.677 133.496,150.681 133.471,150.685 133.446,150.688 133.421,150.691 133.396,150.694 133.371,150.697 133.345,150.7 133.345,150.7 133.293,150.705 133.24,150.709 133.187,150.712 133.134,150.715 133.081,150.717 133.028,150.718 132.975,150.719 132.921,150.72 132.136,150.72" fill="none" stroke="black" stroke-width="0.1"/>
        <polygon id="_131954472___1_1" points="193.137,152.684 194.197,152.684 192.312,160.265 194.669,160.265 196.475,152.566 196.53,152.554 196.585,152.543 196.64,152.53 196.695,152.517 196.749,152.502 196.804,152.488 196.858,152.472 196.911,152.456 196.911,152.456 196.938,152.448 196.964,152.44 196.991,152.431 197.017,152.422 197.043,152.413 197.07,152.404 197.096,152.395 197.122,152.386 197.327,152.304 197.353,152.293 197.378,152.281 197.403,152.27 197.429,152.258 197.454,152.247 197.479,152.235 197.504,152.222 197.529,152.21 197.529,152.21 197.553,152.197 197.579,152.185 197.603,152.172 197.628,152.159 197.653,152.145 197.677,152.132 197.702,152.118 197.726,152.104 197.726,152.104 197.75,152.09 197.775,152.076 197.799,152.061 197.824,152.047 197.848,152.032 197.872,152.017 197.896,152.001 197.92,151.986 197.92,151.986 197.944,151.97 197.968,151.954 197.992,151.938 198.016,151.921 198.04,151.905 198.064,151.888 198.087,151.871 198.111,151.854 198.111,151.854 198.135,151.837 198.159,151.819 198.182,151.801 198.206,151.783 198.23,151.765 198.253,151.746 198.276,151.727 198.299,151.709 198.299,151.709 198.323,151.689 198.347,151.67 198.37,151.65 198.394,151.63 198.417,151.61 198.44,151.59 198.463,151.57 198.486,151.549 198.486,151.549 198.51,151.528 198.533,151.506 198.557,151.485 198.58,151.463 198.603,151.441 198.626,151.419 198.649,151.397 198.671,151.375 198.671,151.375 198.695,151.351 198.718,151.328 198.742,151.305 198.765,151.281 198.788,151.257 198.811,151.233 198.833,151.209 198.856,151.185 198.856,151.185 198.88,151.16 198.903,151.135 198.926,151.109 198.949,151.083 198.972,151.058 198.995,151.032 199.018,151.006 199.04,150.98 199.04,150.98 199.064,150.953 199.087,150.925 199.11,150.898 199.133,150.87 199.156,150.842 199.179,150.814 199.202,150.786 199.225,150.758 199.225,150.758 199.248,150.729 199.272,150.699 199.295,150.67 199.318,150.64 199.341,150.61 199.364,150.58 199.387,150.55 199.41,150.52 199.41,150.52 199.433,150.488 199.457,150.457 199.481,150.425 199.504,150.393 199.527,150.361 199.55,150.329 199.573,150.297 199.596,150.265 199.596,150.265 199.62,150.231 199.644,150.197 199.667,150.163 199.691,150.129 199.714,150.094 199.738,150.06 199.761,150.026 199.784,149.991 199.784,149.991 199.808,149.955 199.832,149.919 199.856,149.882 199.88,149.846 199.904,149.81 199.927,149.773 199.951,149.737 199.974,149.7 199.974,149.7 199.999,149.661 200.023,149.623 200.047,149.584 200.072,149.545 200.096,149.506 200.12,149.468 200.143,149.428 200.167,149.39 200.167,149.39 200.218,149.306 200.268,149.223 200.317,149.139 200.367,149.055 200.416,148.97 200.464,148.886 200.512,148.801 200.56,148.716 205.391,140.075 203.624,136.698 199.578,136.698 186.341,160.265 188.855,160.265 194.236,150.72 200.993,138.661 202.092,138.661 202.839,140.114 198.243,148.324 198.205,148.39 198.167,148.456 198.128,148.522 198.089,148.588 198.05,148.654 198.011,148.719 197.971,148.784 197.93,148.849 197.93,148.849 197.911,148.879 197.892,148.909 197.873,148.939 197.854,148.968 197.835,148.998 197.815,149.027 197.796,149.057 197.776,149.086 197.776,149.086 197.758,149.114 197.739,149.141 197.72,149.169 197.701,149.196 197.682,149.223 197.663,149.25 197.644,149.278 197.624,149.304 197.624,149.304 197.606,149.33 197.587,149.355 197.568,149.38 197.549,149.405 197.53,149.43 197.511,149.455 197.492,149.48 197.473,149.505 197.473,149.505 197.454,149.528 197.436,149.551 197.417,149.574 197.398,149.597 197.379,149.62 197.36,149.643 197.341,149.665 197.321,149.688 197.321,149.688 197.303,149.709 197.284,149.73 197.265,149.751 197.246,149.772 197.227,149.792 197.208,149.813 197.189,149.833 197.169,149.854 197.169,149.854 197.151,149.873 197.132,149.892 197.113,149.911 197.094,149.929 197.075,149.948 197.055,149.966 197.036,149.985 197.016,150.003 197.016,150.003 196.997,150.02 196.978,150.037 196.959,150.054 196.939,150.071 196.92,150.088 196.9,150.104 196.88,150.121 196.86,150.137 196.86,150.137 196.841,150.152 196.822,150.167 196.802,150.182 196.782,150.197 196.762,150.212 196.742,150.227 196.722,150.241 196.702,150.255 196.702,150.255 196.682,150.269 196.662,150.282 196.642,150.295 196.621,150.309 196.601,150.321 196.581,150.334 196.56,150.346 196.539,150.359 196.539,150.359 196.519,150.37 196.498,150.382 196.478,150.394 196.457,150.405 196.436,150.416 196.415,150.427 196.394,150.438 196.373,150.448 196.373,150.448 196.351,150.458 196.33,150.468 196.309,150.478 196.287,150.488 196.266,150.497 196.244,150.506 196.223,150.515 196.201,150.524 196.201,150.524 196.179,150.532 196.157,150.541 196.135,150.549 196.112,150.557 196.09,150.564 196.068,150.572 196.045,150.579 196.023,150.586 196.023,150.586 196.0,150.593 195.977,150.6 195.954,150.606 195.931,150.612 195.908,150.619 195.885,150.625 195.861,150.63 195.838,150.636 195.838,150.636 195.814,150.641 195.79,150.646 195.766,150.651 195.743,150.656 195.719,150.661 195.695,150.665 195.67,150.669 195.646,150.673 195.646,150.673 195.621,150.677 195.596,150.681 195.571,150.685 195.547,150.688 195.521,150.691 195.496,150.694 195.471,150.697 195.446,150.7 195.446,150.7 195.393,150.705 195.34,150.709 195.287,150.712 195.234,150.715 195.181,150.717 195.128,150.718 195.075,150.719 195.022,150.72 194.236,150.72" fill="none" stroke="black" stroke-width="0.1"/>
        <polygon id="_132883608_1" points="63.3194,138.582 63.263,138.591 63.2067,138.6 63.1503,138.609 63.0941,138.618 63.0379,138.628 62.9818,138.638 62.9257,138.649 62.8698,138.66 62.8698,138.66 62.8446,138.665 62.8195,138.67 62.7944,138.675 62.7694,138.68 62.7444,138.686 62.7195,138.691 62.6946,138.697 62.6696,138.703 62.6696,138.703 62.6465,138.709 62.6234,138.714 62.6004,138.72 62.5774,138.726 62.5544,138.732 62.5315,138.738 62.5087,138.745 62.4859,138.751 62.4859,138.751 62.4647,138.757 62.4435,138.764 62.4222,138.77 62.4011,138.777 62.38,138.784 62.359,138.79 62.338,138.798 62.3171,138.805 62.3171,138.805 62.2974,138.812 62.2778,138.819 62.2582,138.826 62.2388,138.834 62.2193,138.841 62.2,138.849 62.1808,138.857 62.1616,138.865 62.1616,138.865 62.1433,138.873 62.1252,138.881 62.107,138.889 62.089,138.897 62.0711,138.906 62.0532,138.915 62.0354,138.923 62.0178,138.933 62.0178,138.933 62.0007,138.942 61.9836,138.951 61.9668,138.96 61.95,138.969 61.9333,138.979 61.9167,138.989 61.9002,138.999 61.8839,139.009 61.8839,139.009 61.8677,139.019 61.8517,139.029 61.8359,139.04 61.8201,139.051 61.8045,139.062 61.789,139.073 61.7736,139.084 61.7583,139.095 61.7583,139.095 61.743,139.107 61.7279,139.119 61.713,139.13 61.698,139.142 61.6832,139.155 61.6687,139.167 61.6541,139.179 61.6398,139.192 61.6398,139.192 61.6251,139.205 61.6107,139.218 61.5962,139.232 61.582,139.245 61.5679,139.259 61.5539,139.273 61.54,139.286 61.5263,139.301 61.5263,139.301 61.5121,139.315 61.498,139.33 61.4841,139.345 61.4703,139.36 61.4566,139.375 61.4431,139.391 61.4296,139.406 61.4164,139.422 61.4164,139.422 61.4024,139.438 61.3886,139.455 61.375,139.472 61.3614,139.488 61.3479,139.505 61.3346,139.522 61.3214,139.54 61.3083,139.557 61.3083,139.557 61.2944,139.575 61.2807,139.594 61.2671,139.612 61.2535,139.631 61.2401,139.649 61.2267,139.668 61.2135,139.687 61.2004,139.706 61.2004,139.706 61.1864,139.727 61.1724,139.747 61.1587,139.768 61.145,139.788 61.1314,139.809 61.1179,139.83 61.1044,139.851 61.091,139.872 61.091,139.872 61.0767,139.894 61.0625,139.917 61.0483,139.939 61.0342,139.962 61.0202,139.985 61.0062,140.008 60.9924,140.031 60.9785,140.053 60.9785,140.053 60.9636,140.078 60.9488,140.103 60.934,140.128 60.9193,140.153 60.9046,140.178 60.8901,140.203 60.8755,140.228 60.8611,140.253 60.6089,140.704 57.1917,146.713 57.1643,146.763 57.1372,146.813 57.1104,146.863 57.0839,146.914 57.0579,146.964 57.0322,147.015 57.007,147.066 56.9821,147.118 56.9821,147.118 56.9708,147.142 56.9596,147.166 56.9485,147.19 56.9375,147.214 56.9267,147.238 56.9159,147.262 56.9053,147.286 56.8948,147.31 56.8948,147.31 56.885,147.333 56.8753,147.357 56.8658,147.38 56.8564,147.403 56.8472,147.426 56.838,147.45 56.829,147.473 56.8203,147.497 56.8203,147.497 56.8121,147.519 56.804,147.542 56.7961,147.564 56.7883,147.587 56.7807,147.61 56.7733,147.632 56.766,147.655 56.7589,147.678 56.7589,147.678 56.7523,147.7 56.7458,147.722 56.7395,147.744 56.7334,147.767 56.7276,147.789 56.7219,147.811 56.7164,147.833 56.711,147.856 56.711,147.856 56.706,147.878 56.7012,147.899 56.6966,147.921 56.6923,147.943 56.6881,147.965 56.684,147.987 56.6803,148.009 56.6767,148.031 56.6767,148.031 56.6735,148.053 56.6704,148.074 56.6676,148.096 56.6649,148.118 56.6625,148.14 56.6604,148.161 56.6584,148.183 56.6567,148.205 56.6567,148.205 56.6551,148.227 56.654,148.249 56.6529,148.27 56.652,148.292 56.6514,148.314 56.6511,148.336 56.6508,148.357 56.651,148.379 56.651,148.379 56.6513,148.401 56.6518,148.423 56.6526,148.445 56.6536,148.467 56.6549,148.489 56.6563,148.511 56.658,148.533 56.6599,148.555 56.6599,148.555 56.6622,148.577 56.6646,148.599 56.6672,148.622 56.6701,148.644 56.6732,148.666 56.6765,148.688 56.6801,148.71 56.6838,148.733 56.6838,148.733 56.688,148.755 56.6923,148.778 56.6969,148.801 56.7017,148.824 56.7067,148.846 56.712,148.869 56.7174,148.891 56.7231,148.914 56.7231,148.914 56.7291,148.938 56.7355,148.961 56.742,148.984 56.7487,149.008 56.7558,149.031 56.7629,149.054 56.7702,149.077 56.7777,149.101 56.8481,149.293 56.8691,149.345 56.891,149.396 56.9134,149.447 56.9366,149.498 56.9603,149.548 56.9847,149.599 57.0095,149.649 57.0348,149.698 57.9383,151.466 57.9542,151.497 57.9701,151.528 57.9858,151.559 58.0015,151.591 58.017,151.622 58.0324,151.653 58.0477,151.685 58.0628,151.716 58.0628,151.716 58.07,151.732 58.0771,151.747 58.0843,151.762 58.0915,151.777 58.0985,151.793 58.1055,151.808 58.1126,151.823 58.1195,151.839 58.1195,151.839 58.1262,151.853 58.133,151.869 58.1397,151.883 58.1462,151.898 58.1528,151.914 58.1594,151.928 58.1658,151.944 58.1722,151.959 58.1722,151.959 58.1785,151.973 58.1847,151.988 58.1909,152.003 58.197,152.018 58.203,152.032 58.209,152.047 58.215,152.062 58.2208,152.077 58.2208,152.077 58.2266,152.091 58.2323,152.106 58.2379,152.12 58.2435,152.135 58.249,152.15 58.2545,152.165 58.2598,152.179 58.2652,152.194 58.2652,152.194 58.2705,152.208 58.2756,152.223 58.2806,152.237 58.2856,152.252 58.2906,152.266 58.2955,152.281 58.3003,152.296 58.3051,152.31 58.3051,152.31 58.3097,152.324 58.3144,152.339 58.3189,152.353 58.3233,152.368 58.3278,152.382 58.3322,152.397 58.3365,152.411 58.3406,152.426 58.3406,152.426 58.3447,152.44 58.3488,152.455 58.3527,152.469 58.3566,152.483 58.3605,152.498 58.3642,152.512 58.3679,152.527 58.3716,152.541 58.3716,152.541 58.375,152.555 58.3785,152.57 58.3818,152.584 58.3852,152.599 58.3884,152.613 58.3915,152.628 58.3946,152.642 58.3976,152.657 58.3976,152.657 58.4004,152.671 58.4033,152.686 58.4062,152.7 58.4088,152.715 58.4114,152.729 58.414,152.744 58.4164,152.758 58.4188,152.773 58.4188,152.773 58.4212,152.787 58.4233,152.802 58.4256,152.817 58.4276,152.832 58.4297,152.846 58.4316,152.861 58.4334,152.875 58.4352,152.89 58.4352,152.89 58.4368,152.905 58.4385,152.92 58.4401,152.935 58.4415,152.95 58.4428,152.964 58.4441,152.979 58.4453,152.994 58.4464,153.009 58.4464,153.009 58.4475,153.024 58.4484,153.039 58.4492,153.054 58.4501,153.069 58.4508,153.084 58.4514,153.099 58.452,153.114 58.4525,153.129 58.4525,153.129 58.4528,153.144 58.4532,153.16 58.4534,153.175 58.4535,153.19 58.4537,153.206 58.4535,153.221 58.4535,153.236 58.4533,153.252 58.4533,153.252 58.4529,153.267 58.4526,153.283 58.4521,153.298 58.4515,153.314 58.4509,153.33 58.4502,153.345 58.4494,153.361 58.4485,153.376 58.4485,153.376 58.4476,153.393 58.4465,153.409 58.4453,153.424 58.4441,153.44 58.4427,153.456 58.4414,153.472 58.4398,153.488 58.4383,153.504 58.4383,153.504 58.4366,153.521 58.4348,153.537 58.4329,153.553 58.431,153.57 58.429,153.586 58.4269,153.603 58.4247,153.619 58.4224,153.635 58.4224,153.635 58.42,153.652 58.4175,153.669 58.4149,153.686 58.4122,153.703 58.4095,153.72 58.4066,153.736 58.4038,153.753 58.4008,153.77 58.4008,153.77 58.3976,153.787 58.3943,153.805 58.391,153.822 58.3877,153.84 58.3842,153.857 58.3806,153.874 58.3769,153.892 58.3732,153.909 58.3732,153.909 58.3693,153.927 58.3653,153.945 58.3613,153.963 58.3571,153.98 58.3529,153.998 58.3486,154.016 58.3442,154.034 58.3398,154.052 58.3398,154.052 58.3352,154.07 58.3304,154.089 58.3255,154.107 58.3206,154.126 58.3156,154.144 58.3106,154.163 58.3054,154.181 58.3002,154.2 58.3002,154.2 58.2947,154.219 58.2891,154.238 58.2835,154.257 58.2777,154.276 58.272,154.296 58.2662,154.315 58.2603,154.334 58.2544,154.353 58.2544,154.353 58.248,154.373 58.2417,154.393 58.2353,154.412 58.2288,154.432 58.2223,154.452 58.2156,154.472 58.2089,154.492 58.2022,154.511 58.2022,154.511 58.195,154.532 58.1879,154.553 58.1807,154.573 58.1734,154.594 58.166,154.614 58.1586,154.635 58.1511,154.655 58.1436,154.676 58.1436,154.676 58.1356,154.697 58.1276,154.719 58.1196,154.74 58.1115,154.761 58.1034,154.783 58.0952,154.804 58.0869,154.825 58.0786,154.847 58.0786,154.847 58.0697,154.869 58.0609,154.891 58.0519,154.913 58.043,154.935 58.034,154.958 58.025,154.98 58.0158,155.002 58.0066,155.024 58.0066,155.024 57.9969,155.047 57.9873,155.07 57.9776,155.094 57.9678,155.117 57.9579,155.14 57.948,155.163 57.9381,155.186 57.9281,155.209 57.9281,155.209 57.9176,155.233 57.9069,155.257 57.8963,155.281 57.8857,155.305 57.875,155.329 57.8642,155.353 57.8534,155.377 57.8425,155.401 57.8425,155.401 57.8312,155.426 57.8197,155.451 57.8081,155.476 57.7966,155.501 57.785,155.526 57.7734,155.551 57.7617,155.576 57.75,155.601 57.75,155.601 57.7377,155.627 57.7254,155.653 57.713,155.679 57.7005,155.705 57.6881,155.731 57.6755,155.757 57.663,155.783 57.6504,155.809 57.6504,155.809 57.6358,155.838 57.6212,155.868 57.6067,155.898 57.592,155.928 57.5773,155.958 57.5625,155.987 57.5477,156.017 57.5328,156.047 57.5328,156.047 57.5163,156.079 57.4997,156.112 57.4832,156.145 57.4666,156.178 57.4499,156.211 57.4332,156.243 57.4163,156.276 57.3995,156.308 57.3995,156.308 57.3814,156.343 57.3631,156.378 57.3447,156.413 57.3265,156.448 57.308,156.483 57.2895,156.518 57.271,156.553 57.2523,156.587 57.2523,156.587 57.2342,156.621 57.2159,156.655 57.1976,156.688 57.1792,156.722 57.1608,156.756 57.1422,156.789 57.1236,156.822 57.105,156.856 57.105,156.856 57.0867,156.888 57.0684,156.921 57.0502,156.953 57.0317,156.985 57.0132,157.018 56.9947,157.05 56.9761,157.082 56.9573,157.114 56.9573,157.114 56.9391,157.145 56.9207,157.176 56.9023,157.208 56.8838,157.238 56.8653,157.269 56.8467,157.3 56.828,157.331 56.8092,157.362 56.8092,157.362 56.7908,157.392 56.7725,157.422 56.754,157.452 56.7355,157.481 56.7168,157.511 56.6981,157.541 56.6793,157.57 56.6604,157.6 56.6604,157.6 56.6419,157.629 56.6234,157.657 56.6048,157.686 56.586,157.714 56.5673,157.743 56.5485,157.771 56.5296,157.799 56.5106,157.828 56.5106,157.828 56.492,157.855 56.4734,157.882 56.4545,157.91 56.4358,157.937 56.4168,157.964 56.3978,157.991 56.3789,158.018 56.3596,158.045 56.3596,158.045 56.3409,158.072 56.3222,158.098 56.3033,158.124 56.2843,158.15 56.2652,158.176 56.2462,158.202 56.2268,158.227 56.2075,158.253 56.2075,158.253 56.1886,158.278 56.1697,158.303 56.1507,158.328 56.1315,158.353 56.1122,158.378 56.0929,158.402 56.0735,158.427 56.054,158.451 56.054,158.451 56.0349,158.475 56.0157,158.499 55.9965,158.523 55.977,158.546 55.9577,158.57 55.9381,158.593 55.9184,158.616 55.8987,158.64 55.8987,158.64 55.8794,158.662 55.86,158.685 55.8405,158.707 55.8209,158.73 55.8012,158.752 55.7815,158.774 55.7616,158.796 55.7417,158.818 55.7417,158.818 55.7221,158.84 55.7024,158.861 55.6826,158.882 55.6628,158.904 55.6429,158.925 55.6228,158.946 55.6026,158.967 55.5825,158.988 55.5825,158.988 55.5627,159.008 55.5427,159.028 55.5227,159.048 55.5026,159.068 55.4825,159.088 55.4622,159.108 55.4418,159.128 55.4212,159.147 55.4212,159.147 55.4011,159.166 55.3809,159.185 55.3605,159.204 55.3401,159.223 55.3196,159.242 55.2989,159.261 55.2783,159.279 55.2575,159.298 55.2575,159.298 55.237,159.316 55.2165,159.334 55.1958,159.351 55.175,159.369 55.1543,159.387 55.1334,159.404 55.1124,159.421 55.0913,159.439 55.0913,159.439 55.0704,159.455 55.0495,159.472 55.0285,159.489 55.0074,159.505 54.9862,159.522 54.965,159.538 54.9436,159.554 54.9221,159.571 54.9221,159.571 54.9009,159.586 54.8797,159.602 54.8583,159.617 54.8368,159.633 54.8152,159.648 54.7936,159.663 54.7719,159.678 54.7501,159.693 54.7501,159.693 54.7285,159.708 54.7067,159.722 54.685,159.737 54.6632,159.751 54.6412,159.765 54.6191,159.779 54.5971,159.793 54.5749,159.807 54.5749,159.807 54.5528,159.82 54.5307,159.834 54.5085,159.847 54.4862,159.86 54.4639,159.873 54.4414,159.886 54.4189,159.899 54.3963,159.911 54.3963,159.911 54.3738,159.924 54.3512,159.936 54.3285,159.948 54.3059,159.96 54.2831,159.972 54.2603,159.984 54.2374,159.996 54.2143,160.007 54.2143,160.007 54.1913,160.019 54.1683,160.03 54.1451,160.041 54.1219,160.052 54.0987,160.063 54.0754,160.073 54.052,160.084 54.0286,160.094 54.0286,160.094 54.0051,160.105 53.9815,160.115 53.9578,160.125 53.9342,160.135 53.9105,160.144 53.8866,160.154 53.8627,160.163 53.8389,160.172 53.8389,160.172 53.8148,160.182 53.7906,160.191 53.7665,160.2 53.7423,160.209 53.7181,160.217 53.6939,160.226 53.6695,160.234 53.6452,160.242 53.6452,160.242 53.6206,160.25 53.5959,160.258 53.5712,160.266 53.5465,160.274 53.5216,160.281 53.4969,160.289 53.472,160.296 53.4472,160.303 53.4472,160.303 53.422,160.31 53.3968,160.317 53.3715,160.324 53.3462,160.331 53.3209,160.337 53.2956,160.344 53.2702,160.35 53.2448,160.356 53.2448,160.356 53.219,160.362 53.1932,160.368 53.1673,160.374 53.1414,160.379 53.1155,160.385 53.0896,160.39 53.0637,160.395 53.0377,160.4 53.0377,160.4 53.0113,160.405 52.9848,160.41 52.9583,160.415 52.932,160.42 52.9055,160.424 52.879,160.428 52.8524,160.432 52.8259,160.436 52.8259,160.436 52.7988,160.44 52.7718,160.444 52.7447,160.448 52.7176,160.452 52.6904,160.455 52.6633,160.458 52.6362,160.461 52.609,160.464 52.609,160.464 52.5812,160.467 52.5535,160.47 52.5257,160.473 52.498,160.475 52.4702,160.478 52.4425,160.48 52.4147,160.482 52.3869,160.484 52.3869,160.484 52.3585,160.486 52.3301,160.488 52.3017,160.489 52.2733,160.491 52.2449,160.492 52.2164,160.494 52.188,160.495 52.1596,160.496 52.1596,160.496 52.1313,160.497 52.103,160.498 52.0747,160.498 52.0463,160.499 52.018,160.499 51.9897,160.5 51.9615,160.5 51.9332,160.5 51.9332,160.5 51.9054,160.5 51.8776,160.499 51.8498,160.499 51.8221,160.499 51.7943,160.498 51.7664,160.497 51.7388,160.496 51.711,160.495 51.711,160.495 51.6841,160.494 51.6572,160.492 51.6304,160.491 51.6037,160.489 51.5768,160.487 51.5501,160.485 51.5232,160.483 51.4965,160.481 51.4965,160.481 51.4702,160.478 51.444,160.476 51.4177,160.473 51.3916,160.47 51.3653,160.467 51.3392,160.464 51.3131,160.46 51.2869,160.457 51.2869,160.457 51.2614,160.453 51.2358,160.449 51.2103,160.445 51.1848,160.441 51.1592,160.437 51.1338,160.432 51.1084,160.428 51.083,160.423 51.083,160.423 51.058,160.418 51.0332,160.413 51.0084,160.408 50.9836,160.403 50.9588,160.397 50.9341,160.391 50.9096,160.386 50.885,160.38 50.885,160.38 50.8609,160.374 50.8368,160.367 50.8128,160.361 50.7888,160.354 50.7649,160.348 50.741,160.341 50.7172,160.334 50.6933,160.327 50.6933,160.327 50.6702,160.32 50.6469,160.312 50.6238,160.305 50.6007,160.297 50.5777,160.289 50.5547,160.281 50.5318,160.273 50.5089,160.264 50.5089,160.264 50.4866,160.256 50.4643,160.247 50.4421,160.238 50.4199,160.23 50.3978,160.221 50.3759,160.211 50.3539,160.202 50.3321,160.192 50.3321,160.192 50.3107,160.183 50.2893,160.173 50.2681,160.163 50.247,160.153 50.2258,160.143 50.2048,160.132 50.1839,160.121 50.1632,160.111 50.1632,160.111 50.1428,160.1 50.1226,160.089 50.1023,160.078 50.0823,160.066 50.0623,160.055 50.0424,160.043 50.0226,160.031 50.0029,160.019 50.0029,160.019 49.9837,160.007 49.9645,159.995 49.9455,159.983 49.9265,159.97 49.9077,159.958 49.8889,159.945 49.8703,159.932 49.8518,159.919 49.8518,159.919 49.8337,159.905 49.8156,159.892 49.7979,159.879 49.7801,159.865 49.7624,159.851 49.745,159.837 49.7276,159.823 49.7104,159.808 49.7104,159.808 49.6934,159.794 49.6767,159.779 49.6601,159.765 49.6437,159.75 49.6273,159.735 49.6111,159.719 49.5951,159.704 49.5792,159.689 49.5792,159.689 49.5636,159.673 49.5481,159.657 49.5328,159.641 49.5176,159.625 49.5027,159.609 49.4879,159.592 49.4733,159.576 49.4588,159.559 49.4588,159.559 49.4445,159.542 49.4304,159.525 49.4164,159.508 49.4027,159.491 49.3891,159.473 49.3757,159.456 49.3626,159.438 49.3496,159.42 49.3496,159.42 49.3367,159.402 49.3241,159.384 49.3115,159.366 49.2994,159.347 49.2872,159.328 49.2754,159.31 49.2637,159.291 49.2522,159.272 49.2522,159.272 49.2409,159.252 49.2297,159.233 49.2187,159.214 49.2079,159.194 49.1974,159.174 49.1872,159.154 49.177,159.134 49.1671,159.114 49.1671,159.114 49.1573,159.093 49.1478,159.073 49.1384,159.052 49.1293,159.031 49.1203,159.01 49.1118,158.989 49.1033,158.968 49.095,158.947 49.095,158.947 49.0869,158.925 49.0789,158.903 49.0713,158.881 49.0638,158.859 49.0566,158.837 49.0496,158.814 49.0429,158.792 49.0363,158.77 49.0363,158.77 49.0299,158.747 49.0237,158.724 49.0177,158.701 49.012,158.677 49.0066,158.654 49.0014,158.631 48.9964,158.607 48.9916,158.584 48.9916,158.584 48.9869,158.559 48.9825,158.535 48.9783,158.511 48.9745,158.486 48.9708,158.462 48.9675,158.437 48.9642,158.413 48.9614,158.388 48.9614,158.388 48.9586,158.363 48.956,158.337 48.9537,158.311 48.9517,158.286 48.9499,158.26 48.9484,158.234 48.9471,158.209 48.946,158.183 48.946,158.183 48.9452,158.156 48.9446,158.13 48.9443,158.103 48.9442,158.076 48.9443,158.049 48.9447,158.022 48.9454,157.996 48.9462,157.969 48.9462,157.969 48.9474,157.941 48.9489,157.913 48.9505,157.885 48.9524,157.857 48.9546,157.829 48.957,157.801 48.9596,157.773 48.9625,157.745 48.9625,157.745 48.9658,157.716 48.9693,157.687 48.9731,157.658 48.977,157.629 48.9812,157.599 48.9857,157.57 48.9904,157.541 48.9953,157.512 48.9953,157.512 49.0006,157.482 49.0064,157.452 49.0122,157.421 49.0184,157.391 49.0248,157.361 49.0313,157.331 49.0381,157.3 49.0452,157.27 49.0452,157.27 49.0528,157.239 49.0607,157.207 49.0688,157.176 49.077,157.144 49.0856,157.113 49.0945,157.081 49.1034,157.05 49.1126,157.019 49.1126,157.019 49.1225,156.986 49.1326,156.953 49.143,156.921 49.1536,156.888 49.1645,156.856 49.1755,156.823 49.1867,156.791 49.1982,156.758 49.1982,156.758 49.2105,156.724 49.2229,156.69 49.2356,156.656 49.2485,156.623 49.2617,156.589 49.2749,156.555 49.2885,156.522 49.3022,156.488 49.3022,156.488 49.3169,156.453 49.3318,156.418 49.347,156.383 49.3623,156.348 49.3778,156.313 49.3935,156.279 49.4094,156.244 49.4255,156.209 49.4255,156.209 49.4607,156.135 49.4968,156.062 49.5335,155.989 49.5711,155.916 49.6094,155.844 49.6484,155.772 49.6882,155.7 49.7285,155.629 50.8286,153.704 53.3032,153.704 51.4699,157.054 51.4643,157.067 51.4588,157.079 51.4533,157.092 51.4479,157.104 51.4425,157.117 51.4373,157.129 51.4322,157.142 51.427,157.155 51.427,157.155 51.4223,157.167 51.4175,157.179 51.4128,157.191 51.4082,157.203 51.4036,157.215 51.3992,157.227 51.3949,157.24 51.3906,157.252 51.3906,157.252 51.3866,157.263 51.3826,157.275 51.3788,157.287 51.375,157.299 51.3713,157.31 51.3677,157.322 51.3641,157.334 51.3607,157.346 51.3607,157.346 51.3575,157.357 51.3544,157.369 51.3513,157.38 51.3483,157.391 51.3453,157.403 51.3425,157.414 51.3397,157.425 51.337,157.437 51.337,157.437 51.3345,157.448 51.3322,157.459 51.3299,157.47 51.3276,157.481 51.3255,157.492 51.3233,157.503 51.3213,157.513 51.3194,157.524 51.3194,157.524 51.3177,157.535 51.316,157.545 51.3145,157.556 51.3129,157.566 51.3115,157.577 51.3102,157.588 51.309,157.598 51.3078,157.609 51.3078,157.609 51.3067,157.619 51.3058,157.629 51.3049,157.639 51.3042,157.649 51.3035,157.659 51.3029,157.669 51.3024,157.68 51.302,157.69 51.302,157.69 51.3016,157.699 51.3014,157.709 51.3012,157.719 51.3012,157.729 51.3012,157.738 51.3014,157.748 51.3016,157.758 51.3018,157.767 51.3018,157.767 51.3022,157.777 51.3027,157.786 51.3032,157.795 51.3038,157.805 51.3045,157.814 51.3053,157.823 51.3063,157.832 51.3072,157.842 51.3072,157.842 51.3083,157.851 51.3094,157.859 51.3106,157.868 51.3117,157.877 51.3132,157.886 51.3146,157.895 51.3162,157.904 51.3178,157.912 51.3178,157.912 51.3195,157.921 51.3213,157.929 51.3232,157.938 51.3251,157.946 51.3271,157.954 51.3292,157.963 51.3314,157.971 51.3337,157.98 51.3337,157.98 51.336,157.988 51.3385,157.996 51.3409,158.004 51.3435,158.012 51.3461,158.019 51.3489,158.028 51.3517,158.035 51.3546,158.043 51.3546,158.043 51.3575,158.051 51.3604,158.058 51.3635,158.066 51.3668,158.073 51.37,158.081 51.3733,158.088 51.3768,158.096 51.3804,158.103 51.3804,158.103 51.384,158.11 51.3875,158.118 51.3912,158.125 51.3949,158.132 51.3987,158.139 51.4027,158.146 51.4067,158.153 51.4108,158.16 51.4108,158.16 51.4149,158.166 51.4192,158.173 51.4233,158.18 51.4278,158.186 51.4322,158.193 51.4367,158.199 51.4412,158.206 51.4459,158.212 51.4459,158.212 51.4505,158.218 51.4553,158.225 51.4602,158.231 51.4651,158.237 51.47,158.243 51.4751,158.249 51.4801,158.255 51.4854,158.261 51.4854,158.261 51.4906,158.267 51.4959,158.273 51.5013,158.278 51.5068,158.284 51.5122,158.29 51.5177,158.295 51.5233,158.301 51.5291,158.306 51.5291,158.306 51.5348,158.311 51.5406,158.317 51.5465,158.322 51.5525,158.327 51.5586,158.332 51.5645,158.337 51.5706,158.342 51.5768,158.347 51.5768,158.347 51.5831,158.352 51.5895,158.357 51.5959,158.361 51.6024,158.366 51.6088,158.371 51.6154,158.375 51.6219,158.38 51.6286,158.384 51.6286,158.384 51.6354,158.389 51.6422,158.393 51.6491,158.397 51.6559,158.401 51.663,158.405 51.6699,158.41 51.6771,158.413 51.6841,158.417 51.6841,158.417 51.6914,158.421 51.6987,158.425 51.7059,158.429 51.7133,158.433 51.7207,158.436 51.7281,158.44 51.7355,158.443 51.7431,158.447 51.7431,158.447 51.7508,158.45 51.7586,158.453 51.7663,158.457 51.7741,158.46 51.782,158.463 51.7898,158.466 51.7977,158.469 51.8056,158.472 51.8056,158.472 51.8137,158.475 51.8219,158.477 51.8302,158.48 51.8383,158.483 51.8466,158.486 51.8549,158.488 51.8631,158.49 51.8715,158.493 51.8715,158.493 51.8801,158.495 51.8885,158.497 51.8971,158.5 51.9057,158.502 51.9144,158.504 51.923,158.506 51.9317,158.508 51.9405,158.51 51.9405,158.51 51.9494,158.512 51.9584,158.513 51.9673,158.515 51.9763,158.517 51.9852,158.518 51.9943,158.52 52.0033,158.521 52.0124,158.523 52.0124,158.523 52.0217,158.524 52.031,158.525 52.0403,158.526 52.0497,158.527 52.059,158.528 52.0684,158.529 52.0777,158.53 52.0871,158.531 52.0871,158.531 52.0974,158.532 52.1075,158.533 52.1178,158.533 52.1281,158.534 52.1382,158.534 52.1485,158.535 52.1587,158.535 52.169,158.536 52.169,158.536 52.1806,158.536 52.192,158.536 52.2036,158.536 52.2151,158.536 52.2266,158.536 52.2382,158.536 52.2497,158.535 52.2613,158.535 52.2613,158.535 52.2739,158.535 52.2866,158.534 52.2992,158.534 52.3119,158.534 52.3245,158.533 52.337,158.532 52.3497,158.532 52.3623,158.531 52.3623,158.531 52.3753,158.53 52.3884,158.529 52.4014,158.528 52.4144,158.527 52.4274,158.526 52.4404,158.524 52.4534,158.523 52.4664,158.522 52.4664,158.522 52.4793,158.52 52.4921,158.519 52.5048,158.517 52.5177,158.515 52.5305,158.514 52.5433,158.512 52.556,158.51 52.5688,158.508 52.5688,158.508 52.5815,158.505 52.5942,158.503 52.6069,158.501 52.6195,158.499 52.6321,158.496 52.6447,158.494 52.6574,158.491 52.6699,158.488 52.6699,158.488 52.6824,158.486 52.6949,158.483 52.7074,158.48 52.7199,158.477 52.7323,158.474 52.7447,158.47 52.7571,158.467 52.7695,158.464 52.7695,158.464 52.7819,158.46 52.7944,158.457 52.8068,158.453 52.8191,158.449 52.8315,158.445 52.8438,158.441 52.8559,158.437 52.8682,158.433 52.8682,158.433 52.8805,158.429 52.8928,158.425 52.9051,158.42 52.9174,158.416 52.9296,158.411 52.9418,158.406 52.9539,158.402 52.9661,158.397 52.9661,158.397 52.9784,158.392 52.9906,158.387 53.0027,158.382 53.0149,158.376 53.0271,158.371 53.0391,158.366 53.0512,158.36 53.0632,158.355 53.0632,158.355 53.0755,158.349 53.0877,158.343 53.0999,158.337 53.1119,158.331 53.124,158.325 53.136,158.318 53.148,158.312 53.1599,158.306 53.1599,158.306 53.1722,158.299 53.1844,158.292 53.1964,158.286 53.2085,158.279 53.2205,158.272 53.2326,158.265 53.2445,158.257 53.2565,158.25 53.2565,158.25 53.2686,158.243 53.2808,158.235 53.2929,158.227 53.3049,158.22 53.317,158.212 53.3289,158.204 53.3408,158.196 53.3528,158.188 53.3528,158.188 53.3651,158.18 53.3772,158.171 53.3894,158.163 53.4015,158.154 53.4135,158.145 53.4255,158.136 53.4374,158.128 53.4493,158.119 53.4493,158.119 53.4616,158.109 53.4738,158.1 53.4861,158.09 53.4981,158.081 53.5102,158.071 53.5222,158.062 53.5342,158.052 53.5461,158.042 53.5461,158.042 53.5585,158.032 53.5708,158.021 53.5831,158.011 53.5953,158.0 53.6075,157.99 53.6195,157.979 53.6316,157.968 53.6436,157.958 53.6436,157.958 53.656,157.946 53.6684,157.935 53.6808,157.923 53.6931,157.912 53.7053,157.901 53.7175,157.889 53.7297,157.877 53.7417,157.866 53.7417,157.866 53.7542,157.853 53.7668,157.841 53.7793,157.829 53.7917,157.816 53.804,157.803 53.8164,157.791 53.8286,157.778 53.8409,157.766 53.8409,157.766 53.8535,157.752 53.8662,157.739 53.8788,157.725 53.8914,157.712 53.9039,157.698 53.9163,157.685 53.9287,157.671 53.9411,157.657 53.9411,157.657 53.954,157.643 53.9669,157.628 53.9797,157.614 53.9923,157.599 54.005,157.584 54.0176,157.57 54.0302,157.555 54.0427,157.54 54.0427,157.54 54.0558,157.525 54.0688,157.509 54.0818,157.494 54.0947,157.478 54.1076,157.462 54.1204,157.446 54.1332,157.431 54.1459,157.415 54.1459,157.415 54.1593,157.398 54.1725,157.381 54.1857,157.364 54.1988,157.348 54.2119,157.331 54.2249,157.314 54.2379,157.297 54.2508,157.28 54.2508,157.28 54.2643,157.262 54.2778,157.245 54.2913,157.227 54.3047,157.209 54.318,157.19 54.3314,157.173 54.3446,157.155 54.3578,157.136 54.3578,157.136 54.3716,157.117 54.3853,157.098 54.3991,157.079 54.4127,157.06 54.4263,157.041 54.4399,157.022 54.4534,157.002 54.4669,156.983 54.4669,156.983 54.4809,156.963 54.495,156.943 54.509,156.922 54.5229,156.902 54.5369,156.882 54.5507,156.861 54.5646,156.841 54.5783,156.82 54.5783,156.82 54.5928,156.799 54.6071,156.777 54.6214,156.756 54.6357,156.734 54.6499,156.712 54.6641,156.691 54.6783,156.669 54.6924,156.647 54.6924,156.647 54.7072,156.625 54.7219,156.602 54.7366,156.579 54.7511,156.556 54.7657,156.533 54.7802,156.51 54.7948,156.487 54.8092,156.464 54.8092,156.464 54.8244,156.44 54.8394,156.416 54.8545,156.392 54.8695,156.368 54.8844,156.343 54.8994,156.319 54.9143,156.295 54.9291,156.271 54.9291,156.271 54.9446,156.245 54.9601,156.22 54.9755,156.194 54.9909,156.169 55.0063,156.143 55.0216,156.118 55.0368,156.092 55.0521,156.067 55.0521,156.067 55.0845,156.012 55.1166,155.958 55.1485,155.903 55.1804,155.848 55.2122,155.793 55.2438,155.739 55.2752,155.684 55.3066,155.629 55.6994,154.922 55.7266,154.872 55.7534,154.821 55.7796,154.769 55.8054,154.718 55.8306,154.666 55.8553,154.614 55.8793,154.562 55.9027,154.51 55.9027,154.51 55.9132,154.485 55.9236,154.461 55.9338,154.436 55.9439,154.412 55.9538,154.387 55.9635,154.363 55.9731,154.338 55.9825,154.313 55.9825,154.313 55.9912,154.29 55.9997,154.266 56.0081,154.243 56.0162,154.219 56.0242,154.195 56.0319,154.172 56.0396,154.148 56.047,154.124 56.047,154.124 56.0538,154.101 56.0605,154.079 56.0669,154.056 56.0731,154.033 56.0792,154.01 56.085,153.987 56.0906,153.964 56.0961,153.941 56.0961,153.941 56.1011,153.919 56.1058,153.897 56.1103,153.875 56.1148,153.853 56.1188,153.831 56.1228,153.808 56.1263,153.786 56.1298,153.764 56.1298,153.764 56.1329,153.742 56.1358,153.721 56.1384,153.699 56.1409,153.677 56.143,153.656 56.1449,153.634 56.1467,153.612 56.1482,153.591 56.1482,153.591 56.1494,153.57 56.1503,153.548 56.151,153.527 56.1515,153.506 56.1518,153.485 56.1518,153.464 56.1515,153.443 56.151,153.421 56.151,153.421 56.1503,153.401 56.1494,153.38 56.1482,153.359 56.1467,153.338 56.1451,153.317 56.1432,153.297 56.1409,153.276 56.1385,153.255 56.1385,153.255 56.1359,153.234 56.1329,153.214 56.1298,153.193 56.1263,153.173 56.1228,153.152 56.1188,153.132 56.1148,153.111 56.1105,153.091 56.1105,153.091 56.1058,153.07 56.1009,153.05 56.0958,153.029 56.0905,153.009 56.0849,152.988 56.0791,152.968 56.0731,152.948 56.0669,152.928 55.9349,152.605 55.0315,150.837 54.9984,150.772 54.9658,150.706 54.934,150.64 54.9026,150.574 54.8719,150.508 54.8419,150.441 54.8126,150.374 54.7839,150.307 54.7839,150.307 54.7703,150.274 54.7569,150.241 54.7436,150.208 54.7306,150.175 54.7177,150.142 54.7049,150.109 54.6924,150.076 54.6801,150.043 54.6801,150.043 54.6682,150.01 54.6565,149.978 54.6449,149.945 54.6336,149.912 54.6225,149.88 54.6115,149.846 54.6008,149.814 54.5903,149.781 54.5903,149.781 54.5801,149.748 54.5702,149.716 54.5604,149.683 54.5509,149.651 54.5416,149.618 54.5324,149.585 54.5234,149.553 54.5147,149.52 54.5147,149.52 54.5064,149.487 54.4982,149.455 54.4904,149.423 54.4827,149.39 54.4752,149.358 54.4679,149.325 54.4609,149.293 54.4541,149.26 54.4541,149.26 54.4476,149.228 54.4413,149.196 54.4352,149.163 54.4295,149.131 54.4239,149.099 54.4185,149.066 54.4134,149.034 54.4085,149.001 54.4085,149.001 54.4038,148.969 54.3994,148.937 54.3954,148.905 54.3914,148.873 54.3877,148.84 54.3843,148.808 54.3812,148.775 54.3782,148.743 54.3782,148.743 54.3754,148.711 54.373,148.679 54.3709,148.647 54.3689,148.615 54.3672,148.582 54.3658,148.55 54.3646,148.518 54.3636,148.486 54.3636,148.486 54.3629,148.453 54.3625,148.421 54.3623,148.389 54.3624,148.357 54.3627,148.325 54.3633,148.293 54.3641,148.261 54.3652,148.228 54.3652,148.228 54.3665,148.196 54.3682,148.164 54.3699,148.132 54.3721,148.1 54.3745,148.068 54.3771,148.036 54.38,148.003 54.3831,147.971 54.3831,147.971 54.3865,147.939 54.3902,147.907 54.3942,147.875 54.3983,147.842 54.4028,147.81 54.4074,147.778 54.4124,147.746 54.4177,147.714 54.4177,147.714 54.4232,147.682 54.429,147.649 54.4351,147.617 54.4414,147.585 54.448,147.553 54.4548,147.521 54.462,147.489 54.4692,147.457 54.4692,147.457 54.477,147.424 54.485,147.392 54.4932,147.36 54.5017,147.327 54.5105,147.295 54.5195,147.263 54.5288,147.231 54.5382,147.199 54.5382,147.199 54.5482,147.166 54.5584,147.134 54.5689,147.101 54.5796,147.069 54.5906,147.037 54.6018,147.005 54.6133,146.973 54.625,146.94 54.625,146.94 54.6372,146.908 54.6497,146.875 54.6623,146.843 54.6753,146.81 54.6885,146.778 54.702,146.745 54.7157,146.713 54.7295,146.681 54.7295,146.681 54.7591,146.615 54.7898,146.549 54.8213,146.483 54.8538,146.418 54.8871,146.354 54.9212,146.29 54.9563,146.226 54.9921,146.162 59.3131,138.897 59.3515,138.832 59.391,138.768 59.4314,138.704 59.4729,138.641 59.5153,138.579 59.5588,138.518 59.6032,138.457 59.6487,138.397 59.6487,138.397 59.671,138.368 59.6935,138.339 59.7163,138.311 59.7394,138.283 59.7625,138.255 59.786,138.227 59.8098,138.199 59.8336,138.172 59.8336,138.172 59.8574,138.145 59.8813,138.119 59.9054,138.093 59.9297,138.066 59.9542,138.04 59.9789,138.015 60.0038,137.989 60.029,137.964 60.029,137.964 60.0539,137.94 60.0791,137.915 60.1044,137.891 60.13,137.867 60.1557,137.843 60.1818,137.819 60.2079,137.796 60.2342,137.773 60.2342,137.773 60.2603,137.75 60.2867,137.728 60.3132,137.706 60.3398,137.684 60.3667,137.662 60.3937,137.64 60.4209,137.619 60.4484,137.598 60.4484,137.598 60.4757,137.577 60.5032,137.556 60.5308,137.536 60.5587,137.516 60.5866,137.496 60.6147,137.476 60.643,137.457 60.6714,137.438 60.6714,137.438 60.6998,137.419 60.7284,137.4 60.7571,137.382 60.7859,137.363 60.8149,137.346 60.844,137.328 60.8732,137.31 60.9026,137.293 60.9026,137.293 60.9321,137.276 60.9616,137.259 60.9913,137.242 61.0211,137.226 61.0509,137.209 61.081,137.193 61.1112,137.178 61.1414,137.162 61.1414,137.162 61.1718,137.147 61.2023,137.132 61.2329,137.117 61.2636,137.102 61.2944,137.087 61.3253,137.073 61.3564,137.059 61.3874,137.045 61.3874,137.045 61.4186,137.031 61.45,137.018 61.4815,137.004 61.5131,136.991 61.5447,136.979 61.5764,136.966 61.6082,136.953 61.64,136.941 61.64,136.941 61.6721,136.929 61.7044,136.917 61.7366,136.905 61.7689,136.894 61.8013,136.882 61.8337,136.871 61.8663,136.861 61.8989,136.85 61.8989,136.85 61.9317,136.839 61.9645,136.829 61.9975,136.819 62.0305,136.809 62.0636,136.799 62.0968,136.789 62.1299,136.78 62.1632,136.771 62.1632,136.771 62.1968,136.761 62.2303,136.752 62.264,136.744 62.2976,136.735 62.3313,136.727 62.365,136.718 62.3988,136.71 62.4327,136.703 62.4327,136.703 62.4668,136.695 62.501,136.687 62.5352,136.68 62.5695,136.673 62.6037,136.666 62.6381,136.659 62.6725,136.652 62.7069,136.646 62.985,136.599 63.0201,136.594 63.0553,136.589 63.0904,136.584 63.1256,136.579 63.161,136.575 63.1962,136.57 63.2315,136.566 63.2667,136.562 63.2667,136.562 63.3023,136.558 63.3378,136.554 63.3734,136.55 63.4091,136.547 63.4446,136.543 63.4803,136.54 63.5159,136.537 63.5516,136.534 63.5516,136.534 63.5875,136.531 63.6234,136.529 63.6593,136.526 63.6953,136.524 63.7312,136.521 63.7671,136.519 63.8031,136.517 63.8391,136.515 63.8391,136.515 63.9115,136.512 63.9841,136.509 64.0565,136.506 64.1291,136.504 64.2015,136.502 64.2741,136.501 64.3466,136.501 64.4192,136.5 64.7725,136.5 66.5796,139.958 62.6516,146.948 60.177,146.948 64.0656,140.036" fill="none" stroke="black" stroke-width="0.1"/>
        <polygon id="_132511232" points="69.8001,151.898 70.8607,149.974 68.5828,149.974 73.5711,138.661 77.224,138.661 78.324,136.698 72.0785,136.698 66.1474,149.974 64.7725,149.974 58.9988,160.265 65.0868,160.265 66.1862,158.3 62.6126,158.3 66.2258,151.898" fill="none" stroke="black" stroke-width="0.1"/>
        <polygon id="_131839120" points="84.805,136.698 82.3301,136.698 69.0932,160.265 74.9457,160.265 76.0456,158.3 72.6677,158.3" fill="none" stroke="black" stroke-width="0.1"/>
        <polygon id="_131531760" points="100.477,151.898 101.538,149.974 99.2592,149.974 104.209,138.661 107.901,138.661 109.001,136.698 102.755,136.698 96.8244,149.974 95.4493,149.974 89.6755,160.265 95.7638,160.265 96.8636,158.3 93.2498,158.3 96.8636,151.898" fill="none" stroke="black" stroke-width="0.1"/>
        <polygon id="_131379720_1" points="140.541,156.847 151.814,136.698 149.301,136.698 138.695,155.629 138.661,155.693 138.627,155.757 138.594,155.821 138.561,155.886 138.529,155.951 138.498,156.016 138.466,156.081 138.436,156.147 138.436,156.147 138.422,156.177 138.408,156.208 138.394,156.24 138.381,156.271 138.367,156.302 138.354,156.333 138.341,156.365 138.328,156.396 138.328,156.396 138.315,156.426 138.303,156.456 138.291,156.486 138.279,156.517 138.268,156.547 138.256,156.577 138.245,156.608 138.233,156.638 138.233,156.638 138.223,156.667 138.213,156.696 138.202,156.726 138.192,156.755 138.182,156.784 138.172,156.814 138.163,156.843 138.153,156.873 138.153,156.873 138.144,156.901 138.136,156.929 138.127,156.958 138.119,156.986 138.11,157.015 138.102,157.043 138.094,157.072 138.087,157.1 138.087,157.1 138.079,157.128 138.072,157.155 138.065,157.182 138.058,157.21 138.052,157.237 138.045,157.265 138.039,157.292 138.033,157.32 138.033,157.32 138.027,157.346 138.022,157.373 138.017,157.399 138.012,157.426 138.006,157.453 138.002,157.479 137.997,157.506 137.993,157.533 137.993,157.533 137.988,157.558 137.985,157.584 137.981,157.609 137.977,157.635 137.974,157.661 137.97,157.686 137.968,157.712 137.965,157.738 137.965,157.738 137.962,157.762 137.96,157.787 137.958,157.812 137.956,157.837 137.954,157.861 137.952,157.886 137.95,157.911 137.949,157.936 137.949,157.936 137.948,157.959 137.947,157.983 137.946,158.007 137.946,158.031 137.946,158.055 137.945,158.078 137.945,158.102 137.946,158.126 137.946,158.126 137.946,158.149 137.947,158.172 137.947,158.195 137.948,158.218 137.949,158.241 137.951,158.263 137.952,158.286 137.954,158.309 137.954,158.309 137.956,158.331 137.957,158.353 137.96,158.375 137.962,158.397 137.964,158.419 137.967,158.441 137.97,158.463 137.973,158.485 137.973,158.485 137.976,158.506 137.98,158.527 137.983,158.548 137.987,158.569 137.991,158.59 137.995,158.611 137.999,158.632 138.004,158.653 138.004,158.653 138.008,158.674 138.013,158.694 138.018,158.714 138.023,158.734 138.028,158.754 138.033,158.774 138.039,158.795 138.045,158.814 138.045,158.814 138.051,158.834 138.057,158.853 138.063,158.872 138.069,158.892 138.076,158.911 138.082,158.93 138.089,158.949 138.096,158.968 138.096,158.968 138.103,158.987 138.111,159.005 138.118,159.023 138.126,159.042 138.134,159.06 138.142,159.078 138.15,159.096 138.158,159.114 138.158,159.114 138.166,159.132 138.175,159.15 138.183,159.167 138.192,159.185 138.201,159.202 138.21,159.219 138.22,159.236 138.229,159.253 138.229,159.253 138.239,159.27 138.248,159.287 138.258,159.303 138.268,159.32 138.278,159.336 138.289,159.352 138.299,159.369 138.31,159.385 138.31,159.385 138.321,159.401 138.331,159.416 138.342,159.432 138.354,159.448 138.365,159.463 138.376,159.479 138.388,159.494 138.4,159.509 138.4,159.509 138.411,159.524 138.423,159.539 138.435,159.554 138.448,159.568 138.46,159.583 138.473,159.597 138.485,159.612 138.498,159.626 138.498,159.626 138.511,159.64 138.524,159.654 138.537,159.668 138.55,159.682 138.564,159.695 138.577,159.709 138.591,159.722 138.605,159.735 138.605,159.735 138.619,159.749 138.633,159.762 138.647,159.775 138.662,159.788 138.676,159.8 138.691,159.813 138.705,159.825 138.72,159.838 138.72,159.838 138.735,159.85 138.75,159.862 138.765,159.874 138.78,159.886 138.796,159.898 138.811,159.909 138.827,159.921 138.843,159.932 138.843,159.932 138.859,159.944 138.875,159.955 138.891,159.966 138.907,159.977 138.923,159.988 138.94,159.999 138.956,160.009 138.973,160.02 138.973,160.02 138.989,160.03 139.006,160.041 139.024,160.051 139.041,160.061 139.058,160.071 139.075,160.081 139.093,160.09 139.11,160.1 139.11,160.1 139.128,160.109 139.146,160.119 139.163,160.128 139.181,160.137 139.199,160.146 139.218,160.155 139.236,160.164 139.254,160.173 139.254,160.173 139.273,160.181 139.291,160.19 139.31,160.198 139.329,160.207 139.347,160.215 139.366,160.223 139.385,160.23 139.404,160.238 139.404,160.238 139.424,160.246 139.443,160.254 139.463,160.261 139.482,160.268 139.502,160.275 139.521,160.283 139.541,160.29 139.561,160.296 139.561,160.296 139.581,160.303 139.601,160.31 139.621,160.316 139.641,160.323 139.662,160.329 139.682,160.335 139.702,160.341 139.723,160.347 139.723,160.347 139.744,160.353 139.765,160.359 139.786,160.364 139.806,160.37 139.827,160.375 139.848,160.381 139.869,160.386 139.891,160.391 139.891,160.391 139.912,160.396 139.934,160.401 139.955,160.405 139.977,160.41 139.998,160.414 140.02,160.419 140.042,160.423 140.063,160.427 140.063,160.427 140.086,160.431 140.108,160.435 140.13,160.439 140.152,160.443 140.174,160.446 140.197,160.449 140.219,160.453 140.241,160.456 140.241,160.456 140.264,160.459 140.286,160.462 140.309,160.465 140.332,160.468 140.355,160.471 140.378,160.473 140.4,160.476 140.423,160.478 140.423,160.478 140.447,160.48 140.47,160.482 140.493,160.484 140.516,160.486 140.539,160.488 140.563,160.489 140.586,160.491 140.609,160.492 140.609,160.492 140.634,160.494 140.658,160.495 140.682,160.496 140.706,160.497 140.73,160.498 140.755,160.499 140.779,160.499 140.803,160.5 140.803,160.5 140.828,160.5 140.853,160.5 140.879,160.5 140.904,160.5 140.929,160.5 140.954,160.5 140.979,160.5 141.005,160.499 141.005,160.499 141.03,160.499 141.056,160.498 141.082,160.498 141.108,160.497 141.134,160.496 141.16,160.495 141.185,160.494 141.211,160.493 141.211,160.493 141.237,160.491 141.262,160.49 141.288,160.488 141.314,160.487 141.339,160.485 141.365,160.483 141.391,160.481 141.416,160.479 141.416,160.479 141.441,160.477 141.467,160.474 141.492,160.472 141.517,160.47 141.542,160.467 141.566,160.464 141.592,160.461 141.616,160.458 141.616,160.458 141.641,160.455 141.665,160.452 141.69,160.449 141.714,160.445 141.738,160.442 141.763,160.438 141.787,160.434 141.811,160.43 141.811,160.43 141.835,160.426 141.859,160.422 141.883,160.418 141.906,160.414 141.93,160.41 141.954,160.405 141.978,160.4 142.001,160.396 142.001,160.396 142.025,160.391 142.048,160.386 142.071,160.381 142.094,160.376 142.117,160.37 142.141,160.365 142.164,160.36 142.187,160.354 142.187,160.354 142.209,160.348 142.232,160.342 142.255,160.337 142.278,160.331 142.3,160.324 142.323,160.318 142.345,160.312 142.368,160.305 142.368,160.305 142.39,160.299 142.412,160.292 142.434,160.285 142.457,160.278 142.479,160.271 142.501,160.264 142.523,160.257 142.545,160.249 142.545,160.249 142.566,160.242 142.588,160.234 142.61,160.227 142.631,160.219 142.653,160.211 142.674,160.203 142.696,160.195 142.717,160.186 142.717,160.186 142.739,160.178 142.76,160.17 142.781,160.161 142.802,160.152 142.823,160.143 142.844,160.135 142.866,160.125 142.887,160.116 142.887,160.116 142.907,160.107 142.928,160.098 142.949,160.088 142.97,160.079 142.99,160.069 143.011,160.059 143.031,160.049 143.052,160.039 143.052,160.039 143.072,160.029 143.093,160.019 143.113,160.008 143.133,159.998 143.154,159.987 143.174,159.977 143.194,159.966 143.214,159.955 143.214,159.955 143.234,159.944 143.254,159.933 143.274,159.921 143.294,159.91 143.314,159.898 143.334,159.887 143.353,159.875 143.373,159.863 143.373,159.863 143.393,159.851 143.412,159.839 143.432,159.827 143.452,159.815 143.471,159.803 143.491,159.79 143.51,159.777 143.529,159.765 143.529,159.765 143.549,159.752 143.568,159.739 143.587,159.726 143.606,159.713 143.625,159.699 143.644,159.686 143.664,159.673 143.683,159.659 143.683,159.659 143.702,159.645 143.721,159.631 143.739,159.617 143.759,159.603 143.777,159.589 143.796,159.575 143.815,159.56 143.833,159.546 143.833,159.546 143.852,159.531 143.871,159.517 143.89,159.502 143.908,159.487 143.927,159.471 143.945,159.456 143.964,159.441 143.982,159.426 143.982,159.426 144.001,159.41 144.019,159.394 144.038,159.379 144.056,159.363 144.074,159.347 144.092,159.331 144.111,159.315 144.129,159.298 144.129,159.298 144.147,159.282 144.165,159.265 144.184,159.248 144.202,159.232 144.22,159.215 144.238,159.198 144.256,159.181 144.274,159.164 144.274,159.164 144.292,159.146 144.31,159.129 144.328,159.111 144.346,159.093 144.364,159.075 144.381,159.058 144.399,159.04 144.417,159.022 144.417,159.022 144.435,159.003 144.453,158.985 144.47,158.966 144.488,158.947 144.506,158.929 144.524,158.91 144.541,158.891 144.559,158.872 144.559,158.872 144.577,158.853 144.594,158.834 144.612,158.814 144.63,158.795 144.647,158.775 144.665,158.755 144.682,158.736 144.699,158.716 144.699,158.716 144.717,158.695 144.735,158.675 144.752,158.655 144.77,158.634 144.787,158.614 144.805,158.593 144.822,158.572 144.839,158.552 144.839,158.552 144.857,158.531 144.874,158.509 144.892,158.488 144.909,158.467 144.926,158.445 144.944,158.424 144.961,158.402 144.978,158.381 144.978,158.381 144.996,158.358 145.013,158.336 145.031,158.314 145.048,158.292 145.065,158.269 145.082,158.247 145.1,158.224 145.117,158.202 145.117,158.202 145.134,158.179 145.152,158.156 145.169,158.132 145.186,158.109 145.203,158.086 145.221,158.063 145.238,158.039 145.255,158.016 145.255,158.016 145.272,157.992 145.29,157.968 145.307,157.944 145.325,157.92 145.342,157.895 145.359,157.871 145.376,157.847 145.393,157.822 145.393,157.822 145.411,157.798 145.428,157.772 145.445,157.747 145.463,157.722 145.48,157.697 145.497,157.672 145.514,157.647 145.531,157.622 145.531,157.622 145.549,157.596 145.566,157.57 145.584,157.544 145.601,157.518 145.619,157.492 145.636,157.466 145.653,157.439 145.67,157.413 145.67,157.413 145.688,157.386 145.705,157.36 145.723,157.333 145.74,157.306 145.758,157.279 145.775,157.252 145.792,157.225 145.81,157.197 145.81,157.197 145.827,157.17 145.845,157.142 145.862,157.114 145.88,157.086 145.898,157.058 145.915,157.03 145.932,157.002 145.95,156.974 145.95,156.974 145.967,156.946 145.985,156.917 146.003,156.888 146.021,156.859 146.038,156.83 146.056,156.801 146.073,156.772 146.091,156.744 146.091,156.744 146.109,156.714 146.127,156.684 146.145,156.654 146.162,156.625 146.18,156.595 146.198,156.565 146.216,156.535 146.233,156.505 146.233,156.505 146.251,156.475 146.269,156.444 146.287,156.413 146.305,156.382 146.323,156.352 146.341,156.321 146.359,156.29 146.377,156.259 146.377,156.259 146.414,156.196 146.451,156.132 146.487,156.068 146.524,156.004 146.56,155.94 146.597,155.876 146.633,155.812 146.669,155.747 157.353,136.698 154.839,136.698 144.234,155.629 144.201,155.685 144.168,155.741 144.135,155.797 144.102,155.852 144.069,155.908 144.036,155.963 144.003,156.019 143.969,156.074 143.969,156.074 143.953,156.1 143.938,156.126 143.922,156.152 143.906,156.178 143.891,156.204 143.875,156.23 143.859,156.256 143.843,156.281 143.843,156.281 143.828,156.306 143.812,156.331 143.797,156.355 143.782,156.38 143.767,156.404 143.751,156.429 143.736,156.453 143.721,156.477 143.721,156.477 143.706,156.501 143.691,156.524 143.676,156.547 143.662,156.57 143.647,156.594 143.632,156.617 143.617,156.64 143.602,156.663 143.602,156.663 143.588,156.685 143.574,156.707 143.559,156.729 143.545,156.751 143.531,156.772 143.516,156.794 143.502,156.816 143.487,156.838 143.487,156.838 143.473,156.858 143.459,156.879 143.446,156.9 143.432,156.92 143.418,156.941 143.404,156.962 143.39,156.982 143.376,157.003 143.376,157.003 143.362,157.022 143.349,157.041 143.335,157.061 143.322,157.08 143.308,157.099 143.295,157.119 143.281,157.138 143.267,157.157 143.267,157.157 143.254,157.176 143.241,157.194 143.228,157.212 143.215,157.23 143.201,157.248 143.188,157.266 143.175,157.284 143.161,157.302 143.161,157.302 143.149,157.319 143.136,157.336 143.123,157.353 143.11,157.37 143.097,157.387 143.084,157.404 143.071,157.421 143.058,157.437 143.058,157.437 143.046,157.453 143.033,157.469 143.021,157.485 143.008,157.501 142.995,157.517 142.982,157.532 142.97,157.548 142.957,157.564 142.957,157.564 142.945,157.578 142.932,157.593 142.92,157.608 142.908,157.623 142.895,157.637 142.883,157.652 142.87,157.666 142.857,157.681 142.857,157.681 142.845,157.695 142.833,157.708 142.821,157.722 142.809,157.735 142.797,157.749 142.784,157.762 142.772,157.776 142.76,157.789 142.76,157.789 142.748,157.802 142.736,157.814 142.724,157.827 142.712,157.839 142.7,157.852 142.688,157.864 142.675,157.877 142.663,157.889 142.663,157.889 142.651,157.901 142.64,157.912 142.628,157.924 142.616,157.935 142.604,157.947 142.592,157.958 142.58,157.97 142.568,157.981 142.568,157.981 142.556,157.991 142.544,158.002 142.532,158.013 142.52,158.023 142.509,158.033 142.497,158.044 142.485,158.054 142.473,158.064 142.473,158.064 142.461,158.074 142.449,158.084 142.438,158.093 142.426,158.103 142.414,158.112 142.402,158.122 142.39,158.131 142.378,158.14 142.378,158.14 142.367,158.149 142.355,158.158 142.343,158.166 142.331,158.175 142.32,158.184 142.308,158.192 142.296,158.2 142.284,158.209 142.284,158.209 142.272,158.217 142.26,158.224 142.249,158.232 142.237,158.24 142.225,158.247 142.213,158.255 142.201,158.262 142.189,158.27 142.189,158.27 142.177,158.277 142.166,158.284 142.154,158.291 142.142,158.298 142.13,158.304 142.118,158.311 142.106,158.318 142.094,158.324 142.094,158.324 142.082,158.33 142.07,158.336 142.058,158.342 142.046,158.348 142.035,158.354 142.022,158.36 142.01,158.366 141.998,158.371 141.998,158.371 141.986,158.377 141.974,158.382 141.962,158.387 141.95,158.392 141.938,158.397 141.926,158.402 141.913,158.407 141.901,158.412 141.901,158.412 141.889,158.417 141.877,158.421 141.865,158.426 141.852,158.43 141.84,158.434 141.828,158.439 141.815,158.443 141.803,158.447 141.803,158.447 141.791,158.451 141.778,158.454 141.766,158.458 141.753,158.462 141.741,158.465 141.728,158.469 141.716,158.472 141.703,158.475 141.703,158.475 141.69,158.478 141.678,158.481 141.665,158.484 141.652,158.487 141.64,158.49 141.627,158.493 141.614,158.495 141.601,158.498 141.601,158.498 141.588,158.5 141.575,158.503 141.562,158.505 141.549,158.507 141.536,158.509 141.523,158.511 141.51,158.513 141.497,158.515 141.497,158.515 141.484,158.517 141.471,158.519 141.457,158.52 141.444,158.522 141.431,158.523 141.417,158.525 141.404,158.526 141.391,158.527 141.391,158.527 141.377,158.528 141.363,158.529 141.35,158.53 141.336,158.531 141.323,158.532 141.309,158.533 141.295,158.534 141.282,158.534 141.282,158.534 141.269,158.535 141.256,158.535 141.244,158.536 141.231,158.536 141.219,158.536 141.206,158.536 141.194,158.536 141.181,158.536 141.181,158.536 141.17,158.536 141.159,158.536 141.147,158.536 141.136,158.536 141.125,158.536 141.114,158.535 141.102,158.535 141.091,158.534 141.091,158.534 141.082,158.534 141.072,158.533 141.062,158.532 141.053,158.532 141.043,158.531 141.033,158.53 141.024,158.529 141.014,158.528 141.014,158.528 141.005,158.527 140.995,158.525 140.986,158.524 140.976,158.523 140.967,158.521 140.958,158.52 140.949,158.518 140.939,158.517 140.939,158.517 140.93,158.515 140.921,158.513 140.912,158.511 140.903,158.51 140.895,158.508 140.886,158.506 140.877,158.503 140.868,158.501 140.868,158.501 140.859,158.499 140.851,158.497 140.842,158.495 140.833,158.492 140.825,158.49 140.816,158.487 140.808,158.484 140.799,158.482 140.799,158.482 140.791,158.479 140.783,158.476 140.775,158.473 140.767,158.47 140.759,158.467 140.751,158.464 140.743,158.461 140.735,158.458 140.735,158.458 140.727,158.455 140.719,158.451 140.711,158.448 140.703,158.444 140.696,158.441 140.688,158.437 140.681,158.433 140.673,158.43 140.673,158.43 140.666,158.426 140.658,158.422 140.651,158.418 140.644,158.414 140.637,158.41 140.629,158.406 140.622,158.402 140.615,158.397 140.615,158.397 140.608,158.393 140.601,158.389 140.595,158.384 140.588,158.38 140.581,158.375 140.574,158.37 140.568,158.366 140.561,158.361 140.561,158.361 140.555,158.356 140.548,158.351 140.542,158.346 140.536,158.341 140.53,158.336 140.523,158.331 140.517,158.326 140.511,158.32 140.511,158.32 140.505,158.315 140.499,158.31 140.494,158.304 140.488,158.299 140.482,158.293 140.476,158.287 140.471,158.282 140.465,158.276 140.465,158.276 140.46,158.27 140.455,158.264 140.449,158.258 140.444,158.252 140.439,158.246 140.434,158.24 140.429,158.234 140.424,158.227 140.424,158.227 140.419,158.221 140.414,158.215 140.409,158.208 140.405,158.202 140.4,158.195 140.396,158.188 140.391,158.182 140.387,158.175 140.387,158.175 140.382,158.168 140.378,158.161 140.374,158.154 140.37,158.147 140.366,158.14 140.362,158.133 140.358,158.126 140.355,158.119 140.355,158.119 140.351,158.111 140.347,158.104 140.344,158.096 140.34,158.089 140.337,158.081 140.333,158.074 140.33,158.066 140.327,158.059 140.327,158.059 140.324,158.051 140.321,158.043 140.318,158.035 140.315,158.027 140.312,158.019 140.31,158.011 140.307,158.003 140.305,157.995 140.305,157.995 140.302,157.986 140.3,157.978 140.298,157.97 140.295,157.961 140.293,157.953 140.291,157.944 140.289,157.936 140.287,157.927 140.287,157.927 140.286,157.918 140.284,157.909 140.282,157.9 140.281,157.892 140.279,157.883 140.278,157.874 140.277,157.865 140.275,157.856 140.275,157.856 140.274,157.846 140.273,157.837 140.272,157.828 140.272,157.819 140.271,157.809 140.27,157.8 140.269,157.79 140.269,157.781 140.269,157.781 140.269,157.771 140.268,157.762 140.268,157.752 140.268,157.742 140.268,157.732 140.268,157.722 140.268,157.712 140.268,157.703 140.268,157.703 140.269,157.692 140.269,157.682 140.269,157.672 140.27,157.662 140.271,157.651 140.272,157.641 140.272,157.631 140.273,157.621 140.273,157.621 140.274,157.61 140.276,157.599 140.277,157.589 140.278,157.578 140.279,157.567 140.281,157.557 140.283,157.546 140.284,157.535 140.284,157.535 140.286,157.524 140.288,157.513 140.29,157.502 140.292,157.491 140.294,157.48 140.297,157.469 140.299,157.458 140.302,157.447 140.302,157.447 140.304,157.435 140.307,157.423 140.31,157.412 140.313,157.4 140.315,157.389 140.319,157.377 140.322,157.366 140.325,157.354 140.325,157.354 140.328,157.342 140.332,157.33 140.336,157.318 140.339,157.307 140.343,157.295 140.347,157.283 140.351,157.271 140.355,157.259 140.355,157.259 140.359,157.247 140.363,157.234 140.368,157.222 140.373,157.209 140.377,157.197 140.382,157.185 140.387,157.173 140.391,157.16 140.391,157.16 140.397,157.147 140.402,157.135 140.407,157.122 140.412,157.109 140.418,157.096 140.423,157.084 140.429,157.071 140.435,157.058 140.435,157.058 140.447,157.031 140.46,157.005 140.473,156.978 140.486,156.952 140.499,156.925 140.513,156.899 140.527,156.873" fill="none" stroke="black" stroke-width="0.1"/>
        <polygon id="_132136424" points="167.723,136.698 160.731,136.698 159.631,138.661 163.441,138.661 147.062,160.265 154.368,160.265 155.468,158.3 151.266,158.3" fill="none" stroke="black" stroke-width="0.1"/>
        <polygon id="_132150832" points="177.582,136.698 170.59,136.698 169.49,138.661 173.3,138.661 156.922,160.265 164.226,160.265 165.326,158.3 161.124,158.3" fill="none" stroke="black" stroke-width="0.1"/>
        <polygon id="_132204424" points="183.512,136.698 181.039,136.698 167.801,160.265 173.654,160.265 174.753,158.3 171.375,158.3" fill="none" stroke="black" stroke-width="0.1"/>
        <polygon id="_132141592" points="187.401,151.898 188.463,149.974 186.184,149.974 191.133,138.661 194.825,138.661 195.924,136.698 189.64,136.698 183.749,149.974 182.335,149.974 176.561,160.265 182.688,160.265 183.787,158.3 180.174,158.3 183.787,151.898" fill="none" stroke="black" stroke-width="0.1"/>
        <polygon id="_131954472___1_2" points="106.683,152.684 107.744,152.684 105.858,160.265 108.215,160.265 110.022,152.566 110.077,152.554 110.132,152.543 110.187,152.53 110.241,152.517 110.296,152.502 110.35,152.488 110.404,152.472 110.458,152.456 110.458,152.456 110.484,152.448 110.511,152.44 110.537,152.431 110.564,152.422 110.59,152.413 110.616,152.404 110.642,152.395 110.668,152.386 110.874,152.304 110.899,152.293 110.925,152.281 110.95,152.27 110.975,152.258 111.0,152.247 111.025,152.235 111.05,152.222 111.075,152.21 111.075,152.21 111.1,152.197 111.125,152.185 111.15,152.172 111.174,152.159 111.199,152.145 111.223,152.132 111.248,152.118 111.272,152.104 111.272,152.104 111.297,152.09 111.321,152.076 111.346,152.061 111.37,152.047 111.394,152.032 111.418,152.017 111.442,152.001 111.466,151.986 111.466,151.986 111.49,151.97 111.515,151.954 111.539,151.938 111.563,151.921 111.586,151.905 111.61,151.888 111.634,151.871 111.657,151.854 111.657,151.854 111.681,151.837 111.705,151.819 111.729,151.801 111.752,151.783 111.776,151.765 111.799,151.746 111.822,151.727 111.846,151.709 111.846,151.709 111.869,151.689 111.893,151.67 111.917,151.65 111.94,151.63 111.963,151.61 111.987,151.59 112.01,151.57 112.033,151.549 112.033,151.549 112.056,151.528 112.08,151.506 112.103,151.485 112.126,151.463 112.149,151.441 112.172,151.419 112.195,151.397 112.218,151.375 112.218,151.375 112.241,151.351 112.265,151.328 112.288,151.305 112.311,151.281 112.334,151.257 112.357,151.233 112.38,151.209 112.402,151.185 112.402,151.185 112.426,151.16 112.449,151.135 112.473,151.109 112.495,151.083 112.518,151.058 112.541,151.032 112.564,151.006 112.587,150.98 112.587,150.98 112.61,150.953 112.634,150.925 112.657,150.898 112.68,150.87 112.703,150.842 112.726,150.814 112.748,150.786 112.771,150.758 112.771,150.758 112.795,150.729 112.818,150.699 112.841,150.67 112.864,150.64 112.888,150.61 112.911,150.58 112.933,150.55 112.956,150.52 112.956,150.52 112.98,150.488 113.003,150.457 113.027,150.425 113.05,150.393 113.073,150.361 113.097,150.329 113.119,150.297 113.142,150.265 113.142,150.265 113.166,150.231 113.19,150.197 113.214,150.163 113.237,150.129 113.261,150.094 113.284,150.06 113.307,150.026 113.331,149.991 113.331,149.991 113.355,149.955 113.379,149.919 113.403,149.882 113.426,149.846 113.45,149.81 113.474,149.773 113.497,149.737 113.521,149.7 113.521,149.7 113.545,149.661 113.57,149.623 113.594,149.584 113.618,149.545 113.642,149.506 113.666,149.468 113.69,149.428 113.714,149.39 113.714,149.39 113.764,149.306 113.814,149.223 113.864,149.139 113.913,149.055 113.962,148.97 114.011,148.886 114.059,148.801 114.107,148.716 118.938,140.075 117.171,136.698 113.125,136.698 99.8876,160.265 102.402,160.265 107.783,150.72 114.539,138.661 115.639,138.661 116.385,140.114 111.789,148.324 111.751,148.39 111.713,148.456 111.675,148.522 111.636,148.588 111.597,148.654 111.557,148.719 111.517,148.784 111.477,148.849 111.477,148.849 111.458,148.879 111.439,148.909 111.42,148.939 111.4,148.968 111.381,148.998 111.362,149.027 111.342,149.057 111.323,149.086 111.323,149.086 111.304,149.114 111.285,149.141 111.267,149.169 111.248,149.196 111.228,149.223 111.209,149.25 111.19,149.278 111.17,149.304 111.17,149.304 111.152,149.33 111.133,149.355 111.115,149.38 111.096,149.405 111.077,149.43 111.058,149.455 111.039,149.48 111.019,149.505 111.019,149.505 111.0,149.528 110.982,149.551 110.963,149.574 110.944,149.597 110.925,149.62 110.906,149.643 110.887,149.665 110.868,149.688 110.868,149.688 110.849,149.709 110.831,149.73 110.812,149.751 110.793,149.772 110.774,149.792 110.755,149.813 110.735,149.833 110.716,149.854 110.716,149.854 110.697,149.873 110.678,149.892 110.659,149.911 110.64,149.929 110.621,149.948 110.602,149.966 110.582,149.985 110.562,150.003 110.562,150.003 110.543,150.02 110.524,150.037 110.505,150.054 110.486,150.071 110.466,150.088 110.447,150.104 110.427,150.121 110.407,150.137 110.407,150.137 110.387,150.152 110.368,150.167 110.348,150.182 110.328,150.197 110.309,150.212 110.289,150.227 110.268,150.241 110.248,150.255 110.248,150.255 110.228,150.269 110.208,150.282 110.188,150.295 110.168,150.309 110.148,150.321 110.127,150.334 110.107,150.346 110.086,150.359 110.086,150.359 110.065,150.37 110.045,150.382 110.024,150.394 110.003,150.405 109.982,150.416 109.961,150.427 109.94,150.438 109.919,150.448 109.919,150.448 109.898,150.458 109.876,150.468 109.855,150.478 109.834,150.488 109.812,150.497 109.791,150.506 109.769,150.515 109.747,150.524 109.747,150.524 109.725,150.532 109.703,150.541 109.681,150.549 109.659,150.557 109.636,150.564 109.614,150.572 109.592,150.579 109.569,150.586 109.569,150.586 109.546,150.593 109.523,150.6 109.5,150.606 109.477,150.612 109.454,150.619 109.431,150.625 109.408,150.63 109.385,150.636 109.385,150.636 109.361,150.641 109.337,150.646 109.313,150.651 109.289,150.656 109.265,150.661 109.241,150.665 109.217,150.669 109.193,150.673 109.193,150.673 109.168,150.677 109.143,150.681 109.118,150.685 109.093,150.688 109.068,150.691 109.043,150.694 109.018,150.697 108.993,150.7 108.993,150.7 108.94,150.705 108.887,150.709 108.834,150.712 108.781,150.715 108.728,150.717 108.675,150.718 108.622,150.719 108.569,150.72 107.783,150.72" fill="none" stroke="black" stroke-width="0.1"/>
    </g>
</svg>
