<!DOCTYPE svg PUBLIC "-//W3C//DTD SVG 1.1//EN" "http://www.w3.org/Graphics/SVG/1.1/DTD/svg11.dtd">
<svg xmlns="http://www.w3.org/2000/svg" width="297mm" height="210mm" viewBox="0 0 297 210">
    <defs id="_tag_58_"/>
    <g id="trashNode_001"/>
    <g id="_tag_59_">
        <polygon id="_132204712___0" points="117.344,164.185 120.656,164.185 120.745,164.185 120.835,164.184 120.925,164.182 121.015,164.179 121.105,164.175 121.195,164.17 121.284,164.164 121.374,164.157 121.374,164.157 121.417,164.153 121.46,164.149 121.504,164.145 121.547,164.141 121.59,164.136 121.632,164.131 121.676,164.126 121.719,164.12 121.719,164.12 121.76,164.115 121.802,164.109 121.844,164.103 121.886,164.097 121.927,164.09 121.969,164.083 122.011,164.076 122.052,164.069 122.052,164.069 122.093,164.061 122.133,164.053 122.174,164.045 122.214,164.037 122.255,164.028 122.295,164.019 122.335,164.01 122.376,164.001 122.376,164.001 122.415,163.991 122.454,163.981 122.494,163.971 122.533,163.961 122.572,163.95 122.611,163.94 122.65,163.928 122.69,163.917 122.69,163.917 122.728,163.905 122.766,163.893 122.804,163.881 122.843,163.869 122.881,163.856 122.919,163.843 122.957,163.83 122.995,163.816 122.995,163.816 123.032,163.803 123.07,163.789 123.107,163.774 123.144,163.76 123.181,163.745 123.218,163.73 123.255,163.714 123.292,163.699 123.292,163.699 123.328,163.683 123.365,163.667 123.401,163.65 123.437,163.634 123.473,163.617 123.509,163.6 123.545,163.582 123.581,163.564 123.581,163.564 123.617,163.546 123.652,163.528 123.688,163.509 123.723,163.49 123.758,163.471 123.793,163.451 123.828,163.432 123.863,163.411 123.863,163.411 123.898,163.391 123.933,163.37 123.967,163.35 124.002,163.328 124.036,163.307 124.071,163.285 124.105,163.263 124.139,163.241 124.139,163.241 124.173,163.218 124.207,163.195 124.241,163.172 124.275,163.148 124.308,163.125 124.342,163.1 124.375,163.076 124.409,163.052 124.409,163.052 124.442,163.027 124.476,163.001 124.509,162.976 124.542,162.95 124.575,162.923 124.608,162.897 124.641,162.87 124.673,162.844 124.673,162.844 124.706,162.816 124.739,162.788 124.772,162.76 124.805,162.732 124.837,162.703 124.869,162.675 124.901,162.646 124.933,162.617 124.933,162.617 124.966,162.587 124.998,162.556 125.03,162.525 125.063,162.495 125.095,162.464 125.126,162.433 125.158,162.401 125.189,162.37 125.189,162.37 125.221,162.337 125.253,162.304 125.285,162.271 125.317,162.238 125.348,162.204 125.38,162.171 125.411,162.137 125.442,162.103 125.442,162.103 125.474,162.068 125.505,162.032 125.537,161.997 125.568,161.961 125.599,161.925 125.63,161.889 125.661,161.852 125.691,161.816 125.691,161.816 125.723,161.778 125.755,161.74 125.786,161.702 125.817,161.663 125.848,161.625 125.878,161.586 125.909,161.547 125.939,161.508 125.939,161.508 125.971,161.468 126.002,161.427 126.033,161.386 126.064,161.345 126.094,161.303 126.125,161.262 126.155,161.221 126.185,161.179 126.185,161.179 126.217,161.136 126.248,161.092 126.279,161.049 126.309,161.005 126.34,160.961 126.37,160.917 126.401,160.873 126.431,160.829 126.431,160.829 126.462,160.783 126.493,160.736 126.524,160.69 126.554,160.643 126.585,160.597 126.615,160.55 126.646,160.503 126.676,160.456 126.676,160.456 126.707,160.407 126.738,160.358 126.769,160.309 126.799,160.26 126.83,160.21 126.861,160.161 126.891,160.111 126.921,160.062 126.921,160.062 126.984,159.956 127.047,159.851 127.109,159.745 127.171,159.638 127.232,159.532 127.292,159.425 127.352,159.318 127.412,159.21 129.559,155.335 128.249,152.821 128.346,152.803 128.442,152.783 128.538,152.762 128.634,152.739 128.729,152.716 128.824,152.691 128.918,152.664 129.012,152.636 129.012,152.636 129.057,152.622 129.102,152.608 129.146,152.594 129.191,152.579 129.235,152.563 129.279,152.548 129.324,152.532 129.368,152.516 129.368,152.516 129.41,152.5 129.453,152.483 129.495,152.467 129.537,152.449 129.58,152.432 129.622,152.414 129.663,152.396 129.705,152.378 129.705,152.378 129.746,152.36 129.786,152.341 129.827,152.322 129.867,152.303 129.907,152.283 129.947,152.263 129.987,152.243 130.026,152.222 130.026,152.222 130.065,152.202 130.104,152.181 130.142,152.16 130.18,152.139 130.218,152.117 130.256,152.095 130.294,152.073 130.332,152.05 130.332,152.05 130.369,152.027 130.406,152.004 130.442,151.981 130.479,151.958 130.515,151.934 130.551,151.91 130.587,151.886 130.623,151.861 130.623,151.861 130.659,151.836 130.694,151.811 130.729,151.786 130.764,151.76 130.799,151.734 130.833,151.708 130.868,151.682 130.902,151.655 130.902,151.655 130.936,151.628 130.97,151.601 131.003,151.574 131.037,151.546 131.07,151.518 131.103,151.49 131.136,151.462 131.169,151.434 131.169,151.434 131.202,151.405 131.234,151.375 131.266,151.346 131.298,151.317 131.331,151.287 131.362,151.257 131.394,151.227 131.425,151.196 131.425,151.196 131.457,151.165 131.488,151.134 131.519,151.103 131.55,151.071 131.581,151.04 131.612,151.007 131.642,150.976 131.673,150.943 131.673,150.943 131.703,150.91 131.733,150.877 131.763,150.844 131.793,150.81 131.823,150.777 131.853,150.743 131.882,150.709 131.912,150.675 131.912,150.675 131.941,150.64 131.971,150.605 132.0,150.57 132.029,150.535 132.058,150.499 132.087,150.464 132.116,150.428 132.144,150.392 132.144,150.392 132.173,150.356 132.202,150.319 132.23,150.281 132.259,150.245 132.287,150.207 132.315,150.17 132.343,150.132 132.371,150.095 132.371,150.095 132.399,150.056 132.428,150.018 132.456,149.979 132.483,149.94 132.511,149.901 132.539,149.862 132.566,149.823 132.594,149.783 132.594,149.783 132.621,149.743 132.649,149.702 132.677,149.662 132.704,149.621 132.732,149.58 132.759,149.54 132.786,149.499 132.813,149.458 132.813,149.458 132.841,149.416 132.868,149.373 132.896,149.331 132.923,149.289 132.95,149.246 132.977,149.204 133.004,149.161 133.031,149.119 133.031,149.119 133.058,149.075 133.086,149.031 133.113,148.987 133.14,148.943 133.167,148.899 133.194,148.855 133.221,148.811 133.248,148.766 133.248,148.766 133.275,148.721 133.303,148.675 133.33,148.63 133.357,148.584 133.385,148.539 133.411,148.493 133.439,148.447 133.465,148.401 133.465,148.401 133.521,148.306 133.577,148.211 133.632,148.115 133.687,148.02 133.742,147.924 133.797,147.828 133.851,147.732 133.906,147.636 139.614,137.371 137.205,132.764 131.654,132.764 126.589,141.781 121.829,150.255 120.297,152.983 114.004,164.185 117.344,164.185 118.822,161.567 123.641,153.031 125.212,150.255 133.539,135.381 135.162,135.381 136.262,137.476 130.92,147.06 130.87,147.149 130.819,147.237 130.768,147.325 130.716,147.413 130.664,147.501 130.611,147.588 130.558,147.675 130.504,147.761 130.504,147.761 130.478,147.801 130.453,147.841 130.428,147.88 130.402,147.92 130.376,147.959 130.351,147.999 130.325,148.038 130.298,148.077 130.298,148.077 130.273,148.114 130.248,148.15 130.223,148.187 130.198,148.224 130.173,148.26 130.147,148.296 130.121,148.332 130.095,148.368 130.095,148.368 130.071,148.402 130.046,148.435 130.021,148.469 129.996,148.503 129.97,148.536 129.945,148.569 129.919,148.602 129.893,148.635 129.893,148.635 129.869,148.666 129.844,148.697 129.819,148.727 129.794,148.758 129.769,148.789 129.743,148.819 129.718,148.849 129.692,148.879 129.692,148.879 129.667,148.907 129.642,148.935 129.617,148.963 129.592,148.991 129.566,149.018 129.541,149.046 129.515,149.073 129.489,149.1 129.489,149.1 129.464,149.126 129.439,149.151 129.414,149.176 129.388,149.201 129.363,149.226 129.337,149.251 129.311,149.275 129.284,149.299 129.284,149.299 129.259,149.322 129.233,149.345 129.208,149.368 129.182,149.39 129.156,149.412 129.13,149.434 129.103,149.456 129.077,149.478 129.077,149.478 129.051,149.498 129.025,149.519 128.999,149.539 128.973,149.559 128.946,149.578 128.919,149.598 128.892,149.617 128.865,149.636 128.865,149.636 128.839,149.654 128.812,149.672 128.785,149.689 128.759,149.707 128.731,149.724 128.704,149.741 128.677,149.757 128.649,149.774 128.649,149.774 128.622,149.789 128.594,149.805 128.567,149.82 128.539,149.835 128.511,149.85 128.483,149.865 128.455,149.879 128.427,149.893 128.427,149.893 128.398,149.906 128.37,149.92 128.342,149.933 128.313,149.945 128.284,149.958 128.255,149.97 128.226,149.982 128.197,149.994 128.197,149.994 128.168,150.005 128.139,150.016 128.109,150.027 128.079,150.037 128.05,150.048 128.02,150.058 127.99,150.067 127.96,150.077 127.96,150.077 127.929,150.086 127.899,150.095 127.868,150.104 127.838,150.112 127.807,150.12 127.776,150.128 127.745,150.136 127.714,150.143 127.714,150.143 127.682,150.15 127.65,150.157 127.619,150.164 127.587,150.17 127.554,150.176 127.522,150.182 127.49,150.188 127.458,150.193 127.458,150.193 127.425,150.199 127.392,150.204 127.358,150.208 127.325,150.213 127.292,150.217 127.258,150.221 127.225,150.225 127.191,150.228 127.191,150.228 127.121,150.235 127.05,150.24 126.98,150.245 126.909,150.249 126.838,150.251 126.768,150.253 126.697,150.255 126.626,150.255 125.212,150.255 123.641,153.031 124.95,153.031 126.207,155.439 124.584,158.372 124.535,158.459 124.486,158.546 124.436,158.633 124.386,158.719 124.335,158.805 124.283,158.89 124.231,158.976 124.178,159.06 124.178,159.06 124.153,159.1 124.128,159.139 124.103,159.178 124.078,159.217 124.053,159.256 124.027,159.295 124.001,159.333 123.975,159.372 123.975,159.372 123.951,159.408 123.926,159.445 123.901,159.481 123.875,159.517 123.85,159.553 123.825,159.589 123.799,159.624 123.773,159.66 123.773,159.66 123.748,159.694 123.723,159.727 123.698,159.76 123.673,159.794 123.647,159.827 123.622,159.86 123.596,159.893 123.57,159.925 123.57,159.925 123.545,159.956 123.52,159.987 123.495,160.017 123.469,160.048 123.444,160.078 123.418,160.108 123.392,160.138 123.366,160.168 123.366,160.168 123.34,160.196 123.315,160.224 123.29,160.252 123.264,160.28 123.238,160.308 123.212,160.335 123.185,160.362 123.159,160.389 123.159,160.389 123.133,160.415 123.108,160.44 123.082,160.466 123.056,160.491 123.03,160.516 123.003,160.541 122.977,160.565 122.95,160.59 122.95,160.59 122.923,160.613 122.897,160.636 122.871,160.659 122.844,160.681 122.818,160.704 122.791,160.726 122.764,160.748 122.737,160.769 122.737,160.769 122.71,160.79 122.683,160.811 122.656,160.831 122.629,160.851 122.602,160.871 122.574,160.891 122.547,160.91 122.519,160.929 122.519,160.929 122.492,160.948 122.464,160.966 122.436,160.984 122.409,161.001 122.381,161.019 122.353,161.036 122.324,161.053 122.296,161.07 122.296,161.07 122.268,161.086 122.24,161.101 122.211,161.117 122.183,161.132 122.154,161.148 122.125,161.162 122.096,161.177 122.067,161.191 122.067,161.191 122.038,161.205 122.009,161.219 121.98,161.232 121.95,161.245 121.921,161.258 121.891,161.271 121.861,161.283 121.831,161.295 121.831,161.295 121.801,161.307 121.771,161.318 121.741,161.329 121.711,161.34 121.68,161.351 121.65,161.361 121.619,161.371 121.588,161.381 121.588,161.381 121.557,161.39 121.526,161.399 121.494,161.409 121.463,161.417 121.431,161.426 121.4,161.434 121.368,161.442 121.337,161.45 121.337,161.45 121.304,161.457 121.272,161.464 121.239,161.471 121.207,161.478 121.174,161.484 121.141,161.49 121.109,161.496 121.076,161.502 121.076,161.502 121.042,161.507 121.009,161.513 120.975,161.518 120.941,161.522 120.907,161.527 120.874,161.531 120.84,161.535 120.806,161.539 120.806,161.539 120.735,161.546 120.664,161.551 120.593,161.556 120.522,161.56 120.45,161.563 120.379,161.565 120.308,161.566 120.237,161.567 118.822,161.567" fill="none" stroke="black" stroke-width="0.1"/>
        <polygon id="center_00" cx="105.774" cy="148.5" points="118.4899,148.5 118.42024096931343,149.82917348606514 118.212027076171,151.14378426926953 117.86753955555754,152.4294291987724 117.39055268483754,153.67202247968757 116.78629243198255,154.85795 116.0613791987724,155.97421848962585 115.223755286288,157.0085978773986 114.2825978773986,157.949755286288 113.24821848962586,158.78737919877238 112.13195,159.51229243198253 110.94602247968757,160.11655268483756 109.7034291987724,160.59353955555756 108.41778426926955,160.938027076171 107.10317348606516,161.14624096931342 105.774,161.2159 104.44482651393484,161.14624096931342 103.13021573073046,160.938027076171 101.8445708012276,160.59353955555756 100.60197752031243,160.11655268483756 99.41605,159.51229243198253 98.29978151037415,158.78737919877238 97.2654021226014,157.949755286288 96.324244713712,157.0085978773986 95.48662080122762,155.97421848962585 94.76170756801746,154.85795000000002 94.15744731516246,153.67202247968757 93.68046044444246,152.4294291987724 93.335972923829,151.14378426926956 93.12775903068658,149.82917348606514 93.0581,148.5 93.12775903068658,147.17082651393486 93.335972923829,145.85621573073047 93.68046044444246,144.5705708012276 94.15744731516244,143.32797752031243 94.76170756801746,142.14205 95.4866208012276,141.02578151037415 96.324244713712,139.9914021226014 97.26540212260139,139.050244713712 98.29978151037415,138.21262080122762 99.41605,137.48770756801747 100.60197752031243,136.88344731516247 101.8445708012276,136.40646044444244 103.13021573073046,136.061972923829 104.44482651393484,135.85375903068658 105.774,135.7841 107.10317348606515,135.85375903068658 108.41778426926953,136.061972923829 109.7034291987724,136.40646044444244 110.94602247968756,136.88344731516244 112.13194999999999,137.48770756801744 113.24821848962586,138.21262080122762 114.2825978773986,139.050244713712 115.223755286288,139.9914021226014 116.06137919877239,141.02578151037415 116.78629243198255,142.14204999999998 117.39055268483754,143.32797752031243 117.86753955555754,144.5705708012276 118.212027076171,145.85621573073044 118.42024096931343,147.17082651393483" fill="none" stroke="black" stroke-width="0.1"/>
        <polygon id="_131954472___1" points="139.457,154.078 140.871,154.078 138.357,164.186 141.499,164.186 143.908,153.921 143.982,153.906 144.055,153.89 144.128,153.873 144.201,153.855 144.273,153.837 144.346,153.817 144.418,153.797 144.49,153.775 144.49,153.775 144.525,153.764 144.56,153.753 144.595,153.741 144.631,153.73 144.666,153.718 144.7,153.706 144.735,153.693 144.77,153.681 145.044,153.572 145.078,153.557 145.112,153.542 145.146,153.527 145.179,153.511 145.213,153.495 145.246,153.48 145.279,153.463 145.312,153.447 145.312,153.447 145.346,153.43 145.379,153.413 145.412,153.396 145.445,153.378 145.478,153.361 145.51,153.343 145.543,153.324 145.575,153.306 145.575,153.306 145.608,153.287 145.641,153.268 145.673,153.248 145.706,153.229 145.738,153.209 145.77,153.189 145.802,153.168 145.834,153.148 145.834,153.148 145.866,153.127 145.899,153.105 145.93,153.084 145.962,153.062 145.994,153.04 146.026,153.018 146.057,152.995 146.089,152.972 146.089,152.972 146.121,152.949 146.152,152.925 146.184,152.901 146.216,152.877 146.247,152.853 146.278,152.828 146.309,152.803 146.34,152.778 146.34,152.778 146.372,152.753 146.403,152.726 146.435,152.7 146.466,152.673 146.497,152.647 146.528,152.62 146.559,152.593 146.589,152.565 146.589,152.565 146.621,152.537 146.652,152.509 146.683,152.48 146.714,152.451 146.745,152.422 146.775,152.392 146.806,152.363 146.836,152.333 146.836,152.333 146.868,152.302 146.899,152.271 146.93,152.239 146.961,152.208 146.991,152.176 147.022,152.144 147.052,152.113 147.082,152.08 147.082,152.08 147.114,152.047 147.145,152.013 147.176,151.979 147.207,151.945 147.237,151.91 147.268,151.876 147.298,151.841 147.328,151.807 147.328,151.807 147.359,151.77 147.39,151.734 147.422,151.697 147.452,151.66 147.483,151.623 147.513,151.586 147.544,151.549 147.574,151.511 147.574,151.511 147.605,151.472 147.636,151.433 147.667,151.393 147.699,151.353 147.729,151.314 147.76,151.274 147.79,151.234 147.821,151.194 147.821,151.194 147.852,151.151 147.884,151.109 147.915,151.067 147.946,151.024 147.977,150.981 148.008,150.939 148.038,150.896 148.069,150.853 148.069,150.853 148.101,150.808 148.133,150.762 148.164,150.717 148.195,150.671 148.227,150.626 148.258,150.58 148.289,150.534 148.32,150.489 148.32,150.489 148.352,150.44 148.384,150.392 148.416,150.343 148.448,150.295 148.479,150.246 148.511,150.197 148.542,150.149 148.573,150.1 148.573,150.1 148.606,150.048 148.638,149.997 148.671,149.945 148.703,149.894 148.735,149.842 148.767,149.79 148.799,149.738 148.831,149.686 148.831,149.686 148.898,149.575 148.964,149.464 149.031,149.352 149.096,149.24 149.162,149.127 149.226,149.015 149.291,148.902 149.355,148.789 155.796,137.266 153.44,132.764 148.045,132.764 130.396,164.186 133.748,164.186 140.923,151.46 149.931,135.382 151.398,135.382 152.393,137.319 146.265,148.265 146.214,148.353 146.163,148.442 146.112,148.53 146.06,148.618 146.008,148.705 145.955,148.792 145.902,148.879 145.848,148.966 145.848,148.966 145.823,149.006 145.797,149.045 145.772,149.085 145.747,149.124 145.721,149.164 145.695,149.203 145.669,149.242 145.643,149.282 145.643,149.282 145.618,149.318 145.593,149.355 145.568,149.392 145.542,149.428 145.517,149.464 145.491,149.501 145.466,149.537 145.44,149.573 145.44,149.573 145.415,149.607 145.39,149.64 145.365,149.674 145.34,149.707 145.315,149.741 145.289,149.774 145.264,149.807 145.238,149.84 145.238,149.84 145.213,149.871 145.188,149.902 145.164,149.932 145.138,149.963 145.113,149.993 145.088,150.023 145.062,150.054 145.036,150.084 145.036,150.084 145.011,150.112 144.987,150.14 144.961,150.168 144.936,150.196 144.911,150.223 144.885,150.25 144.859,150.278 144.833,150.305 144.833,150.305 144.808,150.33 144.783,150.356 144.758,150.381 144.732,150.406 144.707,150.431 144.681,150.455 144.655,150.48 144.629,150.504 144.629,150.504 144.604,150.527 144.578,150.55 144.552,150.573 144.527,150.595 144.5,150.617 144.474,150.639 144.448,150.661 144.421,150.682 144.421,150.682 144.396,150.703 144.37,150.723 144.343,150.743 144.317,150.763 144.291,150.783 144.264,150.802 144.237,150.821 144.21,150.84 144.21,150.84 144.183,150.858 144.157,150.876 144.13,150.894 144.103,150.911 144.076,150.929 144.049,150.945 144.021,150.962 143.994,150.978 143.994,150.978 143.966,150.994 143.939,151.01 143.911,151.025 143.883,151.04 143.856,151.055 143.828,151.069 143.799,151.084 143.771,151.098 143.771,151.098 143.743,151.111 143.714,151.124 143.686,151.137 143.657,151.15 143.629,151.162 143.6,151.175 143.571,151.187 143.542,151.198 143.542,151.198 143.512,151.21 143.483,151.221 143.454,151.232 143.424,151.242 143.394,151.252 143.364,151.262 143.334,151.272 143.304,151.281 143.304,151.281 143.274,151.291 143.243,151.3 143.213,151.308 143.182,151.317 143.151,151.325 143.12,151.333 143.09,151.34 143.059,151.348 143.059,151.348 143.027,151.355 142.995,151.362 142.963,151.369 142.931,151.375 142.899,151.381 142.867,151.387 142.835,151.393 142.803,151.398 142.803,151.398 142.769,151.403 142.736,151.408 142.703,151.413 142.67,151.417 142.636,151.422 142.603,151.426 142.569,151.429 142.536,151.433 142.536,151.433 142.465,151.439 142.395,151.445 142.324,151.45 142.254,151.453 142.183,151.456 142.112,151.458 142.041,151.459 141.97,151.46 140.923,151.46" fill="none" stroke="black" stroke-width="0.1"/>
        <polygon id="_131954472___1_0" points="222.258,154.078 223.672,154.078 221.158,164.186 224.3,164.186 226.709,153.921 226.782,153.906 226.856,153.89 226.929,153.873 227.002,153.855 227.074,153.837 227.147,153.817 227.219,153.797 227.291,153.775 227.291,153.775 227.326,153.764 227.361,153.753 227.396,153.741 227.432,153.73 227.467,153.718 227.501,153.706 227.536,153.693 227.571,153.681 227.845,153.572 227.879,153.557 227.913,153.542 227.946,153.527 227.98,153.511 228.014,153.495 228.047,153.48 228.08,153.463 228.113,153.447 228.113,153.447 228.147,153.43 228.18,153.413 228.213,153.396 228.246,153.378 228.279,153.361 228.311,153.343 228.344,153.324 228.376,153.306 228.376,153.306 228.409,153.287 228.442,153.268 228.474,153.248 228.507,153.229 228.539,153.209 228.571,153.189 228.603,153.168 228.635,153.148 228.635,153.148 228.667,153.127 228.699,153.105 228.731,153.084 228.763,153.062 228.795,153.04 228.827,153.018 228.858,152.995 228.89,152.972 228.89,152.972 228.922,152.949 228.953,152.925 228.985,152.901 229.017,152.877 229.048,152.853 229.079,152.828 229.11,152.803 229.141,152.778 229.141,152.778 229.173,152.753 229.204,152.726 229.236,152.7 229.267,152.673 229.298,152.647 229.329,152.62 229.359,152.593 229.39,152.565 229.39,152.565 229.422,152.537 229.453,152.509 229.484,152.48 229.515,152.451 229.546,152.422 229.576,152.392 229.607,152.363 229.637,152.333 229.637,152.333 229.668,152.302 229.7,152.271 229.731,152.239 229.762,152.208 229.792,152.176 229.823,152.144 229.853,152.113 229.883,152.08 229.883,152.08 229.915,152.047 229.946,152.013 229.977,151.979 230.007,151.945 230.038,151.91 230.069,151.876 230.099,151.841 230.129,151.807 230.129,151.807 230.16,151.77 230.191,151.734 230.222,151.697 230.253,151.66 230.284,151.623 230.314,151.586 230.345,151.549 230.375,151.511 230.375,151.511 230.406,151.472 230.437,151.433 230.468,151.393 230.499,151.353 230.53,151.314 230.561,151.274 230.591,151.234 230.622,151.194 230.622,151.194 230.653,151.151 230.685,151.109 230.716,151.067 230.747,151.024 230.778,150.981 230.809,150.939 230.839,150.896 230.87,150.853 230.87,150.853 230.902,150.808 230.934,150.762 230.965,150.717 230.996,150.671 231.028,150.626 231.059,150.58 231.09,150.534 231.121,150.489 231.121,150.489 231.153,150.44 231.185,150.392 231.217,150.343 231.249,150.295 231.28,150.246 231.312,150.197 231.343,150.149 231.374,150.1 231.374,150.1 231.407,150.048 231.439,149.997 231.472,149.945 231.504,149.894 231.536,149.842 231.568,149.79 231.6,149.738 231.631,149.686 231.631,149.686 231.699,149.575 231.765,149.464 231.832,149.352 231.897,149.24 231.963,149.127 232.027,149.015 232.092,148.902 232.156,148.789 238.597,137.266 236.241,132.764 230.846,132.764 213.197,164.186 216.549,164.186 223.724,151.46 232.732,135.382 234.199,135.382 235.194,137.319 229.065,148.265 229.015,148.353 228.964,148.442 228.913,148.53 228.861,148.618 228.809,148.705 228.756,148.792 228.703,148.879 228.649,148.966 228.649,148.966 228.624,149.006 228.598,149.045 228.573,149.085 228.547,149.124 228.522,149.164 228.496,149.203 228.47,149.242 228.444,149.282 228.444,149.282 228.419,149.318 228.394,149.355 228.369,149.392 228.343,149.428 228.318,149.464 228.292,149.501 228.267,149.537 228.241,149.573 228.241,149.573 228.216,149.607 228.191,149.64 228.166,149.674 228.141,149.707 228.116,149.741 228.09,149.774 228.065,149.807 228.039,149.84 228.039,149.84 228.014,149.871 227.989,149.902 227.964,149.932 227.939,149.963 227.914,149.993 227.889,150.023 227.863,150.054 227.837,150.084 227.837,150.084 227.812,150.112 227.787,150.14 227.762,150.168 227.737,150.196 227.712,150.223 227.686,150.25 227.66,150.278 227.634,150.305 227.634,150.305 227.609,150.33 227.584,150.356 227.559,150.381 227.534,150.406 227.508,150.431 227.482,150.455 227.456,150.48 227.43,150.504 227.43,150.504 227.405,150.527 227.379,150.55 227.353,150.573 227.327,150.595 227.301,150.617 227.275,150.639 227.249,150.661 227.222,150.682 227.222,150.682 227.196,150.703 227.171,150.723 227.144,150.743 227.118,150.763 227.091,150.783 227.065,150.802 227.038,150.821 227.011,150.84 227.011,150.84 226.984,150.858 226.958,150.876 226.931,150.894 226.904,150.911 226.877,150.929 226.85,150.945 226.822,150.962 226.795,150.978 226.795,150.978 226.767,150.994 226.74,151.01 226.712,151.025 226.684,151.04 226.656,151.055 226.629,151.069 226.6,151.084 226.572,151.098 226.572,151.098 226.544,151.111 226.515,151.124 226.487,151.137 226.458,151.15 226.43,151.162 226.401,151.175 226.372,151.187 226.343,151.198 226.343,151.198 226.313,151.21 226.284,151.221 226.255,151.232 226.225,151.242 226.195,151.252 226.165,151.262 226.135,151.272 226.106,151.281 226.106,151.281 226.075,151.291 226.044,151.3 226.014,151.308 225.983,151.317 225.952,151.325 225.921,151.333 225.891,151.34 225.859,151.348 225.859,151.348 225.828,151.355 225.796,151.362 225.764,151.369 225.732,151.375 225.7,151.381 225.668,151.387 225.636,151.393 225.604,151.398 225.604,151.398 225.57,151.403 225.537,151.408 225.504,151.413 225.471,151.417 225.437,151.422 225.404,151.426 225.37,151.429 225.337,151.433 225.337,151.433 225.266,151.439 225.196,151.445 225.125,151.45 225.054,151.453 224.984,151.456 224.913,151.458 224.842,151.459 224.771,151.46 223.724,151.46" fill="none" stroke="black" stroke-width="0.1"/>
        <polygon id="_132883608_1" points="49.1678,135.277 49.0926,135.288 49.0175,135.3 48.9424,135.312 48.8674,135.324 48.7925,135.337 48.7177,135.351 48.6429,135.365 48.5683,135.379 48.5683,135.379 48.5347,135.386 48.5013,135.393 48.4679,135.4 48.4344,135.407 48.4012,135.415 48.3679,135.422 48.3347,135.43 48.3014,135.437 48.3014,135.437 48.2705,135.445 48.2398,135.452 48.2091,135.46 48.1784,135.468 48.1478,135.476 48.1173,135.484 48.0869,135.493 48.0565,135.501 48.0565,135.501 48.0282,135.51 47.9999,135.518 47.9715,135.527 47.9434,135.536 47.9152,135.545 47.8872,135.554 47.8592,135.563 47.8313,135.573 47.8313,135.573 47.8051,135.582 47.779,135.592 47.7529,135.601 47.727,135.611 47.701,135.622 47.6752,135.632 47.6496,135.642 47.624,135.653 47.624,135.653 47.5997,135.664 47.5755,135.674 47.5513,135.685 47.5273,135.697 47.5034,135.708 47.4795,135.72 47.4558,135.731 47.4323,135.743 47.4323,135.743 47.4095,135.755 47.3868,135.768 47.3643,135.78 47.3419,135.793 47.3196,135.805 47.2975,135.819 47.2755,135.832 47.2537,135.845 47.2537,135.845 47.2322,135.859 47.2109,135.873 47.1898,135.887 47.1688,135.901 47.1479,135.916 47.1272,135.93 47.1067,135.945 47.0863,135.96 47.0863,135.96 47.066,135.976 47.0457,135.991 47.0259,136.007 47.006,136.023 46.9862,136.04 46.9668,136.056 46.9474,136.072 46.9283,136.089 46.9283,136.089 46.9087,136.107 46.8895,136.125 46.8702,136.142 46.8513,136.16 46.8325,136.179 46.8137,136.197 46.7953,136.215 46.777,136.234 46.777,136.234 46.758,136.254 46.7393,136.274 46.7207,136.294 46.7024,136.314 46.6841,136.334 46.6661,136.355 46.6481,136.375 46.6304,136.396 46.6304,136.396 46.6118,136.418 46.5934,136.44 46.5752,136.462 46.5571,136.485 46.5391,136.507 46.5214,136.53 46.5038,136.553 46.4863,136.576 46.4863,136.576 46.4678,136.6 46.4495,136.625 46.4314,136.65 46.4132,136.674 46.3954,136.699 46.3776,136.725 46.3599,136.75 46.3424,136.775 46.3424,136.775 46.3238,136.802 46.3052,136.83 46.2869,136.857 46.2686,136.885 46.2504,136.912 46.2325,136.94 46.2145,136.968 46.1967,136.995 46.1967,136.995 46.1776,137.025 46.1586,137.056 46.1397,137.086 46.1209,137.116 46.1021,137.147 46.0835,137.177 46.0651,137.208 46.0466,137.238 46.0466,137.238 46.0267,137.271 46.007,137.304 45.9872,137.338 45.9677,137.371 45.9481,137.404 45.9287,137.438 45.9093,137.471 45.89,137.505 45.5538,138.105 40.9975,146.117 40.9609,146.184 40.9248,146.25 40.8892,146.318 40.8539,146.385 40.8192,146.452 40.7848,146.52 40.7512,146.589 40.7181,146.657 40.7181,146.657 40.703,146.689 40.688,146.721 40.6732,146.753 40.6586,146.785 40.6441,146.817 40.6298,146.849 40.6156,146.881 40.6016,146.914 40.6016,146.914 40.5886,146.945 40.5757,146.976 40.563,147.006 40.5504,147.037 40.5381,147.069 40.5259,147.1 40.514,147.131 40.5023,147.162 40.5023,147.162 40.4914,147.192 40.4805,147.222 40.47,147.253 40.4597,147.283 40.4495,147.313 40.4396,147.343 40.4299,147.374 40.4204,147.404 40.4204,147.404 40.4116,147.434 40.4031,147.463 40.3946,147.493 40.3865,147.522 40.3787,147.552 40.3711,147.581 40.3637,147.611 40.3566,147.641 40.3566,147.641 40.3499,147.67 40.3435,147.699 40.3373,147.728 40.3316,147.757 40.326,147.787 40.3206,147.816 40.3157,147.845 40.3109,147.875 40.3109,147.875 40.3066,147.904 40.3025,147.933 40.2987,147.962 40.2952,147.991 40.292,148.02 40.2891,148.049 40.2864,148.078 40.2842,148.107 40.2842,148.107 40.2821,148.136 40.2805,148.165 40.2791,148.194 40.278,148.223 40.2772,148.252 40.2767,148.281 40.2764,148.31 40.2765,148.339 40.2765,148.339 40.277,148.368 40.2777,148.398 40.2788,148.427 40.28,148.456 40.2818,148.485 40.2837,148.514 40.2859,148.544 40.2885,148.573 40.2885,148.573 40.2915,148.602 40.2947,148.632 40.2982,148.662 40.302,148.692 40.3061,148.721 40.3106,148.751 40.3154,148.78 40.3203,148.81 40.3203,148.81 40.3259,148.84 40.3316,148.871 40.3378,148.901 40.3442,148.931 40.3509,148.962 40.3579,148.992 40.3652,149.022 40.3727,149.052 40.3727,149.052 40.3808,149.083 40.3892,149.115 40.398,149.146 40.4069,149.177 40.4163,149.208 40.4258,149.239 40.4355,149.27 40.4455,149.301 40.5394,149.558 40.5674,149.627 40.5965,149.695 40.6265,149.763 40.6573,149.831 40.689,149.898 40.7215,149.965 40.7546,150.031 40.7883,150.098 41.993,152.455 42.0142,152.496 42.0354,152.537 42.0564,152.579 42.0772,152.621 42.0979,152.663 42.1184,152.705 42.1388,152.747 42.159,152.789 42.159,152.789 42.1685,152.809 42.1781,152.829 42.1876,152.85 42.1972,152.87 42.2066,152.89 42.216,152.911 42.2254,152.931 42.2346,152.951 42.2346,152.951 42.2435,152.971 42.2526,152.991 42.2615,153.011 42.2702,153.031 42.279,153.051 42.2877,153.071 42.2963,153.092 42.3049,153.112 42.3049,153.112 42.3132,153.131 42.3215,153.151 42.3297,153.171 42.3379,153.19 42.346,153.21 42.3539,153.23 42.3619,153.25 42.3697,153.269 42.3697,153.269 42.3773,153.289 42.385,153.308 42.3924,153.327 42.3999,153.347 42.4072,153.367 42.4146,153.386 42.4217,153.406 42.4289,153.425 42.4289,153.425 42.4359,153.445 42.4427,153.464 42.4494,153.483 42.4561,153.503 42.4628,153.522 42.4693,153.541 42.4757,153.561 42.482,153.58 42.482,153.58 42.4882,153.599 42.4944,153.619 42.5005,153.638 42.5064,153.657 42.5123,153.676 42.5181,153.696 42.5239,153.715 42.5294,153.734 42.5294,153.734 42.5349,153.753 42.5403,153.773 42.5455,153.792 42.5508,153.811 42.5559,153.83 42.5608,153.85 42.5657,153.869 42.5707,153.888 42.5707,153.888 42.5753,153.907 42.5799,153.927 42.5843,153.946 42.5888,153.965 42.5931,153.984 42.5972,154.004 42.6014,154.023 42.6053,154.042 42.6053,154.042 42.6092,154.062 42.613,154.081 42.6168,154.1 42.6203,154.12 42.6238,154.139 42.6273,154.159 42.6305,154.178 42.6337,154.197 42.6337,154.197 42.6369,154.217 42.6397,154.236 42.6427,154.256 42.6454,154.275 42.6482,154.295 42.6507,154.315 42.6531,154.334 42.6555,154.354 42.6555,154.354 42.6577,154.373 42.6599,154.393 42.662,154.413 42.6639,154.433 42.6657,154.452 42.6674,154.472 42.669,154.492 42.6704,154.512 42.6704,154.512 42.6719,154.532 42.6731,154.552 42.6742,154.572 42.6754,154.592 42.6763,154.612 42.6771,154.632 42.6779,154.652 42.6785,154.672 42.6785,154.672 42.679,154.693 42.6795,154.713 42.6798,154.733 42.68,154.754 42.6801,154.774 42.68,154.795 42.68,154.815 42.6797,154.836 42.6797,154.836 42.6792,154.856 42.6787,154.877 42.6781,154.898 42.6773,154.919 42.6765,154.94 42.6755,154.96 42.6744,154.981 42.6733,155.002 42.6733,155.002 42.672,155.023 42.6706,155.045 42.669,155.066 42.6674,155.087 42.6655,155.108 42.6637,155.13 42.6617,155.151 42.6596,155.172 42.6596,155.172 42.6574,155.194 42.655,155.216 42.6524,155.238 42.6499,155.26 42.6472,155.282 42.6445,155.304 42.6415,155.325 42.6384,155.347 42.6384,155.347 42.6353,155.37 42.6319,155.392 42.6284,155.415 42.6249,155.437 42.6213,155.46 42.6174,155.482 42.6136,155.504 42.6096,155.527 42.6096,155.527 42.6053,155.55 42.6011,155.573 42.5966,155.596 42.5921,155.62 42.5875,155.643 42.5828,155.666 42.5778,155.689 42.5729,155.712 42.5729,155.712 42.5676,155.736 42.5624,155.76 42.557,155.783 42.5514,155.807 42.5458,155.831 42.5401,155.855 42.5342,155.879 42.5283,155.902 42.5283,155.902 42.5221,155.927 42.5158,155.952 42.5092,155.977 42.5027,156.001 42.496,156.026 42.4893,156.05 42.4825,156.075 42.4755,156.1 42.4755,156.1 42.4682,156.125 42.4607,156.151 42.4532,156.176 42.4456,156.202 42.4379,156.227 42.4302,156.253 42.4224,156.278 42.4144,156.304 42.4144,156.304 42.406,156.33 42.3975,156.357 42.3889,156.383 42.3803,156.41 42.3716,156.436 42.3627,156.463 42.3538,156.489 42.3449,156.515 42.3449,156.515 42.3353,156.543 42.3258,156.57 42.3162,156.598 42.3065,156.625 42.2966,156.652 42.2868,156.68 42.2768,156.707 42.2667,156.735 42.2667,156.735 42.2561,156.763 42.2454,156.792 42.2347,156.82 42.2239,156.849 42.2131,156.877 42.2021,156.905 42.1911,156.934 42.18,156.962 42.18,156.962 42.1682,156.992 42.1565,157.022 42.1445,157.051 42.1326,157.081 42.1207,157.11 42.1086,157.14 42.0963,157.169 42.0841,157.199 42.0841,157.199 42.0712,157.23 42.0583,157.261 42.0454,157.291 42.0323,157.322 42.0191,157.353 42.0059,157.384 41.9927,157.414 41.9793,157.445 41.9793,157.445 41.9653,157.477 41.9512,157.509 41.937,157.541 41.9229,157.573 41.9085,157.605 41.8942,157.637 41.8797,157.669 41.8653,157.701 41.8653,157.701 41.8501,157.734 41.8349,157.768 41.8194,157.801 41.804,157.834 41.7886,157.868 41.7731,157.901 41.7575,157.934 41.7419,157.967 41.7419,157.967 41.7255,158.002 41.7092,158.037 41.6926,158.072 41.6759,158.106 41.6593,158.141 41.6426,158.176 41.6259,158.21 41.6091,158.245 41.6091,158.245 41.5896,158.285 41.5702,158.324 41.5508,158.364 41.5313,158.404 41.5117,158.444 41.4919,158.483 41.4722,158.523 41.4523,158.562 41.4523,158.562 41.4304,158.606 41.4082,158.65 41.3861,158.694 41.364,158.737 41.3417,158.781 41.3195,158.824 41.297,158.868 41.2746,158.911 41.2746,158.911 41.2504,158.958 41.226,159.005 41.2015,159.051 41.1772,159.098 41.1525,159.144 41.1279,159.19 41.1032,159.237 41.0784,159.283 41.0784,159.283 41.0542,159.328 41.0298,159.373 41.0053,159.418 40.9808,159.463 40.9563,159.507 40.9315,159.552 40.9067,159.597 40.8819,159.641 40.8819,159.641 40.8575,159.685 40.8332,159.728 40.8088,159.771 40.7842,159.814 40.7595,159.857 40.7348,159.9 40.71,159.943 40.685,159.986 40.685,159.986 40.6607,160.027 40.6362,160.069 40.6117,160.11 40.587,160.151 40.5623,160.193 40.5375,160.234 40.5125,160.275 40.4875,160.316 40.4875,160.316 40.463,160.356 40.4385,160.396 40.4139,160.436 40.3892,160.475 40.3644,160.515 40.3394,160.554 40.3143,160.594 40.2891,160.633 40.2891,160.633 40.2645,160.671 40.2398,160.71 40.215,160.748 40.19,160.786 40.165,160.824 40.1399,160.861 40.1147,160.899 40.0894,160.937 40.0894,160.937 40.0646,160.974 40.0398,161.01 40.0146,161.047 39.9896,161.083 39.9643,161.119 39.939,161.155 39.9137,161.191 39.8881,161.227 39.8881,161.227 39.8631,161.262 39.8382,161.297 39.813,161.332 39.7877,161.367 39.7623,161.401 39.7368,161.436 39.711,161.47 39.6852,161.504 39.6852,161.504 39.6601,161.538 39.6348,161.571 39.6095,161.604 39.5839,161.637 39.5583,161.67 39.5325,161.703 39.5065,161.736 39.4806,161.769 39.4806,161.769 39.4551,161.8 39.4295,161.832 39.4039,161.863 39.378,161.895 39.3522,161.926 39.3261,161.958 39.2998,161.989 39.2736,162.02 39.2736,162.02 39.2478,162.05 39.2219,162.08 39.1959,162.11 39.1698,162.14 39.1436,162.169 39.1173,162.199 39.0907,162.228 39.0642,162.258 39.0642,162.258 39.0381,162.286 39.0118,162.315 38.9854,162.343 38.959,162.372 38.9324,162.4 38.9057,162.428 38.8788,162.456 38.8519,162.483 38.8519,162.483 38.8255,162.511 38.7989,162.537 38.7722,162.564 38.7454,162.591 38.7185,162.618 38.6915,162.644 38.6643,162.67 38.6369,162.696 38.6369,162.696 38.61,162.722 38.5831,162.747 38.5559,162.773 38.5287,162.798 38.5013,162.823 38.4738,162.847 38.4463,162.872 38.4186,162.897 38.4186,162.897 38.3912,162.921 38.3639,162.945 38.3363,162.968 38.3086,162.992 38.281,163.016 38.2531,163.039 38.2251,163.062 38.1969,163.085 38.1969,163.085 38.1691,163.107 38.1412,163.13 38.1132,163.152 38.0851,163.174 38.0569,163.196 38.0286,163.218 38.0001,163.239 37.9715,163.261 37.9715,163.261 37.9431,163.282 37.9148,163.302 37.8863,163.323 37.8577,163.344 37.8289,163.364 37.8001,163.384 37.7711,163.404 37.742,163.424 37.742,163.424 37.7132,163.444 37.6842,163.463 37.6553,163.482 37.6261,163.501 37.5969,163.52 37.5674,163.539 37.538,163.557 37.5084,163.576 37.5084,163.576 37.479,163.594 37.4495,163.612 37.4199,163.629 37.3902,163.647 37.3604,163.664 37.3305,163.681 37.3004,163.698 37.2703,163.715 37.2703,163.715 37.2403,163.732 37.2102,163.748 37.18,163.765 37.1497,163.781 37.1193,163.797 37.0889,163.812 37.0584,163.828 37.0277,163.843 37.0277,163.843 36.997,163.858 36.9663,163.873 36.9354,163.888 36.9045,163.902 36.8735,163.917 36.8425,163.931 36.8113,163.945 36.7801,163.959 36.7801,163.959 36.7487,163.973 36.7172,163.986 36.6857,164.0 36.6542,164.013 36.6225,164.026 36.5907,164.038 36.5589,164.051 36.5271,164.063 36.5271,164.063 36.4949,164.076 36.4628,164.088 36.4306,164.1 36.3983,164.111 36.366,164.123 36.3337,164.134 36.3013,164.145 36.2688,164.156 36.2688,164.156 36.236,164.167 36.2031,164.178 36.1702,164.188 36.1372,164.199 36.1041,164.209 36.0712,164.219 36.0379,164.228 36.0048,164.238 36.0048,164.238 35.9712,164.247 35.9377,164.257 35.9039,164.266 35.8702,164.274 35.8365,164.283 35.8027,164.292 35.7688,164.3 35.7349,164.308 35.7349,164.308 35.7006,164.316 35.6662,164.324 35.6317,164.332 35.5971,164.339 35.5626,164.346 35.5281,164.354 35.4935,164.36 35.4589,164.367 35.4589,164.367 35.4237,164.374 35.3884,164.38 35.353,164.387 35.3179,164.393 35.2825,164.399 35.2472,164.405 35.2117,164.41 35.1764,164.415 35.1764,164.415 35.1403,164.421 35.1043,164.426 35.0682,164.431 35.0321,164.435 34.9958,164.44 34.9597,164.444 34.9236,164.449 34.8873,164.452 34.8873,164.452 34.8502,164.457 34.8133,164.46 34.7762,164.464 34.7393,164.467 34.7022,164.47 34.6653,164.473 34.6282,164.476 34.5911,164.479 34.5911,164.479 34.5533,164.482 34.5154,164.484 34.4775,164.486 34.4397,164.488 34.4018,164.49 34.3638,164.492 34.3259,164.493 34.288,164.495 34.288,164.495 34.2503,164.496 34.2126,164.497 34.1749,164.498 34.137,164.499 34.0993,164.499 34.0616,164.5 34.0239,164.5 33.9862,164.5 33.9862,164.5 33.9491,164.5 33.912,164.499 33.8749,164.499 33.838,164.498 33.8009,164.497 33.7639,164.496 33.7269,164.495 33.6899,164.493 33.6899,164.493 33.6541,164.492 33.6183,164.49 33.5825,164.488 33.5468,164.486 33.511,164.483 33.4754,164.48 33.4396,164.477 33.4039,164.474 33.4039,164.474 33.3689,164.471 33.3339,164.468 33.2989,164.464 33.264,164.46 33.229,164.456 33.1942,164.451 33.1593,164.447 33.1245,164.442 33.1245,164.442 33.0904,164.437 33.0564,164.432 33.0223,164.427 32.9883,164.421 32.9542,164.416 32.9203,164.41 32.8864,164.404 32.8525,164.397 32.8525,164.397 32.8193,164.391 32.7862,164.384 32.7531,164.377 32.72,164.37 32.6871,164.363 32.6541,164.355 32.6213,164.348 32.5886,164.34 32.5886,164.34 32.5564,164.332 32.5243,164.323 32.4923,164.315 32.4603,164.306 32.4285,164.297 32.3966,164.288 32.3648,164.279 32.333,164.269 32.333,164.269 32.3021,164.259 32.2711,164.25 32.2404,164.239 32.2095,164.229 32.1788,164.219 32.1483,164.208 32.1177,164.197 32.0871,164.186 32.0871,164.186 32.0574,164.175 32.0276,164.163 31.998,164.151 31.9684,164.14 31.939,164.128 31.9097,164.115 31.8804,164.103 31.8513,164.09 31.8513,164.09 31.8228,164.077 31.7944,164.064 31.766,164.051 31.7379,164.037 31.7097,164.023 31.6817,164.009 31.6538,163.995 31.6262,163.981 31.6262,163.981 31.599,163.966 31.5721,163.952 31.545,163.937 31.5183,163.922 31.4917,163.907 31.4651,163.891 31.4387,163.875 31.4125,163.859 31.4125,163.859 31.3868,163.843 31.3612,163.827 31.3359,163.81 31.3106,163.794 31.2855,163.777 31.2605,163.76 31.2357,163.743 31.211,163.725 31.211,163.725 31.1868,163.707 31.1628,163.689 31.1391,163.671 31.1154,163.653 31.0918,163.635 31.0686,163.616 31.0454,163.597 31.0224,163.578 31.0224,163.578 30.9998,163.559 30.9776,163.539 30.9554,163.52 30.9335,163.5 30.9117,163.48 30.89,163.459 30.8687,163.439 30.8476,163.418 30.8476,163.418 30.8267,163.397 30.806,163.376 30.7857,163.355 30.7655,163.333 30.7456,163.312 30.7258,163.29 30.7063,163.268 30.687,163.246 30.687,163.246 30.6679,163.223 30.6491,163.2 30.6305,163.178 30.6122,163.154 30.5941,163.131 30.5763,163.108 30.5587,163.084 30.5414,163.06 30.5414,163.06 30.5242,163.036 30.5073,163.012 30.4906,162.988 30.4744,162.963 30.4582,162.938 30.4424,162.913 30.4268,162.888 30.4116,162.862 30.4116,162.862 30.3964,162.837 30.3815,162.811 30.3668,162.785 30.3525,162.759 30.3385,162.732 30.3248,162.706 30.3113,162.679 30.2981,162.652 30.2981,162.652 30.2851,162.625 30.2723,162.597 30.2598,162.569 30.2477,162.541 30.2357,162.513 30.2243,162.485 30.213,162.457 30.202,162.429 30.202,162.429 30.1912,162.4 30.1805,162.37 30.1703,162.341 30.1603,162.312 30.1507,162.282 30.1414,162.253 30.1325,162.223 30.1237,162.193 30.1237,162.193 30.1151,162.162 30.1068,162.132 30.0989,162.101 30.0912,162.07 30.0841,162.039 30.0771,162.007 30.0704,161.976 30.064,161.945 30.064,161.945 30.0578,161.912 30.0519,161.88 30.0464,161.847 30.0413,161.815 30.0363,161.782 30.0319,161.75 30.0276,161.717 30.0238,161.684 30.0238,161.684 30.0201,161.65 30.0166,161.616 30.0136,161.582 30.0109,161.548 30.0085,161.513 30.0064,161.479 30.0047,161.445 30.0032,161.411 30.0032,161.411 30.0021,161.375 30.0013,161.339 30.001,161.304 30.0009,161.268 30.001,161.232 30.0015,161.197 30.0024,161.161 30.0036,161.125 30.0036,161.125 30.0051,161.088 30.0071,161.05 30.0093,161.013 30.0118,160.976 30.0147,160.939 30.0179,160.902 30.0214,160.864 30.0252,160.827 30.0252,160.827 30.0297,160.788 30.0343,160.749 30.0394,160.71 30.0446,160.671 30.0502,160.633 30.0562,160.594 30.0624,160.555 30.069,160.517 30.069,160.517 30.0761,160.476 30.0838,160.436 30.0916,160.395 30.0998,160.355 30.1083,160.314 30.117,160.274 30.1261,160.234 30.1355,160.194 30.1355,160.194 30.1457,160.152 30.1562,160.11 30.167,160.068 30.178,160.025 30.1894,159.984 30.2012,159.942 30.2131,159.9 30.2254,159.859 30.2254,159.859 30.2386,159.815 30.2521,159.771 30.266,159.728 30.2801,159.684 30.2946,159.641 30.3092,159.598 30.3242,159.554 30.3395,159.511 30.3395,159.511 30.3559,159.466 30.3724,159.421 30.3894,159.375 30.4066,159.33 30.4241,159.285 30.4418,159.241 30.4599,159.196 30.4782,159.151 30.4782,159.151 30.4978,159.104 30.5177,159.058 30.5379,159.011 30.5583,158.964 30.579,158.918 30.6,158.871 30.6211,158.825 30.6426,158.779 30.6426,158.779 30.6895,158.681 30.7376,158.583 30.7866,158.485 30.8367,158.388 30.8878,158.291 30.9399,158.196 30.9928,158.1 31.0466,158.005 32.5134,155.439 35.8129,155.439 33.3684,159.906 33.3609,159.922 33.3536,159.939 33.3463,159.956 33.3391,159.972 33.332,159.989 33.325,160.006 33.3181,160.023 33.3113,160.04 33.3113,160.04 33.3049,160.056 33.2986,160.072 33.2924,160.088 33.2862,160.104 33.2801,160.12 33.2742,160.137 33.2685,160.153 33.2628,160.169 33.2628,160.169 33.2574,160.185 33.2521,160.2 33.247,160.216 33.2419,160.232 33.237,160.247 33.2322,160.263 33.2274,160.279 33.2228,160.295 33.2228,160.295 33.2185,160.31 33.2144,160.325 33.2103,160.34 33.2063,160.355 33.2023,160.37 33.1986,160.385 33.1948,160.401 33.1913,160.416 33.1913,160.416 33.188,160.43 33.1848,160.445 33.1818,160.459 33.1787,160.474 33.1759,160.489 33.173,160.503 33.1703,160.518 33.1678,160.533 33.1678,160.533 33.1655,160.547 33.1633,160.561 33.1612,160.575 33.1592,160.589 33.1573,160.603 33.1555,160.617 33.1539,160.631 33.1523,160.645 33.1523,160.645 33.1509,160.659 33.1496,160.672 33.1485,160.686 33.1476,160.699 33.1466,160.713 33.1458,160.726 33.1452,160.739 33.1445,160.753 33.1445,160.753 33.1441,160.766 33.1437,160.779 33.1436,160.792 33.1436,160.805 33.1436,160.818 33.1437,160.831 33.1441,160.844 33.1444,160.857 33.1444,160.857 33.1449,160.869 33.1455,160.881 33.1461,160.894 33.1469,160.906 33.1479,160.918 33.149,160.931 33.1503,160.943 33.1515,160.956 33.1515,160.956 33.153,160.967 33.1544,160.979 33.156,160.991 33.1576,161.003 33.1595,161.015 33.1614,161.026 33.1635,161.038 33.1657,161.05 33.1657,161.05 33.1679,161.061 33.1703,161.072 33.1729,161.084 33.1754,161.095 33.1781,161.106 33.1808,161.117 33.1838,161.128 33.1869,161.139 33.1869,161.139 33.1899,161.15 33.1932,161.161 33.1964,161.172 33.1999,161.182 33.2034,161.193 33.2071,161.203 33.2109,161.214 33.2147,161.224 33.2147,161.224 33.2185,161.234 33.2225,161.245 33.2266,161.255 33.2309,161.265 33.2352,161.275 33.2397,161.285 33.2443,161.294 33.2491,161.304 33.2491,161.304 33.2539,161.314 33.2586,161.323 33.2636,161.333 33.2685,161.342 33.2736,161.351 33.2788,161.361 33.2843,161.37 33.2897,161.379 33.2897,161.379 33.2951,161.388 33.3008,161.397 33.3064,161.406 33.3123,161.415 33.3181,161.424 33.3242,161.432 33.3302,161.441 33.3364,161.45 33.3364,161.45 33.3426,161.458 33.349,161.466 33.3555,161.475 33.3621,161.483 33.3686,161.491 33.3754,161.499 33.3821,161.507 33.3891,161.515 33.3891,161.515 33.3961,161.522 33.4031,161.53 33.4103,161.538 33.4176,161.545 33.4249,161.553 33.4322,161.56 33.4397,161.567 33.4474,161.575 33.4474,161.575 33.455,161.582 33.4628,161.589 33.4706,161.596 33.4785,161.603 33.4867,161.609 33.4946,161.616 33.5027,161.623 33.511,161.629 33.511,161.629 33.5194,161.636 33.5279,161.642 33.5365,161.649 33.5451,161.655 33.5536,161.661 33.5624,161.667 33.5712,161.673 33.5801,161.679 33.5801,161.679 33.5891,161.685 33.5982,161.691 33.6074,161.696 33.6165,161.702 33.6259,161.707 33.6351,161.713 33.6447,161.718 33.6541,161.723 33.6541,161.723 33.6638,161.729 33.6735,161.734 33.6832,161.738 33.693,161.743 33.7029,161.748 33.7128,161.753 33.7226,161.758 33.7327,161.762 33.7327,161.762 33.743,161.767 33.7534,161.771 33.7637,161.776 33.774,161.78 33.7845,161.784 33.795,161.788 33.8055,161.792 33.816,161.796 33.816,161.796 33.8269,161.8 33.8378,161.803 33.8488,161.807 33.8596,161.811 33.8708,161.814 33.8818,161.817 33.8927,161.821 33.9039,161.824 33.9039,161.824 33.9153,161.827 33.9266,161.83 33.9381,161.833 33.9496,161.836 33.9612,161.839 33.9726,161.842 33.9842,161.844 33.9959,161.846 33.9959,161.846 34.0078,161.849 34.0197,161.851 34.0317,161.854 34.0436,161.856 34.0555,161.858 34.0676,161.86 34.0797,161.862 34.0918,161.863 34.0918,161.863 34.1042,161.865 34.1166,161.867 34.129,161.868 34.1415,161.87 34.1539,161.871 34.1664,161.873 34.1789,161.874 34.1914,161.875 34.1914,161.875 34.2051,161.876 34.2186,161.877 34.2323,161.878 34.246,161.879 34.2595,161.879 34.2732,161.88 34.2869,161.88 34.3006,161.881 34.3006,161.881 34.316,161.881 34.3313,161.881 34.3467,161.881 34.362,161.881 34.3774,161.881 34.3929,161.881 34.4082,161.881 34.4236,161.88 34.4236,161.88 34.4405,161.88 34.4573,161.879 34.4742,161.879 34.4911,161.878 34.5079,161.877 34.5246,161.876 34.5415,161.875 34.5584,161.875 34.5584,161.875 34.5757,161.873 34.5931,161.872 34.6104,161.871 34.6277,161.869 34.6451,161.868 34.6624,161.866 34.6798,161.864 34.6971,161.862 34.6971,161.862 34.7143,161.86 34.7313,161.858 34.7484,161.856 34.7655,161.854 34.7826,161.851 34.7996,161.849 34.8166,161.846 34.8337,161.844 34.8337,161.844 34.8505,161.841 34.8675,161.838 34.8844,161.835 34.9013,161.832 34.918,161.828 34.9349,161.825 34.9517,161.822 34.9684,161.818 34.9684,161.818 34.9851,161.814 35.0019,161.81 35.0184,161.806 35.0351,161.802 35.0517,161.798 35.0682,161.794 35.0848,161.789 35.1013,161.785 35.1013,161.785 35.1179,161.78 35.1344,161.776 35.151,161.771 35.1673,161.766 35.1839,161.761 35.2003,161.755 35.2165,161.75 35.2329,161.744 35.2329,161.744 35.2493,161.739 35.2657,161.733 35.2821,161.727 35.2985,161.721 35.3147,161.715 35.3309,161.709 35.3472,161.702 35.3634,161.696 35.3634,161.696 35.3798,161.689 35.396,161.683 35.4122,161.676 35.4285,161.669 35.4447,161.661 35.4608,161.654 35.4768,161.647 35.4929,161.639 35.4929,161.639 35.5093,161.632 35.5255,161.624 35.5418,161.616 35.5578,161.608 35.5739,161.6 35.59,161.591 35.6059,161.583 35.6218,161.574 35.6218,161.574 35.6382,161.565 35.6544,161.557 35.6705,161.548 35.6866,161.538 35.7026,161.529 35.7187,161.519 35.7346,161.51 35.7505,161.5 35.7505,161.5 35.7668,161.49 35.783,161.48 35.7991,161.47 35.8151,161.46 35.8312,161.449 35.8471,161.439 35.863,161.428 35.879,161.417 35.879,161.417 35.8953,161.406 35.9116,161.395 35.9278,161.384 35.9439,161.372 35.9599,161.36 35.9759,161.349 35.9918,161.337 36.0077,161.325 36.0077,161.325 36.0241,161.313 36.0403,161.3 36.0567,161.287 36.0728,161.274 36.0888,161.262 36.1049,161.249 36.1208,161.236 36.1367,161.223 36.1367,161.223 36.1533,161.209 36.1697,161.195 36.1861,161.181 36.2023,161.167 36.2185,161.153 36.2346,161.139 36.2507,161.125 36.2667,161.11 36.2667,161.11 36.2833,161.095 36.2998,161.08 36.3164,161.065 36.3328,161.049 36.349,161.034 36.3652,161.019 36.3815,161.003 36.3975,160.988 36.3975,160.988 36.4142,160.971 36.431,160.955 36.4477,160.938 36.4642,160.921 36.4806,160.905 36.4972,160.888 36.5134,160.871 36.5298,160.854 36.5298,160.854 36.5466,160.836 36.5635,160.818 36.5804,160.801 36.5971,160.783 36.6138,160.764 36.6303,160.746 36.6469,160.728 36.6634,160.71 36.6634,160.71 36.6806,160.69 36.6978,160.671 36.7148,160.652 36.7317,160.632 36.7486,160.613 36.7654,160.593 36.7821,160.574 36.7989,160.554 36.7989,160.554 36.8164,160.533 36.8337,160.512 36.851,160.491 36.8682,160.471 36.8854,160.45 36.9024,160.429 36.9195,160.408 36.9365,160.386 36.9365,160.386 36.9543,160.364 36.972,160.342 36.9895,160.319 37.007,160.297 37.0245,160.274 37.0418,160.252 37.0592,160.23 37.0764,160.207 37.0764,160.207 37.0944,160.183 37.1123,160.159 37.1303,160.136 37.1481,160.111 37.166,160.087 37.1838,160.063 37.2014,160.039 37.2189,160.015 37.2189,160.015 37.2374,159.99 37.2557,159.964 37.274,159.939 37.2921,159.913 37.3103,159.888 37.3284,159.862 37.3464,159.837 37.3644,159.811 37.3644,159.811 37.3832,159.784 37.4019,159.757 37.4206,159.73 37.4392,159.703 37.4578,159.675 37.4763,159.648 37.4947,159.621 37.513,159.594 37.513,159.594 37.5323,159.565 37.5514,159.536 37.5705,159.507 37.5896,159.479 37.6085,159.45 37.6274,159.421 37.6464,159.392 37.6651,159.363 37.6651,159.363 37.6849,159.333 37.7044,159.302 37.724,159.272 37.7434,159.241 37.7628,159.211 37.7823,159.18 37.8017,159.15 37.8209,159.119 37.8209,159.119 37.8411,159.087 37.8612,159.055 37.8812,159.023 37.9013,158.99 37.9212,158.958 37.9411,158.926 37.961,158.893 37.9807,158.861 37.9807,158.861 38.0014,158.827 38.0221,158.793 38.0426,158.759 38.0631,158.725 38.0836,158.691 38.104,158.657 38.1244,158.623 38.1447,158.589 38.1447,158.589 38.1879,158.516 38.2307,158.444 38.2733,158.371 38.3158,158.298 38.3581,158.225 38.4003,158.152 38.4421,158.079 38.484,158.005 39.0078,157.063 39.0441,156.995 39.0798,156.928 39.1148,156.859 39.1491,156.791 39.1827,156.722 39.2157,156.653 39.2476,156.583 39.2788,156.513 39.2788,156.513 39.2928,156.48 39.3067,156.448 39.3204,156.415 39.3337,156.383 39.3469,156.35 39.36,156.317 39.3727,156.284 39.3853,156.251 39.3853,156.251 39.3969,156.22 39.4082,156.189 39.4193,156.157 39.4302,156.126 39.4408,156.094 39.4512,156.062 39.4613,156.031 39.4712,155.999 39.4712,155.999 39.4803,155.969 39.4892,155.938 39.4978,155.908 39.5061,155.877 39.5142,155.847 39.522,155.816 39.5295,155.786 39.5368,155.755 39.5368,155.755 39.5435,155.726 39.5497,155.696 39.5557,155.667 39.5616,155.637 39.567,155.608 39.5723,155.578 39.577,155.548 39.5816,155.518 39.5816,155.518 39.5858,155.49 39.5896,155.461 39.5931,155.432 39.5964,155.403 39.5993,155.374 39.6019,155.346 39.6042,155.317 39.6061,155.288 39.6061,155.288 39.6077,155.26 39.609,155.231 39.61,155.203 39.6106,155.175 39.6109,155.147 39.6109,155.118 39.6106,155.09 39.61,155.062 39.61,155.062 39.609,155.034 39.6077,155.006 39.6061,154.979 39.6042,154.951 39.602,154.923 39.5995,154.896 39.5964,154.868 39.5933,154.84 39.5933,154.84 39.5898,154.813 39.5858,154.785 39.5816,154.758 39.577,154.73 39.5723,154.703 39.567,154.676 39.5616,154.648 39.5559,154.621 39.5559,154.621 39.5497,154.594 39.5431,154.566 39.5363,154.539 39.5293,154.512 39.5218,154.485 39.514,154.458 39.5061,154.431 39.4978,154.404 39.3218,153.973 38.1172,151.616 38.0731,151.529 38.0297,151.442 37.9872,151.354 37.9454,151.266 37.9045,151.177 37.8645,151.088 37.8254,150.999 37.7872,150.909 37.7872,150.909 37.769,150.865 37.7511,150.822 37.7334,150.778 37.7161,150.734 37.6989,150.69 37.6818,150.646 37.6651,150.601 37.6487,150.557 37.6487,150.557 37.6328,150.514 37.6172,150.47 37.6018,150.427 37.5867,150.383 37.5719,150.339 37.5572,150.296 37.5429,150.251 37.5289,150.208 37.5289,150.208 37.5154,150.165 37.5022,150.121 37.4891,150.078 37.4764,150.034 37.464,149.991 37.4517,149.947 37.4398,149.904 37.4282,149.86 37.4282,149.86 37.4171,149.817 37.4062,149.774 37.3957,149.73 37.3856,149.687 37.3755,149.644 37.3658,149.601 37.3564,149.557 37.3474,149.513 37.3474,149.513 37.3388,149.471 37.3303,149.428 37.3222,149.385 37.3146,149.342 37.3071,149.298 37.2999,149.255 37.2931,149.212 37.2866,149.168 37.2866,149.168 37.2804,149.126 37.2745,149.083 37.2691,149.04 37.2638,148.997 37.2589,148.954 37.2543,148.911 37.2501,148.868 37.2462,148.824 37.2462,148.824 37.2425,148.781 37.2393,148.739 37.2365,148.696 37.2337,148.653 37.2315,148.61 37.2296,148.567 37.228,148.524 37.2267,148.481 37.2267,148.481 37.2258,148.438 37.2253,148.395 37.225,148.352 37.2252,148.309 37.2255,148.266 37.2263,148.224 37.2274,148.181 37.2288,148.138 37.2288,148.138 37.2306,148.095 37.2328,148.052 37.2352,148.009 37.238,147.966 37.2412,147.923 37.2447,147.881 37.2485,147.838 37.2527,147.795 37.2527,147.795 37.2573,147.752 37.2622,147.709 37.2675,147.666 37.2731,147.623 37.2789,147.581 37.2851,147.538 37.2918,147.495 37.2988,147.452 37.2988,147.452 37.3061,147.409 37.3139,147.366 37.3221,147.323 37.3305,147.28 37.3392,147.237 37.3483,147.194 37.3579,147.152 37.3676,147.109 37.3676,147.109 37.3779,147.066 37.3886,147.023 37.3996,146.979 37.4109,146.937 37.4226,146.894 37.4346,146.851 37.447,146.808 37.4595,146.765 37.4595,146.765 37.4729,146.722 37.4864,146.678 37.5004,146.635 37.5148,146.592 37.5294,146.549 37.5444,146.506 37.5596,146.463 37.5752,146.421 37.5752,146.421 37.5915,146.377 37.6082,146.334 37.625,146.29 37.6424,146.247 37.6599,146.204 37.6779,146.161 37.6962,146.118 37.7146,146.075 37.7146,146.075 37.7541,145.987 37.795,145.899 37.837,145.811 37.8803,145.724 37.9247,145.638 37.9702,145.553 38.017,145.468 38.0647,145.383 43.826,135.696 43.8772,135.609 43.9299,135.524 43.9839,135.439 44.0391,135.355 44.0957,135.272 44.1536,135.19 44.2128,135.109 44.2735,135.029 44.2735,135.029 44.3032,134.991 44.3333,134.952 44.3637,134.915 44.3944,134.877 44.4253,134.84 44.4566,134.803 44.4883,134.766 44.5201,134.729 44.5201,134.729 44.5518,134.694 44.5836,134.658 44.6157,134.623 44.6482,134.589 44.6808,134.554 44.7138,134.52 44.747,134.486 44.7806,134.452 44.7806,134.452 44.8139,134.419 44.8474,134.387 44.8812,134.354 44.9152,134.322 44.9496,134.291 44.9843,134.259 45.0191,134.228 45.0541,134.197 45.0541,134.197 45.089,134.167 45.1241,134.137 45.1595,134.107 45.195,134.078 45.2309,134.049 45.2669,134.02 45.3032,133.992 45.3398,133.963 45.3398,133.963 45.3762,133.936 45.4128,133.909 45.4497,133.882 45.4868,133.855 45.524,133.828 45.5616,133.802 45.5993,133.776 45.6372,133.75 45.6372,133.75 45.675,133.725 45.7131,133.7 45.7514,133.676 45.7898,133.651 45.8284,133.627 45.8673,133.604 45.9062,133.58 45.9454,133.557 45.9454,133.557 45.9847,133.534 46.024,133.512 46.0636,133.489 46.1034,133.468 46.1432,133.446 46.1833,133.425 46.2235,133.404 46.2638,133.383 46.2638,133.383 46.3044,133.362 46.345,133.342 46.3859,133.322 46.4267,133.302 46.4678,133.283 46.509,133.264 46.5504,133.245 46.5918,133.227 46.5918,133.227 46.6335,133.208 46.6753,133.19 46.7173,133.173 46.7593,133.155 46.8015,133.138 46.8438,133.121 46.8861,133.105 46.9286,133.088 46.9286,133.088 46.9714,133.072 47.0144,133.056 47.0574,133.041 47.1005,133.025 47.1436,133.01 47.1869,132.995 47.2303,132.981 47.2738,132.966 47.2738,132.966 47.3175,132.952 47.3613,132.938 47.4052,132.925 47.4493,132.911 47.4934,132.898 47.5376,132.886 47.5818,132.873 47.6262,132.861 47.6262,132.861 47.671,132.848 47.7157,132.837 47.7605,132.825 47.8054,132.813 47.8503,132.802 47.8953,132.791 47.9404,132.781 47.9855,132.77 47.9855,132.77 48.0311,132.76 48.0766,132.75 48.1222,132.74 48.1679,132.73 48.2136,132.721 48.2594,132.712 48.3052,132.703 48.3511,132.694 48.722,132.632 48.7688,132.625 48.8157,132.618 48.8625,132.612 48.9094,132.606 48.9565,132.6 49.0035,132.594 49.0506,132.588 49.0975,132.583 49.0975,132.583 49.1449,132.577 49.1924,132.572 49.2398,132.567 49.2873,132.563 49.3348,132.558 49.3823,132.554 49.4298,132.55 49.4773,132.546 49.4773,132.546 49.5252,132.542 49.5731,132.538 49.621,132.535 49.6689,132.531 49.7168,132.528 49.7647,132.526 49.8128,132.523 49.8607,132.52 49.8607,132.52 49.9573,132.516 50.054,132.511 50.1506,132.508 50.2474,132.505 50.3439,132.503 50.4407,132.502 50.5374,132.501 50.6342,132.501 51.1052,132.501 53.5147,137.11 48.2774,146.431 44.9779,146.431 50.1627,137.214" fill="none" stroke="black" stroke-width="0.1"/>
        <polygon id="_132511232" points="57.8087,153.03 59.2228,150.465 56.1856,150.465 62.8367,135.381 67.7072,135.381 69.1739,132.764 60.8465,132.764 52.9385,150.465 51.1052,150.465 43.407,164.187 51.5243,164.187 52.9902,161.567 48.2253,161.567 53.043,153.03" fill="none" stroke="black" stroke-width="0.1"/>
        <polygon id="_131839120" points="77.8152,132.764 74.5154,132.764 56.8662,164.187 64.6695,164.187 66.136,161.567 61.6321,161.567" fill="none" stroke="black" stroke-width="0.1"/>
        <polygon id="_131531760" points="98.7113,153.03 100.125,150.465 97.0876,150.465 103.687,135.381 108.61,135.381 110.076,132.764 101.749,132.764 93.8411,150.465 92.0076,150.465 84.3093,164.187 92.4269,164.187 93.8934,161.567 89.0749,161.567 93.8934,153.03" fill="none" stroke="black" stroke-width="0.1"/>
        <polygon id="_131379720_1" points="152.13,159.629 167.161,132.764 163.81,132.764 149.668,158.006 149.623,158.091 149.578,158.176 149.533,158.262 149.49,158.348 149.447,158.434 149.405,158.521 149.364,158.608 149.323,158.695 149.323,158.695 149.305,158.737 149.286,158.778 149.268,158.82 149.25,158.861 149.232,158.903 149.214,158.944 149.196,158.986 149.179,159.028 149.179,159.028 149.162,159.068 149.146,159.108 149.13,159.149 149.114,159.189 149.099,159.229 149.083,159.27 149.068,159.31 149.053,159.351 149.053,159.351 149.039,159.39 149.025,159.429 149.012,159.468 148.998,159.507 148.985,159.546 148.972,159.585 148.959,159.625 148.946,159.664 148.946,159.664 148.934,159.701 148.923,159.739 148.911,159.777 148.9,159.815 148.889,159.853 148.878,159.891 148.868,159.929 148.857,159.967 148.857,159.967 148.848,160.003 148.838,160.04 148.829,160.076 148.82,160.113 148.811,160.15 148.802,160.187 148.794,160.223 148.786,160.26 148.786,160.26 148.778,160.295 148.771,160.331 148.764,160.366 148.757,160.402 148.75,160.437 148.744,160.473 148.738,160.508 148.732,160.544 148.732,160.544 148.726,160.578 148.721,160.612 148.716,160.646 148.712,160.68 148.707,160.714 148.703,160.749 148.699,160.783 148.695,160.817 148.695,160.817 148.691,160.85 148.688,160.883 148.685,160.916 148.683,160.949 148.68,160.982 148.678,161.015 148.676,161.048 148.674,161.081 148.674,161.081 148.673,161.113 148.671,161.144 148.671,161.176 148.67,161.208 148.669,161.24 148.669,161.271 148.669,161.303 148.669,161.335 148.669,161.335 148.67,161.365 148.671,161.396 148.672,161.427 148.673,161.457 148.674,161.488 148.676,161.518 148.678,161.548 148.68,161.579 148.68,161.579 148.683,161.608 148.685,161.638 148.688,161.667 148.691,161.696 148.695,161.726 148.698,161.755 148.702,161.784 148.706,161.813 148.706,161.813 148.71,161.842 148.715,161.87 148.72,161.898 148.724,161.926 148.73,161.954 148.735,161.982 148.741,162.01 148.747,162.038 148.747,162.038 148.753,162.065 148.759,162.092 148.765,162.119 148.772,162.146 148.779,162.173 148.786,162.199 148.794,162.226 148.801,162.253 148.801,162.253 148.809,162.279 148.817,162.304 148.826,162.33 148.834,162.356 148.843,162.381 148.852,162.407 148.861,162.432 148.87,162.457 148.87,162.457 148.88,162.482 148.889,162.507 148.899,162.531 148.91,162.556 148.92,162.58 148.93,162.604 148.941,162.629 148.952,162.653 148.952,162.653 148.963,162.676 148.975,162.7 148.986,162.723 148.998,162.746 149.01,162.769 149.022,162.792 149.035,162.815 149.047,162.838 149.047,162.838 149.06,162.86 149.073,162.882 149.086,162.905 149.1,162.927 149.113,162.948 149.127,162.97 149.141,162.992 149.155,163.013 149.155,163.013 149.169,163.034 149.184,163.055 149.198,163.076 149.213,163.097 149.228,163.118 149.244,163.138 149.259,163.159 149.275,163.179 149.275,163.179 149.29,163.199 149.306,163.219 149.322,163.238 149.339,163.258 149.355,163.277 149.372,163.297 149.389,163.316 149.406,163.335 149.406,163.335 149.423,163.354 149.44,163.372 149.458,163.391 149.476,163.409 149.494,163.427 149.512,163.445 149.53,163.463 149.548,163.481 149.548,163.481 149.567,163.498 149.586,163.516 149.605,163.533 149.624,163.55 149.643,163.567 149.663,163.584 149.682,163.6 149.702,163.617 149.702,163.617 149.722,163.633 149.742,163.649 149.762,163.666 149.783,163.681 149.803,163.697 149.824,163.713 149.845,163.728 149.865,163.743 149.865,163.743 149.887,163.758 149.908,163.773 149.929,163.788 149.951,163.803 149.973,163.817 149.995,163.832 150.017,163.846 150.039,163.86 150.039,163.86 150.061,163.874 150.084,163.887 150.107,163.901 150.129,163.915 150.152,163.928 150.175,163.941 150.199,163.954 150.222,163.967 150.222,163.967 150.245,163.979 150.269,163.992 150.293,164.004 150.317,164.017 150.341,164.029 150.365,164.04 150.389,164.052 150.414,164.064 150.414,164.064 150.439,164.075 150.463,164.087 150.488,164.098 150.513,164.109 150.539,164.12 150.564,164.13 150.589,164.141 150.614,164.151 150.614,164.151 150.64,164.161 150.666,164.171 150.692,164.181 150.718,164.191 150.744,164.201 150.77,164.21 150.797,164.219 150.823,164.229 150.823,164.229 150.85,164.238 150.876,164.247 150.904,164.255 150.93,164.264 150.958,164.272 150.985,164.28 151.012,164.289 151.039,164.296 151.039,164.296 151.067,164.304 151.095,164.312 151.123,164.319 151.15,164.327 151.179,164.334 151.207,164.341 151.235,164.348 151.263,164.354 151.263,164.354 151.291,164.361 151.32,164.368 151.349,164.374 151.378,164.38 151.406,164.386 151.435,164.392 151.464,164.397 151.493,164.403 151.493,164.403 151.523,164.408 151.552,164.413 151.582,164.418 151.611,164.423 151.641,164.428 151.671,164.433 151.7,164.437 151.73,164.441 151.73,164.441 151.76,164.446 151.791,164.45 151.821,164.454 151.851,164.457 151.881,164.461 151.912,164.464 151.942,164.468 151.973,164.471 151.973,164.471 152.004,164.474 152.035,164.476 152.066,164.479 152.097,164.481 152.128,164.484 152.159,164.486 152.19,164.488 152.221,164.49 152.221,164.49 152.253,164.492 152.286,164.493 152.318,164.495 152.35,164.496 152.382,164.497 152.415,164.498 152.447,164.499 152.479,164.5 152.479,164.5 152.513,164.5 152.546,164.5 152.58,164.501 152.613,164.501 152.647,164.5 152.681,164.5 152.714,164.5 152.748,164.499 152.748,164.499 152.783,164.499 152.817,164.498 152.851,164.497 152.886,164.496 152.92,164.495 152.955,164.493 152.989,164.492 153.023,164.49 153.023,164.49 153.058,164.489 153.092,164.487 153.126,164.485 153.16,164.483 153.195,164.48 153.229,164.478 153.263,164.475 153.297,164.472 153.297,164.472 153.331,164.469 153.364,164.466 153.397,164.463 153.431,164.459 153.464,164.456 153.497,164.452 153.53,164.448 153.564,164.444 153.564,164.444 153.596,164.44 153.629,164.436 153.661,164.432 153.694,164.427 153.726,164.422 153.759,164.418 153.791,164.412 153.824,164.407 153.824,164.407 153.855,164.402 153.887,164.397 153.919,164.391 153.951,164.385 153.982,164.38 154.014,164.374 154.046,164.367 154.077,164.361 154.077,164.361 154.108,164.355 154.139,164.348 154.17,164.341 154.201,164.334 154.232,164.327 154.263,164.32 154.293,164.313 154.324,164.305 154.324,164.305 154.355,164.298 154.385,164.29 154.415,164.282 154.445,164.274 154.475,164.266 154.506,164.257 154.536,164.249 154.566,164.24 154.566,164.24 154.595,164.232 154.625,164.223 154.654,164.214 154.684,164.204 154.713,164.195 154.743,164.185 154.772,164.176 154.801,164.166 154.801,164.166 154.83,164.156 154.859,164.146 154.888,164.136 154.917,164.125 154.946,164.115 154.975,164.104 155.003,164.093 155.032,164.082 155.032,164.082 155.06,164.071 155.088,164.059 155.117,164.048 155.145,164.036 155.173,164.024 155.201,164.013 155.229,164.001 155.257,163.988 155.257,163.988 155.285,163.976 155.313,163.964 155.34,163.951 155.368,163.938 155.396,163.925 155.423,163.912 155.45,163.899 155.478,163.886 155.478,163.886 155.505,163.872 155.532,163.858 155.559,163.845 155.586,163.831 155.613,163.816 155.64,163.802 155.667,163.788 155.694,163.773 155.694,163.773 155.721,163.758 155.747,163.744 155.774,163.729 155.801,163.713 155.827,163.698 155.853,163.683 155.88,163.667 155.906,163.651 155.906,163.651 155.932,163.635 155.958,163.619 155.985,163.603 156.011,163.587 156.037,163.57 156.063,163.553 156.088,163.537 156.114,163.52 156.114,163.52 156.14,163.503 156.166,163.485 156.191,163.468 156.217,163.45 156.243,163.433 156.268,163.415 156.293,163.397 156.319,163.379 156.319,163.379 156.344,163.36 156.369,163.342 156.395,163.323 156.42,163.304 156.445,163.285 156.47,163.266 156.495,163.247 156.52,163.228 156.52,163.228 156.545,163.209 156.57,163.189 156.595,163.169 156.62,163.149 156.644,163.129 156.669,163.109 156.694,163.088 156.718,163.068 156.718,163.068 156.743,163.047 156.767,163.026 156.792,163.005 156.816,162.984 156.841,162.962 156.865,162.941 156.89,162.92 156.914,162.898 156.914,162.898 156.938,162.876 156.962,162.854 156.987,162.831 157.011,162.809 157.035,162.786 157.059,162.764 157.083,162.741 157.107,162.718 157.107,162.718 157.131,162.695 157.155,162.672 157.179,162.648 157.203,162.624 157.227,162.601 157.25,162.577 157.274,162.553 157.298,162.529 157.298,162.529 157.322,162.504 157.345,162.48 157.369,162.455 157.393,162.43 157.417,162.405 157.44,162.38 157.463,162.355 157.487,162.33 157.487,162.33 157.511,162.304 157.534,162.278 157.558,162.252 157.581,162.226 157.605,162.2 157.628,162.174 157.651,162.148 157.674,162.121 157.674,162.121 157.698,162.094 157.721,162.067 157.745,162.04 157.768,162.012 157.791,161.985 157.815,161.958 157.838,161.93 157.861,161.903 157.861,161.903 157.884,161.874 157.908,161.846 157.931,161.817 157.954,161.789 157.977,161.76 158.0,161.732 158.023,161.703 158.046,161.674 158.046,161.674 158.069,161.645 158.093,161.615 158.116,161.585 158.139,161.555 158.162,161.526 158.185,161.496 158.208,161.466 158.231,161.436 158.231,161.436 158.254,161.405 158.277,161.374 158.3,161.343 158.324,161.312 158.347,161.281 158.369,161.25 158.392,161.219 158.415,161.188 158.415,161.188 158.438,161.156 158.462,161.124 158.485,161.092 158.508,161.059 158.531,161.027 158.554,160.995 158.577,160.962 158.599,160.93 158.599,160.93 158.623,160.897 158.646,160.863 158.669,160.83 158.692,160.797 158.715,160.763 158.738,160.729 158.761,160.696 158.784,160.662 158.784,160.662 158.807,160.628 158.831,160.593 158.854,160.558 158.877,160.524 158.9,160.489 158.923,160.454 158.946,160.419 158.969,160.384 158.969,160.384 158.992,160.349 159.016,160.313 159.039,160.277 159.062,160.241 159.085,160.205 159.108,160.169 159.132,160.133 159.155,160.097 159.155,160.097 159.178,160.06 159.202,160.023 159.225,159.985 159.249,159.948 159.272,159.911 159.295,159.874 159.318,159.837 159.341,159.799 159.341,159.799 159.365,159.761 159.389,159.722 159.412,159.684 159.436,159.646 159.459,159.607 159.483,159.569 159.506,159.53 159.53,159.492 159.53,159.492 159.554,159.452 159.577,159.412 159.601,159.373 159.625,159.333 159.649,159.293 159.672,159.253 159.696,159.214 159.72,159.174 159.72,159.174 159.744,159.133 159.768,159.092 159.792,159.051 159.816,159.01 159.84,158.969 159.864,158.928 159.888,158.887 159.911,158.846 159.911,158.846 159.961,158.761 160.01,158.676 160.059,158.591 160.107,158.505 160.156,158.42 160.204,158.334 160.252,158.249 160.301,158.163 174.545,132.764 171.193,132.764 157.054,158.006 157.01,158.08 156.966,158.155 156.922,158.229 156.878,158.303 156.834,158.377 156.79,158.451 156.745,158.525 156.701,158.599 156.701,158.599 156.68,158.634 156.659,158.668 156.638,158.703 156.617,158.737 156.596,158.772 156.575,158.806 156.554,158.841 156.532,158.875 156.532,158.875 156.512,158.908 156.492,158.941 156.471,158.973 156.451,159.006 156.431,159.039 156.41,159.072 156.39,159.104 156.369,159.137 156.369,159.137 156.35,159.168 156.33,159.199 156.31,159.23 156.291,159.261 156.271,159.291 156.251,159.322 156.231,159.353 156.211,159.384 156.211,159.384 156.193,159.413 156.173,159.443 156.154,159.472 156.135,159.501 156.116,159.53 156.097,159.559 156.078,159.588 156.058,159.617 156.058,159.617 156.04,159.645 156.021,159.672 156.003,159.7 155.984,159.727 155.966,159.755 155.947,159.782 155.928,159.809 155.909,159.837 155.909,159.837 155.892,159.863 155.874,159.888 155.856,159.914 155.838,159.94 155.82,159.966 155.801,159.992 155.783,160.017 155.765,160.043 155.765,160.043 155.747,160.067 155.73,160.092 155.712,160.116 155.695,160.14 155.677,160.164 155.659,160.188 155.642,160.212 155.624,160.236 155.624,160.236 155.607,160.259 155.59,160.281 155.573,160.304 155.555,160.327 155.538,160.349 155.521,160.372 155.504,160.394 155.486,160.417 155.486,160.417 155.469,160.438 155.453,160.459 155.436,160.48 155.419,160.501 155.402,160.522 155.385,160.543 155.368,160.564 155.351,160.585 155.351,160.585 155.335,160.605 155.318,160.624 155.302,160.644 155.285,160.663 155.269,160.683 155.252,160.702 155.235,160.722 155.219,160.741 155.219,160.741 155.202,160.759 155.186,160.778 155.17,160.796 155.154,160.814 155.137,160.832 155.121,160.85 155.105,160.868 155.088,160.886 155.088,160.886 155.072,160.903 155.056,160.919 155.04,160.936 155.024,160.953 155.008,160.969 154.992,160.986 154.976,161.002 154.959,161.019 154.959,161.019 154.944,161.034 154.928,161.05 154.912,161.065 154.896,161.081 154.88,161.096 154.864,161.111 154.848,161.126 154.832,161.141 154.832,161.141 154.816,161.155 154.801,161.17 154.785,161.184 154.769,161.197 154.753,161.211 154.738,161.225 154.721,161.239 154.705,161.253 154.705,161.253 154.69,161.266 154.674,161.279 154.659,161.291 154.643,161.304 154.627,161.317 154.611,161.329 154.595,161.342 154.579,161.354 154.579,161.354 154.564,161.366 154.548,161.377 154.533,161.389 154.517,161.4 154.501,161.411 154.485,161.423 154.47,161.434 154.453,161.445 154.453,161.445 154.438,161.455 154.422,161.466 154.407,161.476 154.391,161.487 154.375,161.497 154.359,161.507 154.344,161.517 154.327,161.526 154.327,161.526 154.312,161.536 154.296,161.545 154.28,161.554 154.264,161.564 154.249,161.572 154.233,161.581 154.217,161.59 154.201,161.599 154.201,161.599 154.185,161.607 154.169,161.615 154.153,161.623 154.137,161.631 154.121,161.639 154.105,161.647 154.089,161.654 154.073,161.662 154.073,161.662 154.057,161.669 154.041,161.676 154.025,161.683 154.009,161.69 153.992,161.697 153.976,161.703 153.96,161.71 153.943,161.716 153.943,161.716 153.927,161.722 153.911,161.729 153.895,161.734 153.878,161.74 153.862,161.746 153.845,161.751 153.829,161.757 153.813,161.762 153.813,161.762 153.796,161.768 153.779,161.772 153.763,161.778 153.746,161.782 153.73,161.787 153.713,161.791 153.696,161.796 153.679,161.8 153.679,161.8 153.662,161.805 153.646,161.809 153.629,161.813 153.612,161.817 153.595,161.82 153.578,161.824 153.561,161.827 153.543,161.831 153.543,161.831 153.526,161.834 153.509,161.837 153.492,161.84 153.475,161.843 153.457,161.846 153.44,161.849 153.422,161.851 153.405,161.854 153.405,161.854 153.387,161.856 153.369,161.858 153.352,161.861 153.334,161.863 153.316,161.864 153.298,161.866 153.281,161.868 153.263,161.87 153.263,161.87 153.245,161.871 153.227,161.873 153.208,161.874 153.19,161.875 153.172,161.876 153.154,161.877 153.136,161.878 153.117,161.879 153.117,161.879 153.101,161.88 153.084,161.88 153.067,161.881 153.05,161.881 153.034,161.882 153.017,161.882 153.0,161.882 152.983,161.882 152.983,161.882 152.969,161.882 152.953,161.882 152.938,161.882 152.923,161.881 152.909,161.881 152.893,161.88 152.879,161.88 152.864,161.879 152.864,161.879 152.851,161.878 152.838,161.878 152.825,161.877 152.812,161.875 152.799,161.874 152.786,161.873 152.773,161.872 152.761,161.87 152.761,161.87 152.748,161.869 152.736,161.867 152.723,161.866 152.711,161.864 152.698,161.862 152.686,161.86 152.673,161.858 152.661,161.856 152.661,161.856 152.649,161.853 152.637,161.851 152.625,161.849 152.613,161.846 152.601,161.844 152.589,161.841 152.577,161.838 152.566,161.835 152.566,161.835 152.554,161.832 152.543,161.829 152.531,161.826 152.52,161.823 152.508,161.82 152.497,161.816 152.486,161.813 152.475,161.809 152.475,161.809 152.464,161.805 152.453,161.802 152.442,161.798 152.431,161.794 152.42,161.79 152.41,161.786 152.399,161.781 152.388,161.777 152.388,161.777 152.378,161.773 152.367,161.768 152.357,161.764 152.347,161.759 152.336,161.754 152.326,161.75 152.316,161.745 152.306,161.739 152.306,161.739 152.296,161.734 152.286,161.729 152.277,161.724 152.267,161.719 152.257,161.713 152.248,161.708 152.238,161.702 152.229,161.697 152.229,161.697 152.22,161.691 152.21,161.685 152.201,161.679 152.192,161.673 152.183,161.667 152.174,161.661 152.166,161.654 152.157,161.648 152.157,161.648 152.148,161.641 152.14,161.635 152.131,161.628 152.123,161.622 152.115,161.615 152.106,161.608 152.098,161.601 152.09,161.594 152.09,161.594 152.082,161.587 152.074,161.58 152.066,161.572 152.059,161.565 152.051,161.557 152.044,161.55 152.036,161.542 152.029,161.535 152.029,161.535 152.022,161.527 152.015,161.519 152.007,161.511 152.001,161.503 151.994,161.495 151.987,161.487 151.98,161.478 151.974,161.47 151.974,161.47 151.967,161.462 151.961,161.453 151.954,161.444 151.948,161.435 151.942,161.427 151.936,161.418 151.93,161.409 151.924,161.4 151.924,161.4 151.919,161.391 151.913,161.382 151.907,161.372 151.902,161.363 151.897,161.354 151.892,161.344 151.886,161.334 151.881,161.325 151.881,161.325 151.876,161.315 151.872,161.305 151.867,161.295 151.862,161.285 151.858,161.275 151.853,161.265 151.849,161.255 151.845,161.245 151.845,161.245 151.841,161.234 151.836,161.224 151.833,161.213 151.829,161.203 151.825,161.192 151.822,161.181 151.818,161.17 151.815,161.16 151.815,161.16 151.812,161.149 151.808,161.137 151.805,161.126 151.802,161.115 151.799,161.104 151.797,161.092 151.794,161.081 151.792,161.07 151.792,161.07 151.789,161.058 151.787,161.046 151.785,161.034 151.783,161.022 151.781,161.01 151.779,160.998 151.777,160.987 151.776,160.975 151.776,160.975 151.774,160.962 151.773,160.95 151.772,160.937 151.771,160.925 151.77,160.912 151.769,160.9 151.768,160.887 151.767,160.875 151.767,160.875 151.767,160.862 151.766,160.849 151.766,160.836 151.766,160.822 151.766,160.809 151.766,160.796 151.766,160.783 151.766,160.77 151.766,160.77 151.767,160.757 151.767,160.743 151.768,160.729 151.769,160.716 151.77,160.702 151.771,160.688 151.772,160.675 151.773,160.661 151.773,160.661 151.774,160.647 151.776,160.632 151.778,160.618 151.779,160.604 151.781,160.59 151.783,160.576 151.785,160.561 151.788,160.547 151.788,160.547 151.79,160.532 151.793,160.517 151.795,160.503 151.798,160.488 151.801,160.473 151.804,160.458 151.807,160.444 151.81,160.429 151.81,160.429 151.814,160.414 151.818,160.398 151.822,160.383 151.825,160.367 151.829,160.352 151.833,160.336 151.837,160.321 151.842,160.306 151.842,160.306 151.846,160.29 151.851,160.274 151.856,160.258 151.861,160.242 151.866,160.226 151.871,160.21 151.876,160.195 151.882,160.179 151.882,160.179 151.887,160.162 151.893,160.146 151.899,160.129 151.905,160.113 151.911,160.096 151.918,160.08 151.924,160.063 151.93,160.047 151.93,160.047 151.937,160.03 151.944,160.013 151.951,159.996 151.958,159.979 151.966,159.962 151.973,159.945 151.981,159.928 151.988,159.911 151.988,159.911 152.005,159.875 152.022,159.839 152.039,159.804 152.056,159.769 152.074,159.733 152.093,159.699 152.111,159.664" fill="none" stroke="black" stroke-width="0.1"/>
        <polygon id="_132136424" points="188.373,132.764 179.05,132.764 177.583,135.381 182.664,135.381 160.825,164.187 170.565,164.187 172.032,161.567 166.429,161.567" fill="none" stroke="black" stroke-width="0.1"/>
        <polygon id="_132150832" points="201.518,132.764 192.195,132.764 190.728,135.381 195.809,135.381 173.971,164.187 183.711,164.187 185.176,161.567 179.573,161.567" fill="none" stroke="black" stroke-width="0.1"/>
        <polygon id="_132204424" points="209.425,132.764 206.127,132.764 188.476,164.187 196.28,164.187 197.745,161.567 193.242,161.567" fill="none" stroke="black" stroke-width="0.1"/>
        <polygon id="_132141592" points="214.61,153.03 216.026,150.465 212.987,150.465 219.585,135.381 224.509,135.381 225.974,132.764 217.595,132.764 209.74,150.465 207.855,150.465 200.156,164.187 208.326,164.187 209.791,161.567 204.975,161.567 209.791,153.03" fill="none" stroke="black" stroke-width="0.1"/>
        <polygon id="_131954472___1_1" points="106.986,154.078 108.4,154.078 105.886,164.186 109.029,164.186 111.438,153.921 111.511,153.906 111.584,153.89 111.657,153.873 111.73,153.855 111.803,153.837 111.875,153.817 111.947,153.797 112.019,153.775 112.019,153.775 112.054,153.764 112.09,153.753 112.125,153.741 112.16,153.73 112.195,153.718 112.23,153.706 112.265,153.693 112.3,153.681 112.574,153.572 112.608,153.557 112.641,153.542 112.675,153.527 112.709,153.511 112.742,153.495 112.775,153.48 112.809,153.463 112.842,153.447 112.842,153.447 112.875,153.43 112.908,153.413 112.941,153.396 112.974,153.378 113.007,153.361 113.04,153.343 113.072,153.324 113.105,153.306 113.105,153.306 113.138,153.287 113.17,153.268 113.203,153.248 113.235,153.229 113.268,153.209 113.299,153.189 113.332,153.168 113.363,153.148 113.363,153.148 113.396,153.127 113.428,153.105 113.46,153.084 113.492,153.062 113.524,153.04 113.555,153.018 113.587,152.995 113.618,152.972 113.618,152.972 113.65,152.949 113.682,152.925 113.714,152.901 113.745,152.877 113.776,152.853 113.808,152.828 113.839,152.803 113.869,152.778 113.869,152.778 113.901,152.753 113.933,152.726 113.964,152.7 113.995,152.673 114.026,152.647 114.057,152.62 114.088,152.593 114.119,152.565 114.119,152.565 114.15,152.537 114.181,152.509 114.212,152.48 114.244,152.451 114.274,152.422 114.305,152.392 114.335,152.363 114.366,152.333 114.366,152.333 114.397,152.302 114.428,152.271 114.459,152.239 114.49,152.208 114.521,152.176 114.551,152.144 114.582,152.113 114.612,152.08 114.612,152.08 114.643,152.047 114.674,152.013 114.705,151.979 114.736,151.945 114.767,151.91 114.797,151.876 114.827,151.841 114.857,151.807 114.857,151.807 114.889,151.77 114.92,151.734 114.951,151.697 114.982,151.66 115.012,151.623 115.043,151.586 115.073,151.549 115.103,151.511 115.103,151.511 115.135,151.472 115.166,151.433 115.197,151.393 115.228,151.353 115.259,151.314 115.289,151.274 115.32,151.234 115.35,151.194 115.35,151.194 115.382,151.151 115.413,151.109 115.444,151.067 115.475,151.024 115.506,150.981 115.537,150.939 115.568,150.896 115.598,150.853 115.598,150.853 115.63,150.808 115.662,150.762 115.694,150.717 115.725,150.671 115.756,150.626 115.787,150.58 115.818,150.534 115.849,150.489 115.849,150.489 115.881,150.44 115.913,150.392 115.945,150.343 115.977,150.295 116.009,150.246 116.04,150.197 116.072,150.149 116.103,150.1 116.103,150.1 116.136,150.048 116.168,149.997 116.2,149.945 116.232,149.894 116.265,149.842 116.297,149.79 116.328,149.738 116.36,149.686 116.36,149.686 116.427,149.575 116.494,149.464 116.56,149.352 116.626,149.24 116.691,149.127 116.756,149.015 116.82,148.902 116.884,148.789 123.326,137.266 120.969,132.764 115.575,132.764 97.9254,164.186 101.277,164.186 108.452,151.46 117.461,135.382 118.927,135.382 119.922,137.319 113.794,148.265 113.744,148.353 113.693,148.442 113.642,148.53 113.59,148.618 113.538,148.705 113.485,148.792 113.431,148.879 113.377,148.966 113.377,148.966 113.352,149.006 113.327,149.045 113.302,149.085 113.276,149.124 113.25,149.164 113.224,149.203 113.198,149.242 113.172,149.282 113.172,149.282 113.147,149.318 113.122,149.355 113.097,149.392 113.072,149.428 113.047,149.464 113.021,149.501 112.995,149.537 112.969,149.573 112.969,149.573 112.945,149.607 112.92,149.64 112.895,149.674 112.87,149.707 112.844,149.741 112.819,149.774 112.793,149.807 112.767,149.84 112.767,149.84 112.743,149.871 112.718,149.902 112.693,149.932 112.668,149.963 112.643,149.993 112.617,150.023 112.591,150.054 112.566,150.084 112.566,150.084 112.541,150.112 112.516,150.14 112.491,150.168 112.466,150.196 112.44,150.223 112.415,150.25 112.389,150.278 112.363,150.305 112.363,150.305 112.338,150.33 112.313,150.356 112.287,150.381 112.262,150.406 112.236,150.431 112.211,150.455 112.185,150.48 112.158,150.504 112.158,150.504 112.133,150.527 112.108,150.55 112.082,150.573 112.056,150.595 112.03,150.617 112.004,150.639 111.977,150.661 111.951,150.682 111.951,150.682 111.925,150.703 111.899,150.723 111.873,150.743 111.846,150.763 111.82,150.783 111.793,150.802 111.767,150.821 111.739,150.84 111.739,150.84 111.713,150.858 111.686,150.876 111.659,150.894 111.632,150.911 111.605,150.929 111.578,150.945 111.551,150.962 111.523,150.978 111.523,150.978 111.496,150.994 111.468,151.01 111.441,151.025 111.413,151.04 111.385,151.055 111.357,151.069 111.329,151.084 111.301,151.098 111.301,151.098 111.272,151.111 111.244,151.124 111.215,151.137 111.187,151.15 111.158,151.162 111.129,151.175 111.1,151.187 111.071,151.198 111.071,151.198 111.042,151.21 111.013,151.221 110.983,151.232 110.953,151.242 110.924,151.252 110.894,151.262 110.864,151.272 110.834,151.281 110.834,151.281 110.804,151.291 110.773,151.3 110.742,151.308 110.712,151.317 110.681,151.325 110.65,151.333 110.619,151.34 110.588,151.348 110.588,151.348 110.556,151.355 110.524,151.362 110.492,151.369 110.46,151.375 110.428,151.381 110.396,151.387 110.364,151.393 110.332,151.398 110.332,151.398 110.299,151.403 110.266,151.408 110.232,151.413 110.199,151.417 110.166,151.422 110.132,151.426 110.099,151.429 110.065,151.433 110.065,151.433 109.995,151.439 109.924,151.445 109.854,151.45 109.783,151.453 109.712,151.456 109.642,151.458 109.571,151.459 109.5,151.46 108.452,151.46" fill="none" stroke="black" stroke-width="0.1"/>
        <polygon id="_132204712___0_2" points="71.9897,164.185 75.3011,164.185 75.391,164.185 75.4809,164.184 75.5708,164.182 75.6607,164.179 75.7506,164.175 75.8404,164.17 75.9301,164.164 76.0199,164.157 76.0199,164.157 76.063,164.153 76.106,164.149 76.1491,164.145 76.1922,164.141 76.2352,164.136 76.2781,164.131 76.3211,164.126 76.3641,164.12 76.3641,164.12 76.4059,164.115 76.4476,164.109 76.4895,164.103 76.5311,164.097 76.5728,164.09 76.6145,164.083 76.6561,164.076 76.6976,164.069 76.6976,164.069 76.7382,164.061 76.7787,164.053 76.8193,164.045 76.8597,164.037 76.9002,164.028 76.9406,164.019 76.9808,164.01 77.0211,164.001 77.0211,164.001 77.0606,163.991 77.1,163.981 77.1393,163.971 77.1786,163.961 77.2178,163.95 77.2569,163.94 77.2961,163.928 77.3351,163.917 77.3351,163.917 77.3736,163.905 77.4119,163.893 77.4501,163.881 77.4883,163.869 77.5265,163.856 77.5645,163.843 77.6024,163.83 77.6403,163.816 77.6403,163.816 77.6778,163.803 77.7152,163.789 77.7524,163.774 77.7897,163.76 77.8268,163.745 77.8637,163.73 77.9004,163.714 77.9372,163.699 77.9372,163.699 77.9738,163.683 78.0102,163.667 78.0467,163.65 78.0828,163.634 78.1189,163.617 78.1549,163.6 78.1908,163.582 78.2265,163.564 78.2265,163.564 78.2621,163.546 78.2976,163.528 78.3331,163.509 78.3686,163.49 78.4037,163.471 78.4388,163.451 78.4738,163.432 78.5085,163.411 78.5085,163.411 78.5435,163.391 78.5783,163.37 78.613,163.35 78.6475,163.328 78.6819,163.307 78.7161,163.285 78.7503,163.263 78.7842,163.241 78.7842,163.241 78.8184,163.218 78.8526,163.195 78.8865,163.172 78.9204,163.148 78.954,163.125 78.9876,163.1 79.0208,163.076 79.0541,163.052 79.0541,163.052 79.0877,163.027 79.1212,163.001 79.1545,162.976 79.1878,162.95 79.2207,162.923 79.2536,162.897 79.2863,162.87 79.3187,162.844 79.3187,162.844 79.3518,162.816 79.3848,162.788 79.4175,162.76 79.4502,162.732 79.4826,162.703 79.5148,162.675 79.5469,162.646 79.5787,162.617 79.5787,162.617 79.6114,162.587 79.6438,162.556 79.676,162.525 79.7081,162.495 79.7401,162.464 79.7718,162.433 79.8034,162.401 79.8348,162.37 79.8348,162.37 79.8669,162.337 79.8989,162.304 79.9307,162.271 79.9624,162.238 79.9939,162.204 80.0252,162.171 80.0563,162.137 80.0873,162.103 80.0873,162.103 80.1191,162.068 80.1508,162.032 80.1823,161.997 80.2136,161.961 80.2448,161.925 80.2757,161.889 80.3066,161.852 80.3371,161.816 80.3371,161.816 80.3688,161.778 80.4001,161.74 80.4313,161.702 80.4624,161.663 80.4932,161.625 80.5239,161.586 80.5545,161.547 80.5847,161.508 80.5847,161.508 80.6161,161.468 80.6474,161.427 80.6785,161.386 80.7093,161.345 80.7399,161.303 80.7704,161.262 80.8008,161.221 80.8311,161.179 80.8311,161.179 80.8622,161.136 80.8934,161.092 80.9243,161.049 80.955,161.005 80.9856,160.961 81.016,160.917 81.0462,160.873 81.0763,160.829 81.0763,160.829 81.1075,160.783 81.1385,160.736 81.1694,160.69 81.1999,160.643 81.2305,160.597 81.2609,160.55 81.2913,160.503 81.3213,160.456 81.3213,160.456 81.3525,160.407 81.3835,160.358 81.4144,160.309 81.4451,160.26 81.4757,160.21 81.5061,160.161 81.5365,160.111 81.5665,160.062 81.5665,160.062 81.6299,159.956 81.6926,159.851 81.7546,159.745 81.8162,159.638 81.8772,159.532 81.9376,159.425 81.9976,159.318 82.0571,159.21 84.2044,155.335 82.8949,152.821 82.9914,152.803 83.0875,152.783 83.1834,152.762 83.2791,152.739 83.3744,152.716 83.4692,152.691 83.5637,152.664 83.6579,152.636 83.6579,152.636 83.7027,152.622 83.7474,152.608 83.7919,152.594 83.8365,152.579 83.8807,152.563 83.925,152.548 83.9692,152.532 84.0131,152.516 84.0131,152.516 84.0558,152.5 84.0982,152.483 84.1406,152.467 84.1829,152.449 84.2251,152.432 84.2671,152.414 84.3089,152.396 84.3506,152.378 84.3506,152.378 84.3912,152.36 84.4318,152.341 84.4722,152.322 84.5123,152.303 84.5524,152.283 84.5923,152.263 84.6321,152.243 84.6716,152.222 84.6716,152.222 84.7104,152.202 84.7491,152.181 84.7874,152.16 84.8258,152.139 84.864,152.117 84.9018,152.095 84.9397,152.073 84.9773,152.05 84.9773,152.05 85.0143,152.027 85.0512,152.004 85.088,151.981 85.1244,151.958 85.1609,151.934 85.197,151.91 85.233,151.886 85.2688,151.861 85.2688,151.861 85.3043,151.836 85.3396,151.811 85.3746,151.786 85.4096,151.76 85.4443,151.734 85.4788,151.708 85.5132,151.682 85.5474,151.655 85.5474,151.655 85.5815,151.628 85.6154,151.601 85.6489,151.574 85.6825,151.546 85.7158,151.518 85.7489,151.49 85.7818,151.462 85.8144,151.434 85.8144,151.434 85.8472,151.405 85.8797,151.375 85.912,151.346 85.9441,151.317 85.9761,151.287 86.0079,151.257 86.0394,151.227 86.0708,151.196 86.0708,151.196 86.1023,151.165 86.1338,151.134 86.165,151.103 86.1958,151.071 86.2267,151.04 86.2573,151.007 86.2878,150.976 86.3181,150.943 86.3181,150.943 86.3486,150.91 86.379,150.877 86.4091,150.844 86.4391,150.81 86.4689,150.777 86.4985,150.743 86.5279,150.709 86.5572,150.675 86.5572,150.675 86.5868,150.64 86.6163,150.605 86.6457,150.57 86.6748,150.535 86.7038,150.499 86.7326,150.464 86.7612,150.428 86.7897,150.392 86.7897,150.392 86.8185,150.356 86.8473,150.319 86.8758,150.281 86.9043,150.245 86.9326,150.207 86.9606,150.17 86.9886,150.132 87.0165,150.095 87.0165,150.095 87.0448,150.056 87.0731,150.018 87.1011,149.979 87.129,149.94 87.1568,149.901 87.1843,149.862 87.2119,149.823 87.2391,149.783 87.2391,149.783 87.2669,149.743 87.2948,149.702 87.3225,149.662 87.3498,149.621 87.3772,149.58 87.4046,149.54 87.4316,149.499 87.4587,149.458 87.4587,149.458 87.4862,149.416 87.5137,149.373 87.5411,149.331 87.5683,149.289 87.5955,149.246 87.6226,149.204 87.6495,149.161 87.6764,149.119 87.6764,149.119 87.7039,149.075 87.7313,149.031 87.7585,148.987 87.7857,148.943 87.8127,148.899 87.8398,148.855 87.8667,148.811 87.8934,148.766 87.8934,148.766 87.9209,148.721 87.9483,148.675 87.9757,148.63 88.0029,148.584 88.0301,148.539 88.0571,148.493 88.0842,148.447 88.1111,148.401 88.1111,148.401 88.1668,148.306 88.2223,148.211 88.2775,148.115 88.3326,148.02 88.3875,147.924 88.4422,147.828 88.4968,147.732 88.5512,147.636 94.2596,137.371 91.8502,132.764 86.2993,132.764 81.2344,141.781 76.4748,150.255 74.9423,152.983 68.6499,164.185 71.9897,164.185 73.468,161.567 78.2863,153.031 79.8574,150.255 88.1843,135.381 89.808,135.381 90.9079,137.476 85.5657,147.06 85.5154,147.149 85.4647,147.237 85.4133,147.325 85.3615,147.413 85.3094,147.501 85.2565,147.588 85.2031,147.675 85.1491,147.761 85.1491,147.761 85.124,147.801 85.0987,147.841 85.0734,147.88 85.0477,147.92 85.022,147.959 84.9962,147.999 84.9701,148.038 84.9438,148.077 84.9438,148.077 84.919,148.114 84.894,148.15 84.869,148.187 84.8437,148.224 84.8183,148.26 84.7927,148.296 84.7667,148.332 84.7408,148.368 84.7408,148.368 84.7161,148.402 84.6915,148.435 84.6665,148.469 84.6413,148.503 84.616,148.536 84.5904,148.569 84.5648,148.602 84.539,148.635 84.539,148.635 84.5144,148.666 84.4897,148.697 84.4647,148.727 84.4396,148.758 84.4143,148.789 84.3888,148.819 84.3632,148.849 84.3372,148.879 84.3372,148.879 84.3126,148.907 84.2876,148.935 84.2626,148.963 84.2373,148.991 84.2119,149.018 84.1862,149.046 84.1605,149.073 84.1345,149.1 84.1345,149.1 84.1095,149.126 84.0846,149.151 84.0593,149.176 84.0338,149.201 84.0082,149.226 83.9822,149.251 83.9563,149.275 83.93,149.299 83.93,149.299 83.9047,149.322 83.8791,149.345 83.8535,149.368 83.8276,149.39 83.8016,149.412 83.7754,149.434 83.749,149.456 83.7224,149.478 83.7224,149.478 83.6966,149.498 83.6707,149.519 83.6446,149.539 83.6182,149.559 83.5916,149.578 83.5648,149.598 83.538,149.617 83.5109,149.636 83.5109,149.636 83.4845,149.654 83.4578,149.672 83.431,149.689 83.4041,149.707 83.3769,149.724 83.3497,149.741 83.3222,149.757 83.2945,149.774 83.2945,149.774 83.2673,149.789 83.2399,149.805 83.2122,149.82 83.1845,149.835 83.1567,149.85 83.1287,149.865 83.1005,149.879 83.0722,149.893 83.0722,149.893 83.044,149.906 83.0155,149.92 82.9871,149.933 82.9584,149.945 82.9298,149.958 82.901,149.97 82.872,149.982 82.8429,149.994 82.8429,149.994 82.8136,150.005 82.7842,150.016 82.7547,150.027 82.725,150.037 82.6954,150.048 82.6655,150.058 82.6356,150.067 82.6056,150.077 82.6056,150.077 82.5751,150.086 82.5445,150.095 82.514,150.104 82.4833,150.112 82.4524,150.12 82.4215,150.128 82.3907,150.136 82.3596,150.143 82.3596,150.143 82.3278,150.15 82.296,150.157 82.2642,150.164 82.2322,150.17 82.2,150.176 82.168,150.182 82.1359,150.188 82.1038,150.193 82.1038,150.193 82.0705,150.199 82.0372,150.204 82.004,150.208 81.9706,150.213 81.9373,150.217 81.9039,150.221 81.8703,150.225 81.8369,150.228 81.8369,150.228 81.7664,150.235 81.6959,150.24 81.6253,150.245 81.5546,150.249 81.4838,150.251 81.4131,150.253 81.3423,150.255 81.2715,150.255 79.8574,150.255 78.2863,153.031 79.5954,153.031 80.8524,155.439 79.2295,158.372 79.1808,158.459 79.1314,158.546 79.0816,158.633 79.0313,158.719 78.9804,158.805 78.9289,158.89 78.8767,158.976 78.8238,159.06 78.8238,159.06 78.799,159.1 78.774,159.139 78.7489,159.178 78.7236,159.217 78.6983,159.256 78.6727,159.295 78.6469,159.333 78.621,159.372 78.621,159.372 78.5963,159.408 78.5713,159.445 78.5463,159.481 78.521,159.517 78.4957,159.553 78.4701,159.589 78.4445,159.624 78.4185,159.66 78.4185,159.66 78.3937,159.694 78.3687,159.727 78.3438,159.76 78.3183,159.794 78.2928,159.827 78.2672,159.86 78.2416,159.893 78.2155,159.925 78.2155,159.925 78.1905,159.956 78.1655,159.987 78.1402,160.017 78.1148,160.048 78.0892,160.078 78.0634,160.108 78.0373,160.138 78.0112,160.168 78.0112,160.168 77.986,160.196 77.9606,160.224 77.9351,160.252 77.9093,160.28 77.8834,160.308 77.8573,160.335 77.831,160.362 77.8046,160.389 77.8046,160.389 77.779,160.415 77.7534,160.44 77.7275,160.466 77.7014,160.491 77.6751,160.516 77.6487,160.541 77.6221,160.565 77.5952,160.59 77.5952,160.59 77.5691,160.613 77.543,160.636 77.5166,160.659 77.49,160.681 77.4633,160.704 77.4364,160.726 77.4094,160.748 77.3822,160.769 77.3822,160.769 77.3556,160.79 77.3287,160.811 77.3018,160.831 77.2746,160.851 77.2474,160.871 77.2198,160.891 77.1923,160.91 77.1645,160.929 77.1645,160.929 77.1371,160.948 77.1097,160.966 77.082,160.984 77.0542,161.001 77.0263,161.019 76.9982,161.036 76.97,161.053 76.9415,161.07 76.9415,161.07 76.9134,161.086 76.8852,161.101 76.8567,161.117 76.8282,161.132 76.7996,161.148 76.7706,161.162 76.7418,161.177 76.7127,161.191 76.7127,161.191 76.6836,161.205 76.6545,161.219 76.6252,161.232 76.5958,161.245 76.5662,161.258 76.5366,161.271 76.5068,161.283 76.4769,161.295 76.4769,161.295 76.4468,161.307 76.4167,161.318 76.3865,161.329 76.3561,161.34 76.3257,161.351 76.2952,161.361 76.2645,161.371 76.2337,161.381 76.2337,161.381 76.2026,161.39 76.1714,161.399 76.14,161.409 76.1085,161.417 76.077,161.426 76.0455,161.434 76.0138,161.442 75.9822,161.45 75.9822,161.45 75.9499,161.457 75.9174,161.464 75.8849,161.471 75.8525,161.478 75.8199,161.484 75.7871,161.49 75.7545,161.496 75.7217,161.502 75.7217,161.502 75.6879,161.507 75.6542,161.513 75.6205,161.518 75.5867,161.522 75.5528,161.527 75.5191,161.531 75.4852,161.535 75.4513,161.539 75.4513,161.539 75.3803,161.546 75.3094,161.551 75.2382,161.556 75.1671,161.56 75.096,161.563 75.0247,161.565 74.9534,161.566 74.8823,161.567 73.468,161.567" fill="none" stroke="black" stroke-width="0.1"/>
    </g>
</svg>
