<!DOCTYPE svg PUBLIC "-//W3C//DTD SVG 1.1//EN" "http://www.w3.org/Graphics/SVG/1.1/DTD/svg11.dtd">
<svg xmlns="http://www.w3.org/2000/svg" width="297mm" height="210mm" viewBox="0 0 297 210">
    <defs id="_tag_22_"/>
    <g id="trashNode_001"/>
    <g id="_tag_23_">
        <polygon id="_132204712___0" points="113.044,158.357 115.125,158.357 115.182,158.357 115.238,158.356 115.295,158.355 115.351,158.353 115.408,158.351 115.464,158.347 115.521,158.344 115.577,158.339 115.577,158.339 115.604,158.337 115.631,158.335 115.658,158.332 115.685,158.329 115.712,158.326 115.739,158.323 115.766,158.32 115.793,158.316 115.793,158.316 115.82,158.313 115.846,158.309 115.872,158.305 115.898,158.301 115.925,158.297 115.951,158.293 115.977,158.288 116.003,158.284 116.003,158.284 116.029,158.279 116.054,158.274 116.08,158.269 116.105,158.264 116.13,158.258 116.156,158.253 116.181,158.247 116.206,158.241 116.206,158.241 116.231,158.235 116.256,158.229 116.281,158.223 116.305,158.216 116.33,158.209 116.354,158.203 116.379,158.196 116.404,158.188 116.404,158.188 116.428,158.181 116.452,158.174 116.476,158.166 116.5,158.158 116.524,158.15 116.548,158.142 116.572,158.134 116.595,158.125 116.595,158.125 116.619,158.117 116.642,158.108 116.666,158.099 116.689,158.09 116.713,158.08 116.736,158.071 116.759,158.061 116.782,158.051 116.782,158.051 116.805,158.041 116.828,158.031 116.851,158.021 116.873,158.011 116.896,158.0 116.919,157.989 116.941,157.978 116.964,157.967 116.964,157.967 116.986,157.955 117.008,157.944 117.031,157.932 117.053,157.92 117.075,157.908 117.097,157.896 117.119,157.884 117.141,157.871 117.141,157.871 117.163,157.858 117.185,157.845 117.207,157.832 117.228,157.819 117.25,157.805 117.271,157.791 117.293,157.778 117.314,157.764 117.314,157.764 117.336,157.749 117.357,157.735 117.379,157.72 117.4,157.705 117.421,157.69 117.442,157.675 117.463,157.66 117.484,157.645 117.484,157.645 117.505,157.629 117.526,157.613 117.547,157.597 117.568,157.581 117.589,157.564 117.609,157.548 117.63,157.531 117.65,157.514 117.65,157.514 117.671,157.497 117.692,157.479 117.712,157.462 117.733,157.444 117.753,157.426 117.773,157.408 117.793,157.39 117.814,157.371 117.814,157.371 117.834,157.352 117.854,157.333 117.875,157.314 117.895,157.295 117.915,157.275 117.935,157.256 117.955,157.236 117.974,157.216 117.974,157.216 117.995,157.196 118.015,157.175 118.035,157.154 118.055,157.133 118.074,157.112 118.094,157.091 118.114,157.07 118.133,157.049 118.133,157.049 118.153,157.026 118.173,157.004 118.193,156.982 118.213,156.959 118.232,156.937 118.251,156.914 118.271,156.891 118.29,156.868 118.29,156.868 118.31,156.844 118.33,156.821 118.349,156.796 118.369,156.772 118.388,156.748 118.408,156.724 118.427,156.699 118.446,156.675 118.446,156.675 118.465,156.649 118.485,156.624 118.505,156.598 118.524,156.572 118.543,156.546 118.562,156.52 118.582,156.494 118.601,156.468 118.601,156.468 118.62,156.441 118.64,156.414 118.659,156.386 118.678,156.359 118.698,156.331 118.717,156.303 118.736,156.276 118.755,156.248 118.755,156.248 118.774,156.219 118.794,156.19 118.813,156.161 118.832,156.131 118.852,156.102 118.871,156.073 118.89,156.043 118.909,156.014 118.909,156.014 118.928,155.983 118.948,155.952 118.967,155.921 118.986,155.89 119.006,155.859 119.025,155.828 119.044,155.797 119.063,155.766 119.063,155.766 119.102,155.7 119.142,155.633 119.181,155.567 119.22,155.5 119.258,155.433 119.296,155.366 119.334,155.298 119.371,155.231 120.72,152.796 119.897,151.216 119.958,151.204 120.019,151.192 120.079,151.178 120.139,151.164 120.199,151.149 120.258,151.134 120.318,151.117 120.377,151.099 120.377,151.099 120.405,151.091 120.433,151.082 120.461,151.073 120.489,151.063 120.517,151.054 120.545,151.044 120.573,151.034 120.6,151.024 120.6,151.024 120.627,151.014 120.654,151.003 120.68,150.993 120.707,150.982 120.733,150.971 120.76,150.96 120.786,150.949 120.812,150.937 120.812,150.937 120.838,150.926 120.863,150.914 120.889,150.902 120.914,150.89 120.939,150.878 120.964,150.865 120.989,150.852 121.014,150.839 121.014,150.839 121.038,150.827 121.063,150.814 121.087,150.8 121.111,150.787 121.135,150.773 121.159,150.759 121.182,150.745 121.206,150.731 121.206,150.731 121.229,150.717 121.253,150.702 121.276,150.688 121.298,150.673 121.321,150.658 121.344,150.643 121.367,150.628 121.389,150.612 121.389,150.612 121.412,150.597 121.434,150.581 121.456,150.565 121.478,150.549 121.5,150.533 121.521,150.516 121.543,150.5 121.564,150.483 121.564,150.483 121.586,150.466 121.607,150.449 121.628,150.432 121.649,150.415 121.67,150.397 121.691,150.38 121.712,150.362 121.732,150.344 121.732,150.344 121.753,150.326 121.773,150.307 121.793,150.289 121.814,150.27 121.834,150.251 121.854,150.233 121.874,150.214 121.893,150.195 121.893,150.195 121.913,150.175 121.933,150.156 121.952,150.136 121.972,150.116 121.991,150.096 122.01,150.076 122.03,150.056 122.049,150.036 122.049,150.036 122.068,150.015 122.087,149.994 122.106,149.973 122.125,149.952 122.143,149.931 122.162,149.91 122.18,149.888 122.199,149.867 122.199,149.867 122.218,149.845 122.236,149.823 122.255,149.801 122.273,149.779 122.291,149.757 122.309,149.734 122.327,149.712 122.345,149.689 122.345,149.689 122.363,149.666 122.381,149.643 122.399,149.62 122.417,149.596 122.435,149.573 122.452,149.55 122.47,149.526 122.488,149.503 122.488,149.503 122.505,149.478 122.523,149.454 122.541,149.43 122.558,149.405 122.576,149.381 122.593,149.356 122.61,149.331 122.627,149.307 122.627,149.307 122.645,149.281 122.662,149.256 122.68,149.23 122.697,149.205 122.714,149.179 122.731,149.154 122.748,149.128 122.765,149.102 122.765,149.102 122.783,149.076 122.8,149.049 122.817,149.023 122.834,148.996 122.851,148.969 122.868,148.943 122.885,148.916 122.902,148.889 122.902,148.889 122.92,148.862 122.937,148.834 122.954,148.806 122.971,148.779 122.988,148.751 123.005,148.723 123.022,148.695 123.039,148.668 123.039,148.668 123.056,148.639 123.073,148.61 123.09,148.582 123.107,148.553 123.125,148.524 123.141,148.496 123.159,148.467 123.175,148.438 123.175,148.438 123.21,148.378 123.245,148.318 123.28,148.258 123.315,148.198 123.349,148.138 123.384,148.078 123.418,148.018 123.452,147.957 127.039,141.507 125.525,138.611 122.037,138.611 118.854,144.278 115.863,149.603 114.9,151.318 110.946,158.357 113.044,158.357 113.973,156.712 117.001,151.348 117.989,149.603 123.221,140.256 124.242,140.256 124.933,141.573 121.576,147.595 121.544,147.651 121.512,147.707 121.48,147.762 121.447,147.817 121.415,147.872 121.382,147.927 121.348,147.982 121.314,148.036 121.314,148.036 121.298,148.061 121.282,148.086 121.266,148.111 121.25,148.136 121.234,148.161 121.218,148.185 121.202,148.21 121.185,148.234 121.185,148.234 121.169,148.257 121.154,148.281 121.138,148.303 121.122,148.327 121.106,148.349 121.09,148.372 121.074,148.395 121.058,148.417 121.058,148.417 121.042,148.439 121.027,148.46 121.011,148.481 120.995,148.502 120.979,148.523 120.963,148.544 120.947,148.564 120.931,148.585 120.931,148.585 120.915,148.605 120.9,148.624 120.884,148.643 120.868,148.662 120.852,148.682 120.836,148.701 120.82,148.72 120.804,148.738 120.804,148.738 120.788,148.756 120.773,148.774 120.757,148.791 120.741,148.809 120.725,148.826 120.709,148.843 120.693,148.86 120.677,148.877 120.677,148.877 120.661,148.893 120.645,148.909 120.629,148.925 120.613,148.941 120.597,148.957 120.581,148.972 120.565,148.987 120.548,149.003 120.548,149.003 120.532,149.017 120.516,149.031 120.5,149.046 120.484,149.06 120.467,149.074 120.451,149.087 120.434,149.101 120.418,149.115 120.418,149.115 120.401,149.128 120.385,149.14 120.369,149.153 120.352,149.165 120.335,149.178 120.319,149.19 120.302,149.202 120.285,149.214 120.285,149.214 120.268,149.225 120.251,149.236 120.234,149.248 120.218,149.259 120.2,149.269 120.183,149.28 120.166,149.29 120.149,149.301 120.149,149.301 120.132,149.31 120.114,149.32 120.097,149.33 120.08,149.339 120.062,149.349 120.044,149.358 120.027,149.367 120.009,149.375 120.009,149.375 119.991,149.384 119.973,149.392 119.955,149.4 119.937,149.409 119.919,149.416 119.901,149.424 119.883,149.432 119.865,149.439 119.865,149.439 119.846,149.446 119.828,149.453 119.809,149.46 119.791,149.466 119.772,149.473 119.753,149.479 119.735,149.485 119.716,149.491 119.716,149.491 119.697,149.497 119.677,149.503 119.658,149.508 119.639,149.513 119.619,149.518 119.6,149.523 119.581,149.528 119.561,149.533 119.561,149.533 119.541,149.537 119.521,149.542 119.501,149.546 119.481,149.55 119.461,149.554 119.441,149.557 119.421,149.561 119.4,149.564 119.4,149.564 119.379,149.568 119.358,149.571 119.338,149.574 119.317,149.577 119.296,149.579 119.275,149.582 119.254,149.584 119.233,149.586 119.233,149.586 119.188,149.59 119.144,149.594 119.1,149.597 119.055,149.599 119.011,149.601 118.966,149.602 118.922,149.603 118.877,149.603 117.989,149.603 117.001,151.348 117.824,151.348 118.614,152.861 117.594,154.704 117.563,154.759 117.532,154.813 117.501,154.868 117.47,154.922 117.438,154.976 117.405,155.03 117.372,155.083 117.339,155.137 117.339,155.137 117.324,155.161 117.308,155.186 117.292,155.211 117.276,155.235 117.26,155.26 117.244,155.284 117.228,155.308 117.212,155.332 117.212,155.332 117.196,155.355 117.18,155.378 117.165,155.401 117.149,155.423 117.133,155.446 117.117,155.469 117.101,155.491 117.084,155.513 117.084,155.513 117.069,155.535 117.053,155.555 117.037,155.577 117.021,155.597 117.005,155.618 116.989,155.639 116.973,155.66 116.957,155.68 116.957,155.68 116.941,155.699 116.925,155.719 116.909,155.738 116.894,155.757 116.877,155.776 116.861,155.795 116.845,155.814 116.828,155.833 116.828,155.833 116.813,155.851 116.797,155.868 116.781,155.886 116.764,155.903 116.748,155.92 116.732,155.938 116.715,155.955 116.699,155.972 116.699,155.972 116.683,155.988 116.666,156.004 116.65,156.02 116.634,156.036 116.617,156.051 116.601,156.067 116.584,156.082 116.567,156.098 116.567,156.098 116.551,156.112 116.534,156.127 116.518,156.141 116.501,156.155 116.484,156.169 116.467,156.183 116.45,156.197 116.433,156.211 116.433,156.211 116.416,156.224 116.399,156.237 116.383,156.249 116.366,156.262 116.348,156.274 116.331,156.287 116.314,156.299 116.296,156.311 116.296,156.311 116.279,156.323 116.262,156.334 116.245,156.345 116.227,156.356 116.21,156.367 116.192,156.378 116.174,156.389 116.156,156.399 116.156,156.399 116.139,156.409 116.121,156.419 116.103,156.429 116.085,156.439 116.067,156.448 116.049,156.458 116.031,156.467 116.012,156.476 116.012,156.476 115.994,156.484 115.976,156.493 115.958,156.501 115.939,156.51 115.92,156.518 115.902,156.525 115.883,156.533 115.864,156.541 115.864,156.541 115.845,156.548 115.827,156.555 115.808,156.562 115.788,156.569 115.769,156.576 115.75,156.582 115.731,156.589 115.712,156.595 115.712,156.595 115.692,156.601 115.672,156.607 115.653,156.612 115.633,156.618 115.613,156.623 115.593,156.628 115.573,156.633 115.553,156.638 115.553,156.638 115.533,156.643 115.513,156.647 115.492,156.652 115.472,156.656 115.451,156.66 115.431,156.664 115.41,156.667 115.39,156.671 115.39,156.671 115.369,156.674 115.347,156.678 115.326,156.681 115.305,156.684 115.284,156.687 115.262,156.689 115.241,156.692 115.22,156.694 115.22,156.694 115.175,156.698 115.131,156.702 115.086,156.705 115.041,156.708 114.997,156.709 114.952,156.711 114.907,156.711 114.862,156.712 113.973,156.712" fill="none" stroke="black" stroke-width="0.1"/>
        <polygon id="_132204712___0_0" points="84.5429,158.357 86.6238,158.357 86.6803,158.357 86.7368,158.356 86.7933,158.355 86.8498,158.353 86.9063,158.351 86.9627,158.347 87.0191,158.344 87.0755,158.339 87.0755,158.339 87.1026,158.337 87.1296,158.335 87.1567,158.332 87.1838,158.329 87.2108,158.326 87.2378,158.323 87.2648,158.32 87.2918,158.316 87.2918,158.316 87.3181,158.313 87.3443,158.309 87.3706,158.305 87.3968,158.301 87.423,158.297 87.4492,158.293 87.4753,158.288 87.5014,158.284 87.5014,158.284 87.5269,158.279 87.5524,158.274 87.5779,158.269 87.6033,158.264 87.6287,158.258 87.6541,158.253 87.6794,158.247 87.7047,158.241 87.7047,158.241 87.7295,158.235 87.7543,158.229 87.779,158.223 87.8037,158.216 87.8283,158.209 87.8529,158.203 87.8775,158.196 87.902,158.188 87.902,158.188 87.9262,158.181 87.9503,158.174 87.9743,158.166 87.9983,158.158 88.0223,158.15 88.0462,158.142 88.07,158.134 88.0938,158.125 88.0938,158.125 88.1174,158.117 88.1409,158.108 88.1643,158.099 88.1877,158.09 88.211,158.08 88.2342,158.071 88.2573,158.061 88.2804,158.051 88.2804,158.051 88.3034,158.041 88.3263,158.031 88.3492,158.021 88.3719,158.011 88.3946,158.0 88.4172,157.989 88.4398,157.978 88.4622,157.967 88.4622,157.967 88.4846,157.955 88.5069,157.944 88.5292,157.932 88.5515,157.92 88.5736,157.908 88.5956,157.896 88.6176,157.884 88.6394,157.871 88.6394,157.871 88.6614,157.858 88.6833,157.845 88.7051,157.832 88.7268,157.819 88.7484,157.805 88.7699,157.791 88.7914,157.778 88.8127,157.764 88.8127,157.764 88.8342,157.749 88.8557,157.735 88.877,157.72 88.8983,157.705 88.9194,157.69 88.9405,157.675 88.9614,157.66 88.9823,157.645 88.9823,157.645 89.0034,157.629 89.0245,157.613 89.0454,157.597 89.0663,157.581 89.087,157.564 89.1077,157.548 89.1282,157.531 89.1486,157.514 89.1486,157.514 89.1694,157.497 89.1901,157.479 89.2107,157.462 89.2312,157.444 89.2516,157.426 89.2718,157.408 89.292,157.39 89.312,157.371 89.312,157.371 89.3325,157.352 89.3529,157.333 89.3731,157.314 89.3933,157.295 89.4134,157.275 89.4333,157.256 89.4532,157.236 89.4729,157.216 89.4729,157.216 89.4931,157.196 89.5132,157.175 89.5332,157.154 89.5531,157.133 89.5729,157.112 89.5926,157.091 89.6121,157.07 89.6316,157.049 89.6316,157.049 89.6516,157.026 89.6715,157.004 89.6913,156.982 89.711,156.959 89.7306,156.937 89.75,156.914 89.7694,156.891 89.7886,156.868 89.7886,156.868 89.8085,156.844 89.8282,156.821 89.8478,156.796 89.8673,156.772 89.8867,156.748 89.906,156.724 89.9252,156.699 89.9442,156.675 89.9442,156.675 89.9639,156.649 89.9836,156.624 90.0031,156.598 90.0225,156.572 90.0417,156.546 90.0609,156.52 90.08,156.494 90.099,156.468 90.099,156.468 90.1186,156.441 90.1382,156.414 90.1576,156.386 90.1769,156.359 90.1961,156.331 90.2152,156.303 90.2342,156.276 90.2531,156.248 90.2531,156.248 90.2727,156.219 90.2922,156.19 90.3116,156.161 90.3308,156.131 90.35,156.102 90.3691,156.073 90.3882,156.043 90.4071,156.014 90.4071,156.014 90.4267,155.983 90.4462,155.952 90.4656,155.921 90.4849,155.89 90.5041,155.859 90.5232,155.828 90.5423,155.797 90.5612,155.766 90.5612,155.766 90.601,155.7 90.6404,155.633 90.6794,155.567 90.7181,155.5 90.7564,155.433 90.7943,155.366 90.832,155.298 90.8694,155.231 92.2188,152.796 91.3959,151.216 91.4565,151.204 91.5169,151.192 91.5772,151.178 91.6373,151.164 91.6972,151.149 91.7568,151.134 91.8162,151.117 91.8754,151.099 91.8754,151.099 91.9035,151.091 91.9316,151.082 91.9596,151.073 91.9876,151.063 92.0154,151.054 92.0432,151.044 92.071,151.034 92.0986,151.024 92.0986,151.024 92.1254,151.014 92.1521,151.003 92.1787,150.993 92.2053,150.982 92.2318,150.971 92.2582,150.96 92.2845,150.949 92.3107,150.937 92.3107,150.937 92.3362,150.926 92.3617,150.914 92.3871,150.902 92.4123,150.89 92.4375,150.878 92.4626,150.865 92.4876,150.852 92.5124,150.839 92.5124,150.839 92.5368,150.827 92.5611,150.814 92.5852,150.8 92.6093,150.787 92.6333,150.773 92.6571,150.759 92.6809,150.745 92.7045,150.731 92.7045,150.731 92.7278,150.717 92.751,150.702 92.7741,150.688 92.797,150.673 92.8199,150.658 92.8426,150.643 92.8652,150.628 92.8877,150.612 92.8877,150.612 92.91,150.597 92.9322,150.581 92.9542,150.565 92.9762,150.549 92.998,150.533 93.0197,150.516 93.0413,150.5 93.0628,150.483 93.0628,150.483 93.0842,150.466 93.1055,150.449 93.1266,150.432 93.1477,150.415 93.1686,150.397 93.1894,150.38 93.2101,150.362 93.2306,150.344 93.2306,150.344 93.2512,150.326 93.2716,150.307 93.2919,150.289 93.3121,150.27 93.3322,150.251 93.3522,150.233 93.372,150.214 93.3917,150.195 93.3917,150.195 93.4115,150.175 93.4313,150.156 93.4509,150.136 93.4703,150.116 93.4897,150.096 93.5089,150.076 93.5281,150.056 93.5471,150.036 93.5471,150.036 93.5663,150.015 93.5854,149.994 93.6043,149.973 93.6232,149.952 93.6419,149.931 93.6605,149.91 93.679,149.888 93.6974,149.867 93.6974,149.867 93.716,149.845 93.7345,149.823 93.753,149.801 93.7713,149.779 93.7895,149.757 93.8076,149.734 93.8256,149.712 93.8435,149.689 93.8435,149.689 93.8616,149.666 93.8797,149.643 93.8976,149.62 93.9155,149.596 93.9333,149.573 93.9509,149.55 93.9685,149.526 93.986,149.503 93.986,149.503 94.0038,149.478 94.0216,149.454 94.0392,149.43 94.0567,149.405 94.0742,149.381 94.0915,149.356 94.1088,149.331 94.1259,149.307 94.1259,149.307 94.1434,149.281 94.1609,149.256 94.1783,149.23 94.1955,149.205 94.2127,149.179 94.2299,149.154 94.2469,149.128 94.2639,149.102 94.2639,149.102 94.2812,149.076 94.2985,149.049 94.3157,149.023 94.3328,148.996 94.3499,148.969 94.3669,148.943 94.3838,148.916 94.4007,148.889 94.4007,148.889 94.418,148.862 94.4352,148.834 94.4523,148.806 94.4694,148.779 94.4864,148.751 94.5034,148.723 94.5203,148.695 94.5371,148.668 94.5371,148.668 94.5544,148.639 94.5716,148.61 94.5888,148.582 94.6059,148.553 94.623,148.524 94.64,148.496 94.657,148.467 94.6739,148.438 94.6739,148.438 94.7089,148.378 94.7438,148.318 94.7785,148.258 94.8131,148.198 94.8476,148.138 94.882,148.078 94.9163,148.018 94.9505,147.957 98.5377,141.507 97.0236,138.611 93.5353,138.611 90.3525,144.278 87.3614,149.603 86.3983,151.318 82.4441,158.357 84.5429,158.357 85.4719,156.712 88.4998,151.348 89.4871,149.603 94.7199,140.256 95.7402,140.256 96.4314,141.573 93.0743,147.595 93.0427,147.651 93.0108,147.707 92.9785,147.762 92.946,147.817 92.9132,147.872 92.88,147.927 92.8464,147.982 92.8125,148.036 92.8125,148.036 92.7967,148.061 92.7808,148.086 92.7649,148.111 92.7488,148.136 92.7326,148.161 92.7164,148.185 92.7,148.21 92.6835,148.234 92.6835,148.234 92.6679,148.257 92.6522,148.281 92.6365,148.303 92.6206,148.327 92.6046,148.349 92.5885,148.372 92.5722,148.395 92.5559,148.417 92.5559,148.417 92.5404,148.439 92.5249,148.46 92.5092,148.481 92.4934,148.502 92.4775,148.523 92.4614,148.544 92.4453,148.564 92.4291,148.585 92.4291,148.585 92.4136,148.605 92.3981,148.624 92.3824,148.643 92.3666,148.662 92.3507,148.682 92.3347,148.701 92.3186,148.72 92.3023,148.738 92.3023,148.738 92.2868,148.756 92.2711,148.774 92.2554,148.791 92.2395,148.809 92.2235,148.826 92.2074,148.843 92.1912,148.86 92.1749,148.877 92.1749,148.877 92.1592,148.893 92.1435,148.909 92.1276,148.925 92.1116,148.941 92.0955,148.957 92.0792,148.972 92.0629,148.987 92.0464,149.003 92.0464,149.003 92.0305,149.017 92.0144,149.031 91.9983,149.046 91.982,149.06 91.9657,149.074 91.9492,149.087 91.9326,149.101 91.9159,149.115 91.9159,149.115 91.8997,149.128 91.8834,149.14 91.867,149.153 91.8504,149.165 91.8337,149.178 91.8169,149.19 91.8,149.202 91.783,149.214 91.783,149.214 91.7664,149.225 91.7496,149.236 91.7328,149.248 91.7159,149.259 91.6988,149.269 91.6817,149.28 91.6644,149.29 91.647,149.301 91.647,149.301 91.6299,149.31 91.6127,149.32 91.5953,149.33 91.5779,149.339 91.5604,149.349 91.5428,149.358 91.5251,149.367 91.5073,149.375 91.5073,149.375 91.4896,149.384 91.4717,149.392 91.4538,149.4 91.4358,149.409 91.4178,149.416 91.3997,149.424 91.3815,149.432 91.3632,149.439 91.3632,149.439 91.3448,149.446 91.3263,149.453 91.3078,149.46 91.2891,149.466 91.2705,149.473 91.2517,149.479 91.2329,149.485 91.2141,149.491 91.2141,149.491 91.1949,149.497 91.1757,149.503 91.1565,149.508 91.1372,149.513 91.1178,149.518 91.0984,149.523 91.079,149.528 91.0595,149.533 91.0595,149.533 91.0395,149.537 91.0195,149.542 90.9995,149.546 90.9794,149.55 90.9592,149.554 90.9391,149.557 90.9189,149.561 90.8987,149.564 90.8987,149.564 90.8778,149.568 90.8569,149.571 90.836,149.574 90.815,149.577 90.7941,149.579 90.7731,149.582 90.7521,149.584 90.7311,149.586 90.7311,149.586 90.6868,149.59 90.6425,149.594 90.5981,149.597 90.5537,149.599 90.5092,149.601 90.4648,149.602 90.4203,149.603 90.3758,149.603 89.4871,149.603 88.4998,151.348 89.3225,151.348 90.1124,152.861 89.0925,154.704 89.0619,154.759 89.0309,154.813 88.9996,154.868 88.968,154.922 88.936,154.976 88.9036,155.03 88.8708,155.083 88.8376,155.137 88.8376,155.137 88.822,155.161 88.8063,155.186 88.7905,155.211 88.7746,155.235 88.7587,155.26 88.7426,155.284 88.7264,155.308 88.7101,155.332 88.7101,155.332 88.6946,155.355 88.6789,155.378 88.6632,155.401 88.6473,155.423 88.6314,155.446 88.6153,155.469 88.5992,155.491 88.5829,155.513 88.5829,155.513 88.5673,155.535 88.5516,155.555 88.5359,155.577 88.5199,155.597 88.5039,155.618 88.4878,155.639 88.4717,155.66 88.4553,155.68 88.4553,155.68 88.4396,155.699 88.4239,155.719 88.408,155.738 88.392,155.757 88.3759,155.776 88.3597,155.795 88.3433,155.814 88.3269,155.833 88.3269,155.833 88.3111,155.851 88.2951,155.868 88.2791,155.886 88.2629,155.903 88.2466,155.92 88.2302,155.938 88.2137,155.955 88.1971,155.972 88.1971,155.972 88.181,155.988 88.1649,156.004 88.1486,156.02 88.1322,156.036 88.1157,156.051 88.0991,156.067 88.0824,156.082 88.0655,156.098 88.0655,156.098 88.0491,156.112 88.0327,156.127 88.0161,156.141 87.9994,156.155 87.9826,156.169 87.9657,156.183 87.9487,156.197 87.9316,156.211 87.9316,156.211 87.9149,156.224 87.898,156.237 87.8811,156.249 87.864,156.262 87.8469,156.274 87.8296,156.287 87.8123,156.299 87.7948,156.311 87.7948,156.311 87.7776,156.323 87.7604,156.334 87.743,156.345 87.7255,156.356 87.708,156.367 87.6903,156.378 87.6726,156.389 87.6547,156.399 87.6547,156.399 87.637,156.409 87.6193,156.419 87.6014,156.429 87.5835,156.439 87.5655,156.448 87.5473,156.458 87.5292,156.467 87.5109,156.476 87.5109,156.476 87.4926,156.484 87.4743,156.493 87.4559,156.501 87.4374,156.51 87.4188,156.518 87.4002,156.525 87.3815,156.533 87.3627,156.541 87.3627,156.541 87.3438,156.548 87.3249,156.555 87.3059,156.562 87.2868,156.569 87.2677,156.576 87.2485,156.582 87.2292,156.589 87.2099,156.595 87.2099,156.595 87.1903,156.601 87.1707,156.607 87.151,156.612 87.1312,156.618 87.1114,156.623 87.0916,156.628 87.0717,156.633 87.0518,156.638 87.0518,156.638 87.0315,156.643 87.0111,156.647 86.9907,156.652 86.9703,156.656 86.9498,156.66 86.9292,156.664 86.9087,156.667 86.8881,156.671 86.8881,156.671 86.8669,156.674 86.8457,156.678 86.8245,156.681 86.8033,156.684 86.782,156.687 86.7608,156.689 86.7395,156.692 86.7182,156.694 86.7182,156.694 86.6736,156.698 86.629,156.702 86.5843,156.705 86.5396,156.708 86.4949,156.709 86.4501,156.711 86.4053,156.711 86.3606,156.712 85.4719,156.712" fill="none" stroke="black" stroke-width="0.1"/>
        <polygon id="center_00" cx="105.774" cy="148.5" points="117.6952,148.5 117.62989441906426,149.74610471630635 117.43469317786784,150.97855684857666 117.11173494205778,152.18385339334262 116.66455810964898,153.34878886943523 116.09806204359505,154.4606 115.41845339334263,155.50710554962905 114.63317809348112,156.47683978452523 113.75083978452523,157.35917809348112 112.78110554962903,158.14445339334262 111.7346,158.82406204359506 110.62278886943523,159.39055810964896 109.45785339334263,159.83773494205778 108.25255684857667,160.16069317786784 107.02010471630635,160.35589441906427 105.774,160.4212 104.52789528369365,160.35589441906427 103.29544315142333,160.16069317786784 102.09014660665738,159.83773494205778 100.92521113056478,159.39055810964896 99.8134,158.82406204359506 98.76689445037097,158.14445339334262 97.79716021547479,157.35917809348112 96.9148219065189,156.47683978452523 96.12954660665739,155.50710554962905 95.44993795640495,154.4606 94.88344189035102,153.34878886943523 94.43626505794222,152.18385339334262 94.11330682213216,150.9785568485767 93.91810558093574,149.74610471630635 93.8528,148.5 93.91810558093574,147.25389528369365 94.11330682213216,146.02144315142334 94.43626505794222,144.81614660665738 94.88344189035102,143.65121113056477 95.44993795640495,142.5394 96.12954660665737,141.49289445037098 96.91482190651888,140.52316021547477 97.79716021547478,139.64082190651888 98.76689445037097,138.85554660665738 99.8134,138.17593795640494 100.92521113056476,137.60944189035104 102.09014660665737,137.16226505794222 103.29544315142333,136.83930682213216 104.52789528369364,136.64410558093573 105.774,136.5788 107.02010471630635,136.64410558093573 108.25255684857666,136.83930682213216 109.45785339334262,137.16226505794222 110.62278886943523,137.60944189035104 111.7346,138.17593795640494 112.78110554962903,138.85554660665738 113.75083978452521,139.64082190651888 114.6331780934811,140.52316021547477 115.41845339334262,141.49289445037095 116.09806204359505,142.5394 116.66455810964897,143.65121113056477 117.11173494205778,144.81614660665738 117.43469317786784,146.0214431514233 117.62989441906426,147.25389528369365" fill="none" stroke="black" stroke-width="0.1"/>
        <polygon id="_131954472___1" points="126.941,152.006 127.83,152.006 126.25,158.358 128.225,158.358 129.739,151.907 129.785,151.897 129.831,151.887 129.877,151.877 129.923,151.866 129.968,151.854 130.014,151.841 130.059,151.829 130.104,151.815 130.104,151.815 130.126,151.808 130.149,151.801 130.171,151.794 130.193,151.787 130.215,151.779 130.237,151.772 130.259,151.764 130.28,151.756 130.453,151.687 130.474,151.678 130.495,151.668 130.516,151.659 130.537,151.649 130.559,151.639 130.58,151.629 130.6,151.619 130.621,151.609 130.621,151.609 130.642,151.598 130.663,151.588 130.684,151.577 130.704,151.566 130.725,151.555 130.746,151.543 130.766,151.532 130.786,151.52 130.786,151.52 130.807,151.508 130.828,151.496 130.848,151.484 130.868,151.472 130.889,151.459 130.909,151.447 130.929,151.434 130.949,151.421 130.949,151.421 130.969,151.408 130.989,151.394 131.01,151.381 131.03,151.367 131.05,151.353 131.07,151.339 131.089,151.325 131.109,151.311 131.109,151.311 131.129,151.296 131.149,151.281 131.169,151.266 131.189,151.251 131.209,151.235 131.228,151.22 131.248,151.204 131.267,151.189 131.267,151.189 131.287,151.172 131.307,151.156 131.327,151.139 131.346,151.123 131.366,151.106 131.385,151.089 131.404,151.072 131.423,151.055 131.423,151.055 131.443,151.037 131.463,151.019 131.482,151.001 131.502,150.983 131.521,150.964 131.541,150.946 131.56,150.928 131.579,150.909 131.579,150.909 131.599,150.889 131.618,150.87 131.638,150.85 131.657,150.83 131.676,150.81 131.695,150.79 131.714,150.77 131.733,150.75 131.733,150.75 131.753,150.729 131.773,150.708 131.792,150.686 131.812,150.665 131.831,150.643 131.85,150.622 131.869,150.6 131.888,150.578 131.888,150.578 131.908,150.555 131.927,150.532 131.947,150.509 131.966,150.486 131.985,150.463 132.004,150.439 132.023,150.416 132.042,150.392 132.042,150.392 132.062,150.368 132.082,150.343 132.101,150.318 132.121,150.293 132.14,150.268 132.159,150.243 132.178,150.218 132.197,150.193 132.197,150.193 132.217,150.166 132.237,150.14 132.257,150.113 132.276,150.086 132.296,150.059 132.315,150.033 132.334,150.006 132.354,149.979 132.354,149.979 132.374,149.95 132.393,149.922 132.413,149.893 132.433,149.865 132.453,149.836 132.472,149.807 132.492,149.779 132.511,149.75 132.511,149.75 132.531,149.719 132.551,149.689 132.571,149.659 132.592,149.628 132.611,149.597 132.631,149.567 132.651,149.536 132.671,149.505 132.671,149.505 132.691,149.473 132.711,149.441 132.732,149.408 132.752,149.376 132.772,149.343 132.792,149.311 132.812,149.278 132.832,149.245 132.832,149.245 132.874,149.176 132.916,149.106 132.958,149.035 132.999,148.965 133.04,148.894 133.081,148.823 133.121,148.752 133.161,148.681 137.209,141.44 135.729,138.611 132.339,138.611 121.247,158.358 123.354,158.358 127.863,150.36 133.524,140.256 134.445,140.256 135.071,141.473 131.22,148.352 131.188,148.408 131.156,148.463 131.124,148.519 131.091,148.574 131.058,148.629 131.025,148.684 130.992,148.738 130.958,148.793 130.958,148.793 130.942,148.818 130.926,148.843 130.91,148.868 130.894,148.892 130.878,148.917 130.862,148.942 130.845,148.967 130.829,148.991 130.829,148.991 130.813,149.014 130.797,149.037 130.782,149.06 130.766,149.083 130.75,149.106 130.734,149.129 130.718,149.152 130.701,149.174 130.701,149.174 130.686,149.195 130.67,149.217 130.654,149.238 130.639,149.259 130.623,149.28 130.607,149.301 130.591,149.321 130.574,149.342 130.574,149.342 130.559,149.361 130.543,149.381 130.528,149.4 130.512,149.419 130.496,149.438 130.48,149.457 130.464,149.476 130.447,149.495 130.447,149.495 130.432,149.513 130.416,149.531 130.401,149.548 130.385,149.565 130.369,149.583 130.353,149.6 130.337,149.617 130.32,149.634 130.32,149.634 130.304,149.65 130.289,149.666 130.273,149.682 130.257,149.698 130.241,149.713 130.225,149.729 130.208,149.744 130.192,149.759 130.192,149.759 130.176,149.774 130.16,149.788 130.144,149.803 130.127,149.817 130.111,149.831 130.095,149.844 130.078,149.858 130.061,149.872 130.061,149.872 130.045,149.884 130.029,149.897 130.012,149.91 129.996,149.922 129.979,149.935 129.962,149.947 129.945,149.959 129.928,149.971 129.928,149.971 129.912,149.982 129.895,149.993 129.878,150.004 129.861,150.015 129.844,150.026 129.827,150.037 129.81,150.047 129.792,150.058 129.792,150.058 129.775,150.067 129.758,150.077 129.741,150.087 129.723,150.096 129.706,150.106 129.688,150.115 129.67,150.124 129.653,150.132 129.653,150.132 129.635,150.141 129.617,150.149 129.599,150.157 129.581,150.165 129.563,150.173 129.545,150.181 129.527,150.188 129.509,150.196 129.509,150.196 129.49,150.203 129.472,150.21 129.453,150.217 129.434,150.223 129.416,150.23 129.397,150.236 129.378,150.242 129.359,150.248 129.359,150.248 129.34,150.254 129.321,150.259 129.302,150.265 129.283,150.27 129.263,150.275 129.244,150.28 129.224,150.285 129.205,150.29 129.205,150.29 129.185,150.294 129.165,150.298 129.145,150.303 129.125,150.307 129.105,150.311 129.084,150.314 129.064,150.318 129.044,150.321 129.044,150.321 129.023,150.325 129.002,150.328 128.981,150.331 128.96,150.333 128.939,150.336 128.918,150.339 128.897,150.341 128.876,150.343 128.876,150.343 128.832,150.347 128.788,150.351 128.743,150.354 128.699,150.356 128.654,150.358 128.61,150.359 128.565,150.36 128.521,150.36 127.863,150.36" fill="none" stroke="black" stroke-width="0.1"/>
        <polygon id="_131954472___1_1" points="178.976,152.006 179.865,152.006 178.285,158.358 180.26,158.358 181.773,151.907 181.82,151.897 181.866,151.887 181.911,151.877 181.957,151.866 182.003,151.854 182.048,151.841 182.094,151.829 182.139,151.815 182.139,151.815 182.161,151.808 182.183,151.801 182.205,151.794 182.227,151.787 182.249,151.779 182.271,151.772 182.293,151.764 182.315,151.756 182.487,151.687 182.509,151.678 182.53,151.668 182.551,151.659 182.572,151.649 182.593,151.639 182.614,151.629 182.635,151.619 182.656,151.609 182.656,151.609 182.677,151.598 182.698,151.588 182.718,151.577 182.739,151.566 182.76,151.555 182.78,151.543 182.801,151.532 182.821,151.52 182.821,151.52 182.842,151.508 182.862,151.496 182.883,151.484 182.903,151.472 182.923,151.459 182.944,151.447 182.964,151.434 182.984,151.421 182.984,151.421 183.004,151.408 183.024,151.394 183.044,151.381 183.064,151.367 183.084,151.353 183.104,151.339 183.124,151.325 183.144,151.311 183.144,151.311 183.164,151.296 183.184,151.281 183.204,151.266 183.224,151.251 183.243,151.235 183.263,151.22 183.282,151.204 183.302,151.189 183.302,151.189 183.322,151.172 183.342,151.156 183.361,151.139 183.381,151.123 183.4,151.106 183.42,151.089 183.439,151.072 183.458,151.055 183.458,151.055 183.478,151.037 183.498,151.019 183.517,151.001 183.537,150.983 183.556,150.964 183.575,150.946 183.595,150.928 183.613,150.909 183.613,150.909 183.633,150.889 183.653,150.87 183.672,150.85 183.692,150.83 183.711,150.81 183.73,150.79 183.749,150.77 183.768,150.75 183.768,150.75 183.788,150.729 183.807,150.708 183.827,150.686 183.846,150.665 183.865,150.643 183.885,150.622 183.904,150.6 183.923,150.578 183.923,150.578 183.942,150.555 183.962,150.532 183.981,150.509 184.001,150.486 184.02,150.463 184.039,150.439 184.058,150.416 184.077,150.392 184.077,150.392 184.097,150.368 184.116,150.343 184.136,150.318 184.155,150.293 184.175,150.268 184.194,150.243 184.213,150.218 184.232,150.193 184.232,150.193 184.252,150.166 184.272,150.14 184.291,150.113 184.311,150.086 184.33,150.059 184.35,150.033 184.369,150.006 184.388,149.979 184.388,149.979 184.408,149.95 184.428,149.922 184.448,149.893 184.468,149.865 184.487,149.836 184.507,149.807 184.526,149.779 184.546,149.75 184.546,149.75 184.566,149.719 184.586,149.689 184.606,149.659 184.626,149.628 184.646,149.597 184.666,149.567 184.686,149.536 184.705,149.505 184.705,149.505 184.726,149.473 184.746,149.441 184.766,149.408 184.787,149.376 184.807,149.343 184.827,149.311 184.847,149.278 184.867,149.245 184.867,149.245 184.909,149.176 184.951,149.106 184.993,149.035 185.034,148.965 185.075,148.894 185.116,148.823 185.156,148.752 185.196,148.681 189.244,141.44 187.763,138.611 184.373,138.611 173.282,158.358 175.388,158.358 179.897,150.36 185.558,140.256 186.48,140.256 187.105,141.473 183.254,148.352 183.223,148.408 183.191,148.463 183.159,148.519 183.126,148.574 183.093,148.629 183.06,148.684 183.026,148.738 182.992,148.793 182.992,148.793 182.977,148.818 182.961,148.843 182.945,148.868 182.929,148.892 182.912,148.917 182.896,148.942 182.88,148.967 182.863,148.991 182.863,148.991 182.848,149.014 182.832,149.037 182.816,149.06 182.801,149.083 182.785,149.106 182.768,149.129 182.752,149.152 182.736,149.174 182.736,149.174 182.72,149.195 182.705,149.217 182.689,149.238 182.673,149.259 182.657,149.28 182.641,149.301 182.625,149.321 182.609,149.342 182.609,149.342 182.594,149.361 182.578,149.381 182.562,149.4 182.547,149.419 182.531,149.438 182.515,149.457 182.499,149.476 182.482,149.495 182.482,149.495 182.467,149.513 182.451,149.531 182.435,149.548 182.42,149.565 182.404,149.583 182.387,149.6 182.371,149.617 182.355,149.634 182.355,149.634 182.339,149.65 182.323,149.666 182.308,149.682 182.291,149.698 182.275,149.713 182.259,149.729 182.243,149.744 182.226,149.759 182.226,149.759 182.211,149.774 182.195,149.788 182.178,149.803 182.162,149.817 182.146,149.831 182.129,149.844 182.113,149.858 182.096,149.872 182.096,149.872 182.08,149.884 182.063,149.897 182.047,149.91 182.03,149.922 182.014,149.935 181.997,149.947 181.98,149.959 181.963,149.971 181.963,149.971 181.946,149.982 181.93,149.993 181.913,150.004 181.896,150.015 181.879,150.026 181.862,150.037 181.844,150.047 181.827,150.058 181.827,150.058 181.81,150.067 181.793,150.077 181.775,150.087 181.758,150.096 181.74,150.106 181.723,150.115 181.705,150.124 181.687,150.132 181.687,150.132 181.67,150.141 181.652,150.149 181.634,150.157 181.616,150.165 181.598,150.173 181.58,150.181 181.562,150.188 181.543,150.196 181.543,150.196 181.525,150.203 181.506,150.21 181.488,150.217 181.469,150.223 181.451,150.23 181.432,150.236 181.413,150.242 181.394,150.248 181.394,150.248 181.375,150.254 181.356,150.259 181.337,150.265 181.317,150.27 181.298,150.275 181.278,150.28 181.259,150.285 181.239,150.29 181.239,150.29 181.22,150.294 181.2,150.298 181.179,150.303 181.159,150.307 181.139,150.311 181.119,150.314 181.099,150.318 181.079,150.321 181.079,150.321 181.058,150.325 181.037,150.328 181.016,150.331 180.995,150.333 180.974,150.336 180.953,150.339 180.932,150.341 180.911,150.343 180.911,150.343 180.867,150.347 180.822,150.351 180.778,150.354 180.734,150.356 180.689,150.358 180.645,150.359 180.6,150.36 180.556,150.36 179.897,150.36" fill="none" stroke="black" stroke-width="0.1"/>
        <polygon id="_132883608_1" points="70.2009,140.19 70.1536,140.197 70.1064,140.205 70.0592,140.212 70.0121,140.22 69.965,140.228 69.918,140.237 69.871,140.245 69.8241,140.255 69.8241,140.255 69.803,140.259 69.782,140.263 69.761,140.268 69.74,140.272 69.7191,140.277 69.6982,140.281 69.6773,140.286 69.6564,140.291 69.6564,140.291 69.637,140.296 69.6177,140.301 69.5984,140.305 69.5791,140.31 69.5599,140.315 69.5407,140.321 69.5216,140.326 69.5025,140.331 69.5025,140.331 69.4847,140.337 69.4669,140.342 69.4491,140.347 69.4314,140.353 69.4137,140.358 69.3961,140.364 69.3785,140.37 69.361,140.376 69.361,140.376 69.3445,140.382 69.3281,140.388 69.3117,140.394 69.2954,140.4 69.2791,140.407 69.2629,140.413 69.2468,140.42 69.2307,140.427 69.2307,140.427 69.2154,140.433 69.2002,140.44 69.185,140.447 69.1699,140.454 69.1549,140.461 69.1399,140.468 69.125,140.476 69.1102,140.483 69.1102,140.483 69.0959,140.491 69.0816,140.499 69.0675,140.506 69.0534,140.514 69.0394,140.522 69.0255,140.531 69.0117,140.539 68.998,140.548 68.998,140.548 68.9845,140.556 68.9711,140.565 68.9578,140.574 68.9446,140.583 68.9315,140.592 68.9185,140.601 68.9056,140.61 68.8928,140.62 68.8928,140.62 68.88,140.629 68.8673,140.639 68.8548,140.649 68.8423,140.659 68.8299,140.67 68.8177,140.68 68.8055,140.69 68.7935,140.701 68.7935,140.701 68.7812,140.712 68.7691,140.723 68.757,140.734 68.7451,140.745 68.7333,140.757 68.7215,140.768 68.7099,140.78 68.6984,140.792 68.6984,140.792 68.6865,140.804 68.6747,140.817 68.663,140.829 68.6515,140.842 68.64,140.855 68.6287,140.867 68.6174,140.88 68.6063,140.893 68.6063,140.893 68.5946,140.907 68.583,140.921 68.5716,140.935 68.5602,140.949 68.5489,140.963 68.5378,140.978 68.5267,140.992 68.5157,141.006 68.5157,141.006 68.5041,141.022 68.4926,141.037 68.4812,141.053 68.4698,141.069 68.4586,141.084 68.4474,141.1 68.4363,141.116 68.4253,141.132 68.4253,141.132 68.4136,141.149 68.4019,141.166 68.3904,141.183 68.3789,141.201 68.3675,141.218 68.3562,141.235 68.3449,141.253 68.3337,141.27 68.3337,141.27 68.3217,141.289 68.3098,141.308 68.2979,141.327 68.2861,141.346 68.2743,141.365 68.2626,141.384 68.2511,141.404 68.2395,141.423 68.2395,141.423 68.227,141.444 68.2146,141.464 68.2022,141.485 68.1899,141.506 68.1776,141.527 68.1654,141.548 68.1532,141.569 68.1411,141.59 67.9298,141.967 65.0665,147.002 65.0435,147.044 65.0208,147.086 64.9984,147.129 64.9762,147.171 64.9544,147.213 64.9328,147.256 64.9117,147.299 64.8909,147.342 64.8909,147.342 64.8814,147.362 64.872,147.382 64.8627,147.402 64.8535,147.422 64.8444,147.442 64.8354,147.463 64.8265,147.483 64.8177,147.503 64.8177,147.503 64.8095,147.523 64.8014,147.542 64.7934,147.561 64.7855,147.581 64.7778,147.601 64.7701,147.62 64.7626,147.64 64.7553,147.659 64.7553,147.659 64.7484,147.678 64.7416,147.697 64.735,147.716 64.7285,147.735 64.7221,147.754 64.7159,147.773 64.7098,147.792 64.7038,147.811 64.7038,147.811 64.6983,147.83 64.6929,147.848 64.6876,147.867 64.6825,147.886 64.6776,147.904 64.6728,147.923 64.6682,147.942 64.6637,147.96 64.6637,147.96 64.6595,147.979 64.6555,147.997 64.6516,148.015 64.648,148.033 64.6445,148.052 64.6411,148.07 64.638,148.089 64.635,148.107 64.635,148.107 64.6323,148.125 64.6297,148.144 64.6273,148.162 64.6251,148.18 64.6231,148.198 64.6213,148.216 64.6196,148.235 64.6182,148.253 64.6182,148.253 64.6169,148.271 64.6159,148.289 64.615,148.308 64.6143,148.326 64.6138,148.344 64.6135,148.362 64.6133,148.381 64.6134,148.399 64.6134,148.399 64.6137,148.417 64.6141,148.436 64.6148,148.454 64.6156,148.472 64.6167,148.491 64.6179,148.509 64.6193,148.528 64.6209,148.546 64.6209,148.546 64.6228,148.564 64.6248,148.583 64.627,148.602 64.6294,148.62 64.632,148.639 64.6348,148.658 64.6378,148.676 64.6409,148.695 64.6409,148.695 64.6444,148.714 64.648,148.733 64.6519,148.752 64.6559,148.771 64.6601,148.79 64.6645,148.809 64.6691,148.828 64.6738,148.847 64.6738,148.847 64.6789,148.867 64.6842,148.886 64.6897,148.906 64.6953,148.926 64.7012,148.945 64.7072,148.964 64.7133,148.984 64.7196,149.003 64.7786,149.165 64.7962,149.208 64.8145,149.251 64.8333,149.294 64.8527,149.336 64.8726,149.379 64.893,149.421 64.9138,149.462 64.935,149.504 65.6921,150.985 65.7054,151.011 65.7187,151.037 65.7319,151.064 65.745,151.09 65.758,151.116 65.7709,151.142 65.7837,151.169 65.7964,151.195 65.7964,151.195 65.8024,151.208 65.8084,151.221 65.8144,151.233 65.8204,151.246 65.8263,151.259 65.8322,151.272 65.8381,151.285 65.8439,151.297 65.8439,151.297 65.8495,151.31 65.8552,151.322 65.8608,151.335 65.8663,151.348 65.8718,151.36 65.8773,151.373 65.8827,151.385 65.8881,151.398 65.8881,151.398 65.8933,151.41 65.8985,151.423 65.9037,151.435 65.9088,151.447 65.9139,151.46 65.9189,151.472 65.9239,151.485 65.9288,151.497 65.9288,151.497 65.9336,151.509 65.9384,151.522 65.9431,151.534 65.9478,151.546 65.9524,151.558 65.957,151.571 65.9615,151.583 65.966,151.595 65.966,151.595 65.9704,151.607 65.9747,151.619 65.9789,151.632 65.9831,151.644 65.9873,151.656 65.9914,151.668 65.9954,151.68 65.9994,151.693 65.9994,151.693 66.0033,151.705 66.0072,151.717 66.011,151.729 66.0147,151.741 66.0184,151.753 66.0221,151.765 66.0257,151.777 66.0292,151.789 66.0292,151.789 66.0326,151.801 66.036,151.814 66.0393,151.826 66.0426,151.838 66.0458,151.85 66.0489,151.862 66.052,151.874 66.0551,151.886 66.0551,151.886 66.058,151.898 66.0609,151.91 66.0637,151.922 66.0665,151.934 66.0692,151.947 66.0718,151.959 66.0744,151.971 66.0769,151.983 66.0769,151.983 66.0793,151.995 66.0817,152.007 66.0841,152.019 66.0863,152.032 66.0885,152.044 66.0907,152.056 66.0927,152.068 66.0947,152.08 66.0947,152.08 66.0967,152.093 66.0985,152.105 66.1004,152.117 66.1021,152.129 66.1038,152.142 66.1054,152.154 66.1069,152.166 66.1084,152.179 66.1084,152.179 66.1098,152.191 66.1112,152.203 66.1125,152.216 66.1137,152.228 66.1148,152.241 66.1159,152.253 66.1169,152.266 66.1178,152.278 66.1178,152.278 66.1187,152.291 66.1195,152.303 66.1202,152.316 66.1209,152.328 66.1215,152.341 66.122,152.354 66.1225,152.366 66.1229,152.379 66.1229,152.379 66.1232,152.392 66.1235,152.404 66.1237,152.417 66.1238,152.43 66.1239,152.443 66.1238,152.456 66.1238,152.469 66.1236,152.481 66.1236,152.481 66.1233,152.495 66.123,152.508 66.1226,152.521 66.1221,152.534 66.1216,152.547 66.121,152.56 66.1203,152.573 66.1196,152.586 66.1196,152.586 66.1188,152.6 66.1179,152.613 66.1169,152.626 66.1159,152.64 66.1147,152.653 66.1136,152.666 66.1123,152.68 66.111,152.693 66.111,152.693 66.1096,152.707 66.1081,152.721 66.1065,152.734 66.1049,152.748 66.1032,152.762 66.1015,152.776 66.0996,152.789 66.0977,152.803 66.0977,152.803 66.0957,152.817 66.0936,152.831 66.0914,152.845 66.0892,152.86 66.0869,152.874 66.0845,152.888 66.0821,152.902 66.0796,152.916 66.0796,152.916 66.0769,152.93 66.0742,152.945 66.0714,152.959 66.0686,152.974 66.0657,152.989 66.0627,153.003 66.0596,153.018 66.0565,153.032 66.0565,153.032 66.0532,153.047 66.0499,153.062 66.0465,153.077 66.043,153.092 66.0395,153.107 66.0359,153.122 66.0322,153.137 66.0285,153.152 66.0285,153.152 66.0246,153.168 66.0206,153.183 66.0165,153.199 66.0124,153.214 66.0082,153.23 66.004,153.245 65.9997,153.26 65.9953,153.276 65.9953,153.276 65.9907,153.292 65.986,153.308 65.9813,153.324 65.9765,153.34 65.9717,153.356 65.9668,153.372 65.9619,153.388 65.9569,153.404 65.9569,153.404 65.9516,153.421 65.9463,153.437 65.9409,153.454 65.9355,153.471 65.93,153.487 65.9244,153.504 65.9188,153.52 65.9132,153.537 65.9132,153.537 65.9072,153.554 65.9012,153.572 65.8952,153.589 65.8891,153.606 65.8829,153.623 65.8767,153.64 65.8704,153.658 65.8641,153.675 65.8641,153.675 65.8574,153.693 65.8507,153.711 65.844,153.729 65.8372,153.747 65.8304,153.764 65.8235,153.782 65.8166,153.8 65.8096,153.818 65.8096,153.818 65.8022,153.837 65.7948,153.855 65.7873,153.874 65.7798,153.892 65.7723,153.911 65.7647,153.93 65.757,153.948 65.7493,153.967 65.7493,153.967 65.7412,153.986 65.7331,154.005 65.725,154.025 65.7168,154.044 65.7085,154.063 65.7002,154.083 65.6919,154.102 65.6835,154.121 65.6835,154.121 65.6747,154.141 65.6658,154.162 65.6569,154.182 65.648,154.202 65.639,154.222 65.63,154.242 65.6209,154.262 65.6118,154.282 65.6118,154.282 65.6023,154.303 65.5927,154.324 65.583,154.345 65.5733,154.366 65.5636,154.387 65.5539,154.408 65.5441,154.429 65.5343,154.45 65.5343,154.45 65.524,154.471 65.5137,154.493 65.5033,154.515 65.4928,154.537 65.4824,154.559 65.4719,154.58 65.4614,154.602 65.4508,154.624 65.4508,154.624 65.4386,154.649 65.4264,154.674 65.4142,154.699 65.4019,154.724 65.3896,154.749 65.3772,154.774 65.3648,154.798 65.3523,154.823 65.3523,154.823 65.3385,154.851 65.3246,154.878 65.3107,154.906 65.2968,154.933 65.2828,154.961 65.2688,154.988 65.2547,155.016 65.2406,155.043 65.2406,155.043 65.2254,155.072 65.2101,155.101 65.1947,155.131 65.1794,155.16 65.1639,155.189 65.1484,155.218 65.1329,155.247 65.1173,155.277 65.1173,155.277 65.1021,155.305 65.0868,155.333 65.0714,155.361 65.056,155.389 65.0406,155.417 65.025,155.446 65.0094,155.474 64.9938,155.501 64.9938,155.501 64.9785,155.529 64.9632,155.556 64.9479,155.583 64.9324,155.61 64.9169,155.637 64.9014,155.664 64.8858,155.691 64.8701,155.718 64.8701,155.718 64.8548,155.744 64.8394,155.77 64.824,155.796 64.8085,155.822 64.793,155.848 64.7774,155.874 64.7617,155.9 64.746,155.926 64.746,155.926 64.7306,155.951 64.7152,155.976 64.6997,156.001 64.6842,156.026 64.6686,156.051 64.6529,156.075 64.6371,156.1 64.6213,156.125 64.6213,156.125 64.6058,156.149 64.5903,156.173 64.5747,156.197 64.559,156.221 64.5433,156.245 64.5275,156.268 64.5117,156.292 64.4958,156.316 64.4958,156.316 64.4802,156.339 64.4646,156.362 64.4488,156.385 64.4331,156.407 64.4172,156.43 64.4013,156.453 64.3854,156.476 64.3693,156.498 64.3693,156.498 64.3536,156.52 64.3379,156.542 64.3221,156.564 64.3062,156.586 64.2902,156.608 64.2742,156.629 64.258,156.651 64.2418,156.672 64.2418,156.672 64.226,156.693 64.2101,156.714 64.1942,156.735 64.1781,156.756 64.162,156.777 64.1458,156.797 64.1295,156.818 64.1132,156.838 64.1132,156.838 64.0972,156.858 64.0811,156.878 64.065,156.898 64.0487,156.918 64.0325,156.938 64.0161,156.957 63.9996,156.977 63.9831,156.996 63.9831,156.996 63.9669,157.015 63.9506,157.034 63.9343,157.053 63.9179,157.072 63.9014,157.09 63.8849,157.109 63.8682,157.127 63.8515,157.146 63.8515,157.146 63.8351,157.164 63.8186,157.182 63.802,157.2 63.7854,157.217 63.7687,157.235 63.7519,157.253 63.735,157.27 63.7181,157.288 63.7181,157.288 63.7015,157.305 63.6848,157.322 63.668,157.338 63.6512,157.355 63.6343,157.372 63.6173,157.388 63.6002,157.405 63.583,157.422 63.583,157.422 63.5661,157.438 63.5492,157.453 63.5321,157.469 63.515,157.485 63.4978,157.501 63.4805,157.516 63.4632,157.532 63.4458,157.547 63.4458,157.547 63.4286,157.563 63.4114,157.577 63.3941,157.592 63.3767,157.607 63.3593,157.622 63.3418,157.637 63.3242,157.651 63.3065,157.666 63.3065,157.666 63.289,157.68 63.2715,157.694 63.2539,157.708 63.2362,157.722 63.2185,157.735 63.2007,157.749 63.1828,157.763 63.1648,157.776 63.1648,157.776 63.147,157.789 63.1292,157.802 63.1113,157.815 63.0933,157.828 63.0752,157.841 63.0571,157.854 63.0389,157.866 63.0206,157.879 63.0206,157.879 63.0025,157.891 62.9843,157.903 62.9661,157.915 62.9478,157.927 62.9294,157.939 62.9109,157.951 62.8924,157.963 62.8738,157.974 62.8738,157.974 62.8553,157.985 62.8368,157.997 62.8182,158.008 62.7995,158.019 62.7808,158.03 62.762,158.041 62.7431,158.051 62.7242,158.062 62.7242,158.062 62.7053,158.072 62.6864,158.083 62.6674,158.093 62.6484,158.103 62.6293,158.113 62.6102,158.123 62.591,158.132 62.5717,158.142 62.5717,158.142 62.5524,158.152 62.5331,158.161 62.5137,158.17 62.4943,158.179 62.4748,158.189 62.4553,158.197 62.4357,158.206 62.4161,158.215 62.4161,158.215 62.3964,158.224 62.3766,158.232 62.3568,158.24 62.337,158.249 62.3171,158.257 62.2971,158.265 62.2771,158.273 62.2571,158.281 62.2571,158.281 62.2369,158.288 62.2167,158.296 62.1965,158.303 62.1762,158.311 62.1559,158.318 62.1356,158.325 62.1152,158.332 62.0948,158.339 62.0948,158.339 62.0742,158.346 62.0535,158.352 62.0328,158.359 62.0121,158.366 61.9913,158.372 61.9706,158.378 61.9497,158.384 61.9289,158.39 61.9289,158.39 61.9078,158.396 61.8867,158.402 61.8655,158.408 61.8443,158.413 61.8231,158.419 61.8019,158.424 61.7806,158.429 61.7593,158.434 61.7593,158.434 61.7377,158.439 61.7161,158.444 61.6944,158.449 61.6727,158.454 61.651,158.458 61.6293,158.463 61.6076,158.467 61.5858,158.471 61.5858,158.471 61.5637,158.476 61.5415,158.48 61.5193,158.484 61.4972,158.488 61.475,158.491 61.4528,158.495 61.4305,158.498 61.4083,158.502 61.4083,158.502 61.3856,158.505 61.363,158.508 61.3403,158.511 61.3176,158.514 61.2948,158.517 61.2721,158.52 61.2494,158.523 61.2266,158.525 61.2266,158.525 61.2033,158.528 61.1801,158.53 61.1568,158.532 61.1336,158.534 61.1103,158.536 61.0871,158.538 61.0638,158.54 61.0405,158.542 61.0405,158.542 61.0167,158.543 60.9929,158.545 60.9691,158.546 60.9453,158.548 60.9215,158.549 60.8976,158.55 60.8738,158.551 60.85,158.552 60.85,158.552 60.8263,158.552 60.8026,158.553 60.7789,158.553 60.7551,158.554 60.7314,158.554 60.7077,158.555 60.684,158.555 60.6603,158.555 60.6603,158.555 60.637,158.555 60.6137,158.555 60.5904,158.554 60.5672,158.554 60.5439,158.553 60.5206,158.553 60.4974,158.552 60.4741,158.551 60.4741,158.551 60.4516,158.55 60.4291,158.549 60.4066,158.547 60.3842,158.546 60.3617,158.544 60.3393,158.543 60.3168,158.541 60.2944,158.539 60.2944,158.539 60.2724,158.537 60.2504,158.535 60.2284,158.532 60.2065,158.53 60.1845,158.527 60.1626,158.524 60.1407,158.522 60.1188,158.519 60.1188,158.519 60.0974,158.516 60.076,158.512 60.0546,158.509 60.0332,158.506 60.0118,158.502 59.9905,158.498 59.9692,158.494 59.9479,158.49 59.9479,158.49 59.927,158.486 59.9062,158.482 59.8854,158.478 59.8646,158.473 59.8439,158.469 59.8232,158.464 59.8026,158.459 59.782,158.454 59.782,158.454 59.7618,158.449 59.7416,158.444 59.7215,158.439 59.7014,158.433 59.6814,158.427 59.6614,158.422 59.6414,158.416 59.6214,158.41 59.6214,158.41 59.602,158.404 59.5825,158.398 59.5632,158.391 59.5438,158.385 59.5245,158.378 59.5053,158.371 59.4861,158.364 59.4669,158.357 59.4669,158.357 59.4482,158.35 59.4295,158.343 59.4109,158.336 59.3923,158.328 59.3738,158.321 59.3554,158.313 59.337,158.305 59.3187,158.297 59.3187,158.297 59.3008,158.289 59.2829,158.281 59.2651,158.273 59.2474,158.264 59.2297,158.255 59.2121,158.247 59.1946,158.238 59.1772,158.229 59.1772,158.229 59.1601,158.22 59.1432,158.21 59.1262,158.201 59.1094,158.192 59.0927,158.182 59.076,158.172 59.0594,158.162 59.0429,158.152 59.0429,158.152 59.0268,158.142 59.0107,158.132 58.9948,158.122 58.9789,158.111 58.9631,158.101 58.9474,158.09 58.9318,158.079 58.9163,158.068 58.9163,158.068 58.9011,158.057 58.886,158.046 58.8711,158.034 58.8562,158.023 58.8414,158.011 58.8268,157.999 58.8122,157.987 58.7978,157.975 58.7978,157.975 58.7836,157.963 58.7696,157.951 58.7557,157.939 58.7419,157.926 58.7282,157.914 58.7146,157.901 58.7012,157.888 58.6879,157.875 58.6879,157.875 58.6748,157.862 58.6618,157.849 58.649,157.835 58.6363,157.822 58.6238,157.808 58.6114,157.795 58.5991,157.781 58.587,157.767 58.587,157.767 58.575,157.753 58.5632,157.738 58.5515,157.724 58.54,157.709 58.5286,157.695 58.5174,157.68 58.5064,157.665 58.4955,157.65 58.4955,157.65 58.4847,157.635 58.4741,157.62 58.4636,157.604 58.4534,157.589 58.4432,157.573 58.4333,157.558 58.4235,157.542 58.4139,157.526 58.4139,157.526 58.4044,157.51 58.395,157.493 58.3858,157.477 58.3768,157.461 58.368,157.444 58.3594,157.427 58.3509,157.41 58.3426,157.394 58.3426,157.394 58.3344,157.376 58.3264,157.359 58.3185,157.342 58.3109,157.324 58.3034,157.307 58.2962,157.289 58.2891,157.271 58.2822,157.253 58.2822,157.253 58.2754,157.235 58.2687,157.217 58.2623,157.198 58.256,157.18 58.25,157.161 58.2441,157.143 58.2385,157.124 58.233,157.105 58.233,157.105 58.2276,157.086 58.2224,157.067 58.2174,157.047 58.2126,157.028 58.2081,157.008 58.2037,156.988 58.1995,156.969 58.1955,156.949 58.1955,156.949 58.1916,156.929 58.1879,156.908 58.1844,156.888 58.1812,156.868 58.1781,156.847 58.1753,156.826 58.1726,156.806 58.1702,156.785 58.1702,156.785 58.1679,156.764 58.1657,156.742 58.1638,156.721 58.1621,156.7 58.1606,156.678 58.1593,156.657 58.1582,156.635 58.1573,156.614 58.1573,156.614 58.1566,156.591 58.1561,156.569 58.1559,156.546 58.1558,156.524 58.1559,156.501 58.1562,156.479 58.1568,156.457 58.1575,156.434 58.1575,156.434 58.1585,156.411 58.1597,156.387 58.1611,156.364 58.1627,156.34 58.1645,156.317 58.1665,156.293 58.1687,156.27 58.1711,156.247 58.1711,156.247 58.1739,156.222 58.1768,156.198 58.18,156.173 58.1833,156.149 58.1868,156.125 58.1906,156.1 58.1945,156.076 58.1986,156.052 58.1986,156.052 58.2031,156.026 58.2079,156.001 58.2128,155.975 58.218,155.95 58.2233,155.924 58.2288,155.899 58.2345,155.874 58.2404,155.849 58.2404,155.849 58.2468,155.822 58.2534,155.796 58.2602,155.769 58.2671,155.743 58.2743,155.717 58.2817,155.69 58.2892,155.664 58.2969,155.638 58.2969,155.638 58.3052,155.611 58.3137,155.583 58.3224,155.556 58.3313,155.529 58.3404,155.501 58.3496,155.474 58.359,155.447 58.3686,155.42 58.3686,155.42 58.3789,155.391 58.3893,155.363 58.4,155.334 58.4108,155.306 58.4218,155.278 58.4329,155.25 58.4443,155.222 58.4558,155.194 58.4558,155.194 58.4681,155.164 58.4806,155.135 58.4933,155.105 58.5061,155.076 58.5191,155.047 58.5323,155.018 58.5456,154.989 58.5591,154.96 58.5591,154.96 58.5886,154.898 58.6188,154.836 58.6496,154.775 58.6811,154.714 58.7132,154.653 58.7459,154.593 58.7792,154.533 58.813,154.473 59.7348,152.861 61.8083,152.861 60.2721,155.668 60.2674,155.678 60.2628,155.689 60.2582,155.699 60.2537,155.71 60.2492,155.72 60.2448,155.731 60.2405,155.741 60.2362,155.752 60.2362,155.752 60.2322,155.762 60.2282,155.772 60.2243,155.782 60.2204,155.792 60.2166,155.803 60.2129,155.813 60.2093,155.823 60.2057,155.833 60.2057,155.833 60.2023,155.843 60.199,155.853 60.1958,155.863 60.1926,155.873 60.1895,155.882 60.1865,155.892 60.1835,155.902 60.1806,155.912 60.1806,155.912 60.1779,155.922 60.1753,155.931 60.1727,155.94 60.1702,155.95 60.1677,155.96 60.1654,155.969 60.163,155.979 60.1608,155.988 60.1608,155.988 60.1587,155.997 60.1567,156.007 60.1548,156.016 60.1529,156.025 60.1511,156.034 60.1493,156.043 60.1476,156.053 60.146,156.062 60.146,156.062 60.1446,156.071 60.1432,156.079 60.1419,156.088 60.1406,156.097 60.1394,156.106 60.1383,156.115 60.1373,156.124 60.1363,156.132 60.1363,156.132 60.1354,156.141 60.1346,156.149 60.1339,156.158 60.1333,156.166 60.1327,156.175 60.1322,156.183 60.1318,156.192 60.1314,156.2 60.1314,156.2 60.1311,156.208 60.1309,156.217 60.1308,156.225 60.1308,156.233 60.1308,156.241 60.1309,156.249 60.1311,156.257 60.1313,156.265 60.1313,156.265 60.1316,156.273 60.132,156.281 60.1324,156.289 60.1329,156.296 60.1335,156.304 60.1342,156.312 60.135,156.32 60.1358,156.327 60.1358,156.327 60.1367,156.335 60.1376,156.342 60.1386,156.35 60.1396,156.357 60.1408,156.365 60.142,156.372 60.1433,156.379 60.1447,156.387 60.1447,156.387 60.1461,156.394 60.1476,156.401 60.1492,156.408 60.1508,156.415 60.1525,156.422 60.1542,156.429 60.1561,156.436 60.158,156.443 60.158,156.443 60.1599,156.45 60.162,156.457 60.164,156.463 60.1662,156.47 60.1684,156.476 60.1707,156.483 60.1731,156.49 60.1755,156.496 60.1755,156.496 60.1779,156.503 60.1804,156.509 60.183,156.515 60.1857,156.522 60.1884,156.528 60.1912,156.534 60.1941,156.54 60.1971,156.547 60.1971,156.547 60.2001,156.553 60.2031,156.559 60.2062,156.565 60.2093,156.571 60.2125,156.576 60.2158,156.582 60.2192,156.588 60.2226,156.594 60.2226,156.594 60.226,156.599 60.2296,156.605 60.2331,156.611 60.2368,156.616 60.2405,156.622 60.2443,156.627 60.2481,156.632 60.252,156.638 60.252,156.638 60.2559,156.643 60.2599,156.648 60.264,156.654 60.2681,156.659 60.2722,156.664 60.2765,156.669 60.2807,156.674 60.2851,156.679 60.2851,156.679 60.2895,156.684 60.2939,156.689 60.2984,156.693 60.303,156.698 60.3076,156.703 60.3122,156.707 60.3169,156.712 60.3217,156.717 60.3217,156.717 60.3265,156.721 60.3314,156.725 60.3363,156.73 60.3413,156.734 60.3464,156.738 60.3514,156.743 60.3565,156.747 60.3617,156.751 60.3617,156.751 60.367,156.755 60.3723,156.759 60.3777,156.763 60.3831,156.767 60.3885,156.771 60.394,156.775 60.3995,156.778 60.4051,156.782 60.4051,156.782 60.4108,156.786 60.4165,156.789 60.4223,156.793 60.428,156.797 60.4339,156.8 60.4397,156.803 60.4457,156.807 60.4516,156.81 60.4516,156.81 60.4577,156.813 60.4638,156.816 60.4699,156.82 60.4761,156.823 60.4823,156.826 60.4885,156.829 60.4947,156.832 60.501,156.834 60.501,156.834 60.5075,156.837 60.514,156.84 60.5205,156.843 60.527,156.845 60.5336,156.848 60.5402,156.851 60.5468,156.853 60.5534,156.856 60.5534,156.856 60.5602,156.858 60.5671,156.86 60.574,156.863 60.5808,156.865 60.5878,156.867 60.5947,156.869 60.6016,156.871 60.6086,156.873 60.6086,156.873 60.6158,156.875 60.6229,156.877 60.6301,156.879 60.6373,156.881 60.6446,156.882 60.6518,156.884 60.6591,156.886 60.6664,156.887 60.6664,156.887 60.6739,156.889 60.6814,156.89 60.6889,156.892 60.6964,156.893 60.7039,156.894 60.7115,156.896 60.7191,156.897 60.7267,156.898 60.7267,156.898 60.7345,156.899 60.7423,156.9 60.7501,156.901 60.7579,156.902 60.7657,156.903 60.7736,156.904 60.7814,156.905 60.7893,156.905 60.7893,156.905 60.7979,156.906 60.8064,156.906 60.815,156.907 60.8236,156.908 60.8321,156.908 60.8407,156.908 60.8493,156.909 60.8579,156.909 60.8579,156.909 60.8676,156.909 60.8772,156.909 60.8869,156.909 60.8965,156.909 60.9062,156.909 60.9159,156.909 60.9255,156.909 60.9352,156.909 60.9352,156.909 60.9458,156.908 60.9564,156.908 60.967,156.908 60.9776,156.907 60.9882,156.907 60.9987,156.906 61.0093,156.906 61.0199,156.905 61.0199,156.905 61.0308,156.904 61.0417,156.904 61.0526,156.903 61.0635,156.902 61.0744,156.901 61.0853,156.9 61.0962,156.899 61.1071,156.897 61.1071,156.897 61.1179,156.896 61.1286,156.895 61.1393,156.893 61.1501,156.892 61.1608,156.891 61.1715,156.889 61.1822,156.887 61.1929,156.886 61.1929,156.886 61.2035,156.884 61.2142,156.882 61.2248,156.88 61.2354,156.878 61.2459,156.876 61.2565,156.874 61.2671,156.872 61.2776,156.869 61.2776,156.869 61.2881,156.867 61.2986,156.865 61.309,156.862 61.3195,156.86 61.3299,156.857 61.3403,156.854 61.3507,156.851 61.3611,156.849 61.3611,156.849 61.3715,156.846 61.3819,156.843 61.3923,156.84 61.4026,156.837 61.413,156.833 61.4233,156.83 61.4335,156.827 61.4438,156.823 61.4438,156.823 61.4541,156.82 61.4644,156.816 61.4747,156.812 61.485,156.809 61.4952,156.805 61.5054,156.801 61.5156,156.797 61.5258,156.793 61.5258,156.793 61.5361,156.789 61.5463,156.784 61.5565,156.78 61.5667,156.776 61.5769,156.771 61.587,156.767 61.5971,156.762 61.6072,156.757 61.6072,156.757 61.6175,156.752 61.6277,156.747 61.6379,156.742 61.648,156.737 61.6581,156.732 61.6682,156.727 61.6782,156.722 61.6882,156.716 61.6882,156.716 61.6985,156.711 61.7087,156.705 61.7188,156.7 61.7289,156.694 61.739,156.688 61.7491,156.682 61.7591,156.676 61.7691,156.67 61.7691,156.67 61.7793,156.664 61.7895,156.657 61.7996,156.651 61.8097,156.644 61.8198,156.638 61.8298,156.631 61.8398,156.624 61.8498,156.618 61.8498,156.618 61.8601,156.611 61.8703,156.604 61.8805,156.596 61.8906,156.589 61.9007,156.582 61.9107,156.575 61.9207,156.567 61.9307,156.56 61.9307,156.56 61.941,156.552 61.9512,156.544 61.9615,156.536 61.9716,156.528 61.9817,156.52 61.9918,156.512 62.0018,156.504 62.0118,156.495 62.0118,156.495 62.0222,156.487 62.0325,156.478 62.0428,156.469 62.053,156.46 62.0632,156.452 62.0733,156.443 62.0834,156.434 62.0935,156.425 62.0935,156.425 62.1039,156.415 62.1143,156.406 62.1247,156.396 62.135,156.387 62.1452,156.377 62.1554,156.367 62.1656,156.357 62.1757,156.348 62.1757,156.348 62.1862,156.337 62.1967,156.327 62.2072,156.317 62.2176,156.306 62.2279,156.296 62.2383,156.285 62.2485,156.274 62.2588,156.264 62.2588,156.264 62.2694,156.253 62.28,156.241 62.2906,156.23 62.3011,156.219 62.3116,156.207 62.322,156.196 62.3324,156.185 62.3428,156.173 62.3428,156.173 62.3536,156.161 62.3644,156.149 62.3751,156.137 62.3857,156.124 62.3963,156.112 62.4069,156.1 62.4174,156.087 62.4279,156.075 62.4279,156.075 62.4389,156.062 62.4498,156.049 62.4607,156.036 62.4715,156.023 62.4823,156.01 62.493,155.996 62.5037,155.983 62.5144,155.97 62.5144,155.97 62.5256,155.956 62.5367,155.942 62.5477,155.928 62.5587,155.914 62.5697,155.899 62.5806,155.885 62.5915,155.871 62.6023,155.857 62.6023,155.857 62.6136,155.842 62.6249,155.827 62.6362,155.812 62.6474,155.797 62.6586,155.782 62.6698,155.767 62.6809,155.752 62.6919,155.737 62.6919,155.737 62.7035,155.721 62.715,155.705 62.7265,155.689 62.7379,155.673 62.7493,155.656 62.7607,155.64 62.772,155.624 62.7833,155.608 62.7833,155.608 62.7951,155.591 62.8069,155.574 62.8186,155.557 62.8303,155.54 62.842,155.523 62.8536,155.506 62.8652,155.489 62.8767,155.471 62.8767,155.471 62.8888,155.454 62.9008,155.435 62.9128,155.417 62.9248,155.399 62.9367,155.381 62.9486,155.363 62.9605,155.345 62.9723,155.327 62.9723,155.327 62.9847,155.308 62.997,155.289 63.0093,155.269 63.0215,155.25 63.0337,155.231 63.0459,155.212 63.0581,155.193 63.0702,155.173 63.0702,155.173 63.0829,155.153 63.0955,155.133 63.1081,155.113 63.1207,155.092 63.1332,155.072 63.1457,155.052 63.1582,155.031 63.1706,155.011 63.1706,155.011 63.1836,154.99 63.1966,154.969 63.2095,154.947 63.2224,154.926 63.2353,154.904 63.2481,154.883 63.2609,154.862 63.2737,154.84 63.2737,154.84 63.3008,154.795 63.3277,154.749 63.3545,154.703 63.3812,154.657 63.4078,154.611 63.4343,154.565 63.4606,154.519 63.4869,154.473 63.8161,153.881 63.8389,153.839 63.8613,153.796 63.8833,153.753 63.9049,153.71 63.926,153.667 63.9467,153.623 63.9668,153.58 63.9864,153.536 63.9864,153.536 63.9952,153.515 64.0039,153.495 64.0125,153.474 64.0209,153.454 64.0292,153.433 64.0374,153.412 64.0454,153.392 64.0533,153.371 64.0533,153.371 64.0606,153.351 64.0677,153.332 64.0747,153.312 64.0815,153.292 64.0882,153.272 64.0947,153.252 64.1011,153.233 64.1073,153.213 64.1073,153.213 64.113,153.194 64.1186,153.174 64.124,153.155 64.1292,153.136 64.1343,153.117 64.1392,153.098 64.1439,153.079 64.1485,153.059 64.1485,153.059 64.1527,153.041 64.1566,153.022 64.1604,153.004 64.1641,152.985 64.1675,152.967 64.1708,152.948 64.1738,152.929 64.1767,152.911 64.1767,152.911 64.1793,152.893 64.1817,152.874 64.1839,152.856 64.186,152.838 64.1878,152.82 64.1894,152.802 64.1909,152.784 64.1921,152.766 64.1921,152.766 64.1931,152.748 64.1939,152.73 64.1945,152.712 64.1949,152.695 64.1951,152.677 64.1951,152.659 64.1949,152.641 64.1945,152.624 64.1945,152.624 64.1939,152.606 64.1931,152.589 64.1921,152.571 64.1909,152.554 64.1895,152.536 64.1879,152.519 64.186,152.502 64.184,152.484 64.184,152.484 64.1818,152.467 64.1793,152.45 64.1767,152.433 64.1738,152.415 64.1708,152.398 64.1675,152.381 64.1641,152.364 64.1605,152.347 64.1605,152.347 64.1566,152.329 64.1525,152.312 64.1482,152.295 64.1438,152.278 64.1391,152.261 64.1342,152.244 64.1292,152.227 64.124,152.21 64.0134,151.939 63.2564,150.458 63.2287,150.404 63.2014,150.349 63.1747,150.293 63.1484,150.238 63.1227,150.182 63.0976,150.126 63.073,150.07 63.049,150.014 63.049,150.014 63.0376,149.986 63.0263,149.959 63.0152,149.931 63.0043,149.904 62.9935,149.876 62.9828,149.848 62.9723,149.821 62.962,149.793 62.962,149.793 62.952,149.766 62.9422,149.738 62.9325,149.711 62.923,149.683 62.9137,149.656 62.9045,149.628 62.8955,149.601 62.8867,149.573 62.8867,149.573 62.8782,149.546 62.8699,149.519 62.8617,149.492 62.8537,149.464 62.8459,149.437 62.8382,149.41 62.8307,149.382 62.8234,149.355 62.8234,149.355 62.8164,149.327 62.8096,149.3 62.803,149.273 62.7966,149.246 62.7903,149.219 62.7842,149.192 62.7783,149.164 62.7726,149.137 62.7726,149.137 62.7672,149.11 62.7619,149.083 62.7568,149.056 62.752,149.029 62.7473,149.002 62.7428,148.975 62.7385,148.947 62.7344,148.92 62.7344,148.92 62.7305,148.893 62.7268,148.866 62.7234,148.839 62.7201,148.812 62.717,148.785 62.7141,148.758 62.7115,148.731 62.709,148.704 62.709,148.704 62.7067,148.677 62.7047,148.65 62.7029,148.623 62.7012,148.596 62.6998,148.569 62.6986,148.542 62.6976,148.515 62.6968,148.488 62.6968,148.488 62.6962,148.461 62.6959,148.434 62.6957,148.407 62.6958,148.38 62.696,148.353 62.6965,148.326 62.6972,148.299 62.6981,148.273 62.6981,148.273 62.6992,148.245 62.7006,148.219 62.7021,148.192 62.7039,148.165 62.7059,148.138 62.7081,148.111 62.7105,148.084 62.7131,148.057 62.7131,148.057 62.716,148.03 62.7191,148.003 62.7224,147.976 62.7259,147.949 62.7296,147.922 62.7335,147.895 62.7377,147.868 62.7421,147.842 62.7421,147.842 62.7467,147.815 62.7516,147.787 62.7567,147.76 62.762,147.733 62.7675,147.707 62.7732,147.68 62.7792,147.653 62.7853,147.626 62.7853,147.626 62.7918,147.599 62.7985,147.572 62.8054,147.545 62.8125,147.518 62.8199,147.491 62.8274,147.464 62.8352,147.437 62.8431,147.41 62.8431,147.41 62.8515,147.383 62.86,147.355 62.8688,147.328 62.8778,147.301 62.887,147.274 62.8964,147.247 62.906,147.22 62.9158,147.193 62.9158,147.193 62.926,147.166 62.9365,147.139 62.9471,147.111 62.958,147.084 62.969,147.057 62.9803,147.03 62.9918,147.003 63.0034,146.976 63.0034,146.976 63.0282,146.921 63.0539,146.865 63.0803,146.81 63.1075,146.756 63.1354,146.702 63.164,146.648 63.1934,146.595 63.2234,146.541 66.844,140.453 66.8762,140.399 66.9093,140.345 66.9432,140.292 66.9779,140.239 67.0135,140.187 67.0499,140.136 67.0871,140.085 67.1252,140.034 67.1252,140.034 67.1439,140.01 67.1628,139.986 67.1819,139.963 67.2012,139.939 67.2206,139.915 67.2403,139.892 67.2602,139.869 67.2802,139.846 67.2802,139.846 67.3001,139.824 67.3201,139.802 67.3403,139.779 67.3607,139.758 67.3812,139.736 67.4019,139.714 67.4228,139.693 67.4439,139.672 67.4439,139.672 67.4648,139.651 67.4859,139.631 67.5071,139.611 67.5285,139.59 67.5501,139.571 67.5719,139.551 67.5938,139.531 67.6158,139.512 67.6158,139.512 67.6377,139.493 67.6598,139.474 67.682,139.455 67.7043,139.437 67.7269,139.419 67.7495,139.4 67.7723,139.383 67.7953,139.365 67.7953,139.365 67.8182,139.347 67.8412,139.33 67.8644,139.313 67.8877,139.296 67.9111,139.28 67.9347,139.263 67.9584,139.247 67.9822,139.231 67.9822,139.231 68.006,139.215 68.0299,139.199 68.054,139.184 68.0781,139.169 68.1024,139.154 68.1268,139.139 68.1513,139.124 68.1759,139.109 68.1759,139.109 68.2006,139.095 68.2253,139.081 68.2502,139.067 68.2751,139.053 68.3001,139.04 68.3253,139.026 68.3506,139.013 68.3759,139.0 68.3759,139.0 68.4014,138.987 68.4269,138.974 68.4526,138.962 68.4783,138.949 68.5041,138.937 68.53,138.925 68.556,138.913 68.582,138.902 68.582,138.902 68.6082,138.89 68.6345,138.879 68.6609,138.868 68.6873,138.857 68.7138,138.846 68.7404,138.836 68.767,138.825 68.7937,138.815 68.7937,138.815 68.8206,138.805 68.8476,138.795 68.8746,138.785 68.9017,138.775 68.9288,138.766 68.956,138.756 68.9833,138.747 69.0106,138.738 69.0106,138.738 69.0381,138.729 69.0656,138.721 69.0932,138.712 69.1209,138.704 69.1486,138.696 69.1764,138.688 69.2042,138.68 69.2321,138.672 69.2321,138.672 69.2602,138.664 69.2883,138.657 69.3165,138.649 69.3447,138.642 69.3729,138.635 69.4012,138.628 69.4295,138.622 69.4579,138.615 69.4579,138.615 69.4865,138.608 69.5151,138.602 69.5438,138.596 69.5725,138.59 69.6012,138.584 69.63,138.578 69.6588,138.573 69.6876,138.567 69.9207,138.528 69.9501,138.524 69.9796,138.519 70.009,138.515 70.0385,138.512 70.0681,138.508 70.0976,138.504 70.1272,138.5 70.1567,138.497 70.1567,138.497 70.1865,138.494 70.2163,138.491 70.2461,138.487 70.276,138.485 70.3058,138.482 70.3357,138.479 70.3655,138.476 70.3954,138.474 70.3954,138.474 70.4255,138.471 70.4556,138.469 70.4857,138.467 70.5158,138.465 70.5459,138.463 70.576,138.461 70.6062,138.459 70.6363,138.458 70.6363,138.458 70.697,138.455 70.7578,138.452 70.8185,138.45 70.8793,138.449 70.94,138.447 71.0008,138.446 71.0616,138.446 71.1224,138.446 71.4184,138.446 72.9326,141.342 69.6413,147.2 67.5679,147.2 70.8261,141.408" fill="none" stroke="black" stroke-width="0.1"/>
        <polygon id="_132511232" points="75.6311,151.347 76.5198,149.735 74.6111,149.735 78.7909,140.256 81.8517,140.256 82.7734,138.611 77.5402,138.611 72.5705,149.735 71.4184,149.735 66.5807,158.358 71.6818,158.358 72.603,156.712 69.6086,156.712 72.6362,151.347" fill="none" stroke="black" stroke-width="0.1"/>
        <polygon id="_131839120" points="88.2039,138.611 86.1302,138.611 75.0388,158.358 79.9427,158.358 80.8643,156.712 78.0339,156.712" fill="none" stroke="black" stroke-width="0.1"/>
        <polygon id="_131531760" points="101.336,151.347 102.224,149.735 100.315,149.735 104.462,140.256 107.556,140.256 108.478,138.611 103.244,138.611 98.275,149.735 97.1228,149.735 92.2849,158.358 97.3863,158.358 98.3079,156.712 95.2798,156.712 98.3079,151.347" fill="none" stroke="black" stroke-width="0.1"/>
        <polygon id="_131379720_1" points="134.906,155.494 144.351,138.611 142.246,138.611 133.358,154.474 133.33,154.527 133.302,154.581 133.274,154.635 133.247,154.689 133.22,154.743 133.193,154.797 133.167,154.852 133.142,154.907 133.142,154.907 133.13,154.933 133.118,154.959 133.107,154.985 133.095,155.011 133.084,155.037 133.073,155.064 133.062,155.09 133.051,155.116 133.051,155.116 133.041,155.141 133.03,155.167 133.02,155.192 133.01,155.217 133.001,155.243 132.991,155.268 132.981,155.293 132.972,155.319 132.972,155.319 132.963,155.343 132.954,155.368 132.946,155.392 132.937,155.417 132.929,155.442 132.921,155.466 132.913,155.491 132.905,155.516 132.905,155.516 132.897,155.539 132.89,155.563 132.883,155.587 132.876,155.611 132.869,155.634 132.862,155.658 132.855,155.682 132.849,155.706 132.849,155.706 132.843,155.729 132.837,155.752 132.831,155.775 132.825,155.798 132.82,155.821 132.814,155.844 132.809,155.867 132.804,155.89 132.804,155.89 132.799,155.913 132.795,155.935 132.79,155.957 132.786,155.979 132.782,156.002 132.778,156.024 132.774,156.046 132.77,156.069 132.77,156.069 132.767,156.09 132.763,156.111 132.76,156.133 132.757,156.154 132.754,156.176 132.752,156.197 132.749,156.219 132.747,156.241 132.747,156.241 132.745,156.261 132.743,156.282 132.741,156.303 132.739,156.323 132.738,156.344 132.736,156.365 132.735,156.386 132.734,156.406 132.734,156.406 132.733,156.426 132.732,156.446 132.732,156.466 132.731,156.486 132.731,156.506 132.731,156.526 132.731,156.546 132.731,156.566 132.731,156.566 132.731,156.585 132.732,156.604 132.732,156.623 132.733,156.643 132.734,156.662 132.735,156.681 132.736,156.7 132.738,156.719 132.738,156.719 132.739,156.738 132.741,156.756 132.743,156.775 132.744,156.793 132.747,156.811 132.749,156.83 132.751,156.848 132.754,156.867 132.754,156.867 132.756,156.884 132.759,156.902 132.762,156.92 132.765,156.937 132.769,156.955 132.772,156.973 132.776,156.99 132.779,157.008 132.779,157.008 132.783,157.025 132.787,157.042 132.791,157.059 132.795,157.075 132.8,157.092 132.804,157.109 132.809,157.126 132.814,157.143 132.814,157.143 132.819,157.159 132.824,157.175 132.829,157.191 132.834,157.207 132.84,157.223 132.845,157.239 132.851,157.255 132.857,157.271 132.857,157.271 132.863,157.287 132.869,157.302 132.875,157.318 132.882,157.333 132.888,157.348 132.895,157.364 132.902,157.379 132.909,157.394 132.909,157.394 132.916,157.409 132.923,157.423 132.93,157.438 132.937,157.453 132.945,157.467 132.953,157.482 132.96,157.496 132.968,157.51 132.968,157.51 132.976,157.524 132.984,157.538 132.993,157.552 133.001,157.566 133.01,157.58 133.018,157.594 133.027,157.607 133.036,157.621 133.036,157.621 133.045,157.634 133.054,157.647 133.063,157.66 133.073,157.673 133.082,157.686 133.092,157.699 133.101,157.712 133.111,157.725 133.111,157.725 133.121,157.737 133.131,157.75 133.141,157.762 133.152,157.774 133.162,157.787 133.172,157.799 133.183,157.811 133.194,157.823 133.194,157.823 133.205,157.834 133.215,157.846 133.226,157.858 133.238,157.869 133.249,157.881 133.26,157.892 133.272,157.903 133.283,157.914 133.283,157.914 133.295,157.925 133.307,157.936 133.319,157.947 133.331,157.958 133.343,157.969 133.355,157.979 133.367,157.99 133.38,158.0 133.38,158.0 133.392,158.01 133.405,158.02 133.417,158.031 133.43,158.041 133.443,158.05 133.456,158.06 133.469,158.07 133.482,158.079 133.482,158.079 133.496,158.089 133.509,158.098 133.523,158.108 133.536,158.117 133.55,158.126 133.564,158.135 133.577,158.144 133.591,158.153 133.591,158.153 133.606,158.161 133.62,158.17 133.634,158.179 133.648,158.187 133.663,158.195 133.677,158.204 133.692,158.212 133.706,158.22 133.706,158.22 133.721,158.228 133.736,158.236 133.751,158.243 133.766,158.251 133.781,158.259 133.797,158.266 133.812,158.273 133.827,158.281 133.827,158.281 133.843,158.288 133.858,158.295 133.874,158.302 133.89,158.309 133.905,158.316 133.921,158.323 133.937,158.329 133.953,158.336 133.953,158.336 133.969,158.342 133.986,158.348 134.002,158.355 134.018,158.361 134.035,158.367 134.051,158.373 134.068,158.379 134.084,158.384 134.084,158.384 134.101,158.39 134.118,158.396 134.135,158.401 134.152,158.406 134.169,158.412 134.186,158.417 134.203,158.422 134.22,158.427 134.22,158.427 134.238,158.432 134.255,158.437 134.273,158.441 134.29,158.446 134.308,158.451 134.325,158.455 134.343,158.459 134.361,158.463 134.361,158.463 134.379,158.468 134.397,158.472 134.415,158.476 134.433,158.48 134.451,158.483 134.469,158.487 134.487,158.49 134.505,158.494 134.505,158.494 134.524,158.497 134.542,158.5 134.561,158.504 134.58,158.507 134.598,158.51 134.617,158.513 134.636,158.515 134.654,158.518 134.654,158.518 134.673,158.521 134.692,158.523 134.711,158.526 134.73,158.528 134.749,158.53 134.768,158.532 134.788,158.535 134.807,158.536 134.807,158.536 134.826,158.538 134.846,158.54 134.865,158.542 134.885,158.543 134.904,158.545 134.924,158.546 134.943,158.547 134.963,158.548 134.963,158.548 134.983,158.55 135.003,158.551 135.024,158.552 135.044,158.552 135.064,158.553 135.084,158.554 135.105,158.554 135.125,158.555 135.125,158.555 135.146,158.555 135.167,158.555 135.188,158.555 135.209,158.555 135.231,158.555 135.252,158.555 135.273,158.555 135.294,158.555 135.294,158.555 135.316,158.554 135.337,158.554 135.359,158.553 135.381,158.552 135.402,158.552 135.424,158.551 135.445,158.55 135.467,158.549 135.467,158.549 135.488,158.548 135.51,158.547 135.532,158.545 135.553,158.544 135.575,158.542 135.596,158.541 135.618,158.539 135.639,158.537 135.639,158.537 135.66,158.536 135.681,158.534 135.702,158.531 135.723,158.529 135.744,158.527 135.765,158.525 135.786,158.522 135.807,158.52 135.807,158.52 135.827,158.517 135.848,158.515 135.868,158.512 135.888,158.509 135.909,158.506 135.929,158.503 135.95,158.5 135.97,158.497 135.97,158.497 135.99,158.493 136.01,158.49 136.03,158.487 136.05,158.483 136.07,158.479 136.089,158.475 136.109,158.471 136.129,158.468 136.129,158.468 136.149,158.464 136.168,158.459 136.188,158.455 136.207,158.451 136.226,158.446 136.246,158.442 136.265,158.437 136.285,158.433 136.285,158.433 136.304,158.428 136.323,158.423 136.342,158.418 136.361,158.413 136.38,158.408 136.398,158.403 136.417,158.397 136.436,158.392 136.436,158.392 136.455,158.386 136.473,158.381 136.492,158.375 136.511,158.369 136.529,158.363 136.548,158.357 136.566,158.351 136.584,158.345 136.584,158.345 136.602,158.339 136.621,158.332 136.639,158.326 136.657,158.319 136.675,158.313 136.693,158.306 136.711,158.299 136.729,158.292 136.729,158.292 136.747,158.285 136.765,158.278 136.783,158.271 136.8,158.263 136.818,158.256 136.836,158.249 136.853,158.241 136.871,158.233 136.871,158.233 136.888,158.226 136.906,158.218 136.923,158.21 136.94,158.202 136.958,158.194 136.975,158.185 136.992,158.177 137.009,158.169 137.009,158.169 137.027,158.16 137.044,158.152 137.061,158.143 137.078,158.134 137.095,158.125 137.112,158.116 137.129,158.107 137.145,158.098 137.145,158.098 137.162,158.089 137.179,158.08 137.196,158.07 137.212,158.06 137.229,158.051 137.245,158.041 137.262,158.031 137.279,158.022 137.279,158.022 137.295,158.012 137.312,158.001 137.328,157.991 137.344,157.981 137.361,157.971 137.377,157.96 137.393,157.95 137.409,157.939 137.409,157.939 137.426,157.928 137.442,157.917 137.458,157.906 137.474,157.895 137.49,157.884 137.506,157.873 137.522,157.862 137.538,157.85 137.538,157.85 137.554,157.839 137.57,157.827 137.586,157.815 137.601,157.803 137.617,157.792 137.633,157.78 137.649,157.768 137.664,157.756 137.664,157.756 137.68,157.743 137.696,157.731 137.711,157.718 137.727,157.706 137.743,157.693 137.758,157.68 137.774,157.668 137.789,157.655 137.789,157.655 137.804,157.642 137.82,157.629 137.835,157.615 137.851,157.602 137.866,157.589 137.881,157.575 137.897,157.562 137.912,157.548 137.912,157.548 137.927,157.534 137.942,157.52 137.958,157.506 137.973,157.492 137.988,157.478 138.003,157.464 138.018,157.45 138.033,157.435 138.033,157.435 138.048,157.421 138.063,157.406 138.078,157.391 138.094,157.376 138.108,157.361 138.123,157.346 138.138,157.331 138.153,157.316 138.153,157.316 138.168,157.301 138.183,157.285 138.198,157.27 138.213,157.254 138.228,157.238 138.243,157.223 138.257,157.207 138.272,157.191 138.272,157.191 138.287,157.175 138.302,157.159 138.317,157.142 138.331,157.126 138.346,157.109 138.361,157.093 138.375,157.077 138.39,157.06 138.39,157.06 138.405,157.043 138.42,157.026 138.434,157.009 138.449,156.992 138.463,156.974 138.478,156.957 138.493,156.94 138.507,156.923 138.507,156.923 138.522,156.905 138.536,156.887 138.551,156.869 138.566,156.851 138.58,156.833 138.595,156.815 138.609,156.797 138.623,156.779 138.623,156.779 138.638,156.761 138.653,156.742 138.667,156.723 138.682,156.705 138.696,156.686 138.711,156.667 138.725,156.648 138.739,156.629 138.739,156.629 138.754,156.61 138.769,156.591 138.783,156.571 138.798,156.552 138.812,156.532 138.827,156.513 138.841,156.493 138.855,156.474 138.855,156.474 138.87,156.453 138.885,156.433 138.899,156.413 138.914,156.393 138.928,156.372 138.943,156.352 138.957,156.332 138.971,156.311 138.971,156.311 138.986,156.291 139.0,156.269 139.015,156.249 139.029,156.227 139.044,156.206 139.058,156.185 139.073,156.164 139.087,156.143 139.087,156.143 139.102,156.121 139.116,156.1 139.131,156.078 139.146,156.056 139.16,156.034 139.174,156.012 139.189,155.99 139.203,155.969 139.203,155.969 139.218,155.946 139.233,155.923 139.247,155.901 139.262,155.878 139.277,155.856 139.291,155.833 139.306,155.81 139.32,155.788 139.32,155.788 139.335,155.765 139.35,155.741 139.364,155.718 139.379,155.694 139.394,155.671 139.408,155.648 139.423,155.624 139.438,155.601 139.438,155.601 139.452,155.577 139.467,155.553 139.482,155.528 139.497,155.504 139.512,155.48 139.526,155.456 139.541,155.432 139.556,155.407 139.556,155.407 139.571,155.382 139.586,155.358 139.601,155.333 139.616,155.308 139.631,155.283 139.646,155.258 139.66,155.233 139.675,155.208 139.675,155.208 139.69,155.182 139.705,155.156 139.72,155.131 139.736,155.105 139.751,155.079 139.766,155.053 139.781,155.028 139.796,155.002 139.796,155.002 139.827,154.948 139.857,154.895 139.888,154.841 139.919,154.788 139.949,154.734 139.98,154.68 140.01,154.626 140.04,154.573 148.992,138.611 146.886,138.611 138.0,154.474 137.972,154.521 137.945,154.567 137.917,154.614 137.89,154.661 137.862,154.707 137.834,154.754 137.806,154.8 137.778,154.846 137.778,154.846 137.765,154.868 137.752,154.89 137.738,154.912 137.725,154.933 137.712,154.955 137.699,154.977 137.685,154.999 137.672,155.02 137.672,155.02 137.659,155.041 137.647,155.061 137.634,155.082 137.621,155.102 137.608,155.123 137.595,155.144 137.583,155.164 137.57,155.185 137.57,155.185 137.557,155.204 137.545,155.224 137.533,155.243 137.52,155.262 137.508,155.282 137.495,155.301 137.483,155.321 137.47,155.34 137.47,155.34 137.459,155.358 137.447,155.377 137.435,155.395 137.423,155.413 137.411,155.432 137.399,155.45 137.386,155.468 137.374,155.486 137.374,155.486 137.363,155.504 137.351,155.521 137.339,155.538 137.328,155.555 137.316,155.573 137.304,155.59 137.292,155.607 137.281,155.624 137.281,155.624 137.269,155.641 137.258,155.657 137.247,155.673 137.236,155.689 137.224,155.706 137.213,155.722 137.201,155.738 137.19,155.754 137.19,155.754 137.179,155.769 137.168,155.785 137.157,155.8 137.146,155.815 137.135,155.83 137.124,155.845 137.112,155.86 137.101,155.875 137.101,155.875 137.09,155.89 137.08,155.904 137.069,155.918 137.058,155.932 137.047,155.947 137.036,155.961 137.026,155.975 137.015,155.989 137.015,155.989 137.004,156.002 136.994,156.015 136.983,156.029 136.973,156.042 136.962,156.055 136.951,156.068 136.94,156.081 136.93,156.095 136.93,156.095 136.92,156.107 136.909,156.119 136.899,156.132 136.888,156.144 136.878,156.156 136.868,156.168 136.857,156.181 136.846,156.193 136.846,156.193 136.836,156.204 136.826,156.216 136.816,156.227 136.806,156.238 136.796,156.25 136.785,156.261 136.775,156.272 136.765,156.284 136.765,156.284 136.755,156.294 136.745,156.305 136.735,156.315 136.725,156.326 136.714,156.336 136.704,156.346 136.694,156.357 136.684,156.367 136.684,156.367 136.674,156.377 136.664,156.387 136.654,156.396 136.644,156.406 136.634,156.416 136.624,156.425 136.614,156.435 136.604,156.444 136.604,156.444 136.594,156.453 136.584,156.462 136.574,156.471 136.564,156.48 136.554,156.488 136.544,156.497 136.534,156.506 136.524,156.514 136.524,156.514 136.514,156.522 136.505,156.53 136.495,156.538 136.485,156.546 136.475,156.554 136.465,156.562 136.455,156.57 136.445,156.578 136.445,156.578 136.435,156.585 136.425,156.592 136.416,156.6 136.406,156.607 136.396,156.614 136.386,156.621 136.376,156.628 136.366,156.635 136.366,156.635 136.356,156.642 136.346,156.648 136.336,156.655 136.326,156.661 136.316,156.668 136.307,156.674 136.297,156.68 136.286,156.686 136.286,156.686 136.277,156.692 136.267,156.698 136.257,156.704 136.247,156.709 136.237,156.715 136.227,156.721 136.217,156.726 136.207,156.732 136.207,156.732 136.197,156.737 136.187,156.742 136.177,156.747 136.167,156.752 136.157,156.757 136.147,156.762 136.137,156.767 136.126,156.771 136.126,156.771 136.116,156.776 136.106,156.78 136.096,156.785 136.086,156.789 136.076,156.793 136.066,156.797 136.055,156.802 136.045,156.805 136.045,156.805 136.035,156.809 136.025,156.813 136.015,156.817 136.004,156.821 135.994,156.824 135.984,156.828 135.973,156.831 135.963,156.834 135.963,156.834 135.952,156.838 135.942,156.841 135.932,156.844 135.921,156.847 135.911,156.85 135.9,156.853 135.89,156.856 135.879,156.858 135.879,156.858 135.869,156.861 135.858,156.863 135.847,156.866 135.837,156.869 135.826,156.871 135.815,156.873 135.805,156.875 135.794,156.877 135.794,156.877 135.783,156.88 135.772,156.882 135.761,156.883 135.75,156.885 135.74,156.887 135.729,156.889 135.718,156.89 135.707,156.892 135.707,156.892 135.696,156.893 135.685,156.895 135.673,156.896 135.662,156.898 135.651,156.899 135.64,156.9 135.629,156.901 135.618,156.902 135.618,156.902 135.606,156.903 135.595,156.904 135.583,156.905 135.572,156.905 135.56,156.906 135.549,156.907 135.537,156.907 135.526,156.908 135.526,156.908 135.516,156.908 135.505,156.909 135.494,156.909 135.484,156.909 135.473,156.909 135.463,156.91 135.452,156.91 135.442,156.91 135.442,156.91 135.433,156.91 135.423,156.91 135.414,156.91 135.404,156.909 135.395,156.909 135.385,156.909 135.376,156.908 135.367,156.908 135.367,156.908 135.358,156.907 135.35,156.907 135.342,156.906 135.334,156.906 135.326,156.905 135.318,156.904 135.31,156.903 135.302,156.902 135.302,156.902 135.294,156.901 135.286,156.9 135.278,156.899 135.27,156.898 135.263,156.897 135.255,156.896 135.247,156.894 135.239,156.893 135.239,156.893 135.232,156.892 135.224,156.89 135.217,156.889 135.209,156.887 135.202,156.886 135.194,156.884 135.187,156.882 135.179,156.88 135.179,156.88 135.172,156.878 135.165,156.876 135.158,156.875 135.151,156.872 135.143,156.87 135.136,156.868 135.129,156.866 135.122,156.864 135.122,156.864 135.115,156.861 135.108,156.859 135.101,156.857 135.095,156.854 135.088,156.852 135.081,156.849 135.074,156.846 135.068,156.844 135.068,156.844 135.061,156.841 135.055,156.838 135.048,156.835 135.042,156.832 135.035,156.829 135.029,156.826 135.023,156.823 135.016,156.82 135.016,156.82 135.01,156.817 135.004,156.814 134.998,156.81 134.992,156.807 134.986,156.804 134.98,156.8 134.974,156.797 134.968,156.793 134.968,156.793 134.962,156.79 134.956,156.786 134.95,156.782 134.945,156.778 134.939,156.774 134.933,156.771 134.928,156.767 134.922,156.762 134.922,156.762 134.917,156.759 134.912,156.754 134.906,156.75 134.901,156.746 134.896,156.742 134.891,156.737 134.886,156.733 134.881,156.729 134.881,156.729 134.875,156.724 134.871,156.72 134.866,156.715 134.861,156.71 134.856,156.706 134.851,156.701 134.847,156.696 134.842,156.691 134.842,156.691 134.838,156.686 134.833,156.682 134.829,156.677 134.824,156.671 134.82,156.666 134.816,156.661 134.812,156.656 134.807,156.651 134.807,156.651 134.803,156.645 134.799,156.64 134.795,156.635 134.791,156.629 134.787,156.624 134.784,156.618 134.78,156.612 134.776,156.607 134.776,156.607 134.773,156.601 134.769,156.595 134.766,156.589 134.762,156.584 134.759,156.578 134.756,156.572 134.752,156.566 134.749,156.56 134.749,156.56 134.746,156.553 134.743,156.547 134.74,156.541 134.737,156.535 134.734,156.528 134.732,156.522 134.729,156.516 134.726,156.509 134.726,156.509 134.724,156.503 134.721,156.496 134.719,156.489 134.716,156.483 134.714,156.476 134.712,156.469 134.71,156.463 134.708,156.456 134.708,156.456 134.705,156.449 134.703,156.442 134.702,156.435 134.7,156.428 134.698,156.421 134.696,156.413 134.695,156.406 134.693,156.399 134.693,156.399 134.691,156.392 134.69,156.384 134.689,156.377 134.687,156.369 134.686,156.362 134.685,156.354 134.684,156.347 134.683,156.339 134.683,156.339 134.682,156.332 134.681,156.324 134.68,156.316 134.68,156.308 134.679,156.3 134.678,156.292 134.678,156.285 134.678,156.277 134.678,156.277 134.677,156.269 134.677,156.26 134.677,156.252 134.677,156.244 134.677,156.236 134.677,156.227 134.677,156.219 134.677,156.211 134.677,156.211 134.677,156.202 134.678,156.194 134.678,156.185 134.678,156.177 134.679,156.168 134.68,156.16 134.68,156.151 134.681,156.142 134.681,156.142 134.682,156.133 134.683,156.124 134.684,156.116 134.685,156.107 134.686,156.098 134.688,156.089 134.689,156.08 134.69,156.071 134.69,156.071 134.692,156.062 134.694,156.052 134.695,156.043 134.697,156.034 134.699,156.024 134.701,156.015 134.703,156.006 134.705,155.997 134.705,155.997 134.707,155.987 134.709,155.977 134.712,155.967 134.714,155.958 134.717,155.948 134.719,155.938 134.722,155.929 134.724,155.919 134.724,155.919 134.727,155.909 134.73,155.899 134.733,155.889 134.737,155.879 134.74,155.869 134.743,155.859 134.746,155.849 134.75,155.839 134.75,155.839 134.753,155.829 134.757,155.818 134.761,155.808 134.764,155.798 134.768,155.787 134.772,155.777 134.776,155.767 134.78,155.757 134.78,155.757 134.785,155.746 134.789,155.735 134.793,155.724 134.798,155.714 134.802,155.703 134.807,155.692 134.812,155.682 134.816,155.671 134.816,155.671 134.827,155.649 134.837,155.626 134.848,155.604 134.859,155.582 134.871,155.56 134.882,155.537 134.894,155.516" fill="none" stroke="black" stroke-width="0.1"/>
        <polygon id="_132136424" points="157.682,138.611 151.823,138.611 150.901,140.256 154.094,140.256 140.37,158.358 146.491,158.358 147.413,156.712 143.892,156.712" fill="none" stroke="black" stroke-width="0.1"/>
        <polygon id="_132150832" points="165.943,138.611 160.084,138.611 159.162,140.256 162.355,140.256 148.631,158.358 154.752,158.358 155.673,156.712 152.152,156.712" fill="none" stroke="black" stroke-width="0.1"/>
        <polygon id="_132204424" points="170.912,138.611 168.839,138.611 157.747,158.358 162.651,158.358 163.572,156.712 160.742,156.712" fill="none" stroke="black" stroke-width="0.1"/>
        <polygon id="_132141592" points="174.17,151.347 175.06,149.735 173.15,149.735 177.297,140.256 180.391,140.256 181.312,138.611 176.046,138.611 171.11,149.735 169.925,149.735 165.087,158.358 170.221,158.358 171.142,156.712 168.115,156.712 171.142,151.347" fill="none" stroke="black" stroke-width="0.1"/>
        <polygon id="_131954472___1_2" points="106.536,152.006 107.425,152.006 105.845,158.358 107.82,158.358 109.333,151.907 109.379,151.897 109.425,151.887 109.471,151.877 109.517,151.866 109.563,151.854 109.608,151.841 109.654,151.829 109.699,151.815 109.699,151.815 109.721,151.808 109.743,151.801 109.765,151.794 109.787,151.787 109.809,151.779 109.831,151.772 109.853,151.764 109.875,151.756 110.047,151.687 110.068,151.678 110.09,151.668 110.111,151.659 110.132,151.649 110.153,151.639 110.174,151.629 110.195,151.619 110.216,151.609 110.216,151.609 110.237,151.598 110.257,151.588 110.278,151.577 110.299,151.566 110.32,151.555 110.34,151.543 110.361,151.532 110.381,151.52 110.381,151.52 110.402,151.508 110.422,151.496 110.443,151.484 110.463,151.472 110.483,151.459 110.503,151.447 110.523,151.434 110.543,151.421 110.543,151.421 110.564,151.408 110.584,151.394 110.604,151.381 110.624,151.367 110.644,151.353 110.664,151.339 110.684,151.325 110.703,151.311 110.703,151.311 110.724,151.296 110.744,151.281 110.763,151.266 110.783,151.251 110.803,151.235 110.823,151.22 110.842,151.204 110.862,151.189 110.862,151.189 110.881,151.172 110.901,151.156 110.921,151.139 110.941,151.123 110.96,151.106 110.98,151.089 110.999,151.072 111.018,151.055 111.018,151.055 111.038,151.037 111.058,151.019 111.077,151.001 111.096,150.983 111.116,150.964 111.135,150.946 111.154,150.928 111.173,150.909 111.173,150.909 111.193,150.889 111.213,150.87 111.232,150.85 111.251,150.83 111.271,150.81 111.29,150.79 111.309,150.77 111.328,150.75 111.328,150.75 111.348,150.729 111.367,150.708 111.387,150.686 111.406,150.665 111.425,150.643 111.444,150.622 111.463,150.6 111.482,150.578 111.482,150.578 111.502,150.555 111.522,150.532 111.541,150.509 111.56,150.486 111.58,150.463 111.599,150.439 111.618,150.416 111.637,150.392 111.637,150.392 111.656,150.368 111.676,150.343 111.696,150.318 111.715,150.293 111.735,150.268 111.754,150.243 111.773,150.218 111.792,150.193 111.792,150.193 111.812,150.166 111.832,150.14 111.851,150.113 111.871,150.086 111.89,150.059 111.91,150.033 111.929,150.006 111.948,149.979 111.948,149.979 111.968,149.95 111.988,149.922 112.008,149.893 112.028,149.865 112.047,149.836 112.067,149.807 112.086,149.779 112.106,149.75 112.106,149.75 112.126,149.719 112.146,149.689 112.166,149.659 112.186,149.628 112.206,149.597 112.226,149.567 112.245,149.536 112.265,149.505 112.265,149.505 112.286,149.473 112.306,149.441 112.326,149.408 112.346,149.376 112.367,149.343 112.387,149.311 112.407,149.278 112.427,149.245 112.427,149.245 112.469,149.176 112.511,149.106 112.552,149.035 112.594,148.965 112.635,148.894 112.675,148.823 112.716,148.752 112.756,148.681 116.804,141.44 115.323,138.611 111.933,138.611 100.842,158.358 102.948,158.358 107.457,150.36 113.118,140.256 114.04,140.256 114.665,141.473 110.814,148.352 110.782,148.408 110.75,148.463 110.718,148.519 110.686,148.574 110.653,148.629 110.62,148.684 110.586,148.738 110.552,148.793 110.552,148.793 110.536,148.818 110.521,148.843 110.505,148.868 110.488,148.892 110.472,148.917 110.456,148.942 110.44,148.967 110.423,148.991 110.423,148.991 110.408,149.014 110.392,149.037 110.376,149.06 110.36,149.083 110.344,149.106 110.328,149.129 110.312,149.152 110.296,149.174 110.296,149.174 110.28,149.195 110.265,149.217 110.249,149.238 110.233,149.259 110.217,149.28 110.201,149.301 110.185,149.321 110.169,149.342 110.169,149.342 110.153,149.361 110.138,149.381 110.122,149.4 110.106,149.419 110.09,149.438 110.074,149.457 110.058,149.476 110.042,149.495 110.042,149.495 110.027,149.513 110.011,149.531 109.995,149.548 109.979,149.565 109.963,149.583 109.947,149.6 109.931,149.617 109.915,149.634 109.915,149.634 109.899,149.65 109.883,149.666 109.867,149.682 109.851,149.698 109.835,149.713 109.819,149.729 109.803,149.744 109.786,149.759 109.786,149.759 109.77,149.774 109.754,149.788 109.738,149.803 109.722,149.817 109.706,149.831 109.689,149.844 109.673,149.858 109.656,149.872 109.656,149.872 109.64,149.884 109.623,149.897 109.607,149.91 109.59,149.922 109.574,149.935 109.557,149.947 109.54,149.959 109.523,149.971 109.523,149.971 109.506,149.982 109.489,149.993 109.473,150.004 109.456,150.015 109.439,150.026 109.421,150.037 109.404,150.047 109.387,150.058 109.387,150.058 109.37,150.067 109.352,150.077 109.335,150.087 109.318,150.096 109.3,150.106 109.283,150.115 109.265,150.124 109.247,150.132 109.247,150.132 109.229,150.141 109.212,150.149 109.194,150.157 109.176,150.165 109.158,150.173 109.14,150.181 109.121,150.188 109.103,150.196 109.103,150.196 109.085,150.203 109.066,150.21 109.048,150.217 109.029,150.223 109.01,150.23 108.992,150.236 108.973,150.242 108.954,150.248 108.954,150.248 108.935,150.254 108.916,150.259 108.896,150.265 108.877,150.27 108.858,150.275 108.838,150.28 108.819,150.285 108.799,150.29 108.799,150.29 108.779,150.294 108.759,150.298 108.739,150.303 108.719,150.307 108.699,150.311 108.679,150.314 108.659,150.318 108.638,150.321 108.638,150.321 108.618,150.325 108.597,150.328 108.576,150.331 108.555,150.333 108.534,150.336 108.513,150.339 108.492,150.341 108.471,150.343 108.471,150.343 108.427,150.347 108.382,150.351 108.338,150.354 108.293,150.356 108.249,150.358 108.205,150.359 108.16,150.36 108.116,150.36 107.457,150.36" fill="none" stroke="black" stroke-width="0.1"/>
    </g>
</svg>
