<!DOCTYPE svg PUBLIC "-//W3C//DTD SVG 1.1//EN" "http://www.w3.org/Graphics/SVG/1.1/DTD/svg11.dtd">
<svg xmlns="http://www.w3.org/2000/svg" width="297mm" height="210mm" viewBox="0 0 297 210">
    <defs id="_tag_46_"/>
    <g id="trashNode_001"/>
    <g id="_tag_47_">
        <polygon id="_132204712___0" points="115.897,162.225 118.794,162.225 118.873,162.225 118.952,162.223 119.03,162.222 119.109,162.219 119.188,162.216 119.266,162.211 119.345,162.206 119.423,162.2 119.423,162.2 119.461,162.197 119.499,162.193 119.536,162.19 119.574,162.186 119.612,162.182 119.649,162.177 119.687,162.173 119.724,162.168 119.724,162.168 119.761,162.163 119.798,162.158 119.834,162.153 119.871,162.147 119.907,162.141 119.944,162.135 119.98,162.129 120.016,162.123 120.016,162.123 120.052,162.116 120.087,162.109 120.123,162.102 120.158,162.095 120.194,162.087 120.229,162.079 120.264,162.072 120.299,162.063 120.299,162.063 120.334,162.055 120.368,162.046 120.403,162.037 120.437,162.029 120.471,162.019 120.506,162.01 120.54,162.0 120.574,161.99 120.574,161.99 120.608,161.98 120.641,161.969 120.675,161.959 120.708,161.948 120.742,161.937 120.775,161.925 120.808,161.914 120.841,161.902 120.841,161.902 120.874,161.89 120.907,161.878 120.939,161.865 120.972,161.852 121.004,161.839 121.037,161.826 121.069,161.813 121.101,161.799 121.101,161.799 121.133,161.785 121.165,161.771 121.197,161.757 121.228,161.742 121.26,161.727 121.291,161.712 121.323,161.697 121.354,161.681 121.354,161.681 121.385,161.665 121.416,161.649 121.447,161.633 121.478,161.616 121.509,161.6 121.54,161.583 121.57,161.565 121.601,161.548 121.601,161.548 121.631,161.53 121.662,161.512 121.692,161.493 121.722,161.475 121.753,161.456 121.782,161.437 121.812,161.418 121.842,161.398 121.842,161.398 121.872,161.378 121.902,161.358 121.932,161.338 121.961,161.317 121.991,161.297 122.02,161.275 122.049,161.254 122.078,161.233 122.078,161.233 122.108,161.211 122.137,161.189 122.166,161.166 122.195,161.144 122.224,161.121 122.253,161.098 122.281,161.074 122.31,161.051 122.31,161.051 122.339,161.027 122.368,161.002 122.396,160.978 122.425,160.953 122.453,160.928 122.481,160.903 122.509,160.878 122.537,160.852 122.537,160.852 122.566,160.826 122.594,160.799 122.622,160.773 122.65,160.746 122.678,160.718 122.706,160.691 122.734,160.664 122.761,160.636 122.761,160.636 122.789,160.608 122.817,160.579 122.845,160.55 122.873,160.521 122.9,160.492 122.928,160.462 122.955,160.433 122.982,160.403 122.982,160.403 123.01,160.372 123.038,160.341 123.065,160.31 123.093,160.278 123.12,160.247 123.147,160.215 123.174,160.184 123.201,160.152 123.201,160.152 123.229,160.118 123.256,160.085 123.283,160.052 123.31,160.018 123.337,159.984 123.364,159.95 123.391,159.916 123.418,159.882 123.418,159.882 123.445,159.847 123.472,159.811 123.5,159.775 123.527,159.739 123.553,159.703 123.58,159.667 123.607,159.631 123.633,159.594 123.633,159.594 123.66,159.556 123.688,159.518 123.715,159.48 123.741,159.442 123.768,159.404 123.795,159.365 123.821,159.326 123.848,159.288 123.848,159.288 123.875,159.247 123.902,159.207 123.929,159.166 123.956,159.126 123.983,159.085 124.009,159.044 124.036,159.003 124.062,158.962 124.062,158.962 124.089,158.919 124.116,158.876 124.143,158.833 124.17,158.79 124.197,158.747 124.224,158.703 124.25,158.66 124.277,158.617 124.277,158.617 124.332,158.524 124.387,158.432 124.441,158.339 124.495,158.246 124.548,158.153 124.601,158.059 124.654,157.966 124.706,157.872 126.585,154.481 125.439,152.281 125.523,152.265 125.607,152.248 125.691,152.229 125.775,152.21 125.858,152.189 125.941,152.167 126.024,152.144 126.107,152.119 126.107,152.119 126.146,152.107 126.185,152.095 126.224,152.082 126.263,152.069 126.301,152.056 126.34,152.042 126.379,152.028 126.417,152.014 126.417,152.014 126.455,152.0 126.492,151.986 126.529,151.971 126.566,151.956 126.603,151.941 126.639,151.925 126.676,151.91 126.713,151.893 126.713,151.893 126.748,151.877 126.784,151.861 126.819,151.844 126.854,151.828 126.889,151.81 126.924,151.793 126.959,151.775 126.993,151.757 126.993,151.757 127.027,151.739 127.061,151.721 127.095,151.703 127.128,151.684 127.162,151.665 127.195,151.646 127.228,151.626 127.261,151.607 127.261,151.607 127.293,151.587 127.326,151.567 127.358,151.546 127.39,151.526 127.421,151.505 127.453,151.484 127.485,151.463 127.516,151.441 127.516,151.441 127.547,151.419 127.578,151.398 127.608,151.375 127.639,151.353 127.67,151.33 127.7,151.308 127.73,151.284 127.76,151.261 127.76,151.261 127.79,151.238 127.819,151.214 127.849,151.19 127.878,151.166 127.907,151.141 127.936,151.117 127.965,151.092 127.993,151.067 127.993,151.067 128.022,151.042 128.05,151.016 128.079,150.991 128.107,150.965 128.135,150.939 128.163,150.912 128.19,150.886 128.218,150.86 128.218,150.86 128.245,150.832 128.273,150.805 128.3,150.778 128.327,150.75 128.354,150.722 128.381,150.694 128.408,150.666 128.434,150.638 128.434,150.638 128.461,150.609 128.487,150.58 128.514,150.551 128.54,150.522 128.566,150.493 128.592,150.463 128.618,150.433 128.643,150.404 128.643,150.404 128.669,150.373 128.695,150.342 128.721,150.312 128.746,150.281 128.772,150.25 128.797,150.219 128.822,150.187 128.847,150.156 128.847,150.156 128.872,150.124 128.897,150.092 128.922,150.059 128.947,150.027 128.972,149.994 128.996,149.961 129.021,149.929 129.045,149.896 129.045,149.896 129.07,149.862 129.095,149.828 129.119,149.794 129.143,149.76 129.168,149.726 129.192,149.692 129.216,149.658 129.24,149.623 129.24,149.623 129.264,149.588 129.289,149.553 129.313,149.517 129.337,149.482 129.361,149.446 129.385,149.41 129.408,149.374 129.432,149.338 129.432,149.338 129.456,149.302 129.48,149.265 129.504,149.227 129.528,149.19 129.552,149.154 129.575,149.116 129.599,149.079 129.623,149.042 129.623,149.042 129.647,149.003 129.671,148.965 129.694,148.927 129.718,148.888 129.742,148.849 129.766,148.811 129.789,148.772 129.812,148.733 129.812,148.733 129.837,148.694 129.86,148.654 129.884,148.614 129.908,148.574 129.932,148.534 129.956,148.494 129.979,148.454 130.003,148.414 130.003,148.414 130.052,148.331 130.1,148.247 130.149,148.164 130.197,148.08 130.245,147.996 130.293,147.912 130.34,147.829 130.388,147.745 135.383,138.763 133.275,134.731 128.418,134.731 123.986,142.621 119.821,150.036 118.48,152.423 112.975,162.225 115.897,162.225 117.19,159.934 121.406,152.465 122.781,150.036 130.067,137.022 131.488,137.022 132.45,138.855 127.776,147.24 127.732,147.318 127.687,147.395 127.642,147.472 127.597,147.549 127.551,147.626 127.505,147.702 127.458,147.778 127.411,147.854 127.411,147.854 127.389,147.889 127.367,147.923 127.345,147.958 127.322,147.993 127.3,148.027 127.277,148.062 127.255,148.096 127.232,148.13 127.232,148.13 127.21,148.162 127.188,148.195 127.166,148.226 127.144,148.259 127.122,148.29 127.099,148.322 127.077,148.353 127.054,148.385 127.054,148.385 127.032,148.415 127.011,148.444 126.989,148.474 126.967,148.503 126.945,148.532 126.922,148.561 126.9,148.59 126.877,148.619 126.877,148.619 126.856,148.646 126.834,148.673 126.812,148.699 126.79,148.726 126.768,148.753 126.746,148.779 126.724,148.806 126.701,148.832 126.701,148.832 126.679,148.857 126.657,148.881 126.636,148.906 126.613,148.93 126.591,148.954 126.569,148.978 126.546,149.002 126.524,149.025 126.524,149.025 126.502,149.048 126.48,149.07 126.458,149.092 126.435,149.114 126.413,149.136 126.39,149.157 126.368,149.179 126.345,149.2 126.345,149.2 126.322,149.22 126.3,149.24 126.278,149.26 126.255,149.279 126.232,149.299 126.209,149.318 126.186,149.337 126.163,149.356 126.163,149.356 126.14,149.374 126.118,149.392 126.095,149.409 126.072,149.427 126.048,149.444 126.025,149.461 126.001,149.477 125.978,149.494 125.978,149.494 125.955,149.51 125.931,149.525 125.908,149.541 125.884,149.556 125.861,149.571 125.837,149.586 125.813,149.6 125.788,149.615 125.788,149.615 125.765,149.629 125.741,149.642 125.717,149.656 125.692,149.669 125.668,149.682 125.643,149.694 125.619,149.707 125.594,149.719 125.594,149.719 125.569,149.731 125.544,149.742 125.519,149.754 125.494,149.765 125.469,149.776 125.444,149.787 125.419,149.797 125.393,149.807 125.393,149.807 125.368,149.817 125.342,149.827 125.316,149.836 125.29,149.846 125.264,149.855 125.238,149.863 125.212,149.872 125.186,149.88 125.186,149.88 125.159,149.888 125.132,149.896 125.106,149.904 125.079,149.911 125.052,149.918 125.025,149.925 124.998,149.932 124.971,149.938 124.971,149.938 124.943,149.944 124.915,149.95 124.887,149.956 124.859,149.962 124.831,149.967 124.803,149.972 124.775,149.977 124.747,149.982 124.747,149.982 124.718,149.987 124.688,149.991 124.659,149.995 124.63,149.999 124.601,150.003 124.572,150.006 124.542,150.01 124.513,150.012 124.513,150.012 124.451,150.018 124.39,150.023 124.328,150.027 124.266,150.03 124.204,150.033 124.142,150.035 124.08,150.036 124.018,150.036 122.781,150.036 121.406,152.465 122.552,152.465 123.652,154.572 122.232,157.138 122.189,157.214 122.146,157.29 122.102,157.366 122.058,157.442 122.014,157.517 121.969,157.592 121.923,157.666 121.877,157.741 121.877,157.741 121.855,157.775 121.833,157.809 121.811,157.844 121.789,157.878 121.767,157.912 121.744,157.946 121.722,157.979 121.699,158.013 121.699,158.013 121.678,158.045 121.656,158.077 121.634,158.108 121.612,158.14 121.59,158.171 121.567,158.203 121.545,158.234 121.522,158.265 121.522,158.265 121.5,158.295 121.479,158.324 121.457,158.353 121.434,158.382 121.412,158.411 121.39,158.44 121.367,158.469 121.344,158.497 121.344,158.497 121.323,158.524 121.301,158.551 121.279,158.578 121.256,158.605 121.234,158.631 121.211,158.657 121.189,158.684 121.166,158.71 121.166,158.71 121.144,158.735 121.121,158.759 121.099,158.784 121.077,158.808 121.054,158.832 121.031,158.856 121.008,158.88 120.985,158.903 120.985,158.903 120.963,158.926 120.94,158.948 120.917,158.97 120.895,158.992 120.872,159.014 120.849,159.036 120.825,159.057 120.802,159.079 120.802,159.079 120.779,159.099 120.756,159.119 120.733,159.139 120.71,159.159 120.686,159.178 120.663,159.198 120.639,159.217 120.615,159.236 120.615,159.236 120.592,159.254 120.569,159.272 120.545,159.29 120.521,159.307 120.497,159.325 120.473,159.342 120.449,159.359 120.425,159.376 120.425,159.376 120.401,159.392 120.377,159.408 120.353,159.423 120.328,159.439 120.304,159.454 120.279,159.469 120.255,159.484 120.23,159.499 120.23,159.499 120.205,159.513 120.18,159.527 120.156,159.54 120.131,159.554 120.106,159.567 120.08,159.58 120.055,159.593 120.03,159.605 120.03,159.605 120.004,159.617 119.979,159.629 119.953,159.641 119.927,159.652 119.901,159.663 119.875,159.674 119.849,159.685 119.823,159.696 119.823,159.696 119.797,159.706 119.771,159.716 119.744,159.726 119.718,159.735 119.691,159.744 119.664,159.753 119.637,159.762 119.61,159.771 119.61,159.771 119.583,159.779 119.556,159.787 119.528,159.795 119.501,159.803 119.473,159.81 119.446,159.817 119.418,159.824 119.39,159.831 119.39,159.831 119.362,159.838 119.334,159.844 119.305,159.85 119.277,159.856 119.248,159.861 119.22,159.867 119.191,159.872 119.162,159.877 119.162,159.877 119.133,159.882 119.103,159.886 119.074,159.891 119.044,159.895 119.015,159.899 118.985,159.902 118.956,159.906 118.926,159.909 118.926,159.909 118.864,159.915 118.802,159.92 118.739,159.924 118.677,159.928 118.615,159.93 118.552,159.932 118.49,159.933 118.428,159.934 117.19,159.934" fill="none" stroke="black" stroke-width="0.1"/>
        <polygon id="_132204712___0_0" points="76.2126,162.225 79.1101,162.225 79.1887,162.225 79.2674,162.223 79.3461,162.222 79.4247,162.219 79.5034,162.216 79.5819,162.211 79.6605,162.206 79.739,162.2 79.739,162.2 79.7767,162.197 79.8143,162.193 79.8521,162.19 79.8898,162.186 79.9274,162.182 79.965,162.177 80.0026,162.173 80.0402,162.168 80.0402,162.168 80.0768,162.163 80.1133,162.158 80.1499,162.153 80.1863,162.147 80.2228,162.141 80.2593,162.135 80.2956,162.129 80.332,162.123 80.332,162.123 80.3675,162.116 80.403,162.109 80.4385,162.102 80.4739,162.095 80.5092,162.087 80.5446,162.079 80.5798,162.072 80.615,162.063 80.615,162.063 80.6496,162.055 80.6841,162.046 80.7185,162.037 80.7529,162.029 80.7871,162.019 80.8214,162.01 80.8556,162.0 80.8898,161.99 80.8898,161.99 80.9234,161.98 80.957,161.969 80.9904,161.959 81.0238,161.948 81.0573,161.937 81.0905,161.925 81.1237,161.914 81.1568,161.902 81.1568,161.902 81.1897,161.89 81.2224,161.878 81.255,161.865 81.2875,161.852 81.32,161.839 81.3523,161.826 81.3844,161.813 81.4166,161.799 81.4166,161.799 81.4486,161.785 81.4805,161.771 81.5124,161.757 81.544,161.742 81.5756,161.727 81.6071,161.712 81.6385,161.697 81.6697,161.681 81.6697,161.681 81.7009,161.665 81.732,161.649 81.763,161.633 81.7941,161.616 81.8248,161.6 81.8555,161.583 81.8861,161.565 81.9165,161.548 81.9165,161.548 81.9471,161.53 81.9776,161.512 82.0079,161.493 82.0381,161.475 82.0682,161.456 82.0982,161.437 82.1281,161.418 82.1577,161.398 82.1577,161.398 82.1877,161.378 82.2176,161.358 82.2473,161.338 82.2769,161.317 82.3063,161.297 82.3357,161.275 82.3648,161.254 82.3939,161.233 82.3939,161.233 82.4233,161.211 82.4526,161.189 82.4817,161.166 82.5108,161.144 82.5397,161.121 82.5685,161.098 82.597,161.074 82.6254,161.051 82.6254,161.051 82.6544,161.027 82.6832,161.002 82.7119,160.978 82.7404,160.953 82.7688,160.928 82.797,160.903 82.8251,160.878 82.8529,160.852 82.8529,160.852 82.8815,160.826 82.9099,160.799 82.938,160.773 82.9661,160.746 82.9941,160.718 83.0218,160.691 83.0495,160.664 83.077,160.636 83.077,160.636 83.1051,160.608 83.1331,160.579 83.1609,160.55 83.1886,160.521 83.2162,160.492 83.2436,160.462 83.2708,160.433 83.2979,160.403 83.2979,160.403 83.3258,160.372 83.3535,160.341 83.381,160.31 83.4085,160.278 83.4358,160.247 83.4628,160.215 83.4898,160.184 83.5165,160.152 83.5165,160.152 83.5442,160.118 83.5717,160.085 83.5989,160.052 83.6261,160.018 83.6531,159.984 83.68,159.95 83.7067,159.916 83.7332,159.882 83.7332,159.882 83.7606,159.847 83.788,159.811 83.8152,159.775 83.8422,159.739 83.8689,159.703 83.8956,159.667 83.9222,159.631 83.9487,159.594 83.9487,159.594 83.976,159.556 84.0033,159.518 84.0303,159.48 84.0572,159.442 84.0839,159.404 84.1105,159.365 84.1369,159.326 84.1633,159.288 84.1633,159.288 84.1905,159.247 84.2177,159.207 84.2447,159.166 84.2714,159.126 84.2982,159.085 84.3248,159.044 84.3514,159.003 84.3777,158.962 84.3777,158.962 84.405,158.919 84.4321,158.876 84.4591,158.833 84.486,158.79 84.5127,158.747 84.5393,158.703 84.5659,158.66 84.5922,158.617 84.5922,158.617 84.6476,158.524 84.7025,158.432 84.7568,158.339 84.8107,158.246 84.864,158.153 84.9169,158.059 84.9694,157.966 85.0215,157.872 86.9003,154.481 85.7545,152.281 85.8389,152.265 85.923,152.248 86.007,152.229 86.0907,152.21 86.1741,152.189 86.257,152.167 86.3397,152.144 86.4222,152.119 86.4222,152.119 86.4613,152.107 86.5004,152.095 86.5394,152.082 86.5784,152.069 86.6171,152.056 86.6558,152.042 86.6945,152.028 86.7329,152.014 86.7329,152.014 86.7702,152.0 86.8074,151.986 86.8445,151.971 86.8815,151.956 86.9184,151.941 86.9551,151.925 86.9918,151.91 87.0282,151.893 87.0282,151.893 87.0637,151.877 87.0993,151.861 87.1346,151.844 87.1697,151.828 87.2048,151.81 87.2397,151.793 87.2745,151.775 87.3091,151.757 87.3091,151.757 87.3431,151.739 87.3769,151.721 87.4104,151.703 87.444,151.684 87.4774,151.665 87.5105,151.646 87.5437,151.626 87.5765,151.607 87.5765,151.607 87.609,151.587 87.6413,151.567 87.6734,151.546 87.7053,151.526 87.7372,151.505 87.7688,151.484 87.8003,151.463 87.8316,151.441 87.8316,151.441 87.8627,151.419 87.8936,151.398 87.9242,151.375 87.9548,151.353 87.9852,151.33 88.0154,151.308 88.0455,151.284 88.0754,151.261 88.0754,151.261 88.1052,151.238 88.1349,151.214 88.1642,151.19 88.1936,151.166 88.2227,151.141 88.2517,151.117 88.2805,151.092 88.309,151.067 88.309,151.067 88.3377,151.042 88.3661,151.016 88.3944,150.991 88.4225,150.965 88.4505,150.939 88.4784,150.912 88.5059,150.886 88.5334,150.86 88.5334,150.86 88.5609,150.832 88.5885,150.805 88.6158,150.778 88.6428,150.75 88.6698,150.722 88.6965,150.694 88.7233,150.666 88.7497,150.638 88.7497,150.638 88.7765,150.609 88.803,150.58 88.8294,150.551 88.8557,150.522 88.8817,150.493 88.9076,150.463 88.9334,150.433 88.959,150.404 88.959,150.404 88.9849,150.373 89.0106,150.342 89.0364,150.312 89.0619,150.281 89.0872,150.25 89.1124,150.219 89.1375,150.187 89.1624,150.156 89.1624,150.156 89.1876,150.124 89.2128,150.092 89.2377,150.059 89.2627,150.027 89.2874,149.994 89.3119,149.961 89.3364,149.929 89.3608,149.896 89.3608,149.896 89.3856,149.862 89.4104,149.828 89.4349,149.794 89.4592,149.76 89.4836,149.726 89.5077,149.692 89.5318,149.658 89.5556,149.623 89.5556,149.623 89.58,149.588 89.6043,149.553 89.6286,149.517 89.6525,149.482 89.6765,149.446 89.7004,149.41 89.7241,149.374 89.7477,149.338 89.7477,149.338 89.7718,149.302 89.7959,149.265 89.8199,149.227 89.8437,149.19 89.8675,149.154 89.8911,149.116 89.9147,149.079 89.9382,149.042 89.9382,149.042 89.9623,149.003 89.9862,148.965 90.0101,148.927 90.0339,148.888 90.0575,148.849 90.0812,148.811 90.1047,148.772 90.1281,148.733 90.1281,148.733 90.1522,148.694 90.1762,148.654 90.2001,148.614 90.2239,148.574 90.2477,148.534 90.2714,148.494 90.2951,148.454 90.3186,148.414 90.3186,148.414 90.3673,148.331 90.4159,148.247 90.4642,148.164 90.5124,148.08 90.5604,147.996 90.6083,147.912 90.6561,147.829 90.7037,147.745 95.6984,138.763 93.5903,134.731 88.7333,134.731 84.3017,142.621 80.1371,150.036 78.7961,152.423 73.2904,162.225 76.2126,162.225 77.5061,159.934 81.7221,152.465 83.0967,150.036 90.3826,137.022 91.8034,137.022 92.7657,138.855 88.0914,147.24 88.0474,147.318 88.003,147.395 87.958,147.472 87.9128,147.549 87.8671,147.626 87.8209,147.702 87.7741,147.778 87.7269,147.854 87.7269,147.854 87.7049,147.889 87.6828,147.923 87.6606,147.958 87.6382,147.993 87.6157,148.027 87.5931,148.062 87.5703,148.096 87.5473,148.13 87.5473,148.13 87.5256,148.162 87.5037,148.195 87.4819,148.226 87.4597,148.259 87.4374,148.29 87.415,148.322 87.3923,148.353 87.3696,148.385 87.3696,148.385 87.3481,148.415 87.3265,148.444 87.3046,148.474 87.2826,148.503 87.2605,148.532 87.2381,148.561 87.2157,148.59 87.1931,148.619 87.1931,148.619 87.1715,148.646 87.1499,148.673 87.1281,148.699 87.1061,148.726 87.0839,148.753 87.0617,148.779 87.0392,148.806 87.0165,148.832 87.0165,148.832 86.995,148.857 86.9731,148.881 86.9512,148.906 86.9291,148.93 86.9068,148.954 86.8844,148.978 86.8619,149.002 86.8392,149.025 86.8392,149.025 86.8173,149.048 86.7954,149.07 86.7733,149.092 86.751,149.114 86.7286,149.136 86.7059,149.157 86.6832,149.179 86.6603,149.2 86.6603,149.2 86.6381,149.22 86.6157,149.24 86.5933,149.26 86.5706,149.279 86.5479,149.299 86.5249,149.318 86.5018,149.337 86.4786,149.356 86.4786,149.356 86.456,149.374 86.4333,149.392 86.4105,149.409 86.3874,149.427 86.3641,149.444 86.3407,149.461 86.3172,149.477 86.2935,149.494 86.2935,149.494 86.2704,149.51 86.247,149.525 86.2236,149.541 86.2001,149.556 86.1763,149.571 86.1525,149.586 86.1284,149.6 86.1042,149.615 86.1042,149.615 86.0803,149.629 86.0564,149.642 86.0322,149.656 86.0079,149.669 85.9836,149.682 85.9591,149.694 85.9344,149.707 85.9096,149.719 85.9096,149.719 85.885,149.731 85.8601,149.742 85.8352,149.754 85.8101,149.765 85.785,149.776 85.7598,149.787 85.7345,149.797 85.709,149.807 85.709,149.807 85.6834,149.817 85.6576,149.827 85.6319,149.836 85.6058,149.846 85.5799,149.855 85.5538,149.863 85.5276,149.872 85.5014,149.88 85.5014,149.88 85.4747,149.888 85.448,149.896 85.4212,149.904 85.3943,149.911 85.3673,149.918 85.3403,149.925 85.3133,149.932 85.2862,149.938 85.2862,149.938 85.2583,149.944 85.2305,149.95 85.2026,149.956 85.1746,149.962 85.1465,149.967 85.1185,149.972 85.0904,149.977 85.0623,149.982 85.0623,149.982 85.0332,149.987 85.0041,149.991 84.975,149.995 84.9457,149.999 84.9166,150.003 84.8874,150.006 84.858,150.01 84.8288,150.012 84.8288,150.012 84.7671,150.018 84.7054,150.023 84.6436,150.027 84.5818,150.03 84.5198,150.033 84.458,150.035 84.3961,150.036 84.3341,150.036 83.0967,150.036 81.7221,152.465 82.8676,152.465 83.9674,154.572 82.5473,157.138 82.5047,157.214 82.4616,157.29 82.418,157.366 82.374,157.442 82.3294,157.517 82.2843,157.592 82.2386,157.666 82.1924,157.741 82.1924,157.741 82.1707,157.775 82.1488,157.809 82.1268,157.844 82.1047,157.878 82.0826,157.912 82.0601,157.946 82.0376,157.979 82.0149,158.013 82.0149,158.013 81.9933,158.045 81.9715,158.077 81.9496,158.108 81.9275,158.14 81.9053,158.171 81.8829,158.203 81.8605,158.234 81.8378,158.265 81.8378,158.265 81.8161,158.295 81.7942,158.324 81.7723,158.353 81.7501,158.382 81.7278,158.411 81.7054,158.44 81.683,158.469 81.6601,158.497 81.6601,158.497 81.6383,158.524 81.6164,158.551 81.5943,158.578 81.572,158.605 81.5496,158.631 81.527,158.657 81.5042,158.684 81.4814,158.71 81.4814,158.71 81.4594,158.735 81.4371,158.759 81.4148,158.784 81.3922,158.808 81.3695,158.832 81.3467,158.856 81.3237,158.88 81.3006,158.903 81.3006,158.903 81.2782,158.926 81.2558,158.948 81.2331,158.97 81.2103,158.992 81.1873,159.014 81.1642,159.036 81.1409,159.057 81.1174,159.079 81.1174,159.079 81.0946,159.099 81.0717,159.119 81.0486,159.139 81.0254,159.159 81.002,159.178 80.9784,159.198 80.9548,159.217 80.931,159.236 80.931,159.236 80.9077,159.254 80.8842,159.272 80.8607,159.29 80.8368,159.307 80.813,159.325 80.7889,159.342 80.7649,159.359 80.7405,159.376 80.7405,159.376 80.7165,159.392 80.6926,159.408 80.6684,159.423 80.644,159.439 80.6196,159.454 80.595,159.469 80.5704,159.484 80.5454,159.499 80.5454,159.499 80.5208,159.513 80.4961,159.527 80.4712,159.54 80.4463,159.554 80.4212,159.567 80.3959,159.58 80.3707,159.593 80.3452,159.605 80.3452,159.605 80.3197,159.617 80.2943,159.629 80.2686,159.641 80.2429,159.652 80.217,159.663 80.1911,159.674 80.165,159.685 80.1389,159.696 80.1389,159.696 80.1126,159.706 80.0862,159.716 80.0598,159.726 80.0332,159.735 80.0066,159.744 79.9799,159.753 79.953,159.762 79.9261,159.771 79.9261,159.771 79.8988,159.779 79.8715,159.787 79.8441,159.795 79.8165,159.803 79.789,159.81 79.7614,159.817 79.7337,159.824 79.706,159.831 79.706,159.831 79.6777,159.838 79.6493,159.844 79.6209,159.85 79.5925,159.856 79.564,159.861 79.5353,159.867 79.5068,159.872 79.4781,159.877 79.4781,159.877 79.4486,159.882 79.419,159.886 79.3895,159.891 79.36,159.895 79.3303,159.899 79.3008,159.902 79.2712,159.906 79.2415,159.909 79.2415,159.909 79.1794,159.915 79.1173,159.92 79.0551,159.924 78.9928,159.928 78.9306,159.93 78.8682,159.932 78.8059,159.933 78.7436,159.934 77.5061,159.934" fill="none" stroke="black" stroke-width="0.1"/>
        <polygon id="center_00" cx="105.774" cy="148.5" points="117.6952,148.5 117.62989441906426,149.74610471630635 117.43469317786784,150.97855684857666 117.11173494205778,152.18385339334262 116.66455810964898,153.34878886943523 116.09806204359505,154.4606 115.41845339334263,155.50710554962905 114.63317809348112,156.47683978452523 113.75083978452523,157.35917809348112 112.78110554962903,158.14445339334262 111.7346,158.82406204359506 110.62278886943523,159.39055810964896 109.45785339334263,159.83773494205778 108.25255684857667,160.16069317786784 107.02010471630635,160.35589441906427 105.774,160.4212 104.52789528369365,160.35589441906427 103.29544315142333,160.16069317786784 102.09014660665738,159.83773494205778 100.92521113056478,159.39055810964896 99.8134,158.82406204359506 98.76689445037097,158.14445339334262 97.79716021547479,157.35917809348112 96.9148219065189,156.47683978452523 96.12954660665739,155.50710554962905 95.44993795640495,154.4606 94.88344189035102,153.34878886943523 94.43626505794222,152.18385339334262 94.11330682213216,150.9785568485767 93.91810558093574,149.74610471630635 93.8528,148.5 93.91810558093574,147.25389528369365 94.11330682213216,146.02144315142334 94.43626505794222,144.81614660665738 94.88344189035102,143.65121113056477 95.44993795640495,142.5394 96.12954660665737,141.49289445037098 96.91482190651888,140.52316021547477 97.79716021547478,139.64082190651888 98.76689445037097,138.85554660665738 99.8134,138.17593795640494 100.92521113056476,137.60944189035104 102.09014660665737,137.16226505794222 103.29544315142333,136.83930682213216 104.52789528369364,136.64410558093573 105.774,136.5788 107.02010471630635,136.64410558093573 108.25255684857666,136.83930682213216 109.45785339334262,137.16226505794222 110.62278886943523,137.60944189035104 111.7346,138.17593795640494 112.78110554962903,138.85554660665738 113.75083978452521,139.64082190651888 114.6331780934811,140.52316021547477 115.41845339334262,141.49289445037095 116.09806204359505,142.5394 116.66455810964897,143.65121113056477 117.11173494205778,144.81614660665738 117.43469317786784,146.0214431514233 117.62989441906426,147.25389528369365" fill="none" stroke="black" stroke-width="0.1"/>
        <polygon id="_131954472___1" points="135.247,153.381 136.484,153.381 134.284,162.226 137.034,162.226 139.141,153.244 139.206,153.23 139.27,153.216 139.334,153.202 139.397,153.186 139.461,153.17 139.524,153.153 139.587,153.135 139.65,153.116 139.65,153.116 139.681,153.106 139.712,153.096 139.743,153.086 139.774,153.076 139.804,153.066 139.835,153.055 139.865,153.044 139.896,153.033 140.135,152.938 140.165,152.925 140.195,152.912 140.224,152.898 140.254,152.885 140.283,152.871 140.312,152.857 140.341,152.843 140.37,152.829 140.37,152.829 140.399,152.814 140.428,152.799 140.457,152.784 140.486,152.769 140.515,152.753 140.543,152.737 140.572,152.721 140.6,152.705 140.6,152.705 140.629,152.689 140.658,152.672 140.686,152.655 140.714,152.638 140.743,152.62 140.771,152.603 140.798,152.585 140.826,152.567 140.826,152.567 140.855,152.548 140.883,152.53 140.911,152.511 140.939,152.492 140.967,152.472 140.994,152.453 141.022,152.433 141.049,152.413 141.049,152.413 141.077,152.393 141.105,152.372 141.133,152.351 141.16,152.33 141.188,152.309 141.215,152.287 141.242,152.266 141.269,152.244 141.269,152.244 141.297,152.221 141.325,152.198 141.352,152.175 141.379,152.152 141.407,152.128 141.434,152.105 141.46,152.081 141.487,152.057 141.487,152.057 141.515,152.033 141.542,152.007 141.569,151.982 141.596,151.957 141.624,151.931 141.65,151.906 141.677,151.88 141.703,151.854 141.703,151.854 141.731,151.827 141.758,151.799 141.785,151.772 141.812,151.745 141.839,151.717 141.866,151.689 141.892,151.661 141.919,151.633 141.919,151.633 141.946,151.603 141.973,151.574 142.0,151.544 142.027,151.514 142.054,151.484 142.081,151.454 142.107,151.424 142.134,151.393 142.134,151.393 142.161,151.362 142.188,151.329 142.215,151.297 142.242,151.265 142.269,151.233 142.296,151.2 142.322,151.168 142.349,151.135 142.349,151.135 142.376,151.101 142.404,151.066 142.431,151.031 142.458,150.997 142.485,150.962 142.512,150.927 142.538,150.892 142.565,150.857 142.565,150.857 142.592,150.82 142.62,150.783 142.647,150.746 142.674,150.709 142.702,150.671 142.729,150.634 142.755,150.596 142.782,150.559 142.782,150.559 142.81,150.519 142.838,150.48 142.865,150.44 142.893,150.4 142.92,150.36 142.947,150.32 142.975,150.28 143.001,150.24 143.001,150.24 143.03,150.198 143.058,150.156 143.086,150.113 143.113,150.071 143.141,150.028 143.169,149.985 143.196,149.943 143.223,149.9 143.223,149.9 143.252,149.855 143.28,149.81 143.309,149.765 143.337,149.72 143.365,149.674 143.393,149.629 143.421,149.583 143.448,149.538 143.448,149.538 143.507,149.441 143.566,149.343 143.624,149.245 143.681,149.147 143.738,149.049 143.795,148.95 143.851,148.851 143.907,148.753 149.543,138.671 147.482,134.731 142.761,134.731 127.318,162.226 130.251,162.226 136.529,151.09 144.411,137.022 145.695,137.022 146.565,138.716 141.203,148.294 141.159,148.372 141.115,148.449 141.07,148.526 141.024,148.603 140.979,148.68 140.933,148.756 140.886,148.832 140.839,148.908 140.839,148.908 140.817,148.942 140.795,148.977 140.772,149.012 140.75,149.046 140.727,149.081 140.705,149.115 140.682,149.15 140.659,149.184 140.659,149.184 140.637,149.216 140.615,149.248 140.594,149.28 140.571,149.312 140.549,149.344 140.527,149.376 140.504,149.407 140.482,149.439 140.482,149.439 140.46,149.468 140.438,149.498 140.416,149.527 140.394,149.556 140.372,149.586 140.35,149.615 140.327,149.644 140.305,149.672 140.305,149.672 140.283,149.699 140.262,149.726 140.24,149.753 140.218,149.78 140.196,149.807 140.173,149.833 140.151,149.86 140.128,149.886 140.128,149.886 140.107,149.91 140.085,149.935 140.063,149.959 140.041,149.984 140.019,150.008 139.996,150.032 139.974,150.056 139.951,150.079 139.951,150.079 139.929,150.102 139.907,150.124 139.885,150.146 139.863,150.168 139.84,150.19 139.818,150.211 139.795,150.232 139.772,150.254 139.772,150.254 139.75,150.274 139.728,150.294 139.705,150.314 139.683,150.333 139.66,150.353 139.637,150.372 139.614,150.391 139.59,150.41 139.59,150.41 139.568,150.428 139.545,150.445 139.522,150.463 139.499,150.48 139.476,150.498 139.452,150.515 139.429,150.531 139.405,150.548 139.405,150.548 139.382,150.564 139.359,150.579 139.335,150.595 139.312,150.61 139.288,150.625 139.264,150.64 139.24,150.654 139.216,150.669 139.216,150.669 139.192,150.682 139.168,150.696 139.144,150.709 139.12,150.723 139.095,150.736 139.071,150.748 139.046,150.761 139.021,150.773 139.021,150.773 138.997,150.785 138.972,150.796 138.947,150.808 138.922,150.819 138.897,150.83 138.872,150.84 138.846,150.851 138.821,150.861 138.821,150.861 138.795,150.871 138.769,150.881 138.744,150.89 138.718,150.899 138.692,150.908 138.666,150.917 138.639,150.926 138.613,150.934 138.613,150.934 138.587,150.942 138.56,150.95 138.533,150.957 138.506,150.965 138.479,150.972 138.452,150.979 138.425,150.985 138.398,150.992 138.398,150.992 138.37,150.998 138.342,151.004 138.314,151.01 138.286,151.016 138.258,151.021 138.23,151.026 138.202,151.031 138.174,151.036 138.174,151.036 138.145,151.04 138.116,151.045 138.087,151.049 138.058,151.053 138.028,151.057 137.999,151.06 137.97,151.063 137.941,151.066 137.941,151.066 137.879,151.072 137.817,151.077 137.755,151.081 137.694,151.084 137.632,151.087 137.57,151.088 137.508,151.089 137.446,151.09 136.529,151.09" fill="none" stroke="black" stroke-width="0.1"/>
        <polygon id="_131954472___1_1" points="207.697,153.381 208.935,153.381 206.735,162.226 209.485,162.226 211.592,153.244 211.656,153.23 211.721,153.216 211.784,153.202 211.848,153.186 211.912,153.17 211.975,153.153 212.038,153.135 212.101,153.116 212.101,153.116 212.132,153.106 212.163,153.096 212.194,153.086 212.224,153.076 212.255,153.066 212.285,153.055 212.316,153.044 212.346,153.033 212.586,152.938 212.616,152.925 212.645,152.912 212.675,152.898 212.704,152.885 212.734,152.871 212.763,152.857 212.792,152.843 212.821,152.829 212.821,152.829 212.85,152.814 212.879,152.799 212.908,152.784 212.937,152.769 212.966,152.753 212.994,152.737 213.023,152.721 213.051,152.705 213.051,152.705 213.08,152.689 213.108,152.672 213.137,152.655 213.165,152.638 213.193,152.62 213.221,152.603 213.249,152.585 213.277,152.567 213.277,152.567 213.305,152.548 213.334,152.53 213.362,152.511 213.39,152.492 213.418,152.472 213.445,152.453 213.473,152.433 213.5,152.413 213.5,152.413 213.528,152.393 213.556,152.372 213.584,152.351 213.611,152.33 213.639,152.309 213.666,152.287 213.693,152.266 213.72,152.244 213.72,152.244 213.748,152.221 213.776,152.198 213.803,152.175 213.83,152.152 213.857,152.128 213.884,152.105 213.911,152.081 213.938,152.057 213.938,152.057 213.966,152.033 213.993,152.007 214.02,151.982 214.047,151.957 214.074,151.931 214.101,151.906 214.128,151.88 214.154,151.854 214.154,151.854 214.182,151.827 214.209,151.799 214.236,151.772 214.263,151.745 214.29,151.717 214.317,151.689 214.343,151.661 214.37,151.633 214.37,151.633 214.397,151.603 214.424,151.574 214.451,151.544 214.478,151.514 214.505,151.484 214.532,151.454 214.558,151.424 214.584,151.393 214.584,151.393 214.612,151.362 214.639,151.329 214.666,151.297 214.693,151.265 214.72,151.233 214.747,151.2 214.773,151.168 214.8,151.135 214.8,151.135 214.827,151.101 214.854,151.066 214.882,151.031 214.909,150.997 214.936,150.962 214.962,150.927 214.989,150.892 215.016,150.857 215.016,150.857 215.043,150.82 215.071,150.783 215.098,150.746 215.125,150.709 215.152,150.671 215.179,150.634 215.206,150.596 215.233,150.559 215.233,150.559 215.261,150.519 215.289,150.48 215.316,150.44 215.344,150.4 215.371,150.36 215.398,150.32 215.425,150.28 215.452,150.24 215.452,150.24 215.48,150.198 215.508,150.156 215.536,150.113 215.564,150.071 215.592,150.028 215.62,149.985 215.647,149.943 215.674,149.9 215.674,149.9 215.703,149.855 215.731,149.81 215.759,149.765 215.788,149.72 215.816,149.674 215.844,149.629 215.872,149.583 215.899,149.538 215.899,149.538 215.958,149.441 216.017,149.343 216.074,149.245 216.132,149.147 216.189,149.049 216.246,148.95 216.302,148.851 216.358,148.753 221.994,138.671 219.933,134.731 215.212,134.731 199.769,162.226 202.702,162.226 208.98,151.09 216.862,137.022 218.145,137.022 219.016,138.716 213.654,148.294 213.61,148.372 213.565,148.449 213.521,148.526 213.475,148.603 213.43,148.68 213.383,148.756 213.337,148.832 213.289,148.908 213.289,148.908 213.267,148.942 213.245,148.977 213.223,149.012 213.201,149.046 213.178,149.081 213.156,149.115 213.133,149.15 213.11,149.184 213.11,149.184 213.088,149.216 213.066,149.248 213.044,149.28 213.022,149.312 213.0,149.344 212.978,149.376 212.955,149.407 212.932,149.439 212.932,149.439 212.911,149.468 212.889,149.498 212.867,149.527 212.845,149.556 212.823,149.586 212.801,149.615 212.778,149.644 212.756,149.672 212.756,149.672 212.734,149.699 212.712,149.726 212.69,149.753 212.668,149.78 212.646,149.807 212.624,149.833 212.602,149.86 212.579,149.886 212.579,149.886 212.557,149.91 212.536,149.935 212.514,149.959 212.492,149.984 212.469,150.008 212.447,150.032 212.424,150.056 212.402,150.079 212.402,150.079 212.38,150.102 212.358,150.124 212.336,150.146 212.314,150.168 212.291,150.19 212.269,150.211 212.246,150.232 212.223,150.254 212.223,150.254 212.201,150.274 212.178,150.294 212.156,150.314 212.133,150.333 212.111,150.353 212.088,150.372 212.065,150.391 212.041,150.41 212.041,150.41 212.019,150.428 211.996,150.445 211.973,150.463 211.95,150.48 211.927,150.498 211.903,150.515 211.88,150.531 211.856,150.548 211.856,150.548 211.833,150.564 211.81,150.579 211.786,150.595 211.762,150.61 211.739,150.625 211.715,150.64 211.691,150.654 211.667,150.669 211.667,150.669 211.643,150.682 211.619,150.696 211.595,150.709 211.571,150.723 211.546,150.736 211.522,150.748 211.497,150.761 211.472,150.773 211.472,150.773 211.448,150.785 211.423,150.796 211.398,150.808 211.373,150.819 211.348,150.83 211.322,150.84 211.297,150.851 211.272,150.861 211.272,150.861 211.246,150.871 211.22,150.881 211.195,150.89 211.168,150.899 211.143,150.908 211.116,150.917 211.09,150.926 211.064,150.934 211.064,150.934 211.037,150.942 211.011,150.95 210.984,150.957 210.957,150.965 210.93,150.972 210.903,150.979 210.876,150.985 210.849,150.992 210.849,150.992 210.821,150.998 210.793,151.004 210.765,151.01 210.737,151.016 210.709,151.021 210.681,151.026 210.653,151.031 210.625,151.036 210.625,151.036 210.596,151.04 210.567,151.045 210.538,151.049 210.508,151.053 210.479,151.057 210.45,151.06 210.421,151.063 210.392,151.066 210.392,151.066 210.33,151.072 210.268,151.077 210.206,151.081 210.144,151.084 210.082,151.087 210.021,151.088 209.959,151.089 209.897,151.09 208.98,151.09" fill="none" stroke="black" stroke-width="0.1"/>
        <polygon id="_132883608_1" points="56.2436,136.93 56.1778,136.94 56.112,136.95 56.0463,136.961 55.9807,136.971 55.9152,136.983 55.8497,136.994 55.7843,137.007 55.719,137.019 55.719,137.019 55.6896,137.025 55.6604,137.031 55.6311,137.038 55.6019,137.044 55.5728,137.05 55.5437,137.057 55.5146,137.064 55.4855,137.07 55.4855,137.07 55.4585,137.077 55.4316,137.083 55.4047,137.09 55.3778,137.097 55.3511,137.104 55.3244,137.111 55.2978,137.119 55.2712,137.126 55.2712,137.126 55.2464,137.134 55.2216,137.141 55.1968,137.149 55.1722,137.156 55.1476,137.164 55.123,137.172 55.0985,137.181 55.0742,137.189 55.0742,137.189 55.0512,137.197 55.0284,137.205 55.0055,137.214 54.9828,137.223 54.9601,137.231 54.9376,137.241 54.9152,137.25 54.8928,137.259 54.8928,137.259 54.8715,137.268 54.8503,137.278 54.8291,137.287 54.8081,137.297 54.7872,137.307 54.7663,137.317 54.7456,137.327 54.725,137.338 54.725,137.338 54.7051,137.349 54.6852,137.359 54.6655,137.37 54.6459,137.381 54.6264,137.392 54.607,137.404 54.5878,137.416 54.5688,137.427 54.5688,137.427 54.55,137.439 54.5313,137.451 54.5128,137.464 54.4944,137.476 54.4762,137.489 54.4581,137.501 54.4401,137.515 54.4223,137.528 54.4223,137.528 54.4045,137.541 54.3868,137.555 54.3694,137.569 54.352,137.583 54.3347,137.597 54.3177,137.612 54.3007,137.626 54.284,137.641 54.284,137.641 54.2669,137.656 54.25,137.672 54.2332,137.687 54.2166,137.703 54.2002,137.719 54.1838,137.735 54.1676,137.751 54.1516,137.767 54.1516,137.767 54.135,137.785 54.1186,137.802 54.1023,137.82 54.0863,137.837 54.0703,137.855 54.0546,137.873 54.0388,137.891 54.0234,137.909 54.0234,137.909 54.0071,137.928 53.9909,137.947 53.9751,137.967 53.9592,137.987 53.9435,138.006 53.928,138.026 53.9125,138.046 53.8972,138.066 53.8972,138.066 53.8811,138.088 53.8651,138.109 53.8492,138.131 53.8333,138.153 53.8177,138.175 53.8021,138.197 53.7867,138.219 53.7714,138.241 53.7714,138.241 53.7551,138.265 53.7388,138.289 53.7228,138.312 53.7068,138.337 53.6909,138.361 53.6751,138.385 53.6594,138.409 53.6438,138.434 53.6438,138.434 53.6271,138.46 53.6105,138.486 53.594,138.513 53.5775,138.539 53.5611,138.566 53.5448,138.592 53.5287,138.619 53.5125,138.646 53.5125,138.646 53.4951,138.675 53.4779,138.704 53.4606,138.733 53.4435,138.762 53.4263,138.791 53.4093,138.821 53.3924,138.85 53.3755,138.879 53.0813,139.404 49.0946,146.415 49.0626,146.473 49.031,146.532 48.9998,146.59 48.9689,146.649 48.9385,146.708 48.9084,146.768 48.8791,146.827 48.8501,146.887 48.8501,146.887 48.8369,146.915 48.8238,146.943 48.8108,146.971 48.798,146.999 48.7854,147.027 48.7728,147.056 48.7604,147.084 48.7482,147.112 48.7482,147.112 48.7368,147.139 48.7255,147.166 48.7143,147.193 48.7033,147.22 48.6926,147.248 48.6819,147.275 48.6715,147.302 48.6613,147.33 48.6613,147.33 48.6517,147.356 48.6422,147.382 48.633,147.409 48.624,147.435 48.6151,147.461 48.6064,147.488 48.5979,147.515 48.5896,147.541 48.5896,147.541 48.5819,147.567 48.5744,147.593 48.567,147.619 48.5599,147.644 48.5531,147.67 48.5464,147.696 48.54,147.722 48.5338,147.749 48.5338,147.749 48.5279,147.774 48.5223,147.799 48.5169,147.825 48.5119,147.85 48.507,147.876 48.5023,147.902 48.498,147.927 48.4938,147.953 48.4938,147.953 48.49,147.978 48.4864,148.004 48.4831,148.029 48.48,148.054 48.4772,148.08 48.4747,148.105 48.4724,148.131 48.4704,148.156 48.4704,148.156 48.4686,148.181 48.4672,148.207 48.466,148.232 48.465,148.258 48.4643,148.283 48.4639,148.308 48.4636,148.334 48.4637,148.359 48.4637,148.359 48.4641,148.385 48.4647,148.41 48.4657,148.436 48.4668,148.462 48.4683,148.487 48.47,148.513 48.4719,148.538 48.4742,148.564 48.4742,148.564 48.4768,148.59 48.4796,148.616 48.4827,148.642 48.486,148.668 48.4896,148.694 48.4935,148.72 48.4977,148.745 48.502,148.771 48.502,148.771 48.5069,148.798 48.5119,148.825 48.5173,148.851 48.5229,148.878 48.5287,148.904 48.5349,148.93 48.5413,148.957 48.5478,148.983 48.5478,148.983 48.5549,149.011 48.5623,149.038 48.57,149.065 48.5778,149.093 48.586,149.12 48.5943,149.147 48.6028,149.174 48.6116,149.201 48.6937,149.426 48.7182,149.486 48.7437,149.546 48.7699,149.606 48.7969,149.665 48.8246,149.723 48.853,149.782 48.882,149.84 48.9115,149.898 49.9657,151.96 49.9842,151.997 50.0027,152.033 50.0211,152.069 50.0393,152.106 50.0574,152.143 50.0754,152.179 50.0932,152.216 50.1109,152.253 50.1109,152.253 50.1192,152.271 50.1276,152.288 50.1359,152.306 50.1443,152.324 50.1525,152.342 50.1607,152.359 50.1689,152.377 50.177,152.395 50.177,152.395 50.1848,152.412 50.1927,152.43 50.2005,152.447 50.2082,152.465 50.2159,152.483 50.2235,152.5 50.231,152.518 50.2386,152.535 50.2386,152.535 50.2458,152.552 50.253,152.57 50.2603,152.587 50.2674,152.604 50.2745,152.621 50.2814,152.638 50.2884,152.656 50.2952,152.673 50.2952,152.673 50.3019,152.69 50.3086,152.707 50.3151,152.724 50.3217,152.741 50.3281,152.758 50.3345,152.775 50.3408,152.793 50.347,152.81 50.347,152.81 50.3531,152.827 50.3591,152.843 50.365,152.86 50.3708,152.877 50.3767,152.894 50.3824,152.911 50.388,152.928 50.3935,152.945 50.3935,152.945 50.399,152.962 50.4044,152.979 50.4097,152.996 50.4148,153.012 50.42,153.029 50.4251,153.046 50.4301,153.063 50.435,153.08 50.435,153.08 50.4397,153.097 50.4445,153.114 50.4491,153.13 50.4537,153.147 50.4581,153.164 50.4624,153.181 50.4668,153.198 50.4711,153.215 50.4711,153.215 50.4751,153.232 50.4792,153.248 50.483,153.265 50.4869,153.282 50.4907,153.299 50.4943,153.316 50.4979,153.333 50.5014,153.35 50.5014,153.35 50.5048,153.367 50.5081,153.384 50.5115,153.4 50.5145,153.417 50.5176,153.434 50.5206,153.451 50.5234,153.468 50.5262,153.485 50.5262,153.485 50.529,153.502 50.5315,153.519 50.5341,153.536 50.5365,153.553 50.5389,153.571 50.5411,153.588 50.5432,153.605 50.5453,153.622 50.5453,153.622 50.5472,153.639 50.5492,153.656 50.551,153.674 50.5527,153.691 50.5542,153.709 50.5557,153.726 50.5571,153.743 50.5584,153.76 50.5584,153.76 50.5596,153.778 50.5607,153.796 50.5617,153.813 50.5627,153.831 50.5635,153.848 50.5642,153.866 50.5649,153.883 50.5655,153.901 50.5655,153.901 50.5659,153.919 50.5663,153.936 50.5666,153.954 50.5667,153.972 50.5669,153.99 50.5667,154.008 50.5667,154.026 50.5665,154.044 50.5665,154.044 50.566,154.062 50.5656,154.08 50.5651,154.098 50.5644,154.117 50.5637,154.135 50.5628,154.153 50.5619,154.171 50.5609,154.189 50.5609,154.189 50.5598,154.208 50.5585,154.227 50.5571,154.245 50.5557,154.264 50.5541,154.283 50.5525,154.301 50.5507,154.32 50.5489,154.338 50.5489,154.338 50.547,154.358 50.5449,154.377 50.5426,154.396 50.5404,154.415 50.538,154.434 50.5357,154.453 50.533,154.472 50.5304,154.491 50.5304,154.491 50.5276,154.511 50.5247,154.531 50.5216,154.55 50.5186,154.57 50.5154,154.59 50.512,154.609 50.5087,154.629 50.5052,154.648 50.5052,154.648 50.5014,154.669 50.4977,154.689 50.4938,154.709 50.4899,154.73 50.4858,154.75 50.4817,154.77 50.4773,154.79 50.473,154.81 50.473,154.81 50.4684,154.831 50.4638,154.852 50.4591,154.873 50.4542,154.894 50.4494,154.915 50.4443,154.936 50.4392,154.956 50.434,154.977 50.434,154.977 50.4286,154.999 50.423,155.021 50.4173,155.042 50.4116,155.064 50.4058,155.085 50.3999,155.107 50.3939,155.128 50.3878,155.15 50.3878,155.15 50.3814,155.172 50.3749,155.195 50.3683,155.217 50.3616,155.239 50.355,155.262 50.3481,155.284 50.3413,155.306 50.3343,155.328 50.3343,155.328 50.327,155.351 50.3196,155.375 50.3121,155.398 50.3045,155.421 50.2969,155.444 50.2891,155.467 50.2813,155.49 50.2735,155.513 50.2735,155.513 50.2651,155.537 50.2568,155.561 50.2484,155.586 50.2399,155.609 50.2313,155.633 50.2227,155.657 50.2139,155.681 50.2051,155.705 50.2051,155.705 50.1958,155.73 50.1865,155.755 50.1771,155.78 50.1677,155.805 50.1582,155.83 50.1486,155.855 50.139,155.88 50.1293,155.905 50.1293,155.905 50.1189,155.93 50.1086,155.956 50.0982,155.982 50.0878,156.008 50.0773,156.034 50.0667,156.06 50.056,156.086 50.0453,156.112 50.0453,156.112 50.034,156.138 50.0227,156.166 50.0115,156.193 50.0,156.219 49.9885,156.246 49.9769,156.273 49.9654,156.3 49.9537,156.327 49.9537,156.327 49.9414,156.355 49.929,156.383 49.9166,156.411 49.9042,156.439 49.8917,156.467 49.8792,156.495 49.8665,156.523 49.8538,156.551 49.8538,156.551 49.8406,156.58 49.8273,156.609 49.8137,156.638 49.8002,156.668 49.7867,156.697 49.7732,156.726 49.7596,156.755 49.7459,156.784 49.7459,156.784 49.7316,156.815 49.7173,156.845 49.7028,156.875 49.6882,156.906 49.6737,156.936 49.6591,156.966 49.6444,156.997 49.6297,157.027 49.6297,157.027 49.6127,157.062 49.5957,157.096 49.5787,157.131 49.5616,157.166 49.5445,157.201 49.5272,157.235 49.5099,157.27 49.4925,157.305 49.4925,157.305 49.4733,157.343 49.454,157.381 49.4346,157.419 49.4153,157.458 49.3958,157.496 49.3763,157.534 49.3566,157.572 49.337,157.61 49.337,157.61 49.3158,157.651 49.2945,157.692 49.2731,157.732 49.2518,157.773 49.2302,157.814 49.2086,157.854 49.1871,157.895 49.1653,157.935 49.1653,157.935 49.1442,157.975 49.1229,158.014 49.1014,158.053 49.08,158.092 49.0585,158.132 49.0368,158.171 49.0151,158.21 48.9934,158.249 48.9934,158.249 48.9721,158.286 48.9508,158.324 48.9295,158.362 48.9079,158.4 48.8863,158.437 48.8647,158.475 48.843,158.512 48.8211,158.55 48.8211,158.55 48.7998,158.586 48.7784,158.623 48.757,158.659 48.7354,158.695 48.7138,158.731 48.6921,158.767 48.6702,158.803 48.6484,158.839 48.6484,158.839 48.6269,158.874 48.6055,158.909 48.5839,158.944 48.5623,158.978 48.5406,159.013 48.5187,159.048 48.4967,159.082 48.4747,159.117 48.4747,159.117 48.4531,159.15 48.4316,159.184 48.4098,159.217 48.388,159.25 48.3661,159.283 48.3441,159.316 48.3221,159.349 48.3,159.382 48.3,159.382 48.2783,159.415 48.2565,159.446 48.2345,159.478 48.2127,159.51 48.1905,159.542 48.1684,159.573 48.1463,159.605 48.1239,159.636 48.1239,159.636 48.102,159.667 48.0801,159.697 48.0581,159.728 48.036,159.758 48.0137,159.789 47.9914,159.819 47.9689,159.849 47.9463,159.879 47.9463,159.879 47.9243,159.908 47.9022,159.937 47.8801,159.966 47.8576,159.995 47.8352,160.024 47.8127,160.053 47.79,160.082 47.7673,160.11 47.7673,160.11 47.745,160.138 47.7226,160.166 47.7002,160.193 47.6775,160.221 47.6549,160.248 47.6321,160.275 47.6091,160.303 47.5861,160.33 47.5861,160.33 47.5636,160.356 47.5409,160.382 47.5182,160.409 47.4953,160.435 47.4724,160.461 47.4494,160.487 47.4261,160.512 47.4029,160.538 47.4029,160.538 47.3801,160.563 47.3571,160.588 47.334,160.613 47.3109,160.638 47.2876,160.662 47.2642,160.687 47.2407,160.711 47.2172,160.736 47.2172,160.736 47.194,160.759 47.1708,160.783 47.1474,160.806 47.124,160.83 47.1005,160.853 47.0768,160.876 47.053,160.899 47.0291,160.922 47.0291,160.922 47.0055,160.944 46.982,160.966 46.9582,160.988 46.9344,161.011 46.9104,161.032 46.8863,161.054 46.8622,161.076 46.838,161.097 46.838,161.097 46.8141,161.118 46.7901,161.139 46.766,161.16 46.7418,161.18 46.7176,161.201 46.6932,161.221 46.6687,161.242 46.6441,161.262 46.6441,161.262 46.6197,161.281 46.5953,161.301 46.5708,161.32 46.5462,161.34 46.5215,161.359 46.4968,161.378 46.4718,161.397 46.4468,161.416 46.4468,161.416 46.422,161.434 46.3972,161.452 46.3723,161.47 46.3472,161.488 46.322,161.506 46.2968,161.524 46.2715,161.541 46.246,161.559 46.246,161.559 46.2208,161.576 46.1955,161.593 46.1701,161.61 46.1446,161.626 46.119,161.643 46.0933,161.659 46.0675,161.675 46.0416,161.691 46.0416,161.691 46.0158,161.707 45.9901,161.723 45.9642,161.738 45.9381,161.754 45.9121,161.769 45.8859,161.784 45.8596,161.799 45.8333,161.814 45.8333,161.814 45.807,161.828 45.7807,161.842 45.7542,161.857 45.7278,161.871 45.7012,161.885 45.6746,161.898 45.6478,161.912 45.621,161.925 45.621,161.925 45.5941,161.938 45.5672,161.952 45.5402,161.964 45.5132,161.977 45.486,161.99 45.4589,162.002 45.4316,162.015 45.4043,162.027 45.4043,162.027 45.3769,162.039 45.3493,162.051 45.3218,162.062 45.2942,162.074 45.2665,162.085 45.2386,162.096 45.2108,162.107 45.1829,162.118 45.1829,162.118 45.1548,162.129 45.1267,162.139 45.0986,162.15 45.0703,162.16 45.042,162.17 45.0138,162.18 44.9854,162.19 44.957,162.199 44.957,162.199 44.9283,162.209 44.8995,162.218 44.8706,162.227 44.8418,162.236 44.8128,162.245 44.784,162.254 44.7549,162.262 44.726,162.271 44.726,162.271 44.6966,162.279 44.6672,162.287 44.6377,162.295 44.6082,162.303 44.5787,162.31 44.5491,162.318 44.5195,162.325 44.4898,162.332 44.4898,162.332 44.4597,162.339 44.4297,162.346 44.3995,162.353 44.3692,162.359 44.339,162.366 44.3088,162.372 44.2786,162.378 44.2483,162.384 44.2483,162.384 44.2175,162.39 44.1866,162.395 44.1557,162.401 44.1249,162.406 44.094,162.411 44.0631,162.416 44.032,162.421 44.0011,162.426 44.0011,162.426 43.9695,162.431 43.938,162.435 43.9064,162.439 43.8748,162.444 43.8431,162.448 43.8115,162.451 43.7799,162.455 43.7481,162.459 43.7481,162.459 43.7157,162.462 43.6834,162.465 43.6509,162.468 43.6186,162.471 43.5862,162.474 43.5539,162.477 43.5214,162.479 43.489,162.482 43.489,162.482 43.4559,162.484 43.4227,162.486 43.3896,162.488 43.3565,162.49 43.3233,162.491 43.29,162.493 43.2569,162.494 43.2238,162.495 43.2238,162.495 43.1908,162.496 43.1578,162.497 43.1248,162.498 43.0916,162.499 43.0586,162.499 43.0256,162.5 42.9926,162.5 42.9596,162.5 42.9596,162.5 42.9272,162.5 42.8947,162.5 42.8623,162.499 42.83,162.499 42.7976,162.498 42.7651,162.497 42.7328,162.496 42.7004,162.494 42.7004,162.494 42.6691,162.493 42.6377,162.491 42.6064,162.489 42.5752,162.487 42.5439,162.485 42.5127,162.483 42.4814,162.48 42.4502,162.478 42.4502,162.478 42.4195,162.475 42.3889,162.472 42.3583,162.468 42.3278,162.465 42.2972,162.461 42.2667,162.458 42.2362,162.454 42.2057,162.449 42.2057,162.449 42.1759,162.445 42.1461,162.441 42.1163,162.436 42.0865,162.431 42.0567,162.426 42.027,162.421 41.9974,162.416 41.9677,162.41 41.9677,162.41 41.9386,162.405 41.9097,162.399 41.8807,162.393 41.8517,162.386 41.8229,162.38 41.7941,162.374 41.7654,162.367 41.7367,162.36 41.7367,162.36 41.7086,162.353 41.6805,162.345 41.6525,162.338 41.6245,162.33 41.5967,162.322 41.5688,162.314 41.541,162.306 41.5131,162.298 41.5131,162.298 41.4861,162.29 41.459,162.281 41.4321,162.272 41.4051,162.263 41.3782,162.254 41.3515,162.245 41.3247,162.235 41.298,162.225 41.298,162.225 41.272,162.215 41.2459,162.205 41.22,162.195 41.1941,162.185 41.1684,162.174 41.1428,162.163 41.1171,162.152 41.0917,162.141 41.0917,162.141 41.0667,162.13 41.0418,162.118 41.017,162.107 40.9924,162.095 40.9677,162.083 40.9432,162.071 40.9189,162.058 40.8946,162.046 40.8946,162.046 40.8708,162.033 40.8473,162.02 40.8236,162.007 40.8002,161.994 40.777,161.981 40.7537,161.967 40.7306,161.953 40.7076,161.939 40.7076,161.939 40.6852,161.925 40.6628,161.911 40.6407,161.897 40.6185,161.882 40.5965,161.867 40.5747,161.853 40.553,161.837 40.5314,161.822 40.5314,161.822 40.5102,161.806 40.4892,161.791 40.4684,161.775 40.4477,161.759 40.4271,161.743 40.4068,161.726 40.3864,161.71 40.3664,161.693 40.3664,161.693 40.3466,161.676 40.3271,161.659 40.3078,161.642 40.2886,161.625 40.2695,161.607 40.2505,161.589 40.2319,161.572 40.2134,161.553 40.2134,161.553 40.1951,161.535 40.177,161.517 40.1592,161.498 40.1415,161.479 40.1241,161.46 40.1069,161.441 40.0897,161.422 40.0729,161.403 40.0729,161.403 40.0562,161.383 40.0397,161.363 40.0234,161.343 40.0074,161.323 39.9916,161.302 39.976,161.282 39.9607,161.261 39.9455,161.24 39.9455,161.24 39.9304,161.219 39.9157,161.198 39.9011,161.177 39.8869,161.155 39.8727,161.133 39.8589,161.112 39.8452,161.089 39.8319,161.067 39.8319,161.067 39.8186,161.045 39.8055,161.022 39.7927,160.999 39.7802,160.976 39.768,160.953 39.756,160.93 39.7441,160.906 39.7326,160.883 39.7326,160.883 39.7212,160.859 39.71,160.835 39.699,160.811 39.6884,160.786 39.678,160.762 39.668,160.737 39.6581,160.713 39.6485,160.688 39.6485,160.688 39.639,160.662 39.6297,160.637 39.6208,160.611 39.612,160.585 39.6037,160.56 39.5954,160.534 39.5876,160.508 39.58,160.482 39.58,160.482 39.5725,160.455 39.5652,160.428 39.5583,160.401 39.5516,160.374 39.5453,160.346 39.5392,160.319 39.5333,160.292 39.5278,160.264 39.5278,160.264 39.5223,160.236 39.5172,160.208 39.5123,160.179 39.5079,160.151 39.5035,160.122 39.4996,160.093 39.4959,160.065 39.4925,160.036 39.4925,160.036 39.4893,160.006 39.4863,159.976 39.4836,159.947 39.4813,159.917 39.4792,159.887 39.4774,159.857 39.4758,159.827 39.4746,159.797 39.4746,159.797 39.4736,159.766 39.4729,159.735 39.4726,159.703 39.4725,159.672 39.4726,159.641 39.4731,159.61 39.4739,159.578 39.4749,159.547 39.4749,159.547 39.4763,159.514 39.4779,159.482 39.4799,159.449 39.4821,159.416 39.4846,159.384 39.4874,159.351 39.4905,159.319 39.4938,159.286 39.4938,159.286 39.4977,159.252 39.5017,159.218 39.5062,159.184 39.5108,159.15 39.5157,159.116 39.521,159.082 39.5264,159.048 39.5321,159.015 39.5321,159.015 39.5384,158.979 39.545,158.944 39.5519,158.908 39.5591,158.873 39.5665,158.838 39.5741,158.802 39.5821,158.767 39.5903,158.732 39.5903,158.732 39.5992,158.695 39.6084,158.658 39.6179,158.622 39.6275,158.585 39.6375,158.548 39.6478,158.512 39.6582,158.475 39.669,158.439 39.669,158.439 39.6805,158.401 39.6923,158.362 39.7045,158.324 39.7169,158.286 39.7295,158.248 39.7423,158.21 39.7554,158.173 39.7688,158.135 39.7688,158.135 39.7831,158.095 39.7976,158.055 39.8125,158.016 39.8275,157.977 39.8429,157.937 39.8583,157.898 39.8742,157.859 39.8902,157.82 39.8902,157.82 39.9073,157.779 39.9247,157.738 39.9424,157.697 39.9602,157.656 39.9783,157.616 39.9967,157.575 40.0152,157.535 40.034,157.494 40.034,157.494 40.0751,157.408 40.1172,157.322 40.16,157.237 40.2039,157.152 40.2486,157.068 40.2941,156.984 40.3405,156.9 40.3875,156.817 41.671,154.572 44.558,154.572 42.4191,158.48 42.4126,158.495 42.4062,158.509 42.3998,158.524 42.3935,158.538 42.3872,158.553 42.3811,158.568 42.3751,158.582 42.3691,158.597 42.3691,158.597 42.3636,158.611 42.358,158.625 42.3526,158.64 42.3471,158.654 42.3418,158.668 42.3367,158.682 42.3317,158.696 42.3267,158.711 42.3267,158.711 42.3219,158.724 42.3173,158.738 42.3129,158.752 42.3084,158.765 42.3041,158.779 42.2999,158.793 42.2958,158.807 42.2917,158.82 42.2917,158.82 42.288,158.834 42.2843,158.847 42.2807,158.86 42.2772,158.873 42.2738,158.887 42.2706,158.9 42.2672,158.913 42.2642,158.926 42.2642,158.926 42.2612,158.939 42.2584,158.952 42.2558,158.965 42.2532,158.977 42.2506,158.99 42.2481,159.003 42.2458,159.016 42.2435,159.029 42.2435,159.029 42.2416,159.041 42.2396,159.053 42.2378,159.065 42.236,159.078 42.2344,159.09 42.2328,159.102 42.2314,159.115 42.23,159.127 42.23,159.127 42.2288,159.139 42.2277,159.151 42.2267,159.162 42.2259,159.174 42.225,159.186 42.2243,159.198 42.2238,159.21 42.2232,159.221 42.2232,159.221 42.2228,159.233 42.2225,159.244 42.2224,159.256 42.2224,159.267 42.2224,159.278 42.2225,159.289 42.2228,159.301 42.2231,159.312 42.2231,159.312 42.2235,159.323 42.2241,159.334 42.2246,159.345 42.2253,159.355 42.2261,159.366 42.2271,159.377 42.2282,159.388 42.2293,159.399 42.2293,159.399 42.2306,159.409 42.2319,159.419 42.2332,159.43 42.2346,159.44 42.2363,159.45 42.238,159.461 42.2398,159.471 42.2417,159.481 42.2417,159.481 42.2437,159.491 42.2458,159.501 42.248,159.511 42.2502,159.521 42.2526,159.53 42.255,159.54 42.2576,159.55 42.2603,159.56 42.2603,159.56 42.2629,159.569 42.2658,159.578 42.2686,159.588 42.2717,159.597 42.2747,159.606 42.2779,159.616 42.2813,159.625 42.2846,159.634 42.2846,159.634 42.288,159.643 42.2914,159.652 42.2951,159.66 42.2988,159.669 42.3026,159.678 42.3065,159.687 42.3105,159.695 42.3147,159.704 42.3147,159.704 42.3189,159.712 42.3231,159.721 42.3274,159.729 42.3317,159.737 42.3361,159.745 42.3407,159.753 42.3455,159.761 42.3502,159.769 42.3502,159.769 42.3549,159.777 42.3599,159.785 42.3648,159.793 42.37,159.801 42.3751,159.808 42.3804,159.816 42.3857,159.823 42.3911,159.831 42.3911,159.831 42.3966,159.838 42.4021,159.846 42.4078,159.853 42.4136,159.86 42.4193,159.867 42.4252,159.874 42.4311,159.881 42.4372,159.888 42.4372,159.888 42.4434,159.895 42.4495,159.901 42.4557,159.908 42.4621,159.915 42.4686,159.921 42.475,159.928 42.4815,159.934 42.4882,159.94 42.4882,159.94 42.4949,159.947 42.5017,159.953 42.5085,159.959 42.5155,159.965 42.5226,159.971 42.5295,159.977 42.5366,159.983 42.5439,159.988 42.5439,159.988 42.5513,159.994 42.5586,160.0 42.5662,160.005 42.5737,160.011 42.5812,160.016 42.5889,160.021 42.5965,160.027 42.6043,160.032 42.6043,160.032 42.6122,160.037 42.6202,160.042 42.6283,160.047 42.6362,160.052 42.6444,160.057 42.6525,160.061 42.6608,160.066 42.6691,160.07 42.6691,160.07 42.6775,160.075 42.686,160.079 42.6945,160.084 42.7032,160.088 42.7118,160.092 42.7204,160.096 42.7291,160.101 42.7378,160.105 42.7378,160.105 42.7469,160.108 42.7559,160.112 42.765,160.116 42.774,160.12 42.7832,160.123 42.7924,160.127 42.8016,160.131 42.8108,160.134 42.8108,160.134 42.8203,160.137 42.8299,160.141 42.8395,160.144 42.8489,160.147 42.8587,160.15 42.8683,160.153 42.8779,160.156 42.8876,160.158 42.8876,160.158 42.8977,160.161 42.9076,160.164 42.9176,160.166 42.9276,160.169 42.9378,160.172 42.9478,160.174 42.958,160.176 42.9681,160.178 42.9681,160.178 42.9786,160.18 42.989,160.183 42.9995,160.184 43.0099,160.186 43.0203,160.188 43.0309,160.19 43.0415,160.192 43.0521,160.193 43.0521,160.193 43.0629,160.195 43.0738,160.196 43.0847,160.197 43.0955,160.199 43.1064,160.2 43.1174,160.201 43.1282,160.202 43.1392,160.203 43.1392,160.203 43.1512,160.204 43.1631,160.205 43.175,160.206 43.187,160.206 43.1988,160.207 43.2108,160.207 43.2228,160.208 43.2348,160.208 43.2348,160.208 43.2483,160.209 43.2616,160.209 43.2751,160.209 43.2885,160.209 43.302,160.209 43.3155,160.208 43.3289,160.208 43.3424,160.208 43.3424,160.208 43.3571,160.207 43.3719,160.207 43.3867,160.207 43.4014,160.206 43.4162,160.205 43.4308,160.205 43.4456,160.204 43.4603,160.203 43.4603,160.203 43.4755,160.202 43.4907,160.201 43.5059,160.2 43.521,160.198 43.5362,160.197 43.5514,160.195 43.5666,160.194 43.5817,160.192 43.5817,160.192 43.5968,160.19 43.6117,160.189 43.6266,160.187 43.6416,160.185 43.6565,160.183 43.6714,160.18 43.6863,160.178 43.7012,160.176 43.7012,160.176 43.716,160.173 43.7309,160.171 43.7456,160.168 43.7604,160.165 43.775,160.162 43.7898,160.159 43.8045,160.156 43.8191,160.153 43.8191,160.153 43.8337,160.15 43.8484,160.147 43.8628,160.143 43.8775,160.14 43.8919,160.136 43.9064,160.132 43.9209,160.128 43.9354,160.124 43.9354,160.124 43.9499,160.12 43.9644,160.116 43.9788,160.112 43.9932,160.108 44.0077,160.103 44.022,160.098 44.0362,160.094 44.0505,160.089 44.0505,160.089 44.0649,160.084 44.0792,160.079 44.0936,160.074 44.1079,160.069 44.1221,160.063 44.1363,160.058 44.1505,160.052 44.1647,160.047 44.1647,160.047 44.1791,160.041 44.1933,160.035 44.2075,160.029 44.2217,160.023 44.2359,160.016 44.2499,160.01 44.264,160.004 44.278,159.997 44.278,159.997 44.2924,159.99 44.3066,159.983 44.3208,159.976 44.3349,159.969 44.3489,159.962 44.363,159.955 44.3769,159.948 44.3908,159.94 44.3908,159.94 44.4052,159.932 44.4194,159.925 44.4334,159.917 44.4475,159.909 44.4616,159.9 44.4756,159.892 44.4895,159.884 44.5035,159.875 44.5035,159.875 44.5177,159.867 44.5319,159.858 44.5459,159.849 44.56,159.84 44.5741,159.831 44.588,159.821 44.6019,159.812 44.6158,159.803 44.6158,159.803 44.6302,159.793 44.6444,159.783 44.6586,159.773 44.6726,159.763 44.6867,159.753 44.7006,159.743 44.7145,159.732 44.7285,159.722 44.7285,159.722 44.7428,159.711 44.757,159.7 44.7714,159.689 44.7854,159.678 44.7995,159.666 44.8135,159.655 44.8275,159.644 44.8414,159.632 44.8414,159.632 44.8559,159.62 44.8702,159.608 44.8846,159.596 44.8988,159.584 44.913,159.572 44.927,159.559 44.9411,159.547 44.9551,159.534 44.9551,159.534 44.9696,159.521 44.9841,159.508 44.9986,159.494 45.0129,159.481 45.0271,159.468 45.0413,159.454 45.0555,159.44 45.0696,159.427 45.0696,159.427 45.0842,159.412 45.0988,159.398 45.1135,159.383 45.1279,159.369 45.1423,159.354 45.1568,159.339 45.171,159.325 45.1853,159.31 45.1853,159.31 45.2001,159.294 45.2148,159.279 45.2296,159.263 45.2442,159.247 45.2588,159.231 45.2733,159.216 45.2878,159.2 45.3023,159.184 45.3023,159.184 45.3173,159.167 45.3323,159.15 45.3472,159.133 45.362,159.116 45.3768,159.099 45.3915,159.082 45.4061,159.064 45.4207,159.047 45.4207,159.047 45.4361,159.029 45.4512,159.011 45.4664,158.993 45.4815,158.974 45.4965,158.956 45.5114,158.938 45.5263,158.919 45.5412,158.901 45.5412,158.901 45.5568,158.881 45.5722,158.862 45.5876,158.842 45.6029,158.822 45.6182,158.803 45.6334,158.783 45.6485,158.763 45.6636,158.744 45.6636,158.744 45.6793,158.723 45.695,158.702 45.7108,158.681 45.7264,158.66 45.742,158.639 45.7576,158.618 45.773,158.597 45.7883,158.576 45.7883,158.576 45.8045,158.554 45.8205,158.531 45.8365,158.509 45.8524,158.487 45.8682,158.464 45.8841,158.442 45.8999,158.42 45.9156,158.397 45.9156,158.397 45.932,158.373 45.9484,158.35 45.9647,158.326 45.981,158.302 45.9973,158.279 46.0135,158.255 46.0296,158.231 46.0456,158.207 46.0456,158.207 46.0625,158.182 46.0792,158.157 46.0959,158.132 46.1126,158.106 46.1292,158.081 46.1457,158.056 46.1623,158.031 46.1787,158.005 46.1787,158.005 46.196,157.979 46.2131,157.952 46.2303,157.925 46.2472,157.899 46.2642,157.872 46.2812,157.845 46.2982,157.819 46.3151,157.792 46.3151,157.792 46.3327,157.764 46.3503,157.735 46.3678,157.707 46.3854,157.679 46.4028,157.651 46.4202,157.623 46.4376,157.594 46.4548,157.566 46.4548,157.566 46.4729,157.536 46.491,157.507 46.509,157.477 46.527,157.447 46.5449,157.417 46.5628,157.387 46.5806,157.358 46.5984,157.328 46.5984,157.328 46.6361,157.264 46.6736,157.201 46.7109,157.137 46.7481,157.073 46.7851,157.009 46.822,156.945 46.8586,156.881 46.8952,156.817 47.3536,155.993 47.3854,155.934 47.4165,155.874 47.4472,155.815 47.4772,155.755 47.5066,155.694 47.5354,155.634 47.5634,155.572 47.5907,155.511 47.5907,155.511 47.603,155.483 47.6151,155.455 47.6271,155.426 47.6388,155.397 47.6503,155.369 47.6617,155.34 47.6729,155.311 47.6839,155.282 47.6839,155.282 47.694,155.255 47.7039,155.227 47.7137,155.2 47.7231,155.173 47.7325,155.145 47.7415,155.117 47.7504,155.089 47.7591,155.062 47.7591,155.062 47.767,155.035 47.7748,155.009 47.7823,154.982 47.7896,154.955 47.7967,154.929 47.8035,154.902 47.81,154.875 47.8164,154.848 47.8164,154.848 47.8223,154.822 47.8277,154.797 47.833,154.771 47.8381,154.745 47.8429,154.719 47.8475,154.693 47.8516,154.667 47.8557,154.641 47.8557,154.641 47.8593,154.616 47.8626,154.591 47.8657,154.566 47.8686,154.54 47.8711,154.515 47.8734,154.49 47.8755,154.465 47.8771,154.439 47.8771,154.439 47.8785,154.415 47.8796,154.39 47.8805,154.365 47.881,154.341 47.8813,154.316 47.8813,154.291 47.881,154.266 47.8805,154.242 47.8805,154.242 47.8796,154.218 47.8785,154.193 47.8771,154.169 47.8755,154.145 47.8735,154.12 47.8713,154.096 47.8686,154.072 47.8659,154.048 47.8659,154.048 47.8628,154.024 47.8593,154.0 47.8557,153.976 47.8516,153.951 47.8475,153.928 47.8429,153.904 47.8381,153.88 47.8331,153.856 47.8331,153.856 47.8277,153.832 47.822,153.808 47.816,153.784 47.8099,153.76 47.8033,153.737 47.7965,153.713 47.7896,153.689 47.7823,153.666 47.6283,153.289 46.5743,151.227 46.5357,151.151 46.4977,151.074 46.4606,150.997 46.4239,150.92 46.3882,150.843 46.3532,150.765 46.319,150.686 46.2855,150.608 46.2855,150.608 46.2697,150.57 46.2539,150.531 46.2385,150.493 46.2233,150.455 46.2083,150.416 46.1934,150.378 46.1787,150.339 46.1644,150.3 46.1644,150.3 46.1505,150.262 46.1368,150.224 46.1233,150.186 46.1101,150.148 46.0972,150.11 46.0843,150.071 46.0718,150.033 46.0596,149.994 46.0596,149.994 46.0477,149.957 46.0362,149.919 46.0247,149.881 46.0136,149.843 46.0028,149.805 45.992,149.767 45.9816,149.728 45.9714,149.69 45.9714,149.69 45.9617,149.652 45.9522,149.614 45.943,149.577 45.9341,149.539 45.9253,149.501 45.9168,149.463 45.9086,149.425 45.9007,149.387 45.9007,149.387 45.8932,149.349 45.8858,149.312 45.8787,149.274 45.872,149.236 45.8655,149.199 45.8592,149.161 45.8532,149.123 45.8475,149.085 45.8475,149.085 45.8421,149.047 45.8369,149.01 45.8322,148.972 45.8276,148.935 45.8233,148.897 45.8192,148.859 45.8156,148.822 45.8121,148.784 45.8121,148.784 45.8089,148.746 45.8062,148.709 45.8036,148.671 45.8013,148.634 45.7993,148.596 45.7977,148.559 45.7963,148.521 45.7952,148.483 45.7952,148.483 45.7943,148.446 45.7939,148.408 45.7936,148.371 45.7938,148.333 45.794,148.296 45.7947,148.258 45.7957,148.221 45.797,148.183 45.797,148.183 45.7985,148.146 45.8004,148.108 45.8025,148.071 45.805,148.033 45.8078,147.996 45.8109,147.958 45.8142,147.921 45.8178,147.883 45.8178,147.883 45.8219,147.846 45.8262,147.808 45.8308,147.771 45.8357,147.733 45.8408,147.696 45.8463,147.658 45.8521,147.621 45.8582,147.583 45.8582,147.583 45.8646,147.546 45.8715,147.508 45.8786,147.47 45.8859,147.433 45.8936,147.395 45.9015,147.358 45.9099,147.32 45.9184,147.283 45.9184,147.283 45.9274,147.245 45.9368,147.207 45.9464,147.17 45.9562,147.132 45.9665,147.094 45.977,147.057 45.9879,147.02 45.9989,146.982 45.9989,146.982 46.0105,146.944 46.0224,146.906 46.0346,146.868 46.0472,146.831 46.06,146.793 46.0731,146.756 46.0864,146.718 46.1001,146.681 46.1001,146.681 46.1143,146.643 46.1289,146.604 46.1437,146.566 46.1588,146.529 46.1741,146.491 46.1899,146.453 46.2059,146.416 46.222,146.378 46.222,146.378 46.2566,146.301 46.2924,146.224 46.3291,146.147 46.367,146.071 46.4058,145.996 46.4457,145.921 46.4866,145.847 46.5284,145.773 51.5695,137.296 51.6143,137.221 51.6604,137.146 51.7076,137.072 51.7559,136.998 51.8055,136.926 51.8562,136.854 51.908,136.783 51.961,136.713 51.961,136.713 51.9871,136.679 52.0134,136.646 52.04,136.613 52.0668,136.58 52.0939,136.547 52.1213,136.515 52.149,136.483 52.1768,136.451 52.1768,136.451 52.2045,136.42 52.2324,136.389 52.2605,136.358 52.2889,136.327 52.3175,136.297 52.3463,136.267 52.3754,136.238 52.4048,136.208 52.4048,136.208 52.4339,136.179 52.4632,136.151 52.4928,136.123 52.5226,136.095 52.5526,136.067 52.583,136.039 52.6135,136.012 52.6441,135.985 52.6441,135.985 52.6746,135.959 52.7054,135.933 52.7363,135.907 52.7673,135.881 52.7988,135.856 52.8303,135.83 52.862,135.805 52.894,135.781 52.894,135.781 52.9259,135.756 52.9579,135.733 52.9903,135.709 53.0227,135.685 53.0553,135.662 53.0881,135.639 53.1211,135.617 53.1543,135.594 53.1543,135.594 53.1874,135.572 53.2207,135.55 53.2542,135.529 53.2878,135.507 53.3216,135.487 53.3556,135.466 53.3897,135.445 53.424,135.425 53.424,135.425 53.4584,135.405 53.4927,135.385 53.5274,135.366 53.5622,135.347 53.597,135.328 53.6321,135.309 53.6673,135.291 53.7026,135.273 53.7026,135.273 53.7381,135.255 53.7736,135.237 53.8094,135.22 53.8452,135.202 53.8811,135.185 53.9171,135.169 53.9533,135.152 53.9895,135.136 53.9895,135.136 54.026,135.12 54.0626,135.104 54.0994,135.089 54.1362,135.073 54.1731,135.058 54.2101,135.044 54.2471,135.029 54.2843,135.015 54.2843,135.015 54.3218,135.001 54.3593,134.987 54.3969,134.973 54.4347,134.96 54.4724,134.946 54.5103,134.934 54.5483,134.921 54.5863,134.908 54.5863,134.908 54.6246,134.896 54.6629,134.884 54.7013,134.872 54.7399,134.86 54.7784,134.849 54.8172,134.838 54.8559,134.827 54.8947,134.816 54.8947,134.816 54.9338,134.805 54.973,134.795 55.0122,134.784 55.0515,134.774 55.0907,134.765 55.1302,134.755 55.1696,134.746 55.2091,134.737 55.2091,134.737 55.2489,134.727 55.2887,134.719 55.3287,134.71 55.3687,134.702 55.4086,134.693 55.4487,134.685 55.4888,134.678 55.5289,134.67 55.8535,134.616 55.8944,134.61 55.9355,134.604 55.9764,134.598 56.0175,134.593 56.0587,134.587 56.0998,134.582 56.141,134.577 56.1821,134.572 56.1821,134.572 56.2236,134.568 56.2651,134.563 56.3065,134.559 56.3482,134.555 56.3897,134.551 56.4313,134.547 56.4728,134.543 56.5144,134.54 56.5144,134.54 56.5563,134.537 56.5982,134.534 56.6402,134.53 56.6821,134.528 56.724,134.525 56.7659,134.523 56.8079,134.52 56.8498,134.518 56.8498,134.518 56.9344,134.514 57.019,134.51 57.1035,134.507 57.1882,134.505 57.2727,134.503 57.3574,134.502 57.442,134.501 57.5267,134.501 57.9388,134.501 60.0471,138.534 55.4645,146.69 52.5774,146.69 57.1141,138.625" fill="none" stroke="black" stroke-width="0.1"/>
        <polygon id="_132511232" points="63.8043,152.464 65.0417,150.22 62.3841,150.22 68.2039,137.021 72.4656,137.021 73.7489,134.731 66.4625,134.731 59.5429,150.22 57.9388,150.22 51.2029,162.226 58.3055,162.226 59.5882,159.934 55.4189,159.934 59.6344,152.464" fill="none" stroke="black" stroke-width="0.1"/>
        <polygon id="_131839120" points="81.3101,134.731 78.4227,134.731 62.9797,162.226 69.8076,162.226 71.0908,159.934 67.1499,159.934" fill="none" stroke="black" stroke-width="0.1"/>
        <polygon id="_131531760" points="99.5941,152.464 100.832,150.22 98.1733,150.22 103.948,137.021 108.255,137.021 109.538,134.731 102.252,134.731 95.3327,150.22 93.7284,150.22 86.9924,162.226 94.0953,162.226 95.3785,159.934 91.1623,159.934 95.3785,152.464" fill="none" stroke="black" stroke-width="0.1"/>
        <polygon id="_131379720_1" points="146.336,158.238 159.487,134.732 156.555,134.732 144.181,156.818 144.142,156.892 144.102,156.967 144.064,157.042 144.025,157.117 143.988,157.192 143.951,157.268 143.915,157.345 143.88,157.421 143.88,157.421 143.863,157.457 143.847,157.493 143.831,157.53 143.815,157.566 143.799,157.602 143.784,157.639 143.768,157.676 143.753,157.712 143.753,157.712 143.739,157.747 143.725,157.782 143.711,157.818 143.697,157.853 143.683,157.888 143.67,157.923 143.656,157.959 143.643,157.995 143.643,157.995 143.631,158.029 143.619,158.063 143.607,158.097 143.595,158.131 143.583,158.165 143.572,158.2 143.561,158.234 143.55,158.268 143.55,158.268 143.539,158.301 143.529,158.334 143.519,158.367 143.509,158.401 143.5,158.434 143.49,158.467 143.481,158.5 143.472,158.534 143.472,158.534 143.463,158.565 143.455,158.597 143.447,158.63 143.439,158.661 143.431,158.694 143.424,158.726 143.417,158.758 143.409,158.79 143.409,158.79 143.403,158.821 143.396,158.852 143.39,158.883 143.384,158.914 143.378,158.945 143.373,158.976 143.367,159.007 143.362,159.038 143.362,159.038 143.357,159.068 143.353,159.098 143.349,159.128 143.344,159.158 143.34,159.188 143.337,159.218 143.333,159.248 143.33,159.278 143.33,159.278 143.327,159.306 143.324,159.335 143.321,159.364 143.319,159.393 143.317,159.422 143.315,159.451 143.313,159.48 143.312,159.508 143.312,159.508 143.31,159.536 143.309,159.564 143.308,159.592 143.308,159.619 143.307,159.647 143.307,159.675 143.307,159.703 143.307,159.731 143.307,159.731 143.308,159.757 143.309,159.784 143.309,159.811 143.31,159.838 143.312,159.864 143.313,159.891 143.315,159.918 143.317,159.944 143.317,159.944 143.319,159.97 143.321,159.995 143.324,160.021 143.327,160.047 143.329,160.072 143.333,160.098 143.336,160.124 143.34,160.149 143.34,160.149 143.343,160.174 143.347,160.199 143.351,160.223 143.356,160.248 143.36,160.272 143.365,160.297 143.37,160.321 143.375,160.346 143.375,160.346 143.38,160.369 143.386,160.393 143.391,160.416 143.397,160.44 143.403,160.464 143.41,160.487 143.416,160.51 143.423,160.534 143.423,160.534 143.43,160.556 143.437,160.579 143.444,160.601 143.451,160.624 143.459,160.646 143.467,160.668 143.475,160.691 143.483,160.713 143.483,160.713 143.492,160.734 143.5,160.756 143.509,160.777 143.518,160.799 143.527,160.82 143.536,160.841 143.545,160.863 143.555,160.884 143.555,160.884 143.565,160.904 143.575,160.925 143.585,160.945 143.595,160.965 143.606,160.986 143.616,161.006 143.627,161.026 143.638,161.046 143.638,161.046 143.649,161.065 143.661,161.085 143.672,161.104 143.684,161.123 143.696,161.142 143.708,161.161 143.72,161.18 143.732,161.199 143.732,161.199 143.745,161.218 143.757,161.236 143.77,161.254 143.783,161.273 143.796,161.291 143.81,161.309 143.823,161.326 143.837,161.344 143.837,161.344 143.851,161.362 143.865,161.379 143.879,161.396 143.893,161.413 143.908,161.43 143.922,161.447 143.937,161.464 143.952,161.48 143.952,161.48 143.967,161.497 143.982,161.513 143.998,161.529 144.013,161.545 144.029,161.561 144.045,161.577 144.061,161.593 144.077,161.608 144.077,161.608 144.093,161.624 144.109,161.639 144.126,161.654 144.143,161.669 144.16,161.684 144.177,161.698 144.194,161.713 144.211,161.727 144.211,161.727 144.228,161.742 144.246,161.756 144.264,161.77 144.281,161.784 144.299,161.798 144.317,161.811 144.336,161.825 144.354,161.838 144.354,161.838 144.373,161.851 144.391,161.864 144.41,161.877 144.429,161.89 144.448,161.903 144.467,161.915 144.486,161.928 144.506,161.94 144.506,161.94 144.525,161.952 144.545,161.964 144.565,161.976 144.585,161.988 144.605,161.999 144.625,162.011 144.646,162.022 144.666,162.033 144.666,162.033 144.686,162.045 144.707,162.055 144.728,162.066 144.749,162.077 144.77,162.088 144.791,162.098 144.812,162.108 144.834,162.118 144.834,162.118 144.856,162.128 144.877,162.138 144.899,162.148 144.921,162.158 144.943,162.167 144.965,162.177 144.987,162.186 145.009,162.195 145.009,162.195 145.032,162.204 145.054,162.213 145.077,162.221 145.1,162.23 145.123,162.238 145.146,162.247 145.169,162.255 145.192,162.262 145.192,162.262 145.215,162.27 145.239,162.278 145.262,162.286 145.286,162.293 145.31,162.301 145.333,162.308 145.357,162.315 145.381,162.322 145.381,162.322 145.405,162.329 145.429,162.336 145.454,162.342 145.478,162.348 145.503,162.355 145.527,162.361 145.552,162.367 145.577,162.373 145.577,162.373 145.602,162.379 145.627,162.384 145.652,162.39 145.677,162.395 145.702,162.4 145.728,162.405 145.753,162.41 145.778,162.415 145.778,162.415 145.804,162.42 145.83,162.424 145.856,162.429 145.882,162.433 145.908,162.437 145.934,162.441 145.959,162.445 145.986,162.449 145.986,162.449 146.012,162.452 146.038,162.456 146.065,162.459 146.091,162.463 146.118,162.466 146.145,162.469 146.171,162.472 146.198,162.474 146.198,162.474 146.225,162.477 146.252,162.479 146.279,162.482 146.306,162.484 146.334,162.486 146.361,162.488 146.388,162.489 146.415,162.491 146.415,162.491 146.443,162.493 146.471,162.494 146.5,162.495 146.528,162.496 146.556,162.497 146.584,162.498 146.613,162.499 146.641,162.5 146.641,162.5 146.67,162.5 146.7,162.5 146.729,162.501 146.759,162.501 146.788,162.5 146.817,162.5 146.847,162.5 146.876,162.5 146.876,162.5 146.906,162.499 146.937,162.498 146.967,162.498 146.997,162.497 147.027,162.496 147.057,162.494 147.087,162.493 147.117,162.492 147.117,162.492 147.147,162.49 147.177,162.488 147.207,162.487 147.237,162.485 147.267,162.483 147.297,162.48 147.327,162.478 147.357,162.476 147.357,162.476 147.386,162.473 147.415,162.47 147.444,162.468 147.474,162.464 147.503,162.461 147.532,162.458 147.561,162.455 147.59,162.451 147.59,162.451 147.619,162.448 147.647,162.444 147.675,162.44 147.704,162.436 147.732,162.432 147.761,162.428 147.789,162.423 147.817,162.419 147.817,162.419 147.845,162.414 147.873,162.41 147.901,162.405 147.929,162.4 147.956,162.395 147.984,162.389 148.012,162.384 148.039,162.378 148.039,162.378 148.066,162.373 148.094,162.367 148.12,162.361 148.148,162.355 148.174,162.349 148.202,162.343 148.229,162.336 148.255,162.33 148.255,162.33 148.282,162.323 148.309,162.316 148.335,162.309 148.361,162.302 148.388,162.295 148.414,162.288 148.44,162.281 148.467,162.273 148.467,162.273 148.493,162.265 148.518,162.257 148.544,162.249 148.57,162.241 148.596,162.233 148.622,162.225 148.647,162.216 148.673,162.208 148.673,162.208 148.698,162.199 148.724,162.19 148.749,162.181 148.774,162.172 148.799,162.163 148.825,162.153 148.85,162.144 148.875,162.134 148.875,162.134 148.899,162.124 148.924,162.114 148.949,162.105 148.974,162.094 148.998,162.084 149.023,162.074 149.047,162.063 149.072,162.052 149.072,162.052 149.096,162.042 149.12,162.031 149.145,162.02 149.169,162.009 149.193,161.997 149.217,161.986 149.241,161.974 149.265,161.963 149.265,161.963 149.289,161.951 149.313,161.939 149.336,161.927 149.36,161.914 149.384,161.902 149.407,161.89 149.431,161.877 149.454,161.864 149.454,161.864 149.477,161.851 149.501,161.838 149.524,161.825 149.547,161.812 149.57,161.798 149.594,161.785 149.616,161.771 149.639,161.757 149.639,161.757 149.662,161.743 149.685,161.729 149.708,161.715 149.731,161.701 149.754,161.686 149.776,161.672 149.799,161.657 149.821,161.642 149.821,161.642 149.844,161.627 149.867,161.612 149.889,161.597 149.912,161.582 149.934,161.566 149.956,161.551 149.978,161.535 150.0,161.519 150.0,161.519 150.023,161.503 150.045,161.487 150.067,161.47 150.089,161.454 150.111,161.437 150.133,161.421 150.155,161.404 150.177,161.387 150.177,161.387 150.199,161.37 150.22,161.353 150.242,161.335 150.264,161.318 150.286,161.3 150.307,161.283 150.329,161.265 150.35,161.247 150.35,161.247 150.372,161.229 150.393,161.21 150.415,161.192 150.436,161.173 150.458,161.155 150.479,161.136 150.5,161.117 150.521,161.098 150.521,161.098 150.542,161.079 150.564,161.059 150.585,161.04 150.606,161.02 150.627,161.001 150.648,160.981 150.669,160.961 150.69,160.941 150.69,160.941 150.711,160.921 150.732,160.9 150.753,160.88 150.774,160.859 150.795,160.838 150.816,160.817 150.837,160.796 150.857,160.775 150.857,160.775 150.878,160.754 150.899,160.732 150.92,160.711 150.94,160.689 150.961,160.667 150.982,160.645 151.002,160.623 151.023,160.601 151.023,160.601 151.043,160.579 151.064,160.556 151.085,160.533 151.105,160.51 151.126,160.487 151.146,160.465 151.167,160.442 151.187,160.418 151.187,160.418 151.208,160.395 151.228,160.371 151.249,160.347 151.269,160.323 151.289,160.299 151.31,160.275 151.33,160.251 151.35,160.227 151.35,160.227 151.37,160.202 151.391,160.178 151.411,160.153 151.432,160.128 151.452,160.103 151.472,160.078 151.492,160.053 151.512,160.027 151.512,160.027 151.533,160.002 151.553,159.976 151.573,159.95 151.593,159.924 151.614,159.898 151.634,159.871 151.654,159.845 151.674,159.819 151.674,159.819 151.694,159.792 151.714,159.765 151.735,159.738 151.755,159.711 151.775,159.684 151.795,159.657 151.815,159.629 151.835,159.602 151.835,159.602 151.855,159.574 151.876,159.546 151.896,159.518 151.916,159.489 151.936,159.461 151.956,159.433 151.976,159.405 151.996,159.376 151.996,159.376 152.017,159.347 152.037,159.318 152.057,159.289 152.077,159.26 152.098,159.23 152.118,159.201 152.138,159.171 152.158,159.142 152.158,159.142 152.178,159.112 152.198,159.081 152.219,159.051 152.239,159.021 152.259,158.99 152.279,158.96 152.299,158.929 152.319,158.899 152.319,158.899 152.34,158.868 152.361,158.836 152.381,158.805 152.401,158.773 152.422,158.742 152.442,158.71 152.462,158.679 152.482,158.647 152.482,158.647 152.503,158.615 152.523,158.582 152.544,158.55 152.564,158.517 152.585,158.485 152.605,158.452 152.625,158.42 152.646,158.387 152.646,158.387 152.666,158.353 152.687,158.32 152.708,158.286 152.728,158.252 152.749,158.219 152.769,158.185 152.79,158.151 152.81,158.118 152.81,158.118 152.831,158.083 152.852,158.048 152.873,158.013 152.894,157.979 152.914,157.944 152.935,157.909 152.956,157.874 152.976,157.84 152.976,157.84 152.998,157.804 153.018,157.768 153.04,157.732 153.061,157.696 153.082,157.661 153.102,157.625 153.123,157.589 153.144,157.553 153.144,157.553 153.187,157.478 153.23,157.404 153.273,157.329 153.315,157.255 153.358,157.18 153.4,157.105 153.443,157.03 153.485,156.955 165.949,134.732 163.016,134.732 150.644,156.818 150.606,156.883 150.567,156.948 150.529,157.013 150.49,157.078 150.452,157.143 150.413,157.207 150.374,157.272 150.335,157.337 150.335,157.337 150.317,157.367 150.298,157.397 150.28,157.427 150.262,157.458 150.243,157.488 150.225,157.518 150.206,157.548 150.187,157.578 150.187,157.578 150.17,157.607 150.152,157.636 150.134,157.664 150.116,157.693 150.099,157.722 150.081,157.75 150.063,157.779 150.045,157.807 150.045,157.807 150.028,157.834 150.011,157.862 149.993,157.889 149.976,157.916 149.959,157.943 149.941,157.97 149.924,157.997 149.907,158.024 149.907,158.024 149.89,158.049 149.874,158.075 149.857,158.1 149.84,158.126 149.823,158.151 149.807,158.177 149.79,158.202 149.773,158.228 149.773,158.228 149.756,158.252 149.74,158.276 149.724,158.3 149.708,158.324 149.692,158.348 149.675,158.372 149.659,158.396 149.643,158.42 149.643,158.42 149.627,158.443 149.611,158.465 149.595,158.488 149.58,158.51 149.564,158.533 149.548,158.555 149.532,158.578 149.516,158.6 149.516,158.6 149.501,158.622 149.485,158.643 149.47,158.664 149.455,158.685 149.439,158.706 149.424,158.727 149.408,158.748 149.393,158.769 149.393,158.769 149.378,158.789 149.363,158.809 149.348,158.829 149.333,158.849 149.318,158.868 149.303,158.888 149.287,158.908 149.272,158.927 149.272,158.927 149.257,158.946 149.243,158.964 149.228,158.983 149.213,159.001 149.199,159.019 149.184,159.038 149.169,159.056 149.154,159.074 149.154,159.074 149.14,159.092 149.125,159.109 149.111,159.126 149.096,159.143 149.082,159.16 149.067,159.177 149.053,159.194 149.038,159.211 149.038,159.211 149.024,159.227 149.01,159.243 148.996,159.259 148.981,159.275 148.967,159.29 148.953,159.306 148.938,159.322 148.924,159.338 148.924,159.338 148.91,159.352 148.896,159.367 148.882,159.382 148.868,159.396 148.854,159.411 148.84,159.425 148.826,159.44 148.811,159.454 148.811,159.454 148.798,159.468 148.784,159.481 148.77,159.495 148.756,159.508 148.742,159.521 148.728,159.535 148.714,159.548 148.7,159.561 148.7,159.561 148.686,159.574 148.672,159.586 148.659,159.598 148.645,159.61 148.631,159.623 148.617,159.635 148.603,159.647 148.589,159.659 148.589,159.659 148.575,159.67 148.562,159.681 148.548,159.692 148.534,159.704 148.521,159.714 148.507,159.726 148.493,159.736 148.479,159.747 148.479,159.747 148.465,159.757 148.452,159.768 148.438,159.778 148.424,159.788 148.41,159.798 148.397,159.808 148.382,159.817 148.369,159.827 148.369,159.827 148.355,159.836 148.341,159.845 148.328,159.854 148.314,159.863 148.3,159.872 148.286,159.881 148.272,159.89 148.258,159.898 148.258,159.898 148.245,159.906 148.231,159.915 148.217,159.923 148.203,159.931 148.189,159.938 148.175,159.946 148.161,159.954 148.147,159.961 148.147,159.961 148.134,159.969 148.119,159.976 148.106,159.983 148.092,159.99 148.078,159.997 148.064,160.003 148.049,160.01 148.035,160.017 148.035,160.017 148.021,160.023 148.007,160.029 147.993,160.035 147.979,160.041 147.965,160.047 147.951,160.053 147.937,160.059 147.922,160.064 147.922,160.064 147.908,160.07 147.894,160.075 147.88,160.08 147.865,160.085 147.851,160.09 147.837,160.095 147.822,160.1 147.808,160.105 147.808,160.105 147.793,160.109 147.779,160.113 147.764,160.118 147.75,160.122 147.735,160.126 147.72,160.13 147.706,160.134 147.691,160.138 147.691,160.138 147.676,160.142 147.662,160.145 147.647,160.149 147.632,160.152 147.617,160.155 147.602,160.158 147.587,160.161 147.572,160.164 147.572,160.164 147.557,160.167 147.542,160.17 147.527,160.173 147.512,160.175 147.497,160.178 147.482,160.18 147.466,160.182 147.451,160.185 147.451,160.185 147.436,160.187 147.42,160.189 147.405,160.191 147.389,160.192 147.374,160.194 147.358,160.196 147.343,160.197 147.327,160.199 147.327,160.199 147.311,160.2 147.295,160.201 147.279,160.202 147.263,160.203 147.247,160.204 147.231,160.205 147.215,160.206 147.2,160.207 147.2,160.207 147.185,160.207 147.17,160.208 147.155,160.208 147.141,160.209 147.126,160.209 147.112,160.209 147.097,160.209 147.082,160.209 147.082,160.209 147.069,160.209 147.056,160.209 147.043,160.209 147.03,160.209 147.017,160.208 147.004,160.208 146.991,160.208 146.977,160.207 146.977,160.207 146.966,160.206 146.955,160.206 146.943,160.205 146.932,160.204 146.921,160.203 146.91,160.202 146.898,160.2 146.887,160.199 146.887,160.199 146.876,160.198 146.865,160.196 146.854,160.195 146.843,160.193 146.833,160.192 146.822,160.19 146.811,160.188 146.8,160.186 146.8,160.186 146.79,160.184 146.779,160.182 146.769,160.18 146.758,160.178 146.748,160.176 146.738,160.173 146.727,160.171 146.717,160.168 146.717,160.168 146.707,160.166 146.697,160.163 146.687,160.16 146.677,160.157 146.667,160.155 146.657,160.152 146.647,160.149 146.637,160.145 146.637,160.145 146.627,160.142 146.618,160.139 146.608,160.136 146.599,160.132 146.589,160.129 146.58,160.125 146.571,160.121 146.561,160.118 146.561,160.118 146.552,160.114 146.543,160.11 146.534,160.106 146.525,160.102 146.516,160.098 146.507,160.093 146.498,160.089 146.489,160.085 146.489,160.085 146.481,160.08 146.472,160.076 146.464,160.071 146.455,160.066 146.447,160.062 146.439,160.057 146.43,160.052 146.422,160.047 146.422,160.047 146.414,160.042 146.406,160.037 146.398,160.032 146.39,160.026 146.382,160.021 146.374,160.016 146.367,160.01 146.359,160.004 146.359,160.004 146.351,159.999 146.344,159.993 146.337,159.987 146.329,159.981 146.322,159.975 146.315,159.969 146.308,159.963 146.301,159.957 146.301,159.957 146.294,159.951 146.287,159.945 146.28,159.938 146.273,159.932 146.267,159.925 146.26,159.919 146.254,159.912 146.247,159.905 146.247,159.905 146.241,159.898 146.235,159.892 146.228,159.885 146.222,159.878 146.216,159.87 146.21,159.863 146.205,159.856 146.199,159.849 146.199,159.849 146.193,159.841 146.187,159.834 146.182,159.826 146.176,159.819 146.171,159.811 146.166,159.803 146.161,159.795 146.155,159.788 146.155,159.788 146.15,159.78 146.146,159.772 146.141,159.763 146.136,159.755 146.131,159.747 146.127,159.739 146.122,159.73 146.118,159.722 146.118,159.722 146.114,159.713 146.109,159.705 146.105,159.696 146.101,159.687 146.097,159.678 146.093,159.67 146.089,159.661 146.086,159.652 146.086,159.652 146.082,159.643 146.079,159.633 146.075,159.624 146.072,159.615 146.069,159.606 146.066,159.596 146.063,159.587 146.06,159.577 146.06,159.577 146.057,159.568 146.054,159.558 146.051,159.548 146.049,159.538 146.046,159.528 146.044,159.518 146.042,159.508 146.04,159.498 146.04,159.498 146.037,159.488 146.036,159.478 146.034,159.467 146.032,159.457 146.03,159.447 146.028,159.436 146.027,159.426 146.026,159.415 146.026,159.415 146.024,159.404 146.023,159.394 146.022,159.383 146.021,159.372 146.02,159.361 146.019,159.35 146.019,159.339 146.018,159.328 146.018,159.328 146.018,159.317 146.017,159.305 146.017,159.294 146.017,159.282 146.017,159.271 146.017,159.259 146.017,159.248 146.017,159.237 146.017,159.237 146.018,159.225 146.018,159.213 146.019,159.201 146.019,159.189 146.02,159.177 146.021,159.165 146.022,159.153 146.023,159.141 146.023,159.141 146.024,159.129 146.026,159.116 146.027,159.104 146.029,159.091 146.03,159.079 146.032,159.066 146.034,159.054 146.036,159.041 146.036,159.041 146.038,159.028 146.04,159.015 146.043,159.002 146.045,158.989 146.048,158.977 146.05,158.964 146.053,158.951 146.056,158.938 146.056,158.938 146.059,158.924 146.062,158.911 146.065,158.897 146.069,158.884 146.072,158.87 146.076,158.857 146.08,158.844 146.083,158.83 146.083,158.83 146.087,158.816 146.091,158.802 146.096,158.788 146.1,158.774 146.104,158.761 146.109,158.747 146.114,158.733 146.118,158.719 146.118,158.719 146.123,158.705 146.128,158.69 146.134,158.675 146.139,158.661 146.144,158.647 146.15,158.632 146.155,158.618 146.161,158.604 146.161,158.604 146.167,158.589 146.173,158.574 146.179,158.559 146.185,158.544 146.192,158.529 146.198,158.514 146.205,158.5 146.211,158.485 146.211,158.485 146.226,158.453 146.241,158.422 146.256,158.391 146.271,158.36 146.287,158.329 146.303,158.299 146.319,158.268" fill="none" stroke="black" stroke-width="0.1"/>
        <polygon id="_132136424" points="178.048,134.731 169.89,134.731 168.607,137.021 173.052,137.021 153.944,162.226 162.466,162.226 163.75,159.934 158.848,159.934" fill="none" stroke="black" stroke-width="0.1"/>
        <polygon id="_132150832" points="189.55,134.731 181.392,134.731 180.109,137.021 184.555,137.021 165.446,162.226 173.969,162.226 175.251,159.934 170.348,159.934" fill="none" stroke="black" stroke-width="0.1"/>
        <polygon id="_132204424" points="196.469,134.731 193.583,134.731 178.139,162.226 184.967,162.226 186.249,159.934 182.309,159.934" fill="none" stroke="black" stroke-width="0.1"/>
        <polygon id="_132141592" points="201.005,152.464 202.244,150.22 199.585,150.22 205.359,137.021 209.667,137.021 210.949,134.731 203.617,134.731 196.745,150.22 195.095,150.22 188.358,162.226 195.507,162.226 196.789,159.934 192.574,159.934 196.789,152.464" fill="none" stroke="black" stroke-width="0.1"/>
        <polygon id="_131954472___1_2" points="106.835,153.381 108.072,153.381 105.872,162.226 108.622,162.226 110.73,153.244 110.794,153.23 110.858,153.216 110.922,153.202 110.986,153.186 111.049,153.17 111.113,153.153 111.176,153.135 111.238,153.116 111.238,153.116 111.269,153.106 111.3,153.096 111.331,153.086 111.362,153.076 111.392,153.066 111.423,153.055 111.453,153.044 111.484,153.033 111.724,152.938 111.753,152.925 111.783,152.912 111.812,152.898 111.842,152.885 111.871,152.871 111.9,152.857 111.929,152.843 111.958,152.829 111.958,152.829 111.988,152.814 112.017,152.799 112.045,152.784 112.074,152.769 112.103,152.753 112.132,152.737 112.16,152.721 112.189,152.705 112.189,152.705 112.217,152.689 112.246,152.672 112.274,152.655 112.303,152.638 112.331,152.62 112.359,152.603 112.387,152.585 112.415,152.567 112.415,152.567 112.443,152.548 112.471,152.53 112.499,152.511 112.527,152.492 112.555,152.472 112.583,152.453 112.61,152.433 112.638,152.413 112.638,152.413 112.666,152.393 112.693,152.372 112.721,152.351 112.749,152.33 112.776,152.309 112.803,152.287 112.831,152.266 112.858,152.244 112.858,152.244 112.885,152.221 112.913,152.198 112.94,152.175 112.968,152.152 112.995,152.128 113.022,152.105 113.049,152.081 113.076,152.057 113.076,152.057 113.103,152.033 113.131,152.007 113.158,151.982 113.185,151.957 113.212,151.931 113.238,151.906 113.265,151.88 113.292,151.854 113.292,151.854 113.319,151.827 113.346,151.799 113.374,151.772 113.401,151.745 113.427,151.717 113.454,151.689 113.481,151.661 113.507,151.633 113.507,151.633 113.535,151.603 113.562,151.574 113.589,151.544 113.616,151.514 113.642,151.484 113.669,151.454 113.696,151.424 113.722,151.393 113.722,151.393 113.749,151.362 113.777,151.329 113.804,151.297 113.831,151.265 113.858,151.233 113.884,151.2 113.911,151.168 113.937,151.135 113.937,151.135 113.965,151.101 113.992,151.066 114.019,151.031 114.046,150.997 114.073,150.962 114.1,150.927 114.127,150.892 114.153,150.857 114.153,150.857 114.181,150.82 114.208,150.783 114.236,150.746 114.263,150.709 114.29,150.671 114.317,150.634 114.344,150.596 114.37,150.559 114.37,150.559 114.398,150.519 114.426,150.48 114.454,150.44 114.481,150.4 114.509,150.36 114.536,150.32 114.563,150.28 114.59,150.24 114.59,150.24 114.618,150.198 114.646,150.156 114.674,150.113 114.702,150.071 114.729,150.028 114.757,149.985 114.784,149.943 114.812,149.9 114.812,149.9 114.84,149.855 114.869,149.81 114.897,149.765 114.925,149.72 114.953,149.674 114.981,149.629 115.009,149.583 115.037,149.538 115.037,149.538 115.096,149.441 115.154,149.343 115.212,149.245 115.269,149.147 115.327,149.049 115.383,148.95 115.439,148.851 115.495,148.753 121.132,138.671 119.07,134.731 114.35,134.731 98.9064,162.226 101.839,162.226 108.118,151.09 116.0,137.022 117.283,137.022 118.153,138.716 112.792,148.294 112.747,148.372 112.703,148.449 112.658,148.526 112.613,148.603 112.567,148.68 112.521,148.756 112.474,148.832 112.427,148.908 112.427,148.908 112.405,148.942 112.383,148.977 112.361,149.012 112.338,149.046 112.316,149.081 112.293,149.115 112.27,149.15 112.247,149.184 112.247,149.184 112.226,149.216 112.204,149.248 112.182,149.28 112.16,149.312 112.137,149.344 112.115,149.376 112.093,149.407 112.07,149.439 112.07,149.439 112.048,149.468 112.027,149.498 112.005,149.527 111.983,149.556 111.961,149.586 111.938,149.615 111.916,149.644 111.893,149.672 111.893,149.672 111.872,149.699 111.85,149.726 111.828,149.753 111.806,149.78 111.784,149.807 111.762,149.833 111.739,149.86 111.717,149.886 111.717,149.886 111.695,149.91 111.673,149.935 111.651,149.959 111.629,149.984 111.607,150.008 111.584,150.032 111.562,150.056 111.539,150.079 111.539,150.079 111.517,150.102 111.495,150.124 111.473,150.146 111.451,150.168 111.429,150.19 111.406,150.211 111.383,150.232 111.36,150.254 111.36,150.254 111.338,150.274 111.316,150.294 111.293,150.314 111.271,150.333 111.248,150.353 111.225,150.372 111.202,150.391 111.179,150.41 111.179,150.41 111.156,150.428 111.133,150.445 111.11,150.463 111.088,150.48 111.064,150.498 111.041,150.515 111.017,150.531 110.994,150.548 110.994,150.548 110.971,150.564 110.947,150.579 110.924,150.595 110.9,150.61 110.876,150.625 110.853,150.64 110.828,150.654 110.804,150.669 110.804,150.669 110.78,150.682 110.756,150.696 110.732,150.709 110.708,150.723 110.684,150.736 110.659,150.748 110.635,150.761 110.61,150.773 110.61,150.773 110.585,150.785 110.56,150.796 110.535,150.808 110.51,150.819 110.485,150.83 110.46,150.84 110.435,150.851 110.409,150.861 110.409,150.861 110.384,150.871 110.358,150.881 110.332,150.89 110.306,150.899 110.28,150.908 110.254,150.917 110.228,150.926 110.202,150.934 110.202,150.934 110.175,150.942 110.148,150.95 110.121,150.957 110.094,150.965 110.067,150.972 110.04,150.979 110.013,150.985 109.986,150.992 109.986,150.992 109.958,150.998 109.93,151.004 109.903,151.01 109.875,151.016 109.847,151.021 109.819,151.026 109.791,151.031 109.762,151.036 109.762,151.036 109.733,151.04 109.704,151.045 109.675,151.049 109.646,151.053 109.617,151.057 109.588,151.06 109.558,151.063 109.529,151.066 109.529,151.066 109.467,151.072 109.405,151.077 109.344,151.081 109.282,151.084 109.22,151.087 109.158,151.088 109.096,151.089 109.034,151.09 108.118,151.09" fill="none" stroke="black" stroke-width="0.1"/>
    </g>
</svg>
