<!DOCTYPE svg PUBLIC "-//W3C//DTD SVG 1.1//EN" "http://www.w3.org/Graphics/SVG/1.1/DTD/svg11.dtd">
<svg xmlns="http://www.w3.org/2000/svg" width="297mm" height="210mm" viewBox="0 0 297 210">
    <defs id="_tag_28_"/>
    <g id="trashNode_001"/>
    <g id="_tag_29_">
        <polygon id="_132204712___0" points="113.728,159.284 116.004,159.284 116.066,159.284 116.128,159.283 116.19,159.281 116.252,159.279 116.313,159.276 116.375,159.273 116.437,159.269 116.499,159.264 116.499,159.264 116.528,159.262 116.558,159.259 116.587,159.256 116.617,159.253 116.647,159.25 116.676,159.246 116.706,159.243 116.735,159.239 116.735,159.239 116.764,159.235 116.793,159.231 116.821,159.227 116.85,159.223 116.879,159.218 116.907,159.213 116.936,159.208 116.964,159.203 116.964,159.203 116.992,159.198 117.02,159.193 117.048,159.187 117.076,159.182 117.104,159.176 117.132,159.17 117.159,159.163 117.187,159.157 117.187,159.157 117.214,159.15 117.241,159.144 117.268,159.137 117.295,159.13 117.322,159.122 117.349,159.115 117.376,159.107 117.403,159.099 117.403,159.099 117.429,159.091 117.456,159.083 117.482,159.075 117.508,159.066 117.534,159.057 117.56,159.048 117.586,159.039 117.613,159.03 117.613,159.03 117.638,159.021 117.664,159.011 117.69,159.001 117.715,158.991 117.741,158.981 117.766,158.971 117.791,158.96 117.817,158.949 117.817,158.949 117.842,158.938 117.867,158.927 117.892,158.916 117.917,158.904 117.942,158.893 117.966,158.881 117.991,158.869 118.016,158.857 118.016,158.857 118.04,158.844 118.064,158.832 118.089,158.819 118.113,158.806 118.137,158.792 118.161,158.779 118.185,158.766 118.209,158.752 118.209,158.752 118.233,158.738 118.257,158.724 118.281,158.709 118.305,158.695 118.329,158.68 118.352,158.665 118.376,158.65 118.399,158.634 118.399,158.634 118.423,158.619 118.446,158.603 118.469,158.587 118.493,158.571 118.516,158.554 118.539,158.538 118.562,158.521 118.584,158.504 118.584,158.504 118.608,158.487 118.631,158.47 118.653,158.452 118.676,158.434 118.699,158.416 118.722,158.398 118.744,158.38 118.766,158.361 118.766,158.361 118.789,158.342 118.812,158.323 118.834,158.304 118.857,158.285 118.879,158.265 118.901,158.245 118.923,158.225 118.945,158.205 118.945,158.205 118.968,158.185 118.99,158.164 119.012,158.143 119.034,158.122 119.056,158.1 119.078,158.079 119.1,158.057 119.121,158.036 119.121,158.036 119.143,158.013 119.165,157.991 119.187,157.968 119.209,157.945 119.231,157.922 119.252,157.899 119.274,157.876 119.295,157.852 119.295,157.852 119.317,157.828 119.338,157.803 119.36,157.779 119.382,157.754 119.403,157.73 119.424,157.705 119.446,157.68 119.467,157.655 119.467,157.655 119.488,157.629 119.51,157.602 119.531,157.576 119.553,157.55 119.574,157.523 119.595,157.497 119.616,157.47 119.637,157.443 119.637,157.443 119.658,157.415 119.68,157.387 119.701,157.359 119.722,157.331 119.743,157.302 119.764,157.274 119.785,157.245 119.806,157.217 119.806,157.217 119.828,157.187 119.849,157.157 119.87,157.127 119.891,157.097 119.912,157.067 119.933,157.037 119.954,157.006 119.975,156.976 119.975,156.976 119.996,156.944 120.018,156.912 120.039,156.881 120.06,156.849 120.081,156.817 120.102,156.784 120.123,156.752 120.143,156.72 120.143,156.72 120.165,156.686 120.186,156.653 120.207,156.619 120.228,156.585 120.249,156.551 120.27,156.517 120.291,156.483 120.312,156.449 120.312,156.449 120.355,156.376 120.398,156.304 120.441,156.231 120.483,156.158 120.525,156.084 120.567,156.011 120.608,155.937 120.649,155.863 122.125,153.199 121.225,151.471 121.291,151.458 121.357,151.445 121.423,151.43 121.489,151.415 121.555,151.399 121.62,151.381 121.685,151.363 121.75,151.344 121.75,151.344 121.78,151.334 121.811,151.324 121.842,151.315 121.872,151.304 121.903,151.294 121.933,151.283 121.964,151.272 121.994,151.261 121.994,151.261 122.023,151.25 122.052,151.239 122.081,151.227 122.111,151.215 122.139,151.203 122.168,151.191 122.197,151.179 122.226,151.166 122.226,151.166 122.254,151.154 122.282,151.141 122.309,151.128 122.337,151.114 122.364,151.101 122.392,151.087 122.419,151.073 122.446,151.059 122.446,151.059 122.473,151.045 122.5,151.031 122.526,151.017 122.552,151.002 122.579,150.987 122.605,150.972 122.631,150.956 122.657,150.941 122.657,150.941 122.682,150.925 122.707,150.91 122.733,150.894 122.758,150.877 122.783,150.861 122.808,150.845 122.832,150.828 122.857,150.811 122.857,150.811 122.881,150.794 122.906,150.777 122.93,150.759 122.954,150.742 122.978,150.724 123.001,150.706 123.025,150.688 123.048,150.669 123.048,150.669 123.072,150.651 123.095,150.632 123.118,150.613 123.141,150.595 123.164,150.575 123.187,150.556 123.21,150.537 123.232,150.517 123.232,150.517 123.255,150.497 123.277,150.477 123.299,150.457 123.321,150.437 123.343,150.416 123.365,150.396 123.387,150.375 123.408,150.354 123.408,150.354 123.43,150.333 123.452,150.311 123.473,150.29 123.494,150.268 123.516,150.246 123.537,150.224 123.558,150.202 123.578,150.18 123.578,150.18 123.599,150.157 123.62,150.135 123.641,150.112 123.662,150.089 123.682,150.066 123.702,150.042 123.723,150.019 123.743,149.996 123.743,149.996 123.763,149.972 123.783,149.947 123.804,149.923 123.824,149.899 123.844,149.875 123.863,149.85 123.883,149.826 123.903,149.801 123.903,149.801 123.922,149.776 123.942,149.75 123.962,149.725 123.981,149.7 124.001,149.674 124.02,149.648 124.039,149.623 124.059,149.597 124.059,149.597 124.078,149.57 124.097,149.543 124.117,149.517 124.136,149.49 124.155,149.463 124.174,149.436 124.193,149.41 124.212,149.382 124.212,149.382 124.231,149.355 124.25,149.327 124.269,149.299 124.288,149.271 124.307,149.243 124.325,149.215 124.344,149.187 124.363,149.159 124.363,149.159 124.381,149.13 124.4,149.101 124.419,149.072 124.438,149.043 124.457,149.013 124.475,148.984 124.494,148.955 124.512,148.926 124.512,148.926 124.531,148.896 124.55,148.865 124.569,148.835 124.587,148.805 124.606,148.774 124.625,148.744 124.643,148.714 124.661,148.683 124.661,148.683 124.68,148.652 124.699,148.621 124.718,148.589 124.737,148.558 124.755,148.527 124.774,148.495 124.793,148.464 124.811,148.432 124.811,148.432 124.849,148.367 124.888,148.301 124.926,148.236 124.963,148.17 125.001,148.104 125.039,148.038 125.076,147.972 125.114,147.906 129.038,140.849 127.382,137.682 123.565,137.682 120.083,143.881 116.811,149.707 115.758,151.582 111.432,159.284 113.728,159.284 114.744,157.483 118.057,151.615 119.137,149.707 124.861,139.481 125.978,139.481 126.734,140.921 123.061,147.51 123.027,147.571 122.992,147.632 122.956,147.693 122.921,147.753 122.885,147.813 122.849,147.873 122.812,147.933 122.775,147.992 122.775,147.992 122.757,148.02 122.74,148.047 122.723,148.074 122.705,148.101 122.687,148.129 122.67,148.156 122.652,148.183 122.634,148.209 122.634,148.209 122.617,148.235 122.599,148.26 122.582,148.285 122.565,148.31 122.547,148.335 122.53,148.36 122.512,148.385 122.494,148.41 122.494,148.41 122.477,148.433 122.46,148.456 122.443,148.479 122.426,148.502 122.408,148.525 122.391,148.548 122.373,148.57 122.355,148.593 122.355,148.593 122.338,148.614 122.321,148.636 122.304,148.657 122.287,148.678 122.269,148.699 122.252,148.719 122.234,148.74 122.217,148.761 122.217,148.761 122.2,148.78 122.182,148.799 122.165,148.819 122.148,148.838 122.13,148.857 122.113,148.875 122.095,148.894 122.077,148.913 122.077,148.913 122.06,148.93 122.043,148.948 122.025,148.965 122.008,148.982 121.99,148.999 121.973,149.016 121.955,149.033 121.937,149.05 121.937,149.05 121.919,149.066 121.902,149.081 121.884,149.097 121.866,149.112 121.848,149.128 121.83,149.143 121.812,149.158 121.794,149.172 121.794,149.172 121.776,149.187 121.758,149.201 121.74,149.214 121.722,149.228 121.704,149.241 121.686,149.255 121.667,149.268 121.649,149.281 121.649,149.281 121.63,149.293 121.612,149.306 121.594,149.318 121.575,149.33 121.556,149.342 121.538,149.353 121.519,149.365 121.5,149.376 121.5,149.376 121.481,149.387 121.462,149.397 121.443,149.408 121.424,149.418 121.405,149.428 121.386,149.438 121.366,149.448 121.347,149.458 121.347,149.458 121.328,149.467 121.308,149.476 121.288,149.485 121.269,149.494 121.249,149.502 121.229,149.511 121.209,149.519 121.189,149.527 121.189,149.527 121.169,149.535 121.149,149.542 121.129,149.55 121.108,149.557 121.088,149.564 121.067,149.571 121.047,149.578 121.026,149.584 121.026,149.584 121.005,149.591 120.984,149.597 120.963,149.603 120.942,149.608 120.921,149.614 120.9,149.619 120.878,149.625 120.857,149.63 120.857,149.63 120.835,149.635 120.813,149.64 120.791,149.644 120.769,149.649 120.747,149.653 120.725,149.657 120.703,149.661 120.681,149.664 120.681,149.664 120.658,149.668 120.635,149.671 120.613,149.675 120.59,149.678 120.567,149.681 120.544,149.683 120.521,149.686 120.498,149.688 120.498,149.688 120.449,149.693 120.401,149.697 120.352,149.7 120.304,149.702 120.255,149.704 120.206,149.706 120.158,149.706 120.109,149.707 119.137,149.707 118.057,151.615 118.957,151.615 119.821,153.271 118.705,155.287 118.672,155.347 118.638,155.407 118.603,155.466 118.569,155.526 118.534,155.585 118.498,155.644 118.463,155.702 118.426,155.761 118.426,155.761 118.409,155.787 118.392,155.814 118.375,155.841 118.357,155.868 118.34,155.895 118.322,155.922 118.304,155.948 118.287,155.975 118.287,155.975 118.27,156.0 118.253,156.024 118.235,156.049 118.218,156.074 118.201,156.099 118.183,156.124 118.165,156.148 118.147,156.173 118.147,156.173 118.131,156.196 118.113,156.219 118.096,156.242 118.079,156.265 118.061,156.287 118.043,156.31 118.026,156.332 118.008,156.355 118.008,156.355 117.991,156.376 117.974,156.397 117.956,156.418 117.939,156.439 117.921,156.46 117.903,156.481 117.885,156.501 117.868,156.522 117.868,156.522 117.85,156.541 117.833,156.561 117.815,156.58 117.798,156.599 117.78,156.618 117.762,156.637 117.744,156.655 117.726,156.674 117.726,156.674 117.708,156.692 117.69,156.709 117.672,156.727 117.655,156.744 117.636,156.761 117.618,156.778 117.6,156.795 117.582,156.812 117.582,156.812 117.564,156.828 117.546,156.843 117.528,156.859 117.509,156.875 117.491,156.89 117.472,156.905 117.454,156.92 117.435,156.935 117.435,156.935 117.417,156.95 117.398,156.964 117.38,156.978 117.361,156.992 117.342,157.005 117.324,157.019 117.304,157.032 117.285,157.045 117.285,157.045 117.267,157.058 117.248,157.07 117.229,157.083 117.21,157.095 117.19,157.107 117.171,157.119 117.152,157.13 117.132,157.142 117.132,157.142 117.113,157.153 117.093,157.164 117.074,157.174 117.054,157.185 117.034,157.195 117.015,157.206 116.995,157.215 116.975,157.225 116.975,157.225 116.955,157.235 116.935,157.244 116.915,157.253 116.894,157.262 116.874,157.271 116.854,157.28 116.833,157.288 116.813,157.296 116.813,157.296 116.792,157.305 116.771,157.312 116.751,157.32 116.73,157.327 116.709,157.335 116.688,157.342 116.667,157.349 116.646,157.356 116.646,157.356 116.624,157.362 116.603,157.369 116.581,157.375 116.559,157.381 116.538,157.387 116.516,157.392 116.494,157.398 116.473,157.403 116.473,157.403 116.45,157.408 116.428,157.413 116.406,157.418 116.383,157.422 116.361,157.427 116.338,157.431 116.316,157.435 116.293,157.439 116.293,157.439 116.27,157.443 116.247,157.446 116.224,157.45 116.201,157.453 116.177,157.456 116.154,157.459 116.131,157.462 116.108,157.464 116.108,157.464 116.059,157.469 116.01,157.473 115.961,157.476 115.912,157.479 115.863,157.481 115.814,157.482 115.765,157.483 115.716,157.483 114.744,157.483" fill="none" stroke="black" stroke-width="0.1"/>
        <polygon id="_132204712___0_0" points="82.5473,159.284 84.8238,159.284 84.8856,159.284 84.9474,159.283 85.0092,159.281 85.071,159.279 85.1329,159.276 85.1946,159.273 85.2563,159.269 85.318,159.264 85.318,159.264 85.3476,159.262 85.3771,159.259 85.4068,159.256 85.4364,159.253 85.466,159.25 85.4955,159.246 85.525,159.243 85.5546,159.239 85.5546,159.239 85.5834,159.235 85.612,159.231 85.6408,159.227 85.6695,159.223 85.6981,159.218 85.7268,159.213 85.7553,159.208 85.7839,159.203 85.7839,159.203 85.8118,159.198 85.8397,159.193 85.8676,159.187 85.8954,159.182 85.9231,159.176 85.9509,159.17 85.9786,159.163 86.0063,159.157 86.0063,159.157 86.0334,159.15 86.0605,159.144 86.0876,159.137 86.1146,159.13 86.1415,159.122 86.1684,159.115 86.1953,159.107 86.2221,159.099 86.2221,159.099 86.2486,159.091 86.275,159.083 86.3012,159.075 86.3275,159.066 86.3537,159.057 86.3799,159.048 86.4059,159.039 86.4319,159.03 86.4319,159.03 86.4578,159.021 86.4835,159.011 86.5091,159.001 86.5347,158.991 86.5602,158.981 86.5855,158.971 86.6108,158.96 86.6361,158.949 86.6361,158.949 86.6612,158.938 86.6863,158.927 86.7113,158.916 86.7362,158.904 86.761,158.893 86.7857,158.881 86.8105,158.869 86.835,158.857 86.835,158.857 86.8595,158.844 86.8839,158.832 86.9083,158.819 86.9327,158.806 86.9568,158.792 86.9809,158.779 87.005,158.766 87.0288,158.752 87.0288,158.752 87.0529,158.738 87.0768,158.724 87.1007,158.709 87.1244,158.695 87.1481,158.68 87.1716,158.665 87.1951,158.65 87.2184,158.634 87.2184,158.634 87.2419,158.619 87.2654,158.603 87.2887,158.587 87.312,158.571 87.3351,158.554 87.3582,158.538 87.3811,158.521 87.4039,158.504 87.4039,158.504 87.427,158.487 87.4501,158.47 87.473,158.452 87.4958,158.434 87.5185,158.416 87.5411,158.398 87.5636,158.38 87.5859,158.361 87.5859,158.361 87.6086,158.342 87.6313,158.323 87.6538,158.304 87.6762,158.285 87.6985,158.265 87.7206,158.245 87.7427,158.225 87.7646,158.205 87.7646,158.205 87.7871,158.185 87.8094,158.164 87.8315,158.143 87.8536,158.122 87.8756,158.1 87.8973,158.079 87.9191,158.057 87.9406,158.036 87.9406,158.036 87.9627,158.013 87.9847,157.991 88.0066,157.968 88.0284,157.945 88.05,157.922 88.0716,157.899 88.0929,157.876 88.1143,157.852 88.1143,157.852 88.1361,157.828 88.1579,157.803 88.1796,157.779 88.2011,157.754 88.2226,157.73 88.2438,157.705 88.265,157.68 88.286,157.655 88.286,157.655 88.3078,157.629 88.3293,157.602 88.3508,157.576 88.3721,157.55 88.3933,157.523 88.4144,157.497 88.4354,157.47 88.4562,157.443 88.4562,157.443 88.4778,157.415 88.4993,157.387 88.5207,157.359 88.5419,157.331 88.5629,157.302 88.5839,157.274 88.6048,157.245 88.6256,157.217 88.6256,157.217 88.647,157.187 88.6685,157.157 88.6897,157.127 88.7108,157.097 88.7318,157.067 88.7527,157.037 88.7735,157.006 88.7942,156.976 88.7942,156.976 88.8156,156.944 88.8369,156.912 88.8582,156.881 88.8792,156.849 88.9002,156.817 88.9211,156.784 88.942,156.752 88.9626,156.72 88.9626,156.72 88.9841,156.686 89.0054,156.653 89.0266,156.619 89.0477,156.585 89.0687,156.551 89.0896,156.517 89.1105,156.483 89.1312,156.449 89.1312,156.449 89.1748,156.376 89.2179,156.304 89.2605,156.231 89.3029,156.158 89.3448,156.084 89.3863,156.011 89.4276,155.937 89.4685,155.863 90.9447,153.199 90.0445,151.471 90.1108,151.458 90.1768,151.445 90.2428,151.43 90.3085,151.415 90.3741,151.399 90.4393,151.381 90.5043,151.363 90.569,151.344 90.569,151.344 90.5998,151.334 90.6305,151.324 90.6611,151.315 90.6918,151.304 90.7222,151.294 90.7526,151.283 90.783,151.272 90.8132,151.261 90.8132,151.261 90.8425,151.25 90.8717,151.239 90.9008,151.227 90.9299,151.215 90.9589,151.203 90.9878,151.191 91.0166,151.179 91.0452,151.166 91.0452,151.166 91.0731,151.154 91.101,151.141 91.1288,151.128 91.1564,151.114 91.1839,151.101 91.2114,151.087 91.2388,151.073 91.2659,151.059 91.2659,151.059 91.2926,151.045 91.3192,151.031 91.3455,151.017 91.3719,151.002 91.3981,150.987 91.4242,150.972 91.4502,150.956 91.476,150.941 91.476,150.941 91.5015,150.925 91.5269,150.91 91.5522,150.894 91.5772,150.877 91.6023,150.861 91.6271,150.845 91.6518,150.828 91.6765,150.811 91.6765,150.811 91.7008,150.794 91.7251,150.777 91.7492,150.759 91.7733,150.742 91.7971,150.724 91.8209,150.706 91.8445,150.688 91.868,150.669 91.868,150.669 91.8914,150.651 91.9147,150.632 91.9378,150.613 91.9609,150.595 91.9837,150.575 92.0065,150.556 92.0291,150.537 92.0516,150.517 92.0516,150.517 92.0741,150.497 92.0964,150.477 92.1186,150.457 92.1407,150.437 92.1627,150.416 92.1846,150.396 92.2063,150.375 92.2278,150.354 92.2278,150.354 92.2495,150.333 92.2711,150.311 92.2926,150.29 92.3138,150.268 92.335,150.246 92.356,150.224 92.377,150.202 92.3978,150.18 92.3978,150.18 92.4188,150.157 92.4397,150.135 92.4604,150.112 92.4811,150.089 92.5015,150.066 92.5219,150.042 92.5421,150.019 92.5622,149.996 92.5622,149.996 92.5826,149.972 92.6028,149.947 92.6231,149.923 92.6431,149.899 92.663,149.875 92.6828,149.85 92.7025,149.826 92.7221,149.801 92.7221,149.801 92.7419,149.776 92.7617,149.75 92.7813,149.725 92.8008,149.7 92.8203,149.674 92.8396,149.648 92.8588,149.623 92.878,149.597 92.878,149.597 92.8974,149.57 92.9169,149.543 92.9362,149.517 92.9553,149.49 92.9744,149.463 92.9934,149.436 93.0123,149.41 93.031,149.382 93.031,149.382 93.0502,149.355 93.0693,149.327 93.0883,149.299 93.1071,149.271 93.126,149.243 93.1448,149.215 93.1634,149.187 93.182,149.159 93.182,149.159 93.2009,149.13 93.2198,149.101 93.2386,149.072 93.2573,149.043 93.2761,149.013 93.2947,148.984 93.3131,148.955 93.3316,148.926 93.3316,148.926 93.3506,148.896 93.3694,148.865 93.3881,148.835 93.4068,148.805 93.4254,148.774 93.444,148.744 93.4625,148.714 93.4808,148.683 93.4808,148.683 93.4998,148.652 93.5186,148.621 93.5374,148.589 93.5561,148.558 93.5748,148.527 93.5934,148.495 93.612,148.464 93.6305,148.432 93.6305,148.432 93.6688,148.367 93.707,148.301 93.7449,148.236 93.7828,148.17 93.8205,148.104 93.8582,148.038 93.8957,147.972 93.9331,147.906 97.8575,140.849 96.2011,137.682 92.3849,137.682 88.9029,143.881 85.6307,149.707 84.5771,151.582 80.2512,159.284 82.5473,159.284 83.5636,157.483 86.8761,151.615 87.9562,149.707 93.6808,139.481 94.7971,139.481 95.5533,140.921 91.8806,147.51 91.846,147.571 91.8111,147.632 91.7758,147.693 91.7402,147.753 91.7043,147.813 91.668,147.873 91.6313,147.933 91.5942,147.992 91.5942,147.992 91.5769,148.02 91.5595,148.047 91.5421,148.074 91.5245,148.101 91.5068,148.129 91.4891,148.156 91.4711,148.183 91.4531,148.209 91.4531,148.209 91.436,148.235 91.4188,148.26 91.4016,148.285 91.3843,148.31 91.3667,148.335 91.3491,148.36 91.3313,148.385 91.3135,148.41 91.3135,148.41 91.2965,148.433 91.2796,148.456 91.2624,148.479 91.2451,148.502 91.2277,148.525 91.2101,148.548 91.1925,148.57 91.1748,148.593 91.1748,148.593 91.1578,148.614 91.1408,148.636 91.1237,148.657 91.1064,148.678 91.089,148.699 91.0715,148.719 91.0539,148.74 91.036,148.761 91.036,148.761 91.0191,148.78 91.0019,148.799 90.9847,148.819 90.9673,148.838 90.9498,148.857 90.9322,148.875 90.9145,148.894 90.8967,148.913 90.8967,148.913 90.8795,148.93 90.8623,148.948 90.8449,148.965 90.8274,148.982 90.8098,148.999 90.792,149.016 90.7741,149.033 90.7561,149.05 90.7561,149.05 90.7387,149.066 90.7211,149.081 90.7035,149.097 90.6856,149.112 90.6678,149.128 90.6498,149.143 90.6316,149.158 90.6133,149.172 90.6133,149.172 90.5956,149.187 90.5778,149.201 90.5598,149.214 90.5417,149.228 90.5234,149.241 90.505,149.255 90.4865,149.268 90.4679,149.281 90.4679,149.281 90.4498,149.293 90.4314,149.306 90.413,149.318 90.3945,149.33 90.3758,149.342 90.3571,149.353 90.3382,149.365 90.3192,149.376 90.3192,149.376 90.3005,149.387 90.2816,149.397 90.2626,149.408 90.2436,149.418 90.2244,149.428 90.2052,149.438 90.1858,149.448 90.1663,149.458 90.1663,149.458 90.147,149.467 90.1274,149.476 90.1078,149.485 90.0881,149.494 90.0684,149.502 90.0486,149.511 90.0287,149.519 90.0087,149.527 90.0087,149.527 89.9886,149.535 89.9683,149.542 89.9481,149.55 89.9276,149.557 89.9073,149.564 89.8867,149.571 89.8661,149.578 89.8456,149.584 89.8456,149.584 89.8246,149.591 89.8036,149.597 89.7826,149.603 89.7615,149.608 89.7402,149.614 89.719,149.619 89.6978,149.625 89.6765,149.63 89.6765,149.63 89.6546,149.635 89.6327,149.64 89.6108,149.644 89.5888,149.649 89.5667,149.653 89.5447,149.657 89.5226,149.661 89.5005,149.664 89.5005,149.664 89.4777,149.668 89.4548,149.671 89.4319,149.675 89.409,149.678 89.3861,149.681 89.3631,149.683 89.3401,149.686 89.3171,149.688 89.3171,149.688 89.2686,149.693 89.2202,149.697 89.1716,149.7 89.123,149.702 89.0743,149.704 89.0258,149.706 88.9771,149.706 88.9284,149.707 87.9562,149.707 86.8761,151.615 87.7761,151.615 88.6402,153.271 87.5245,155.287 87.491,155.347 87.4571,155.407 87.4229,155.466 87.3883,155.526 87.3533,155.585 87.3178,155.644 87.282,155.702 87.2456,155.761 87.2456,155.761 87.2286,155.787 87.2114,155.814 87.1941,155.841 87.1767,155.868 87.1593,155.895 87.1417,155.922 87.124,155.948 87.1062,155.975 87.1062,155.975 87.0892,156.0 87.072,156.024 87.0549,156.049 87.0375,156.074 87.0201,156.099 87.0025,156.124 86.9848,156.148 86.967,156.173 86.967,156.173 86.9499,156.196 86.9328,156.219 86.9156,156.242 86.8981,156.265 86.8806,156.287 86.863,156.31 86.8454,156.332 86.8274,156.355 86.8274,156.355 86.8102,156.376 86.7931,156.397 86.7757,156.418 86.7582,156.439 86.7406,156.46 86.7228,156.481 86.7049,156.501 86.687,156.522 86.687,156.522 86.6697,156.541 86.6522,156.561 86.6347,156.58 86.6169,156.599 86.5991,156.618 86.5812,156.637 86.5631,156.655 86.545,156.674 86.545,156.674 86.5273,156.692 86.5097,156.709 86.4919,156.727 86.474,156.744 86.4559,156.761 86.4377,156.778 86.4195,156.795 86.401,156.812 86.401,156.812 86.383,156.828 86.3651,156.843 86.3469,156.859 86.3287,156.875 86.3103,156.89 86.2918,156.905 86.2732,156.92 86.2545,156.935 86.2545,156.935 86.2362,156.95 86.2177,156.964 86.1993,156.978 86.1806,156.992 86.1618,157.005 86.1429,157.019 86.124,157.032 86.1049,157.045 86.1049,157.045 86.086,157.058 86.0672,157.07 86.0482,157.083 86.029,157.095 86.0099,157.107 85.9905,157.119 85.9712,157.13 85.9516,157.142 85.9516,157.142 85.9322,157.153 85.9129,157.164 85.8933,157.174 85.8737,157.185 85.854,157.195 85.8341,157.206 85.8143,157.215 85.7943,157.225 85.7943,157.225 85.7743,157.235 85.7542,157.244 85.7341,157.253 85.7139,157.262 85.6935,157.271 85.6732,157.28 85.6527,157.288 85.6321,157.296 85.6321,157.296 85.6115,157.305 85.5908,157.312 85.57,157.32 85.5491,157.327 85.5282,157.335 85.5072,157.342 85.4861,157.349 85.465,157.356 85.465,157.356 85.4435,157.362 85.4221,157.369 85.4006,157.375 85.3789,157.381 85.3572,157.387 85.3356,157.392 85.3138,157.398 85.292,157.403 85.292,157.403 85.2698,157.408 85.2475,157.413 85.2252,157.418 85.2029,157.422 85.1804,157.427 85.1579,157.431 85.1355,157.435 85.1129,157.439 85.1129,157.439 85.0898,157.443 85.0666,157.446 85.0434,157.45 85.0202,157.453 84.9969,157.456 84.9737,157.459 84.9504,157.462 84.9271,157.464 84.9271,157.464 84.8783,157.469 84.8295,157.473 84.7806,157.476 84.7317,157.479 84.6828,157.481 84.6338,157.482 84.5848,157.483 84.5359,157.483 83.5636,157.483" fill="none" stroke="black" stroke-width="0.1"/>
        <polygon id="center_00" cx="105.774" cy="148.5" points="117.6952,148.5 117.62989441906426,149.74610471630635 117.43469317786784,150.97855684857666 117.11173494205778,152.18385339334262 116.66455810964898,153.34878886943523 116.09806204359505,154.4606 115.41845339334263,155.50710554962905 114.63317809348112,156.47683978452523 113.75083978452523,157.35917809348112 112.78110554962903,158.14445339334262 111.7346,158.82406204359506 110.62278886943523,159.39055810964896 109.45785339334263,159.83773494205778 108.25255684857667,160.16069317786784 107.02010471630635,160.35589441906427 105.774,160.4212 104.52789528369365,160.35589441906427 103.29544315142333,160.16069317786784 102.09014660665738,159.83773494205778 100.92521113056478,159.39055810964896 99.8134,158.82406204359506 98.76689445037097,158.14445339334262 97.79716021547479,157.35917809348112 96.9148219065189,156.47683978452523 96.12954660665739,155.50710554962905 95.44993795640495,154.4606 94.88344189035102,153.34878886943523 94.43626505794222,152.18385339334262 94.11330682213216,150.9785568485767 93.91810558093574,149.74610471630635 93.8528,148.5 93.91810558093574,147.25389528369365 94.11330682213216,146.02144315142334 94.43626505794222,144.81614660665738 94.88344189035102,143.65121113056477 95.44993795640495,142.5394 96.12954660665737,141.49289445037098 96.91482190651888,140.52316021547477 97.79716021547478,139.64082190651888 98.76689445037097,138.85554660665738 99.8134,138.17593795640494 100.92521113056476,137.60944189035104 102.09014660665737,137.16226505794222 103.29544315142333,136.83930682213216 104.52789528369364,136.64410558093573 105.774,136.5788 107.02010471630635,136.64410558093573 108.25255684857666,136.83930682213216 109.45785339334262,137.16226505794222 110.62278886943523,137.60944189035104 111.7346,138.17593795640494 112.78110554962903,138.85554660665738 113.75083978452521,139.64082190651888 114.6331780934811,140.52316021547477 115.41845339334262,141.49289445037095 116.09806204359505,142.5394 116.66455810964897,143.65121113056477 117.11173494205778,144.81614660665738 117.43469317786784,146.0214431514233 117.62989441906426,147.25389528369365" fill="none" stroke="black" stroke-width="0.1"/>
        <polygon id="_131954472___1" points="128.931,152.335 129.903,152.335 128.175,159.284 130.335,159.284 131.991,152.227 132.042,152.217 132.092,152.206 132.142,152.194 132.192,152.182 132.242,152.169 132.292,152.155 132.342,152.141 132.391,152.127 132.391,152.127 132.415,152.119 132.44,152.111 132.464,152.104 132.488,152.096 132.512,152.087 132.536,152.079 132.56,152.07 132.584,152.062 132.772,151.987 132.796,151.977 132.819,151.966 132.842,151.956 132.865,151.945 132.888,151.934 132.911,151.923 132.934,151.912 132.957,151.901 132.957,151.901 132.98,151.889 133.002,151.878 133.025,151.866 133.048,151.854 133.07,151.842 133.093,151.829 133.115,151.817 133.137,151.804 133.137,151.804 133.16,151.791 133.183,151.778 133.205,151.764 133.227,151.751 133.249,151.737 133.271,151.724 133.293,151.709 133.315,151.695 133.315,151.695 133.337,151.681 133.36,151.666 133.382,151.651 133.404,151.636 133.425,151.621 133.447,151.606 133.469,151.59 133.49,151.575 133.49,151.575 133.512,151.559 133.534,151.542 133.556,151.526 133.578,151.509 133.599,151.493 133.621,151.476 133.642,151.459 133.663,151.441 133.663,151.441 133.685,151.424 133.707,151.406 133.728,151.387 133.75,151.369 133.771,151.351 133.792,151.332 133.813,151.314 133.834,151.295 133.834,151.295 133.856,151.275 133.878,151.256 133.899,151.236 133.92,151.216 133.941,151.196 133.963,151.176 133.983,151.156 134.004,151.135 134.004,151.135 134.026,151.114 134.047,151.092 134.069,151.071 134.09,151.049 134.111,151.027 134.132,151.006 134.153,150.983 134.173,150.961 134.173,150.961 134.195,150.938 134.216,150.915 134.238,150.892 134.259,150.868 134.28,150.845 134.301,150.821 134.322,150.797 134.342,150.773 134.342,150.773 134.364,150.748 134.385,150.723 134.407,150.698 134.428,150.673 134.449,150.647 134.47,150.622 134.491,150.596 134.511,150.57 134.511,150.57 134.533,150.543 134.554,150.516 134.576,150.489 134.597,150.462 134.618,150.434 134.639,150.407 134.66,150.379 134.681,150.352 134.681,150.352 134.703,150.323 134.724,150.294 134.746,150.265 134.767,150.235 134.789,150.206 134.81,150.177 134.831,150.147 134.852,150.118 134.852,150.118 134.874,150.087 134.896,150.055 134.917,150.024 134.939,149.993 134.96,149.962 134.982,149.93 135.003,149.899 135.024,149.867 135.024,149.867 135.046,149.834 135.068,149.801 135.09,149.767 135.112,149.734 135.134,149.701 135.156,149.667 135.177,149.633 135.199,149.6 135.199,149.6 135.221,149.565 135.243,149.529 135.266,149.494 135.288,149.458 135.31,149.423 135.332,149.387 135.354,149.351 135.375,149.315 135.375,149.315 135.422,149.239 135.468,149.162 135.513,149.086 135.558,149.009 135.603,148.931 135.648,148.854 135.692,148.776 135.736,148.698 140.164,140.777 138.544,137.682 134.836,137.682 122.702,159.284 125.006,159.284 129.939,150.535 136.132,139.481 137.14,139.481 137.824,140.813 133.611,148.338 133.577,148.399 133.542,148.46 133.506,148.521 133.471,148.581 133.435,148.641 133.399,148.701 133.362,148.761 133.325,148.82 133.325,148.82 133.308,148.848 133.29,148.875 133.273,148.902 133.255,148.929 133.237,148.956 133.22,148.983 133.202,149.01 133.184,149.037 133.184,149.037 133.167,149.063 133.149,149.088 133.132,149.113 133.115,149.138 133.097,149.163 133.08,149.188 133.062,149.213 133.044,149.237 133.044,149.237 133.027,149.261 133.01,149.284 132.993,149.307 132.976,149.33 132.958,149.353 132.941,149.376 132.923,149.399 132.905,149.421 132.905,149.421 132.888,149.442 132.871,149.464 132.854,149.485 132.837,149.506 132.82,149.527 132.802,149.547 132.785,149.568 132.767,149.589 132.767,149.589 132.75,149.608 132.733,149.627 132.715,149.647 132.698,149.666 132.68,149.685 132.663,149.704 132.645,149.722 132.627,149.741 132.627,149.741 132.61,149.758 132.593,149.776 132.576,149.793 132.558,149.81 132.54,149.827 132.523,149.844 132.505,149.861 132.487,149.878 132.487,149.878 132.469,149.894 132.452,149.909 132.434,149.925 132.416,149.94 132.399,149.956 132.381,149.971 132.362,149.986 132.344,150.0 132.344,150.0 132.326,150.015 132.309,150.029 132.29,150.042 132.272,150.056 132.254,150.069 132.236,150.083 132.217,150.096 132.199,150.109 132.199,150.109 132.18,150.121 132.162,150.134 132.144,150.146 132.125,150.158 132.107,150.17 132.088,150.181 132.069,150.193 132.05,150.204 132.05,150.204 132.031,150.215 132.012,150.225 131.993,150.236 131.974,150.246 131.955,150.256 131.936,150.266 131.916,150.276 131.897,150.286 131.897,150.286 131.878,150.295 131.858,150.304 131.839,150.313 131.819,150.322 131.799,150.33 131.779,150.339 131.759,150.347 131.739,150.355 131.739,150.355 131.719,150.363 131.699,150.37 131.679,150.378 131.658,150.385 131.638,150.392 131.617,150.399 131.597,150.406 131.576,150.412 131.576,150.412 131.555,150.418 131.534,150.425 131.513,150.431 131.492,150.436 131.471,150.442 131.45,150.447 131.428,150.453 131.407,150.458 131.407,150.458 131.385,150.463 131.363,150.468 131.341,150.472 131.319,150.476 131.297,150.481 131.275,150.485 131.253,150.489 131.231,150.492 131.231,150.492 131.208,150.496 131.185,150.499 131.163,150.503 131.14,150.506 131.117,150.509 131.094,150.511 131.071,150.514 131.048,150.516 131.048,150.516 130.999,150.521 130.951,150.525 130.902,150.528 130.854,150.53 130.805,150.532 130.756,150.534 130.708,150.535 130.659,150.535 129.939,150.535" fill="none" stroke="black" stroke-width="0.1"/>
        <polygon id="_131954472___1_1" points="185.857,152.335 186.829,152.335 185.1,159.284 187.261,159.284 188.917,152.227 188.967,152.217 189.018,152.206 189.068,152.194 189.118,152.182 189.168,152.169 189.218,152.155 189.267,152.141 189.317,152.127 189.317,152.127 189.341,152.119 189.365,152.111 189.389,152.104 189.414,152.096 189.438,152.087 189.462,152.079 189.486,152.07 189.509,152.062 189.698,151.987 189.721,151.977 189.744,151.966 189.768,151.956 189.791,151.945 189.814,151.934 189.837,151.923 189.86,151.912 189.882,151.901 189.882,151.901 189.905,151.889 189.928,151.878 189.951,151.866 189.973,151.854 189.996,151.842 190.018,151.829 190.041,151.817 190.063,151.804 190.063,151.804 190.086,151.791 190.108,151.778 190.131,151.764 190.153,151.751 190.175,151.737 190.197,151.724 190.219,151.709 190.241,151.695 190.241,151.695 190.263,151.681 190.285,151.666 190.307,151.651 190.329,151.636 190.351,151.621 190.373,151.606 190.394,151.59 190.416,151.575 190.416,151.575 190.438,151.559 190.46,151.542 190.482,151.526 190.503,151.509 190.525,151.493 190.546,151.476 190.568,151.459 190.589,151.441 190.589,151.441 190.611,151.424 190.632,151.406 190.654,151.387 190.675,151.369 190.697,151.351 190.718,151.332 190.739,151.314 190.76,151.295 190.76,151.295 190.782,151.275 190.803,151.256 190.825,151.236 190.846,151.216 190.867,151.196 190.888,151.176 190.909,151.156 190.93,151.135 190.93,151.135 190.951,151.114 190.973,151.092 190.994,151.071 191.015,151.049 191.036,151.027 191.057,151.006 191.078,150.983 191.099,150.961 191.099,150.961 191.121,150.938 191.142,150.915 191.163,150.892 191.185,150.868 191.206,150.845 191.226,150.821 191.247,150.797 191.268,150.773 191.268,150.773 191.29,150.748 191.311,150.723 191.332,150.698 191.353,150.673 191.375,150.647 191.395,150.622 191.416,150.596 191.437,150.57 191.437,150.57 191.459,150.543 191.48,150.516 191.501,150.489 191.523,150.462 191.544,150.434 191.565,150.407 191.586,150.379 191.607,150.352 191.607,150.352 191.628,150.323 191.65,150.294 191.672,150.265 191.693,150.235 191.714,150.206 191.735,150.177 191.756,150.147 191.777,150.118 191.777,150.118 191.799,150.087 191.821,150.055 191.843,150.024 191.864,149.993 191.886,149.962 191.907,149.93 191.929,149.899 191.95,149.867 191.95,149.867 191.972,149.834 191.994,149.801 192.016,149.767 192.038,149.734 192.06,149.701 192.081,149.667 192.103,149.633 192.124,149.6 192.124,149.6 192.147,149.565 192.169,149.529 192.191,149.494 192.213,149.458 192.235,149.423 192.257,149.387 192.279,149.351 192.301,149.315 192.301,149.315 192.347,149.239 192.393,149.162 192.439,149.086 192.484,149.009 192.529,148.931 192.573,148.854 192.617,148.776 192.661,148.698 197.09,140.777 195.47,137.682 191.761,137.682 179.627,159.284 181.932,159.284 186.864,150.535 193.058,139.481 194.066,139.481 194.75,140.813 190.537,148.338 190.502,148.399 190.467,148.46 190.432,148.521 190.397,148.581 190.361,148.641 190.324,148.701 190.287,148.761 190.25,148.82 190.25,148.82 190.233,148.848 190.216,148.875 190.198,148.902 190.181,148.929 190.163,148.956 190.145,148.983 190.127,149.01 190.109,149.037 190.109,149.037 190.092,149.063 190.075,149.088 190.058,149.113 190.041,149.138 190.023,149.163 190.005,149.188 189.988,149.213 189.97,149.237 189.97,149.237 189.953,149.261 189.936,149.284 189.919,149.307 189.901,149.33 189.884,149.353 189.866,149.376 189.849,149.399 189.831,149.421 189.831,149.421 189.814,149.442 189.797,149.464 189.78,149.485 189.763,149.506 189.745,149.527 189.728,149.547 189.71,149.568 189.692,149.589 189.692,149.589 189.675,149.608 189.658,149.627 189.641,149.647 189.624,149.666 189.606,149.685 189.589,149.704 189.571,149.722 189.553,149.741 189.553,149.741 189.536,149.758 189.519,149.776 189.501,149.793 189.484,149.81 189.466,149.827 189.448,149.844 189.43,149.861 189.412,149.878 189.412,149.878 189.395,149.894 189.378,149.909 189.36,149.925 189.342,149.94 189.324,149.956 189.306,149.971 189.288,149.986 189.27,150.0 189.27,150.0 189.252,150.015 189.234,150.029 189.216,150.042 189.198,150.056 189.18,150.069 189.161,150.083 189.143,150.096 189.124,150.109 189.124,150.109 189.106,150.121 189.088,150.134 189.069,150.146 189.051,150.158 189.032,150.17 189.013,150.181 188.995,150.193 188.976,150.204 188.976,150.204 188.957,150.215 188.938,150.225 188.919,150.236 188.9,150.246 188.881,150.256 188.862,150.266 188.842,150.276 188.823,150.286 188.823,150.286 188.803,150.295 188.784,150.304 188.764,150.313 188.744,150.322 188.725,150.33 188.705,150.339 188.685,150.347 188.665,150.355 188.665,150.355 188.645,150.363 188.625,150.37 188.604,150.378 188.584,150.385 188.564,150.392 188.543,150.399 188.522,150.406 188.502,150.412 188.502,150.412 188.481,150.418 188.46,150.425 188.439,150.431 188.418,150.436 188.397,150.442 188.375,150.447 188.354,150.453 188.333,150.458 188.333,150.458 188.311,150.463 188.289,150.468 188.267,150.472 188.245,150.476 188.223,150.481 188.201,150.485 188.179,150.489 188.157,150.492 188.157,150.492 188.134,150.496 188.111,150.499 188.088,150.503 188.065,150.506 188.042,150.509 188.019,150.511 187.997,150.514 187.974,150.516 187.974,150.516 187.925,150.521 187.876,150.525 187.828,150.528 187.779,150.53 187.731,150.532 187.682,150.534 187.633,150.535 187.585,150.535 186.864,150.535" fill="none" stroke="black" stroke-width="0.1"/>
        <polygon id="_132883608_1" points="66.8573,139.409 66.8056,139.417 66.7539,139.425 66.7023,139.433 66.6508,139.442 66.5992,139.451 66.5478,139.46 66.4964,139.47 66.4451,139.48 66.4451,139.48 66.422,139.484 66.399,139.489 66.3761,139.494 66.3531,139.499 66.3302,139.504 66.3074,139.509 66.2845,139.514 66.2616,139.519 66.2616,139.519 66.2404,139.525 66.2193,139.53 66.1982,139.535 66.1771,139.541 66.1561,139.546 66.1351,139.552 66.1142,139.558 66.0933,139.564 66.0933,139.564 66.0738,139.569 66.0543,139.575 66.0348,139.581 66.0155,139.587 65.9961,139.593 65.9769,139.6 65.9576,139.606 65.9385,139.613 65.9385,139.613 65.9204,139.619 65.9025,139.626 65.8845,139.632 65.8667,139.639 65.8489,139.646 65.8311,139.653 65.8135,139.66 65.7959,139.668 65.7959,139.668 65.7792,139.675 65.7626,139.682 65.7459,139.69 65.7294,139.698 65.713,139.705 65.6966,139.713 65.6803,139.721 65.6641,139.73 65.6641,139.73 65.6484,139.738 65.6328,139.747 65.6174,139.755 65.602,139.764 65.5866,139.773 65.5714,139.781 65.5563,139.791 65.5413,139.8 65.5413,139.8 65.5266,139.809 65.5119,139.819 65.4974,139.828 65.4829,139.838 65.4686,139.848 65.4544,139.858 65.4403,139.869 65.4263,139.879 65.4263,139.879 65.4123,139.89 65.3984,139.9 65.3847,139.911 65.371,139.922 65.3574,139.933 65.3441,139.945 65.3308,139.956 65.3176,139.968 65.3176,139.968 65.3042,139.98 65.2909,139.992 65.2777,140.004 65.2647,140.017 65.2518,140.029 65.2389,140.042 65.2262,140.054 65.2136,140.067 65.2136,140.067 65.2006,140.081 65.1877,140.094 65.1749,140.108 65.1623,140.122 65.1497,140.136 65.1373,140.15 65.125,140.164 65.1128,140.178 65.1128,140.178 65.1,140.194 65.0873,140.209 65.0749,140.224 65.0624,140.239 65.05,140.255 65.0379,140.271 65.0257,140.286 65.0137,140.302 65.0137,140.302 65.001,140.319 64.9884,140.336 64.976,140.353 64.9635,140.37 64.9512,140.387 64.939,140.404 64.9269,140.422 64.9148,140.439 64.9148,140.439 64.902,140.458 64.8892,140.477 64.8766,140.495 64.8641,140.514 64.8516,140.533 64.8392,140.552 64.8269,140.571 64.8146,140.591 64.8146,140.591 64.8015,140.611 64.7885,140.632 64.7754,140.653 64.7625,140.674 64.7496,140.695 64.7368,140.715 64.7241,140.736 64.7114,140.757 64.7114,140.757 64.6978,140.78 64.6842,140.803 64.6706,140.826 64.6572,140.849 64.6437,140.872 64.6304,140.895 64.617,140.918 64.6038,140.941 64.3726,141.353 61.2402,146.862 61.2151,146.907 61.1902,146.953 61.1657,147.0 61.1414,147.046 61.1176,147.092 61.094,147.139 61.0709,147.186 61.0481,147.233 61.0481,147.233 61.0377,147.255 61.0274,147.277 61.0173,147.299 61.0072,147.321 60.9972,147.343 60.9874,147.365 60.9777,147.387 60.968,147.409 60.968,147.409 60.9591,147.431 60.9502,147.452 60.9415,147.473 60.9328,147.494 60.9244,147.516 60.916,147.537 60.9078,147.559 60.8998,147.58 60.8998,147.58 60.8922,147.601 60.8848,147.622 60.8776,147.642 60.8705,147.663 60.8635,147.684 60.8567,147.705 60.85,147.726 60.8434,147.747 60.8434,147.747 60.8374,147.767 60.8315,147.787 60.8257,147.807 60.8201,147.828 60.8148,147.848 60.8095,147.869 60.8045,147.889 60.7996,147.91 60.7996,147.91 60.795,147.929 60.7906,147.949 60.7863,147.969 60.7824,147.989 60.7786,148.01 60.7748,148.03 60.7714,148.05 60.7682,148.07 60.7682,148.07 60.7652,148.09 60.7624,148.11 60.7597,148.13 60.7573,148.15 60.7551,148.17 60.7532,148.19 60.7513,148.21 60.7498,148.23 60.7498,148.23 60.7484,148.25 60.7473,148.269 60.7463,148.289 60.7455,148.309 60.745,148.329 60.7446,148.349 60.7444,148.369 60.7445,148.389 60.7445,148.389 60.7449,148.409 60.7453,148.43 60.7461,148.45 60.7469,148.47 60.7481,148.49 60.7495,148.51 60.751,148.53 60.7527,148.55 60.7527,148.55 60.7548,148.571 60.757,148.591 60.7594,148.611 60.762,148.632 60.7649,148.652 60.7679,148.672 60.7712,148.693 60.7746,148.713 60.7746,148.713 60.7785,148.734 60.7824,148.755 60.7867,148.776 60.791,148.797 60.7956,148.817 60.8004,148.838 60.8055,148.859 60.8106,148.88 60.8106,148.88 60.8162,148.901 60.822,148.923 60.828,148.944 60.8341,148.965 60.8406,148.987 60.8472,149.008 60.8538,149.029 60.8607,149.051 60.9253,149.227 60.9445,149.275 60.9645,149.322 60.9851,149.369 61.0063,149.415 61.0281,149.461 61.0504,149.507 61.0732,149.553 61.0964,149.598 61.9246,151.219 61.9392,151.247 61.9537,151.276 61.9682,151.305 61.9825,151.333 61.9967,151.362 62.0108,151.391 62.0248,151.42 62.0387,151.448 62.0387,151.448 62.0453,151.462 62.0519,151.476 62.0584,151.49 62.065,151.504 62.0714,151.518 62.0779,151.532 62.0843,151.546 62.0907,151.56 62.0907,151.56 62.0968,151.574 62.1031,151.588 62.1092,151.601 62.1152,151.615 62.1212,151.629 62.1272,151.643 62.1331,151.657 62.139,151.67 62.139,151.67 62.1447,151.684 62.1504,151.697 62.1561,151.711 62.1617,151.724 62.1673,151.738 62.1727,151.752 62.1782,151.765 62.1836,151.779 62.1836,151.779 62.1888,151.792 62.1941,151.805 62.1992,151.819 62.2044,151.832 62.2094,151.846 62.2144,151.859 62.2193,151.873 62.2243,151.886 62.2243,151.886 62.2291,151.899 62.2338,151.913 62.2384,151.926 62.243,151.939 62.2476,151.952 62.2521,151.966 62.2564,151.979 62.2608,151.993 62.2608,151.993 62.2651,152.006 62.2693,152.019 62.2735,152.032 62.2775,152.045 62.2816,152.059 62.2856,152.072 62.2896,152.085 62.2934,152.099 62.2934,152.099 62.2971,152.112 62.3008,152.125 62.3045,152.138 62.3081,152.151 62.3116,152.165 62.315,152.178 62.3183,152.191 62.3217,152.204 62.3217,152.204 62.3249,152.218 62.3281,152.231 62.3311,152.244 62.3342,152.257 62.3372,152.27 62.34,152.284 62.3429,152.297 62.3456,152.31 62.3456,152.31 62.3482,152.324 62.3508,152.337 62.3535,152.35 62.3559,152.363 62.3583,152.377 62.3607,152.39 62.3629,152.404 62.3651,152.417 62.3651,152.417 62.3672,152.43 62.3692,152.444 62.3713,152.457 62.3732,152.471 62.375,152.484 62.3768,152.498 62.3784,152.511 62.38,152.524 62.38,152.524 62.3816,152.538 62.3831,152.552 62.3845,152.565 62.3858,152.579 62.3871,152.592 62.3883,152.606 62.3893,152.62 62.3903,152.633 62.3903,152.633 62.3913,152.647 62.3922,152.661 62.393,152.674 62.3937,152.688 62.3944,152.702 62.3949,152.716 62.3955,152.73 62.3959,152.743 62.3959,152.743 62.3962,152.757 62.3966,152.771 62.3968,152.785 62.3969,152.799 62.397,152.814 62.3969,152.827 62.3969,152.842 62.3967,152.856 62.3967,152.856 62.3963,152.87 62.396,152.884 62.3956,152.899 62.395,152.913 62.3945,152.927 62.3938,152.942 62.3931,152.956 62.3923,152.97 62.3923,152.97 62.3914,152.985 62.3904,153.0 62.3893,153.014 62.3883,153.029 62.3869,153.043 62.3857,153.058 62.3843,153.073 62.3829,153.087 62.3829,153.087 62.3814,153.102 62.3797,153.117 62.378,153.132 62.3762,153.147 62.3744,153.162 62.3725,153.178 62.3704,153.193 62.3683,153.208 62.3683,153.208 62.3662,153.223 62.3639,153.238 62.3615,153.254 62.359,153.269 62.3565,153.285 62.3539,153.3 62.3513,153.315 62.3485,153.331 62.3485,153.331 62.3456,153.347 62.3426,153.363 62.3396,153.379 62.3365,153.395 62.3333,153.411 62.3301,153.426 62.3267,153.442 62.3233,153.458 62.3233,153.458 62.3197,153.475 62.3161,153.491 62.3123,153.507 62.3085,153.524 62.3047,153.54 62.3007,153.556 62.2967,153.573 62.2926,153.589 62.2926,153.589 62.2884,153.606 62.284,153.623 62.2795,153.64 62.275,153.657 62.2704,153.674 62.2658,153.691 62.2611,153.708 62.2563,153.725 62.2563,153.725 62.2513,153.742 62.2461,153.76 62.241,153.778 62.2358,153.795 62.2305,153.813 62.2251,153.83 62.2198,153.848 62.2143,153.865 62.2143,153.865 62.2085,153.883 62.2027,153.902 62.1968,153.92 62.1909,153.938 62.1849,153.956 62.1788,153.974 62.1726,153.992 62.1665,154.01 62.1665,154.01 62.1599,154.029 62.1534,154.048 62.1468,154.067 62.1401,154.086 62.1334,154.105 62.1266,154.124 62.1197,154.142 62.1128,154.161 62.1128,154.161 62.1055,154.181 62.0981,154.201 62.0908,154.22 62.0834,154.24 62.0759,154.259 62.0684,154.279 62.0608,154.298 62.0532,154.318 62.0532,154.318 62.0451,154.338 62.037,154.358 62.0288,154.379 62.0206,154.399 62.0124,154.42 62.004,154.44 61.9956,154.46 61.9872,154.48 61.9872,154.48 61.9783,154.502 61.9695,154.523 61.9606,154.544 61.9516,154.565 61.9426,154.586 61.9335,154.607 61.9244,154.629 61.9152,154.649 61.9152,154.649 61.9056,154.672 61.8959,154.694 61.8861,154.716 61.8764,154.738 61.8665,154.76 61.8567,154.782 61.8467,154.804 61.8368,154.826 61.8368,154.826 61.8264,154.849 61.8159,154.872 61.8053,154.894 61.7947,154.917 61.784,154.94 61.7734,154.963 61.7627,154.986 61.752,155.009 61.752,155.009 61.7407,155.033 61.7295,155.057 61.7181,155.081 61.7066,155.104 61.6952,155.128 61.6837,155.152 61.6722,155.176 61.6606,155.2 61.6606,155.2 61.6473,155.227 61.6339,155.254 61.6206,155.281 61.6071,155.309 61.5937,155.336 61.5801,155.363 61.5666,155.391 61.5529,155.418 61.5529,155.418 61.5378,155.448 61.5226,155.478 61.5074,155.508 61.4922,155.538 61.4769,155.568 61.4615,155.598 61.4461,155.628 61.4307,155.658 61.4307,155.658 61.4141,155.69 61.3973,155.722 61.3805,155.754 61.3637,155.786 61.3468,155.818 61.3298,155.85 61.3129,155.882 61.2958,155.913 61.2958,155.913 61.2792,155.944 61.2624,155.975 61.2456,156.006 61.2287,156.037 61.2119,156.068 61.1948,156.098 61.1778,156.129 61.1607,156.16 61.1607,156.16 61.144,156.189 61.1272,156.219 61.1105,156.249 61.0935,156.278 61.0766,156.308 61.0596,156.337 61.0425,156.367 61.0254,156.396 61.0254,156.396 61.0086,156.425 60.9918,156.453 60.9749,156.482 60.958,156.51 60.941,156.539 60.924,156.567 60.9068,156.595 60.8896,156.624 60.8896,156.624 60.8728,156.651 60.8559,156.678 60.8389,156.706 60.822,156.733 60.8049,156.76 60.7878,156.787 60.7705,156.814 60.7532,156.842 60.7532,156.842 60.7362,156.868 60.7193,156.894 60.7022,156.92 60.685,156.946 60.6678,156.972 60.6506,156.998 60.6333,157.024 60.6159,157.05 60.6159,157.05 60.5988,157.076 60.5818,157.101 60.5645,157.126 60.5473,157.151 60.5299,157.176 60.5125,157.2 60.4951,157.225 60.4775,157.25 60.4775,157.25 60.4603,157.274 60.4431,157.298 60.4259,157.322 60.4085,157.346 60.391,157.37 60.3735,157.393 60.3557,157.417 60.338,157.44 60.338,157.44 60.3207,157.463 60.3033,157.486 60.2859,157.509 60.2683,157.532 60.2507,157.555 60.233,157.577 60.2152,157.6 60.1973,157.622 60.1973,157.622 60.1798,157.644 60.1622,157.666 60.1446,157.687 60.1268,157.709 60.109,157.731 60.0911,157.752 60.073,157.773 60.055,157.795 60.055,157.795 60.0373,157.815 60.0194,157.836 60.0016,157.857 59.9837,157.877 59.9656,157.898 59.9476,157.918 59.9293,157.938 59.911,157.959 59.911,157.959 59.8931,157.978 59.875,157.998 59.8569,158.017 59.8387,158.037 59.8204,158.056 59.8021,158.075 59.7836,158.095 59.7651,158.114 59.7651,158.114 59.7469,158.132 59.7287,158.151 59.7103,158.169 59.6919,158.188 59.6734,158.206 59.6548,158.224 59.6361,158.242 59.6173,158.26 59.6173,158.26 59.5988,158.278 59.5803,158.295 59.5616,158.312 59.5429,158.33 59.5241,158.347 59.5052,158.364 59.4862,158.381 59.4672,158.398 59.4672,158.398 59.4484,158.414 59.4296,158.431 59.4106,158.447 59.3916,158.463 59.3726,158.479 59.3534,158.495 59.3342,158.511 59.3148,158.527 59.3148,158.527 59.2957,158.543 59.2765,158.558 59.2573,158.573 59.2379,158.588 59.2185,158.603 59.1991,158.618 59.1795,158.633 59.1598,158.648 59.1598,158.648 59.1403,158.662 59.1208,158.677 59.1013,158.691 59.0816,158.705 59.0618,158.719 59.042,158.733 59.0221,158.747 59.002,158.76 59.002,158.76 58.9822,158.774 58.9623,158.787 58.9424,158.8 58.9224,158.813 58.9023,158.826 58.882,158.839 58.8618,158.852 58.8414,158.864 58.8414,158.864 58.8212,158.877 58.801,158.889 58.7806,158.901 58.7602,158.914 58.7397,158.925 58.7191,158.937 58.6985,158.949 58.6778,158.961 58.6778,158.961 58.6571,158.972 58.6364,158.983 58.6156,158.994 58.5949,159.005 58.574,159.016 58.5531,159.027 58.5321,159.038 58.5109,159.048 58.5109,159.048 58.4898,159.059 58.4687,159.069 58.4475,159.079 58.4263,159.089 58.4049,159.099 58.3836,159.109 58.3622,159.119 58.3407,159.128 58.3407,159.128 58.3192,159.137 58.2975,159.147 58.2758,159.156 58.2542,159.165 58.2324,159.174 58.2105,159.183 58.1887,159.191 58.1668,159.2 58.1668,159.2 58.1447,159.208 58.1226,159.217 58.1005,159.225 58.0783,159.233 58.0561,159.241 58.0339,159.249 58.0115,159.256 57.9892,159.264 57.9892,159.264 57.9667,159.271 57.944,159.279 57.9214,159.286 57.8987,159.293 57.876,159.3 57.8533,159.307 57.8305,159.313 57.8077,159.32 57.8077,159.32 57.7846,159.326 57.7616,159.333 57.7384,159.339 57.7152,159.345 57.692,159.351 57.6688,159.357 57.6455,159.362 57.6222,159.368 57.6222,159.368 57.5986,159.374 57.5749,159.379 57.5512,159.384 57.5274,159.389 57.5037,159.394 57.48,159.399 57.4562,159.404 57.4324,159.409 57.4324,159.409 57.4082,159.413 57.3839,159.418 57.3596,159.422 57.3355,159.426 57.3112,159.43 57.2869,159.434 57.2625,159.438 57.2382,159.442 57.2382,159.442 57.2134,159.445 57.1886,159.449 57.1638,159.452 57.139,159.456 57.114,159.459 57.0892,159.462 57.0644,159.465 57.0394,159.467 57.0394,159.467 57.0139,159.47 56.9885,159.473 56.9631,159.475 56.9377,159.477 56.9122,159.48 56.8868,159.482 56.8613,159.484 56.8358,159.486 56.8358,159.486 56.8098,159.487 56.7838,159.489 56.7577,159.49 56.7317,159.492 56.7056,159.493 56.6795,159.494 56.6535,159.495 56.6274,159.496 56.6274,159.496 56.6015,159.497 56.5756,159.498 56.5496,159.498 56.5236,159.499 56.4977,159.499 56.4717,159.5 56.4458,159.5 56.4199,159.5 56.4199,159.5 56.3944,159.5 56.3689,159.5 56.3434,159.499 56.318,159.499 56.2926,159.498 56.2671,159.497 56.2417,159.497 56.2162,159.495 56.2162,159.495 56.1916,159.494 56.167,159.493 56.1423,159.492 56.1178,159.49 56.0932,159.488 56.0687,159.486 56.0441,159.484 56.0196,159.482 56.0196,159.482 55.9955,159.48 55.9715,159.478 55.9474,159.475 55.9234,159.472 55.8994,159.47 55.8754,159.467 55.8515,159.463 55.8275,159.46 55.8275,159.46 55.8041,159.457 55.7807,159.453 55.7573,159.45 55.7339,159.446 55.7104,159.442 55.6871,159.438 55.6638,159.434 55.6405,159.429 55.6405,159.429 55.6177,159.425 55.5949,159.42 55.5722,159.416 55.5494,159.411 55.5268,159.406 55.5041,159.4 55.4816,159.395 55.459,159.39 55.459,159.39 55.4369,159.384 55.4148,159.378 55.3929,159.373 55.3709,159.367 55.349,159.361 55.3271,159.354 55.3052,159.348 55.2833,159.341 55.2833,159.341 55.2621,159.335 55.2408,159.328 55.2197,159.321 55.1985,159.314 55.1773,159.307 55.1563,159.299 55.1353,159.292 55.1143,159.284 55.1143,159.284 55.0939,159.276 55.0734,159.268 55.0531,159.26 55.0327,159.252 55.0125,159.244 54.9923,159.235 54.9722,159.227 54.9522,159.218 54.9522,159.218 54.9326,159.209 54.913,159.2 54.8936,159.191 54.8742,159.182 54.8548,159.172 54.8356,159.163 54.8164,159.153 54.7974,159.143 54.7974,159.143 54.7787,159.133 54.7602,159.123 54.7416,159.113 54.7232,159.102 54.705,159.092 54.6867,159.081 54.6685,159.071 54.6505,159.059 54.6505,159.059 54.6329,159.048 54.6153,159.037 54.5979,159.026 54.5805,159.015 54.5632,159.003 54.546,158.991 54.5289,158.979 54.512,158.967 54.512,158.967 54.4954,158.955 54.4788,158.943 54.4625,158.93 54.4462,158.918 54.43,158.905 54.4141,158.892 54.3981,158.879 54.3823,158.866 54.3823,158.866 54.3668,158.853 54.3515,158.839 54.3363,158.826 54.3212,158.812 54.3062,158.798 54.2913,158.785 54.2767,158.77 54.2621,158.756 54.2621,158.756 54.2478,158.742 54.2336,158.727 54.2196,158.713 54.2057,158.698 54.192,158.683 54.1784,158.668 54.165,158.653 54.1517,158.638 54.1517,158.638 54.1386,158.622 54.1257,158.607 54.1129,158.591 54.1003,158.575 54.0878,158.559 54.0756,158.543 54.0636,158.527 54.0516,158.51 54.0516,158.51 54.0398,158.494 54.0282,158.477 54.0167,158.46 54.0056,158.443 53.9944,158.426 53.9836,158.409 53.9729,158.392 53.9624,158.374 53.9624,158.374 53.952,158.356 53.9417,158.339 53.9316,158.321 53.9218,158.303 53.9121,158.285 53.9027,158.266 53.8934,158.248 53.8844,158.229 53.8844,158.229 53.8754,158.211 53.8666,158.192 53.858,158.173 53.8497,158.154 53.8415,158.134 53.8336,158.115 53.8258,158.096 53.8183,158.076 53.8183,158.076 53.8108,158.056 53.8035,158.036 53.7965,158.016 53.7896,157.996 53.7831,157.975 53.7766,157.955 53.7705,157.935 53.7645,157.914 53.7645,157.914 53.7585,157.893 53.7529,157.872 53.7474,157.85 53.7421,157.829 53.7372,157.808 53.7324,157.786 53.7278,157.765 53.7234,157.743 53.7234,157.743 53.7192,157.721 53.7151,157.699 53.7113,157.676 53.7078,157.654 53.7044,157.632 53.7013,157.609 53.6984,157.587 53.6958,157.564 53.6958,157.564 53.6932,157.541 53.6908,157.517 53.6888,157.494 53.6869,157.47 53.6853,157.447 53.6838,157.423 53.6826,157.4 53.6816,157.376 53.6816,157.376 53.6809,157.352 53.6803,157.327 53.6801,157.303 53.68,157.278 53.6801,157.254 53.6804,157.229 53.6811,157.204 53.6819,157.18 53.6819,157.18 53.683,157.154 53.6843,157.128 53.6858,157.103 53.6875,157.077 53.6895,157.052 53.6917,157.026 53.6941,157.0 53.6967,156.975 53.6967,156.975 53.6998,156.948 53.703,156.921 53.7065,156.894 53.7101,156.868 53.7139,156.841 53.7181,156.815 53.7223,156.788 53.7268,156.761 53.7268,156.761 53.7317,156.733 53.737,156.706 53.7424,156.678 53.748,156.65 53.7538,156.622 53.7599,156.595 53.7661,156.567 53.7726,156.54 53.7726,156.54 53.7796,156.511 53.7868,156.482 53.7942,156.453 53.8018,156.424 53.8096,156.395 53.8177,156.366 53.8259,156.338 53.8344,156.309 53.8344,156.309 53.8434,156.279 53.8527,156.249 53.8623,156.219 53.872,156.189 53.882,156.159 53.892,156.13 53.9023,156.1 53.9128,156.07 53.9128,156.07 53.9241,156.039 53.9354,156.008 53.9472,155.977 53.959,155.946 53.971,155.915 53.9831,155.884 53.9956,155.853 54.0082,155.823 54.0082,155.823 54.0217,155.791 54.0353,155.758 54.0492,155.726 54.0632,155.694 54.0774,155.662 54.0919,155.63 54.1064,155.599 54.1212,155.567 54.1212,155.567 54.1535,155.499 54.1865,155.432 54.2202,155.365 54.2547,155.298 54.2898,155.232 54.3256,155.166 54.362,155.1 54.399,155.035 55.4074,153.271 57.6758,153.271 55.9952,156.342 55.9901,156.353 55.985,156.364 55.98,156.376 55.9751,156.387 55.9702,156.399 55.9653,156.41 55.9606,156.422 55.9559,156.433 55.9559,156.433 55.9516,156.445 55.9472,156.456 55.9429,156.467 55.9386,156.478 55.9345,156.489 55.9304,156.5 55.9265,156.511 55.9226,156.523 55.9226,156.523 55.9188,156.533 55.9152,156.544 55.9117,156.555 55.9082,156.566 55.9048,156.576 55.9016,156.587 55.8983,156.598 55.8951,156.609 55.8951,156.609 55.8922,156.619 55.8893,156.629 55.8865,156.64 55.8837,156.65 55.881,156.661 55.8785,156.671 55.8759,156.682 55.8734,156.692 55.8734,156.692 55.8711,156.702 55.869,156.712 55.8669,156.722 55.8648,156.732 55.8628,156.742 55.8609,156.752 55.859,156.762 55.8573,156.772 55.8573,156.772 55.8557,156.782 55.8542,156.792 55.8528,156.801 55.8513,156.811 55.85,156.821 55.8488,156.83 55.8477,156.84 55.8466,156.85 55.8466,156.85 55.8457,156.859 55.8448,156.868 55.844,156.878 55.8434,156.887 55.8427,156.896 55.8422,156.905 55.8417,156.915 55.8413,156.924 55.8413,156.924 55.841,156.933 55.8407,156.942 55.8406,156.951 55.8406,156.96 55.8406,156.969 55.8407,156.977 55.841,156.986 55.8412,156.995 55.8412,156.995 55.8415,157.004 55.8419,157.012 55.8424,157.021 55.8429,157.029 55.8436,157.038 55.8443,157.046 55.8452,157.055 55.8461,157.063 55.8461,157.063 55.8471,157.071 55.8481,157.079 55.8492,157.088 55.8503,157.096 55.8516,157.104 55.8529,157.112 55.8543,157.12 55.8558,157.128 55.8558,157.128 55.8574,157.136 55.859,157.144 55.8608,157.151 55.8625,157.159 55.8644,157.167 55.8662,157.174 55.8683,157.182 55.8704,157.19 55.8704,157.19 55.8725,157.197 55.8748,157.204 55.8769,157.212 55.8794,157.219 55.8818,157.226 55.8843,157.233 55.8869,157.241 55.8895,157.248 55.8895,157.248 55.8922,157.255 55.8949,157.262 55.8977,157.269 55.9007,157.276 55.9036,157.283 55.9067,157.289 55.9099,157.296 55.9132,157.303 55.9132,157.303 55.9164,157.31 55.9197,157.316 55.9231,157.322 55.9265,157.329 55.93,157.335 55.9336,157.342 55.9373,157.348 55.9411,157.355 55.9411,157.355 55.9448,157.361 55.9487,157.367 55.9525,157.373 55.9566,157.379 55.9606,157.385 55.9648,157.391 55.969,157.397 55.9732,157.403 55.9732,157.403 55.9775,157.409 55.9819,157.414 55.9863,157.42 55.9908,157.426 55.9953,157.431 56.0,157.437 56.0046,157.442 56.0094,157.447 56.0094,157.447 56.0142,157.453 56.0191,157.458 56.024,157.463 56.029,157.469 56.034,157.474 56.0391,157.479 56.0442,157.484 56.0495,157.489 56.0495,157.489 56.0547,157.494 56.0601,157.499 56.0654,157.503 56.0709,157.508 56.0765,157.513 56.082,157.517 56.0875,157.522 56.0932,157.526 56.0932,157.526 56.099,157.531 56.1048,157.535 56.1107,157.54 56.1166,157.544 56.1225,157.548 56.1286,157.552 56.1346,157.557 56.1407,157.56 56.1407,157.56 56.1469,157.565 56.1532,157.569 56.1595,157.572 56.1658,157.576 56.1722,157.58 56.1786,157.584 56.1851,157.587 56.1916,157.591 56.1916,157.591 56.1983,157.595 56.2049,157.598 56.2116,157.601 56.2184,157.605 56.2252,157.608 56.2319,157.611 56.2387,157.615 56.2456,157.618 56.2456,157.618 56.2527,157.621 56.2598,157.624 56.267,157.627 56.2741,157.63 56.2813,157.633 56.2885,157.636 56.2957,157.638 56.3029,157.641 56.3029,157.641 56.3104,157.644 56.3179,157.646 56.3255,157.649 56.3329,157.651 56.3406,157.653 56.3481,157.656 56.3557,157.658 56.3633,157.66 56.3633,157.66 56.3712,157.662 56.379,157.664 56.3869,157.666 56.3947,157.668 56.4027,157.67 56.4106,157.672 56.4186,157.674 56.4266,157.676 56.4266,157.676 56.4348,157.677 56.443,157.679 56.4512,157.681 56.4594,157.682 56.4676,157.684 56.4759,157.685 56.4842,157.686 56.4925,157.687 56.4925,157.687 56.5011,157.689 56.5096,157.69 56.5181,157.691 56.5267,157.692 56.5352,157.693 56.5438,157.694 56.5524,157.694 56.561,157.695 56.561,157.695 56.5704,157.696 56.5797,157.697 56.5891,157.697 56.5985,157.698 56.6078,157.698 56.6172,157.699 56.6267,157.699 56.6361,157.699 56.6361,157.699 56.6467,157.7 56.6572,157.7 56.6678,157.7 56.6783,157.7 56.6889,157.7 56.6995,157.699 56.71,157.699 56.7206,157.699 56.7206,157.699 56.7322,157.699 56.7438,157.698 56.7554,157.698 56.767,157.697 56.7786,157.697 56.7901,157.696 56.8017,157.696 56.8133,157.695 56.8133,157.695 56.8252,157.694 56.8371,157.693 56.8491,157.692 56.861,157.691 56.8729,157.69 56.8848,157.689 56.8968,157.688 56.9087,157.687 56.9087,157.687 56.9205,157.685 56.9322,157.684 56.9439,157.682 56.9557,157.681 56.9674,157.679 56.9791,157.677 56.9908,157.676 57.0026,157.674 57.0026,157.674 57.0141,157.672 57.0259,157.67 57.0375,157.668 57.049,157.666 57.0605,157.663 57.0721,157.661 57.0837,157.659 57.0952,157.656 57.0952,157.656 57.1067,157.653 57.1182,157.651 57.1296,157.648 57.1411,157.645 57.1524,157.643 57.1638,157.64 57.1752,157.637 57.1866,157.633 57.1866,157.633 57.1979,157.63 57.2093,157.627 57.2207,157.624 57.232,157.62 57.2433,157.617 57.2546,157.613 57.2658,157.609 57.277,157.606 57.277,157.606 57.2883,157.602 57.2996,157.598 57.3108,157.594 57.3221,157.589 57.3333,157.585 57.3444,157.581 57.3556,157.577 57.3667,157.572 57.3667,157.572 57.378,157.568 57.3892,157.563 57.4003,157.558 57.4115,157.553 57.4226,157.548 57.4337,157.544 57.4447,157.538 57.4558,157.533 57.4558,157.533 57.4671,157.528 57.4782,157.523 57.4894,157.517 57.5004,157.512 57.5115,157.506 57.5225,157.5 57.5335,157.495 57.5444,157.489 57.5444,157.489 57.5557,157.483 57.5668,157.476 57.5779,157.47 57.5889,157.464 57.6,157.457 57.611,157.451 57.622,157.444 57.6329,157.438 57.6329,157.438 57.6441,157.431 57.6552,157.424 57.6663,157.417 57.6773,157.41 57.6884,157.403 57.6993,157.395 57.7103,157.388 57.7212,157.381 57.7212,157.381 57.7325,157.373 57.7436,157.365 57.7548,157.357 57.7658,157.349 57.7769,157.341 57.7878,157.333 57.7988,157.325 57.8097,157.317 57.8097,157.317 57.821,157.309 57.8321,157.3 57.8434,157.291 57.8544,157.282 57.8655,157.274 57.8765,157.265 57.8875,157.256 57.8984,157.247 57.8984,157.247 57.9098,157.237 57.9211,157.228 57.9323,157.218 57.9435,157.209 57.9546,157.199 57.9657,157.189 57.9767,157.179 57.9878,157.17 57.9878,157.17 57.9992,157.159 58.0106,157.149 58.0219,157.138 58.0332,157.128 58.0444,157.117 58.0555,157.107 58.0667,157.096 58.0777,157.085 58.0777,157.085 58.0892,157.074 58.1007,157.063 58.1122,157.051 58.1236,157.04 58.1348,157.028 58.1462,157.017 58.1574,157.005 58.1686,156.993 58.1686,156.993 58.1802,156.981 58.1918,156.969 58.2034,156.957 58.2149,156.944 58.2264,156.932 58.2378,156.919 58.2492,156.907 58.2605,156.894 58.2605,156.894 58.2723,156.881 58.2842,156.868 58.2959,156.854 58.3075,156.841 58.3191,156.827 58.3307,156.814 58.3421,156.801 58.3536,156.787 58.3536,156.787 58.3657,156.773 58.3776,156.758 58.3895,156.744 58.4013,156.73 58.4131,156.715 58.4248,156.701 58.4366,156.686 58.4483,156.672 58.4483,156.672 58.4605,156.657 58.4727,156.641 58.4847,156.626 58.4967,156.61 58.5088,156.595 58.5207,156.58 58.5326,156.564 58.5444,156.548 58.5444,156.548 58.5568,156.532 58.5691,156.516 58.5815,156.499 58.5938,156.483 58.606,156.466 58.6183,156.45 58.6304,156.433 58.6424,156.417 58.6424,156.417 58.6551,156.399 58.6677,156.382 58.6803,156.364 58.6928,156.347 58.7052,156.329 58.7177,156.312 58.7301,156.294 58.7424,156.276 58.7424,156.276 58.7553,156.258 58.7682,156.239 58.781,156.22 58.7938,156.202 58.8066,156.183 58.8193,156.164 58.832,156.146 58.8446,156.127 58.8446,156.127 58.8578,156.107 58.871,156.087 58.8841,156.068 58.8972,156.048 58.9102,156.028 58.9233,156.008 58.9363,155.988 58.9492,155.968 58.9492,155.968 58.9628,155.947 58.9762,155.927 58.9897,155.906 59.003,155.885 59.0164,155.864 59.0297,155.843 59.0431,155.822 59.0563,155.801 59.0563,155.801 59.0702,155.778 59.084,155.756 59.0978,155.734 59.1115,155.712 59.1252,155.69 59.1389,155.668 59.1526,155.645 59.1661,155.623 59.1661,155.623 59.1804,155.6 59.1946,155.577 59.2087,155.553 59.2228,155.53 59.2369,155.506 59.2509,155.483 59.2649,155.459 59.2789,155.436 59.2789,155.436 59.3086,155.386 59.338,155.336 59.3673,155.286 59.3965,155.236 59.4256,155.186 59.4546,155.136 59.4834,155.085 59.5122,155.035 59.8723,154.387 59.8972,154.341 59.9217,154.294 59.9458,154.247 59.9694,154.2 59.9925,154.153 60.0152,154.105 60.0372,154.057 60.0586,154.009 60.0586,154.009 60.0682,153.987 60.0778,153.964 60.0872,153.942 60.0963,153.919 60.1054,153.897 60.1144,153.874 60.1232,153.852 60.1318,153.829 60.1318,153.829 60.1398,153.807 60.1475,153.786 60.1552,153.764 60.1626,153.743 60.17,153.721 60.1771,153.699 60.1841,153.677 60.1909,153.655 60.1909,153.655 60.1971,153.635 60.2032,153.614 60.2091,153.593 60.2148,153.572 60.2204,153.551 60.2258,153.53 60.2309,153.509 60.2359,153.488 60.2359,153.488 60.2405,153.468 60.2448,153.447 60.249,153.427 60.253,153.407 60.2567,153.386 60.2603,153.366 60.2636,153.346 60.2668,153.325 60.2668,153.325 60.2696,153.305 60.2723,153.286 60.2747,153.266 60.277,153.246 60.2789,153.226 60.2807,153.206 60.2823,153.186 60.2836,153.166 60.2836,153.166 60.2847,153.147 60.2856,153.128 60.2863,153.108 60.2867,153.089 60.2869,153.07 60.2869,153.05 60.2867,153.031 60.2863,153.011 60.2863,153.011 60.2856,152.992 60.2847,152.973 60.2836,152.954 60.2823,152.935 60.2808,152.916 60.279,152.897 60.277,152.878 60.2748,152.859 60.2748,152.859 60.2724,152.84 60.2696,152.821 60.2668,152.802 60.2636,152.783 60.2603,152.764 60.2567,152.746 60.253,152.727 60.2491,152.708 60.2491,152.708 60.2448,152.689 60.2403,152.671 60.2356,152.652 60.2308,152.633 60.2257,152.614 60.2203,152.596 60.2148,152.577 60.2091,152.559 60.0881,152.263 59.26,150.642 59.2297,150.583 59.1998,150.523 59.1706,150.462 59.1418,150.401 59.1137,150.34 59.0863,150.279 59.0594,150.218 59.0331,150.156 59.0331,150.156 59.0206,150.126 59.0083,150.096 58.9961,150.066 58.9842,150.036 58.9724,150.006 58.9607,149.975 58.9492,149.945 58.9379,149.914 58.9379,149.914 58.927,149.885 58.9163,149.855 58.9057,149.825 58.8953,149.795 58.8851,149.765 58.875,149.734 58.8652,149.704 58.8555,149.674 58.8555,149.674 58.8462,149.644 58.8372,149.615 58.8282,149.585 58.8194,149.555 58.8109,149.525 58.8025,149.495 58.7943,149.465 58.7863,149.435 58.7863,149.435 58.7786,149.405 58.7712,149.375 58.764,149.346 58.757,149.316 58.7501,149.286 58.7434,149.257 58.737,149.227 58.7307,149.197 58.7307,149.197 58.7248,149.167 58.719,149.138 58.7134,149.108 58.7082,149.079 58.703,149.049 58.6981,149.019 58.6934,148.989 58.6889,148.959 58.6889,148.959 58.6847,148.93 58.6806,148.9 58.6769,148.871 58.6733,148.842 58.6699,148.812 58.6667,148.782 58.6639,148.753 58.6611,148.723 58.6611,148.723 58.6586,148.694 58.6564,148.664 58.6545,148.635 58.6526,148.605 58.6511,148.576 58.6498,148.546 58.6487,148.516 58.6478,148.487 58.6478,148.487 58.6471,148.457 58.6468,148.428 58.6466,148.398 58.6467,148.369 58.6469,148.339 58.6475,148.31 58.6482,148.281 58.6492,148.251 58.6492,148.251 58.6504,148.221 58.652,148.192 58.6536,148.162 58.6556,148.133 58.6578,148.104 58.6602,148.074 58.6628,148.045 58.6656,148.015 58.6656,148.015 58.6688,147.986 58.6722,147.956 58.6758,147.927 58.6796,147.897 58.6837,147.868 58.6879,147.838 58.6925,147.809 58.6974,147.78 58.6974,147.78 58.7024,147.75 58.7078,147.72 58.7133,147.691 58.7191,147.661 58.7251,147.632 58.7314,147.602 58.7379,147.573 58.7446,147.544 58.7446,147.544 58.7517,147.514 58.7591,147.484 58.7666,147.455 58.7744,147.425 58.7825,147.396 58.7907,147.366 58.7992,147.337 58.8079,147.308 58.8079,147.308 58.817,147.278 58.8263,147.248 58.836,147.218 58.8458,147.188 58.8559,147.159 58.8662,147.129 58.8767,147.1 58.8874,147.071 58.8874,147.071 58.8985,147.041 58.91,147.011 58.9216,146.981 58.9335,146.951 58.9456,146.921 58.9579,146.892 58.9705,146.862 58.9832,146.833 58.9832,146.833 59.0103,146.772 59.0385,146.712 59.0673,146.651 59.0971,146.592 59.1276,146.533 59.1589,146.474 59.1911,146.415 59.2239,146.357 63.1848,139.697 63.22,139.638 63.2562,139.579 63.2933,139.521 63.3313,139.463 63.3702,139.406 63.41,139.35 63.4507,139.294 63.4924,139.239 63.4924,139.239 63.5129,139.212 63.5336,139.186 63.5544,139.16 63.5756,139.134 63.5968,139.108 63.6183,139.083 63.6401,139.058 63.662,139.033 63.662,139.033 63.6838,139.008 63.7056,138.984 63.7277,138.96 63.7501,138.936 63.7725,138.912 63.7951,138.889 63.818,138.865 63.8411,138.842 63.8411,138.842 63.8639,138.82 63.887,138.797 63.9102,138.775 63.9336,138.753 63.9573,138.731 63.9811,138.709 64.0051,138.688 64.0291,138.667 64.0291,138.667 64.0531,138.646 64.0773,138.625 64.1015,138.605 64.1259,138.585 64.1507,138.565 64.1754,138.545 64.2003,138.526 64.2255,138.506 64.2255,138.506 64.2505,138.487 64.2757,138.468 64.3011,138.45 64.3266,138.431 64.3522,138.413 64.378,138.395 64.4039,138.377 64.43,138.36 64.43,138.36 64.456,138.342 64.4821,138.325 64.5085,138.308 64.5349,138.292 64.5615,138.275 64.5882,138.259 64.615,138.243 64.6419,138.227 64.6419,138.227 64.6689,138.211 64.6959,138.196 64.7232,138.18 64.7505,138.165 64.7779,138.15 64.8054,138.136 64.8331,138.121 64.8608,138.107 64.8608,138.107 64.8887,138.093 64.9166,138.079 64.9447,138.065 64.9728,138.052 65.001,138.038 65.0294,138.025 65.0578,138.012 65.0862,138.0 65.0862,138.0 65.1149,137.987 65.1437,137.975 65.1726,137.962 65.2014,137.951 65.2304,137.939 65.2595,137.927 65.2886,137.916 65.3178,137.904 65.3178,137.904 65.3473,137.893 65.3768,137.882 65.4063,137.872 65.436,137.861 65.4656,137.851 65.4954,137.84 65.5253,137.831 65.5551,137.821 65.5551,137.821 65.5852,137.811 65.6153,137.801 65.6455,137.792 65.6758,137.783 65.7061,137.774 65.7365,137.765 65.7669,137.757 65.7974,137.748 65.7974,137.748 65.8282,137.739 65.8589,137.731 65.8898,137.723 65.9206,137.715 65.9515,137.708 65.9824,137.7 66.0134,137.693 66.0445,137.686 66.0445,137.686 66.0758,137.679 66.107,137.672 66.1384,137.665 66.1698,137.658 66.2012,137.652 66.2327,137.646 66.2643,137.639 66.2958,137.633 66.5508,137.591 66.5829,137.586 66.6152,137.581 66.6474,137.577 66.6796,137.573 66.712,137.568 66.7443,137.564 66.7767,137.561 66.809,137.557 66.809,137.557 66.8416,137.553 66.8742,137.55 66.9068,137.546 66.9395,137.543 66.9721,137.54 67.0048,137.537 67.0374,137.534 67.0701,137.531 67.0701,137.531 67.103,137.529 67.1359,137.526 67.1689,137.524 67.2018,137.522 67.2347,137.519 67.2677,137.518 67.3007,137.516 67.3336,137.514 67.3336,137.514 67.4,137.511 67.4665,137.508 67.533,137.506 67.5995,137.504 67.6659,137.502 67.7324,137.501 67.7989,137.501 67.8654,137.5 68.1892,137.5 69.8458,140.67 66.2451,147.078 63.9767,147.078 67.5413,140.741" fill="none" stroke="black" stroke-width="0.1"/>
        <polygon id="_132511232" points="72.7979,151.614 73.7701,149.851 71.682,149.851 76.2547,139.481 79.6031,139.481 80.6115,137.681 74.8864,137.681 69.4496,149.851 68.1892,149.851 62.8967,159.284 68.4774,159.284 69.4852,157.484 66.2093,157.484 69.5215,151.614" fill="none" stroke="black" stroke-width="0.1"/>
        <polygon id="_131839120" points="86.5524,137.681 84.2838,137.681 72.1499,159.284 77.5147,159.284 78.5229,157.484 75.4265,157.484" fill="none" stroke="black" stroke-width="0.1"/>
        <polygon id="_131531760" points="100.918,151.614 101.891,149.851 99.8021,149.851 104.339,139.481 107.723,139.481 108.732,137.681 103.006,137.681 97.5701,149.851 96.3096,149.851 91.017,159.284 96.5979,159.284 97.6061,157.484 94.2934,157.484 97.6061,151.614" fill="none" stroke="black" stroke-width="0.1"/>
        <polygon id="_131379720_1" points="137.644,156.151 147.977,137.682 145.674,137.682 135.951,155.035 135.92,155.094 135.889,155.152 135.859,155.211 135.829,155.27 135.799,155.33 135.77,155.389 135.742,155.449 135.714,155.509 135.714,155.509 135.701,155.538 135.689,155.566 135.676,155.595 135.664,155.623 135.651,155.652 135.639,155.68 135.627,155.709 135.615,155.738 135.615,155.738 135.604,155.766 135.592,155.793 135.581,155.821 135.571,155.849 135.56,155.876 135.549,155.904 135.539,155.932 135.529,155.96 135.529,155.96 135.519,155.987 135.509,156.013 135.5,156.04 135.491,156.067 135.481,156.094 135.472,156.121 135.464,156.148 135.455,156.175 135.455,156.175 135.447,156.201 135.439,156.227 135.431,156.253 135.423,156.279 135.416,156.305 135.408,156.331 135.401,156.357 135.394,156.384 135.394,156.384 135.387,156.409 135.381,156.434 135.374,156.459 135.368,156.484 135.362,156.509 135.356,156.535 135.35,156.56 135.345,156.585 135.345,156.585 135.339,156.609 135.334,156.634 135.33,156.658 135.325,156.682 135.32,156.707 135.316,156.731 135.312,156.756 135.308,156.78 135.308,156.78 135.304,156.803 135.3,156.827 135.297,156.85 135.294,156.874 135.29,156.897 135.287,156.921 135.285,156.944 135.282,156.968 135.282,156.968 135.28,156.991 135.278,157.013 135.275,157.036 135.274,157.059 135.272,157.081 135.27,157.104 135.269,157.127 135.268,157.149 135.268,157.149 135.267,157.171 135.266,157.193 135.265,157.215 135.265,157.237 135.265,157.259 135.264,157.28 135.264,157.302 135.265,157.324 135.265,157.324 135.265,157.345 135.266,157.366 135.266,157.387 135.267,157.408 135.268,157.429 135.269,157.45 135.271,157.471 135.272,157.492 135.272,157.492 135.274,157.512 135.275,157.532 135.277,157.552 135.28,157.572 135.282,157.593 135.284,157.613 135.287,157.633 135.29,157.653 135.29,157.653 135.293,157.672 135.296,157.692 135.299,157.711 135.302,157.73 135.306,157.75 135.31,157.769 135.314,157.788 135.318,157.807 135.318,157.807 135.322,157.826 135.326,157.844 135.331,157.863 135.335,157.881 135.34,157.9 135.345,157.918 135.35,157.937 135.355,157.955 135.355,157.955 135.361,157.973 135.366,157.991 135.372,158.008 135.378,158.026 135.384,158.043 135.39,158.061 135.396,158.078 135.403,158.096 135.403,158.096 135.409,158.113 135.416,158.13 135.423,158.147 135.43,158.163 135.437,158.18 135.444,158.197 135.452,158.213 135.459,158.23 135.459,158.23 135.467,158.246 135.475,158.262 135.482,158.278 135.491,158.294 135.499,158.31 135.507,158.326 135.516,158.342 135.524,158.357 135.524,158.357 135.533,158.373 135.542,158.388 135.551,158.403 135.56,158.418 135.57,158.433 135.579,158.448 135.589,158.463 135.598,158.478 135.598,158.478 135.608,158.492 135.618,158.507 135.628,158.521 135.638,158.536 135.649,158.55 135.659,158.564 135.67,158.578 135.681,158.592 135.681,158.592 135.692,158.606 135.702,158.619 135.714,158.633 135.725,158.646 135.736,158.66 135.748,158.673 135.759,158.686 135.771,158.699 135.771,158.699 135.783,158.712 135.795,158.725 135.807,158.737 135.819,158.75 135.831,158.762 135.844,158.775 135.856,158.787 135.869,158.799 135.869,158.799 135.882,158.811 135.895,158.823 135.908,158.835 135.921,158.847 135.934,158.859 135.947,158.87 135.961,158.882 135.974,158.893 135.974,158.893 135.988,158.904 136.002,158.915 136.016,158.926 136.03,158.937 136.044,158.948 136.058,158.959 136.072,158.969 136.087,158.98 136.087,158.98 136.101,158.99 136.116,159.0 136.131,159.011 136.146,159.021 136.161,159.031 136.176,159.041 136.191,159.05 136.206,159.06 136.206,159.06 136.221,159.07 136.237,159.079 136.253,159.088 136.268,159.098 136.284,159.107 136.3,159.116 136.316,159.125 136.332,159.133 136.332,159.133 136.348,159.142 136.364,159.151 136.381,159.159 136.397,159.168 136.414,159.176 136.43,159.184 136.447,159.192 136.464,159.2 136.464,159.2 136.481,159.208 136.498,159.216 136.515,159.223 136.532,159.231 136.55,159.238 136.567,159.246 136.584,159.253 136.601,159.26 136.601,159.26 136.619,159.267 136.637,159.274 136.655,159.281 136.673,159.288 136.691,159.294 136.709,159.301 136.727,159.307 136.745,159.313 136.745,159.313 136.764,159.32 136.782,159.326 136.801,159.332 136.819,159.338 136.838,159.343 136.856,159.349 136.875,159.355 136.894,159.36 136.894,159.36 136.913,159.365 136.932,159.371 136.951,159.376 136.97,159.381 136.99,159.386 137.009,159.391 137.028,159.395 137.048,159.4 137.048,159.4 137.067,159.405 137.087,159.409 137.107,159.413 137.126,159.418 137.146,159.422 137.166,159.426 137.186,159.429 137.206,159.433 137.206,159.433 137.226,159.437 137.247,159.44 137.267,159.444 137.287,159.447 137.308,159.451 137.328,159.454 137.348,159.457 137.369,159.46 137.369,159.46 137.39,159.463 137.41,159.465 137.431,159.468 137.452,159.471 137.473,159.473 137.494,159.475 137.515,159.478 137.536,159.48 137.536,159.48 137.557,159.482 137.578,159.484 137.6,159.486 137.621,159.487 137.642,159.489 137.664,159.49 137.685,159.492 137.706,159.493 137.706,159.493 137.729,159.494 137.751,159.495 137.773,159.496 137.795,159.497 137.817,159.498 137.839,159.499 137.862,159.499 137.884,159.5 137.884,159.5 137.907,159.5 137.93,159.5 137.953,159.5 137.976,159.5 137.999,159.5 138.022,159.5 138.046,159.5 138.069,159.5 138.069,159.5 138.092,159.499 138.116,159.499 138.14,159.498 138.163,159.497 138.187,159.497 138.211,159.495 138.234,159.495 138.258,159.493 138.258,159.493 138.281,159.492 138.305,159.491 138.329,159.489 138.352,159.488 138.376,159.486 138.399,159.485 138.423,159.483 138.446,159.481 138.446,159.481 138.469,159.479 138.492,159.477 138.515,159.474 138.538,159.472 138.561,159.47 138.584,159.467 138.607,159.464 138.63,159.462 138.63,159.462 138.652,159.459 138.674,159.456 138.697,159.453 138.719,159.45 138.741,159.447 138.764,159.443 138.786,159.44 138.808,159.436 138.808,159.436 138.83,159.433 138.852,159.429 138.874,159.425 138.895,159.421 138.917,159.417 138.939,159.413 138.961,159.409 138.982,159.404 138.982,159.404 139.004,159.4 139.025,159.396 139.046,159.391 139.068,159.386 139.089,159.381 139.11,159.376 139.131,159.371 139.152,159.366 139.152,159.366 139.173,159.361 139.194,159.356 139.215,159.35 139.236,159.345 139.256,159.339 139.277,159.333 139.298,159.327 139.318,159.321 139.318,159.321 139.339,159.315 139.359,159.309 139.379,159.303 139.399,159.297 139.42,159.29 139.44,159.284 139.46,159.277 139.48,159.27 139.48,159.27 139.5,159.263 139.52,159.256 139.54,159.249 139.56,159.242 139.58,159.235 139.599,159.228 139.619,159.22 139.639,159.213 139.639,159.213 139.658,159.205 139.678,159.197 139.697,159.189 139.717,159.181 139.736,159.173 139.755,159.165 139.774,159.157 139.794,159.148 139.794,159.148 139.813,159.14 139.832,159.131 139.851,159.123 139.87,159.114 139.889,159.105 139.908,159.096 139.927,159.087 139.945,159.078 139.945,159.078 139.964,159.068 139.983,159.059 140.001,159.049 140.02,159.04 140.039,159.03 140.057,159.02 140.076,159.01 140.094,159.0 140.094,159.0 140.112,158.99 140.131,158.98 140.149,158.97 140.167,158.959 140.185,158.949 140.204,158.938 140.222,158.927 140.24,158.916 140.24,158.916 140.258,158.906 140.276,158.894 140.294,158.883 140.312,158.872 140.33,158.861 140.347,158.849 140.365,158.838 140.383,158.826 140.383,158.826 140.401,158.814 140.418,158.802 140.436,158.79 140.454,158.778 140.471,158.766 140.489,158.754 140.506,158.742 140.523,158.729 140.523,158.729 140.541,158.716 140.558,158.704 140.576,158.691 140.593,158.678 140.61,158.665 140.628,158.652 140.645,158.639 140.662,158.625 140.662,158.625 140.679,158.612 140.696,158.599 140.713,158.585 140.73,158.571 140.747,158.557 140.764,158.543 140.781,158.529 140.798,158.515 140.798,158.515 140.815,158.501 140.832,158.487 140.849,158.472 140.866,158.458 140.882,158.443 140.899,158.428 140.916,158.413 140.932,158.399 140.932,158.399 140.949,158.383 140.966,158.368 140.983,158.353 140.999,158.337 141.016,158.322 141.032,158.306 141.049,158.291 141.065,158.275 141.065,158.275 141.082,158.259 141.098,158.243 141.115,158.227 141.131,158.21 141.148,158.194 141.164,158.178 141.18,158.161 141.196,158.145 141.196,158.145 141.213,158.128 141.229,158.111 141.246,158.094 141.262,158.077 141.278,158.06 141.294,158.043 141.31,158.025 141.327,158.008 141.327,158.008 141.343,157.99 141.359,157.972 141.375,157.955 141.392,157.937 141.408,157.919 141.424,157.901 141.44,157.883 141.456,157.864 141.456,157.864 141.472,157.846 141.488,157.827 141.504,157.808 141.52,157.79 141.536,157.771 141.552,157.752 141.568,157.733 141.584,157.714 141.584,157.714 141.6,157.695 141.616,157.675 141.632,157.656 141.648,157.636 141.664,157.616 141.679,157.597 141.695,157.577 141.711,157.557 141.711,157.557 141.727,157.537 141.743,157.517 141.759,157.496 141.775,157.476 141.791,157.455 141.807,157.435 141.822,157.414 141.838,157.394 141.838,157.394 141.854,157.372 141.87,157.351 141.886,157.33 141.902,157.309 141.918,157.287 141.933,157.266 141.949,157.244 141.965,157.223 141.965,157.223 141.981,157.201 141.997,157.179 142.013,157.157 142.029,157.135 142.044,157.112 142.06,157.09 142.076,157.068 142.092,157.046 142.092,157.046 142.107,157.023 142.124,157.0 142.139,156.977 142.155,156.954 142.171,156.931 142.187,156.908 142.203,156.885 142.218,156.862 142.218,156.862 142.234,156.838 142.25,156.814 142.266,156.79 142.282,156.766 142.298,156.742 142.314,156.718 142.33,156.694 142.345,156.671 142.345,156.671 142.362,156.646 142.378,156.621 142.394,156.597 142.41,156.572 142.426,156.547 142.441,156.522 142.457,156.498 142.473,156.473 142.473,156.473 142.489,156.447 142.506,156.422 142.522,156.396 142.538,156.371 142.554,156.345 142.57,156.319 142.586,156.294 142.602,156.268 142.602,156.268 142.618,156.242 142.634,156.215 142.65,156.189 142.667,156.162 142.683,156.136 142.699,156.11 142.715,156.083 142.731,156.057 142.731,156.057 142.748,156.029 142.764,156.002 142.78,155.975 142.797,155.948 142.813,155.92 142.829,155.893 142.845,155.866 142.862,155.838 142.862,155.838 142.878,155.81 142.895,155.782 142.911,155.754 142.928,155.726 142.944,155.697 142.961,155.669 142.977,155.641 142.994,155.613 142.994,155.613 143.027,155.554 143.061,155.496 143.095,155.437 143.128,155.379 143.161,155.32 143.195,155.261 143.228,155.202 143.261,155.143 153.054,137.682 150.75,137.682 141.029,155.035 140.999,155.086 140.969,155.137 140.939,155.189 140.908,155.239 140.878,155.291 140.848,155.341 140.817,155.392 140.786,155.443 140.786,155.443 140.772,155.467 140.757,155.491 140.743,155.514 140.729,155.538 140.714,155.562 140.7,155.586 140.685,155.609 140.67,155.633 140.67,155.633 140.656,155.656 140.643,155.678 140.629,155.7 140.614,155.723 140.601,155.745 140.587,155.768 140.572,155.79 140.558,155.813 140.558,155.813 140.545,155.834 140.531,155.855 140.518,155.877 140.504,155.898 140.491,155.919 140.477,155.94 140.463,155.962 140.45,155.983 140.45,155.983 140.437,156.003 140.424,156.023 140.411,156.043 140.397,156.063 140.384,156.083 140.371,156.103 140.358,156.123 140.344,156.143 140.344,156.143 140.332,156.162 140.319,156.181 140.306,156.2 140.293,156.219 140.281,156.238 140.268,156.256 140.255,156.275 140.242,156.294 140.242,156.294 140.23,156.312 140.218,156.33 140.205,156.347 140.193,156.365 140.18,156.383 140.168,156.4 140.155,156.418 140.143,156.436 140.143,156.436 140.131,156.452 140.119,156.469 140.107,156.486 140.095,156.502 140.082,156.519 140.07,156.536 140.058,156.552 140.046,156.569 140.046,156.569 140.034,156.584 140.022,156.6 140.011,156.615 139.999,156.631 139.987,156.646 139.975,156.662 139.963,156.677 139.951,156.693 139.951,156.693 139.94,156.707 139.928,156.722 139.917,156.736 139.905,156.751 139.893,156.765 139.882,156.78 139.87,156.794 139.858,156.808 139.858,156.808 139.847,156.822 139.836,156.835 139.824,156.849 139.813,156.862 139.802,156.876 139.79,156.889 139.779,156.903 139.767,156.916 139.767,156.916 139.756,156.928 139.745,156.941 139.734,156.953 139.723,156.966 139.711,156.978 139.7,156.991 139.689,157.003 139.678,157.015 139.678,157.015 139.667,157.027 139.656,157.038 139.645,157.05 139.634,157.061 139.623,157.073 139.611,157.084 139.6,157.095 139.589,157.107 139.589,157.107 139.578,157.117 139.567,157.128 139.556,157.139 139.546,157.149 139.535,157.16 139.524,157.17 139.512,157.18 139.501,157.191 139.501,157.191 139.491,157.201 139.48,157.21 139.469,157.22 139.458,157.23 139.447,157.239 139.436,157.249 139.425,157.258 139.414,157.267 139.414,157.267 139.404,157.276 139.393,157.285 139.382,157.294 139.371,157.303 139.361,157.311 139.35,157.32 139.339,157.329 139.328,157.337 139.328,157.337 139.317,157.345 139.306,157.353 139.296,157.361 139.285,157.369 139.274,157.377 139.263,157.384 139.252,157.392 139.241,157.4 139.241,157.4 139.23,157.407 139.22,157.414 139.209,157.421 139.198,157.428 139.187,157.435 139.177,157.442 139.166,157.449 139.154,157.456 139.154,157.456 139.144,157.462 139.133,157.469 139.122,157.475 139.111,157.481 139.1,157.487 139.089,157.493 139.078,157.499 139.067,157.505 139.067,157.505 139.057,157.511 139.046,157.517 139.035,157.522 139.024,157.528 139.013,157.533 139.002,157.538 138.991,157.544 138.979,157.549 138.979,157.549 138.968,157.554 138.957,157.559 138.946,157.563 138.935,157.568 138.924,157.573 138.913,157.577 138.902,157.582 138.891,157.586 138.891,157.586 138.879,157.59 138.868,157.595 138.857,157.599 138.846,157.603 138.834,157.607 138.823,157.61 138.812,157.614 138.801,157.618 138.801,157.618 138.789,157.621 138.778,157.625 138.766,157.628 138.755,157.632 138.744,157.635 138.732,157.638 138.72,157.641 138.709,157.644 138.709,157.644 138.697,157.647 138.686,157.65 138.674,157.652 138.662,157.655 138.651,157.658 138.639,157.66 138.627,157.662 138.616,157.665 138.616,157.665 138.604,157.667 138.592,157.669 138.58,157.671 138.568,157.673 138.556,157.675 138.544,157.677 138.532,157.679 138.52,157.681 138.52,157.681 138.508,157.682 138.496,157.684 138.484,157.685 138.471,157.687 138.459,157.688 138.447,157.689 138.435,157.691 138.423,157.692 138.423,157.692 138.41,157.693 138.398,157.694 138.385,157.695 138.373,157.695 138.36,157.696 138.348,157.697 138.335,157.697 138.323,157.698 138.323,157.698 138.311,157.699 138.299,157.699 138.288,157.699 138.277,157.7 138.265,157.7 138.254,157.7 138.242,157.7 138.231,157.7 138.231,157.7 138.22,157.7 138.21,157.7 138.2,157.7 138.189,157.7 138.179,157.699 138.169,157.699 138.158,157.699 138.148,157.698 138.148,157.698 138.139,157.698 138.13,157.697 138.121,157.696 138.113,157.696 138.104,157.695 138.095,157.694 138.086,157.693 138.077,157.692 138.077,157.692 138.069,157.691 138.06,157.69 138.052,157.689 138.043,157.688 138.034,157.686 138.026,157.685 138.017,157.684 138.009,157.682 138.009,157.682 138.001,157.68 137.992,157.679 137.984,157.677 137.976,157.675 137.968,157.674 137.96,157.672 137.951,157.67 137.943,157.668 137.943,157.668 137.935,157.666 137.928,157.664 137.92,157.662 137.912,157.659 137.904,157.657 137.896,157.655 137.888,157.652 137.881,157.65 137.881,157.65 137.873,157.647 137.866,157.645 137.858,157.642 137.851,157.639 137.843,157.637 137.836,157.634 137.828,157.631 137.821,157.628 137.821,157.628 137.814,157.625 137.807,157.622 137.8,157.619 137.793,157.616 137.786,157.612 137.779,157.609 137.772,157.606 137.765,157.602 137.765,157.602 137.758,157.599 137.751,157.595 137.744,157.592 137.738,157.588 137.731,157.584 137.725,157.58 137.718,157.577 137.712,157.573 137.712,157.573 137.705,157.569 137.699,157.565 137.693,157.56 137.687,157.556 137.68,157.552 137.674,157.548 137.668,157.544 137.662,157.539 137.662,157.539 137.656,157.535 137.65,157.53 137.645,157.526 137.639,157.521 137.633,157.516 137.628,157.512 137.622,157.507 137.616,157.502 137.616,157.502 137.611,157.497 137.606,157.492 137.6,157.487 137.595,157.482 137.59,157.477 137.584,157.472 137.579,157.467 137.574,157.461 137.574,157.461 137.569,157.456 137.565,157.451 137.56,157.445 137.555,157.439 137.55,157.434 137.545,157.428 137.541,157.423 137.536,157.417 137.536,157.417 137.532,157.411 137.527,157.405 137.523,157.399 137.519,157.393 137.515,157.387 137.51,157.381 137.506,157.375 137.502,157.369 137.502,157.369 137.498,157.362 137.495,157.356 137.491,157.35 137.487,157.343 137.483,157.337 137.48,157.33 137.476,157.324 137.473,157.317 137.473,157.317 137.469,157.31 137.466,157.304 137.463,157.297 137.46,157.29 137.457,157.283 137.453,157.276 137.451,157.269 137.448,157.262 137.448,157.262 137.445,157.255 137.442,157.248 137.439,157.24 137.437,157.233 137.434,157.226 137.432,157.218 137.429,157.211 137.427,157.204 137.427,157.204 137.425,157.196 137.423,157.188 137.421,157.18 137.418,157.173 137.417,157.165 137.415,157.157 137.413,157.149 137.411,157.142 137.411,157.142 137.41,157.133 137.408,157.125 137.406,157.117 137.405,157.109 137.404,157.101 137.403,157.093 137.401,157.084 137.4,157.076 137.4,157.076 137.399,157.068 137.398,157.059 137.397,157.051 137.397,157.042 137.396,157.033 137.395,157.025 137.395,157.016 137.394,157.008 137.394,157.008 137.394,156.999 137.394,156.99 137.393,156.981 137.393,156.972 137.393,156.963 137.393,156.954 137.393,156.945 137.394,156.936 137.394,156.936 137.394,156.926 137.394,156.917 137.395,156.908 137.395,156.898 137.396,156.889 137.397,156.879 137.397,156.87 137.398,156.861 137.398,156.861 137.399,156.851 137.4,156.841 137.402,156.831 137.403,156.821 137.404,156.812 137.405,156.802 137.407,156.792 137.408,156.782 137.408,156.782 137.41,156.772 137.412,156.762 137.414,156.752 137.416,156.742 137.418,156.732 137.42,156.721 137.422,156.711 137.424,156.701 137.424,156.701 137.427,156.69 137.429,156.68 137.432,156.669 137.434,156.659 137.437,156.648 137.44,156.637 137.443,156.627 137.446,156.617 137.446,156.617 137.449,156.606 137.452,156.595 137.455,156.584 137.459,156.573 137.462,156.562 137.466,156.551 137.469,156.54 137.473,156.529 137.473,156.529 137.477,156.518 137.481,156.506 137.485,156.495 137.489,156.484 137.494,156.472 137.498,156.461 137.502,156.45 137.507,156.439 137.507,156.439 137.511,156.427 137.516,156.415 137.521,156.403 137.526,156.392 137.531,156.38 137.536,156.368 137.541,156.357 137.546,156.345 137.546,156.345 137.558,156.32 137.569,156.296 137.581,156.272 137.593,156.247 137.606,156.223 137.618,156.199 137.631,156.175" fill="none" stroke="black" stroke-width="0.1"/>
        <polygon id="_132136424" points="162.561,137.681 156.151,137.681 155.143,139.481 158.636,139.481 143.622,159.284 150.318,159.284 151.327,157.484 147.475,157.484" fill="none" stroke="black" stroke-width="0.1"/>
        <polygon id="_132150832" points="171.598,137.681 165.189,137.681 164.18,139.481 167.673,139.481 152.659,159.284 159.355,159.284 160.363,157.484 156.511,157.484" fill="none" stroke="black" stroke-width="0.1"/>
        <polygon id="_132204424" points="177.034,137.681 174.766,137.681 162.632,159.284 167.997,159.284 169.004,157.484 165.908,157.484" fill="none" stroke="black" stroke-width="0.1"/>
        <polygon id="_132141592" points="180.599,151.614 181.572,149.851 179.483,149.851 184.019,139.481 187.404,139.481 188.412,137.681 182.651,137.681 177.251,149.851 175.955,149.851 170.662,159.284 176.278,159.284 177.286,157.484 173.974,157.484 177.286,151.614" fill="none" stroke="black" stroke-width="0.1"/>
        <polygon id="_131954472___1_2" points="106.607,152.335 107.58,152.335 105.851,159.284 108.012,159.284 109.668,152.227 109.718,152.217 109.769,152.206 109.819,152.194 109.869,152.182 109.919,152.169 109.969,152.155 110.018,152.141 110.068,152.127 110.068,152.127 110.092,152.119 110.116,152.111 110.14,152.104 110.164,152.096 110.189,152.087 110.212,152.079 110.236,152.07 110.26,152.062 110.449,151.987 110.472,151.977 110.495,151.966 110.518,151.956 110.542,151.945 110.565,151.934 110.588,151.923 110.61,151.912 110.633,151.901 110.633,151.901 110.656,151.889 110.679,151.878 110.702,151.866 110.724,151.854 110.747,151.842 110.769,151.829 110.792,151.817 110.814,151.804 110.814,151.804 110.837,151.791 110.859,151.778 110.881,151.764 110.904,151.751 110.926,151.737 110.948,151.724 110.97,151.709 110.992,151.695 110.992,151.695 111.014,151.681 111.036,151.666 111.058,151.651 111.08,151.636 111.102,151.621 111.124,151.606 111.145,151.59 111.167,151.575 111.167,151.575 111.189,151.559 111.211,151.542 111.233,151.526 111.254,151.509 111.276,151.493 111.297,151.476 111.319,151.459 111.34,151.441 111.34,151.441 111.362,151.424 111.383,151.406 111.405,151.387 111.426,151.369 111.448,151.351 111.469,151.332 111.49,151.314 111.511,151.295 111.511,151.295 111.533,151.275 111.554,151.256 111.575,151.236 111.597,151.216 111.618,151.196 111.639,151.176 111.66,151.156 111.681,151.135 111.681,151.135 111.702,151.114 111.724,151.092 111.745,151.071 111.766,151.049 111.787,151.027 111.808,151.006 111.829,150.983 111.85,150.961 111.85,150.961 111.872,150.938 111.893,150.915 111.914,150.892 111.935,150.868 111.956,150.845 111.977,150.821 111.998,150.797 112.019,150.773 112.019,150.773 112.04,150.748 112.062,150.723 112.083,150.698 112.104,150.673 112.125,150.647 112.146,150.622 112.167,150.596 112.188,150.57 112.188,150.57 112.209,150.543 112.231,150.516 112.252,150.489 112.274,150.462 112.295,150.434 112.316,150.407 112.337,150.379 112.358,150.352 112.358,150.352 112.379,150.323 112.401,150.294 112.422,150.265 112.444,150.235 112.465,150.206 112.486,150.177 112.507,150.147 112.528,150.118 112.528,150.118 112.55,150.087 112.572,150.055 112.594,150.024 112.615,149.993 112.637,149.962 112.658,149.93 112.679,149.899 112.701,149.867 112.701,149.867 112.723,149.834 112.745,149.801 112.767,149.767 112.789,149.734 112.81,149.701 112.832,149.667 112.854,149.633 112.875,149.6 112.875,149.6 112.898,149.565 112.92,149.529 112.942,149.494 112.964,149.458 112.986,149.423 113.008,149.387 113.03,149.351 113.052,149.315 113.052,149.315 113.098,149.239 113.144,149.162 113.19,149.086 113.235,149.009 113.28,148.931 113.324,148.854 113.368,148.776 113.412,148.698 117.841,140.777 116.221,137.682 112.512,137.682 100.378,159.284 102.683,159.284 107.615,150.535 113.809,139.481 114.817,139.481 115.501,140.813 111.288,148.338 111.253,148.399 111.218,148.46 111.183,148.521 111.147,148.581 111.112,148.641 111.075,148.701 111.038,148.761 111.001,148.82 111.001,148.82 110.984,148.848 110.967,148.875 110.949,148.902 110.932,148.929 110.914,148.956 110.896,148.983 110.878,149.01 110.86,149.037 110.86,149.037 110.843,149.063 110.826,149.088 110.809,149.113 110.791,149.138 110.774,149.163 110.756,149.188 110.738,149.213 110.721,149.237 110.721,149.237 110.704,149.261 110.687,149.284 110.67,149.307 110.652,149.33 110.635,149.353 110.617,149.376 110.6,149.399 110.582,149.421 110.582,149.421 110.565,149.442 110.548,149.464 110.531,149.485 110.513,149.506 110.496,149.527 110.479,149.547 110.461,149.568 110.443,149.589 110.443,149.589 110.426,149.608 110.409,149.627 110.392,149.647 110.375,149.666 110.357,149.685 110.339,149.704 110.322,149.722 110.304,149.741 110.304,149.741 110.287,149.758 110.269,149.776 110.252,149.793 110.235,149.81 110.217,149.827 110.199,149.844 110.181,149.861 110.163,149.878 110.163,149.878 110.146,149.894 110.128,149.909 110.111,149.925 110.093,149.94 110.075,149.956 110.057,149.971 110.039,149.986 110.021,150.0 110.021,150.0 110.003,150.015 109.985,150.029 109.967,150.042 109.949,150.056 109.931,150.069 109.912,150.083 109.894,150.096 109.875,150.109 109.875,150.109 109.857,150.121 109.839,150.134 109.82,150.146 109.802,150.158 109.783,150.17 109.764,150.181 109.745,150.193 109.727,150.204 109.727,150.204 109.708,150.215 109.689,150.225 109.67,150.236 109.651,150.246 109.632,150.256 109.612,150.266 109.593,150.276 109.574,150.286 109.574,150.286 109.554,150.295 109.535,150.304 109.515,150.313 109.495,150.322 109.476,150.33 109.456,150.339 109.436,150.347 109.416,150.355 109.416,150.355 109.396,150.363 109.375,150.37 109.355,150.378 109.335,150.385 109.315,150.392 109.294,150.399 109.273,150.406 109.253,150.412 109.253,150.412 109.232,150.418 109.211,150.425 109.19,150.431 109.169,150.436 109.147,150.442 109.126,150.447 109.105,150.453 109.084,150.458 109.084,150.458 109.062,150.463 109.04,150.468 109.018,150.472 108.996,150.476 108.974,150.481 108.952,150.485 108.93,150.489 108.908,150.492 108.908,150.492 108.885,150.496 108.862,150.499 108.839,150.503 108.816,150.506 108.793,150.509 108.77,150.511 108.747,150.514 108.724,150.516 108.724,150.516 108.676,150.521 108.627,150.525 108.579,150.528 108.53,150.53 108.482,150.532 108.433,150.534 108.384,150.535 108.336,150.535 107.615,150.535" fill="none" stroke="black" stroke-width="0.1"/>
    </g>
</svg>
