<!DOCTYPE svg PUBLIC "-//W3C//DTD SVG 1.1//EN" "http://www.w3.org/Graphics/SVG/1.1/DTD/svg11.dtd">
<svg xmlns="http://www.w3.org/2000/svg" width="297mm" height="210mm" viewBox="0 0 297 210">
    <defs id="_tag_52_"/>
    <g id="trashNode_001"/>
    <g id="_tag_53_">
        <polygon id="_132204712___0" points="116.62,163.205 119.724,163.205 119.809,163.205 119.893,163.204 119.977,163.202 120.062,163.199 120.146,163.195 120.23,163.19 120.314,163.185 120.398,163.178 120.398,163.178 120.439,163.175 120.479,163.171 120.519,163.168 120.56,163.163 120.6,163.159 120.64,163.154 120.681,163.149 120.721,163.144 120.721,163.144 120.76,163.139 120.799,163.134 120.839,163.128 120.878,163.122 120.917,163.116 120.956,163.109 120.995,163.102 121.034,163.096 121.034,163.096 121.072,163.088 121.11,163.081 121.148,163.074 121.186,163.066 121.224,163.058 121.261,163.049 121.299,163.041 121.337,163.032 121.337,163.032 121.374,163.023 121.411,163.014 121.448,163.004 121.485,162.995 121.521,162.985 121.558,162.975 121.595,162.964 121.631,162.953 121.631,162.953 121.667,162.942 121.703,162.931 121.739,162.92 121.775,162.908 121.811,162.896 121.846,162.884 121.882,162.872 121.917,162.859 121.917,162.859 121.953,162.846 121.988,162.833 122.022,162.82 122.057,162.806 122.092,162.792 122.127,162.778 122.161,162.763 122.196,162.749 122.196,162.749 122.23,162.734 122.264,162.719 122.298,162.703 122.332,162.688 122.366,162.672 122.4,162.656 122.434,162.639 122.467,162.623 122.467,162.623 122.5,162.606 122.534,162.588 122.567,162.571 122.6,162.553 122.633,162.535 122.666,162.517 122.699,162.498 122.731,162.48 122.731,162.48 122.764,162.461 122.797,162.441 122.829,162.421 122.862,162.402 122.894,162.382 122.926,162.361 122.958,162.34 122.99,162.32 122.99,162.32 123.022,162.298 123.054,162.277 123.086,162.255 123.118,162.233 123.149,162.211 123.18,162.188 123.212,162.165 123.243,162.142 123.243,162.142 123.274,162.119 123.306,162.095 123.337,162.071 123.368,162.047 123.399,162.022 123.43,161.997 123.46,161.972 123.491,161.947 123.491,161.947 123.522,161.921 123.553,161.895 123.584,161.869 123.614,161.843 123.644,161.816 123.675,161.789 123.705,161.762 123.735,161.734 123.735,161.734 123.765,161.706 123.796,161.678 123.826,161.649 123.856,161.62 123.886,161.591 123.916,161.562 123.945,161.533 123.975,161.503 123.975,161.503 124.005,161.472 124.035,161.442 124.065,161.411 124.094,161.379 124.124,161.348 124.153,161.317 124.182,161.285 124.211,161.253 124.211,161.253 124.241,161.22 124.271,161.187 124.3,161.153 124.33,161.12 124.359,161.086 124.388,161.052 124.417,161.018 124.446,160.984 124.446,160.984 124.475,160.948 124.505,160.912 124.534,160.877 124.563,160.841 124.592,160.805 124.621,160.768 124.649,160.732 124.678,160.695 124.678,160.695 124.707,160.657 124.737,160.619 124.766,160.58 124.795,160.542 124.823,160.503 124.852,160.464 124.88,160.426 124.909,160.387 124.909,160.387 124.938,160.346 124.967,160.305 124.996,160.265 125.025,160.224 125.054,160.182 125.082,160.141 125.11,160.1 125.138,160.058 125.138,160.058 125.168,160.015 125.197,159.971 125.226,159.928 125.254,159.885 125.283,159.841 125.312,159.797 125.34,159.753 125.368,159.709 125.368,159.709 125.397,159.663 125.427,159.617 125.456,159.571 125.484,159.525 125.513,159.479 125.541,159.432 125.57,159.386 125.598,159.339 125.598,159.339 125.658,159.24 125.716,159.141 125.775,159.042 125.832,158.942 125.889,158.842 125.946,158.742 126.002,158.642 126.058,158.541 128.071,154.908 126.844,152.551 126.934,152.534 127.024,152.515 127.114,152.496 127.204,152.475 127.293,152.452 127.382,152.429 127.471,152.404 127.559,152.378 127.559,152.378 127.601,152.365 127.643,152.351 127.684,152.338 127.726,152.324 127.768,152.31 127.809,152.295 127.851,152.28 127.892,152.265 127.892,152.265 127.932,152.25 127.971,152.235 128.011,152.219 128.051,152.203 128.09,152.187 128.13,152.17 128.169,152.153 128.208,152.136 128.208,152.136 128.246,152.119 128.284,152.101 128.322,152.083 128.36,152.065 128.397,152.047 128.435,152.028 128.472,152.009 128.509,151.99 128.509,151.99 128.545,151.971 128.582,151.951 128.618,151.932 128.654,151.912 128.689,151.891 128.725,151.87 128.76,151.85 128.796,151.829 128.796,151.829 128.83,151.807 128.865,151.786 128.899,151.764 128.934,151.742 128.968,151.72 129.002,151.697 129.035,151.674 129.069,151.651 129.069,151.651 129.102,151.628 129.135,151.604 129.168,151.581 129.201,151.557 129.233,151.533 129.266,151.508 129.298,151.483 129.33,151.458 129.33,151.458 129.362,151.433 129.394,151.408 129.425,151.382 129.457,151.356 129.488,151.33 129.519,151.304 129.55,151.277 129.58,151.251 129.58,151.251 129.611,151.223 129.642,151.196 129.672,151.168 129.702,151.141 129.732,151.113 129.762,151.085 129.791,151.057 129.821,151.028 129.821,151.028 129.85,150.999 129.88,150.97 129.909,150.94 129.938,150.911 129.967,150.881 129.996,150.851 130.024,150.821 130.053,150.791 130.053,150.791 130.081,150.76 130.11,150.729 130.138,150.698 130.166,150.666 130.194,150.635 130.222,150.603 130.249,150.571 130.277,150.539 130.277,150.539 130.304,150.507 130.332,150.474 130.36,150.441 130.387,150.408 130.414,150.375 130.441,150.341 130.468,150.308 130.495,150.274 130.495,150.274 130.522,150.24 130.549,150.205 130.575,150.171 130.602,150.136 130.629,150.101 130.655,150.066 130.681,150.031 130.707,149.995 130.707,149.995 130.734,149.959 130.76,149.923 130.787,149.887 130.813,149.85 130.839,149.814 130.865,149.777 130.891,149.74 130.916,149.703 130.916,149.703 130.942,149.666 130.968,149.628 130.994,149.59 131.02,149.552 131.046,149.513 131.071,149.475 131.096,149.437 131.122,149.398 131.122,149.398 131.148,149.359 131.173,149.319 131.199,149.279 131.225,149.24 131.25,149.2 131.275,149.16 131.301,149.12 131.326,149.08 131.326,149.08 131.352,149.039 131.377,148.998 131.403,148.957 131.428,148.916 131.454,148.874 131.479,148.833 131.504,148.791 131.529,148.75 131.529,148.75 131.555,148.707 131.581,148.665 131.607,148.622 131.632,148.579 131.658,148.536 131.683,148.494 131.708,148.451 131.733,148.408 131.733,148.408 131.786,148.319 131.838,148.229 131.89,148.14 131.941,148.05 131.993,147.96 132.044,147.87 132.095,147.781 132.146,147.691 137.498,138.067 135.239,133.748 130.035,133.748 125.287,142.201 120.825,150.146 119.388,152.703 113.489,163.205 116.62,163.205 118.006,160.75 122.523,152.748 123.996,150.146 131.802,136.202 133.324,136.202 134.356,138.166 129.347,147.15 129.3,147.233 129.253,147.316 129.204,147.399 129.156,147.481 129.107,147.564 129.057,147.645 129.007,147.727 128.957,147.808 128.957,147.808 128.933,147.845 128.909,147.882 128.886,147.919 128.862,147.957 128.838,147.994 128.813,148.03 128.789,148.067 128.764,148.104 128.764,148.104 128.741,148.138 128.718,148.173 128.694,148.207 128.67,148.241 128.647,148.275 128.623,148.309 128.598,148.343 128.574,148.377 128.574,148.377 128.551,148.408 128.528,148.44 128.504,148.471 128.481,148.503 128.457,148.534 128.433,148.565 128.409,148.596 128.385,148.627 128.385,148.627 128.362,148.656 128.339,148.685 128.315,148.714 128.291,148.742 128.268,148.771 128.244,148.799 128.22,148.827 128.196,148.856 128.196,148.856 128.173,148.882 128.149,148.908 128.126,148.934 128.102,148.96 128.078,148.986 128.054,149.012 128.03,149.037 128.006,149.063 128.006,149.063 127.982,149.087 127.959,149.111 127.935,149.134 127.911,149.158 127.887,149.181 127.863,149.204 127.839,149.227 127.814,149.25 127.814,149.25 127.79,149.271 127.766,149.293 127.742,149.314 127.718,149.335 127.694,149.356 127.669,149.376 127.644,149.397 127.619,149.417 127.619,149.417 127.595,149.436 127.571,149.455 127.546,149.474 127.522,149.493 127.497,149.511 127.471,149.529 127.446,149.547 127.421,149.565 127.421,149.565 127.396,149.582 127.371,149.599 127.346,149.615 127.321,149.632 127.295,149.648 127.27,149.664 127.244,149.679 127.218,149.694 127.218,149.694 127.193,149.709 127.167,149.724 127.141,149.738 127.115,149.752 127.089,149.766 127.063,149.78 127.036,149.793 127.01,149.806 127.01,149.806 126.983,149.819 126.957,149.831 126.93,149.843 126.903,149.855 126.876,149.867 126.849,149.878 126.822,149.89 126.795,149.9 126.795,149.9 126.767,149.911 126.74,149.922 126.712,149.932 126.684,149.942 126.656,149.951 126.628,149.961 126.6,149.97 126.572,149.979 126.572,149.979 126.544,149.987 126.515,149.995 126.486,150.004 126.458,150.012 126.429,150.019 126.4,150.027 126.371,150.034 126.342,150.041 126.342,150.041 126.312,150.047 126.282,150.054 126.252,150.06 126.222,150.066 126.192,150.072 126.162,150.077 126.132,150.083 126.102,150.088 126.102,150.088 126.071,150.093 126.039,150.097 126.008,150.102 125.977,150.106 125.946,150.11 125.914,150.114 125.883,150.117 125.852,150.12 125.852,150.12 125.786,150.127 125.719,150.132 125.653,150.136 125.587,150.14 125.521,150.142 125.454,150.144 125.388,150.145 125.322,150.146 123.996,150.146 122.523,152.748 123.75,152.748 124.929,155.005 123.407,157.755 123.362,157.837 123.315,157.918 123.269,158.0 123.221,158.08 123.174,158.161 123.125,158.241 123.076,158.321 123.027,158.401 123.027,158.401 123.004,158.438 122.98,158.474 122.957,158.511 122.933,158.547 122.909,158.584 122.885,158.62 122.861,158.656 122.837,158.693 122.837,158.693 122.814,158.727 122.79,158.761 122.767,158.795 122.743,158.829 122.719,158.862 122.695,158.896 122.671,158.929 122.647,158.963 122.647,158.963 122.624,158.994 122.6,159.025 122.577,159.057 122.553,159.088 122.529,159.119 122.505,159.15 122.481,159.181 122.457,159.211 122.457,159.211 122.433,159.24 122.41,159.269 122.386,159.298 122.362,159.326 122.338,159.355 122.314,159.383 122.29,159.411 122.265,159.439 122.265,159.439 122.242,159.466 122.218,159.492 122.194,159.518 122.17,159.544 122.145,159.57 122.121,159.595 122.096,159.621 122.071,159.646 122.071,159.646 122.047,159.67 122.023,159.694 121.999,159.718 121.975,159.742 121.95,159.765 121.925,159.788 121.9,159.811 121.875,159.834 121.875,159.834 121.851,159.856 121.826,159.877 121.801,159.899 121.777,159.92 121.751,159.941 121.726,159.962 121.701,159.982 121.675,160.003 121.675,160.003 121.65,160.022 121.625,160.041 121.6,160.06 121.575,160.079 121.549,160.098 121.523,160.116 121.497,160.135 121.471,160.153 121.471,160.153 121.446,160.17 121.42,160.187 121.394,160.204 121.368,160.22 121.342,160.236 121.315,160.253 121.289,160.268 121.262,160.284 121.262,160.284 121.236,160.299 121.209,160.314 121.183,160.329 121.156,160.343 121.129,160.357 121.102,160.371 121.075,160.385 121.048,160.398 121.048,160.398 121.021,160.411 120.993,160.424 120.966,160.437 120.938,160.449 120.91,160.461 120.883,160.472 120.855,160.484 120.827,160.495 120.827,160.495 120.798,160.506 120.77,160.517 120.742,160.527 120.714,160.537 120.685,160.548 120.656,160.557 120.628,160.567 120.599,160.576 120.599,160.576 120.57,160.585 120.54,160.593 120.511,160.602 120.481,160.61 120.452,160.618 120.422,160.626 120.393,160.633 120.363,160.64 120.363,160.64 120.333,160.647 120.302,160.654 120.272,160.661 120.241,160.667 120.211,160.673 120.18,160.679 120.149,160.684 120.119,160.689 120.119,160.689 120.087,160.695 120.055,160.7 120.024,160.704 119.992,160.709 119.96,160.713 119.929,160.717 119.897,160.72 119.865,160.724 119.865,160.724 119.799,160.73 119.732,160.736 119.665,160.74 119.599,160.744 119.532,160.747 119.465,160.749 119.399,160.75 119.332,160.75 118.006,160.75" fill="none" stroke="black" stroke-width="0.1"/>
        <polygon id="_132204712___0_0" points="74.1012,163.205 77.2056,163.205 77.2899,163.205 77.3741,163.204 77.4584,163.202 77.5427,163.199 77.627,163.195 77.7111,163.19 77.7953,163.185 77.8794,163.178 77.8794,163.178 77.9198,163.175 77.9601,163.171 78.0005,163.168 78.041,163.163 78.0812,163.159 78.1215,163.154 78.1618,163.149 78.2021,163.144 78.2021,163.144 78.2413,163.139 78.2804,163.134 78.3196,163.128 78.3587,163.122 78.3978,163.116 78.4369,163.109 78.4758,163.102 78.5148,163.096 78.5148,163.096 78.5528,163.088 78.5908,163.081 78.6289,163.074 78.6668,163.066 78.7047,163.058 78.7425,163.049 78.7803,163.041 78.818,163.032 78.818,163.032 78.855,163.023 78.892,163.014 78.9289,163.004 78.9657,162.995 79.0024,162.985 79.0391,162.975 79.0758,162.964 79.1124,162.953 79.1124,162.953 79.1485,162.942 79.1844,162.931 79.2202,162.92 79.256,162.908 79.2918,162.896 79.3275,162.884 79.363,162.872 79.3985,162.859 79.3985,162.859 79.4337,162.846 79.4687,162.833 79.5036,162.82 79.5386,162.806 79.5733,162.792 79.6079,162.778 79.6424,162.763 79.6768,162.749 79.6768,162.749 79.7112,162.734 79.7453,162.719 79.7795,162.703 79.8133,162.688 79.8472,162.672 79.8809,162.656 79.9146,162.639 79.9481,162.623 79.9481,162.623 79.9815,162.606 80.0147,162.588 80.048,162.571 80.0813,162.553 80.1142,162.535 80.1471,162.517 80.1799,162.498 80.2124,162.48 80.2124,162.48 80.2452,162.461 80.2779,162.441 80.3104,162.421 80.3428,162.402 80.375,162.382 80.4071,162.361 80.4391,162.34 80.4709,162.32 80.4709,162.32 80.503,162.298 80.5351,162.277 80.5668,162.255 80.5986,162.233 80.6301,162.211 80.6616,162.188 80.6927,162.165 80.7239,162.142 80.7239,162.142 80.7554,162.119 80.7869,162.095 80.8181,162.071 80.8492,162.047 80.8801,162.022 80.911,161.997 80.9416,161.972 80.972,161.947 80.972,161.947 81.003,161.921 81.0339,161.895 81.0646,161.869 81.0952,161.843 81.1257,161.816 81.1558,161.789 81.1859,161.762 81.2158,161.734 81.2158,161.734 81.2463,161.706 81.2768,161.678 81.3069,161.649 81.337,161.62 81.367,161.591 81.3967,161.562 81.4264,161.533 81.4558,161.503 81.4558,161.503 81.4859,161.472 81.5159,161.442 81.5457,161.411 81.5754,161.379 81.605,161.348 81.6344,161.317 81.6634,161.285 81.6925,161.253 81.6925,161.253 81.7224,161.22 81.7521,161.187 81.7816,161.153 81.811,161.12 81.8402,161.086 81.8692,161.052 81.8981,161.018 81.9267,160.984 81.9267,160.984 81.9564,160.948 81.9858,160.912 82.0151,160.877 82.0441,160.841 82.0731,160.805 82.1019,160.768 82.1305,160.732 82.1589,160.695 82.1589,160.695 82.1883,160.657 82.2176,160.619 82.2467,160.58 82.2757,160.542 82.3043,160.503 82.333,160.464 82.3614,160.426 82.3898,160.387 82.3898,160.387 82.419,160.346 82.4483,160.305 82.4772,160.265 82.506,160.224 82.5346,160.182 82.5631,160.141 82.5915,160.1 82.6197,160.058 82.6197,160.058 82.6489,160.015 82.678,159.971 82.7069,159.928 82.7356,159.885 82.7642,159.841 82.7927,159.797 82.8212,159.753 82.8494,159.709 82.8494,159.709 82.8786,159.663 82.9077,159.617 82.9367,159.571 82.9655,159.525 82.9941,159.479 83.0226,159.432 83.0511,159.386 83.0793,159.339 83.0793,159.339 83.1387,159.24 83.1974,159.141 83.2556,159.042 83.3134,158.942 83.3705,158.842 83.4272,158.742 83.4834,158.642 83.5392,158.541 85.5522,154.908 84.3246,152.551 84.415,152.534 84.5051,152.515 84.5951,152.496 84.6847,152.475 84.7741,152.452 84.863,152.429 84.9516,152.404 85.0399,152.378 85.0399,152.378 85.0819,152.365 85.1238,152.351 85.1655,152.338 85.2073,152.324 85.2488,152.31 85.2903,152.295 85.3317,152.28 85.3729,152.265 85.3729,152.265 85.4129,152.25 85.4527,152.235 85.4924,152.219 85.5321,152.203 85.5716,152.187 85.611,152.17 85.6502,152.153 85.6893,152.136 85.6893,152.136 85.7273,152.119 85.7654,152.101 85.8033,152.083 85.8409,152.065 85.8785,152.047 85.9159,152.028 85.9532,152.009 85.9902,151.99 85.9902,151.99 86.0266,151.971 86.0628,151.951 86.0988,151.932 86.1347,151.912 86.1706,151.891 86.2061,151.87 86.2416,151.85 86.2768,151.829 86.2768,151.829 86.3115,151.807 86.3461,151.786 86.3806,151.764 86.4148,151.742 86.4489,151.72 86.4828,151.697 86.5165,151.674 86.5501,151.651 86.5501,151.651 86.5833,151.628 86.6164,151.604 86.6493,151.581 86.6821,151.557 86.7146,151.533 86.747,151.508 86.7792,151.483 86.8113,151.458 86.8113,151.458 86.8432,151.433 86.875,151.408 86.9064,151.382 86.9379,151.356 86.9691,151.33 87.0001,151.304 87.031,151.277 87.0616,151.251 87.0616,151.251 87.0923,151.223 87.1228,151.196 87.153,151.168 87.1832,151.141 87.2132,151.113 87.243,151.085 87.2725,151.057 87.3019,151.028 87.3019,151.028 87.3315,150.999 87.361,150.97 87.3902,150.94 87.4192,150.911 87.4481,150.881 87.4768,150.851 87.5054,150.821 87.5337,150.791 87.5337,150.791 87.5624,150.76 87.5909,150.729 87.6191,150.698 87.6473,150.666 87.6752,150.635 87.7029,150.603 87.7305,150.571 87.758,150.539 87.758,150.539 87.7857,150.507 87.8133,150.474 87.8409,150.441 87.8682,150.408 87.8953,150.375 87.9223,150.341 87.9492,150.308 87.9759,150.274 87.9759,150.274 88.0029,150.24 88.0299,150.205 88.0566,150.171 88.0833,150.136 88.1099,150.101 88.1361,150.066 88.1624,150.031 88.1885,149.995 88.1885,149.995 88.215,149.959 88.2416,149.923 88.2678,149.887 88.2939,149.85 88.3201,149.814 88.3459,149.777 88.3717,149.74 88.3972,149.703 88.3972,149.703 88.4233,149.666 88.4494,149.628 88.4753,149.59 88.501,149.552 88.5267,149.513 88.5523,149.475 88.5777,149.437 88.603,149.398 88.603,149.398 88.6289,149.359 88.6547,149.319 88.6803,149.279 88.7058,149.24 88.7313,149.2 88.7567,149.16 88.7819,149.12 88.8071,149.08 88.8071,149.08 88.8329,149.039 88.8586,148.998 88.8841,148.957 88.9096,148.916 88.935,148.874 88.9603,148.833 88.9855,148.791 89.0106,148.75 89.0106,148.75 89.0364,148.707 89.0621,148.665 89.0877,148.622 89.1132,148.579 89.1387,148.536 89.1641,148.494 89.1895,148.451 89.2147,148.408 89.2147,148.408 89.2669,148.319 89.3189,148.229 89.3707,148.14 89.4223,148.05 89.4738,147.96 89.5251,147.87 89.5763,147.781 89.6273,147.691 94.9788,138.067 92.7201,133.748 87.5161,133.748 82.768,142.201 78.3059,150.146 76.8692,152.703 70.9702,163.205 74.1012,163.205 75.487,160.75 80.0041,152.748 81.477,150.146 89.2833,136.202 90.8055,136.202 91.8366,138.166 86.8284,147.15 86.7813,147.233 86.7337,147.316 86.6855,147.399 86.637,147.481 86.5881,147.564 86.5386,147.645 86.4885,147.727 86.4379,147.808 86.4379,147.808 86.4143,147.845 86.3906,147.882 86.3669,147.919 86.3429,147.957 86.3187,147.994 86.2945,148.03 86.2701,148.067 86.2454,148.104 86.2454,148.104 86.2222,148.138 86.1987,148.173 86.1753,148.207 86.1516,148.241 86.1277,148.275 86.1037,148.309 86.0794,148.343 86.0551,148.377 86.0551,148.377 86.032,148.408 86.0088,148.44 85.9854,148.471 85.9619,148.503 85.9381,148.534 85.9141,148.565 85.8901,148.596 85.8659,148.627 85.8659,148.627 85.8428,148.656 85.8197,148.685 85.7963,148.714 85.7727,148.742 85.749,148.771 85.7251,148.799 85.7011,148.827 85.6768,148.856 85.6768,148.856 85.6537,148.882 85.6302,148.908 85.6068,148.934 85.5831,148.96 85.5592,148.986 85.5352,149.012 85.511,149.037 85.4867,149.063 85.4867,149.063 85.4633,149.087 85.4399,149.111 85.4162,149.134 85.3923,149.158 85.3683,149.181 85.344,149.204 85.3196,149.227 85.295,149.25 85.295,149.25 85.2713,149.271 85.2473,149.293 85.2233,149.314 85.199,149.335 85.1746,149.356 85.15,149.376 85.1253,149.397 85.1004,149.417 85.1004,149.417 85.0762,149.436 85.0519,149.455 85.0274,149.474 85.0026,149.493 84.9777,149.511 84.9527,149.529 84.9275,149.547 84.9021,149.565 84.9021,149.565 84.8773,149.582 84.8523,149.599 84.8272,149.615 84.802,149.632 84.7765,149.648 84.751,149.664 84.7252,149.679 84.6992,149.694 84.6992,149.694 84.6737,149.709 84.648,149.724 84.6221,149.738 84.5961,149.752 84.57,149.766 84.5438,149.78 84.5174,149.793 84.4908,149.806 84.4908,149.806 84.4644,149.819 84.4377,149.831 84.411,149.843 84.3841,149.855 84.3573,149.867 84.3303,149.878 84.3031,149.89 84.2758,149.9 84.2758,149.9 84.2484,149.911 84.2208,149.922 84.1932,149.932 84.1653,149.942 84.1376,149.951 84.1095,149.961 84.0815,149.97 84.0534,149.979 84.0534,149.979 84.0248,149.987 83.9961,149.995 83.9675,150.004 83.9387,150.012 83.9098,150.019 83.8808,150.027 83.8519,150.034 83.8228,150.041 83.8228,150.041 83.793,150.047 83.7631,150.054 83.7333,150.06 83.7033,150.066 83.6732,150.072 83.6432,150.077 83.613,150.083 83.5829,150.088 83.5829,150.088 83.5517,150.093 83.5206,150.097 83.4894,150.102 83.4581,150.106 83.4269,150.11 83.3955,150.114 83.3641,150.117 83.3327,150.12 83.3327,150.12 83.2667,150.127 83.2006,150.132 83.1343,150.136 83.0681,150.14 83.0017,150.142 82.9355,150.144 82.8691,150.145 82.8027,150.146 81.477,150.146 80.0041,152.748 81.2314,152.748 82.4098,155.005 80.8883,157.755 80.8427,157.837 80.7964,157.918 80.7497,158.0 80.7026,158.08 80.6549,158.161 80.6065,158.241 80.5576,158.321 80.5081,158.401 80.5081,158.401 80.4848,158.438 80.4614,158.474 80.4378,158.511 80.4141,158.547 80.3904,158.584 80.3663,158.62 80.3422,158.656 80.3179,158.693 80.3179,158.693 80.2947,158.727 80.2713,158.761 80.2479,158.795 80.2242,158.829 80.2005,158.862 80.1764,158.896 80.1524,158.929 80.1281,158.963 80.1281,158.963 80.1048,158.994 80.0814,159.025 80.058,159.057 80.0341,159.088 80.0103,159.119 79.9862,159.15 79.9622,159.181 79.9378,159.211 79.9378,159.211 79.9143,159.24 79.8909,159.269 79.8672,159.298 79.8433,159.326 79.8193,159.355 79.7951,159.383 79.7707,159.411 79.7462,159.439 79.7462,159.439 79.7226,159.466 79.6988,159.492 79.6749,159.518 79.6507,159.544 79.6264,159.57 79.602,159.595 79.5773,159.621 79.5526,159.646 79.5526,159.646 79.5286,159.67 79.5045,159.694 79.4802,159.718 79.4558,159.742 79.4311,159.765 79.4064,159.788 79.3815,159.811 79.3563,159.834 79.3563,159.834 79.3318,159.856 79.3073,159.877 79.2826,159.899 79.2577,159.92 79.2326,159.941 79.2074,159.962 79.182,159.982 79.1565,160.003 79.1565,160.003 79.1316,160.022 79.1064,160.041 79.0812,160.06 79.0557,160.079 79.0302,160.098 79.0044,160.116 78.9785,160.135 78.9524,160.153 78.9524,160.153 78.9268,160.17 78.9011,160.187 78.8752,160.204 78.8491,160.22 78.823,160.236 78.7965,160.253 78.7701,160.268 78.7434,160.284 78.7434,160.284 78.717,160.299 78.6906,160.314 78.6639,160.329 78.6372,160.343 78.6104,160.357 78.5832,160.371 78.5562,160.385 78.5289,160.398 78.5289,160.398 78.5016,160.411 78.4743,160.424 78.4469,160.437 78.4193,160.449 78.3915,160.461 78.3638,160.472 78.3359,160.484 78.3078,160.495 78.3078,160.495 78.2796,160.506 78.2515,160.517 78.2231,160.527 78.1946,160.537 78.1661,160.548 78.1375,160.557 78.1087,160.567 78.0799,160.576 78.0799,160.576 78.0507,160.585 78.0214,160.593 77.992,160.602 77.9625,160.61 77.933,160.618 77.9034,160.626 77.8737,160.633 77.844,160.64 77.844,160.64 77.8138,160.647 77.7833,160.654 77.7529,160.661 77.7225,160.667 77.6919,160.673 77.6612,160.679 77.6306,160.684 77.5998,160.689 77.5998,160.689 77.5682,160.695 77.5366,160.7 77.505,160.704 77.4733,160.709 77.4416,160.713 77.4099,160.717 77.3782,160.72 77.3464,160.724 77.3464,160.724 77.2799,160.73 77.2133,160.736 77.1466,160.74 77.08,160.744 77.0133,160.747 76.9464,160.749 76.8796,160.75 76.8129,160.75 75.487,160.75" fill="none" stroke="black" stroke-width="0.1"/>
        <polygon id="center_00" cx="105.774" cy="148.5" points="117.6952,148.5 117.62989441906426,149.74610471630635 117.43469317786784,150.97855684857666 117.11173494205778,152.18385339334262 116.66455810964898,153.34878886943523 116.09806204359505,154.4606 115.41845339334263,155.50710554962905 114.63317809348112,156.47683978452523 113.75083978452523,157.35917809348112 112.78110554962903,158.14445339334262 111.7346,158.82406204359506 110.62278886943523,159.39055810964896 109.45785339334263,159.83773494205778 108.25255684857667,160.16069317786784 107.02010471630635,160.35589441906427 105.774,160.4212 104.52789528369365,160.35589441906427 103.29544315142333,160.16069317786784 102.09014660665738,159.83773494205778 100.92521113056478,159.39055810964896 99.8134,158.82406204359506 98.76689445037097,158.14445339334262 97.79716021547479,157.35917809348112 96.9148219065189,156.47683978452523 96.12954660665739,155.50710554962905 95.44993795640495,154.4606 94.88344189035102,153.34878886943523 94.43626505794222,152.18385339334262 94.11330682213216,150.9785568485767 93.91810558093574,149.74610471630635 93.8528,148.5 93.91810558093574,147.25389528369365 94.11330682213216,146.02144315142334 94.43626505794222,144.81614660665738 94.88344189035102,143.65121113056477 95.44993795640495,142.5394 96.12954660665737,141.49289445037098 96.91482190651888,140.52316021547477 97.79716021547478,139.64082190651888 98.76689445037097,138.85554660665738 99.8134,138.17593795640494 100.92521113056476,137.60944189035104 102.09014660665737,137.16226505794222 103.29544315142333,136.83930682213216 104.52789528369364,136.64410558093573 105.774,136.5788 107.02010471630635,136.64410558093573 108.25255684857666,136.83930682213216 109.45785339334262,137.16226505794222 110.62278886943523,137.60944189035104 111.7346,138.17593795640494 112.78110554962903,138.85554660665738 113.75083978452521,139.64082190651888 114.6331780934811,140.52316021547477 115.41845339334262,141.49289445037095 116.09806204359505,142.5394 116.66455810964897,143.65121113056477 117.11173494205778,144.81614660665738 117.43469317786784,146.0214431514233 117.62989441906426,147.25389528369365" fill="none" stroke="black" stroke-width="0.1"/>
        <polygon id="_131954472___1" points="137.352,153.73 138.678,153.73 136.32,163.206 139.267,163.206 141.525,153.582 141.594,153.568 141.662,153.553 141.731,153.537 141.799,153.521 141.867,153.503 141.935,153.485 142.003,153.466 142.07,153.445 142.07,153.445 142.103,153.435 142.136,153.425 142.169,153.414 142.202,153.403 142.235,153.392 142.268,153.381 142.3,153.369 142.333,153.357 142.59,153.255 142.622,153.241 142.653,153.227 142.685,153.213 142.716,153.198 142.748,153.183 142.779,153.168 142.81,153.153 142.841,153.138 142.841,153.138 142.873,153.122 142.904,153.106 142.935,153.09 142.965,153.073 142.996,153.057 143.027,153.04 143.058,153.023 143.088,153.006 143.088,153.006 143.119,152.988 143.149,152.97 143.18,152.952 143.21,152.933 143.24,152.915 143.27,152.896 143.3,152.877 143.33,152.857 143.33,152.857 143.36,152.838 143.391,152.818 143.421,152.797 143.451,152.777 143.481,152.756 143.51,152.735 143.54,152.714 143.569,152.693 143.569,152.693 143.599,152.671 143.629,152.649 143.659,152.626 143.688,152.604 143.717,152.581 143.747,152.558 143.776,152.535 143.805,152.511 143.805,152.511 143.834,152.487 143.864,152.462 143.893,152.438 143.923,152.413 143.952,152.387 143.981,152.362 144.01,152.337 144.038,152.311 144.038,152.311 144.068,152.285 144.097,152.258 144.126,152.231 144.155,152.204 144.184,152.176 144.213,152.149 144.242,152.121 144.27,152.094 144.27,152.094 144.299,152.064 144.328,152.035 144.358,152.006 144.387,151.976 144.415,151.947 144.444,151.917 144.472,151.887 144.501,151.857 144.501,151.857 144.53,151.825 144.559,151.793 144.588,151.761 144.617,151.729 144.646,151.697 144.674,151.665 144.703,151.632 144.731,151.6 144.731,151.6 144.76,151.566 144.789,151.531 144.819,151.497 144.847,151.463 144.876,151.428 144.905,151.393 144.933,151.358 144.961,151.323 144.961,151.323 144.991,151.286 145.02,151.249 145.049,151.212 145.078,151.175 145.107,151.138 145.136,151.1 145.164,151.063 145.193,151.025 145.193,151.025 145.222,150.986 145.252,150.946 145.281,150.906 145.31,150.866 145.339,150.826 145.368,150.786 145.397,150.746 145.426,150.706 145.426,150.706 145.455,150.663 145.485,150.621 145.515,150.578 145.544,150.536 145.574,150.493 145.603,150.45 145.632,150.407 145.661,150.364 145.661,150.364 145.691,150.319 145.721,150.274 145.751,150.228 145.781,150.183 145.81,150.137 145.84,150.092 145.869,150.046 145.899,150.0 145.899,150.0 145.929,149.952 145.959,149.903 145.99,149.855 146.02,149.807 146.05,149.758 146.08,149.709 146.11,149.661 146.14,149.612 146.14,149.612 146.203,149.508 146.265,149.403 146.327,149.298 146.389,149.193 146.45,149.088 146.511,148.983 146.571,148.876 146.631,148.771 152.67,137.968 150.461,133.748 145.403,133.748 128.857,163.206 132.0,163.206 138.726,151.275 147.171,136.202 148.546,136.202 149.479,138.017 143.734,148.279 143.687,148.363 143.639,148.445 143.591,148.528 143.542,148.61 143.494,148.692 143.444,148.774 143.394,148.856 143.343,148.937 143.343,148.937 143.32,148.974 143.296,149.011 143.272,149.048 143.248,149.085 143.224,149.122 143.2,149.159 143.176,149.196 143.151,149.233 143.151,149.233 143.128,149.267 143.104,149.302 143.081,149.336 143.057,149.37 143.033,149.404 143.009,149.438 142.985,149.472 142.961,149.506 142.961,149.506 142.938,149.537 142.914,149.569 142.891,149.601 142.867,149.632 142.844,149.663 142.82,149.694 142.796,149.725 142.771,149.756 142.771,149.756 142.748,149.785 142.725,149.814 142.702,149.843 142.678,149.871 142.654,149.9 142.631,149.928 142.607,149.957 142.582,149.985 142.582,149.985 142.559,150.011 142.536,150.037 142.512,150.064 142.489,150.089 142.465,150.116 142.441,150.141 142.417,150.167 142.392,150.192 142.392,150.192 142.369,150.216 142.345,150.24 142.321,150.263 142.298,150.287 142.274,150.31 142.25,150.333 142.225,150.356 142.201,150.379 142.201,150.379 142.177,150.4 142.153,150.422 142.129,150.443 142.105,150.464 142.08,150.485 142.056,150.505 142.031,150.526 142.006,150.546 142.006,150.546 141.982,150.565 141.957,150.584 141.933,150.603 141.908,150.622 141.883,150.64 141.858,150.658 141.833,150.676 141.808,150.694 141.808,150.694 141.783,150.711 141.758,150.728 141.733,150.744 141.707,150.761 141.682,150.777 141.656,150.793 141.631,150.808 141.605,150.824 141.605,150.824 141.579,150.838 141.554,150.853 141.528,150.867 141.502,150.881 141.476,150.895 141.449,150.909 141.423,150.922 141.396,150.935 141.396,150.935 141.37,150.948 141.343,150.96 141.316,150.973 141.29,150.985 141.263,150.996 141.236,151.008 141.209,151.019 141.181,151.03 141.181,151.03 141.154,151.04 141.126,151.051 141.099,151.061 141.071,151.071 141.043,151.08 141.015,151.09 140.987,151.099 140.959,151.108 140.959,151.108 140.93,151.116 140.902,151.125 140.873,151.133 140.844,151.141 140.815,151.148 140.786,151.156 140.757,151.163 140.728,151.17 140.728,151.17 140.699,151.177 140.669,151.183 140.639,151.189 140.609,151.195 140.579,151.201 140.549,151.207 140.518,151.212 140.488,151.217 140.488,151.217 140.457,151.222 140.426,151.226 140.395,151.231 140.364,151.235 140.332,151.239 140.301,151.243 140.27,151.246 140.238,151.25 140.238,151.25 140.172,151.256 140.106,151.261 140.04,151.265 139.974,151.269 139.907,151.271 139.841,151.273 139.775,151.274 139.708,151.275 138.726,151.275" fill="none" stroke="black" stroke-width="0.1"/>
        <polygon id="_131954472___1_1" points="214.978,153.73 216.303,153.73 213.946,163.206 216.892,163.206 219.151,153.582 219.219,153.568 219.288,153.553 219.357,153.537 219.425,153.521 219.493,153.503 219.561,153.485 219.629,153.466 219.696,153.445 219.696,153.445 219.729,153.435 219.762,153.425 219.795,153.414 219.828,153.403 219.861,153.392 219.893,153.381 219.926,153.369 219.959,153.357 220.216,153.255 220.247,153.241 220.279,153.227 220.311,153.213 220.342,153.198 220.374,153.183 220.405,153.168 220.436,153.153 220.467,153.138 220.467,153.138 220.498,153.122 220.529,153.106 220.56,153.09 220.591,153.073 220.622,153.057 220.653,153.04 220.683,153.023 220.714,153.006 220.714,153.006 220.745,152.988 220.775,152.97 220.806,152.952 220.836,152.933 220.866,152.915 220.896,152.896 220.926,152.877 220.956,152.857 220.956,152.857 220.986,152.838 221.017,152.818 221.047,152.797 221.077,152.777 221.106,152.756 221.136,152.735 221.166,152.714 221.195,152.693 221.195,152.693 221.225,152.671 221.255,152.649 221.284,152.626 221.314,152.604 221.343,152.581 221.373,152.558 221.402,152.535 221.431,152.511 221.431,152.511 221.46,152.487 221.49,152.462 221.519,152.438 221.549,152.413 221.578,152.387 221.607,152.362 221.635,152.337 221.664,152.311 221.664,152.311 221.694,152.285 221.723,152.258 221.752,152.231 221.781,152.204 221.81,152.176 221.839,152.149 221.867,152.121 221.896,152.094 221.896,152.094 221.925,152.064 221.954,152.035 221.983,152.006 222.012,151.976 222.041,151.947 222.07,151.917 222.098,151.887 222.127,151.857 222.127,151.857 222.156,151.825 222.185,151.793 222.214,151.761 222.243,151.729 222.272,151.697 222.3,151.665 222.329,151.632 222.357,151.6 222.357,151.6 222.386,151.566 222.415,151.531 222.444,151.497 222.473,151.463 222.502,151.428 222.531,151.393 222.559,151.358 222.587,151.323 222.587,151.323 222.617,151.286 222.646,151.249 222.675,151.212 222.704,151.175 222.733,151.138 222.762,151.1 222.79,151.063 222.819,151.025 222.819,151.025 222.848,150.986 222.878,150.946 222.907,150.906 222.936,150.866 222.965,150.826 222.994,150.786 223.023,150.746 223.051,150.706 223.051,150.706 223.081,150.663 223.111,150.621 223.141,150.578 223.17,150.536 223.199,150.493 223.229,150.45 223.258,150.407 223.286,150.364 223.286,150.364 223.317,150.319 223.347,150.274 223.377,150.228 223.406,150.183 223.436,150.137 223.466,150.092 223.495,150.046 223.524,150.0 223.524,150.0 223.555,149.952 223.585,149.903 223.616,149.855 223.646,149.807 223.676,149.758 223.706,149.709 223.736,149.661 223.765,149.612 223.765,149.612 223.829,149.508 223.891,149.403 223.953,149.298 224.015,149.193 224.076,149.088 224.137,148.983 224.197,148.876 224.257,148.771 230.296,137.968 228.087,133.748 223.029,133.748 206.483,163.206 209.625,163.206 216.352,151.275 224.797,136.202 226.172,136.202 227.105,138.017 221.36,148.279 221.313,148.363 221.265,148.445 221.217,148.528 221.168,148.61 221.119,148.692 221.07,148.774 221.02,148.856 220.969,148.937 220.969,148.937 220.946,148.974 220.922,149.011 220.898,149.048 220.874,149.085 220.85,149.122 220.826,149.159 220.801,149.196 220.777,149.233 220.777,149.233 220.753,149.267 220.73,149.302 220.707,149.336 220.683,149.37 220.659,149.404 220.635,149.438 220.611,149.472 220.587,149.506 220.587,149.506 220.563,149.537 220.54,149.569 220.517,149.601 220.493,149.632 220.469,149.663 220.446,149.694 220.422,149.725 220.397,149.756 220.397,149.756 220.374,149.785 220.351,149.814 220.327,149.843 220.304,149.871 220.28,149.9 220.256,149.928 220.232,149.957 220.208,149.985 220.208,149.985 220.185,150.011 220.162,150.037 220.138,150.064 220.115,150.089 220.091,150.116 220.067,150.141 220.042,150.167 220.018,150.192 220.018,150.192 219.995,150.216 219.971,150.24 219.947,150.263 219.923,150.287 219.899,150.31 219.875,150.333 219.851,150.356 219.826,150.379 219.826,150.379 219.803,150.4 219.779,150.422 219.755,150.443 219.731,150.464 219.706,150.485 219.682,150.505 219.657,150.526 219.632,150.546 219.632,150.546 219.608,150.565 219.583,150.584 219.559,150.603 219.534,150.622 219.509,150.64 219.484,150.658 219.459,150.676 219.434,150.694 219.434,150.694 219.409,150.711 219.384,150.728 219.359,150.744 219.333,150.761 219.308,150.777 219.282,150.793 219.257,150.808 219.231,150.824 219.231,150.824 219.205,150.838 219.179,150.853 219.154,150.867 219.128,150.881 219.101,150.895 219.075,150.909 219.049,150.922 219.022,150.935 219.022,150.935 218.996,150.948 218.969,150.96 218.942,150.973 218.916,150.985 218.889,150.996 218.862,151.008 218.834,151.019 218.807,151.03 218.807,151.03 218.78,151.04 218.752,151.051 218.725,151.061 218.697,151.071 218.669,151.08 218.641,151.09 218.613,151.099 218.585,151.108 218.585,151.108 218.556,151.116 218.528,151.125 218.499,151.133 218.47,151.141 218.441,151.148 218.412,151.156 218.383,151.163 218.354,151.17 218.354,151.17 218.324,151.177 218.295,151.183 218.265,151.189 218.235,151.195 218.205,151.201 218.175,151.207 218.144,151.212 218.114,151.217 218.114,151.217 218.083,151.222 218.052,151.226 218.021,151.231 217.99,151.235 217.958,151.239 217.927,151.243 217.896,151.246 217.864,151.25 217.864,151.25 217.798,151.256 217.732,151.261 217.666,151.265 217.6,151.269 217.533,151.271 217.467,151.273 217.4,151.274 217.334,151.275 216.352,151.275" fill="none" stroke="black" stroke-width="0.1"/>
        <polygon id="_132883608_1" points="52.7058,136.103 52.6352,136.114 52.5648,136.125 52.4944,136.136 52.4241,136.148 52.3538,136.16 52.2837,136.173 52.2136,136.186 52.1436,136.199 52.1436,136.199 52.1122,136.206 52.0808,136.212 52.0495,136.219 52.0182,136.226 51.987,136.232 51.9558,136.239 51.9247,136.247 51.8935,136.254 51.8935,136.254 51.8645,136.261 51.8357,136.268 51.8069,136.275 51.7782,136.283 51.7495,136.29 51.7209,136.298 51.6924,136.306 51.6639,136.314 51.6639,136.314 51.6373,136.322 51.6108,136.33 51.5842,136.338 51.5578,136.346 51.5314,136.354 51.5052,136.363 51.4789,136.372 51.4528,136.381 51.4528,136.381 51.4282,136.39 51.4037,136.399 51.3792,136.408 51.3549,136.417 51.3306,136.427 51.3064,136.436 51.2824,136.446 51.2584,136.456 51.2584,136.456 51.2356,136.466 51.2129,136.476 51.1902,136.486 51.1677,136.497 51.1453,136.507 51.123,136.518 51.1007,136.529 51.0787,136.541 51.0787,136.541 51.0573,136.552 51.036,136.563 51.015,136.575 50.9939,136.587 50.973,136.599 50.9523,136.611 50.9317,136.624 50.9113,136.636 50.9113,136.636 50.8911,136.649 50.8711,136.662 50.8513,136.675 50.8316,136.689 50.8121,136.702 50.7927,136.716 50.7734,136.73 50.7543,136.744 50.7543,136.744 50.7352,136.759 50.7163,136.773 50.6976,136.788 50.679,136.803 50.6605,136.818 50.6423,136.834 50.6241,136.849 50.6062,136.865 50.6062,136.865 50.5878,136.882 50.5698,136.898 50.5517,136.915 50.534,136.932 50.5164,136.949 50.4988,136.966 50.4815,136.983 50.4643,137.001 50.4643,137.001 50.4466,137.019 50.429,137.038 50.4115,137.057 50.3944,137.075 50.3772,137.094 50.3603,137.114 50.3435,137.133 50.3269,137.152 50.3269,137.152 50.3095,137.173 50.2922,137.194 50.2752,137.215 50.2582,137.236 50.2413,137.257 50.2247,137.278 50.2082,137.299 50.1918,137.321 50.1918,137.321 50.1745,137.344 50.1573,137.367 50.1403,137.39 50.1233,137.414 50.1066,137.437 50.0899,137.461 50.0733,137.484 50.0569,137.508 50.0569,137.508 50.0395,137.533 50.022,137.559 50.0049,137.585 49.9877,137.611 49.9707,137.637 49.9538,137.662 49.937,137.688 49.9203,137.714 49.9203,137.714 49.9024,137.743 49.8846,137.771 49.8669,137.799 49.8493,137.828 49.8317,137.856 49.8142,137.885 49.7969,137.913 49.7796,137.942 49.7796,137.942 49.7609,137.973 49.7424,138.004 49.7239,138.035 49.7056,138.066 49.6872,138.098 49.669,138.129 49.6508,138.16 49.6328,138.192 49.3176,138.755 45.0461,146.266 45.0118,146.328 44.9779,146.391 44.9445,146.454 44.9114,146.517 44.8789,146.58 44.8466,146.644 44.8152,146.708 44.7841,146.772 44.7841,146.772 44.77,146.802 44.7559,146.832 44.7421,146.862 44.7283,146.892 44.7148,146.922 44.7013,146.952 44.6881,146.983 44.6749,147.013 44.6749,147.013 44.6627,147.042 44.6506,147.071 44.6387,147.1 44.6269,147.129 44.6154,147.158 44.6039,147.187 44.5927,147.217 44.5819,147.246 44.5819,147.246 44.5716,147.274 44.5614,147.302 44.5516,147.331 44.5419,147.359 44.5323,147.387 44.5231,147.416 44.514,147.444 44.505,147.473 44.505,147.473 44.4968,147.5 44.4888,147.528 44.4809,147.555 44.4732,147.583 44.4659,147.611 44.4588,147.639 44.4519,147.667 44.4452,147.695 44.4452,147.695 44.4389,147.722 44.433,147.749 44.4272,147.777 44.4218,147.804 44.4166,147.831 44.4115,147.859 44.4069,147.886 44.4024,147.914 44.4024,147.914 44.3984,147.941 44.3945,147.968 44.3909,147.995 44.3876,148.022 44.3846,148.05 44.3819,148.077 44.3794,148.104 44.3773,148.132 44.3773,148.132 44.3754,148.159 44.3739,148.186 44.3726,148.213 44.3715,148.24 44.3708,148.267 44.3703,148.295 44.37,148.322 44.3702,148.349 44.3702,148.349 44.3706,148.377 44.3712,148.404 44.3723,148.431 44.3734,148.459 44.3751,148.486 44.3769,148.513 44.379,148.541 44.3814,148.568 44.3814,148.568 44.3842,148.596 44.3872,148.624 44.3905,148.652 44.394,148.68 44.3979,148.707 44.4021,148.735 44.4066,148.763 44.4112,148.791 44.4112,148.791 44.4164,148.819 44.4218,148.848 44.4276,148.876 44.4336,148.904 44.4398,148.933 44.4464,148.961 44.4533,148.989 44.4603,149.018 44.4603,149.018 44.4679,149.047 44.4758,149.076 44.484,149.106 44.4923,149.135 44.5011,149.164 44.5101,149.193 44.5192,149.222 44.5286,149.251 44.6166,149.492 44.6429,149.557 44.6702,149.621 44.6982,149.684 44.7272,149.748 44.7568,149.811 44.7873,149.873 44.8183,149.936 44.8499,149.998 45.9794,152.207 45.9992,152.246 46.0191,152.285 46.0387,152.324 46.0583,152.363 46.0777,152.403 46.0969,152.442 46.116,152.481 46.135,152.521 46.135,152.521 46.1439,152.54 46.1529,152.559 46.1618,152.578 46.1708,152.597 46.1796,152.616 46.1884,152.635 46.1972,152.654 46.2058,152.673 46.2058,152.673 46.2142,152.692 46.2227,152.711 46.231,152.729 46.2392,152.748 46.2474,152.767 46.2557,152.786 46.2637,152.805 46.2718,152.823 46.2718,152.823 46.2795,152.842 46.2873,152.86 46.295,152.879 46.3026,152.897 46.3103,152.916 46.3177,152.934 46.3252,152.953 46.3325,152.971 46.3325,152.971 46.3396,152.989 46.3468,153.008 46.3538,153.026 46.3608,153.044 46.3677,153.063 46.3745,153.081 46.3813,153.099 46.388,153.118 46.388,153.118 46.3945,153.136 46.401,153.154 46.4072,153.172 46.4135,153.19 46.4198,153.208 46.4259,153.226 46.4318,153.245 46.4378,153.263 46.4378,153.263 46.4436,153.281 46.4494,153.299 46.4551,153.317 46.4606,153.335 46.4661,153.353 46.4717,153.371 46.477,153.389 46.4823,153.407 46.4823,153.407 46.4873,153.425 46.4924,153.443 46.4973,153.461 46.5022,153.479 46.507,153.497 46.5116,153.515 46.5163,153.533 46.5209,153.552 46.5209,153.552 46.5252,153.569 46.5295,153.587 46.5337,153.606 46.5379,153.624 46.5419,153.642 46.5458,153.66 46.5497,153.678 46.5534,153.696 46.5534,153.696 46.557,153.714 46.5606,153.732 46.5642,153.75 46.5674,153.769 46.5707,153.787 46.574,153.805 46.577,153.823 46.58,153.841 46.58,153.841 46.583,153.86 46.5856,153.878 46.5885,153.896 46.591,153.914 46.5935,153.933 46.5959,153.951 46.5982,153.97 46.6004,153.988 46.6004,153.988 46.6025,154.006 46.6046,154.025 46.6065,154.043 46.6083,154.062 46.61,154.081 46.6116,154.099 46.6131,154.118 46.6144,154.136 46.6144,154.136 46.6158,154.155 46.617,154.174 46.618,154.193 46.6191,154.211 46.62,154.23 46.6207,154.249 46.6214,154.268 46.622,154.286 46.622,154.286 46.6225,154.306 46.6229,154.325 46.6232,154.344 46.6234,154.363 46.6235,154.382 46.6234,154.401 46.6234,154.42 46.6231,154.44 46.6231,154.44 46.6226,154.459 46.6222,154.479 46.6216,154.498 46.6208,154.518 46.6201,154.537 46.6192,154.557 46.6182,154.576 46.6171,154.596 46.6171,154.596 46.6159,154.616 46.6146,154.636 46.6131,154.656 46.6116,154.676 46.6098,154.696 46.6082,154.716 46.6062,154.735 46.6043,154.755 46.6043,154.755 46.6022,154.776 46.6,154.796 46.5976,154.817 46.5952,154.837 46.5927,154.858 46.5901,154.878 46.5873,154.899 46.5844,154.919 46.5844,154.919 46.5815,154.94 46.5783,154.962 46.575,154.983 46.5718,155.004 46.5683,155.025 46.5648,155.046 46.5612,155.067 46.5574,155.088 46.5574,155.088 46.5534,155.109 46.5494,155.131 46.5452,155.153 46.541,155.175 46.5367,155.196 46.5322,155.218 46.5276,155.239 46.523,155.261 46.523,155.261 46.5181,155.284 46.5131,155.306 46.5081,155.328 46.5028,155.351 46.4976,155.373 46.4923,155.395 46.4867,155.418 46.4812,155.44 46.4812,155.44 46.4754,155.463 46.4694,155.486 46.4633,155.509 46.4572,155.532 46.4509,155.556 46.4447,155.579 46.4382,155.602 46.4317,155.625 46.4317,155.625 46.4248,155.649 46.4178,155.673 46.4108,155.697 46.4036,155.721 46.3965,155.744 46.3892,155.768 46.3819,155.792 46.3744,155.816 46.3744,155.816 46.3665,155.841 46.3586,155.866 46.3505,155.891 46.3425,155.915 46.3343,155.94 46.3259,155.965 46.3176,155.989 46.3092,156.014 46.3092,156.014 46.3003,156.04 46.2913,156.066 46.2824,156.092 46.2733,156.117 46.264,156.143 46.2548,156.168 46.2454,156.194 46.236,156.22 46.236,156.22 46.226,156.247 46.216,156.273 46.206,156.3 46.1958,156.327 46.1857,156.354 46.1754,156.38 46.1651,156.407 46.1547,156.433 46.1547,156.433 46.1436,156.461 46.1326,156.489 46.1214,156.517 46.1102,156.545 46.099,156.572 46.0877,156.6 46.0762,156.628 46.0647,156.655 46.0647,156.655 46.0526,156.684 46.0405,156.713 46.0285,156.742 46.0162,156.771 46.0038,156.8 45.9915,156.828 45.9791,156.857 45.9665,156.886 45.9665,156.886 45.9534,156.916 45.9401,156.946 45.9269,156.976 45.9136,157.006 45.9002,157.036 45.8867,157.066 45.8732,157.096 45.8596,157.126 45.8596,157.126 45.8454,157.157 45.8311,157.189 45.8166,157.22 45.8021,157.251 45.7877,157.282 45.7732,157.314 45.7586,157.345 45.744,157.376 45.744,157.376 45.7286,157.408 45.7132,157.441 45.6977,157.473 45.6821,157.506 45.6665,157.539 45.6509,157.571 45.6352,157.603 45.6194,157.636 45.6194,157.636 45.6012,157.673 45.583,157.71 45.5648,157.748 45.5465,157.785 45.5281,157.822 45.5096,157.859 45.4911,157.896 45.4725,157.933 45.4725,157.933 45.4519,157.974 45.4311,158.015 45.4104,158.056 45.3897,158.097 45.3688,158.138 45.3479,158.179 45.3269,158.22 45.3058,158.261 45.3058,158.261 45.2831,158.304 45.2603,158.348 45.2373,158.392 45.2145,158.435 45.1914,158.479 45.1683,158.522 45.1452,158.566 45.1219,158.609 45.1219,158.609 45.0992,158.651 45.0764,158.693 45.0534,158.736 45.0304,158.778 45.0075,158.82 44.9842,158.861 44.9609,158.903 44.9376,158.945 44.9376,158.945 44.9148,158.986 44.892,159.026 44.8692,159.066 44.846,159.107 44.8229,159.147 44.7998,159.187 44.7765,159.228 44.7531,159.268 44.7531,159.268 44.7303,159.307 44.7073,159.346 44.6843,159.384 44.6612,159.423 44.6381,159.462 44.6148,159.501 44.5914,159.539 44.568,159.578 44.568,159.578 44.545,159.615 44.522,159.652 44.4989,159.69 44.4758,159.727 44.4525,159.764 44.4291,159.801 44.4055,159.838 44.3819,159.875 44.3819,159.875 44.3588,159.911 44.3357,159.947 44.3124,159.982 44.289,160.018 44.2656,160.053 44.242,160.089 44.2184,160.124 44.1947,160.16 44.1947,160.16 44.1715,160.194 44.1482,160.228 44.1246,160.262 44.1012,160.296 44.0775,160.33 44.0538,160.364 44.03,160.398 44.006,160.432 44.006,160.432 43.9826,160.465 43.9592,160.497 43.9356,160.53 43.9119,160.562 43.888,160.595 43.8641,160.627 43.84,160.66 43.8158,160.692 43.8158,160.692 43.7922,160.723 43.7685,160.754 43.7448,160.785 43.7208,160.816 43.6968,160.847 43.6726,160.878 43.6483,160.909 43.624,160.939 43.624,160.939 43.6001,160.969 43.5761,160.999 43.5521,161.028 43.5277,161.058 43.5036,161.087 43.4791,161.116 43.4545,161.146 43.4299,161.175 43.4299,161.175 43.4057,161.203 43.3814,161.231 43.3571,161.259 43.3326,161.287 43.308,161.315 43.2834,161.343 43.2585,161.37 43.2336,161.398 43.2336,161.398 43.2091,161.425 43.1845,161.452 43.1597,161.478 43.135,161.505 43.11,161.531 43.085,161.557 43.0598,161.584 43.0346,161.61 43.0346,161.61 43.0098,161.635 42.9849,161.66 42.9598,161.685 42.9348,161.71 42.9095,161.735 42.8842,161.76 42.8587,161.785 42.833,161.809 42.833,161.809 42.8078,161.833 42.7826,161.857 42.7571,161.881 42.7316,161.904 42.7059,161.928 42.6801,161.951 42.6543,161.974 42.6283,161.997 42.6283,161.997 42.6027,162.019 42.577,162.042 42.5512,162.064 42.5253,162.086 42.4993,162.108 42.4732,162.13 42.4469,162.152 42.4205,162.173 42.4205,162.173 42.3944,162.194 42.3683,162.215 42.3421,162.236 42.3157,162.257 42.2892,162.277 42.2627,162.298 42.236,162.318 42.2091,162.338 42.2091,162.338 42.1826,162.358 42.156,162.377 42.1293,162.397 42.1025,162.416 42.0755,162.435 42.0485,162.454 42.0213,162.473 41.994,162.491 41.994,162.491 41.967,162.51 41.9399,162.528 41.9127,162.546 41.8854,162.564 41.858,162.581 41.8304,162.599 41.8028,162.616 41.775,162.633 41.775,162.633 41.7474,162.65 41.7198,162.667 41.6921,162.684 41.6642,162.7 41.6363,162.717 41.6082,162.733 41.58,162.749 41.5519,162.764 41.5519,162.764 41.5237,162.78 41.4955,162.795 41.4671,162.81 41.4388,162.826 41.4103,162.841 41.3818,162.855 41.3531,162.87 41.3244,162.884 41.3244,162.884 41.2956,162.898 41.2668,162.912 41.2378,162.926 41.2089,162.94 41.1798,162.953 41.1507,162.967 41.1215,162.98 41.0922,162.993 41.0922,162.993 41.0628,163.006 41.0333,163.018 41.0038,163.031 40.9742,163.043 40.9445,163.055 40.9147,163.067 40.8849,163.079 40.855,163.091 40.855,163.091 40.8249,163.102 40.7948,163.113 40.7646,163.125 40.7343,163.136 40.7041,163.147 40.6738,163.157 40.6433,163.168 40.6129,163.178 40.6129,163.178 40.5822,163.188 40.5513,163.198 40.5204,163.208 40.4895,163.218 40.4585,163.227 40.4276,163.236 40.3965,163.245 40.3654,163.254 40.3654,163.254 40.3339,163.263 40.3025,163.272 40.2708,163.28 40.2392,163.289 40.2076,163.297 40.176,163.305 40.1442,163.313 40.1124,163.32 40.1124,163.32 40.0802,163.328 40.048,163.335 40.0156,163.342 39.9832,163.349 39.9508,163.356 39.9185,163.363 39.8861,163.369 39.8536,163.376 39.8536,163.376 39.8206,163.382 39.7875,163.388 39.7544,163.394 39.7214,163.399 39.6883,163.405 39.6552,163.411 39.6219,163.416 39.5888,163.421 39.5888,163.421 39.5549,163.426 39.5212,163.43 39.4873,163.435 39.4535,163.439 39.4195,163.444 39.3856,163.448 39.3517,163.452 39.3177,163.456 39.3177,163.456 39.283,163.459 39.2484,163.463 39.2136,163.466 39.179,163.469 39.1442,163.472 39.1096,163.475 39.0749,163.478 39.0401,163.48 39.0401,163.48 39.0046,163.483 38.9691,163.485 38.9336,163.487 38.8981,163.489 38.8626,163.491 38.8269,163.492 38.7914,163.494 38.7559,163.495 38.7559,163.495 38.7206,163.496 38.6852,163.497 38.6498,163.498 38.6143,163.499 38.579,163.499 38.5436,163.5 38.5083,163.5 38.4729,163.5 38.4729,163.5 38.4382,163.5 38.4034,163.499 38.3686,163.499 38.334,163.498 38.2993,163.498 38.2645,163.496 38.2299,163.495 38.1951,163.494 38.1951,163.494 38.1616,163.492 38.128,163.491 38.0944,163.489 38.061,163.486 38.0275,163.484 37.9941,163.482 37.9605,163.479 37.9271,163.476 37.9271,163.476 37.8943,163.473 37.8614,163.47 37.8286,163.466 37.7959,163.462 37.7631,163.459 37.7305,163.455 37.6978,163.45 37.6651,163.446 37.6651,163.446 37.6332,163.441 37.6013,163.437 37.5693,163.432 37.5374,163.426 37.5055,163.421 37.4737,163.415 37.4419,163.41 37.4102,163.404 37.4102,163.404 37.379,163.398 37.348,163.391 37.3169,163.385 37.2859,163.378 37.255,163.371 37.2241,163.364 37.1934,163.357 37.1627,163.35 37.1627,163.35 37.1325,163.342 37.1024,163.334 37.0724,163.326 37.0424,163.318 37.0126,163.31 36.9828,163.301 36.9529,163.292 36.9231,163.283 36.9231,163.283 36.8941,163.274 36.8651,163.265 36.8363,163.256 36.8073,163.246 36.7785,163.236 36.7499,163.226 36.7212,163.216 36.6926,163.205 36.6926,163.205 36.6647,163.195 36.6368,163.184 36.6091,163.173 36.5813,163.162 36.5537,163.151 36.5263,163.139 36.4988,163.127 36.4715,163.115 36.4715,163.115 36.4448,163.103 36.4181,163.091 36.3916,163.079 36.3652,163.066 36.3387,163.053 36.3125,163.04 36.2864,163.027 36.2604,163.013 36.2604,163.013 36.2349,163.0 36.2097,162.986 36.1843,162.972 36.1593,162.958 36.1344,162.944 36.1095,162.929 36.0847,162.914 36.0601,162.899 36.0601,162.899 36.0361,162.884 36.012,162.869 35.9883,162.854 35.9646,162.838 35.941,162.822 35.9176,162.806 35.8943,162.79 35.8712,162.773 35.8712,162.773 35.8485,162.757 35.826,162.74 35.8038,162.723 35.7816,162.706 35.7595,162.689 35.7377,162.671 35.7159,162.653 35.6944,162.636 35.6944,162.636 35.6733,162.618 35.6524,162.599 35.6316,162.581 35.611,162.562 35.5906,162.543 35.5703,162.524 35.5503,162.505 35.5305,162.486 35.5305,162.486 35.5109,162.466 35.4916,162.447 35.4725,162.427 35.4535,162.406 35.4349,162.386 35.4164,162.366 35.398,162.345 35.38,162.324 35.38,162.324 35.3621,162.303 35.3445,162.282 35.327,162.26 35.3099,162.238 35.2928,162.217 35.2761,162.195 35.2597,162.173 35.2435,162.15 35.2435,162.15 35.2274,162.128 35.2115,162.105 35.1959,162.082 35.1807,162.059 35.1654,162.036 35.1507,162.012 35.1361,161.988 35.1217,161.965 35.1217,161.965 35.1076,161.941 35.0935,161.916 35.0798,161.892 35.0664,161.867 35.0533,161.843 35.0404,161.818 35.0278,161.793 35.0154,161.767 35.0154,161.767 35.0031,161.742 34.9912,161.716 34.9794,161.69 34.9681,161.664 34.9569,161.638 34.9462,161.611 34.9356,161.585 34.9253,161.558 34.9253,161.558 34.9151,161.531 34.9051,161.504 34.8956,161.476 34.8862,161.449 34.8772,161.421 34.8684,161.393 34.8601,161.365 34.8519,161.337 34.8519,161.337 34.8438,161.309 34.8361,161.28 34.8286,161.251 34.8214,161.222 34.8147,161.193 34.8082,161.163 34.8019,161.134 34.7959,161.105 34.7959,161.105 34.7901,161.074 34.7846,161.044 34.7794,161.013 34.7746,160.983 34.77,160.952 34.7658,160.921 34.7618,160.891 34.7582,160.86 34.7582,160.86 34.7548,160.828 34.7515,160.796 34.7486,160.764 34.7461,160.732 34.7439,160.7 34.7419,160.668 34.7403,160.636 34.7389,160.604 34.7389,160.604 34.7379,160.57 34.7371,160.537 34.7369,160.503 34.7367,160.47 34.7369,160.437 34.7373,160.403 34.7382,160.37 34.7392,160.336 34.7392,160.336 34.7407,160.301 34.7425,160.266 34.7446,160.231 34.747,160.196 34.7497,160.161 34.7527,160.126 34.7559,160.092 34.7595,160.057 34.7595,160.057 34.7637,160.02 34.768,159.984 34.7728,159.947 34.7777,159.911 34.7829,159.874 34.7886,159.838 34.7944,159.802 34.8006,159.766 34.8006,159.766 34.8073,159.727 34.8144,159.69 34.8217,159.652 34.8295,159.614 34.8374,159.576 34.8456,159.538 34.8541,159.501 34.8629,159.463 34.8629,159.463 34.8725,159.423 34.8823,159.384 34.8924,159.345 34.9027,159.305 34.9135,159.266 34.9245,159.227 34.9357,159.188 34.9472,159.149 34.9472,159.149 34.9596,159.108 34.9723,159.067 34.9852,159.026 34.9985,158.985 35.0121,158.945 35.0258,158.904 35.0398,158.863 35.0542,158.823 35.0542,158.823 35.0695,158.78 35.085,158.738 35.101,158.696 35.1171,158.653 35.1335,158.611 35.1501,158.569 35.1671,158.527 35.1842,158.486 35.1842,158.486 35.2026,158.442 35.2212,158.398 35.2402,158.354 35.2593,158.31 35.2787,158.267 35.2984,158.223 35.3182,158.18 35.3383,158.137 35.3383,158.137 35.3824,158.044 35.4274,157.952 35.4734,157.861 35.5203,157.77 35.5682,157.68 35.617,157.59 35.6667,157.5 35.7171,157.411 37.0923,155.005 40.1855,155.005 37.8938,159.193 37.8868,159.209 37.8799,159.224 37.8731,159.24 37.8664,159.255 37.8596,159.271 37.8531,159.287 37.8467,159.303 37.8402,159.318 37.8402,159.318 37.8343,159.333 37.8283,159.349 37.8225,159.364 37.8167,159.379 37.811,159.394 37.8055,159.409 37.8001,159.424 37.7947,159.44 37.7947,159.44 37.7897,159.455 37.7848,159.469 37.78,159.484 37.7752,159.499 37.7706,159.513 37.7661,159.528 37.7616,159.543 37.7573,159.558 37.7573,159.558 37.7533,159.572 37.7494,159.586 37.7455,159.6 37.7418,159.614 37.7381,159.628 37.7346,159.643 37.731,159.657 37.7278,159.671 37.7278,159.671 37.7246,159.685 37.7216,159.698 37.7188,159.712 37.716,159.726 37.7133,159.739 37.7106,159.753 37.7081,159.767 37.7057,159.781 37.7057,159.781 37.7036,159.794 37.7015,159.807 37.6996,159.82 37.6976,159.833 37.6958,159.846 37.6942,159.86 37.6927,159.873 37.6912,159.886 37.6912,159.886 37.6899,159.899 37.6887,159.911 37.6876,159.924 37.6867,159.937 37.6858,159.949 37.6851,159.962 37.6845,159.975 37.6839,159.987 37.6839,159.987 37.6835,159.999 37.6832,160.012 37.683,160.024 37.683,160.036 37.683,160.048 37.6832,160.06 37.6835,160.072 37.6838,160.084 37.6838,160.084 37.6842,160.096 37.6848,160.108 37.6854,160.119 37.6861,160.131 37.687,160.142 37.6881,160.154 37.6893,160.166 37.6905,160.177 37.6905,160.177 37.6918,160.188 37.6932,160.199 37.6946,160.21 37.6961,160.221 37.6979,160.233 37.6997,160.244 37.7017,160.254 37.7037,160.266 37.7037,160.266 37.7058,160.276 37.7081,160.287 37.7105,160.297 37.7128,160.308 37.7154,160.318 37.7179,160.329 37.7208,160.339 37.7236,160.35 37.7236,160.35 37.7264,160.36 37.7296,160.37 37.7325,160.38 37.7358,160.39 37.7391,160.399 37.7425,160.409 37.7461,160.419 37.7497,160.429 37.7497,160.429 37.7533,160.439 37.757,160.448 37.7609,160.458 37.7649,160.467 37.7689,160.476 37.7731,160.486 37.7774,160.495 37.7819,160.504 37.7819,160.504 37.7864,160.513 37.7909,160.522 37.7955,160.531 37.8001,160.54 37.8049,160.548 37.8098,160.557 37.8149,160.566 37.82,160.574 37.82,160.574 37.825,160.583 37.8304,160.591 37.8356,160.6 37.8411,160.608 37.8467,160.616 37.8523,160.624 37.858,160.632 37.8638,160.64 37.8638,160.64 37.8696,160.648 37.8756,160.656 37.8817,160.664 37.8878,160.671 37.894,160.679 37.9004,160.686 37.9066,160.694 37.9132,160.701 37.9132,160.701 37.9198,160.709 37.9263,160.716 37.933,160.723 37.9399,160.73 37.9468,160.737 37.9536,160.744 37.9606,160.751 37.9678,160.757 37.9678,160.757 37.975,160.764 37.9823,160.771 37.9896,160.777 37.997,160.784 38.0046,160.79 38.0121,160.796 38.0197,160.803 38.0275,160.809 38.0275,160.809 38.0354,160.815 38.0433,160.821 38.0513,160.827 38.0594,160.833 38.0674,160.839 38.0757,160.844 38.0839,160.85 38.0922,160.855 38.0922,160.855 38.1007,160.861 38.1092,160.866 38.1179,160.872 38.1264,160.877 38.1352,160.882 38.1438,160.887 38.1528,160.892 38.1616,160.897 38.1616,160.897 38.1707,160.902 38.1798,160.906 38.1889,160.911 38.1981,160.916 38.2074,160.92 38.2166,160.925 38.2259,160.929 38.2353,160.933 38.2353,160.933 38.245,160.938 38.2547,160.942 38.2644,160.946 38.2741,160.95 38.2839,160.954 38.2938,160.958 38.3036,160.961 38.3134,160.965 38.3134,160.965 38.3236,160.968 38.3339,160.972 38.3442,160.975 38.3543,160.979 38.3648,160.982 38.3751,160.985 38.3854,160.988 38.3958,160.991 38.3958,160.991 38.4065,160.994 38.4171,160.997 38.4279,161.0 38.4386,161.002 38.4495,161.005 38.4602,161.008 38.4711,161.01 38.482,161.012 38.482,161.012 38.4932,161.015 38.5044,161.017 38.5156,161.019 38.5268,161.021 38.538,161.023 38.5493,161.025 38.5606,161.027 38.572,161.028 38.572,161.028 38.5836,161.03 38.5952,161.031 38.6069,161.033 38.6185,161.034 38.6302,161.036 38.6419,161.037 38.6536,161.038 38.6654,161.039 38.6654,161.039 38.6782,161.04 38.6909,161.041 38.7037,161.042 38.7165,161.042 38.7292,161.043 38.742,161.044 38.7549,161.044 38.7677,161.045 38.7677,161.045 38.7822,161.045 38.7965,161.045 38.811,161.045 38.8253,161.045 38.8398,161.045 38.8542,161.045 38.8685,161.044 38.883,161.044 38.883,161.044 38.8988,161.044 38.9146,161.043 38.9305,161.043 38.9463,161.042 38.9621,161.041 38.9777,161.041 38.9936,161.04 39.0094,161.039 39.0094,161.039 39.0256,161.038 39.0419,161.036 39.0582,161.035 39.0744,161.034 39.0907,161.032 39.1069,161.031 39.1232,161.029 39.1395,161.027 39.1395,161.027 39.1556,161.025 39.1715,161.024 39.1875,161.021 39.2036,161.019 39.2196,161.017 39.2355,161.015 39.2515,161.012 39.2675,161.01 39.2675,161.01 39.2833,161.007 39.2992,161.004 39.315,161.001 39.3309,160.998 39.3465,160.995 39.3623,160.992 39.3781,160.989 39.3938,160.986 39.3938,160.986 39.4095,160.982 39.4251,160.978 39.4407,160.975 39.4563,160.971 39.4718,160.967 39.4873,160.963 39.5029,160.959 39.5184,160.955 39.5184,160.955 39.5339,160.95 39.5494,160.946 39.5649,160.941 39.5803,160.937 39.5958,160.932 39.6112,160.927 39.6264,160.922 39.6417,160.917 39.6417,160.917 39.6571,160.911 39.6725,160.906 39.6878,160.9 39.7032,160.895 39.7184,160.889 39.7336,160.883 39.7489,160.877 39.7641,160.871 39.7641,160.871 39.7794,160.865 39.7947,160.859 39.8099,160.852 39.8251,160.846 39.8403,160.839 39.8554,160.832 39.8704,160.825 39.8855,160.818 39.8855,160.818 39.9009,160.811 39.9161,160.804 39.9313,160.796 39.9464,160.789 39.9614,160.781 39.9765,160.773 39.9914,160.765 40.0063,160.757 40.0063,160.757 40.0217,160.749 40.0369,160.741 40.052,160.732 40.0671,160.724 40.0821,160.715 40.0972,160.706 40.1121,160.697 40.127,160.688 40.127,160.688 40.1422,160.679 40.1575,160.669 40.1725,160.66 40.1876,160.65 40.2027,160.64 40.2176,160.63 40.2325,160.62 40.2474,160.61 40.2474,160.61 40.2628,160.6 40.278,160.589 40.2932,160.578 40.3083,160.567 40.3234,160.557 40.3383,160.546 40.3532,160.535 40.3681,160.523 40.3681,160.523 40.3835,160.512 40.3987,160.5 40.4141,160.488 40.4291,160.476 40.4442,160.464 40.4593,160.452 40.4742,160.44 40.4891,160.428 40.4891,160.428 40.5046,160.415 40.52,160.402 40.5353,160.389 40.5506,160.375 40.5658,160.362 40.5808,160.349 40.5959,160.336 40.611,160.322 40.611,160.322 40.6265,160.308 40.642,160.294 40.6575,160.28 40.6729,160.265 40.6881,160.251 40.7033,160.236 40.7185,160.222 40.7336,160.207 40.7336,160.207 40.7493,160.192 40.7649,160.176 40.7806,160.161 40.7961,160.145 40.8115,160.129 40.827,160.114 40.8422,160.098 40.8576,160.082 40.8576,160.082 40.8734,160.065 40.8892,160.049 40.905,160.032 40.9207,160.015 40.9363,159.998 40.9518,159.981 40.9674,159.964 40.9829,159.947 40.9829,159.947 40.999,159.929 41.0151,159.91 41.0311,159.892 41.0469,159.874 41.0627,159.856 41.0785,159.837 41.0942,159.819 41.1098,159.801 41.1098,159.801 41.1262,159.781 41.1425,159.762 41.1588,159.742 41.1749,159.723 41.191,159.703 41.2069,159.683 41.2229,159.663 41.2389,159.644 41.2389,159.644 41.2556,159.623 41.2721,159.602 41.2885,159.581 41.305,159.56 41.3214,159.539 41.3376,159.518 41.3539,159.497 41.37,159.475 41.37,159.475 41.3869,159.453 41.4037,159.431 41.4206,159.408 41.4373,159.386 41.454,159.363 41.4707,159.341 41.4873,159.318 41.5037,159.296 41.5037,159.296 41.521,159.272 41.5381,159.248 41.5553,159.224 41.5723,159.2 41.5893,159.176 41.6063,159.152 41.6232,159.128 41.64,159.104 41.64,159.104 41.6576,159.079 41.6752,159.053 41.6927,159.028 41.7101,159.003 41.7276,158.977 41.7449,158.952 41.7622,158.926 41.7794,158.9 41.7794,158.9 41.7974,158.873 41.8153,158.846 41.8332,158.82 41.8511,158.793 41.8689,158.766 41.8866,158.738 41.9044,158.711 41.922,158.684 41.922,158.684 41.9405,158.656 41.9588,158.627 41.9772,158.599 41.9954,158.57 42.0136,158.541 42.0318,158.513 42.05,158.484 42.068,158.455 42.068,158.455 42.087,158.425 42.1058,158.395 42.1246,158.365 42.1434,158.335 42.162,158.304 42.1806,158.274 42.1993,158.244 42.2178,158.214 42.2178,158.214 42.2372,158.182 42.2566,158.15 42.2758,158.118 42.2951,158.086 42.3143,158.054 42.3334,158.022 42.3525,157.99 42.3716,157.958 42.3716,157.958 42.412,157.89 42.4522,157.822 42.4921,157.754 42.532,157.685 42.5716,157.617 42.6112,157.548 42.6504,157.48 42.6896,157.411 43.1808,156.528 43.2148,156.464 43.2482,156.401 43.281,156.337 43.3132,156.273 43.3447,156.208 43.3756,156.143 43.4056,156.078 43.4348,156.012 43.4348,156.012 43.4479,155.982 43.4609,155.951 43.4737,155.921 43.4863,155.89 43.4987,155.859 43.5109,155.829 43.5228,155.798 43.5346,155.767 43.5346,155.767 43.5455,155.737 43.5561,155.708 43.5665,155.678 43.5767,155.649 43.5867,155.619 43.5964,155.59 43.6059,155.56 43.6152,155.53 43.6152,155.53 43.6237,155.502 43.632,155.474 43.6401,155.445 43.6478,155.416 43.6554,155.388 43.6628,155.359 43.6698,155.33 43.6766,155.302 43.6766,155.302 43.6829,155.274 43.6887,155.247 43.6944,155.219 43.6999,155.191 43.705,155.163 43.7099,155.136 43.7144,155.108 43.7187,155.08 43.7187,155.08 43.7226,155.053 43.7262,155.026 43.7294,154.999 43.7326,154.972 43.7353,154.945 43.7376,154.918 43.7399,154.891 43.7417,154.863 43.7417,154.863 43.7432,154.837 43.7444,154.811 43.7452,154.784 43.7458,154.758 43.7461,154.731 43.7461,154.705 43.7458,154.678 43.7452,154.652 43.7452,154.652 43.7444,154.626 43.7432,154.6 43.7417,154.574 43.7399,154.548 43.7378,154.522 43.7354,154.496 43.7326,154.47 43.7296,154.444 43.7296,154.444 43.7263,154.418 43.7226,154.392 43.7187,154.367 43.7144,154.341 43.7099,154.315 43.705,154.29 43.6999,154.264 43.6945,154.238 43.6945,154.238 43.6887,154.213 43.6826,154.187 43.6762,154.161 43.6696,154.136 43.6626,154.111 43.6553,154.085 43.6478,154.06 43.6401,154.035 43.4751,153.631 42.3458,151.422 42.3045,151.34 42.2637,151.258 42.2239,151.176 42.1847,151.093 42.1463,151.01 42.1089,150.926 42.0722,150.843 42.0364,150.758 42.0364,150.758 42.0194,150.717 42.0025,150.677 41.986,150.635 41.9697,150.594 41.9536,150.553 41.9376,150.512 41.922,150.47 41.9066,150.429 41.9066,150.429 41.8917,150.388 41.8771,150.347 41.8626,150.306 41.8484,150.266 41.8345,150.225 41.8208,150.183 41.8074,150.142 41.7943,150.101 41.7943,150.101 41.7816,150.06 41.7692,150.02 41.757,149.979 41.745,149.939 41.7334,149.898 41.7219,149.857 41.7107,149.816 41.6998,149.775 41.6998,149.775 41.6894,149.734 41.6793,149.694 41.6694,149.654 41.6599,149.613 41.6505,149.572 41.6414,149.532 41.6326,149.491 41.6241,149.45 41.6241,149.45 41.616,149.41 41.6081,149.37 41.6005,149.329 41.5933,149.289 41.5863,149.248 41.5796,149.208 41.5732,149.167 41.5671,149.127 41.5671,149.127 41.5612,149.087 41.5557,149.046 41.5507,149.006 41.5457,148.966 41.5411,148.925 41.5368,148.885 41.5329,148.845 41.5292,148.804 41.5292,148.804 41.5257,148.764 41.5228,148.724 41.5201,148.683 41.5175,148.643 41.5155,148.603 41.5137,148.563 41.5122,148.522 41.511,148.482 41.511,148.482 41.5101,148.442 41.5096,148.402 41.5093,148.362 41.5095,148.321 41.5098,148.281 41.5105,148.241 41.5116,148.201 41.5129,148.161 41.5129,148.161 41.5146,148.12 41.5166,148.08 41.5189,148.04 41.5216,148.0 41.5246,147.96 41.5278,147.92 41.5314,147.879 41.5353,147.839 41.5353,147.839 41.5396,147.799 41.5442,147.759 41.5492,147.718 41.5544,147.678 41.5599,147.638 41.5657,147.598 41.572,147.558 41.5786,147.518 41.5786,147.518 41.5854,147.477 41.5927,147.437 41.6003,147.397 41.6082,147.357 41.6164,147.316 41.6249,147.276 41.6339,147.236 41.643,147.196 41.643,147.196 41.6527,147.156 41.6627,147.115 41.673,147.075 41.6836,147.034 41.6946,146.994 41.7058,146.954 41.7174,146.914 41.7292,146.874 41.7292,146.874 41.7418,146.833 41.7544,146.792 41.7676,146.752 41.781,146.711 41.7947,146.671 41.8087,146.631 41.8231,146.591 41.8377,146.551 41.8377,146.551 41.8529,146.51 41.8686,146.469 41.8844,146.428 41.9006,146.388 41.917,146.347 41.9339,146.307 41.9511,146.267 41.9684,146.227 41.9684,146.227 42.0054,146.144 42.0437,146.061 42.0831,145.979 42.1237,145.898 42.1653,145.817 42.2079,145.737 42.2518,145.657 42.2966,145.578 47.6978,136.496 47.7458,136.415 47.7952,136.335 47.8458,136.255 47.8975,136.177 47.9506,136.099 48.0049,136.022 48.0604,135.946 48.1173,135.871 48.1173,135.871 48.1452,135.835 48.1734,135.799 48.2019,135.764 48.2307,135.729 48.2596,135.693 48.289,135.659 48.3187,135.624 48.3485,135.59 48.3485,135.59 48.3782,135.557 48.408,135.524 48.4382,135.491 48.4686,135.458 48.4992,135.426 48.5301,135.394 48.5612,135.362 48.5927,135.33 48.5927,135.33 48.6239,135.299 48.6554,135.269 48.687,135.239 48.7189,135.209 48.7511,135.179 48.7837,135.149 48.8163,135.12 48.8492,135.091 48.8492,135.091 48.8818,135.063 48.9148,135.035 48.9479,135.007 48.9812,134.98 49.0149,134.952 49.0486,134.925 49.0826,134.899 49.1169,134.872 49.1169,134.872 49.1511,134.846 49.1854,134.821 49.22,134.795 49.2548,134.77 49.2897,134.745 49.3249,134.721 49.3602,134.696 49.3957,134.672 49.3957,134.672 49.4313,134.649 49.4669,134.625 49.5029,134.602 49.5388,134.58 49.5751,134.557 49.6115,134.535 49.648,134.513 49.6847,134.491 49.6847,134.491 49.7216,134.47 49.7584,134.449 49.7956,134.428 49.8328,134.407 49.8701,134.387 49.9077,134.367 49.9455,134.347 49.9832,134.328 49.9832,134.328 50.0213,134.308 50.0593,134.29 50.0976,134.271 50.136,134.252 50.1745,134.234 50.2131,134.216 50.2519,134.199 50.2907,134.181 50.2907,134.181 50.3298,134.164 50.369,134.147 50.4084,134.131 50.4478,134.114 50.4873,134.098 50.527,134.082 50.5667,134.067 50.6065,134.052 50.6065,134.052 50.6466,134.036 50.6869,134.021 50.7272,134.007 50.7676,133.992 50.808,133.978 50.8486,133.964 50.8893,133.951 50.9301,133.937 50.9301,133.937 50.9711,133.924 51.0121,133.911 51.0533,133.898 51.0946,133.886 51.1359,133.874 51.1774,133.862 51.2189,133.85 51.2605,133.838 51.2605,133.838 51.3024,133.827 51.3443,133.815 51.3864,133.805 51.4285,133.794 51.4705,133.783 51.5128,133.773 51.555,133.763 51.5973,133.753 51.5973,133.753 51.64,133.744 51.6827,133.734 51.7255,133.725 51.7683,133.716 51.8111,133.707 51.8541,133.699 51.8971,133.69 51.94,133.682 52.2878,133.624 52.3316,133.617 52.3756,133.611 52.4195,133.605 52.4635,133.599 52.5076,133.593 52.5517,133.588 52.5958,133.583 52.6398,133.578 52.6398,133.578 52.6843,133.573 52.7287,133.568 52.7732,133.563 52.8178,133.559 52.8622,133.554 52.9069,133.55 52.9513,133.547 52.9959,133.543 52.9959,133.543 53.0408,133.539 53.0857,133.536 53.1306,133.533 53.1755,133.53 53.2204,133.527 53.2653,133.524 53.3104,133.521 53.3553,133.519 53.3553,133.519 53.4458,133.515 53.5365,133.511 53.6271,133.508 53.7178,133.505 53.8083,133.503 53.8991,133.502 53.9898,133.501 54.0805,133.501 54.522,133.501 56.7809,137.822 51.8709,146.561 48.7777,146.561 53.6384,137.92" fill="none" stroke="black" stroke-width="0.1"/>
        <polygon id="_132511232" points="60.8065,152.747 62.1323,150.342 59.2849,150.342 65.5203,136.201 70.0864,136.201 71.4614,133.747 63.6545,133.747 56.2407,150.342 54.522,150.342 47.305,163.206 54.915,163.206 56.2892,160.751 51.8222,160.751 56.3387,152.747" fill="none" stroke="black" stroke-width="0.1"/>
        <polygon id="_131839120" points="79.5627,133.747 76.4691,133.747 59.9229,163.206 67.2386,163.206 68.6134,160.751 64.391,160.751" fill="none" stroke="black" stroke-width="0.1"/>
        <polygon id="_131531760" points="99.1527,152.747 100.479,150.342 97.6305,150.342 103.817,136.201 108.432,136.201 109.807,133.747 102.0,133.747 94.5869,150.342 92.8681,150.342 85.6509,163.206 93.2612,163.206 94.636,160.751 90.1187,160.751 94.636,152.747" fill="none" stroke="black" stroke-width="0.1"/>
        <polygon id="_131379720_1" points="149.233,158.934 163.324,133.748 160.183,133.748 146.925,157.412 146.882,157.492 146.84,157.571 146.798,157.652 146.758,157.732 146.718,157.813 146.678,157.895 146.64,157.976 146.602,158.058 146.602,158.058 146.584,158.097 146.566,158.136 146.549,158.175 146.532,158.214 146.516,158.253 146.499,158.292 146.482,158.331 146.466,158.37 146.466,158.37 146.451,158.408 146.435,158.445 146.421,158.483 146.406,158.521 146.391,158.559 146.377,158.597 146.362,158.635 146.348,158.673 146.348,158.673 146.335,158.709 146.322,158.746 146.309,158.782 146.297,158.819 146.284,158.856 146.272,158.892 146.26,158.929 146.248,158.966 146.248,158.966 146.237,159.001 146.226,159.037 146.215,159.072 146.205,159.108 146.194,159.143 146.184,159.179 146.174,159.214 146.165,159.25 146.165,159.25 146.155,159.285 146.147,159.319 146.138,159.353 146.129,159.387 146.121,159.422 146.113,159.456 146.105,159.491 146.098,159.525 146.098,159.525 146.091,159.558 146.084,159.591 146.077,159.625 146.071,159.658 146.065,159.691 146.058,159.724 146.053,159.757 146.047,159.791 146.047,159.791 146.042,159.823 146.037,159.855 146.033,159.887 146.028,159.919 146.024,159.951 146.02,159.983 146.016,160.015 146.012,160.047 146.012,160.047 146.009,160.078 146.006,160.109 146.003,160.14 146.001,160.171 145.999,160.202 145.996,160.233 145.994,160.264 145.993,160.295 145.993,160.295 145.991,160.324 145.99,160.354 145.989,160.384 145.989,160.414 145.988,160.443 145.988,160.473 145.988,160.503 145.988,160.533 145.988,160.533 145.989,160.561 145.99,160.59 145.991,160.619 145.992,160.647 145.993,160.676 145.995,160.704 145.997,160.733 145.999,160.762 145.999,160.762 146.001,160.789 146.003,160.817 146.006,160.844 146.009,160.872 146.012,160.899 146.016,160.927 146.019,160.954 146.023,160.981 146.023,160.981 146.027,161.008 146.031,161.034 146.035,161.06 146.04,161.087 146.045,161.113 146.05,161.139 146.055,161.166 146.061,161.192 146.061,161.192 146.066,161.217 146.072,161.243 146.078,161.268 146.085,161.293 146.091,161.318 146.098,161.343 146.105,161.368 146.112,161.393 146.112,161.393 146.12,161.417 146.127,161.442 146.135,161.466 146.143,161.49 146.151,161.514 146.159,161.537 146.168,161.561 146.177,161.585 146.177,161.585 146.186,161.608 146.195,161.631 146.204,161.654 146.214,161.677 146.223,161.7 146.233,161.723 146.243,161.745 146.254,161.768 146.254,161.768 146.264,161.79 146.275,161.812 146.286,161.834 146.297,161.856 146.308,161.877 146.319,161.899 146.331,161.92 146.343,161.942 146.343,161.942 146.355,161.963 146.367,161.983 146.379,162.004 146.392,162.025 146.404,162.045 146.417,162.066 146.43,162.086 146.444,162.106 146.444,162.106 146.457,162.126 146.471,162.146 146.484,162.165 146.498,162.185 146.512,162.204 146.527,162.224 146.541,162.243 146.556,162.262 146.556,162.262 146.571,162.28 146.586,162.299 146.601,162.317 146.616,162.336 146.632,162.354 146.647,162.372 146.663,162.39 146.679,162.408 146.679,162.408 146.695,162.425 146.711,162.443 146.728,162.46 146.744,162.477 146.761,162.494 146.778,162.511 146.795,162.528 146.813,162.544 146.813,162.544 146.83,162.561 146.848,162.577 146.866,162.593 146.883,162.61 146.901,162.625 146.92,162.641 146.938,162.657 146.956,162.672 146.956,162.672 146.975,162.687 146.994,162.703 147.013,162.718 147.032,162.733 147.051,162.747 147.071,162.762 147.09,162.776 147.11,162.791 147.11,162.791 147.13,162.805 147.15,162.819 147.17,162.833 147.19,162.846 147.211,162.86 147.231,162.873 147.252,162.887 147.272,162.9 147.272,162.9 147.293,162.913 147.315,162.926 147.336,162.939 147.357,162.951 147.379,162.964 147.4,162.976 147.422,162.988 147.444,163.0 147.444,163.0 147.466,163.012 147.488,163.024 147.511,163.035 147.533,163.047 147.556,163.058 147.578,163.069 147.601,163.08 147.624,163.091 147.624,163.091 147.647,163.102 147.67,163.112 147.694,163.123 147.717,163.133 147.741,163.144 147.764,163.154 147.788,163.163 147.812,163.173 147.812,163.173 147.836,163.183 147.86,163.192 147.885,163.201 147.909,163.21 147.934,163.219 147.958,163.228 147.983,163.237 148.007,163.245 148.007,163.245 148.033,163.254 148.058,163.262 148.083,163.271 148.108,163.279 148.134,163.286 148.159,163.294 148.185,163.302 148.21,163.309 148.21,163.309 148.236,163.316 148.262,163.324 148.288,163.331 148.315,163.338 148.341,163.344 148.367,163.351 148.393,163.357 148.42,163.363 148.42,163.363 148.446,163.37 148.474,163.376 148.5,163.382 148.527,163.387 148.554,163.393 148.582,163.398 148.608,163.404 148.636,163.409 148.636,163.409 148.663,163.414 148.691,163.419 148.719,163.424 148.747,163.428 148.774,163.433 148.802,163.437 148.83,163.441 148.858,163.445 148.858,163.445 148.886,163.449 148.915,163.453 148.943,163.456 148.971,163.46 149.0,163.463 149.028,163.466 149.057,163.47 149.085,163.472 149.085,163.472 149.114,163.475 149.143,163.478 149.173,163.48 149.202,163.483 149.231,163.485 149.26,163.487 149.289,163.489 149.318,163.491 149.318,163.491 149.348,163.492 149.379,163.494 149.409,163.495 149.439,163.496 149.469,163.497 149.5,163.498 149.53,163.499 149.56,163.5 149.56,163.5 149.592,163.5 149.623,163.5 149.655,163.501 149.686,163.501 149.718,163.5 149.749,163.5 149.781,163.5 149.812,163.499 149.812,163.499 149.845,163.499 149.877,163.498 149.909,163.497 149.941,163.496 149.974,163.495 150.006,163.494 150.038,163.493 150.07,163.491 150.07,163.491 150.102,163.489 150.135,163.488 150.167,163.486 150.199,163.484 150.231,163.481 150.263,163.479 150.295,163.476 150.327,163.474 150.327,163.474 150.358,163.471 150.39,163.468 150.421,163.465 150.452,163.462 150.483,163.459 150.515,163.455 150.546,163.452 150.577,163.448 150.577,163.448 150.607,163.444 150.638,163.44 150.668,163.436 150.699,163.432 150.729,163.427 150.76,163.423 150.79,163.418 150.821,163.413 150.821,163.413 150.85,163.408 150.88,163.403 150.91,163.398 150.94,163.393 150.969,163.387 150.999,163.381 151.029,163.376 151.058,163.37 151.058,163.37 151.087,163.364 151.116,163.358 151.145,163.351 151.174,163.345 151.203,163.338 151.232,163.331 151.261,163.324 151.29,163.317 151.29,163.317 151.318,163.31 151.347,163.303 151.375,163.296 151.403,163.288 151.432,163.281 151.46,163.273 151.488,163.265 151.516,163.257 151.516,163.257 151.544,163.248 151.572,163.24 151.599,163.232 151.627,163.223 151.655,163.214 151.682,163.205 151.71,163.196 151.737,163.187 151.737,163.187 151.764,163.178 151.791,163.168 151.819,163.158 151.846,163.149 151.873,163.139 151.9,163.129 151.926,163.118 151.953,163.108 151.953,163.108 151.98,163.098 152.006,163.087 152.033,163.076 152.059,163.065 152.086,163.054 152.112,163.043 152.138,163.032 152.165,163.02 152.165,163.02 152.191,163.009 152.217,162.997 152.243,162.985 152.268,162.973 152.294,162.961 152.32,162.949 152.346,162.937 152.371,162.924 152.371,162.924 152.397,162.911 152.423,162.899 152.448,162.886 152.473,162.872 152.499,162.859 152.524,162.846 152.549,162.832 152.574,162.819 152.574,162.819 152.599,162.805 152.624,162.791 152.649,162.777 152.674,162.762 152.699,162.748 152.724,162.734 152.748,162.719 152.773,162.704 152.773,162.704 152.797,162.689 152.822,162.674 152.846,162.659 152.871,162.644 152.895,162.628 152.92,162.613 152.944,162.597 152.968,162.581 152.968,162.581 152.992,162.565 153.016,162.549 153.04,162.532 153.064,162.516 153.088,162.499 153.112,162.483 153.136,162.466 153.16,162.449 153.16,162.449 153.183,162.431 153.207,162.414 153.231,162.397 153.255,162.379 153.278,162.361 153.302,162.344 153.325,162.326 153.348,162.308 153.348,162.308 153.372,162.289 153.395,162.271 153.418,162.252 153.442,162.233 153.465,162.214 153.488,162.196 153.511,162.177 153.534,162.157 153.534,162.157 153.557,162.138 153.58,162.118 153.604,162.098 153.626,162.079 153.649,162.059 153.672,162.039 153.695,162.018 153.717,161.998 153.717,161.998 153.74,161.977 153.763,161.956 153.786,161.936 153.809,161.915 153.831,161.894 153.854,161.872 153.876,161.851 153.898,161.83 153.898,161.83 153.921,161.808 153.944,161.786 153.966,161.764 153.988,161.742 154.011,161.719 154.033,161.697 154.055,161.675 154.077,161.652 154.077,161.652 154.1,161.629 154.122,161.606 154.145,161.583 154.167,161.56 154.189,161.536 154.211,161.513 154.233,161.489 154.255,161.466 154.255,161.466 154.277,161.441 154.299,161.417 154.321,161.393 154.343,161.368 154.365,161.344 154.387,161.319 154.409,161.295 154.431,161.27 154.431,161.27 154.453,161.244 154.475,161.219 154.497,161.193 154.519,161.168 154.54,161.142 154.562,161.117 154.584,161.091 154.605,161.065 154.605,161.065 154.627,161.038 154.649,161.012 154.671,160.985 154.693,160.958 154.714,160.932 154.736,160.905 154.758,160.878 154.779,160.851 154.779,160.851 154.801,160.823 154.823,160.795 154.845,160.768 154.866,160.74 154.888,160.712 154.909,160.684 154.931,160.656 154.952,160.628 154.952,160.628 154.974,160.599 154.996,160.57 155.018,160.541 155.039,160.512 155.061,160.483 155.082,160.453 155.104,160.424 155.125,160.395 155.125,160.395 155.147,160.365 155.169,160.335 155.19,160.305 155.212,160.274 155.234,160.244 155.255,160.214 155.277,160.184 155.298,160.153 155.298,160.153 155.32,160.122 155.342,160.091 155.363,160.059 155.385,160.028 155.406,159.997 155.428,159.965 155.45,159.934 155.471,159.902 155.471,159.902 155.493,159.87 155.515,159.837 155.536,159.805 155.558,159.772 155.58,159.74 155.601,159.707 155.623,159.674 155.644,159.642 155.644,159.642 155.666,159.608 155.688,159.575 155.71,159.541 155.732,159.507 155.754,159.474 155.775,159.44 155.797,159.406 155.818,159.372 155.818,159.372 155.84,159.337 155.863,159.303 155.885,159.268 155.906,159.233 155.928,159.198 155.95,159.163 155.972,159.128 155.994,159.093 155.994,159.093 156.016,159.057 156.038,159.021 156.06,158.985 156.082,158.949 156.104,158.913 156.126,158.877 156.148,158.841 156.17,158.805 156.17,158.805 156.192,158.767 156.215,158.73 156.237,158.693 156.259,158.656 156.282,158.619 156.304,158.581 156.326,158.544 156.348,158.507 156.348,158.507 156.371,158.468 156.393,158.43 156.416,158.392 156.438,158.353 156.461,158.315 156.483,158.276 156.506,158.238 156.528,158.199 156.528,158.199 156.574,158.12 156.62,158.04 156.666,157.96 156.711,157.88 156.757,157.8 156.802,157.72 156.848,157.64 156.893,157.559 170.247,133.748 167.105,133.748 153.849,157.412 153.808,157.482 153.767,157.551 153.726,157.621 153.684,157.69 153.643,157.76 153.602,157.829 153.56,157.899 153.518,157.968 153.518,157.968 153.498,158.0 153.479,158.033 153.459,158.065 153.439,158.097 153.42,158.13 153.4,158.162 153.38,158.195 153.36,158.227 153.36,158.227 153.341,158.257 153.322,158.288 153.303,158.319 153.284,158.35 153.265,158.38 153.246,158.411 153.226,158.442 153.207,158.472 153.207,158.472 153.189,158.501 153.17,158.53 153.152,158.559 153.133,158.588 153.115,158.617 153.096,158.646 153.078,158.675 153.059,158.704 153.059,158.704 153.041,158.731 153.024,158.759 153.006,158.786 152.988,158.813 152.97,158.841 152.952,158.868 152.934,158.895 152.916,158.922 152.916,158.922 152.898,158.948 152.881,158.974 152.864,159.0 152.846,159.025 152.829,159.051 152.811,159.077 152.794,159.103 152.776,159.128 152.776,159.128 152.759,159.153 152.742,159.177 152.726,159.201 152.709,159.225 152.692,159.249 152.675,159.273 152.658,159.298 152.641,159.322 152.641,159.322 152.624,159.344 152.608,159.367 152.591,159.39 152.575,159.412 152.558,159.435 152.542,159.458 152.525,159.48 152.508,159.503 152.508,159.503 152.492,159.524 152.476,159.545 152.46,159.567 152.444,159.588 152.428,159.609 152.412,159.63 152.396,159.651 152.379,159.672 152.379,159.672 152.363,159.692 152.348,159.712 152.332,159.731 152.316,159.751 152.3,159.771 152.285,159.791 152.268,159.81 152.252,159.83 152.252,159.83 152.237,159.848 152.222,159.867 152.206,159.885 152.191,159.903 152.175,159.922 152.16,159.94 152.144,159.958 152.128,159.976 152.128,159.976 152.113,159.993 152.098,160.01 152.083,160.027 152.068,160.044 152.052,160.061 152.037,160.078 152.022,160.095 152.006,160.112 152.006,160.112 151.991,160.127 151.976,160.143 151.961,160.159 151.946,160.174 151.931,160.19 151.916,160.206 151.901,160.221 151.885,160.236 151.885,160.236 151.871,160.251 151.856,160.266 151.841,160.28 151.826,160.294 151.811,160.309 151.796,160.323 151.781,160.337 151.766,160.351 151.766,160.351 151.751,160.364 151.737,160.378 151.722,160.391 151.707,160.404 151.692,160.417 151.677,160.43 151.662,160.443 151.647,160.456 151.647,160.456 151.633,160.468 151.618,160.48 151.604,160.492 151.589,160.504 151.574,160.516 151.559,160.527 151.544,160.539 151.529,160.55 151.529,160.55 151.515,160.562 151.5,160.572 151.485,160.583 151.47,160.594 151.456,160.605 151.441,160.615 151.426,160.626 151.411,160.636 151.411,160.636 151.396,160.646 151.382,160.656 151.367,160.665 151.352,160.675 151.338,160.684 151.323,160.694 151.308,160.703 151.293,160.712 151.293,160.712 151.278,160.721 151.263,160.73 151.249,160.738 151.234,160.747 151.219,160.755 151.204,160.764 151.189,160.772 151.174,160.78 151.174,160.78 151.159,160.788 151.144,160.796 151.129,160.803 151.114,160.81 151.1,160.818 151.084,160.825 151.069,160.832 151.054,160.839 151.054,160.839 151.039,160.846 151.024,160.853 151.009,160.859 150.994,160.866 150.979,160.872 150.964,160.878 150.948,160.884 150.933,160.89 150.933,160.89 150.918,160.896 150.903,160.902 150.887,160.907 150.872,160.913 150.857,160.918 150.841,160.923 150.826,160.928 150.81,160.933 150.81,160.933 150.795,160.938 150.779,160.943 150.764,160.948 150.748,160.952 150.732,160.957 150.717,160.961 150.701,160.965 150.685,160.969 150.685,160.969 150.669,160.973 150.654,160.977 150.638,160.981 150.622,160.984 150.606,160.988 150.59,160.991 150.574,160.994 150.558,160.998 150.558,160.998 150.542,161.001 150.526,161.004 150.509,161.007 150.493,161.009 150.477,161.012 150.461,161.014 150.444,161.017 150.428,161.019 150.428,161.019 150.411,161.021 150.395,161.024 150.378,161.026 150.362,161.028 150.345,161.029 150.328,161.031 150.312,161.033 150.295,161.034 150.295,161.034 150.278,161.036 150.261,161.037 150.244,161.038 150.227,161.039 150.21,161.04 150.193,161.041 150.176,161.042 150.159,161.043 150.159,161.043 150.143,161.043 150.127,161.044 150.111,161.045 150.096,161.045 150.08,161.045 150.064,161.046 150.048,161.046 150.033,161.046 150.033,161.046 150.019,161.046 150.005,161.046 149.991,161.045 149.977,161.045 149.963,161.045 149.949,161.044 149.935,161.044 149.921,161.043 149.921,161.043 149.909,161.042 149.896,161.041 149.884,161.041 149.872,161.04 149.86,161.039 149.848,161.037 149.836,161.036 149.824,161.035 149.824,161.035 149.812,161.033 149.801,161.032 149.789,161.03 149.777,161.029 149.765,161.027 149.754,161.025 149.742,161.023 149.731,161.021 149.731,161.021 149.72,161.019 149.708,161.017 149.697,161.014 149.686,161.012 149.675,161.01 149.664,161.007 149.652,161.004 149.641,161.002 149.641,161.002 149.631,160.999 149.62,160.996 149.609,160.993 149.598,160.99 149.588,160.987 149.577,160.984 149.566,160.981 149.556,160.977 149.556,160.977 149.546,160.974 149.535,160.97 149.525,160.967 149.515,160.963 149.505,160.959 149.495,160.955 149.485,160.951 149.475,160.947 149.475,160.947 149.465,160.943 149.455,160.939 149.445,160.935 149.436,160.93 149.426,160.926 149.417,160.921 149.407,160.917 149.398,160.912 149.398,160.912 149.388,160.907 149.379,160.903 149.37,160.898 149.361,160.893 149.352,160.887 149.343,160.882 149.334,160.877 149.326,160.872 149.326,160.872 149.317,160.866 149.308,160.861 149.3,160.855 149.291,160.85 149.283,160.844 149.274,160.838 149.266,160.832 149.258,160.826 149.258,160.826 149.25,160.82 149.242,160.814 149.234,160.808 149.226,160.802 149.218,160.795 149.211,160.789 149.203,160.782 149.195,160.775 149.195,160.775 149.188,160.769 149.181,160.762 149.173,160.755 149.166,160.748 149.159,160.741 149.152,160.734 149.145,160.727 149.138,160.72 149.138,160.72 149.131,160.713 149.125,160.705 149.118,160.698 149.112,160.69 149.105,160.683 149.099,160.675 149.093,160.667 149.086,160.659 149.086,160.659 149.08,160.651 149.074,160.643 149.068,160.635 149.062,160.627 149.057,160.619 149.051,160.611 149.046,160.602 149.04,160.594 149.04,160.594 149.035,160.585 149.029,160.577 149.024,160.568 149.019,160.559 149.014,160.55 149.009,160.541 149.004,160.532 149.0,160.523 149.0,160.523 148.995,160.514 148.99,160.505 148.986,160.496 148.982,160.486 148.977,160.477 148.973,160.467 148.969,160.458 148.965,160.448 148.965,160.448 148.962,160.438 148.958,160.428 148.954,160.419 148.95,160.409 148.947,160.399 148.944,160.389 148.94,160.379 148.937,160.368 148.937,160.368 148.934,160.358 148.931,160.348 148.928,160.337 148.926,160.326 148.923,160.316 148.92,160.305 148.918,160.295 148.916,160.284 148.916,160.284 148.913,160.273 148.911,160.262 148.909,160.251 148.907,160.239 148.905,160.229 148.904,160.217 148.902,160.206 148.901,160.195 148.901,160.195 148.899,160.183 148.898,160.172 148.897,160.16 148.896,160.148 148.895,160.136 148.894,160.125 148.893,160.113 148.893,160.101 148.893,160.101 148.892,160.089 148.892,160.077 148.892,160.065 148.891,160.052 148.891,160.04 148.891,160.028 148.892,160.016 148.892,160.003 148.892,160.003 148.892,159.991 148.893,159.978 148.893,159.965 148.894,159.952 148.895,159.939 148.896,159.927 148.897,159.914 148.898,159.901 148.898,159.901 148.899,159.888 148.901,159.874 148.902,159.861 148.904,159.848 148.906,159.834 148.908,159.821 148.91,159.808 148.912,159.794 148.912,159.794 148.914,159.78 148.917,159.766 148.919,159.752 148.922,159.739 148.924,159.725 148.927,159.711 148.93,159.697 148.933,159.683 148.933,159.683 148.937,159.669 148.94,159.654 148.944,159.64 148.947,159.625 148.951,159.611 148.955,159.597 148.958,159.582 148.963,159.568 148.963,159.568 148.967,159.553 148.971,159.538 148.976,159.523 148.981,159.508 148.985,159.493 148.99,159.478 148.995,159.464 149.0,159.449 149.0,159.449 149.005,159.433 149.011,159.418 149.016,159.402 149.022,159.387 149.028,159.371 149.034,159.356 149.04,159.341 149.046,159.325 149.046,159.325 149.052,159.309 149.059,159.293 149.065,159.277 149.072,159.261 149.079,159.245 149.086,159.23 149.093,159.214 149.1,159.198 149.1,159.198 149.115,159.164 149.131,159.131 149.147,159.098 149.164,159.064 149.181,159.031 149.198,158.999 149.215,158.966" fill="none" stroke="black" stroke-width="0.1"/>
        <polygon id="_132136424" points="183.211,133.747 174.47,133.747 173.095,136.201 177.858,136.201 157.385,163.206 166.516,163.206 167.891,160.751 162.639,160.751" fill="none" stroke="black" stroke-width="0.1"/>
        <polygon id="_132150832" points="195.534,133.747 186.794,133.747 185.418,136.201 190.182,136.201 169.708,163.206 178.84,163.206 180.214,160.751 174.961,160.751" fill="none" stroke="black" stroke-width="0.1"/>
        <polygon id="_132204424" points="202.947,133.747 199.855,133.747 183.308,163.206 190.623,163.206 191.997,160.751 187.775,160.751" fill="none" stroke="black" stroke-width="0.1"/>
        <polygon id="_132141592" points="207.807,152.747 209.135,150.342 206.286,150.342 212.472,136.201 217.088,136.201 218.462,133.747 210.606,133.747 203.243,150.342 201.475,150.342 194.257,163.206 201.916,163.206 203.29,160.751 198.774,160.751 203.29,152.747" fill="none" stroke="black" stroke-width="0.1"/>
        <polygon id="_131954472___1_2" points="106.911,153.73 108.236,153.73 105.879,163.206 108.826,163.206 111.084,153.582 111.152,153.568 111.221,153.553 111.29,153.537 111.358,153.521 111.426,153.503 111.494,153.485 111.562,153.466 111.629,153.445 111.629,153.445 111.662,153.435 111.695,153.425 111.728,153.414 111.761,153.403 111.794,153.392 111.826,153.381 111.859,153.369 111.892,153.357 112.149,153.255 112.18,153.241 112.212,153.227 112.244,153.213 112.275,153.198 112.307,153.183 112.338,153.168 112.369,153.153 112.4,153.138 112.4,153.138 112.431,153.122 112.463,153.106 112.493,153.09 112.524,153.073 112.555,153.057 112.586,153.04 112.616,153.023 112.647,153.006 112.647,153.006 112.677,152.988 112.708,152.97 112.739,152.952 112.769,152.933 112.799,152.915 112.829,152.896 112.859,152.877 112.889,152.857 112.889,152.857 112.919,152.838 112.95,152.818 112.98,152.797 113.01,152.777 113.039,152.756 113.069,152.735 113.099,152.714 113.128,152.693 113.128,152.693 113.158,152.671 113.188,152.649 113.217,152.626 113.247,152.604 113.276,152.581 113.305,152.558 113.335,152.535 113.364,152.511 113.364,152.511 113.393,152.487 113.423,152.462 113.452,152.438 113.482,152.413 113.511,152.387 113.54,152.362 113.568,152.337 113.597,152.311 113.597,152.311 113.627,152.285 113.656,152.258 113.685,152.231 113.714,152.204 113.743,152.176 113.772,152.149 113.8,152.121 113.829,152.094 113.829,152.094 113.858,152.064 113.887,152.035 113.916,152.006 113.945,151.976 113.974,151.947 114.003,151.917 114.031,151.887 114.06,151.857 114.06,151.857 114.089,151.825 114.118,151.793 114.147,151.761 114.176,151.729 114.205,151.697 114.233,151.665 114.262,151.632 114.29,151.6 114.29,151.6 114.319,151.566 114.348,151.531 114.377,151.497 114.406,151.463 114.435,151.428 114.464,151.393 114.492,151.358 114.52,151.323 114.52,151.323 114.55,151.286 114.579,151.249 114.608,151.212 114.637,151.175 114.666,151.138 114.695,151.1 114.723,151.063 114.752,151.025 114.752,151.025 114.781,150.986 114.811,150.946 114.84,150.906 114.869,150.866 114.898,150.826 114.927,150.786 114.956,150.746 114.984,150.706 114.984,150.706 115.014,150.663 115.044,150.621 115.074,150.578 115.103,150.536 115.132,150.493 115.161,150.45 115.191,150.407 115.22,150.364 115.22,150.364 115.25,150.319 115.28,150.274 115.31,150.228 115.34,150.183 115.369,150.137 115.399,150.092 115.428,150.046 115.457,150.0 115.457,150.0 115.488,149.952 115.518,149.903 115.549,149.855 115.579,149.807 115.609,149.758 115.639,149.709 115.669,149.661 115.698,149.612 115.698,149.612 115.762,149.508 115.824,149.403 115.886,149.298 115.948,149.193 116.009,149.088 116.07,148.983 116.13,148.876 116.19,148.771 122.229,137.968 120.02,133.748 114.962,133.748 98.4159,163.206 101.558,163.206 108.285,151.275 116.73,136.202 118.105,136.202 119.038,138.017 113.293,148.279 113.246,148.363 113.198,148.445 113.15,148.528 113.101,148.61 113.052,148.692 113.003,148.774 112.953,148.856 112.902,148.937 112.902,148.937 112.879,148.974 112.855,149.011 112.831,149.048 112.807,149.085 112.783,149.122 112.759,149.159 112.734,149.196 112.71,149.233 112.71,149.233 112.686,149.267 112.663,149.302 112.64,149.336 112.616,149.37 112.592,149.404 112.568,149.438 112.544,149.472 112.519,149.506 112.519,149.506 112.496,149.537 112.473,149.569 112.45,149.601 112.426,149.632 112.402,149.663 112.379,149.694 112.355,149.725 112.33,149.756 112.33,149.756 112.307,149.785 112.284,149.814 112.261,149.843 112.237,149.871 112.213,149.9 112.189,149.928 112.165,149.957 112.141,149.985 112.141,149.985 112.118,150.011 112.095,150.037 112.071,150.064 112.048,150.089 112.024,150.116 112.0,150.141 111.975,150.167 111.951,150.192 111.951,150.192 111.928,150.216 111.904,150.24 111.88,150.263 111.857,150.287 111.833,150.31 111.808,150.333 111.784,150.356 111.759,150.379 111.759,150.379 111.736,150.4 111.712,150.422 111.688,150.443 111.664,150.464 111.639,150.485 111.615,150.505 111.59,150.526 111.565,150.546 111.565,150.546 111.541,150.565 111.516,150.584 111.492,150.603 111.467,150.622 111.442,150.64 111.417,150.658 111.392,150.676 111.367,150.694 111.367,150.694 111.342,150.711 111.317,150.728 111.292,150.744 111.266,150.761 111.241,150.777 111.215,150.793 111.19,150.808 111.164,150.824 111.164,150.824 111.138,150.838 111.112,150.853 111.087,150.867 111.06,150.881 111.034,150.895 111.008,150.909 110.982,150.922 110.955,150.935 110.955,150.935 110.929,150.948 110.902,150.96 110.875,150.973 110.849,150.985 110.822,150.996 110.795,151.008 110.768,151.019 110.74,151.03 110.74,151.03 110.713,151.04 110.685,151.051 110.658,151.061 110.63,151.071 110.602,151.08 110.574,151.09 110.546,151.099 110.518,151.108 110.518,151.108 110.489,151.116 110.461,151.125 110.432,151.133 110.403,151.141 110.374,151.148 110.345,151.156 110.316,151.163 110.287,151.17 110.287,151.17 110.257,151.177 110.227,151.183 110.197,151.189 110.167,151.195 110.137,151.201 110.108,151.207 110.077,151.212 110.047,151.217 110.047,151.217 110.016,151.222 109.985,151.226 109.954,151.231 109.923,151.235 109.891,151.239 109.86,151.243 109.829,151.246 109.797,151.25 109.797,151.25 109.731,151.256 109.665,151.261 109.599,151.265 109.533,151.269 109.466,151.271 109.4,151.273 109.334,151.274 109.267,151.275 108.285,151.275" fill="none" stroke="black" stroke-width="0.1"/>
    </g>
</svg>
